<svg width="172" height="39" viewBox="0 0 172 39" fill="none" xmlns="http://www.w3.org/2000/svg">
<path fill-rule="evenodd" clip-rule="evenodd" d="M17.6504 0C16.325 0 15.1169 0.693417 12.7005 2.08025L4.99401 6.50337L4.994 6.50337C2.55707 7.90203 1.3386 8.60136 0.6693 9.75721C0 10.913 0 12.3179 0 15.1277V23.8723C0 26.6821 0 28.087 0.6693 29.2428C1.3386 30.3986 2.55707 31.098 4.99401 32.4966L12.7005 36.9197L12.7006 36.9198C15.1169 38.3066 16.325 39 17.6504 39C18.9759 39 20.184 38.3066 22.6003 36.9197L30.3069 32.4966L30.3069 32.4966C32.7438 31.098 33.9623 30.3986 34.6316 29.2428C35.3009 28.087 35.3009 26.6821 35.3009 23.8723V23.8723V15.1277V15.1277C35.3009 12.3179 35.3009 10.913 34.6316 9.75721C33.9623 8.60136 32.7438 7.90203 30.3069 6.50337L30.3069 6.50336L22.6003 2.08025C20.184 0.693417 18.9759 0 17.6504 0ZM15.1867 9.84303L15.1867 9.84304L10.4633 12.5378C9.23954 13.2359 8.62767 13.585 8.2914 14.164C7.95514 14.743 7.95514 15.4474 7.95514 16.8563V22.1437C7.95514 23.5526 7.95514 24.257 8.2914 24.836C8.62767 25.415 9.23954 25.7641 10.4633 26.4622L15.1867 29.157C16.3897 29.8433 16.9912 30.1865 17.6505 30.1865C18.3097 30.1865 18.9112 29.8433 20.1143 29.157L24.8376 26.4622C26.0614 25.7641 26.6732 25.415 27.0095 24.836C27.3458 24.257 27.3458 23.5526 27.3458 22.1437V16.8563C27.3458 15.4474 27.3458 14.743 27.0095 14.164C26.6732 13.585 26.0614 13.2359 24.8376 12.5378L20.1143 9.84304C18.9112 9.1567 18.3097 8.81353 17.6505 8.81353C16.9912 8.81353 16.3897 9.1567 15.1867 9.84303Z" fill="white"/>
<path d="M16.2569 14.7883C16.9868 14.3653 17.3517 14.1538 17.7527 14.1538C18.1537 14.1538 18.5187 14.3653 19.2486 14.7883L21.0911 15.8562C21.817 16.2769 22.18 16.4872 22.3792 16.8329C22.5784 17.1787 22.5784 17.5982 22.5784 18.4372V20.5925C22.5784 21.4316 22.5784 21.8511 22.3792 22.1968C22.18 22.5425 21.817 22.7529 21.0911 23.1736L19.2486 24.2414C18.5187 24.6644 18.1537 24.8759 17.7527 24.8759C17.3517 24.8759 16.9868 24.6644 16.2569 24.2414L14.4143 23.1736C13.6884 22.7529 13.3254 22.5425 13.1262 22.1968C12.927 21.8511 12.927 21.4316 12.927 20.5925V18.4372C12.927 17.5982 12.927 17.1787 13.1262 16.8329C13.3254 16.4872 13.6884 16.2769 14.4143 15.8562L16.2569 14.7883Z" fill="white"/>
<path d="M62.8437 7.86078V12.702H51.6341V17.7707H60.9592V22.5145H51.6341V30.8648H46.338V7.86078H62.8437Z" fill="white"/>
<path d="M71.0136 30.8648H65.7174V7.86078H71.0136V30.8648Z" fill="white"/>
<path d="M89.1941 7.86078H95.3675L87.602 19.3628L95.5625 30.8648H89.2916L84.2879 23.2618L79.0892 30.8648H73.1108L81.1687 19.3303L73.3707 7.86078H79.6416L84.4503 15.4963L89.1941 7.86078Z" fill="white"/>
<path d="M97.6861 30.8648V7.86078H106.426C108.224 7.86078 109.838 8.10988 111.268 8.60809C112.719 9.08463 113.943 9.81028 114.939 10.785C115.957 11.7598 116.737 12.962 117.278 14.3916C117.82 15.8212 118.091 17.4783 118.091 19.3628C118.091 23.1535 117.094 26.0236 115.102 27.9731C113.13 29.9009 110.282 30.8648 106.556 30.8648H97.6861ZM106.621 26.0885C107.726 26.0885 108.657 25.9369 109.416 25.6337C110.195 25.3087 110.823 24.8539 111.3 24.269C111.798 23.6842 112.156 22.9802 112.372 22.1571C112.589 21.3339 112.697 20.4134 112.697 19.3953C112.697 17.1859 112.177 15.518 111.138 14.3916C110.12 13.2652 108.527 12.702 106.361 12.702H102.982V26.0885H106.621Z" fill="white"/>
<path d="M132.157 7.56836C133.912 7.56836 135.493 7.84995 136.901 8.41314C138.331 8.95466 139.544 9.74529 140.54 10.785C141.558 11.8031 142.338 13.0269 142.88 14.4566C143.421 15.8862 143.692 17.4783 143.692 19.2328C143.692 20.9657 143.421 22.5578 142.88 24.0091C142.338 25.4604 141.558 26.7167 140.54 27.7781C139.544 28.8395 138.331 29.6626 136.901 30.2475C135.471 30.8323 133.869 31.1139 132.092 31.0922C130.294 31.0922 128.681 30.8106 127.251 30.2475C125.843 29.6626 124.641 28.8503 123.645 27.8106C122.648 26.7709 121.879 25.5362 121.338 24.1066C120.818 22.6553 120.558 21.0632 120.558 19.3303C120.558 17.5758 120.829 15.9837 121.37 14.554C121.933 13.1028 122.713 11.8572 123.71 10.8175C124.728 9.77778 125.951 8.97633 127.381 8.41314C128.811 7.84995 130.403 7.56836 132.157 7.56836ZM125.984 19.2978C125.984 20.1859 126.103 21.0415 126.341 21.8646C126.601 22.6878 126.98 23.4242 127.479 24.0741C127.998 24.7022 128.648 25.2113 129.428 25.6012C130.208 25.9911 131.139 26.1968 132.222 26.2185C133.262 26.2185 134.161 26.0236 134.919 25.6337C135.677 25.2438 136.305 24.7239 136.804 24.0741C137.302 23.4242 137.67 22.6878 137.908 21.8646C138.147 21.0415 138.266 20.2076 138.266 19.3628C138.266 18.518 138.147 17.6841 137.908 16.8609C137.692 16.0378 137.334 15.3013 136.836 14.6515C136.338 14.0017 135.699 13.471 134.919 13.0594C134.161 12.6479 133.24 12.4421 132.157 12.4421C131.096 12.4421 130.175 12.637 129.396 13.0269C128.616 13.4168 127.977 13.9367 127.479 14.5865C126.98 15.2147 126.601 15.9403 126.341 16.7635C126.103 17.5866 125.984 18.4314 125.984 19.2978Z" fill="white"/>
<path d="M153.219 7.86078L159.49 18.3231L165.696 7.86078H171.804V30.8648H166.508V15.6263L160.497 25.6337H158.288L152.212 15.6263V30.8648H146.916V7.86078H153.219Z" fill="white"/>
</svg>
