<svg width="172" height="21" viewBox="0 0 172 21" fill="none" xmlns="http://www.w3.org/2000/svg">
<path d="M82.4635 3.85939C81.4463 3.85939 80.5743 4.03984 79.8477 4.40073C79.1373 4.76163 78.5479 5.24805 78.0797 5.86C77.6276 6.47195 77.2966 7.17805 77.0867 7.97829C76.8767 8.76285 76.7718 9.58663 76.7718 10.4496C76.7718 11.3754 76.8848 12.2463 77.1109 13.0622C77.3369 13.8781 77.6841 14.5921 78.1523 15.204C78.6206 15.8003 79.218 16.2789 79.9446 16.6398C80.6712 16.985 81.5351 17.1576 82.5362 17.1576C83.7472 17.1576 84.7644 16.9144 85.5879 16.4279C86.4114 15.9415 86.9442 15.2903 87.1864 14.4744H89.4873C89.1159 15.8552 88.3328 16.9614 87.138 17.7931C85.9431 18.609 84.393 19.017 82.4877 19.017C81.1637 19.017 80.0092 18.8051 79.0243 18.3815C78.0393 17.9578 77.2158 17.3694 76.5538 16.6162C75.9079 15.8631 75.4235 14.9687 75.1006 13.9331C74.7777 12.8974 74.6162 11.7598 74.6162 10.5202C74.6162 9.29634 74.7777 8.16659 75.1006 7.13098C75.4235 6.09537 75.916 5.20098 76.578 4.44781C77.24 3.67894 78.0635 3.08268 79.0485 2.65902C80.0334 2.21967 81.196 2 82.5362 2C83.4727 2 84.3123 2.10984 85.055 2.32951C85.8139 2.54919 86.4679 2.86301 87.0169 3.27098C87.582 3.66325 88.0422 4.14183 88.3974 4.70671C88.7526 5.2559 89.011 5.86785 89.1724 6.54256H87.0411C86.7989 5.72663 86.2741 5.07545 85.4668 4.58903C84.6756 4.1026 83.6745 3.85939 82.4635 3.85939Z" fill="white"/>
<path d="M93.5829 2.18829H105.087V4.04768H95.6901V9.64939H104.143V11.5323H95.6901V16.9693H105.087V18.8287H93.5829V2.18829Z" fill="white"/>
<path d="M109.334 18.8287V2.18829H112.023L120.96 16.0513V2.18829H123.067V18.8287H120.427L111.442 5.01268V18.8287H109.334Z" fill="white"/>
<path d="M131.985 18.8287V4.04768H126.487V2.18829H139.59V4.04768H134.092V18.8287H131.985Z" fill="white"/>
<path d="M145.121 12.5915V18.8287H143.014V2.18829H149.432C150.368 2.18829 151.216 2.28244 151.975 2.47073C152.734 2.65902 153.38 2.95715 153.913 3.36512C154.445 3.77309 154.849 4.31443 155.124 4.98915C155.414 5.64817 155.56 6.44842 155.56 7.38988C155.56 8.08029 155.455 8.70008 155.245 9.24927C155.035 9.78277 154.752 10.2535 154.397 10.6615C154.058 11.0537 153.654 11.3833 153.186 11.65C152.718 11.9011 152.233 12.0972 151.733 12.2384L155.317 18.8287H153.016L149.601 12.5915H145.121ZM148.754 10.7321C149.383 10.7321 149.973 10.685 150.522 10.5909C151.087 10.4967 151.579 10.3241 151.999 10.0731C152.419 9.82199 152.75 9.48464 152.992 9.06098C153.251 8.62163 153.388 8.04106 153.404 7.31927C153.404 6.12675 153.041 5.28728 152.314 4.80085C151.604 4.29874 150.57 4.04768 149.214 4.04768H145.121V10.7321H148.754Z" fill="white"/>
<path d="M159.924 2.18829H171.429V4.04768H162.031V9.64939H170.484V11.5323H162.031V16.9693H171.429V18.8287H159.924V2.18829Z" fill="white"/>
<path d="M16.7032 19.7041C18.288 20.568 20.079 21 22.0763 21C24.0953 21 25.8864 20.568 27.4494 19.7041C29.0125 18.818 30.2391 17.5886 31.1292 16.0158C31.7923 14.8277 32.2084 13.5045 32.3775 12.046H11.7751C11.9443 13.5045 12.3604 14.8277 13.0234 16.0158C13.9135 17.5886 15.1401 18.818 16.7032 19.7041Z" fill="white"/>
<path d="M11.7743 8.94843C11.9429 7.47904 12.3593 6.15762 13.0234 4.98418C13.9135 3.41139 15.1401 2.19304 16.7032 1.32911C18.288 0.443038 20.079 0 22.0763 0C24.0953 0 25.8864 0.443038 27.4494 1.32911C29.0125 2.19304 30.2391 3.41139 31.1292 4.98418C31.7933 6.15762 32.2097 7.47904 32.3783 8.94843H11.7743Z" fill="white"/>
<path d="M32.7436 12.046C32.9128 13.5045 33.3288 14.8277 33.9919 16.0158C34.882 17.5886 36.1086 18.818 37.6717 19.7041C39.2565 20.568 41.0475 21 43.0448 21C45.0638 21 46.8548 20.568 48.4179 19.7041C49.981 18.818 51.2076 17.5886 52.0977 16.0158C52.7608 14.8277 53.1768 13.5045 53.346 12.046H32.7436Z" fill="white"/>
<path d="M53.3468 8.94843H32.7428C32.9114 7.47904 33.3278 6.15762 33.9919 4.98418C34.882 3.41139 36.1086 2.19304 37.6717 1.32911C39.2565 0.443038 41.0475 0 43.0448 0C45.0638 0 46.8548 0.443038 48.4179 1.32911C49.981 2.19304 51.2076 3.41139 52.0977 4.98418C52.7618 6.15762 53.1782 7.47904 53.3468 8.94843Z" fill="white"/>
<path d="M57.0946 12.046V20.4684H64.7798V12.046H57.0946Z" fill="white"/>
<path d="M64.7798 8.94843H57.0946V6.4462H53.1868V0.531647H64.7798V8.94843Z" fill="white"/>
<path d="M11.5929 8.94843H3.90773V6.4462H0V0.531647H11.5929V8.94843Z" fill="white"/>
<path d="M3.90773 12.046H11.5929V20.4684H3.90773V12.046Z" fill="white"/>
</svg>
