<svg width="183" height="42" viewBox="0 0 183 42" fill="none" xmlns="http://www.w3.org/2000/svg">
<rect width="51" height="42" fill="#C61D33"/>
<mask id="path-2-outside-1_1_550" maskUnits="userSpaceOnUse" x="58.78" y="10.3201" width="124" height="24" fill="black">
<rect fill="white" x="58.78" y="10.3201" width="124" height="24"/>
<path d="M63.94 18.3401C63.94 18.7387 64.1133 19.1027 64.46 19.4321C64.824 19.7614 65.4307 20.0474 66.28 20.2901L70.31 21.4601C71.558 21.8241 72.52 22.3181 73.196 22.9421C73.872 23.5661 74.21 24.3721 74.21 25.3601C74.21 25.9841 74.08 26.5561 73.82 27.0761C73.56 27.5787 73.1353 28.0121 72.546 28.3761C71.9567 28.7401 71.194 29.0174 70.258 29.2081C69.322 29.4161 68.1693 29.5201 66.8 29.5201C66.0893 29.5201 65.3873 29.4681 64.694 29.3641C64.018 29.2601 63.368 29.1214 62.744 28.9481C62.1373 28.7574 61.5827 28.5494 61.08 28.3241C60.5773 28.0814 60.144 27.8301 59.78 27.5701L60.82 26.0101C61.548 26.4607 62.3973 26.8594 63.368 27.2061C64.356 27.5354 65.5 27.7001 66.8 27.7001C68.1 27.7001 69.01 27.5267 69.53 27.1801C70.05 26.8334 70.31 26.4001 70.31 25.8801C70.31 25.4814 70.128 25.1261 69.764 24.8141C69.4 24.4847 68.7587 24.1901 67.84 23.9301L63.81 22.7601C62.7007 22.4307 61.7907 21.9627 61.08 21.3561C60.3867 20.7321 60.04 19.9001 60.04 18.8601C60.04 18.3054 60.1613 17.7941 60.404 17.3261C60.664 16.8407 61.0627 16.4247 61.6 16.0781C62.1373 15.7314 62.822 15.4627 63.654 15.2721C64.486 15.0641 65.4913 14.9601 66.67 14.9601C68.1087 14.9601 69.4087 15.1594 70.57 15.5581C71.7487 15.9394 72.702 16.3901 73.43 16.9101L72.39 18.4701C71.6793 18.0194 70.8733 17.6294 69.972 17.3001C69.0707 16.9534 67.97 16.7801 66.67 16.7801C65.7513 16.7801 65.0667 16.9274 64.616 17.2221C64.1653 17.5167 63.94 17.8894 63.94 18.3401Z"/>
<path d="M78.1161 15.4801H81.7561V23.6701C81.7561 24.9181 82.0681 25.8194 82.6921 26.3741C83.3161 26.9114 84.2174 27.1801 85.3961 27.1801H88.7761V15.4801H92.4161V29.0001H85.3961C82.9174 29.0001 81.0801 28.5581 79.8841 27.6741C78.7054 26.7727 78.1161 25.4381 78.1161 23.6701V15.4801Z"/>
<path d="M101.007 17.3001V27.1801H104.257C104.847 27.1801 105.384 27.0934 105.869 26.9201C106.372 26.7294 106.797 26.4347 107.143 26.0361C107.507 25.6374 107.785 25.1261 107.975 24.5021C108.183 23.8781 108.287 23.1241 108.287 22.2401C108.287 21.3561 108.183 20.6021 107.975 19.9781C107.785 19.3541 107.507 18.8427 107.143 18.4441C106.797 18.0454 106.372 17.7594 105.869 17.5861C105.384 17.3954 104.847 17.3001 104.257 17.3001H101.007ZM104.257 15.4801C105.453 15.4801 106.537 15.6361 107.507 15.9481C108.495 16.2601 109.336 16.7107 110.029 17.3001C110.723 17.8894 111.251 18.6001 111.615 19.4321C111.997 20.2641 112.187 21.2001 112.187 22.2401C112.187 23.2801 111.997 24.2161 111.615 25.0481C111.251 25.8801 110.723 26.5907 110.029 27.1801C109.336 27.7694 108.495 28.2201 107.507 28.5321C106.537 28.8441 105.453 29.0001 104.257 29.0001H101.007V33.6801H97.3673V15.4801H104.257Z"/>
<path d="M120.106 17.3001V27.1801H123.356C123.945 27.1801 124.483 27.0934 124.968 26.9201C125.471 26.7294 125.895 26.4347 126.242 26.0361C126.606 25.6374 126.883 25.1261 127.074 24.5021C127.282 23.8781 127.386 23.1241 127.386 22.2401C127.386 21.3561 127.282 20.6021 127.074 19.9781C126.883 19.3541 126.606 18.8427 126.242 18.4441C125.895 18.0454 125.471 17.7594 124.968 17.5861C124.483 17.3954 123.945 17.3001 123.356 17.3001H120.106ZM123.356 15.4801C124.552 15.4801 125.635 15.6361 126.606 15.9481C127.594 16.2601 128.435 16.7107 129.128 17.3001C129.821 17.8894 130.35 18.6001 130.714 19.4321C131.095 20.2641 131.286 21.2001 131.286 22.2401C131.286 23.2801 131.095 24.2161 130.714 25.0481C130.35 25.8801 129.821 26.5907 129.128 27.1801C128.435 27.7694 127.594 28.2201 126.606 28.5321C125.635 28.8441 124.552 29.0001 123.356 29.0001H120.106V33.6801H116.466V15.4801H123.356Z"/>
<path d="M142.845 27.8301C143.4 27.8301 143.92 27.7261 144.405 27.5181C144.89 27.3101 145.315 26.9894 145.679 26.5561C146.043 26.1054 146.329 25.5247 146.537 24.8141C146.762 24.1034 146.875 23.2454 146.875 22.2401C146.875 21.2347 146.762 20.3767 146.537 19.6661C146.329 18.9554 146.043 18.3834 145.679 17.9501C145.315 17.4994 144.89 17.1701 144.405 16.9621C143.92 16.7541 143.4 16.6501 142.845 16.6501C142.29 16.6501 141.77 16.7541 141.285 16.9621C140.8 17.1701 140.375 17.4994 140.011 17.9501C139.647 18.3834 139.352 18.9554 139.127 19.6661C138.919 20.3767 138.815 21.2347 138.815 22.2401C138.815 23.2454 138.919 24.1034 139.127 24.8141C139.352 25.5247 139.647 26.1054 140.011 26.5561C140.375 26.9894 140.8 27.3101 141.285 27.5181C141.77 27.7261 142.29 27.8301 142.845 27.8301ZM142.845 14.9601C144.006 14.9601 145.072 15.1247 146.043 15.4541C147.031 15.7661 147.872 16.2341 148.565 16.8581C149.258 17.4647 149.796 18.2274 150.177 19.1461C150.576 20.0474 150.775 21.0787 150.775 22.2401C150.775 23.4187 150.576 24.4587 150.177 25.3601C149.796 26.2614 149.258 27.0241 148.565 27.6481C147.872 28.2547 147.031 28.7141 146.043 29.0261C145.072 29.3554 144.006 29.5201 142.845 29.5201C141.666 29.5201 140.592 29.3554 139.621 29.0261C138.65 28.7141 137.818 28.2547 137.125 27.6481C136.432 27.0241 135.886 26.2614 135.487 25.3601C135.106 24.4587 134.915 23.4187 134.915 22.2401C134.915 21.0787 135.106 20.0474 135.487 19.1461C135.886 18.2274 136.432 17.4647 137.125 16.8581C137.818 16.2341 138.65 15.7661 139.621 15.4541C140.592 15.1247 141.666 14.9601 142.845 14.9601Z"/>
<path d="M165.34 17.3001H162.22C161.041 17.3001 160.14 17.6207 159.516 18.2621C158.892 18.8861 158.58 19.8221 158.58 21.0701V29.0001H154.94V21.0701C154.94 19.3021 155.495 17.9327 156.604 16.9621C157.731 15.9741 159.343 15.4801 161.44 15.4801H165.34V17.3001Z"/>
<path d="M171.7 17.3001H169.23V15.4801H171.7V11.3201H175.34V15.4801H179.37V17.3001H175.34V24.0601C175.34 24.7187 175.409 25.2821 175.548 25.7501C175.704 26.2007 175.903 26.5734 176.146 26.8681C176.406 27.1454 176.701 27.3534 177.03 27.4921C177.359 27.6307 177.706 27.7001 178.07 27.7001C178.59 27.7001 179.093 27.6221 179.578 27.4661C180.063 27.2927 180.471 27.1107 180.8 26.9201L181.58 28.6101C181.06 28.8701 180.462 29.0867 179.786 29.2601C179.127 29.4334 178.469 29.5201 177.81 29.5201C175.851 29.5201 174.343 29.0347 173.286 28.0641C172.229 27.0934 171.7 25.7587 171.7 24.0601V17.3001Z"/>
</mask>
<path d="M63.94 18.3401C63.94 18.7387 64.1133 19.1027 64.46 19.4321C64.824 19.7614 65.4307 20.0474 66.28 20.2901L70.31 21.4601C71.558 21.8241 72.52 22.3181 73.196 22.9421C73.872 23.5661 74.21 24.3721 74.21 25.3601C74.21 25.9841 74.08 26.5561 73.82 27.0761C73.56 27.5787 73.1353 28.0121 72.546 28.3761C71.9567 28.7401 71.194 29.0174 70.258 29.2081C69.322 29.4161 68.1693 29.5201 66.8 29.5201C66.0893 29.5201 65.3873 29.4681 64.694 29.3641C64.018 29.2601 63.368 29.1214 62.744 28.9481C62.1373 28.7574 61.5827 28.5494 61.08 28.3241C60.5773 28.0814 60.144 27.8301 59.78 27.5701L60.82 26.0101C61.548 26.4607 62.3973 26.8594 63.368 27.2061C64.356 27.5354 65.5 27.7001 66.8 27.7001C68.1 27.7001 69.01 27.5267 69.53 27.1801C70.05 26.8334 70.31 26.4001 70.31 25.8801C70.31 25.4814 70.128 25.1261 69.764 24.8141C69.4 24.4847 68.7587 24.1901 67.84 23.9301L63.81 22.7601C62.7007 22.4307 61.7907 21.9627 61.08 21.3561C60.3867 20.7321 60.04 19.9001 60.04 18.8601C60.04 18.3054 60.1613 17.7941 60.404 17.3261C60.664 16.8407 61.0627 16.4247 61.6 16.0781C62.1373 15.7314 62.822 15.4627 63.654 15.2721C64.486 15.0641 65.4913 14.9601 66.67 14.9601C68.1087 14.9601 69.4087 15.1594 70.57 15.5581C71.7487 15.9394 72.702 16.3901 73.43 16.9101L72.39 18.4701C71.6793 18.0194 70.8733 17.6294 69.972 17.3001C69.0707 16.9534 67.97 16.7801 66.67 16.7801C65.7513 16.7801 65.0667 16.9274 64.616 17.2221C64.1653 17.5167 63.94 17.8894 63.94 18.3401Z" fill="white"/>
<path d="M78.1161 15.4801H81.7561V23.6701C81.7561 24.9181 82.0681 25.8194 82.6921 26.3741C83.3161 26.9114 84.2174 27.1801 85.3961 27.1801H88.7761V15.4801H92.4161V29.0001H85.3961C82.9174 29.0001 81.0801 28.5581 79.8841 27.6741C78.7054 26.7727 78.1161 25.4381 78.1161 23.6701V15.4801Z" fill="white"/>
<path d="M101.007 17.3001V27.1801H104.257C104.847 27.1801 105.384 27.0934 105.869 26.9201C106.372 26.7294 106.797 26.4347 107.143 26.0361C107.507 25.6374 107.785 25.1261 107.975 24.5021C108.183 23.8781 108.287 23.1241 108.287 22.2401C108.287 21.3561 108.183 20.6021 107.975 19.9781C107.785 19.3541 107.507 18.8427 107.143 18.4441C106.797 18.0454 106.372 17.7594 105.869 17.5861C105.384 17.3954 104.847 17.3001 104.257 17.3001H101.007ZM104.257 15.4801C105.453 15.4801 106.537 15.6361 107.507 15.9481C108.495 16.2601 109.336 16.7107 110.029 17.3001C110.723 17.8894 111.251 18.6001 111.615 19.4321C111.997 20.2641 112.187 21.2001 112.187 22.2401C112.187 23.2801 111.997 24.2161 111.615 25.0481C111.251 25.8801 110.723 26.5907 110.029 27.1801C109.336 27.7694 108.495 28.2201 107.507 28.5321C106.537 28.8441 105.453 29.0001 104.257 29.0001H101.007V33.6801H97.3673V15.4801H104.257Z" fill="white"/>
<path d="M120.106 17.3001V27.1801H123.356C123.945 27.1801 124.483 27.0934 124.968 26.9201C125.471 26.7294 125.895 26.4347 126.242 26.0361C126.606 25.6374 126.883 25.1261 127.074 24.5021C127.282 23.8781 127.386 23.1241 127.386 22.2401C127.386 21.3561 127.282 20.6021 127.074 19.9781C126.883 19.3541 126.606 18.8427 126.242 18.4441C125.895 18.0454 125.471 17.7594 124.968 17.5861C124.483 17.3954 123.945 17.3001 123.356 17.3001H120.106ZM123.356 15.4801C124.552 15.4801 125.635 15.6361 126.606 15.9481C127.594 16.2601 128.435 16.7107 129.128 17.3001C129.821 17.8894 130.35 18.6001 130.714 19.4321C131.095 20.2641 131.286 21.2001 131.286 22.2401C131.286 23.2801 131.095 24.2161 130.714 25.0481C130.35 25.8801 129.821 26.5907 129.128 27.1801C128.435 27.7694 127.594 28.2201 126.606 28.5321C125.635 28.8441 124.552 29.0001 123.356 29.0001H120.106V33.6801H116.466V15.4801H123.356Z" fill="white"/>
<path d="M142.845 27.8301C143.4 27.8301 143.92 27.7261 144.405 27.5181C144.89 27.3101 145.315 26.9894 145.679 26.5561C146.043 26.1054 146.329 25.5247 146.537 24.8141C146.762 24.1034 146.875 23.2454 146.875 22.2401C146.875 21.2347 146.762 20.3767 146.537 19.6661C146.329 18.9554 146.043 18.3834 145.679 17.9501C145.315 17.4994 144.89 17.1701 144.405 16.9621C143.92 16.7541 143.4 16.6501 142.845 16.6501C142.29 16.6501 141.77 16.7541 141.285 16.9621C140.8 17.1701 140.375 17.4994 140.011 17.9501C139.647 18.3834 139.352 18.9554 139.127 19.6661C138.919 20.3767 138.815 21.2347 138.815 22.2401C138.815 23.2454 138.919 24.1034 139.127 24.8141C139.352 25.5247 139.647 26.1054 140.011 26.5561C140.375 26.9894 140.8 27.3101 141.285 27.5181C141.77 27.7261 142.29 27.8301 142.845 27.8301ZM142.845 14.9601C144.006 14.9601 145.072 15.1247 146.043 15.4541C147.031 15.7661 147.872 16.2341 148.565 16.8581C149.258 17.4647 149.796 18.2274 150.177 19.1461C150.576 20.0474 150.775 21.0787 150.775 22.2401C150.775 23.4187 150.576 24.4587 150.177 25.3601C149.796 26.2614 149.258 27.0241 148.565 27.6481C147.872 28.2547 147.031 28.7141 146.043 29.0261C145.072 29.3554 144.006 29.5201 142.845 29.5201C141.666 29.5201 140.592 29.3554 139.621 29.0261C138.65 28.7141 137.818 28.2547 137.125 27.6481C136.432 27.0241 135.886 26.2614 135.487 25.3601C135.106 24.4587 134.915 23.4187 134.915 22.2401C134.915 21.0787 135.106 20.0474 135.487 19.1461C135.886 18.2274 136.432 17.4647 137.125 16.8581C137.818 16.2341 138.65 15.7661 139.621 15.4541C140.592 15.1247 141.666 14.9601 142.845 14.9601Z" fill="white"/>
<path d="M165.34 17.3001H162.22C161.041 17.3001 160.14 17.6207 159.516 18.2621C158.892 18.8861 158.58 19.8221 158.58 21.0701V29.0001H154.94V21.0701C154.94 19.3021 155.495 17.9327 156.604 16.9621C157.731 15.9741 159.343 15.4801 161.44 15.4801H165.34V17.3001Z" fill="white"/>
<path d="M171.7 17.3001H169.23V15.4801H171.7V11.3201H175.34V15.4801H179.37V17.3001H175.34V24.0601C175.34 24.7187 175.409 25.2821 175.548 25.7501C175.704 26.2007 175.903 26.5734 176.146 26.8681C176.406 27.1454 176.701 27.3534 177.03 27.4921C177.359 27.6307 177.706 27.7001 178.07 27.7001C178.59 27.7001 179.093 27.6221 179.578 27.4661C180.063 27.2927 180.471 27.1107 180.8 26.9201L181.58 28.6101C181.06 28.8701 180.462 29.0867 179.786 29.2601C179.127 29.4334 178.469 29.5201 177.81 29.5201C175.851 29.5201 174.343 29.0347 173.286 28.0641C172.229 27.0934 171.7 25.7587 171.7 24.0601V17.3001Z" fill="white"/>
<path d="M63.94 18.3401C63.94 18.7387 64.1133 19.1027 64.46 19.4321C64.824 19.7614 65.4307 20.0474 66.28 20.2901L70.31 21.4601C71.558 21.8241 72.52 22.3181 73.196 22.9421C73.872 23.5661 74.21 24.3721 74.21 25.3601C74.21 25.9841 74.08 26.5561 73.82 27.0761C73.56 27.5787 73.1353 28.0121 72.546 28.3761C71.9567 28.7401 71.194 29.0174 70.258 29.2081C69.322 29.4161 68.1693 29.5201 66.8 29.5201C66.0893 29.5201 65.3873 29.4681 64.694 29.3641C64.018 29.2601 63.368 29.1214 62.744 28.9481C62.1373 28.7574 61.5827 28.5494 61.08 28.3241C60.5773 28.0814 60.144 27.8301 59.78 27.5701L60.82 26.0101C61.548 26.4607 62.3973 26.8594 63.368 27.2061C64.356 27.5354 65.5 27.7001 66.8 27.7001C68.1 27.7001 69.01 27.5267 69.53 27.1801C70.05 26.8334 70.31 26.4001 70.31 25.8801C70.31 25.4814 70.128 25.1261 69.764 24.8141C69.4 24.4847 68.7587 24.1901 67.84 23.9301L63.81 22.7601C62.7007 22.4307 61.7907 21.9627 61.08 21.3561C60.3867 20.7321 60.04 19.9001 60.04 18.8601C60.04 18.3054 60.1613 17.7941 60.404 17.3261C60.664 16.8407 61.0627 16.4247 61.6 16.0781C62.1373 15.7314 62.822 15.4627 63.654 15.2721C64.486 15.0641 65.4913 14.9601 66.67 14.9601C68.1087 14.9601 69.4087 15.1594 70.57 15.5581C71.7487 15.9394 72.702 16.3901 73.43 16.9101L72.39 18.4701C71.6793 18.0194 70.8733 17.6294 69.972 17.3001C69.0707 16.9534 67.97 16.7801 66.67 16.7801C65.7513 16.7801 65.0667 16.9274 64.616 17.2221C64.1653 17.5167 63.94 17.8894 63.94 18.3401Z" stroke="white" mask="url(#path-2-outside-1_1_550)"/>
<path d="M78.1161 15.4801H81.7561V23.6701C81.7561 24.9181 82.0681 25.8194 82.6921 26.3741C83.3161 26.9114 84.2174 27.1801 85.3961 27.1801H88.7761V15.4801H92.4161V29.0001H85.3961C82.9174 29.0001 81.0801 28.5581 79.8841 27.6741C78.7054 26.7727 78.1161 25.4381 78.1161 23.6701V15.4801Z" stroke="white" mask="url(#path-2-outside-1_1_550)"/>
<path d="M101.007 17.3001V27.1801H104.257C104.847 27.1801 105.384 27.0934 105.869 26.9201C106.372 26.7294 106.797 26.4347 107.143 26.0361C107.507 25.6374 107.785 25.1261 107.975 24.5021C108.183 23.8781 108.287 23.1241 108.287 22.2401C108.287 21.3561 108.183 20.6021 107.975 19.9781C107.785 19.3541 107.507 18.8427 107.143 18.4441C106.797 18.0454 106.372 17.7594 105.869 17.5861C105.384 17.3954 104.847 17.3001 104.257 17.3001H101.007ZM104.257 15.4801C105.453 15.4801 106.537 15.6361 107.507 15.9481C108.495 16.2601 109.336 16.7107 110.029 17.3001C110.723 17.8894 111.251 18.6001 111.615 19.4321C111.997 20.2641 112.187 21.2001 112.187 22.2401C112.187 23.2801 111.997 24.2161 111.615 25.0481C111.251 25.8801 110.723 26.5907 110.029 27.1801C109.336 27.7694 108.495 28.2201 107.507 28.5321C106.537 28.8441 105.453 29.0001 104.257 29.0001H101.007V33.6801H97.3673V15.4801H104.257Z" stroke="white" mask="url(#path-2-outside-1_1_550)"/>
<path d="M120.106 17.3001V27.1801H123.356C123.945 27.1801 124.483 27.0934 124.968 26.9201C125.471 26.7294 125.895 26.4347 126.242 26.0361C126.606 25.6374 126.883 25.1261 127.074 24.5021C127.282 23.8781 127.386 23.1241 127.386 22.2401C127.386 21.3561 127.282 20.6021 127.074 19.9781C126.883 19.3541 126.606 18.8427 126.242 18.4441C125.895 18.0454 125.471 17.7594 124.968 17.5861C124.483 17.3954 123.945 17.3001 123.356 17.3001H120.106ZM123.356 15.4801C124.552 15.4801 125.635 15.6361 126.606 15.9481C127.594 16.2601 128.435 16.7107 129.128 17.3001C129.821 17.8894 130.35 18.6001 130.714 19.4321C131.095 20.2641 131.286 21.2001 131.286 22.2401C131.286 23.2801 131.095 24.2161 130.714 25.0481C130.35 25.8801 129.821 26.5907 129.128 27.1801C128.435 27.7694 127.594 28.2201 126.606 28.5321C125.635 28.8441 124.552 29.0001 123.356 29.0001H120.106V33.6801H116.466V15.4801H123.356Z" stroke="white" mask="url(#path-2-outside-1_1_550)"/>
<path d="M142.845 27.8301C143.4 27.8301 143.92 27.7261 144.405 27.5181C144.89 27.3101 145.315 26.9894 145.679 26.5561C146.043 26.1054 146.329 25.5247 146.537 24.8141C146.762 24.1034 146.875 23.2454 146.875 22.2401C146.875 21.2347 146.762 20.3767 146.537 19.6661C146.329 18.9554 146.043 18.3834 145.679 17.9501C145.315 17.4994 144.89 17.1701 144.405 16.9621C143.92 16.7541 143.4 16.6501 142.845 16.6501C142.29 16.6501 141.77 16.7541 141.285 16.9621C140.8 17.1701 140.375 17.4994 140.011 17.9501C139.647 18.3834 139.352 18.9554 139.127 19.6661C138.919 20.3767 138.815 21.2347 138.815 22.2401C138.815 23.2454 138.919 24.1034 139.127 24.8141C139.352 25.5247 139.647 26.1054 140.011 26.5561C140.375 26.9894 140.8 27.3101 141.285 27.5181C141.77 27.7261 142.29 27.8301 142.845 27.8301ZM142.845 14.9601C144.006 14.9601 145.072 15.1247 146.043 15.4541C147.031 15.7661 147.872 16.2341 148.565 16.8581C149.258 17.4647 149.796 18.2274 150.177 19.1461C150.576 20.0474 150.775 21.0787 150.775 22.2401C150.775 23.4187 150.576 24.4587 150.177 25.3601C149.796 26.2614 149.258 27.0241 148.565 27.6481C147.872 28.2547 147.031 28.7141 146.043 29.0261C145.072 29.3554 144.006 29.5201 142.845 29.5201C141.666 29.5201 140.592 29.3554 139.621 29.0261C138.65 28.7141 137.818 28.2547 137.125 27.6481C136.432 27.0241 135.886 26.2614 135.487 25.3601C135.106 24.4587 134.915 23.4187 134.915 22.2401C134.915 21.0787 135.106 20.0474 135.487 19.1461C135.886 18.2274 136.432 17.4647 137.125 16.8581C137.818 16.2341 138.65 15.7661 139.621 15.4541C140.592 15.1247 141.666 14.9601 142.845 14.9601Z" stroke="white" mask="url(#path-2-outside-1_1_550)"/>
<path d="M165.34 17.3001H162.22C161.041 17.3001 160.14 17.6207 159.516 18.2621C158.892 18.8861 158.58 19.8221 158.58 21.0701V29.0001H154.94V21.0701C154.94 19.3021 155.495 17.9327 156.604 16.9621C157.731 15.9741 159.343 15.4801 161.44 15.4801H165.34V17.3001Z" stroke="white" mask="url(#path-2-outside-1_1_550)"/>
<path d="M171.7 17.3001H169.23V15.4801H171.7V11.3201H175.34V15.4801H179.37V17.3001H175.34V24.0601C175.34 24.7187 175.409 25.2821 175.548 25.7501C175.704 26.2007 175.903 26.5734 176.146 26.8681C176.406 27.1454 176.701 27.3534 177.03 27.4921C177.359 27.6307 177.706 27.7001 178.07 27.7001C178.59 27.7001 179.093 27.6221 179.578 27.4661C180.063 27.2927 180.471 27.1107 180.8 26.9201L181.58 28.6101C181.06 28.8701 180.462 29.0867 179.786 29.2601C179.127 29.4334 178.469 29.5201 177.81 29.5201C175.851 29.5201 174.343 29.0347 173.286 28.0641C172.229 27.0934 171.7 25.7587 171.7 24.0601V17.3001Z" stroke="white" mask="url(#path-2-outside-1_1_550)"/>
<path fill-rule="evenodd" clip-rule="evenodd" d="M24.6985 22.375C24.6985 23.3244 24.5727 24.0948 24.3497 24.7083L24.3452 24.7208C24.1326 25.3306 23.8409 25.8035 23.4848 26.1662C23.1249 26.5163 22.681 26.7886 22.1351 26.9765C21.5894 27.1535 20.949 27.25 20.2025 27.25C19.4598 27.25 18.8103 27.1544 18.2447 26.9765C17.7195 26.7901 17.2828 26.5189 16.9203 26.1662C16.5618 25.8012 16.2611 25.3255 16.0322 24.7145C15.8236 24.0966 15.7066 23.3235 15.7066 22.375V11H10V22.375C10 25.1576 10.8695 27.4009 12.753 28.9062L12.7621 28.9134C14.6036 30.3503 17.1286 31 20.2025 31C23.261 31 25.7768 30.3496 27.6174 28.9134L27.6224 28.9094C29.5245 27.4054 30.405 25.1613 30.405 22.375V11H24.6985V22.375ZM34.2934 30.5H40V19.7576H34.2934V30.5ZM34 16H40V11H34V16Z" fill="white"/>
</svg>
