<svg width="411" height="435" fill="none" xmlns="http://www.w3.org/2000/svg"><path d="M69.325 169.649c6.908 15.482 4.05 35.49-8.575 46.923-6.907 6.193-15.958 9.527-23.342 15.244-7.384 5.716-13.1 15.482-9.527 24.057.952 2.143 2.381 4.049 2.858 6.431 1.19 6.193-4.764 11.195-9.051 15.72-9.766 10.242-12.148 28.583-1.668 38.348 8.099 7.622 20.723 7.622 31.918 6.67 15.005-1.191 30.726-3.573 43.588-11.433 12.862-7.86 21.913-20.723 27.153-34.776 5.24-14.053 6.67-29.297 6.431-44.303-.238-17.149-2.858-35.251-13.1-49.304-10.242-14.054-29.773-22.152-46.685-13.577z" fill="#D1BAFF"/><path d="M43.124 324.471c-8.813 0-17.626-1.43-23.819-7.384-4.525-4.049-6.907-10.004-7.146-16.673-.238-8.337 3.097-17.15 8.813-23.343l1.906-1.905c3.81-3.811 7.86-7.861 6.907-12.624-.238-1.191-.953-2.62-1.667-3.811-.476-.715-.715-1.668-1.191-2.382-3.811-9.289 2.62-19.532 10.004-25.248 3.335-2.62 6.907-4.526 10.48-6.669 4.288-2.382 8.813-5.002 12.624-8.337 11.91-10.718 15.244-29.773 8.337-45.732-.239-.476 0-1.191.476-1.429 17.864-9.289 38.11.238 47.876 13.815 8.813 11.909 13.1 27.868 13.338 49.781.239 17.626-1.905 32.155-6.431 44.541-5.716 15.482-15.482 28.106-27.63 35.49-13.1 8.099-29.058 10.242-44.064 11.671-2.858 0-5.717.239-8.813.239zm27.868-154.108c6.907 16.435 3.096 36.205-9.29 47.399-3.81 3.573-8.574 6.193-13.1 8.813-3.573 1.906-7.145 4.05-10.242 6.431-6.907 5.241-12.624 14.53-9.29 22.628.239.715.715 1.429 1.192 2.144.714 1.429 1.429 2.858 1.905 4.526 1.191 5.954-3.335 10.718-7.622 14.767l-1.905 1.906c-5.24 5.478-8.337 13.815-8.099 21.675.239 6.193 2.382 11.433 6.431 15.006 7.622 7.145 19.532 7.383 30.965 6.431 14.767-1.191 30.488-3.573 43.112-11.195 11.671-7.146 21.198-19.293 26.677-34.299 4.525-12.148 6.669-26.677 6.431-43.827-.238-21.437-4.288-36.919-12.862-48.59-9.528-12.862-27.868-21.675-44.303-13.815z" fill="#000"/><path d="M139.114 98.191c4.764 24.296 10.48 50.02 28.344 67.169 5.717 5.479 12.624 9.766 18.103 15.721 6.431 7.145 10.242 15.958 13.1 25.248 5.478 17.149 7.622 36.204.953 53.116-6.67 16.673-24.057 30.011-41.921 27.867-15.721-2.143-28.106-15.482-33.347-30.249-5.24-14.768-4.763-31.203-3.811-46.923 2.859-38.349 8.575-75.982 18.579-111.949z" fill="#D1BAFF"/><path d="M161.98 288.504c-1.429 0-2.858 0-4.049-.239-14.768-1.905-28.345-14.053-34.299-30.964-5.479-15.244-5.002-31.917-3.811-47.399 2.858-40.254 9.051-77.888 18.34-111.71.238-.477.715-.953 1.191-.953.476 0 .953.476 1.191.953 5.24 26.915 11.195 50.257 28.106 66.454 2.382 2.382 5.002 4.526 7.622 6.431 3.573 2.858 7.384 5.955 10.48 9.528 5.479 6.192 9.766 14.291 13.339 25.486 6.669 20.722 6.907 38.824.953 53.83-6.908 16.911-23.105 28.583-39.063 28.583zm-22.866-185.31c-8.813 32.631-14.53 68.359-17.15 106.708-.952 15.244-1.667 31.44 3.811 46.446 5.717 16.197 18.579 27.63 32.394 29.536 16.197 2.143 33.584-9.528 40.492-27.154 5.716-14.529 5.478-32.155-.953-52.163-3.573-10.957-7.622-18.817-12.862-24.771-3.097-3.335-6.669-6.432-10.242-9.052-2.62-2.143-5.24-4.287-7.86-6.669-16.435-15.482-22.628-37.634-27.63-62.881z" fill="#000"/><path d="M147.451 233.482c-4.287-12.147-6.908-24.771-9.766-39.301-5.716-.953-11.671-1.191-17.387-.238-2.621.238-5.479.953-6.908 3.096-.953 1.191-1.191 2.859-1.191 4.526-1.191 10.718-2.382 21.199-3.573 31.917 0 .715-.238 1.667 0 2.382.477 1.191 1.43 1.905 2.62 2.382 11.195 6.193 26.677 4.525 36.205-4.764z" fill="#fff"/><path d="M126.013 243.01c-5.24 0-10.48-1.191-15.244-4.05-1.191-.714-2.62-1.667-3.096-3.096-.477-.953-.238-2.144-.238-3.096l3.572-31.918c.239-1.429.477-3.334 1.429-5.001 1.668-2.621 5.002-3.335 7.622-3.573 5.955-.715 11.91-.715 17.865.238.476 0 .952.476.952.953 2.859 14.767 5.717 27.153 9.766 39.062.238.477 0 .953-.238 1.191-5.955 6.431-14.053 9.29-22.39 9.29zm1.906-48.591c-2.62 0-5.002.239-7.622.477-2.144.238-4.764.953-5.955 2.62-.715 1.191-.953 2.62-.953 3.811l-3.573 31.917c0 .715-.238 1.429 0 1.906.239.714 1.191 1.429 2.144 1.905 10.719 5.955 25.248 4.287 34.299-4.049-3.811-11.671-6.669-23.581-9.527-37.872a52.873 52.873 0 00-8.813-.715z" fill="#000"/><path d="M146.735 101.527c3.096 11.671 5.717 24.057 13.339 33.823 4.049 5.24 16.673 35.728-4.05 54.545-10.956 10.004-25.962 15.244-42.635 12.624-11.195-1.667-29.297-14.053-34.061-31.679-6.67 5.24-15.959 3.335-18.817-3.335-1.667-3.811.476-10.48 5.002-12.147 3.573-1.191 4.05-1.429 7.384-.477-1.43-8.574-3.811-17.149-7.622-25.962 4.525-12.862 15.958-23.343 28.82-30.965 4.288-2.62 8.575-5.001 13.339-6.192 13.339-3.811 35.966-2.144 39.301 9.765z" fill="#fff"/><path d="M121.488 204.424c-2.858 0-5.478-.238-8.337-.715-11.195-1.667-28.82-13.338-34.537-30.964-3.335 2.144-7.384 2.858-11.195 1.905-3.81-.952-6.67-3.334-8.098-6.669-.953-2.143-.953-5.24.238-8.098 1.191-2.62 3.097-4.764 5.478-5.478 3.097-1.191 4.05-1.43 6.431-.953-1.667-8.813-4.049-16.435-7.383-24.057-.239-.238-.239-.477 0-.953 5.24-14.529 18.816-25.248 29.297-31.679 3.572-2.144 8.336-4.764 13.576-6.431 9.766-2.62 25.01-2.858 33.823 2.144 3.811 2.143 5.955 5.002 6.907 8.336.477 1.429.715 2.859 1.191 4.288 2.62 10.242 5.479 20.722 11.91 29.059 5.002 6.431 16.673 37.157-4.288 56.212-9.527 9.527-21.913 14.053-35.013 14.053zM79.09 169.887h.477c.476.238.714.476.714.714 4.764 17.388 22.628 29.297 33.108 30.727 15.483 2.381 30.25-2.144 41.683-12.386 20.961-19.055 6.67-49.543 3.811-53.116-6.669-8.813-9.527-19.531-12.385-30.012-.477-1.429-.715-2.858-1.191-4.287-.715-2.858-2.62-5.002-5.955-6.908-8.337-4.763-22.866-4.525-32.155-1.905-5.002 1.429-9.528 4.05-13.1 6.193-10.005 6.193-23.105 16.197-28.107 30.011 3.573 8.099 5.955 16.435 7.622 25.963 0 .476 0 .714-.476.953-.239.238-.715.476-1.191.238-3.097-.715-3.335-.715-6.67.476-1.667.715-3.096 2.144-4.049 4.288-.952 2.143-1.19 4.525-.476 6.192 1.19 2.621 3.573 4.526 6.431 5.241 3.573.952 7.622 0 10.48-2.382h1.43z" fill="#000"/><path d="M264.64 186.56c-.238-1.191.476-2.144 1.429-2.859.953-.714 1.906-.952 3.096-1.191 12.863-3.334 26.439-4.049 39.54-2.62 1.191.239 2.858.715 2.858 1.906 0 .476-.476 1.191-.715 1.667-2.382 2.858-6.193 4.288-9.765 5.24-10.242 3.097-21.199 4.05-31.679 1.191-1.429-.714-4.288-1.191-4.764-3.334z" fill="#fff"/><path d="M104.577 167.266c-7.86 0-15.244-5.716-17.626-14.291-1.429-5.002-.952-10.004 1.191-14.291 2.144-4.288 5.955-7.384 10.242-8.813 4.526-1.191 9.29-.477 13.339 2.143 4.049 2.62 7.146 6.67 8.337 11.672 2.858 10.242-2.382 20.484-11.672 23.104-.952.238-2.382.476-3.811.476zm-1.667-35.49c-1.191 0-2.382.238-3.573.477-3.81.952-6.907 3.811-8.813 7.383-1.905 3.811-2.382 8.337-1.19 12.624 2.381 8.813 10.956 14.292 18.816 12.148 7.86-2.144 12.386-11.195 10.004-20.246-1.191-4.287-3.811-8.098-7.384-10.242-2.62-1.429-5.24-2.144-7.86-2.144zm46.447 19.056c-3.097 0-6.193-.953-9.051-2.62-4.049-2.62-7.146-6.67-8.337-11.671-2.858-10.243 2.382-20.485 11.671-23.105 9.29-2.62 19.055 3.573 21.914 13.815 1.429 5.002.952 10.004-1.191 14.291-2.144 4.288-5.955 7.384-10.242 8.813-1.906.239-3.335.477-4.764.477zm-1.667-35.728c-1.191 0-2.382.238-3.573.476-7.86 2.144-12.386 11.195-10.004 20.246 1.191 4.287 3.811 8.098 7.384 10.242 3.573 2.382 7.622 2.858 11.433 1.906 3.811-.953 6.907-3.811 8.813-7.384 1.905-3.811 2.382-8.337 1.191-12.624-1.906-7.622-8.337-12.862-15.244-12.862z" fill="#000"/><path d="M304.416 157.024l-5.716-6.431c-3.335-3.811-6.669-7.622-9.766-11.433-.238 0-.714 0-.953.238-1.905-1.667-5.24-2.382-8.098-1.905-1.429 1.667-3.335 3.096-5.24 4.525-.715.477-1.429 1.191-2.144 1.429-.476.239-.953.477-1.429.953-.238.238-.238.238-.476.238s-.238.239-.477.239c-1.667.952-3.096 2.143-4.763 3.334-.477.238-.953.477-1.191.238v.477c-.477 1.429-1.191 7.384 2.62 15.72 3.573 8.099 5.002 17.388 5.24 25.486 7.622 2.382 13.338-.238 21.437-1.667 3.096-.476 6.193-1.191 8.574-2.144 2.382-8.574 4.05-17.387 5.479-26.2l-3.097-3.097z" fill="#fff"/><path d="M56.699 100.336c16.838 0 30.488-13.65 30.488-30.488S73.537 39.36 56.699 39.36 26.21 53.01 26.21 69.848s13.65 30.488 30.488 30.488z" fill="#D1BAFF"/><path d="M56.701 101.288c-7.145 0-14.053-2.382-19.77-7.145-6.43-5.24-10.718-12.863-11.432-21.2-1.906-17.387 10.956-32.869 28.106-34.774 8.336-.953 16.673 1.667 23.104 6.907 6.431 5.24 10.718 12.862 11.433 21.199.953 8.336-1.667 16.673-6.907 23.104-5.24 6.43-12.863 10.718-21.2 11.433-1.19.476-2.381.476-3.334.476zm0-60.738c-.953 0-2.144 0-3.096.239-15.959 1.667-27.63 15.958-25.963 32.155.715 7.86 4.526 14.767 10.719 19.77 5.954 5.001 13.577 7.145 21.437 6.43 7.86-.714 14.767-4.525 19.77-10.718 5.001-5.955 7.145-13.577 6.43-21.437-.714-7.86-4.525-14.768-10.718-19.77-5.478-4.287-11.91-6.669-18.579-6.669z" fill="#000"/><path d="M74.327 155.834c2.382-14.053 3.573-23.819.238-38.349 32.87 4.526 56.689-8.574 81.461-20.246-1.191-4.525-4.05-8.574-7.384-11.909-8.575-8.098-17.626-14.53-35.728-14.768-12.624-.238-28.345 2.62-39.063 9.052-10.719 6.43-18.102 16.91-22.866 27.629-3.811 8.575-5.24 20.484-3.097 30.965 1.906 8.813 6.431 14.053 13.577 20.96 1.667-1.905 3.096-3.811 5.717-4.525 2.382-.477 4.287.238 7.145 1.191z" fill="#D1BAFF"/><path d="M61.227 160.597c-.238 0-.476 0-.714-.238-6.67-6.431-11.91-11.909-13.815-21.437-2.144-10.48-.953-22.628 3.096-31.679 5.717-12.862 13.577-22.39 23.343-28.106 11.909-7.146 28.344-9.528 39.777-9.29 17.388.477 26.915 5.955 36.443 15.245 3.811 3.572 6.669 7.86 7.86 12.385.238.477 0 1.191-.715 1.43-2.143.952-4.287 1.905-6.193 2.858-21.913 10.48-44.541 21.198-74.076 17.626 3.096 14.291 1.667 24.533-.476 37.157 0 .238-.239.714-.477.714-.238.239-.714.239-.953 0-2.858-.952-4.525-1.429-6.669-.952-2.144.476-3.335 1.905-4.764 3.811l-.238.238c-.714 0-.953 0-1.429.238 0-.238 0 0 0 0zm50.02-88.844c-10.957 0-25.963 2.382-36.92 9.051-9.289 5.479-16.91 14.768-22.39 27.154-3.81 8.574-5.001 20.484-3.096 30.249 1.668 7.861 5.24 12.624 12.386 19.532 1.43-1.667 3.096-3.335 5.478-3.811 2.382-.477 4.526-.238 6.67.476 2.143-12.147 3.334-22.151 0-36.442 0-.477 0-.715.238-.953s.714-.477.953-.477c29.773 4.05 52.401-6.669 74.552-17.15 1.906-.952 3.573-1.666 5.479-2.62-1.191-3.572-3.573-7.145-6.908-10.241-7.384-7.146-16.435-14.053-34.775-14.53-.715-.238-1.191-.238-1.667-.238z" fill="#000"/><path d="M274.165 150.355c-.238-3.334.715-6.669 2.858-9.527 1.191-1.668 2.859-3.097 3.811-5.002.953-1.906.953-4.526-.714-5.717-1.191-.714-2.62-.714-3.811-.476-3.335.714-6.193 3.096-8.575 5.716-1.429 1.668-3.096 3.097-3.811 5.241-.715 1.667-1.191 3.811-1.429 5.716 0 1.191-.238 2.382.238 3.573.715 1.429 2.144 2.382 3.573 3.335 1.667.714 3.334 1.429 5.002 1.19 1.905-.714 3.096-2.381 2.858-4.049z" fill="#fff"/><path d="M124.824 186.083c-3.335 0-5.717-2.62-8.098-5.24-.715-.953-1.668-1.667-2.382-2.382-.238-.238-.477-.714-.239-1.191.239-.476.477-.714.953-.714 6.431-.715 15.482-.715 21.437.238.477 0 .715.238.953.714.238.239.238.715 0 1.191-1.906 2.859-9.051 7.384-12.624 7.384zm-7.146-7.622l.715.715c2.144 2.143 4.287 4.525 6.431 4.525s6.907-2.858 9.289-5.24c-5.002-.476-11.195-.476-16.435 0z" fill="#000"/><path d="M82.663 368.774c-2.144-24.296-4.049-41.683-6.193-65.978-2.858 16.435-11.909 49.066-15.482 66.692 35.014 1.191 57.88 2.144 88.13 6.193-5.717 4.526-10.481 10.718-13.101 17.15-2.62 6.669-3.573 13.814-4.287 20.722-37.396-1.191-74.076-1.906-110.757-.715-4.05.238-8.575.238-11.91-1.905-2.62-1.668-4.525-4.288-5.478-7.146-3.097-7.86-1.191-16.673.714-25.01 5.717-24.533 16.674-70.741 26.678-93.846 4.287-10.003 9.527-19.531 16.91-27.391 15.721-16.435 38.825-22.39 61.453-27.63.953 5.478 6.908 8.813 12.386 10.242 5.002 1.191 10.242 1.191 15.006-.953 4.764-1.905 8.575-5.954 10.956-12.624 17.15-1.667 28.107-1.429 35.729-.476 10.004 1.429 19.769 8.813 26.438 16.197 14.054 15.244 21.199 28.106 35.967 45.732 12.624-31.917 20.008-65.978 19.293-101.706 3.096 7.145 43.588 6.431 47.876-5.002-2.858 42.397-5.717 85.509-18.579 126.001-4.049 13.1-9.527 25.963-18.34 36.443-8.813 10.48-21.914 17.864-35.728 17.626-13.577-.477-22.39-4.049-31.203-20.961-1.429 2.382-3.096 4.764-3.811 7.622 0 18.103 1.667 39.301 1.905 56.927-40.253 6.431-82.651.953-123.143-1.667-.952-12.386-.714-24.295-1.429-34.537z" fill="#fff"/><path d="M103.863 144.162c-.477-1.429.476-2.858 2.144-3.335 1.429-.476 3.096.477 3.572 1.906.477 1.429-.476 2.858-2.143 3.334-1.668.477-3.335-.476-3.573-1.905zm39.538-13.815c-.476-1.429.476-2.858 2.144-3.334 1.429-.477 3.096.476 3.572 1.905.477 1.429-.476 2.858-2.143 3.335-1.668.476-3.097-.477-3.573-1.906zm58.355 272.249c-.714 0-1.191-.476-1.191-1.191 0-.714.477-1.191 1.191-1.191h3.335c-1.191-7.86-1.191-16.673-1.191-25.962 0-8.337 0-17.15-.715-26.201 0-.714.477-1.191.953-1.191.715 0 1.191.477 1.191.953.715 9.289.715 18.102.715 26.439 0 9.766 0 19.055 1.191 26.915 0 .238 0 .715-.239.953-.238.238-.476.476-.952.476h-4.288zm-63.831-243.19c-.238 0-.715-.238-.953-.476a1.152 1.152 0 010-1.667l3.097-2.859.238-.238c-.238 0-.476-.238-.476-.238-4.764-2.858-8.099-7.622-8.813-13.1 0-.715.476-1.191.952-1.191.715 0 1.191.476 1.191.952.477 4.764 3.335 9.052 7.622 11.433.477.239 1.668.953 1.668 2.144 0 .953-.715 1.667-1.191 2.144l-3.097 2.858c.477 0 0 .238-.238.238z" fill="#000"/><path d="M128.156 405.931c7.384 0 15.006.953 22.152 2.858 2.62.715 5.002 1.429 7.384 2.62 4.763 2.859 7.86 7.861 9.527 13.339.477 1.191.715 2.62 1.429 3.811.715 1.191 1.906 2.144 3.097 2.144 1.429 0 2.62-1.191 2.143-2.382.715.952 1.191 2.143 1.668 3.334.476 1.191 1.429 2.144 2.62 2.382 2.144.477 3.811-1.905 4.525-4.049.953-3.573.715-7.384 0-11.195-.952-5.24-2.381-10.242-4.763-15.006 4.287 1.668 7.145 5.955 8.574 10.481 1.43 4.525 1.668 9.289 2.62 13.814.477 1.668 1.43 3.811 3.335 3.573 1.429-.238 2.144-1.667 2.62-2.858 1.906-6.431.715-13.1-.476-19.77 3.811 3.573 6.193 8.337 8.813 12.624.476.953 1.191 1.906 1.905 2.382.953.715 2.144.953 2.859.238.952-.714 1.19-2.143 1.19-3.334 0-7.86-4.763-15.006-10.003-20.723-4.526-5.001-9.766-9.765-15.721-13.1-5.955-3.334-12.624-5.478-19.531-5.478-7.622-.953-15.244-2.144-22.866-3.097-1.429-.238-2.858-.238-4.049.239-.715.476-1.43.952-1.906 1.667-5.24 7.384-8.098 16.673-7.146 25.486z" fill="#fff"/><path d="M117.199 138.922c-.239 0-.239 0-.477-.238-.476-.238-.714-.953-.476-1.667 1.905-3.811 5.955-6.669 10.242-7.384 2.62-.476 5.955.238 6.907 2.858.239.715 0 1.191-.714 1.429-.715.239-1.191 0-1.429-.714-.477-1.191-2.62-1.667-4.288-1.429-3.573.476-6.907 2.858-8.574 6.193-.477.714-.953.952-1.191.952zM75.28 155.595c-.477 0-.953-.238-.953-.714-.238-.477 0-1.191.476-1.429l12.148-5.479c.476-.238 1.19 0 1.429.477.238.476 0 1.191-.477 1.429l-12.147 5.478c-.238.238-.476.238-.476.238zm96.466 276.298c-2.144 0-4.05-1.906-5.241-5.24l-.238-.477c-1.191-3.811-2.62-7.622-5.002-10.242-2.382-2.62-6.193-4.763-11.195-6.193-5.478-1.429-11.909-1.667-16.196-1.905-1.429 0-2.62 0-3.573-.238-.715 0-1.191-.715-.953-1.191 0-.715.715-1.191 1.191-.953.953 0 2.144 0 3.573.238 4.525.238 11.195.477 16.911 1.906 5.24 1.429 9.528 3.811 12.148 6.907 2.858 3.097 4.287 7.146 5.478 11.195l.238.476c.477 1.191 1.429 3.811 3.097 3.573.476 0 .714-.238.952-.476.715-.953.953-2.62.715-4.288-.715-5.716-2.62-11.194-5.478-16.196-.238-.477-.239-1.191.476-1.668.476-.238 1.191-.238 1.667.477a43.202 43.202 0 015.717 16.911c.238 1.906 0 4.526-1.191 6.193-.715.953-1.667 1.429-2.62 1.429-.238-.238-.476-.238-.476-.238z" fill="#000"/><path d="M179.846 434.99c-.953 0-1.906-.477-2.621-.953-1.429-1.191-2.858-4.049-3.334-8.099 0-.714.238-1.19.953-1.429.714 0 1.191.239 1.429.953.714 4.287 1.905 6.193 2.382 6.669.476.477 1.429.715 1.905.239.476-.477.715-1.191.953-2.144 1.429-8.813.238-17.864-3.811-26.439-.238-.476 0-.953.238-1.429.476-.238.953-.477 1.429-.238 3.811 2.143 7.146 5.954 9.051 10.956 1.906 4.526 2.382 9.29 2.859 13.577 0 .953.238 1.667.476 2.382.238.476.715.953 1.191.714.476 0 .953-.714 1.191-1.905 2.858-10.004.476-20.484-5.955-27.868a1.152 1.152 0 010-1.667 1.15 1.15 0 011.667 0c7.146 8.098 9.528 19.531 6.432 30.249-.715 2.144-1.668 3.335-3.097 3.573-1.667.238-2.858-.714-3.573-1.905-.476-.953-.714-2.144-.714-3.335-.477-4.287-1.191-8.813-2.859-13.1-1.19-2.858-2.858-5.478-4.763-7.384 2.858 7.86 3.811 15.959 2.382 23.819-.239 1.429-.715 2.858-1.906 3.811-.715.953-1.191.953-1.905.953z" fill="#000"/><path d="M207.714 426.176h-.239c-1.429-.238-2.143-1.429-2.62-1.905-.952-1.429-1.905-2.858-2.858-4.049-3.811-5.24-5.478-7.622-8.098-10.719a1.15 1.15 0 010-1.667 1.152 1.152 0 011.667 0c2.858 3.096 4.526 5.717 8.337 10.957.952 1.191 1.667 2.62 2.858 4.049v.238c.238.238.476.715.953.953.238 0 .476-.238.952-.477.477-.476.715-2.62.477-3.572-1.906-10.957-9.528-19.294-20.246-28.345-3.573-3.096-6.908-5.002-10.242-6.193-3.573-1.429-7.384-1.905-11.195-2.143-4.288-.477-8.813-.953-12.862-1.429-4.288-.477-8.813-.715-13.101-1.43-.714 0-1.191-.714-.952-1.19 0-.715.714-1.191 1.191-.953 4.287.476 8.813.952 13.1 1.429 4.287.476 8.813.714 13.1 1.429 3.811.476 7.86.953 11.671 2.382 3.573 1.191 7.146 3.573 10.719 6.669 11.195 9.289 19.055 18.102 20.96 29.535.239 1.191.239 4.526-1.191 5.717-.714.238-1.667.714-2.381.714zm-9.53-70.503c-.238 0-.476 0-.714-.238-.477-.477-.715-1.191-.239-1.668 6.908-9.051 13.815-18.34 20.484-27.391.953-1.191 1.43-2.144 1.668-3.335 0-.953-.238-1.906-.715-2.858l-18.817-45.732c-.238-.715 0-1.191.715-1.429.715-.239 1.191 0 1.429.714l18.817 45.732c.476 1.191.953 2.382.953 3.811 0 1.906-1.191 3.335-2.144 4.526a1186.625 1186.625 0 01-20.484 27.63c-.238 0-.715.238-.953.238z" fill="#000"/><path d="M132.446 373.061c-9.765-.953-19.531-1.668-29.297-2.621l-14.291-1.429c-2.144-.238-4.287-.238-6.193-.476v1.191a5321.25 5321.25 0 00-21.913-.715c.714-3.572 1.667-7.622 2.858-12.147h-7.384c-15.72 0-31.44 0-47.16.476-1.906 7.86-3.574 15.006-5.003 20.961-1.905 8.336-3.81 17.149-.714 25.009 1.19 2.859 2.858 5.479 5.478 7.146 3.573 2.144 7.86 2.144 11.91 1.906 36.442-1.191 72.885-.477 110.042.714-.476-4.525-.238-8.813.953-13.1 1.191-3.811 2.62-7.86 4.525-11.433 1.668-3.573 4.288-6.67 6.908-9.528 1.429-1.667 3.096-3.096 4.525-4.525-5.002-.477-10.242-.953-15.244-1.429z" fill="#fff"/><path d="M131.494 414.506c-44.78-1.429-78.84-1.667-110.52-.715-3.81.238-8.812.238-12.623-2.143-3.335-1.906-5.24-5.241-5.955-7.861-3.335-8.574-1.19-18.102.715-25.724 4.525-19.055 16.196-69.789 26.677-94.084 5.478-12.386 10.718-20.961 17.15-27.868 15.481-16.197 37.156-22.151 61.928-28.106.238 0 .715 0 .953.238s.476.476.476.715c.953 5.24 6.431 8.098 11.433 9.289 3.573.714 9.051 1.429 14.291-.715 4.764-1.905 8.099-6.193 10.242-11.909.239-.476.477-.715.953-.715 16.197-1.429 27.63-1.667 35.966-.476 12.624 1.906 23.105 12.148 27.154 16.435 7.86 8.575 13.577 16.435 19.77 24.771 4.525 6.193 9.051 12.386 15.005 19.532 12.862-33.108 19.055-66.693 18.579-99.324 0-.477.476-1.191.953-1.191.476 0 1.191.238 1.191.714.714 1.906 6.193 4.288 16.673 4.049 12.862 0 27.153-3.334 29.059-9.051.238-.476.714-.952 1.429-.714.476 0 .953.714.953 1.191-2.859 41.921-5.717 85.271-18.817 126.239-3.573 11.195-8.813 25.486-18.579 36.919-10.004 11.671-23.581 18.341-36.443 18.102-13.576-.476-23.104-4.049-31.44-21.913-.239-.476 0-1.191.476-1.667.476-.238 1.191 0 1.667.476 7.86 16.912 16.435 20.246 29.536 20.723 12.147.238 25.247-6.193 34.775-17.15 9.527-10.957 14.768-25.01 18.102-35.966 12.624-39.301 15.721-80.984 18.341-121.714-5.955 5.002-19.532 7.145-28.583 7.145-4.049 0-12.386-.238-16.435-3.096.238 32.632-6.431 65.978-19.531 99.086-.238.477-.477.715-.953.715s-.715 0-1.191-.477c-6.431-7.86-11.433-14.529-16.435-21.198-5.955-8.337-11.671-15.959-19.531-24.534-3.811-4.049-14.053-14.053-25.725-15.72-7.86-1.191-19.055-.953-34.775.238-2.144 6.193-6.193 10.48-11.195 12.624-4.525 1.906-9.765 2.144-15.72.953-5.24-1.191-11.433-4.288-13.1-9.766-23.82 5.717-45.018 11.671-59.547 27.153-6.432 6.67-11.433 15.006-16.674 27.154-10.48 23.819-22.151 74.553-26.438 93.608-1.668 7.383-3.811 16.435-.715 24.295.715 2.144 2.382 5.002 5.002 6.669 3.335 1.906 7.622 1.906 11.433 1.667 31.44-.952 65.025-.714 109.09.715-1.429-5.24.476-14.053 2.858-20.246l.238-.476c2.144-5.479 4.764-11.91 11.195-15.244-26.915-3.335-48.114-4.288-83.365-5.479-.239 0-.715-.238-.953-.476s-.238-.715-.238-.953c1.667-7.622 4.287-18.102 6.907-29.059 3.335-13.815 6.907-28.106 8.575-37.395 0-.477.714-.953 1.19-.953.477 0 .954.476 1.192.953.953 12.147 2.143 22.866 3.096 33.108.953 10.242 2.144 20.96 3.097 33.108v.238c24.533.953 42.635 2.382 65.263 5.24.476 0 .953.477.953 1.191 0 .477-.238.953-.953 1.191-8.575 2.144-11.433 9.289-14.053 15.721l-.238.476c-2.859 6.907-4.526 15.958-2.382 20.246.238.476.238.714 0 1.191-.715-.238-.953 0-1.429 0zm-69.313-46.447c6.908.238 13.1.477 19.055.715-.953-12.148-2.144-22.866-3.096-33.108-.715-7.861-1.668-15.959-2.382-25.01-1.906 8.575-4.526 19.293-7.146 29.535-2.382 10.48-4.763 20.246-6.43 27.868z" fill="#000"/><path d="M151.024 380.921c-.715 0-1.191-.715-1.191-1.43.238-.952 0-1.905-.714-2.62l-.477-.476c-.714.238-1.191-.238-1.429-.715-.238-.714.238-1.19.715-1.429.952-.238 2.143.239 3.096 1.429.953 1.191 1.429 2.859 1.191 4.526 0 .238-.476.715-1.191.715zm-17.386 34.298c-1.429 0-3.097-.714-3.573-2.144-.238-.714 0-1.191.714-1.429.715-.238 1.191 0 1.43.715.238.476.952.714 1.667.714 1.429-.238 2.858-1.429 4.049-2.381 1.191-1.191 2.382-2.621 3.573-4.05.476-.476 1.191-.714 1.667-.238.477.477.715 1.191.238 1.667-1.191 1.43-2.381 2.859-3.811 4.288-1.429 1.429-3.096 2.858-5.24 3.096-.238-.238-.476-.238-.714-.238zm130.764-228.421c-.476 0-1.191-.477-1.191-.953 0-.715.238-1.667.714-2.382.477-.476.953-.953 1.43-1.191 1.667-1.191 4.287-1.667 7.86-2.143.714 0 1.191.476 1.191.952 0 .715-.477 1.191-.953 1.191-3.096.238-5.478.953-6.669 1.668-.238.238-.715.476-.953.714s-.238.476-.238.715c0 .952-.477 1.429-1.191 1.429.238 0 0 0 0 0zm47.875-4.287c-.715 0-1.191-.477-1.191-1.191 0 0 0-.239-.238-.239-.239-.238-.477-.238-.953-.476-.953-.238-2.144-.476-3.097-.476-.714 0-1.191-.477-1.191-1.191 0-.715.477-1.191 1.191-1.191 1.429 0 2.62.238 3.811.476.477.238 1.191.477 1.668.953.714.476.952 1.429.952 2.144.239.714-.238 1.191-.952 1.191zm-188.884 67.883c-8.098 0-15.958-4.526-19.769-11.672-.238-.476 0-1.191.476-1.667.476-.238 1.191 0 1.667.477 3.573 6.907 11.672 11.194 19.294 10.48.714 0 1.191.476 1.191.952 0 .715-.477 1.191-.953 1.191-.715.239-1.429.239-1.906.239zm-18.816 1.19h-.476c-3.573-1.429-6.431-4.763-7.384-8.813-.238-.714.238-1.191.953-1.429s1.19.238 1.43.953c.476 3.096 2.857 5.955 5.716 6.907.714.239.952.953.714 1.43 0 .714-.476.952-.953.952zM50.745 95.572h-.238c-.714-.238-.953-.953-.714-1.43 1.19-3.81 3.572-7.621 6.907-10.956 3.097-3.096 6.67-5.478 10.004-7.86.476-.238 1.191-.238 1.667.238.239.476.239 1.191-.238 1.667-3.334 2.144-6.67 4.526-9.765 7.384-3.097 3.097-5.24 6.431-6.432 10.004-.238.477-.714.953-1.19.953zm189.122 201.745c-.238 0-.477 0-.715-.238-.476-.477-.714-1.191-.238-1.668 2.382-3.096 4.526-6.193 6.193-10.956.238-.715.953-.953 1.429-.715.715.238.953.953.715 1.429-1.668 5.002-3.811 8.099-6.431 11.433-.239.715-.477.715-.953.715zM47.412 371.393c-.477 0-.953-.477-1.191-.953 0-.714.238-1.191.953-1.429 5.716-.953 10.956-1.191 17.387-.953.715 0 1.191.477 1.191 1.191 0 .715-.476 1.191-1.19 1.191-6.194-.238-11.196 0-17.15.953.238 0 .238 0 0 0zM76.47 165.599c-.476 0-.952-.238-1.19-.715-1.43-3.334-2.144-7.145-2.144-10.956 0-.715.476-1.191 1.19-1.191.716 0 1.192.476 1.192 1.191 0 3.334.714 6.907 2.144 10.004.238.476 0 1.191-.715 1.429 0 .238-.238.238-.476.238z" fill="#000"/><path opacity=".129" d="M82.188 67.227c-.953-.238-1.905.239-2.858.477-1.43.476-2.858 1.19-4.287 1.667-8.337 3.573-15.245 9.766-20.723 16.911-1.429 1.906-2.62 4.05-3.81 5.955-.715 1.191-1.668 2.62-1.668 4.05-.238 3.572 5.002 4.763 6.43 1.428 2.383-5.002 8.1-12.385 12.863-15.958 4.287-3.573 5.478-4.288 10.004-6.431 1.19-.715 2.62-1.191 3.81-1.667 1.192-.477 2.383-.953 2.86-2.144.714-1.668-.715-4.05-2.62-4.288zm62.881 36.681c-.715-.715-1.906-.715-2.858-.238-.239.238-1.906.953-2.382 1.191-2.62 1.191-5.002 2.62-7.622 3.811-5.002 1.905-10.004 4.287-15.006 5.716-6.193 1.906-11.91 3.097-19.531 4.049-6.67.715-12.148.239-19.532-1.191-1.19-.238-2.62-.714-3.811 0-1.43.953-.953 3.335.953 3.573 8.098 1.429 16.435 3.097 24.771 1.906 4.764-.477 9.766-1.429 14.292-2.62 3.811-.953 7.383-2.382 10.956-3.573 5.479-2.144 11.195-4.049 16.435-6.669.953-.477 1.668-.953 2.62-1.429.477-.239.953-.477 1.191-1.191.953-.953.477-2.382-.476-3.335zm-2.144 111.949c-.238-.953-.476-1.906-.953-3.097-.714-1.905-1.191-3.811-1.667-5.716-.476-1.906-.953-3.573-1.429-5.479v-.476c0-.238 0-.238-.238-.476-.239-.477 0-.715.238-.953-1.191-.953-2.858.238-4.288.953-.952.476-2.143.952-4.049 1.429-1.667.476-7.145.714-8.575.953-.476.238-.952.476-1.19.952-.953-.476-1.906-.714-2.859-1.191-.714-.238-1.191-.476-1.905-.714-1.429 0-2.859 0-4.288-.238v1.191c0 .238 0 .238-.238.476-.238.476-.476 1.191-.476 1.667.238 0 .238.239.476.239 5.478 2.62 10.957 5.24 16.197 8.098l7.86 4.287c1.191.477 2.382 1.191 3.573 1.429h1.667c.953-.238 1.429-.952 1.668-1.667.238-.238.238-.476.476-.715.238 0 .238-.476 0-.952zm116.711 137.196c-1.191-.238-.953 0-1.668.238-4.049 1.429-5.954 1.429-10.242 1.429-4.763.238-10.956-1.667-14.291-3.096-.238-.238-1.905-.953-2.144-1.191-.476-.238-2.143-1.429-2.62-1.906-1.191-.952-2.62-2.143-3.572-3.334-2.144-3.335-4.05-6.908-5.479-10.481 0 0 0-.238-.238-.238-.476-.714-.476-1.905-.953-2.62-.238-.476-.714-.714-.952-.953l-.953.953c0 .238 0 .477-.238.477-.477.238-.715.714-.953.952-1.906 2.144-3.573 4.526-5.24 6.908 0 .238.238.476.238.714.953 1.429 1.905 2.859 3.096 4.288 2.62 5.478 6.193 10.718 12.148 12.624 4.049 1.191 8.337 1.667 12.386 2.143 2.62.239 5.002-.238 7.622-.238 1.905 0 3.811-.238 5.716 0 1.191 0 2.382.238 3.335-.238.953-.238 1.429-1.191 1.429-2.144.953-.238 1.905-.476 2.62-.952.715-.239 1.429-.477 1.906-.953.476-.953 0-2.144-.953-2.382zm52.64-172.21c-.238-.714-.715-1.191-1.429-1.429h-.477c-.238-1.191-1.905-1.667-2.858-.714-.714.952-1.429 1.905-2.382 2.62l-.714.714c-1.191.477-2.859.953-4.764 1.429-2.144.715-4.287 1.668-6.669 1.906-2.62.476-2.858.476-5.955.714-2.62.477-7.86 1.668-11.671 1.906-4.764 1.191 1.429-7.86-2.62-7.146-.953.238-3.811.477-5.478 1.429-.477.477-1.191.715-1.668 1.43v.238h-.238c-1.667.238-2.382 2.62-.715 3.573 4.288 2.143 8.813 3.572 13.577 3.572 1.667 0 3.335-.238 4.764-.238h4.764c3.334-.238 6.431-.953 9.527-1.667h-.238.476c.239 0 .239 0 0 0 1.429-.238 2.859-.477 4.288-.953 4.049-1.429 8.336-3.096 9.527-5.002.238-.238.477-.476.477-.953.476-.238.714-.714.476-1.429zm-15.719-32.393c.238 0 .238 0 0 0 .476-.477.714-.477 0 0zm-15.245 6.907s-.236 0 0 0c0 0 0 .235 0 0z" fill="#000"/><path d="M253.206 125.345c11.433 12.386 21.913 25.962 31.203 40.015 5.001 7.384 10.242 15.483 18.578 18.817 1.906.715 3.811 1.191 5.717.715 2.858-.477 5.24-2.62 6.431-5.24 1.191-2.62 1.429-5.717 1.191-8.575-.238-2.144-.715-4.526-1.668-6.431-.952-1.906-2.381-3.335-4.049-4.764-4.764-3.811-2.858-5.478-3.811-9.528-2.858-11.433-19.769-11.433-26.439-21.436 1.668-1.191 3.335-2.382 4.764-3.811 1.429-1.43 2.382-3.335 2.382-5.479.238-3.096-1.905-5.954-3.573-8.574 22.152-7.861 45.018-13.1 68.36-15.72-5.002-10.005-9.289-20.247-13.338-30.727-5.479-14.053-11.195-28.106-17.15-41.445-14.768 14.768-32.393 25.963-50.019 36.92-12.148 7.621-24.296 15.243-37.158 21.198-6.907 3.335-14.529 6.67-17.626 13.577-1.905 4.287-1.667 9.527 0 14.053 1.43 4.525 4.288 8.575 6.908 12.624 2.144 3.334 4.764 6.907 9.051 7.86 6.669.476 14.053-1.191 20.246-4.049zm95.273-90.512c3.573 11.672 8.099 23.105 13.815 34.061 3.573-.476 6.193-3.573 7.622-6.67 1.429-3.334 1.667-6.906 1.667-10.48 0-1.428 0-2.858-.476-4.287-.476-1.19-.953-2.382-1.667-3.334-1.668-2.62-3.573-5.24-6.193-7.146-4.526-3.096-10.242-3.811-14.768-2.144z" fill="#fff"/><path d="M351.578 96.525c-9.765-25.01-19.769-49.782-29.535-75.03 5.479-5.002 9.766-11.433 12.624-18.578 0 0 40.016 95.751 40.016 95.513-7.622-2.62-15.483-3.335-23.105-1.906z" fill="#E0FF23"/><path d="M270.356 117.246c-.476 0-.953-.238-.953-.714-6.669-14.53-12.624-29.774-17.387-45.018-.239-.476 0-.952.476-1.429 4.764-3.096 10.004-6.193 14.768-9.05 28.106-17.15 57.403-35.014 65.978-59.786.238-.476.476-.715.952-.715.477 0 .953.239 1.191.715l40.492 96.942c.238.715 0 1.191-.714 1.43h-.715c-.238.238-.715.238-.953 0-27.868-10.957-101.944 16.911-102.659 17.149 0 .476-.238.476-.476.476zm-15.959-45.493c4.764 14.529 10.243 29.058 16.674 42.873 9.289-3.334 73.838-26.677 101.944-17.387L334.429 4.822c-10.004 24.057-38.349 41.444-65.978 58.118-4.526 2.858-9.29 5.716-14.054 8.813z" fill="#000"/><path d="M351.102 95.81c-.476 0-.953-.238-1.191-.715l-28.582-70.98c-.239-.714 0-1.19.714-1.429.715-.238 1.191 0 1.429.715l28.583 70.98c.238.714 0 1.19-.715 1.429h-.238zm12.146-25.487c-.477 0-.715-.238-.953-.476-.238-.476-.238-1.19.238-1.667 3.811-2.62 6.669-6.908 7.622-11.433.953-4.764 0-9.766-2.62-13.577-1.191-1.905-2.858-3.573-5.002-5.002-3.335-2.382-8.575-4.05-12.862-1.905-.476.238-1.191 0-1.667-.477-.239-.476 0-1.19.476-1.667 5.24-2.62 11.433-.715 15.244 1.905 2.144 1.668 4.049 3.335 5.478 5.479 2.859 4.287 4.049 10.004 3.097 15.244-.953 5.24-4.288 10.004-8.575 12.862 0 .715-.238.715-.476.715zm-126.953 60.738c-1.906 0-3.811-.238-5.717-1.19-4.525-2.144-7.383-6.67-10.003-11.433-2.144-4.05-4.526-8.337-5.479-13.339-1.191-5.478-.238-10.957 2.62-14.53 2.382-2.858 5.717-4.763 8.337-6.192 8.575-4.526 17.388-9.29 27.391-13.815.477-.238 1.191 0 1.668.476.238.477 0 1.191-.477 1.668-10.004 4.763-18.578 9.289-27.391 13.814-2.382 1.43-5.479 3.097-7.622 5.479-2.382 3.096-3.335 7.86-2.144 12.624.953 4.525 3.335 8.813 5.24 12.624 2.382 4.525 5.002 8.813 9.051 10.48 5.479 2.382 11.672 0 17.626-2.858 3.811-1.668 7.146-3.335 10.481-5.002 3.334-1.668 6.669-3.335 10.48-5.002.476-.238 1.191 0 1.667.476.238.477 0 1.191-.476 1.667-3.811 1.668-7.146 3.335-10.481 5.002-3.334 1.668-6.669 3.335-10.48 5.002-4.764 2.144-9.765 4.049-14.291 4.049z" fill="#000"/><path d="M306.561 186.798c-6.193 0-11.433-5.002-13.577-7.384-4.287-4.526-7.622-10.004-10.956-15.244l-2.144-3.573c-7.86-12.386-17.15-24.057-27.392-34.537a1.153 1.153 0 010-1.668 1.153 1.153 0 011.668 0c10.48 10.481 19.769 22.39 27.868 35.014l2.143 3.573c3.097 5.24 6.431 10.48 10.481 14.767 2.381 2.621 8.336 8.099 14.529 6.193 5.716-1.905 8.098-9.289 6.431-15.005-1.429-5.002-4.764-7.622-9.527-11.433l-2.859-2.144-.238-.238c-7.146-5.717-14.768-13.339-22.151-22.866-1.906-2.382-3.811-6.193-5.717-10.242-1.191-2.144-2.144-4.526-3.334-6.432-.239-.476-.001-1.19.476-1.667.476-.238 1.191 0 1.667.477 1.191 2.143 2.382 4.287 3.335 6.669 1.905 3.811 3.811 7.622 5.478 9.766 7.384 9.289 14.768 16.673 21.913 22.389l.239.238 2.858 2.144c4.764 3.811 8.813 6.907 10.48 12.624 1.906 6.669-.953 15.482-7.86 17.864-1.667.715-2.858.715-3.811.715z" fill="#000"/><path d="M281.075 130.347c-.239 0-.715 0-.953-.238a1.153 1.153 0 010-1.668l4.049-4.049c.476-.476.953-.953 1.429-1.667.715-1.191.953-3.097.238-5.002-.714-1.667-1.905-3.335-3.096-5.002-.476-.476-.238-1.191.238-1.667.477-.477 1.191-.239 1.667.238 1.191 1.667 2.621 3.334 3.335 5.478.953 2.62.715 5.24-.476 7.146-.477.714-1.191 1.429-1.668 2.143l-4.049 4.05c-.238 0-.476.238-.714.238zM226.53 99.144c-.476 0-.714-.238-.952-.714-.239-.477 0-1.191.476-1.667 7.622-4.05 15.244-7.622 23.342-10.719.715-.238 1.191 0 1.429.715.239.714 0 1.19-.714 1.429-7.86 3.096-15.482 6.67-23.104 10.48 0 .238-.238.476-.477.476zm4.526 9.528c-.476 0-.952-.238-1.191-.715-.238-.476 0-1.191.715-1.429 7.622-3.334 15.72-6.669 23.581-9.766.714-.238 1.191 0 1.429.715s0 1.191-.715 1.43c-7.86 3.096-15.72 6.43-23.342 9.765h-.477zm4.525 10.241c-.476 0-.952-.238-.952-.714-.239-.476 0-1.191.476-1.667 7.622-3.811 15.482-7.146 23.581-10.242.714-.239 1.191 0 1.429.714.238.715 0 1.191-.715 1.429-7.86 2.858-15.72 6.193-23.342 10.004-.238.476-.477.476-.477.476z" fill="#000"/><path d="M371.109 31.5c-.238 0-.715-.239-.953-.477a1.152 1.152 0 010-1.668c7.146-6.669 11.91-15.72 13.577-25.486 0-.714.714-.952 1.429-.952.715 0 .953.714.953 1.429-1.906 10.242-6.908 19.77-14.292 26.915-.238.238-.476.238-.714.238zm7.146 9.764c-.477 0-.715-.238-.953-.476-.238-.476-.238-1.191.238-1.667 5.717-3.573 11.671-6.908 17.864-9.29.715-.238 1.191 0 1.429.715.239.714 0 1.19-.714 1.429-6.193 2.382-11.91 5.478-17.388 9.051 0 0-.238.238-.476.238zM409.458 57.7h-.476c-8.337-4.05-17.388-5.955-26.678-5.479-.714 0-1.19-.476-1.19-1.19 0-.715.476-1.191 1.19-1.191 9.528-.477 19.055 1.429 27.63 5.716.477.238.715.953.477 1.667 0 .239-.477.477-.953.477z" fill="#E0FF23"/><path d="M339.431 91.046c-.238 0-.238 0-.238-.238l-8.337-15.959c0-.238 0-.476.239-.476.238 0 .476 0 .476.238l8.337 15.959c0 .238-.239.476-.477.476zm-7.384 2.144c-.238 0-.238 0-.238-.238l-4.288-7.86c0-.239 0-.477.239-.477.238 0 .476 0 .476.238l4.287 7.86s0 .239-.476.477c.238-.238 0 0 0 0zm-8.099 2.857c-.238 0-.238 0-.238-.238l-3.335-5.954c0-.239 0-.477.238-.477s.477 0 .477.239l3.334 5.954c0 .238 0 .477-.476.477.238 0 0 0 0 0zm-9.051 1.906c-.238 0-.238 0-.238-.238l-2.382-4.526c0-.238 0-.476.238-.476s.477 0 .477.238l2.382 4.526s0 .238-.477.476c.238 0 0 0 0 0z" fill="#000"/><path opacity=".129" d="M372.063 53.413c-.238-1.43-2.143-1.906-3.334-.953-.715.476-.715 1.429-.953 2.144-.953 2.382-2.858 5.24-4.526 6.669-1.905 1.667-1.429.714-3.096 2.382-1.667 2.62 1.667 5.478 3.811 3.573 4.049-2.859 5.24-5.717 6.907-9.29.477-.953.715-2.144.953-3.096.477-.715.477-1.191.238-1.43zm-.719 38.347c-3.573-1.429-7.622-1.19-11.433-1.429-8.813-.476-17.864.238-26.677 1.668-3.811.952-7.86 1.19-11.671 1.667-3.335.476-6.669 1.429-10.004 2.144-9.766 2.62-19.769 4.287-29.297 7.86-10.004 3.573-19.531 8.574-28.821 13.576-6.192 3.335-10.004 5.479-15.72 6.431-2.62.477-3.811.239-7.86-.238-1.191-.238-2.858-.238-3.573 1.191-.953 1.429.238 3.573 1.905 3.573 2.859.476 5.717 1.429 8.813 1.191 6.67-.238 12.624-3.811 18.341-6.669.714-.239 1.191-.477 1.905-.715-.952.477-1.667.953-2.62 1.667-1.667.715-2.858 2.621-1.667 4.288.476.953 1.667 1.429 2.62 1.191.715.476 1.667.714 2.382.238 1.429-.953 3.096-1.429 4.764-2.144 1.429-.476 1.667-.714 3.811-.714h1.191c1.905.476 1.429.476 2.382.952.476.239.952.715 1.19.953 1.906 1.906 4.05 3.811 5.955 5.955.953 1.191 1.906 2.382 3.097 3.335.476.238.952.714 1.905 1.429l.477.476c.714.715 1.667 1.429 2.62 2.144 1.19.952 2.381 2.143 3.334 3.096 0 0 1.667 1.667 2.858 2.62.715.953 2.144 1.668 3.335.715.715-.477.953-1.191.953-1.906l-.715-.714c-1.191-.953-2.143-1.906-3.096-2.859-2.144-1.905-4.049-4.049-5.955-6.192-3.573-4.288-6.907-9.052-9.527-14.053-.239-.477 0-.953.238-1.191a13.548 13.548 0 01-.953-1.668c3.335-.952 3.811-1.429 7.146-1.905 1.429.476 3.096-.238 3.572-1.668.953-2.381-1.905-4.525-4.049-3.334h-.238c-.953.238-1.667.238-2.62.476 2.858-1.191 5.24-2.144 6.193-2.382 7.86-2.382 14.053-4.287 23.104-6.431 5.717-1.429 7.622-2.382 12.386-3.573 6.431-1.19 12.624-2.62 19.293-3.334 2.144-.238 4.049-.477 6.193-.715 1.667-.238 1.906 0 2.62-.238.476-.238.953-.476 1.191-.953v-.238c3.811-.238 7.622-.238 12.386 0 3.811.238 5.478 0 8.098 1.191h.477c.952.715 2.381.238 3.096-.715.953-1.905-1.429-3.334-3.335-4.049zm-98.609 24.295c-.239 0-.239-.238-.477-.238.238 0 .477-.238.715-.238 0 .238 0 .238-.238.476zm-120.52 261.531c-.476-.953-1.667-.953-2.382-1.191-1.667-.238-3.096-.238-4.764-.238-.714 0-1.667.238-2.143.715-.715.714-.715 1.429-.477 2.381-.714.715-1.429 1.191-2.143 1.906-3.335 3.573-5.717 8.098-7.384 12.624-.953 3.334-.953 3.811-1.667 6.907-.953 4.526-1.191 8.337 0 11.195 1.905 3.097 5.002 1.429 7.145-.238.238-.238.715-.476.953-.715 1.191-.952 2.144-2.143 1.191-3.572-.476-.953-1.667-1.191-2.62-.953-.953 0-1.906 0-2.62.714-.238.239-.238.477-.477.715v-.476c-.238-3.097.239-3.097.715-6.432.953-4.763 2.144-7.86 4.049-11.194 1.906-3.573 2.62-4.526 5.24-7.146 1.429-1.191.715-.953 2.382-1.429.715-.238 1.429-.476 1.906-.715h.952c1.906.239 2.859-1.667 2.144-2.858zm-81.7-56.689c-1.667 0-1.905 1.905-2.143 3.096-.715 2.62-1.191 5.002-2.144 7.622-1.905 7.146-4.764 13.339-6.193 17.15-.476 1.667-4.525 9.289-6.431 13.1-.715 1.191-1.19 2.144-1.905 3.335-.477.714-.953 1.429-.953 2.382-.238.953 0 1.667.476 2.382 2.382-.477 5.002-.477 7.622-.477.238 0 .238-.238.477-.238 3.096-2.62 4.287-6.669 5.24-10.48.238-.953.476-2.144.714-3.097.238-.714.238-1.191 0-1.905a481.82 481.82 0 01-.714-.715c1.667-5.002 3.334-10.242 5.002-15.244 1.19-3.811 1.667-7.622 2.382-11.433.238-1.191.714-2.382.714-3.573-.715-1.429-1.43-1.905-2.144-1.905z" fill="#000"/><path opacity=".129" d="M157.929 412.123c-2.62-.953-5.955-3.334-10.481-3.811h.477-1.429c-1.191 0-2.382.238-3.335.953-1.905 1.667-4.287 4.287-5.002 4.525-.238.239-.476.239-.953.477-.714.238-1.191.476-1.905.476-3.097.238-6.431-.238-9.528-.714-3.334-.477-6.669-.477-10.003-.477-3.811-.238-7.384-.714-11.195-.952-6.67-.715-13.339-.477-20.246-.953-5.24-.477-10.719 0-15.959-.238-9.051 0-18.579.476-27.868.952-6.193.477-19.531.953-24.771-.714-1.43-.238-2.859-1.429-4.288-.715-1.429.715-1.19 3.335.477 3.573 4.287 1.429 8.574 2.62 12.862 2.858 3.334.477 10.956.715 16.435.238 5.24-.476 10.48-.238 15.482-.714 5.478-.477 11.195-.238 16.673 0 3.335 0 6.67 0 10.004.238 4.764.238 9.527 0 14.053.238 6.431.477 12.862 1.191 19.531 1.429 3.097.239 6.193.239 9.29.477 4.287.476 8.575.714 12.624-.953 2.62-.953 4.287-3.096 6.193-5.24h.238c1.667.476 1.191 0 3.811.953 5.716 1.667 9.289 3.572 13.338 7.145 1.429 1.668.953.715 1.668 2.144.238.476.476 1.191.952 1.429 1.668 1.429 4.288 0 4.288-2.144 0-3.811-7.384-8.574-11.433-10.48z" fill="#000"/><path d="M309.18 158.215c.953-1.429.953 0 1.429-1.667.477-1.667.477-3.573 0-5.002-.714-1.667-2.143-2.858-3.811-2.858-2.143 0-3.811 1.667-5.24 3.096-2.382 2.62-4.763 5.478-6.431 8.575-.714 1.191-1.191 2.858-.238 3.811.476.476 1.191.714 1.906.714 2.143 0 4.049-.714 5.478-2.381.476-.715.953-1.43 1.667-2.144.715-.715 1.667-1.429 1.906-2.144.476-2.62.476-4.049 3.334 0z" fill="#fff"/><path d="M303.94 151.308c.953-1.429 1.667-3.097 2.144-4.764.476-1.667.476-3.573 0-5.002-.715-1.667-2.144-2.858-3.811-2.858-2.144 0-3.811 1.667-5.24 3.096-2.382 2.62-4.764 5.479-6.431 8.575-.715 1.191-1.191 2.858-.239 3.811.477.477 1.191.715 1.906.715 2.144 0 3.811.714 5.24-.715.476-.714 6.193-5.955 6.431-2.858z" fill="#fff"/><path d="M299.416 143.448c.953-1.429 1.667-3.097 2.144-4.764.476-1.667.476-3.573 0-5.002-.477-1.429-2.144-2.858-3.811-2.858-2.144 0-3.811 1.667-5.241 3.096-2.381 2.62-4.763 5.479-6.431 8.575-.714 1.191-1.191 2.858-.238 3.811.477.477 1.191 2.382 1.906 2.382 2.143 0 4.049-2.382 5.478-4.049.238-.715 5.955-4.526 6.193-1.191z" fill="#fff"/><path d="M297.509 130.824c1.667 0 0-6.193-.715-7.86-.715-1.668-2.144-2.859-3.811-2.859-2.144 0-3.811 1.668-5.24 3.097-2.382 2.62-4.764 5.478-6.431 8.575-.715 1.191-1.191 2.858-.238 3.811.476.476-.953 7.145-.239 7.383 2.144 0 4.526-.714 5.955-2.143.476-.953 6.193-10.004 10.719-10.004z" fill="#fff"/><path d="M276.073 138.207c2.858-3.572 9.051-10.956 5.478-13.1-1.905-.953-6.193 1.191-7.622 2.62-2.382 2.62-7.383 5.24-9.051 8.337-.714 1.191-3.096 7.86-2.144 8.813.477.476 0 6.907.715 6.907 2.144 0 10.48 2.382 11.671.953.477-.715-4.764-7.384.953-14.53z" fill="#fff"/><path d="M296.317 166.79h-.714c-1.906-.476-2.62-1.429-2.859-2.382-1.191-3.811 4.05-10.48 5.955-12.385 1.906-2.144 4.288-4.526 7.384-5.002 2.62-.238 5.24 1.429 6.193 4.525.714 2.859-.477 5.479-1.667 7.86v.239c-.239.476-.953.714-1.668.476-.476-.238-.714-.953-.476-1.667v-.238c.953-1.906 2.144-4.288 1.429-6.193-.476-1.429-1.906-2.859-3.573-2.62-2.382.238-4.287 2.143-5.955 4.049-3.096 3.573-5.954 8.336-5.478 10.004 0 .238.238.476 1.191.714 2.858.477 6.907-5.478 8.575-8.098.238-.238.476-.715.476-.953.477-.476 1.191-.714 1.667-.238.477.476.715 1.191.239 1.667-.238.238-.238.477-.477.715-2.143 3.573-6.193 9.527-10.242 9.527zm-10.242-12.862c-.714 0-1.429-.238-1.905-.715-1.191-1.429-1.906-5.954.238-10.718s6.431-10.719 10.48-12.148c3.335-1.191 5.24-.238 6.431.477 1.906 1.667 2.859 4.763 2.382 8.574 0 .715-.714 1.191-1.191.953-.714 0-1.191-.714-.952-1.191.476-2.858-.239-5.478-1.668-6.431-.952-.714-2.382-.953-4.049-.238-3.334 1.191-7.146 6.431-9.289 10.957-1.906 4.287-.953 7.622-.715 8.098h.477c1.191-.238 2.62-1.429 2.858-2.144.238-.714.953-.953 1.429-.714.476.238.953.952.715 1.429-.715 1.667-2.859 3.096-4.526 3.573-.238.238-.476.238-.715.238z" fill="#000"/><path d="M291.555 162.74c-.953 0-2.144-.238-2.858-.952-.953-.953-1.429-2.144-1.429-3.811-.238-2.62.476-5.479 1.905-8.813 1.906-4.288 4.764-7.86 8.575-10.004 1.667-.953 5.478-1.667 8.098 0 1.668 1.191 3.573 3.573 2.859 8.575 0 .714-.715 1.191-1.429.952-.715 0-1.191-.714-.953-1.429.238-2.143.238-5.002-1.668-6.431-1.667-1.191-4.287-.714-5.716 0-3.335 1.906-5.955 5.002-7.622 8.813-1.191 2.858-1.906 5.478-1.667 7.622 0 1.191.238 1.906.714 2.382.715.715 2.62.238 2.858 0a1.153 1.153 0 011.668 0 1.152 1.152 0 010 1.667c-.477.953-1.906 1.429-3.335 1.429zm-17.625 27.869c-.715 0-1.191-.477-1.191-1.191.476-9.528-2.62-15.721-5.478-21.914-1.668-3.334-3.097-6.669-4.288-10.242l-.238-.952c-1.429-5.479-3.096-11.672-.714-17.388 1.429-3.573 4.525-6.431 7.383-9.051l.477-.238c1.667-1.43 4.049-3.573 6.193-4.764 2.62-1.429 4.763-1.668 5.954-.953.715.476 1.429 1.191 1.429 2.62 0 5.002-1.429 6.431-3.811 9.289-.476.715-1.19 1.191-1.667 2.144-3.334 4.049-3.811 10.719-.953 15.959.239.476 0 1.191-.476 1.667-.476.238-1.191 0-1.667-.476-3.335-5.955-2.859-13.577 1.191-18.579.714-.715 1.191-1.429 1.667-2.144 2.382-2.62 3.096-3.572 3.096-7.86 0-.238 0-.476-.238-.714-.238-.239-1.429-.239-3.811.952-1.905.953-4.049 2.859-5.716 4.288l-.477.238c-2.858 2.382-5.478 5.002-6.669 8.098-1.905 4.764-.476 10.481.953 15.959l.238.953c.953 3.572 2.382 6.669 4.049 9.765 3.097 6.193 6.193 12.862 5.717 22.866.238 1.191-.238 1.668-.953 1.668z" fill="#000"/><path d="M282.505 146.068c-.953 0-1.668-.238-1.906-.476-3.096-1.43-2.858-5.479-1.905-8.575l.238-.953c1.191-3.573 2.382-7.384 4.526-10.718 2.143-3.335 7.145-7.861 11.671-6.193 4.287 1.667 3.811 6.431 3.811 9.527v2.144c0 .714-.477 1.191-1.191 1.191-.715 0-1.191-.477-1.191-1.191v-2.382c.238-3.335.238-6.431-2.144-7.146-2.858-.952-6.907 2.382-8.813 5.479-1.905 3.096-3.096 6.669-4.287 10.242l-.238.953c-.477 1.667-1.191 4.763.714 5.716.238 0 .953.238 1.429 0 .477-.238 1.191-.715 1.429-1.667.239-.477.953-.953 1.668-.477.476.239.953.953.476 1.668-.714 1.429-1.667 2.382-2.858 2.858h-1.429z" fill="#000"/></svg>