<svg width="91" height="92" fill="none" xmlns="http://www.w3.org/2000/svg"><path d="M68.274 68.661c12.477-12.477 12.477-32.707 0-45.184-12.478-12.478-32.708-12.478-45.185 0-12.478 12.477-12.478 32.707 0 45.185 12.477 12.477 32.707 12.477 45.185 0z" fill="#fff"/><path d="M45.64 79.105c-18.227 0-33.023-14.796-33.023-33.023 0-18.227 14.796-33.023 33.023-33.023 18.227 0 33.023 14.796 33.023 33.023 0 18.227-14.796 33.023-33.023 33.023zm0-64.116c-16.94 0-30.879 13.938-30.879 30.878 0 16.94 13.939 30.88 30.88 30.88 16.94 0 30.878-13.94 30.878-30.88 0-16.94-13.724-30.878-30.879-30.878z" fill="#000"/><path d="M45.64 60.663c-.428 0-.642-.214-.857-.428L32.775 43.08c-2.36-3.217-1.501-7.934 1.5-10.293 1.502-1.072 3.432-1.716 5.361-1.287 1.93.215 3.646 1.287 4.718 3.002l1.287 1.716 1.286-1.716c1.073-1.5 2.788-2.573 4.718-3.002 1.93-.214 3.86.215 5.36 1.287 3.217 2.358 3.86 7.076 1.502 10.293L46.499 60.234c-.215.215-.43.43-.858.43zM38.565 33.43c-1.072 0-2.144.429-3.002 1.072-2.358 1.716-2.787 4.932-1.072 7.291l11.15 15.868 11.151-15.868c1.716-2.359 1.073-5.575-1.072-7.29-1.072-.859-2.359-1.073-3.86-.859-1.286.215-2.573.858-3.43 2.145l-2.145 3.002c-.214.214-.429.429-.858.429-.428 0-.643-.215-.857-.43l-2.145-3.001c-.857-1.072-1.93-1.93-3.43-2.145.214-.214-.215-.214-.43-.214z" fill="#000"/><path opacity=".129" d="M78.02 47.369c-1.072 2.144-2.144 4.288-3.645 7.076-2.359 3.645-3.43 4.932-5.36 7.29-3.003 3.646-4.075 4.504-7.935 6.648-3.216 1.501-6.004 2.788-10.722 3.646-1.93.214-3.645.214-5.575.214-4.932.215-6.433.215-11.15-1.715-4.504-1.716-11.151-7.506-16.512-12.652-.643-.643-1.501-1.287-2.144-2.144.214.214.214.428.428.643 1.502 3.002 3.217 5.79 5.147 8.577a83.18 83.18 0 009.006 8.363c.644.43 1.072.858 1.716 1.287.643.429 1.286.643 1.715.643 4.075 1.93 8.578 2.145 13.08 1.93 6.434.215 12.652-1.5 18.228-4.503 1.286-1.287 2.787-2.359 4.288-3.645v-.215c1.073-1.715 2.36-3.43 3.431-5.146l.644-.644c.429-.643.858-1.5 1.286-2.144 1.716-3.217 3.217-6.647 4.29-10.078 0 0 0-.215.214-.215-.43-.858-.43-2.144-.43-3.216z" fill="#000"/></svg>