<svg width="94" height="94" fill="none" xmlns="http://www.w3.org/2000/svg"><path d="M47.135 92.402c25.344 0 45.89-20.257 45.89-45.245 0-24.99-20.546-45.246-45.89-45.246-25.343 0-45.889 20.257-45.889 45.245 0 24.99 20.546 45.246 45.89 45.246z" fill="#fff"/><path d="M47.136 93.475c-25.733 0-46.747-20.8-46.747-46.318C.389 21.639 21.403.837 47.136.837c25.732 0 46.747 20.8 46.747 46.319 0 25.517-21.015 46.318-46.747 46.318zm0-90.492c-24.66 0-44.817 19.728-44.817 44.174 0 24.445 20.157 44.173 44.817 44.173s44.817-19.728 44.817-44.173C91.738 22.71 71.796 2.983 47.136 2.983z" fill="#000"/><path d="M63.003 90.687c-.429 0-1.072-.429-1.072-.858-1.286-8.577-3.216-17.155-6.004-25.303-1.287-3.86-3.646-9.221-7.72-10.293-2.359-.643-5.146.643-7.29 3.002-2.145 2.359-3.432 5.575-4.29 8.577-2.573 7.291-4.074 15.225-4.931 23.374 0 .643-.644 1.072-1.073.858-.643 0-1.072-.644-.857-1.073.858-8.363 2.358-16.511 5.146-24.016 1.072-3.217 2.573-6.648 4.718-9.221 2.573-3.002 6.218-4.503 9.435-3.645 5.146 1.072 7.72 7.076 9.22 11.579a145.379 145.379 0 016.22 25.732c-.43.644-.858 1.072-1.502 1.287z" fill="#000"/><path d="M39.201 70.1h-.214c-.215-.213-.215-.428 0-.428 3.43-3.645 6.862-7.505 10.293-11.15.214-.215.428-.215.428 0 .215.214.215.428 0 .428L39.416 69.886c0 .215-.215.215-.215.215zM35.77 82.11h-.215c-.214-.215-.214-.43 0-.43 5.361-6.218 10.937-12.222 16.94-17.583.215-.214.43-.214.43 0 .214.215.214.429 0 .429a218.623 218.623 0 00-16.94 17.584h-.215zm.644 9.22H36.2c-.215-.214-.215-.428 0-.428l18.656-19.3c.214-.214.429-.214.429 0 .214.215.214.43 0 .43L36.629 91.33c0-.215 0 0-.215 0zm9.863.858h-.215c-.214-.215-.214-.43 0-.43 3.86-3.859 7.72-7.719 11.365-11.793.215-.215.43-.215.43 0 .214.214.214.429 0 .429-3.646 4.074-7.506 7.934-11.366 11.794h-.214z" fill="#000"/><path opacity=".129" d="M59.573 36.006c-.644-.858-2.145-.858-2.788 0-1.072 1.286-.429 1.715-1.072 3.86-.858 3.002-4.718 5.79-6.433 6.433-2.359.858-3.002.858-4.289 1.072-2.358 0-1.93 0-4.503-.643-.643-.215-.214 0-1.5-.644-.43-.214-.859-.214-1.288-.214-1.5.429-1.715 2.573-.428 3.217 7.72 5.146 15.224 3.645 20.8-4.504 1.072-1.93 1.93-4.074 1.93-6.218.214-.644.214-1.716-.43-2.36z" fill="#000"/><path d="M46.708 53.804c-1.93 0-3.86-.214-5.79-.858-1.287-.428-2.144-.857-3.002-1.5-1.716-1.073-2.788-3.003-3.86-5.576a10.905 10.905 0 01-.858-4.289c0-1.715.215-3.43 1.072-5.36 1.287-3.217 3.217-6.005 5.576-7.72 2.787-2.145 6.218-3.217 9.435-2.788 3.216.215 6.218 2.359 8.577 5.79 1.716 2.573 2.574 5.79 2.574 9.435 0 1.501-.215 2.573-.43 3.645-1.072 3.646-3.86 6.648-7.719 8.149-1.501.643-3.431 1.072-5.575 1.072zm1.715-26.16c-2.359 0-4.932.857-7.076 2.572-2.145 1.716-3.86 4.075-4.932 6.862-.643 1.716-.858 3.217-.858 4.503 0 1.073.215 2.36.643 3.646.644 2.144 1.716 3.645 3.002 4.503.644.429 1.502.858 2.36 1.072 3.43 1.072 7.076 1.072 9.863 0 3.217-1.286 5.576-3.86 6.433-6.647.215-.858.43-1.93.43-3.217 0-3.217-.859-6.004-2.36-8.363-.857-1.287-3.216-4.503-6.861-4.932h-.644z" fill="#000"/><path opacity=".129" d="M87.45 67.099c-1.287-1.072-2.359-.429-3.43.643-.43.43-.215.215-1.287 1.072-1.716 1.501-3.431 3.003-5.147 4.29-1.287 1.071-2.359 2.144-3.645 3.216-2.788 2.358-12.438 8.363-15.654 9.22-10.507 3.86-20.8 1.501-31.093-3.002-3.217-1.5-4.503-2.144-7.934-4.503-.43-.429-1.93-1.5-2.145-1.93-1.93-1.715-3.645-3.645-5.36-5.36-.644-.644-1.287-1.716-2.36-1.502-1.715 0-2.573 2.145-1.286 3.217 1.93 2.144 3.86 4.717 6.004 6.862 3.86 3.43 7.077 5.79 12.652 8.363 5.146 2.359 10.507 3.86 16.083 4.717 2.787.43 5.575.644 8.363.215 3.645-.43 7.29-1.287 10.507-2.788.429-.214 1.072-.643 1.5-.858 0 .858.859 1.716 1.716 1.716.644 0 1.073-.429 1.502-.858.857-.858 1.93-1.5 2.787-2.359 3.431-2.787 6.862-5.575 10.293-8.577 1.501-1.287 3.002-2.359 4.289-3.645.214-.215.214-.43.429-.644.214-.643.214-1.286 0-1.715.428-.43.857-.644 1.072-1.072h-.215s.215 0 .215-.215c.214 0 .214-.214.214 0 .43-.214.644-.643 1.073-.858.428-.428 1.072-.857 1.286-1.715.429-.429.215-1.287-.429-1.93z" fill="#000"/></svg>