<svg width="447" height="528" fill="none" xmlns="http://www.w3.org/2000/svg"><path d="M1.191 1.19v524.966H445.65V1.191H1.191zm409.922 423.26H33.585V55.498h377.528V424.45z" fill="#fff"/><path d="M445.887 527.109H1.191c-.715 0-1.191-.476-1.191-1.19V1.191C0 .476.476 0 1.19 0h444.46c.715 0 1.191.476 1.191 1.19v524.967c.238.476-.238.952-.953.952zM2.382 524.966h442.315V2.382H2.382v522.584zm408.73-99.325H33.584c-.714 0-1.19-.476-1.19-1.19V55.498c0-.715.476-1.191 1.19-1.191h377.528c.715 0 1.191.476 1.191 1.19v368.954c0 .714-.715 1.19-1.191 1.19zM34.775 423.26h375.146V56.689H34.775V423.26z" fill="#000"/></svg>