<?xml version="1.0" standalone="no"?>
<!DOCTYPE svg PUBLIC "-//W3C//DTD SVG 20010904//EN"
 "http://www.w3.org/TR/2001/REC-SVG-20010904/DTD/svg10.dtd">
<svg version="1.0" xmlns="http://www.w3.org/2000/svg"
 width="157.000000pt" height="157.000000pt" viewBox="0 0 157.000000 157.000000"
 preserveAspectRatio="xMidYMid meet">
<metadata>
Created by potrace 1.14, written by Peter Selinger 2001-2017
</metadata>
<g transform="translate(0.000000,157.000000) scale(0.100000,-0.100000)"
fill="#000000" stroke="none">
<path d="M693 1545 c-29 -13 -83 -42 -120 -63 -38 -22 -84 -49 -103 -60 -19
-11 -78 -44 -130 -74 -53 -30 -120 -70 -150 -90 -119 -76 -119 -75 -120 -462
0 -205 3 -332 11 -359 7 -27 26 -56 53 -82 36 -34 291 -186 525 -313 72 -39
137 -48 191 -26 57 24 528 296 566 327 70 58 69 53 69 437 0 314 -2 349 -18
385 -11 22 -31 50 -46 62 -35 27 -468 277 -546 314 -73 35 -114 36 -182 4z
m126 -339 c3 -1 76 -42 162 -91 105 -58 162 -97 173 -115 13 -23 16 -59 16
-214 0 -109 -4 -195 -11 -208 -11 -25 -52 -54 -154 -109 -33 -17 -64 -35 -70
-39 -43 -31 -134 -73 -158 -72 -40 1 -351 180 -371 214 -13 21 -16 59 -16 201
0 96 3 188 6 205 8 38 24 49 272 188 87 48 118 57 151 40z"/>
</g>
</svg>
