<svg width="150" height="154" fill="none" xmlns="http://www.w3.org/2000/svg"><path d="M21.301 6.55a36.518 36.518 0 015.033-2.935C39.008-2.467 54.568-.465 66.75 6.56c12.183 7.026 21.3 18.508 27.933 30.931 3.03 5.678 5.743 11.778 10.611 15.973 6.278 5.412 14.76 6.633 22.24 9.582 27.205 10.715 27.517 50.011 3.672 64.684-9.401 5.783-21.009 7.529-31.81 8.336-14.96 1.119-30.198.547-44.646-3.508-14.45-4.05-28.12-11.763-37.79-23.271C4.298 94.21-.584 73.715.055 54.011c.323-9.97 1.996-20.024 6.2-29.065C9.634 17.679 14.757 11.09 21.3 6.55z" fill="#A4CE2D"/><path opacity=".7" d="M21.301 6.55a36.518 36.518 0 015.033-2.935C39.008-2.467 54.568-.465 66.75 6.56c12.183 7.026 21.3 18.508 27.933 30.931 3.03 5.678 5.743 11.778 10.611 15.973 6.278 5.412 14.76 6.633 22.24 9.582 27.205 10.715 27.517 50.011 3.672 64.684-9.401 5.783-21.009 7.529-31.81 8.336-14.96 1.119-30.198.547-44.646-3.508-14.45-4.05-28.12-11.763-37.79-23.271C4.298 94.21-.584 73.715.055 54.011c.323-9.97 1.996-20.024 6.2-29.065C9.634 17.679 14.757 11.09 21.3 6.55z" fill="#A4CE2D"/><path opacity=".2" d="M139.745 27.928L3.148 29.03s-1.206 29.85.222 42.085c1.429 12.236-.222 53.324-.222 53.324s22.017 2.182 46.587 1.275l-9.027 5.952s-.567 2.96 1.988 4.897l4.789-1.48 1.575 1.48 4.024-1.379s1.648-5.002-1.69-9.539c24.774-1.022 48.429-3.37 48.429-3.37s.38 1.552 5.33 6.499c4.946 4.948 11.709 21.976 11.709 21.976l16.25-25.079 9.286-1.235s-1.863-23.398 0-37.513c1.862-14.108-2.653-58.995-2.653-58.995z" fill="#000" fill-opacity=".7"/><path d="M138.726 119.171s-50.575-1.048-72.03 0c-15.359.749-61.512 0-61.512 0s.947-33.858 0-51.005c-.607-10.943 0-43.84 0-43.84s49.129.098 64.922-.518c26.143-1.015 68.62.519 68.62.519s1.02 23.534 0 37.545c-1.041 14.288 0 57.299 0 57.299z" fill="#F9FFE8"/><path opacity=".5" d="M138.73 24.327v21.485c-9.063-.226-34.164-.687-67.07.105-34.921.839-59.477.27-66.472.065V24.327s49.129.097 64.922-.519c26.139-1.015 68.62.519 68.62.519z" fill="#A4CE2D"/><path opacity=".2" d="M88.096 117.759l-1.224-72.98H71.965c-.664 11.483-.226 57.695-.057 72.98h16.188zM6.86 46.028l16.375-.111s1.252 56.456-1.598 71.842H7.803s.19-20.567 0-37.538c-.19-16.97-.944-34.193-.944-34.193z" fill="#A4CE2D"/><path d="M6.86 34.665s40.557-.573 52.822 0c12.262.572 45.985-.425 50.92-.735 4.936-.31 27.277.735 27.277.735.84-6.737-.758-9.82-.758-9.82s-59.829.782-88.796 1.17c-28.967.39-41.462 0-41.462 0s.57 5.326-.004 8.65z" fill="#A4CE2D"/><path d="M138.726 119.171s-50.575-1.048-72.03 0c-15.359.749-61.512 0-61.512 0s.947-33.858 0-51.005c-.607-10.943 0-43.84 0-43.84s49.129.098 64.922-.518c26.143-1.015 68.62.519 68.62.519s1.02 23.534 0 37.545c-1.041 14.288 0 57.299 0 57.299z" stroke="#1A1A1A" stroke-miterlimit="10" stroke-linecap="round" stroke-linejoin="round"/><path d="M68.14 31.593a.3.3 0 01-.093-.022.864.864 0 01-.119-.054.288.288 0 01-.093-.08c-.025-.028-.032-.06-.018-.093a.67.67 0 00.054-.126l.075-.223c.029-.086.058-.177.09-.277.032-.098.061-.195.09-.292l.082-.277.065-.223-1.404-1.44c-.032-.04-.046-.073-.04-.094a.104.104 0 01.051-.054.166.166 0 01.083-.022c.029-.004.05-.004.06-.004a.617.617 0 01.291.069.99.99 0 01.18.122c.068.054.144.13.237.224.09.093.197.208.32.349.121.137.265.306.427.5.107-.313.197-.569.276-.77.079-.202.15-.36.212-.483.064-.119.122-.205.176-.255a.328.328 0 01.165-.09c.032 0 .068.003.1.01.032.008.054.033.068.08a7.663 7.663 0 00-.312.788c-.1.292-.2.598-.309.911-.107.313-.215.63-.33.944a8.343 8.343 0 01-.384.882zm1.534-.788a1.642 1.642 0 01.377-1.239c.14-.166.305-.299.503-.396a1.333 1.333 0 01.8-.119 1.652 1.652 0 01.43.144c.073.036.137.08.191.13.054.05.097.108.126.169a.348.348 0 01.021.212 1.044 1.044 0 01-.398.17 3.21 3.21 0 01-.46.064 10.64 10.64 0 01-.456.033c-.147.01-.28.036-.387.079a.496.496 0 00-.255.202c-.061.09-.079.223-.057.396.043.155.11.27.208.342a.682.682 0 00.337.133c.13.014.262.007.41-.022.143-.028.287-.068.423-.115s.27-.097.388-.151c.122-.054.219-.097.297-.13a.13.13 0 01.094.04c.025.025.04.058.04.093a.978.978 0 01-.32.325 1.886 1.886 0 01-.485.23 2.23 2.23 0 01-.56.108c-.194.014-.377 0-.549-.043a1.099 1.099 0 01-.449-.223.736.736 0 01-.269-.432zm1.483-1.455c-.05 0-.112.007-.187.018-.072.01-.144.032-.212.057a.658.658 0 00-.176.108.222.222 0 00-.075.173l1.044-.172a.362.362 0 00-.175-.145.608.608 0 00-.22-.04zm3.522 1.275a2.019 2.019 0 01-.284.345 1.608 1.608 0 01-.768.422 1.58 1.58 0 01-.474.028.933.933 0 01-.19-.021.643.643 0 01-.187-.069.42.42 0 01-.14-.122.323.323 0 01-.053-.19 1.033 1.033 0 01.017-.48c.044-.162.112-.317.205-.468a2.255 2.255 0 01.772-.742c.154-.09.309-.15.47-.19.162-.04.316-.044.47-.019.115 0 .205.04.27.116a.742.742 0 01.143.302c.032.126.054.274.061.436l.022.508.021.518c.011.17.032.324.065.465h-.313a5.557 5.557 0 01-.032-.252c-.007-.072-.014-.14-.018-.206a13.53 13.53 0 00-.021-.183 1.102 1.102 0 00-.036-.198zm-.32-1.127a.927.927 0 00-.337.043c-.115.04-.23.09-.338.162a1.769 1.769 0 00-.301.245c-.093.093-.176.19-.248.291a1.274 1.274 0 00-.161.303.61.61 0 00-.047.277c.007.083.04.155.093.216a.482.482 0 00.263.119 1.06 1.06 0 00.484-.13c.154-.082.294-.187.416-.31.122-.122.223-.255.306-.395.082-.14.132-.274.157-.396a.417.417 0 00-.032-.303c-.046-.08-.129-.122-.255-.122zm.985-.415c0-.054.018-.09.057-.105a.29.29 0 01.126-.025c.072 0 .133.029.176.09.043.061.075.13.1.213.025.079.04.158.05.237l.022.166a2.4 2.4 0 01.348-.267c.13-.082.273-.15.43-.208a2.5 2.5 0 01.532-.127 3.48 3.48 0 01.653-.017c.076-.018.133 0 .17.046.039.05.06.108.064.177a.42.42 0 01-.033.198c-.025.065-.068.104-.118.115a.786.786 0 00-.355-.14 1.354 1.354 0 00-.435.003c-.15.022-.298.065-.445.126a1.473 1.473 0 00-.387.23 1.035 1.035 0 00-.27.321.706.706 0 00-.082.393c0 .086.007.172.018.255.01.083.021.166.036.249.014.083.025.165.035.248.011.083.019.166.019.252a.98.98 0 00-.184.03.298.298 0 01-.114.017c-.033 0-.058-.014-.08-.043a.567.567 0 01-.075-.162 3.687 3.687 0 01-.021-.177c-.011-.097-.026-.22-.04-.36a17.01 17.01 0 00-.054-.46c-.018-.166-.04-.332-.057-.494-.018-.162-.036-.31-.05-.446-.015-.137-.03-.252-.036-.335zM12.565 41.315a1.853 1.853 0 01-.086-.151c-.036-.069-.072-.145-.112-.227-.04-.083-.079-.17-.125-.256a3.958 3.958 0 00-.13-.248 2.045 2.045 0 00-.125-.195.298.298 0 00-.108-.1c-.025.039-.054.09-.086.161-.032.069-.064.148-.1.234a3.987 3.987 0 00-.104.274c-.036.094-.069.187-.101.277-.032.09-.061.173-.09.249l-.068.187-.19-.01-.765-1.78c-.01-.021-.01-.04 0-.054a.097.097 0 01.043-.032c.018-.007.036-.014.058-.014.021-.004.036-.004.05-.004a.11.11 0 01.068.018.13.13 0 01.036.05c.007.022.018.044.025.069a.571.571 0 00.025.072c.026.054.054.119.09.198.036.075.072.158.108.241.036.083.075.166.115.252.04.083.075.159.107.23.033.069.065.127.09.173a.308.308 0 00.054.083l.219-.54c.06-.148.115-.27.158-.367.043-.097.079-.17.104-.223.025-.054.047-.09.06-.116a.119.119 0 01.037-.043l.014-.007c.025 0 .058.018.094.05a.746.746 0 01.11.134c.04.054.08.118.12.187l.125.22c.043.075.082.15.118.226.04.076.076.144.108.21.032.064.065.122.09.168a.495.495 0 00.064.101 5.695 5.695 0 00.144-.59 8.78 8.78 0 00.06-.332l.058-.327c.018-.105.036-.21.05-.306a8.48 8.48 0 01.044-.267c.05 0 .09.004.118.015.029.01.047.025.061.043.01.018.018.04.022.065.003.025.003.05.003.079 0-.007 0 .021-.007.083a5.193 5.193 0 01-.036.252c-.014.108-.036.234-.057.378-.022.144-.05.295-.08.45a9.14 9.14 0 01-.212.925.19.19 0 01-.1.043.11.11 0 01-.068-.021.253.253 0 01-.05-.076.63.63 0 01-.05-.111zm.769-.198a.891.891 0 01.04-.39.95.95 0 01.477-.565.78.78 0 01.47-.068.882.882 0 01.363.162.249.249 0 01.072.1c.018.037.021.08.01.127a.617.617 0 01-.233.097 2.105 2.105 0 01-.27.04 8.43 8.43 0 01-.265.018.806.806 0 00-.226.047.327.327 0 00-.15.115c-.037.054-.047.13-.033.23.025.09.065.155.122.198a.417.417 0 00.197.08.885.885 0 00.237-.011 2.11 2.11 0 00.474-.159c.072-.032.13-.057.176-.075.022 0 .04.007.054.021a.074.074 0 01.021.054.587.587 0 01-.186.191 1.27 1.27 0 01-.284.137 1.42 1.42 0 01-.326.065 1.03 1.03 0 01-.32-.026.664.664 0 01-.262-.13.465.465 0 01-.158-.258zm.865-.85a.676.676 0 00-.23.047.322.322 0 00-.1.065.13.13 0 00-.043.1l.61-.1a.203.203 0 00-.1-.083.31.31 0 00-.137-.03zm.838.85a.893.893 0 01.04-.39.95.95 0 01.477-.565.78.78 0 01.47-.068.884.884 0 01.363.162.249.249 0 01.072.1c.018.037.021.08.01.127a.616.616 0 01-.233.097 2.105 2.105 0 01-.27.04 8.43 8.43 0 01-.265.018.806.806 0 00-.226.047.327.327 0 00-.15.115c-.036.054-.047.13-.033.23.025.09.065.155.122.198a.418.418 0 00.198.08.886.886 0 00.236-.011 2.115 2.115 0 00.474-.159c.072-.032.13-.057.176-.075.022 0 .04.007.054.021a.073.073 0 01.021.054.586.586 0 01-.186.191 1.27 1.27 0 01-.284.137 1.42 1.42 0 01-.326.065 1.03 1.03 0 01-.32-.026.664.664 0 01-.262-.13.466.466 0 01-.158-.258zm.865-.85a.676.676 0 00-.23.047.322.322 0 00-.1.065.131.131 0 00-.043.1l.61-.1a.203.203 0 00-.1-.083.31.31 0 00-.137-.03zm.914.101c0-.083-.004-.166-.007-.252-.008-.083-.011-.166-.018-.252a5.759 5.759 0 01-.018-.249c-.007-.083-.007-.166-.007-.248 0-.036.007-.062.028-.076a.118.118 0 01.076-.022h.025c.014 0 .021 0 .025.004.021.086.036.176.047.274.007.093.018.194.021.302.007.105.015.216.018.331.007.116.018.238.036.364.029-.014.072-.043.13-.08.053-.039.118-.082.186-.132s.14-.101.212-.155c.075-.054.143-.101.208-.144.065-.043.126-.08.176-.108a.277.277 0 01.111-.043c.018 0 .032.003.043.01.01.008.022.022.032.044a1.572 1.572 0 01-.23.234 7.352 7.352 0 01-.538.389c-.09.06-.172.126-.247.194.136.04.265.075.387.115a9.716 9.716 0 00.7.195c.111.025.226.04.338.046 0 .026 0 .047-.004.065a.178.178 0 01-.014.047c-.008.014-.022.022-.04.032a.315.315 0 01-.072.015h-.025a5.965 5.965 0 00-.273-.069c-.107-.025-.226-.046-.348-.075-.122-.025-.247-.05-.373-.08-.126-.028-.24-.053-.345-.082 0 .021.004.054.008.093.003.04.007.087.007.134 0 .046 0 .093-.004.14a.321.321 0 01-.032.123.161.161 0 01-.08.075c-.035.014-.078.014-.135-.004l-.004-1.155zm3.176-.486c-.004-.047.004-.076.025-.087a.151.151 0 01.072-.018c.021 0 .043.004.065.007.017.004.032.022.043.05l-.05 1.581c0 .019-.011.037-.03.05a.182.182 0 01-.057.033.131.131 0 01-.064.004.079.079 0 01-.05-.029c0-.04.003-.1.006-.184.004-.082.004-.176.008-.28a102.56 102.56 0 00.021-.656c.004-.104.007-.198.007-.28 0-.09.004-.152.004-.191zm7.745 2.153a1.853 1.853 0 01-.086-.152c-.036-.068-.072-.144-.112-.227-.04-.082-.079-.169-.125-.255a3.932 3.932 0 00-.13-.249 2.026 2.026 0 00-.125-.194.299.299 0 00-.108-.1c-.025.039-.054.09-.086.161a5.491 5.491 0 00-.1.234 3.987 3.987 0 00-.105.274c-.036.093-.068.187-.1.277-.032.09-.061.173-.09.249-.029.075-.05.14-.068.187l-.19-.01-.765-1.78c-.01-.021-.01-.04 0-.054a.099.099 0 01.043-.032c.018-.007.036-.014.058-.014.021-.004.04-.004.05-.004a.11.11 0 01.068.018.129.129 0 01.036.05c.007.022.018.044.021.069a.571.571 0 00.026.072l.09.198c.035.075.071.158.107.241.036.083.076.166.115.252l.108.23c.032.069.064.127.09.173a.308.308 0 00.053.083c.086-.212.158-.392.22-.54.06-.148.114-.27.157-.367.043-.098.08-.17.104-.224.025-.053.047-.09.061-.115a.119.119 0 01.036-.043l.015-.007c.025 0 .057.018.093.05a.746.746 0 01.111.134c.04.053.079.118.119.187.043.072.082.144.125.22.043.075.083.15.119.226.04.076.075.144.107.21.033.064.065.121.09.168a.49.49 0 00.065.101 5.695 5.695 0 00.143-.59c.022-.108.043-.22.061-.332.018-.111.04-.223.058-.327.018-.108.036-.21.05-.306.014-.098.029-.188.043-.267.05 0 .09.004.118.015.03.01.047.025.062.043.014.018.017.04.021.065s.004.05.004.079c0-.007 0 .021-.008.083a5.193 5.193 0 01-.035.252c-.015.108-.036.234-.058.378-.021.144-.05.295-.079.45a9.026 9.026 0 01-.212.925.19.19 0 01-.1.043.103.103 0 01-.068-.021.253.253 0 01-.05-.076 1.326 1.326 0 01-.047-.111zm.769-.198a.89.89 0 01.04-.39.95.95 0 01.477-.565.78.78 0 01.47-.068.877.877 0 01.251.086.505.505 0 01.112.076.248.248 0 01.071.1c.018.037.022.08.011.127a.617.617 0 01-.233.097 2.108 2.108 0 01-.27.04c-.09.007-.179.014-.265.018a.81.81 0 00-.226.047.327.327 0 00-.15.115c-.037.054-.047.13-.033.23.025.09.065.155.122.198a.417.417 0 00.197.08.885.885 0 00.237-.011 2.116 2.116 0 00.474-.159c.072-.032.13-.057.176-.075a.073.073 0 01.075.075.587.587 0 01-.186.191 1.09 1.09 0 01-.284.137 1.42 1.42 0 01-.327.065 1.03 1.03 0 01-.319-.026.665.665 0 01-.262-.13.51.51 0 01-.158-.258zm.869-.85a.673.673 0 00-.23.047.322.322 0 00-.1.064.131.131 0 00-.044.101l.61-.1a.203.203 0 00-.1-.083.32.32 0 00-.136-.03zm.835.85a.891.891 0 01.039-.39.95.95 0 01.477-.565.78.78 0 01.47-.068.882.882 0 01.363.162.249.249 0 01.072.1c.017.037.021.08.01.127a.617.617 0 01-.233.097 2.105 2.105 0 01-.27.04 8.43 8.43 0 01-.265.018.81.81 0 00-.226.047.327.327 0 00-.15.115c-.037.054-.047.13-.033.23.025.09.065.155.122.198a.417.417 0 00.197.08.885.885 0 00.237-.011 2.11 2.11 0 00.474-.159c.072-.032.13-.057.176-.075.022 0 .04.007.054.021a.074.074 0 01.021.054.588.588 0 01-.186.191c-.083.058-.176.1-.284.137a1.42 1.42 0 01-.326.065 1.03 1.03 0 01-.32-.026.664.664 0 01-.262-.13.51.51 0 01-.158-.258zm.868-.85a.676.676 0 00-.23.047.324.324 0 00-.1.064.13.13 0 00-.044.101l.61-.1a.203.203 0 00-.1-.083.321.321 0 00-.136-.03zm.925.101c0-.083-.003-.166-.007-.252-.007-.083-.01-.166-.018-.253a5.759 5.759 0 01-.018-.248c-.007-.083-.007-.166-.007-.248 0-.037.007-.062.029-.076a.118.118 0 01.075-.022h.025c.015 0 .022 0 .026.004.021.086.035.176.046.274.007.093.018.194.022.302.007.104.014.216.018.331.007.116.018.238.035.364.03-.014.072-.043.13-.08.054-.039.118-.082.186-.133.069-.05.14-.1.212-.154.076-.054.144-.101.208-.144a2.44 2.44 0 01.176-.108.277.277 0 01.111-.044c.018 0 .033.004.044.011a.13.13 0 01.032.044 1.572 1.572 0 01-.23.233 7.473 7.473 0 01-.538.39c-.09.06-.172.125-.248.194.137.04.266.075.388.115a9.716 9.716 0 00.7.194c.111.026.226.04.337.047 0 .026 0 .047-.004.065a.178.178 0 01-.014.047c-.007.014-.021.021-.04.032a.315.315 0 01-.071.015h-.025a5.965 5.965 0 00-.273-.069c-.108-.025-.226-.046-.348-.075-.122-.026-.248-.05-.373-.08-.126-.028-.241-.053-.345-.082 0 .021.004.054.007.093.004.04.007.087.007.133 0 .047 0 .094-.003.141a.321.321 0 01-.033.122.161.161 0 01-.079.076c-.035.014-.079.014-.136-.004l-.004-1.155zm3.151.997a3.977 3.977 0 00.693-.843c.064-.104.107-.205.132-.295a.39.39 0 00.004-.23c-.022-.065-.083-.105-.176-.126a.41.41 0 00-.155.025.56.56 0 00-.122.065.773.773 0 00-.104.086.751.751 0 01-.212.151.318.318 0 01-.136.026c0-.069.029-.134.083-.198a.827.827 0 01.197-.17c.08-.05.162-.086.255-.115.093-.029.18-.036.258-.029a.35.35 0 01.209.087c.057.05.09.126.1.23 0 .112-.018.227-.057.339-.04.111-.087.22-.148.324a2.417 2.417 0 01-.2.299c-.076.093-.148.183-.22.266a.79.79 0 00.288-.029c.097-.025.19-.057.283-.09.094-.036.187-.068.28-.097a.928.928 0 01.277-.047c.025 0 .046.007.068.018.021.011.032.033.032.065s-.01.058-.032.08a.189.189 0 01-.083.05c-.036.01-.068.021-.107.028-.04.008-.076.011-.108.015-.036.003-.065.003-.09.003-.025 0-.04 0-.047.004a.974.974 0 00-.096.025c-.047.015-.1.029-.166.047a5.46 5.46 0 01-.423.105c-.072.014-.144.025-.208.035-.065.008-.122.011-.165.008a.174.174 0 01-.1-.033c-.015-.01-.019-.04-.005-.079zm8.583-.77a1.853 1.853 0 01-.086-.151c-.036-.069-.072-.144-.112-.227-.04-.083-.079-.17-.125-.256a3.96 3.96 0 00-.13-.248 2.026 2.026 0 00-.125-.195.299.299 0 00-.108-.1c-.025.039-.054.09-.086.161a5.491 5.491 0 00-.1.234 3.964 3.964 0 00-.105.274c-.035.094-.068.187-.1.277-.032.09-.061.173-.09.249-.029.075-.05.14-.068.187l-.19-.01-.765-1.78c-.01-.021-.01-.04 0-.053a.099.099 0 01.043-.033c.018-.007.036-.014.058-.014.021-.004.035-.004.05-.004a.11.11 0 01.068.018.129.129 0 01.036.05c.007.022.018.044.022.069a.571.571 0 00.025.072l.09.198c.035.076.071.158.107.241.04.083.075.166.115.252l.108.23c.032.07.064.127.09.173a.308.308 0 00.053.083c.086-.212.158-.392.22-.54.06-.147.114-.27.157-.367.043-.097.08-.17.104-.223.025-.054.047-.09.061-.115a.119.119 0 01.036-.044l.014-.007c.026 0 .058.018.094.05a.746.746 0 01.111.134c.04.054.079.119.118.187l.126.22c.043.075.083.15.119.226.04.076.075.145.107.21.033.064.065.122.09.168a.492.492 0 00.065.101 5.732 5.732 0 00.143-.59c.022-.108.043-.22.061-.331.018-.112.04-.224.058-.328.018-.105.036-.209.05-.306a9 9 0 01.043-.267c.05 0 .09.004.118.015a.12.12 0 01.061.043c.011.018.018.04.022.065s.004.05.004.079c0-.007 0 .022-.008.083a5.175 5.175 0 01-.036.252c-.014.108-.035.234-.057.378-.021.144-.05.295-.079.45a9.082 9.082 0 01-.212.925.19.19 0 01-.1.044.103.103 0 01-.068-.022.25.25 0 01-.05-.076c-.015-.036-.033-.072-.047-.111zm.769-.198a.89.89 0 01.04-.39.921.921 0 01.477-.565.78.78 0 01.47-.068.878.878 0 01.251.087.505.505 0 01.112.075.248.248 0 01.071.101c.018.036.022.08.011.126a.617.617 0 01-.233.097 2.09 2.09 0 01-.27.04c-.09.007-.179.014-.265.018a.81.81 0 00-.226.047.327.327 0 00-.15.115c-.037.054-.047.13-.033.23a.35.35 0 00.122.198.417.417 0 00.197.08.885.885 0 00.237-.011 2.116 2.116 0 00.474-.159c.072-.032.13-.057.176-.075a.073.073 0 01.075.075.587.587 0 01-.186.191 1.22 1.22 0 01-.284.137 1.42 1.42 0 01-.327.065c-.114.007-.218 0-.319-.025a.665.665 0 01-.262-.13.487.487 0 01-.158-.26zm.865-.85a.673.673 0 00-.23.047.322.322 0 00-.1.065.13.13 0 00-.043.1l.61-.1a.204.204 0 00-.1-.083.42.42 0 00-.137-.029zm.839.85a.891.891 0 01.039-.39.95.95 0 01.477-.564.78.78 0 01.47-.069.883.883 0 01.252.087.504.504 0 01.11.075.248.248 0 01.072.101c.018.036.022.08.011.126a.617.617 0 01-.233.097 2.087 2.087 0 01-.27.04 8.43 8.43 0 01-.265.018.81.81 0 00-.226.047.327.327 0 00-.15.115c-.037.054-.047.13-.033.23.025.09.065.155.122.198a.417.417 0 00.197.08.885.885 0 00.237-.011 2.11 2.11 0 00.474-.159c.072-.032.13-.057.176-.075.022 0 .04.007.054.021a.074.074 0 01.021.054.588.588 0 01-.186.191 1.228 1.228 0 01-.284.137 1.42 1.42 0 01-.326.065c-.115.007-.22 0-.32-.025a.664.664 0 01-.262-.13.486.486 0 01-.158-.26zm.868-.85a.676.676 0 00-.23.047.324.324 0 00-.1.065.13.13 0 00-.043.1l.61-.1a.203.203 0 00-.1-.083.44.44 0 00-.137-.029zm.925.101c0-.083-.003-.166-.007-.252-.007-.083-.01-.166-.018-.252a6.944 6.944 0 01-.018-.249c-.007-.083-.007-.165-.007-.248 0-.036.007-.061.029-.076a.118.118 0 01.075-.021h.025c.015 0 .022 0 .026.003.021.087.035.177.046.274.007.093.018.194.022.302.007.105.014.216.018.332.007.115.018.237.035.363.03-.014.072-.043.13-.079.054-.04.118-.083.186-.133.069-.05.14-.101.212-.155.076-.054.144-.1.208-.144.065-.043.126-.08.176-.108a.277.277 0 01.111-.043c.018 0 .033.003.044.01a.13.13 0 01.032.044 1.572 1.572 0 01-.23.234 7.355 7.355 0 01-.538.389c-.09.06-.172.126-.248.194.137.04.266.076.388.115a9.716 9.716 0 00.7.195c.111.025.226.04.337.046 0 .026 0 .047-.004.065a.178.178 0 01-.014.047c-.007.015-.021.022-.04.033a.315.315 0 01-.071.014h-.025a5.951 5.951 0 00-.273-.069c-.108-.025-.226-.046-.348-.075-.122-.025-.248-.05-.373-.08-.126-.028-.241-.053-.345-.082 0 .021.004.054.007.093.004.04.007.087.007.134 0 .047 0 .093-.003.14a.323.323 0 01-.033.123.161.161 0 01-.079.075c-.035.018-.079.015-.136-.003l-.004-1.156zm3.483 1.076c.115-.029.223-.068.316-.115s.176-.1.244-.158a.932.932 0 00.165-.177.396.396 0 00.072-.162.167.167 0 00-.029-.126c-.029-.032-.075-.054-.143-.057a.92.92 0 00-.27.036 2.29 2.29 0 00-.402.154l-.107-.136c.04-.018.09-.044.147-.072.057-.03.122-.058.187-.094l.197-.108c.065-.036.126-.076.183-.112a.951.951 0 00.14-.111.257.257 0 00.072-.098c.007-.028 0-.054-.025-.079a.312.312 0 00-.147-.05c-.09 0-.176.01-.262.029-.087.018-.17.04-.255.06a6.2 6.2 0 01-.252.062 1.203 1.203 0 01-.255.029v-.043c0-.018.004-.033.008-.05a.18.18 0 01.018-.048.073.073 0 01.04-.032c.085-.022.179-.043.272-.068a3.7 3.7 0 01.287-.065c.097-.018.19-.036.28-.047.09-.01.172-.014.244-.007a.459.459 0 01.187.047c.05.025.086.064.107.115a.29.29 0 01-.046.158 1.186 1.186 0 01-.251.274c-.047.04-.09.075-.126.108.133 0 .237.018.309.05a.266.266 0 01.14.126.239.239 0 010 .173.643.643 0 01-.105.195c-.05.064-.107.13-.179.19a1.599 1.599 0 01-.222.163c-.08.046-.155.079-.234.104a.448.448 0 01-.212.022.16.16 0 01-.068-.018.08.08 0 01-.025-.062zm7.868.951a1.858 1.858 0 01-.086-.151 6.15 6.15 0 01-.111-.227c-.04-.083-.08-.17-.126-.256a3.928 3.928 0 00-.13-.248 2.029 2.029 0 00-.125-.195.299.299 0 00-.108-.1c-.025.04-.053.09-.086.161-.032.069-.064.148-.1.235a3.947 3.947 0 00-.104.273 9.618 9.618 0 00-.1.277l-.09.249c-.03.076-.05.14-.069.187l-.19-.01-.765-1.78c-.01-.021-.01-.039 0-.053a.099.099 0 01.043-.033.168.168 0 01.058-.014c.021-.004.04-.004.05-.004a.11.11 0 01.068.018.128.128 0 01.036.05c.007.022.018.044.022.069a.587.587 0 00.025.072l.09.198c.036.076.071.159.107.241.036.083.076.166.115.252l.108.23c.032.073.064.127.09.174a.31.31 0 00.053.083c.086-.213.158-.393.22-.54.06-.148.114-.27.157-.368.043-.097.08-.17.104-.223.026-.054.047-.09.061-.115a.119.119 0 01.036-.044l.015-.007c.025 0 .057.018.093.05a.74.74 0 01.111.134c.04.054.08.119.122.187.043.072.083.144.126.22.043.075.083.151.122.227l.108.208c.032.065.064.123.09.17a.49.49 0 00.064.1 5.905 5.905 0 00.144-.59c.021-.108.043-.22.06-.331l.058-.328c.018-.108.036-.209.05-.306a8.11 8.11 0 01.043-.267c.05 0 .09.004.119.015.029.01.046.025.06.043.012.018.019.04.022.065.004.025.004.05.004.08 0-.008 0 .02-.007.082a5.303 5.303 0 01-.036.252c-.014.108-.036.234-.058.378-.021.144-.05.295-.078.45a9.054 9.054 0 01-.212.925.19.19 0 01-.1.044.103.103 0 01-.069-.022.253.253 0 01-.05-.075c-.015-.033-.036-.072-.054-.112zm.785-.198a.892.892 0 01.04-.389.95.95 0 01.477-.565.78.78 0 01.47-.069.882.882 0 01.362.162.247.247 0 01.072.101c.018.036.022.08.011.126a.617.617 0 01-.233.097 2.108 2.108 0 01-.27.04c-.09.007-.179.014-.265.018a.81.81 0 00-.226.047.327.327 0 00-.151.115c-.036.054-.047.13-.032.23.025.09.064.155.122.199a.417.417 0 00.197.079c.075.01.154.003.237-.011a2.116 2.116 0 00.474-.159 3.68 3.68 0 01.176-.075c.021 0 .04.007.054.021a.074.074 0 01.021.054.587.587 0 01-.187.191 1.2 1.2 0 01-.283.137 1.42 1.42 0 01-.327.065 1.03 1.03 0 01-.32-.025.665.665 0 01-.261-.13.467.467 0 01-.158-.26zm.865-.85a.676.676 0 00-.23.047.324.324 0 00-.1.065.131.131 0 00-.043.1l.61-.1a.203.203 0 00-.1-.083.31.31 0 00-.137-.029zm.83.85a.892.892 0 01.04-.389.95.95 0 01.477-.565.78.78 0 01.47-.069.882.882 0 01.363.162.249.249 0 01.072.101.19.19 0 01.01.126.617.617 0 01-.233.097 2.105 2.105 0 01-.27.04c-.093.007-.179.014-.265.018a.81.81 0 00-.226.047.327.327 0 00-.15.115c-.037.054-.047.13-.033.23.025.09.065.155.122.199a.417.417 0 00.197.079.885.885 0 00.237-.011 2.11 2.11 0 00.474-.159c.072-.032.13-.057.176-.075.022 0 .04.007.054.021a.074.074 0 01.021.054.588.588 0 01-.186.191 1.228 1.228 0 01-.284.137 1.42 1.42 0 01-.326.065 1.03 1.03 0 01-.32-.025.664.664 0 01-.262-.13.466.466 0 01-.158-.26zm.865-.85a.676.676 0 00-.23.047.322.322 0 00-.1.065.131.131 0 00-.043.1l.61-.1a.203.203 0 00-.1-.083.42.42 0 00-.137-.029zm.914.101c0-.083-.004-.166-.007-.252-.008-.083-.011-.166-.018-.252a5.752 5.752 0 01-.018-.249c-.008-.083-.008-.165-.008-.248 0-.036.008-.061.03-.076a.118.118 0 01.075-.021h.025c.014 0 .021 0 .025.003.021.087.036.177.047.274.007.094.017.194.021.302.007.105.014.216.018.332.007.115.018.237.036.363.029-.014.072-.043.13-.079.053-.04.118-.083.186-.133s.14-.1.212-.155c.075-.054.143-.1.208-.144.064-.043.125-.08.176-.108a.277.277 0 01.11-.043.08.08 0 01.044.01c.01.008.022.022.032.044a1.573 1.573 0 01-.23.234 7.262 7.262 0 01-.538.389 2.34 2.34 0 00-.248.194c.137.04.266.076.388.115a9.659 9.659 0 00.7.195c.111.025.226.04.338.047 0 .025 0 .047-.004.065a.102.102 0 01-.014.046c-.008.015-.022.022-.04.033a.313.313 0 01-.072.014h-.025a5.999 5.999 0 00-.273-.068c-.107-.026-.226-.047-.348-.076-.122-.025-.248-.05-.373-.08-.126-.028-.24-.053-.345-.082 0 .022.004.054.007.094.004.04.008.086.008.133 0 .047 0 .093-.004.14a.323.323 0 01-.032.123.162.162 0 01-.08.075c-.035.018-.078.015-.136-.003l-.003-1.156zm4.2.551H67c-.014 0-.025 0-.04-.004-.014-.004-.028-.004-.039-.01a.056.056 0 01-.028-.022.077.077 0 01-.011-.044c.082-.104.161-.212.24-.316a17.5 17.5 0 01.226-.303 4.12 4.12 0 01.209-.252.825.825 0 01.183-.166c.053-.036.104-.054.147-.046.043.007.079.04.108.104.028.065.05.162.06.292.011.13.015.299.008.51l.678-.01c0 .007 0 .022-.003.04a.115.115 0 01-.011.05.2.2 0 01-.018.047c-.007.014-.014.022-.025.022l-.571.046a.93.93 0 00-.036.144 2.698 2.698 0 00-.018.18l-.01.188c0 .06-.004.119-.004.169-.015 0-.033.003-.058.007-.025.007-.053.01-.079.014a.264.264 0 01-.075 0c-.022-.003-.036-.014-.04-.036l.019-.604zm0-.883a1.219 1.219 0 01-.162.18c-.065.058-.13.116-.19.177a2.491 2.491 0 00-.165.176.436.436 0 00-.094.188c.097 0 .198-.004.298-.015.1-.01.205-.025.313-.036v-.67zm7.385 1.279a1.818 1.818 0 01-.086-.151c-.036-.069-.072-.144-.112-.227-.04-.083-.079-.17-.125-.256a3.906 3.906 0 00-.13-.248 2.045 2.045 0 00-.125-.195.298.298 0 00-.108-.1 1.01 1.01 0 00-.086.161 5.058 5.058 0 00-.1.235 3.987 3.987 0 00-.105.273c-.036.094-.068.187-.1.277-.032.09-.061.173-.09.249-.029.076-.05.14-.068.187l-.19-.01-.765-1.78c-.01-.021-.01-.039 0-.053a.097.097 0 01.043-.033c.018-.007.036-.014.058-.014.021-.004.035-.004.05-.004a.11.11 0 01.068.018.13.13 0 01.036.05c.01.022.018.044.025.069a.555.555 0 00.025.072l.09.198c.036.076.072.159.108.241.035.083.075.166.115.252l.107.23c.032.07.065.127.09.174a.311.311 0 00.054.082l.219-.54c.06-.147.114-.27.158-.367.043-.097.079-.17.104-.223.025-.054.046-.09.06-.115a.12.12 0 01.037-.044l.014-.007c.025 0 .057.018.093.05a.746.746 0 01.112.134 2.1 2.1 0 01.118.187c.043.072.083.144.126.22.043.075.082.15.118.227.04.075.076.144.108.208.032.065.064.123.09.17a.49.49 0 00.064.1 5.818 5.818 0 00.144-.59c.021-.108.043-.22.06-.331l.058-.328c.018-.108.036-.209.05-.306l.043-.267c.05 0 .09.004.119.015.029.01.047.025.061.043.01.018.018.04.022.065a.67.67 0 01.003.08c0-.008 0 .02-.007.082a5.07 5.07 0 01-.036.252c-.014.108-.036.234-.057.378-.022.144-.05.295-.08.45a9.14 9.14 0 01-.212.925.19.19 0 01-.1.044.103.103 0 01-.068-.022.25.25 0 01-.05-.075l-.05-.112zm.785-.198a.891.891 0 01.039-.389.95.95 0 01.477-.565.78.78 0 01.47-.069.884.884 0 01.363.162.249.249 0 01.072.101.21.21 0 01.01.126.617.617 0 01-.233.097 2.102 2.102 0 01-.269.04c-.093.007-.18.014-.265.018a.806.806 0 00-.227.047.327.327 0 00-.15.115c-.036.054-.047.13-.033.23.026.09.065.159.123.199a.417.417 0 00.197.079.886.886 0 00.237-.011 2.26 2.26 0 00.474-.158c.071-.033.129-.058.175-.076a.073.073 0 01.075.076.586.586 0 01-.186.19 1.297 1.297 0 01-.61.202 1.03 1.03 0 01-.32-.025.664.664 0 01-.261-.13.465.465 0 01-.158-.26zm.865-.85a.676.676 0 00-.23.047.322.322 0 00-.1.065.131.131 0 00-.044.1l.61-.1a.203.203 0 00-.1-.083.31.31 0 00-.136-.029zm.83.85a.89.89 0 01.04-.389.949.949 0 01.477-.565.78.78 0 01.47-.069.88.88 0 01.251.087.504.504 0 01.112.075.249.249 0 01.071.101.21.21 0 01.011.126.617.617 0 01-.233.097 2.107 2.107 0 01-.27.04c-.09.007-.179.014-.265.018a.806.806 0 00-.226.047.327.327 0 00-.151.115c-.036.054-.047.13-.032.23.025.09.064.159.122.199a.417.417 0 00.197.079.886.886 0 00.237-.011 2.26 2.26 0 00.474-.158 3.49 3.49 0 01.176-.076c.021 0 .04.007.054.021a.073.073 0 01.021.054.586.586 0 01-.186.191 1.295 1.295 0 01-.61.202 1.03 1.03 0 01-.32-.025.664.664 0 01-.262-.13.466.466 0 01-.158-.26zm.865-.85a.676.676 0 00-.23.047.322.322 0 00-.1.065.131.131 0 00-.043.1l.61-.1a.203.203 0 00-.1-.083.31.31 0 00-.137-.029zm.914.101c0-.083-.004-.166-.008-.252-.007-.083-.01-.166-.018-.252a6.944 6.944 0 01-.018-.249c-.007-.083-.007-.165-.007-.248 0-.036.007-.061.029-.076a.117.117 0 01.075-.021h.025c.015 0 .022 0 .026.003.021.087.035.177.046.274a8.79 8.79 0 01.043.634c.007.115.018.237.036.363.029-.014.072-.043.13-.079.053-.04.118-.083.186-.133s.14-.101.212-.155c.075-.054.144-.1.208-.144.065-.043.126-.08.176-.108a.276.276 0 01.111-.043c.018 0 .032.003.043.01a.119.119 0 01.033.044 1.572 1.572 0 01-.23.234 7.438 7.438 0 01-.539.389c-.09.06-.172.126-.247.194.136.036.265.076.387.115a9.716 9.716 0 00.7.195c.112.025.227.04.338.047 0 .025 0 .046-.004.064a.104.104 0 01-.014.047c-.007.015-.022.022-.04.033a.315.315 0 01-.071.014h-.025a6.032 6.032 0 00-.273-.068c-.108-.026-.227-.047-.349-.076-.122-.025-.247-.05-.373-.08-.126-.028-.24-.053-.344-.082 0 .022.003.054.007.094.003.04.007.086.007.133 0 .047 0 .093-.004.14a.323.323 0 01-.032.123.161.161 0 01-.079.075c-.036.015-.079.015-.136-.003l-.007-1.156zm3.419 1.052a.17.17 0 01.047-.12.144.144 0 01.111-.054v.054c.05 0 .104 0 .165-.003a1.566 1.566 0 00.38-.055.628.628 0 00.166-.075.386.386 0 00.115-.126.371.371 0 00.043-.187.252.252 0 00-.054-.17.332.332 0 00-.137-.093.666.666 0 00-.175-.04c-.062-.007-.123-.007-.176-.007a.508.508 0 00-.166.026 7.49 7.49 0 00-.154.053l-.154.054a.468.468 0 01-.158.026h-.047c-.018 0-.032-.004-.05-.008a.085.085 0 01-.04-.021c-.01-.01-.014-.025-.014-.047v-.032c.004-.022.007-.058.01-.105l.019-.162.021-.19.022-.192c.007-.06.014-.115.018-.162.003-.046.007-.082.01-.107.008-.026.022-.044.04-.047a.316.316 0 01.061-.008c.04 0 .065.008.08.022a.076.076 0 01.02.058c0 .025 0 .05-.007.079-.007.029-.007.058-.007.083.144 0 .287-.015.431-.047.144-.029.284-.065.424-.1.14-.037.28-.073.423-.102a1.92 1.92 0 01.427-.047c.022 0 .04.004.058.008.018.003.032.021.04.05a.107.107 0 01-.044.061.4.4 0 01-.104.05 2.355 2.355 0 01-.194.051l-.316.069c-.129.028-.287.06-.47.1-.187.04-.402.087-.657.144v.393c.068-.007.144-.018.226-.029a2.896 2.896 0 01.514-.04.652.652 0 01.23.047.394.394 0 01.168.126.419.419 0 01.083.23.52.52 0 01-.05.231.586.586 0 01-.133.18.808.808 0 01-.19.13 1.162 1.162 0 01-.23.086 1.762 1.762 0 01-.474.065.321.321 0 01-.122-.018c-.015-.01-.029-.04-.029-.083zm8.33-.465a1.818 1.818 0 01-.087-.152 5.456 5.456 0 01-.111-.227c-.04-.082-.079-.169-.126-.255a3.933 3.933 0 00-.129-.249 2.066 2.066 0 00-.125-.194.299.299 0 00-.108-.1 1.01 1.01 0 00-.086.161c-.033.069-.065.148-.1.234a3.987 3.987 0 00-.105.274c-.036.093-.068.187-.1.277-.033.09-.061.173-.09.249-.029.075-.05.14-.068.187l-.19-.01-.765-1.78c-.01-.021-.01-.04 0-.054a.098.098 0 01.043-.032.15.15 0 01.057-.014c.022-.004.036-.004.05-.004a.11.11 0 01.069.018.131.131 0 01.036.05c.01.022.018.044.025.069a.555.555 0 00.025.072l.09.198c.036.075.072.158.107.241.036.083.076.166.115.252.04.083.076.158.108.23.032.069.065.127.09.173a.311.311 0 00.053.083l.22-.54c.06-.148.114-.27.157-.367.044-.098.08-.17.105-.224.025-.053.046-.09.06-.115a.12.12 0 01.036-.043l.015-.007c.025 0 .057.018.093.05a.746.746 0 01.111.134c.04.053.08.118.122.187.044.068.083.144.126.22.043.075.083.15.118.226.04.076.076.144.108.21.032.064.065.121.09.168a.49.49 0 00.065.101 5.818 5.818 0 00.143-.59c.022-.108.043-.22.061-.332.018-.111.04-.223.058-.327l.05-.306c.014-.098.029-.188.043-.267.05 0 .09.004.118.015a.12.12 0 01.061.043c.011.018.018.04.022.065s.004.05.004.079c0-.007 0 .021-.008.083a5.07 5.07 0 01-.036.252c-.014.108-.035.234-.057.378s-.05.295-.079.45a9.029 9.029 0 01-.212.925.19.19 0 01-.1.043.103.103 0 01-.068-.021.253.253 0 01-.05-.076c-.015-.032-.037-.072-.055-.111zm.784-.198a.89.89 0 01.04-.39.949.949 0 01.477-.565.78.78 0 01.47-.068.88.88 0 01.363.162.248.248 0 01.072.1.21.21 0 01.01.127.617.617 0 01-.233.097 2.107 2.107 0 01-.269.04c-.09.007-.18.014-.266.018a.81.81 0 00-.226.047.327.327 0 00-.15.115c-.036.054-.047.13-.033.23.025.09.065.159.122.198a.417.417 0 00.198.08.886.886 0 00.237-.011 2.285 2.285 0 00.474-.158c.071-.033.129-.059.175-.077.022 0 .04.008.054.022a.073.073 0 01.022.054.587.587 0 01-.187.191 1.295 1.295 0 01-.61.202 1.03 1.03 0 01-.32-.026.664.664 0 01-.262-.13.465.465 0 01-.158-.258zm.865-.85a.673.673 0 00-.23.047.322.322 0 00-.1.064.131.131 0 00-.043.101l.61-.1a.203.203 0 00-.1-.083.31.31 0 00-.137-.03zm.823.85a.89.89 0 01.04-.39.949.949 0 01.477-.565.78.78 0 01.47-.068.88.88 0 01.362.162.249.249 0 01.072.1.21.21 0 01.011.127.617.617 0 01-.233.097 2.107 2.107 0 01-.27.04c-.093.007-.179.014-.265.018a.81.81 0 00-.226.047.327.327 0 00-.151.115c-.036.054-.047.13-.032.23.025.09.064.159.122.198a.417.417 0 00.197.08.886.886 0 00.237-.011 2.285 2.285 0 00.474-.158c.072-.033.13-.059.176-.077.021 0 .04.008.054.022a.073.073 0 01.021.054.587.587 0 01-.186.191 1.295 1.295 0 01-.61.202 1.03 1.03 0 01-.32-.026.664.664 0 01-.262-.13.466.466 0 01-.158-.258zm.865-.85a.676.676 0 00-.23.047.322.322 0 00-.1.064.131.131 0 00-.043.101l.61-.1a.203.203 0 00-.1-.083.31.31 0 00-.137-.03zm.929.101c0-.083-.003-.166-.007-.252-.007-.083-.01-.166-.018-.253a6.726 6.726 0 01-.018-.248c-.007-.083-.007-.166-.007-.248 0-.037.007-.062.029-.076a.118.118 0 01.075-.022h.025c.014 0 .022 0 .025.004.022.086.036.176.047.274a8.785 8.785 0 01.043.634c.007.114.018.237.036.363.029-.014.072-.043.13-.08.053-.039.118-.082.186-.133.068-.05.14-.1.212-.154.071-.054.143-.101.208-.144a2.95 2.95 0 01.176-.108.276.276 0 01.11-.044.08.08 0 01.044.011.11.11 0 01.032.044 1.572 1.572 0 01-.23.233 7.469 7.469 0 01-.265.202c-.093.065-.183.126-.273.187-.09.062-.172.126-.248.195.137.036.266.075.388.115a9.713 9.713 0 00.7.194c.111.026.226.04.337.047 0 .026 0 .047-.003.065a.102.102 0 01-.014.047c-.008.014-.022.021-.04.032a.314.314 0 01-.072.015h-.025a5.999 5.999 0 00-.273-.069c-.107-.025-.226-.046-.348-.075-.122-.026-.248-.05-.373-.08-.126-.028-.24-.053-.345-.082 0 .021.004.054.007.093.004.04.008.087.008.133 0 .047 0 .094-.004.141a.325.325 0 01-.032.122.162.162 0 01-.08.076c-.035.018-.078.014-.136-.004l-.007-1.155zm3.091.248c0-.08.014-.166.04-.252a1.378 1.378 0 01.28-.5 1.4 1.4 0 01.211-.202.947.947 0 01.24-.137.695.695 0 01.252-.05.16.16 0 01.075.014c.018.01.029.04.025.09a.907.907 0 00-.34.137 1.212 1.212 0 00-.277.248 1.112 1.112 0 00-.248.691.953.953 0 00.083.303.673.673 0 00.09.148c.035.043.071.06.11.06a.94.94 0 00.112-.104c.043-.043.09-.09.144-.14.054-.05.107-.101.168-.151.061-.05.126-.098.194-.137.069-.04.14-.076.216-.101a.744.744 0 01.237-.04c.035 0 .068.008.096.026.029.018.051.04.069.068a.333.333 0 01.057.194.803.803 0 01-.348.58.976.976 0 01-.298.137 1.043 1.043 0 01-.657-.04.826.826 0 01-.466-.457.914.914 0 01-.065-.385zm1.533.079c-.04 0-.087.01-.137.036-.05.022-.1.054-.154.09-.05.036-.104.076-.155.123-.05.046-.1.09-.143.133-.043.043-.086.083-.119.122-.035.04-.06.069-.082.09a.796.796 0 00.262 0c.1-.014.194-.043.287-.083a.769.769 0 00.237-.162.35.35 0 00.108-.237c-.004-.076-.036-.112-.104-.112zm7.02.26a1.744 1.744 0 01-.086-.151 5.836 5.836 0 01-.111-.227c-.04-.083-.079-.17-.123-.255a3.963 3.963 0 00-.129-.249 2.133 2.133 0 00-.125-.194.306.306 0 00-.108-.101c-.025.036-.054.09-.086.162-.033.068-.065.148-.101.234a3.769 3.769 0 00-.104.273c-.036.094-.068.188-.1.278-.033.09-.061.173-.09.248-.029.076-.05.14-.068.188l-.19-.011-.765-1.78c-.011-.02-.011-.039 0-.053a.099.099 0 01.043-.032.172.172 0 01.057-.015c.022-.004.04-.004.051-.004.032 0 .054.008.071.019a.122.122 0 01.036.05c.008.022.018.043.022.068a.513.513 0 00.025.072l.09.198c.036.076.072.159.107.242.04.082.076.165.115.252.04.082.076.158.108.23a1.734 1.734 0 00.144.256c.086-.213.158-.393.219-.54.061-.148.114-.27.157-.368.044-.097.079-.169.105-.223.025-.054.046-.09.061-.115.014-.025.028-.04.036-.043l.014-.008c.025 0 .057.018.093.05a.721.721 0 01.111.134c.04.054.079.119.119.187.043.072.082.144.126.22.043.076.082.151.118.227l.108.209c.032.064.064.122.089.169a.524.524 0 00.065.1c.025-.082.05-.176.075-.276.026-.101.047-.206.072-.314.022-.108.043-.22.061-.331.018-.112.04-.223.058-.328.018-.108.036-.209.05-.306.014-.097.029-.187.043-.266.05 0 .09.003.118.014a.13.13 0 01.061.043c.011.018.018.04.022.065s.004.05.004.08c0-.008 0 .021-.008.082a6.078 6.078 0 01-.035.252c-.015.108-.036.234-.058.378-.021.144-.05.296-.079.45a11.47 11.47 0 01-.097.476c-.036.158-.075.31-.115.45a.188.188 0 01-.1.043.102.102 0 01-.068-.022.263.263 0 01-.051-.075c-.025-.036-.039-.072-.057-.112zm.781-.198a.968.968 0 01.222-.724.927.927 0 01.295-.23.776.776 0 01.47-.068.895.895 0 01.251.086.497.497 0 01.111.076.24.24 0 01.072.1c.018.036.022.08.011.126a.618.618 0 01-.233.098 2.123 2.123 0 01-.27.04c-.093.006-.179.014-.265.017a.805.805 0 00-.226.047.326.326 0 00-.151.115c-.036.054-.047.13-.033.23.026.09.065.16.123.199a.415.415 0 00.197.079.888.888 0 00.237-.01 2.176 2.176 0 00.474-.16c.071-.032.129-.057.176-.075a.07.07 0 01.053.022.071.071 0 01.022.054.59.59 0 01-.187.19 1.221 1.221 0 01-.283.138 1.425 1.425 0 01-.327.064c-.115.008-.219 0-.319-.025a.658.658 0 01-.262-.13.463.463 0 01-.158-.259zm.865-.85a.675.675 0 00-.23.047.322.322 0 00-.101.065.133.133 0 00-.043.1l.611-.1a.206.206 0 00-.101-.083.312.312 0 00-.136-.029zm.838.85a.968.968 0 01.222-.724.927.927 0 01.295-.23.777.777 0 01.47-.068.895.895 0 01.251.086.497.497 0 01.111.076.24.24 0 01.072.1c.018.036.022.08.011.126a.618.618 0 01-.233.098 2.123 2.123 0 01-.27.04c-.093.006-.179.014-.265.017a.805.805 0 00-.226.047.326.326 0 00-.151.115c-.036.054-.047.13-.032.23.025.09.064.16.122.199a.415.415 0 00.197.079.888.888 0 00.237-.01 2.12 2.12 0 00.474-.16 3.59 3.59 0 01.176-.075c.021 0 .039.007.054.022a.074.074 0 01.021.054.58.58 0 01-.187.19 1.202 1.202 0 01-.283.138 1.425 1.425 0 01-.327.064c-.115.008-.219 0-.319-.025a.658.658 0 01-.262-.13.463.463 0 01-.158-.259zm.865-.85a.675.675 0 00-.23.047.317.317 0 00-.1.065.13.13 0 00-.043.1l.61-.1a.201.201 0 00-.101-.083.309.309 0 00-.136-.029zm.906.101c0-.083-.004-.166-.008-.252-.007-.083-.01-.166-.018-.252-.007-.086-.014-.166-.018-.248-.007-.083-.007-.166-.007-.249 0-.036.011-.061.029-.075a.116.116 0 01.075-.022h.026c.014 0 .021 0 .025.003.021.087.036.177.046.274.008.094.018.195.022.303.007.104.014.216.018.33a4.5 4.5 0 00.036.365c.028-.015.071-.044.129-.08.057-.04.118-.082.187-.133.068-.05.14-.1.211-.155.076-.054.144-.1.209-.144.064-.043.125-.079.175-.108a.28.28 0 01.112-.043c.018 0 .032.004.043.01a.111.111 0 01.032.044 1.522 1.522 0 01-.23.234 7.766 7.766 0 01-.265.202c-.09.065-.183.126-.273.187-.09.061-.172.126-.248.195.137.036.266.075.388.115a9.602 9.602 0 00.7.194c.111.025.222.04.337.047 0 .025 0 .047-.003.065a.094.094 0 01-.015.047c-.007.014-.021.021-.039.032-.018.01-.043.01-.072.014h-.025a5.787 5.787 0 00-.273-.068c-.108-.025-.226-.047-.348-.076-.122-.025-.248-.05-.373-.079-.126-.029-.241-.054-.345-.083 0 .022.004.054.007.094.004.04.007.086.007.133 0 .047 0 .094-.003.14a.35.35 0 01-.032.123.166.166 0 01-.079.076c-.036.018-.079.014-.137-.004l-.003-1.156zm4.438-.32a4.93 4.93 0 00-.326.01 9.947 9.947 0 01-.327.019c-.108.007-.219.01-.327.014-.107.004-.219 0-.33-.004a.114.114 0 01-.043-.032.078.078 0 01-.011-.043c0-.018.004-.033.011-.044a.114.114 0 01.043-.032c.144.004.287 0 .427-.014.14-.015.284-.033.424-.054.14-.022.28-.044.42-.062.14-.018.28-.028.416-.028.033 0 .058.01.076.028.018.018.025.044.021.08-.09.1-.183.216-.273.338a2.491 2.491 0 00-.233.393 1.947 1.947 0 00-.147.425 1.05 1.05 0 00-.007.435l-.255.05c0-.007 0-.017-.004-.035l-.003-.054c0-.018 0-.036-.004-.054v-.036a.924.924 0 01.022-.245c.018-.083.043-.162.071-.238a5.798 5.798 0 01.209-.44c.035-.068.064-.132.093-.194.025-.072.047-.13.057-.183zm7.143.907a1.744 1.744 0 01-.086-.151c-.036-.069-.072-.144-.112-.227-.039-.083-.079-.17-.122-.256a3.908 3.908 0 00-.129-.248 2.133 2.133 0 00-.125-.195.305.305 0 00-.108-.1 1.03 1.03 0 00-.086.162c-.033.068-.065.147-.101.233a3.772 3.772 0 00-.104.274c-.036.094-.068.187-.1.277-.033.09-.061.173-.09.249-.029.075-.05.14-.068.187l-.191-.01-.764-1.78c-.011-.021-.011-.04 0-.053a.099.099 0 01.043-.033.166.166 0 01.057-.014c.022-.004.04-.004.051-.004a.13.13 0 01.071.018.122.122 0 01.036.05c.008.022.018.044.022.069a.513.513 0 00.025.072l.09.198c.036.076.072.158.107.241.04.083.076.166.115.252.04.083.076.159.108.23a1.72 1.72 0 00.144.256c.086-.212.157-.392.218-.54.062-.147.115-.27.158-.367.044-.097.079-.17.105-.223.025-.054.046-.09.061-.115a.118.118 0 01.035-.044l.015-.007c.025 0 .057.018.093.05a.721.721 0 01.111.134c.04.054.079.119.122.187.044.072.083.144.126.22.043.075.083.15.119.226l.107.21.09.169a.48.48 0 00.065.1c.025-.082.05-.176.075-.277.025-.1.047-.205.072-.313.021-.108.043-.22.061-.331.018-.112.039-.224.057-.328.018-.108.036-.209.05-.306.015-.097.029-.187.044-.267.05 0 .089.004.118.015a.13.13 0 01.061.043c.011.018.018.04.022.065a.67.67 0 01.003.08c0-.008 0 .02-.007.082a4.958 4.958 0 01-.036.252c-.014.108-.036.234-.057.378-.022.144-.051.295-.079.45a9.732 9.732 0 01-.212.925.194.194 0 01-.101.044.104.104 0 01-.068-.022.243.243 0 01-.05-.076.365.365 0 01-.061-.111zm.773-.198a.967.967 0 01.222-.724.927.927 0 01.295-.23.777.777 0 01.47-.069.895.895 0 01.251.087.497.497 0 01.111.075.24.24 0 01.072.101c.018.036.022.08.011.126a.619.619 0 01-.233.097 2.123 2.123 0 01-.27.04 6.94 6.94 0 01-.265.018.805.805 0 00-.226.047.326.326 0 00-.151.115c-.036.054-.047.13-.032.23.025.09.064.159.122.198a.415.415 0 00.197.08.888.888 0 00.237-.011 2.12 2.12 0 00.474-.159 3.59 3.59 0 01.176-.075c.021 0 .039.007.054.021a.074.074 0 01.021.054.58.58 0 01-.187.191 1.2 1.2 0 01-.283.137 1.425 1.425 0 01-.327.065c-.115.007-.219 0-.319-.025a.658.658 0 01-.262-.13.486.486 0 01-.158-.26zm.865-.85a.675.675 0 00-.23.047.317.317 0 00-.1.065.13.13 0 00-.043.1l.61-.1a.201.201 0 00-.101-.083.307.307 0 00-.136-.029zm.838.85a.967.967 0 01.222-.724.927.927 0 01.295-.23.78.78 0 01.47-.069.895.895 0 01.251.087.528.528 0 01.112.075.246.246 0 01.071.101c.018.036.022.08.011.126a.619.619 0 01-.233.097 2.107 2.107 0 01-.269.04c-.094.007-.18.014-.266.018a.805.805 0 00-.226.047.326.326 0 00-.151.115c-.036.054-.047.13-.032.23.025.09.064.159.122.198a.415.415 0 00.197.08.884.884 0 00.237-.011 2.12 2.12 0 00.474-.159 3.59 3.59 0 01.176-.075c.021 0 .039.007.054.021a.074.074 0 01.021.054.586.586 0 01-.186.191 1.228 1.228 0 01-.284.137 1.415 1.415 0 01-.327.065c-.115.007-.219 0-.319-.025a.658.658 0 01-.262-.13.486.486 0 01-.158-.26zm.865-.85a.675.675 0 00-.23.047.317.317 0 00-.1.065.13.13 0 00-.043.1l.61-.1a.201.201 0 00-.101-.083.305.305 0 00-.136-.029zm.921.101c0-.083-.003-.166-.007-.252-.007-.083-.011-.166-.018-.252-.007-.087-.014-.166-.018-.249-.007-.083-.007-.165-.007-.248 0-.036.011-.061.029-.076a.117.117 0 01.075-.021h.025c.015 0 .022 0 .025.003.022.087.036.177.047.274.007.094.018.194.022.302.007.105.014.216.018.332.007.115.018.237.035.363.029-.014.072-.043.13-.079.057-.04.118-.083.186-.133.069-.05.14-.101.212-.155.075-.054.144-.1.208-.144a3.14 3.14 0 01.176-.108.277.277 0 01.111-.043.08.08 0 01.044.01.13.13 0 01.032.044 1.565 1.565 0 01-.23.234 7.027 7.027 0 01-.266.201c-.089.065-.183.127-.272.188a2.22 2.22 0 00-.248.194c.136.036.266.076.388.115a9.607 9.607 0 00.7.195c.111.025.222.04.337.047 0 .025 0 .046-.004.064a.104.104 0 01-.014.047c-.007.015-.021.022-.039.033a.314.314 0 01-.072.014h-.025a6.118 6.118 0 00-.273-.068c-.108-.026-.226-.047-.348-.076-.122-.025-.248-.05-.374-.08-.125-.028-.24-.053-.344-.082 0 .022.003.054.007.094s.007.086.007.133c0 .047 0 .093-.003.14a.331.331 0 01-.033.123.161.161 0 01-.079.075c-.036.018-.079.015-.136-.003l-.004-1.156zm3.098.694c0-.054.015-.104.047-.15a.972.972 0 01.108-.141l.108-.13a.184.184 0 00.046-.111.122.122 0 00-.018-.065.65.65 0 00-.039-.058c-.015-.018-.025-.036-.04-.058a.162.162 0 01-.018-.072c0-.075.018-.14.051-.198a.573.573 0 01.129-.154 1.162 1.162 0 01.398-.187c.072-.019.144-.033.212-.044.068-.007.133-.014.187-.014.057 0 .115 0 .183.003a.759.759 0 01.183.033.312.312 0 01.14.086c.039.04.057.097.057.173 0 .068-.018.13-.05.184a.84.84 0 01-.108.144.98.98 0 01.144.068.306.306 0 01.097.08.26.26 0 01.054.107.672.672 0 01-.033.41.707.707 0 01-.136.206.852.852 0 01-.198.158 1.178 1.178 0 01-.236.112 1.573 1.573 0 01-.507.087c-.05 0-.1-.004-.157-.008a1.244 1.244 0 01-.334-.083.502.502 0 01-.237-.205.565.565 0 01-.033-.173zm.248-.036c0 .076.022.14.061.184.04.047.09.08.151.104.061.026.126.04.194.047.068.007.136.011.194.011.107 0 .211-.014.312-.043.1-.029.19-.069.269-.126a.596.596 0 00.262-.508.29.29 0 00-.154-.184.65.65 0 00-.273-.064 1.2 1.2 0 00-.33.036 1.47 1.47 0 00-.32.119.95.95 0 00-.251.187.414.414 0 00-.115.237zm.205-.817c0 .061.018.108.057.14a.23.23 0 00.151.047c.036.004.083 0 .14-.01a2.278 2.278 0 00.38-.109c.065-.025.13-.054.183-.082a.952.952 0 00.144-.09.197.197 0 00.072-.09.179.179 0 00-.025-.098c-.015-.029-.043-.043-.079-.043a.656.656 0 00-.158-.047 1.193 1.193 0 00-.427.01.717.717 0 00-.205.07.588.588 0 00-.158.118.424.424 0 00-.075.184z" fill="#1A1A1A"/><path d="M8.898 35.517s15.478-.568 33.228 0c17.75.57 44.743.206 59.151-.252 14.408-.457 31.835-.6 31.835-.6M8.898 45.916s112.39-1.138 124.214-1.138M23.234 34.664s1.562 63.103 0 75.497M38.72 34.664s-.566 69.466 0 74.334" stroke="#1A1A1A" stroke-miterlimit="10" stroke-linecap="round" stroke-linejoin="round"/><path d="M54.906 34.664s.567 13.676.711 25.782c.144 12.105-.71 47.976 0 51.98m16.336-77.19s-.865 41.593-.506 55.837c.358 14.245.506 21.936.506 21.936M86.86 34.664s1.42 49.446 1.277 60.05c-.143 10.604.011 16.524.011 16.524m14.901-77.308s-.089 29.148.826 37.271c.915 8.123-.417 41.809-.417 41.809m15.495-79.08s.61 14.914.704 23.25c.093 8.335-.284 50.861.71 54.058" stroke="#1A1A1A" stroke-miterlimit="10" stroke-linecap="round" stroke-linejoin="round"/><path d="M8.898 54.749s23.36-.428 38.164 0c0 0-.036 3.99 0 5.556 0 0-34.445-.284-38.164 0 0 0 .284-4.559 0-5.556z" fill="#fff" stroke="#1A1A1A" stroke-miterlimit="10" stroke-linecap="round" stroke-linejoin="round"/><path d="M87.39 54.559v5.746s29.147-.284 32.27-.853l-.057-5.556c-.004-.004-21.878-.241-32.212.663zm-48.921 7.313h33.188l-.208 5.308s-13.985.32-21.508.496c-7.527.177-11.217.425-11.217.425l-.255-6.229zm81.898-1.567l.137 3.99s10.327-.713 11.838-.57v-3.989c0-.003-9.136-.144-11.975.57z" fill="#A4CE2D" stroke="#1A1A1A" stroke-miterlimit="10" stroke-linecap="round" stroke-linejoin="round"/><path d="M71.663 74.557s28.36-.662 32.219-1.973v7.936s-27.711.112-32.517.987c0 0-.28-5.376.298-6.95z" fill="#F9FFE8" stroke="#1A1A1A" stroke-width="1.5" stroke-miterlimit="10" stroke-linecap="round" stroke-linejoin="round"/><path d="M73.602 74.507s-2.71 4.195-2.161 4.732c.549.536 3.306-4.548 4.145-4.681.844-.134-2.936 6.992-2.555 7.244.377.252 5.118-7.536 6.25-7.522 1.13.015-2.503 6.777-1.781 6.745.725-.033 4.063-6.626 5.28-6.745 1.22-.122-2.829 6.644-1.892 6.615.937-.029 4.695-7.23 5.47-6.834.776.396-3.858 6.269-2.63 6.751 1.227.483 4.364-6.298 5.868-6.64 1.504-.342-3.478 6.176-2.02 6.349 1.453.172 3.632-6.795 4.766-6.24 1.134.554-2.082 4.421-1.608 4.673.474.252 1.989-4.66 3.503-4.674 1.515-.014-1.798 4.422-1.421 4.959.377.536 1.899-1.311 1.899-1.311M10.317 54.724s-1.206 2.874-.922 3.014c.283.144 1.421-2.848 2.555-2.708 1.135.144-2.031 5.221-1.299 5.207.729-.014 3.216-5.823 3.999-5.513.782.31-1.849 4.829-1.35 5.153.499.32 2.983-5.484 3.762-5.164.782.32-2.2 4.951-1.422 4.951.783 0 3.339-5.048 4.117-5.051.78-.008-2.415 4.396-1.633 4.983.783.587 2.7-5.549 3.834-4.983 1.134.565-1.705 4.68-.85 5.123.85.443 3.05-5.476 3.76-5.16.712.317-2.12 5.607-1.632 5.607.488 0 3.618-6.089 4.329-5.617.71.471-2.628 5.62-1.989 5.62s3.977-6.243 4.828-5.934c.85.31-2.2 4.843-1.421 5.128.782.284 2.627-3.205 2.982-3.205.356 0-1.242 3.205-.8 3.205.445 0 2.15-5.35 3-4.814.851.54-.994 3.532-.57 3.672.424.141 3.123-3.845 3.905-3.276.783.569-3.054 5.257-1.845 5.264 1.206.007 3.267-5.192 4.261-5.124.994.072-1.989 4.63-1.206 4.703.782.072 2.344-5.128 3.195-4.843.85.284-1.206 3.917-.64 4.13.568.212 1.774-3.633 2.768-3.561.994.072-1.845 3.705-.639 3.845 1.206.144 1.633-4.058 2.84-3.917 1.206.144-1.526 3.853-.873 4.346.657.49 1.673-1.85 1.673-1.85" stroke="#A4CE2D" stroke-miterlimit="10" stroke-linecap="round" stroke-linejoin="round"/><path d="M9.328 63.507c.553-.234 1.106-.472 1.659-.706a4.739 4.739 0 01-.33 1.591c.477-.1.871-.522.94-1.008l-.183.584c.517-.004 1.03-.008 1.547-.015a.406.406 0 01.176-.457c-.166.147-.065.45.132.55.198.101.438.062.654.008a6.452 6.452 0 001.565-.62c-.115.343.133.72.456.876.323.158.696.147 1.055.136l4.641-.147M8.938 66.751s.638-.828 1.206-.735c.567.094.211 1.02.427 1.163.212.144.567-1.897.922-1.163.356.735.923 1.17.923 1.17s.782-.824.994-.666c.212.159.639 0 .639 0h6.601" stroke="#1A1A1A" stroke-miterlimit="10" stroke-linecap="round" stroke-linejoin="round"/><path d="M29.777 62.805s-5.338 17.47 39.333 15.58m0-1.257l1.137 1.397-1.138.713" stroke="#1A1A1A" stroke-width="1.5" stroke-miterlimit="10" stroke-linecap="round" stroke-linejoin="round"/><path d="M42.407 78.95c-3.694-1.71-10.384-.55-15.356 2.582-4.971 3.133-5.987 13.388 12.2 10.399 18.189-2.992 6.688-11.41.317-11.41" fill="#F9FFE8"/><path d="M42.407 78.95c-3.694-1.71-10.384-.55-15.356 2.582-4.971 3.133-5.987 13.388 12.2 10.399 18.189-2.992 6.688-11.41.317-11.41" stroke="#A4CE2D" stroke-miterlimit="10" stroke-linecap="round" stroke-linejoin="round"/><path d="M27.977 84.506s1.112-1.011 1.593-1.07c.481-.057-.908.933 0 1.081.908.148.732-.37 1.601-.54.869-.17 1.152.807 1.152.807s1.422-.49 2.273-.731c.85-.245.283 1.137 1.421.73 1.134-.403.632-1.058 2.444-.73 1.813.327 5.327.122 6.91.01m-15.793 3.464c.341-.871-.086-1.037.908-.598.994.44 1.562 1.04 1.989.598.427-.443.994-.519 1.421-.338.427.18-.567.464.427.18.995-.285 1.562-.836 1.562-.836s-.248.605.797 1.149c1.048.54 1.787-.573 1.787-.573s2.95-.111 4.796.076" stroke="#A4CE2D" stroke-miterlimit="10" stroke-linecap="round" stroke-linejoin="round"/><path d="M39.39 130.682l3.798-4.173v-1.087l2.908-2.651s3.539 1.228 5.23 5.553l-3.073 2.6-1.174.151-4.533 3.233c-.004.004-3.155-1.083-3.155-3.626z" fill="#1A1A1A"/><path opacity=".3" d="M46.203 123.578s1.296 3.871 4.641 4.656m-7.054-1.664s1.173 3.115 3.675 4.112" stroke="#fff" stroke-miterlimit="10" stroke-linecap="round" stroke-linejoin="round"/><path opacity=".2" d="M88.142 17.784l1.512-1.732h3.51s1.379-.26 2.646-1.152c0 0-1.336-1.365-2.944-1.412h-3.03l-8.094-1.473-45.069 4.033s-1.134 2.805.808 5.51l50.661-3.774zm20.275 3.774l1.206-1.04 3.927-.044c.427-1.937.086-3.863.086-3.863l-10.728-3.738c-2.754 1.725-1.637 8.689-1.637 8.689h7.146v-.004z" fill="#000" fill-opacity=".7"/><path d="M92.672 9.474s1.892-.238 2.983.64c0 0-.144 1.117-2.983 1.401V9.474z" fill="#A4CE2D" stroke="#1A1A1A" stroke-miterlimit="10" stroke-linecap="round" stroke-linejoin="round"/><path d="M89.192 8.977l-2.466-1.678-50.099 4.04c-2.2 3.572.546 7.104.546 7.104l50.41-4.195 1.77-1.739 3.496-.605s.316-.558.316-1.411c0-.998-.47-1.487-.47-1.487l-3.503-.03z" fill="#1A1A1A"/><path d="M53.172 10.482l22.34-1.837a.73.73 0 01-.61 1.005l-20.944 1.8a.725.725 0 01-.786-.723v-.245z" fill="#A4CE2D"/><path opacity=".3" d="M86.68 8.073s1.608 1.804.473 5.412m2.207-4.04s.462 1.037.211 2.283M37 12.016s1.705 1.494.567 5.768" stroke="#fff" stroke-miterlimit="10" stroke-linecap="round" stroke-linejoin="round"/><path opacity=".3" d="M37.969 11.731s.542.072.753 2.776l47.967-4.46s-.061-1.11-.984-2.37L37.97 11.73zM89.836 9.28s.355.5.38 1.31l2.65-.26s-.119-.777-.33-1.05h-2.7z" fill="#fff"/><path d="M112.624 18.717l-5.46-1.386-.955.515-3.701-1.322s-.592-3.712 2.409-7.245l3.737 1.491.689.969 4.982 2.48s.531 3.299-1.701 4.498z" fill="#A4CE2D"/><path opacity=".3" d="M112.619 18.717l-5.459-1.386-.959.515-3.7-1.322s-.593-3.712 2.408-7.245c.553.22 1.705 2.877-.721 6.392l2.211.853s.915-.392 1.54-1.271a3.05 3.05 0 00.488-1.073c.003 0 .003-.004.003-.004.011.072.13.918-.186 1.873l4.451 1.426s1.069.133 1.622-3.255c0 0 .531 3.298-1.698 4.497z" fill="#000" fill-opacity=".7"/><path d="M112.624 18.717l-5.46-1.386-.955.515-3.701-1.322s-.592-3.712 2.409-7.245l3.737 1.491.689.969 4.982 2.48s.531 3.299-1.701 4.498zm-9.468-2.668s2.789-2.975 1.899-6.302m1.867 7.021s2.182-2.51 1.877-5.192" stroke="#1A1A1A" stroke-miterlimit="10" stroke-linecap="round" stroke-linejoin="round"/><path opacity=".3" d="M131.067 95.06l-1.174 23.953c-6.271-.097-15.234-.22-24.739-.274h-.003c-2.247-1.973-4.473-12.376-5.327-15.605-.855-3.23.904-13.104.904-13.104s-1.374-1.332-1.658-2.246c-.283-.915.754-2.28.754-2.28l-.564-3.133-1.138-.864-1.04-1.285c-2.362-.983-2.84-2.305-2.84-2.305l9.99-2.286 26.835 19.43z" fill="#000" fill-opacity=".7"/><path d="M116.903 153s-3.848-32.266-5.837-37.721c-1.988-5.459-4.598-23.502-4.598-23.502s6.045-.487 7.875-.505c1.831-.018 4.196-1.775 4.196-1.775-.201.364-.656.14-.994-2.067-.226-1.472-2.462-1.922-2.462-1.922s-5.366.403-9.893-.206c0 0-1.723.602-3.37 0-1.648-.601-1.982-1.246-1.081-2.12 0 0-1.278-1.682 3.102-4.07 0 0-2.911-2.624-1.49-4.335 1.421-1.71 4.781-3.37 4.781-3.37s.144-1.282.758-1.613c.613-.331 3.977-1.71 5.822-2.992 1.845-1.282 2.649-1.189 6.059-1.282 3.406-.094 7.573-.95 9.135-.238 1.213.555 1.78 2.726 1.78 2.726 1.131.374 1.246 2.218 1.321 2.675.33 2.042 2.674 10.504 3.715 11.976 1.041 1.473 1.659 4.037 1.468 5.365-.19 1.33-.664 2.895-1.134 5.603-.474 2.708-2.082 12.11-2.886 14.814-.804 2.708-1.231 7.407-.804 9.686l11.964 28.561" fill="#fff"/><path opacity=".4" d="M129.646 76.851s-2.265 1.372-2.265 2.244c0 0-4.303 3.287-4.802 7.158 0 0-2.387 2.427-2.911 3.529-.524 1.102-2.8 2.394-2.8 2.394s-.75-.086-1.935-.072c-.341.004-1.604-.288-3.238-.71 1.081-.068 2.068-.122 2.639-.125 1.518-.015 3.402-1.224 4.002-1.639-.23-.014-.549-.554-.801-2.203-.226-1.473-2.462-1.923-2.462-1.923s-5.366.403-9.893-.205c0 0-1.048.367-2.293.237a2.143 2.143 0 00-.546-1.573s2.079-1.386 1.537-2.456c-.259-.511-1.189-.828-2.097-1.019.481-.425 1.145-.886 2.05-1.379 0 0-2.911-2.625-1.49-4.335 1.422-1.71 4.781-3.374 4.781-3.374s.14-1.279.758-1.613c0 0-.377 1.976 2.365 1.804 2.746-.177 6.648-1.804 6.648-1.804s7.394.205 8.895-.937c0 0 1.78 1.538 3.108 1.815 1.325.277.75 6.186.75 6.186zm7.544 11.169c-.191 1.33-.664 2.896-1.138 5.604-.474 2.708-2.082 12.109-2.886 14.813-.808 2.708-1.231 7.407-.808 9.686l1.005 2.406c-2.178-3.875-2.006-8.959-1.83-10.295.211-1.638 1.418-7.695 2.516-10.827 1.098-3.133 1.174-9.686 1.174-9.913 0-.227-.567 1.436-1.145 3.287-.578 1.854-2.689 7.054-2.689 7.054-.072-1.07.815-7.4.976-8.12.162-.72 1.461-5.577 1.684-6.931.219-1.354-.847-2.866-1.116-3.979-.27-1.109-1.332-5.898-1.616-9.214-.258-3.072-1.184-4.948-1.317-5.207.463.77.682 1.62.682 1.62 1.134.371 1.249 2.218 1.321 2.676.334 2.041 2.678 10.503 3.719 11.976 1.041 1.472 1.654 4.036 1.468 5.365zm-21 59.248c-1.166-9.204-3.5-26.721-4.971-31.525 1.016 1.239 2.171 3.248 2.983 7.097 1.633 7.764 2.132 11.181 2.2 14.742.047 2.276.014 6.47-.212 9.686z" fill="#A4CE2D"/><path d="M116.903 153s-3.848-32.266-5.837-37.721c-1.988-5.459-4.598-23.502-4.598-23.502s6.045-.487 7.875-.505c1.831-.018 4.196-1.775 4.196-1.775-.201.364-.656.14-.994-2.067-.226-1.472-2.462-1.922-2.462-1.922s-5.366.403-9.893-.206c0 0-1.723.602-3.37 0-1.648-.601-1.982-1.246-1.081-2.12 0 0-1.278-1.682 3.102-4.07 0 0-2.911-2.624-1.49-4.335 1.421-1.71 4.781-3.37 4.781-3.37s.144-1.282.758-1.613c.613-.331 3.977-1.71 5.822-2.992 1.845-1.282 2.649-1.189 6.059-1.282 3.406-.094 7.573-.95 9.135-.238 1.213.555 1.78 2.726 1.78 2.726 1.131.374 1.246 2.218 1.321 2.675.33 2.042 2.674 10.504 3.715 11.976 1.041 1.473 1.659 4.037 1.468 5.365-.19 1.33-.664 2.895-1.134 5.603-.474 2.708-2.082 12.11-2.886 14.814-.804 2.708-1.231 7.407-.804 9.686l11.964 28.561" stroke="#1A1A1A" stroke-miterlimit="10" stroke-linecap="round" stroke-linejoin="round"/><path d="M100.734 83.177s.948 1.282 4.214.76c3.267-.522 7.172-3.799 7.172-3.799l2.344-.997s2.983.331 4.071-.19m-1.66.287s1.945 2.089 3.507 2.564m-1.851 7.691c1.325-.853 3.076-3.23 4.688-3.417" stroke="#1A1A1A" stroke-miterlimit="10" stroke-linecap="round" stroke-linejoin="round"/><path d="M118.25 86.595c.711-2.38 2.886-4.796 2.886-4.796s.33-.854 1.324-2.233c.995-1.379 2.273-1.566 2.273-1.566s-1.881-5.34-1.325-6.413m-8.33 13.917s1.461-.461 1.795-1.44m-2.125-.555s-.089 1.52-2.365 1.995m2.07-6.362s1.131-.753 1.511-1.516m-8.836-6.226s-.405 1.141 1.289 1.613c1.694.475 6.239-.047 8.13-1.613 0 0 .467-1.329.327-2.182" stroke="#1A1A1A" stroke-miterlimit="10" stroke-linecap="round" stroke-linejoin="round"/><path d="M116.297 71.59s5.549-.187 5.976-.187c.427 0 2.129-.9 2.463-1.85m-.002 8.451s1.25.428 2.115.245m-4.887 8.346s-.201-2.107 1.267-5.088m7.459-13.503c.753 2.938 1.913 12.595 2.695 14.432.783 1.836.876 2.452.309 4.162s-1.483 5.84-1.483 5.84m.151 25.685c-.614-1.948-.994-4.511-.758-5.696" stroke="#1A1A1A" stroke-miterlimit="10" stroke-linecap="round" stroke-linejoin="round"/><path d="M96.346 76.769s-1.569.295-2.104 1.148c0 0 .463.731 2.362.526 1.899-.205-.258-1.674-.258-1.674z" fill="#1A1A1A"/><path d="M101.954 73.794l44.398-6.608.567 7.947-44.588 4.437-2.082-.944-3.41.087s-1.095-.904-.338-2.326l3.511-.757 1.942-1.836z" fill="#A4CE2D"/><path d="M109.581 74.208l18.299-2.603c.776-.112 1.49.45 1.569 1.231l.036.368a1.384 1.384 0 01-1.21 1.515l-18.335 2.237a1.384 1.384 0 01-1.543-1.243 1.388 1.388 0 011.184-1.505z" fill="#1A1A1A"/><path opacity=".3" d="M146.917 75.13l-44.588 4.44-2.082-.943-3.41.086s-.255-.209-.43-.587l3.578-.122 1.579.144 6.207-.522 1.816-3.418s1.594-.201 2.871 1.423c1.278 1.624 1.989 1.415 1.989 1.415l30.543-3.205.366-.37s-1.231-2.802 0-5.089c.309-.572.664-.803 1.023-.799l.538 7.547z" fill="#000" fill-opacity=".7"/><path d="M101.954 73.794l44.398-6.608.567 7.947-44.588 4.437-2.082-.944-3.41.087s-1.095-.904-.338-2.326l3.511-.757 1.942-1.836z" stroke="#1A1A1A" stroke-miterlimit="10" stroke-linecap="round" stroke-linejoin="round"/><path d="M146.351 67.183c3.076-.245 3.74 7.63.567 7.947-3.033.303-3.686-7.695-.567-7.947z" fill="#A4CE2D"/><path opacity=".3" d="M146.913 75.13c-.829.083-1.482-.457-1.927-1.289l.366-.37s-1.231-2.802 0-5.089c.309-.572.664-.802 1.023-.799 1.073.011 2.175 2.089 2.128 3.216l.467.115c.162 1.987-.463 4.058-2.057 4.216z" fill="#000" fill-opacity=".7"/><path d="M146.351 67.183c3.076-.245 3.74 7.63.567 7.947-3.033.303-3.686-7.695-.567-7.947zm-44.389 6.611s-.88 1.109-.639 3.212c.19 1.663 1.019 2.564 1.019 2.564m-2.317-3.94s-.571 1.506.233 2.996m44.728-3.301c-3.033.302-3.618-7.35-.531-7.857" stroke="#1A1A1A" stroke-miterlimit="10" stroke-linecap="round" stroke-linejoin="round"/><path d="M146.425 67.68c2.433-.213 2.957 6.596.448 6.866-2.401.263-2.918-6.65-.448-6.866z" stroke="#1A1A1A" stroke-miterlimit="10" stroke-linecap="round" stroke-linejoin="round"/><path d="M146.43 68.166s1.27.472 1.497 2.787c.226 2.315-1.081 3.032-1.081 3.032" stroke="#1A1A1A" stroke-miterlimit="10" stroke-linecap="round" stroke-linejoin="round"/><path d="M118.526 92.104s-3.219.19-3.596 0c-.381-.191-2.366-3.99-2.463-5.174-.093-1.185-.283-4.988-.377-7.36-.093-2.373-.093-6.079-4.544-5.29-1.988.353-2.319 2.24-2.983 6.478-.664 4.234-.046 5.365-.52 10.777-.474 5.412.093 7.565 1.231 10.287 1.134 2.722 1.558 9.654 4.587 12.218 3.03 2.563 4.222 7.504 4.222 7.504" fill="#fff"/><path opacity=".4" d="M110.608 78.482c-.815.198-3.941.342-4.153 1.408-.212 1.07 1.655 1.541 2.426 2.48-.028 0-3.234.004-3.941 1.567-.711 1.57.592 4.93.592 6.78 0 1.851-1.608 5.556-.376 7.48 1.069 1.677 2.074 5.541 1.554 9.21-.542-2.196-.916-4.335-1.436-5.585-1.138-2.722-1.705-4.875-1.231-10.287.474-5.416-.144-6.543.52-10.78.474-3.043.779-4.876 1.655-5.798 0 0 0-.004.004-.004 1.023-.223 2.178-.31 2.878.188 1.472 1.047 2.326 3.14 1.508 3.341z" fill="#A4CE2D"/><path d="M118.526 92.104s-3.219.19-3.596 0c-.381-.191-2.366-3.99-2.463-5.174-.093-1.185-.283-4.988-.377-7.36-.093-2.373-.093-6.079-4.544-5.29-1.988.353-2.319 2.24-2.983 6.478-.664 4.234-.046 5.365-.52 10.777-.474 5.412.093 7.565 1.231 10.287 1.134 2.722 1.558 9.654 4.587 12.218 3.03 2.563 4.222 7.504 4.222 7.504" stroke="#1A1A1A" stroke-miterlimit="10" stroke-linecap="round" stroke-linejoin="round"/><path d="M112.468 86.93s-.305-.098-.485-1.949c-.179-1.85-1.741-2.61-1.741-2.61m-4.163 0s-1.321.284-1.845 2.135" stroke="#1A1A1A" stroke-miterlimit="10" stroke-linecap="round" stroke-linejoin="round"/></svg>