<svg width="147" height="157" fill="none" xmlns="http://www.w3.org/2000/svg"><path d="M54.346 1.26c-11.589 1.918-22.7 6.132-32.139 13.422C8.476 25.285.861 41.138.065 58.38-.458 69.761 2.252 80.858 5.53 91.665c4.213 13.901 6.934 29.736 15.734 41.617 13.701 18.495 40.187 26.288 62.333 22.977 14.31-2.14 29.429-10.282 33.83-24.994 1.631-5.447 2.424-11.302 5.209-16.335 3.339-6.033 9.391-9.556 13.988-14.469 5.677-6.067 7.966-13.627 9.381-21.625 3.096-17.5-1.131-36.043-11.339-50.56C124.017 13.125 108.214 5 90.272 1.799A115.285 115.285 0 0084.339.9c-9.853-1.236-20.1-1.277-29.993.36z" fill="#A4CE2D"/><path opacity=".7" d="M54.346 1.26c-11.589 1.918-22.7 6.132-32.139 13.422C8.476 25.285.861 41.138.065 58.38-.458 69.761 2.252 80.858 5.53 91.665c4.213 13.901 6.934 29.736 15.734 41.617 13.701 18.495 40.187 26.288 62.333 22.977 14.31-2.14 29.429-10.282 33.83-24.994 1.631-5.447 2.424-11.302 5.209-16.335 3.339-6.033 9.391-9.556 13.988-14.469 5.677-6.067 7.966-13.627 9.381-21.625 3.096-17.5-1.131-36.043-11.339-50.56C124.017 13.125 108.214 5 90.272 1.799A115.285 115.285 0 0084.339.9c-9.853-1.236-20.1-1.277-29.993.36z" fill="#A4CE2D"/><path opacity=".2" d="M56.86 123.92l28.598-5.345s6.472 20.461 7.778 23.108l-.69 1.606.43 2.687-28.413 6.478-2.28-1.801-5.424-26.733z" fill="#1A1A1A" fill-opacity=".7"/><path d="M83.394 116.382l-27.66 6.561 6.55 27.71 27.658-6.56-6.548-27.711z" fill="#A4CE2D"/><path opacity=".2" d="M85.16 123.859l4.59 19.417-26.376 6.255c-3.178-7.967-5.608-17.999-5.608-17.999l27.395-7.673z" fill="#1A1A1A" fill-opacity=".7"/><path d="M83.394 116.382l-27.66 6.561 6.55 27.71 27.658-6.56-6.548-27.711z" stroke="#1A1A1A" stroke-width=".594" stroke-miterlimit="10" stroke-linecap="round" stroke-linejoin="round"/><path d="M90.81 142.326c-6.91 1.64-16.702 3.181-22.607 4.051-3.09.452-5.12.719-5.12.719-2.618-4.807-7.34-24.152-7.34-24.152l27.657-6.56.154.705c3.298 14.976 7.256 25.237 7.256 25.237z" fill="#fff"/><path opacity=".4" d="M90.81 142.326c-6.91 1.64-16.701 3.181-22.607 4.051-4.436-2.955-5.506-5.852-5.451-8.615.061-3.283 14.323-.075 17.303-3.324 2.126-2.318 2.064-12.159 3.5-17.349 3.298 14.976 7.255 25.237 7.255 25.237z" fill="#A4CE2D"/><path d="M90.81 142.326c-6.91 1.64-16.702 3.181-22.607 4.051-3.09.452-5.12.719-5.12.719-2.618-4.807-7.34-24.152-7.34-24.152l27.657-6.56.154.705c3.298 14.976 7.256 25.237 7.256 25.237z" stroke="#1A1A1A" stroke-width=".594" stroke-miterlimit="10" stroke-linecap="round" stroke-linejoin="round"/><path d="M60.406 127.135a4.968 4.968 0 011.33-1.086c.136.353.273.702.41 1.055.478-.175.957-.349 1.432-.521.478-.174 1.008-.397 1.192-.873.264.627 1.17.521 1.815.312a99.79 99.79 0 0113.67-3.366m-19.167 8.314c-.3-.154-.051-.689.284-.665.335.024.55.391.577.726a.713.713 0 00.605-.558l.475.332a.542.542 0 01.164-.746.544.544 0 01.732.222c-.034-.386.116-.951.495-.859.123.031.215.134.321.209.452.325 1.197.014 1.285-.534.373.424 1.04.366 1.596.27 1.658-.284 3.319-.565 4.976-.849.045-.315.206-.719.517-.678.18.024.3.202.46.295.226.13.51.082.763.027a43.332 43.332 0 006.579-1.982m-18.104 9.162a4.46 4.46 0 001.961-.271 1.139 1.139 0 01.321-1.387l.602.387a31.704 31.704 0 007.173-.989c1.053-.271 2.088-.596 3.127-.918l5.9-1.842" stroke="#1A1A1A" stroke-width=".594" stroke-miterlimit="10" stroke-linecap="round" stroke-linejoin="round"/><path opacity=".2" d="M108.502 13.963l-.551.035c-.557.034-1.015-.267-1.155-.781-.837-3.064-3.906-4.787-7.464-4.564-3.209.199-6.585 2.226-8.544 5.026-.53.757-1.34 1.277-2.16 1.329l-2.73.17c-.82.052-1.483-.376-1.78-1.081-1.105-2.609-3.904-4.252-7.113-4.054-3.557.223-7.235 2.363-9.063 5.591-.304.541-.868.908-1.425.942l-.55.034a.605.605 0 00-.527.497l-.215 1.376c-.034.212.075.39.267.431l.666.199c.523.157.85.63.82 1.222-.236 4.386 2.854 7.608 7.256 7.337 4.244-.263 8.277-3.69 9.596-7.922a2.18 2.18 0 011.494-1.425c.796-.198 1.821-.345 2.88-.202.643.086 1.094.59 1.09 1.27-.01 4.157 3.019 7.156 7.267 6.893 4.398-.274 8.574-3.948 9.729-8.392a2.051 2.051 0 011.224-1.349l.742-.288a.617.617 0 00.41-.472l.215-1.377c.041-.263-.13-.458-.379-.445zm-34.09 12.542c-4.088.253-6.873-2.972-6.21-7.19.663-4.218 4.531-7.858 8.619-8.111 4.087-.254 6.873 2.972 6.21 7.19-.663 4.218-4.529 7.858-8.62 8.111zm9.838-8.998a8.22 8.22 0 00.021-.709c-.003-.191.174-.376.366-.39l4.894-.305c.191-.01.31.154.25.353a12.98 12.98 0 00-.206.712c-2.109-.623-4.21-.072-5.325.34zm12.488 7.611c-4.087.254-6.872-2.972-6.21-7.19.664-4.218 4.532-7.858 8.62-8.11 4.087-.254 6.872 2.971 6.209 7.19-.663 4.217-4.528 7.857-8.619 8.11z" fill="#1A1A1A" fill-opacity=".7"/><path d="M105 14.826L73.64 18.99a5.344 5.344 0 00-3.698 2.27l-4.59 6.686a.499.499 0 00.233.747c.632.243 1.35.02 1.733-.538l4.244-6.176a3.234 3.234 0 012.205-1.366l31.349-4.451-.116-1.336z" fill="#1A1A1A"/><path d="M62.703 17.458l31.626-.524a5.342 5.342 0 013.992 1.698l5.526 5.938a.5.5 0 01-.119.773 1.464 1.464 0 01-1.795-.277l-5.106-5.482a3.222 3.222 0 00-2.382-1.027l-31.66.24-.082-1.339z" fill="#1A1A1A"/><path d="M81.859 19.476c.39.075.372 2.728-.51 3.64-.878.91-1.787-1.292-1.554-2.08.232-.783.844-1.793 2.064-1.56zm5.501-.343c-.376.12-.031 2.756.953 3.55.984.795 1.613-1.502 1.288-2.252-.328-.753-1.06-1.678-2.242-1.298z" fill="#A4CE2D" stroke="#1A1A1A" stroke-width=".594" stroke-miterlimit="10" stroke-linecap="round" stroke-linejoin="round"/><path opacity=".5" d="M67.77 13.237c1.655-1.418 5.158-3.831 8.992-1.537 3.835 2.297 5.16 4.786 4.371 8.172-.79 3.387-3.202 7.9-8.889 7.112-5.687-.788-9.61-9.348-4.473-13.747zm22.354-1.096c1.654-1.417 5.157-3.831 8.991-1.537 3.835 2.294 5.161 4.786 4.371 8.173-.789 3.386-3.202 7.898-8.889 7.11-5.686-.787-9.613-9.343-4.473-13.746z" fill="#A4CE2D"/><path d="M105.647 14.336l-.55.034a1.405 1.405 0 01-1.34-.757c-1.52-2.972-5.01-4.639-8.57-4.416-3.21.198-6.187 2.17-7.557 4.892-.37.736-1.077 1.24-1.897 1.291l-2.73.171c-.82.052-1.586-.363-2.044-1.047-1.695-2.53-4.894-4.123-8.1-3.92-3.557.222-6.814 2.303-7.96 5.443-.19.524-.68.88-1.236.914l-.55.035a.453.453 0 00-.424.482l.082 1.339a.458.458 0 00.365.418l.718.192a1.5 1.5 0 011.1 1.184c.725 4.26 4.566 7.382 8.965 7.108 4.244-.264 7.58-3.598 7.987-7.707a1.602 1.602 0 011.2-1.383 7.823 7.823 0 012.877-.202c.67.082 1.237.572 1.384 1.232.902 4.037 4.63 6.94 8.879 6.677 4.398-.274 7.822-3.849 8.021-8.163a1.506 1.506 0 01.943-1.314l.69-.281a.454.454 0 00.311-.459l-.082-1.339a.457.457 0 00-.482-.424zm-31.8 12.233c-4.087.254-7.621-2.872-7.874-6.967-.253-4.095 2.867-7.636 6.955-7.889 4.087-.253 7.62 2.873 7.874 6.968.256 4.098-2.864 7.635-6.955 7.888zm7.997-8.751a9.071 9.071 0 00-.137-.688.312.312 0 01.284-.38l4.894-.305a.31.31 0 01.328.342c-.027.23-.044.459-.051.692-2.27-.6-4.28-.062-5.318.339zm14.33 7.364c-4.088.254-7.621-2.872-7.874-6.967-.253-4.095 2.867-7.635 6.954-7.889 4.088-.253 7.622 2.873 7.875 6.968.256 4.098-2.864 7.635-6.955 7.889z" fill="#757575" stroke="#1A1A1A" stroke-width=".594" stroke-miterlimit="10" stroke-linecap="round" stroke-linejoin="round"/><path opacity=".4" d="M68.371 23.936s-2.737-3.622-.806-7.834c1.74-3.79 5.816-4.221 7.737-3.406l-4.214 7.35c.56-2.745 1.743-5.22 1.743-5.22s-3.712 3.759-4.46 9.11zm22.281-1.598s-2.737-3.623-.806-7.834c1.74-3.79 5.816-4.222 7.737-3.407l-4.214 7.348c.318-2.643 1.743-5.222 1.743-5.222s-3.715 3.767-4.46 9.115z" fill="#fff"/><path opacity=".2" d="M10.48 86.319l.99 4.461 1.131-5.047-2.973-50.447H7.602l2.877 51.033z" fill="#1A1A1A" fill-opacity=".7"/><path d="M8.676 34.674l2.803 50.741-1.033 4.174-1.486-4.033-2.803-50.742a.636.636 0 01.598-.671l1.248-.069a.632.632 0 01.673.6z" fill="#A4CE2D"/><path opacity=".2" d="M10.446 89.59L8.96 85.555 6.157 34.814a.636.636 0 01.598-.67l.175-.011 2.823 51.115.693 4.341z" fill="#1A1A1A" fill-opacity=".7"/><path d="M8.676 34.674l2.803 50.741-1.033 4.174-1.486-4.033-2.803-50.742a.636.636 0 01.598-.671l1.248-.069a.632.632 0 01.673.6z" stroke="#1A1A1A" stroke-width=".594" stroke-miterlimit="10" stroke-linecap="round" stroke-linejoin="round"/><path d="M6.984 35.002l2.752 49.814a.43.43 0 00.454.407l.3-.017" fill="#A4CE2D"/><path d="M6.984 35.002l2.752 49.814a.43.43 0 00.454.407l.3-.017" stroke="#1A1A1A" stroke-width=".594" stroke-miterlimit="10" stroke-linecap="round" stroke-linejoin="round"/><path opacity=".2" d="M19.427 95.776l9.265-60.647c.595-3.883 4.217-6.55 8.093-5.954l88.966 13.64c3.875.596 6.537 4.226 5.943 8.108l-9.269 60.647c-.594 3.883-4.217 6.55-8.092 5.954l-88.963-13.64c-3.876-.593-6.538-4.222-5.943-8.108z" fill="#1A1A1A" fill-opacity=".7"/><path d="M29.602 32.822l-.807 5.276-1.937-.298a.34.34 0 01-.284-.387l.704-4.609a.34.34 0 01.386-.284l1.938.301zm13.594-2.079l-5.266-.808.297-1.941a.34.34 0 01.386-.284l4.597.708a.34.34 0 01.283.387l-.297 1.938zm6.258.962l-5.267-.808.298-1.941a.34.34 0 01.386-.284l4.6.705a.34.34 0 01.284.387l-.301 1.941z" fill="#A4CE2D" stroke="#1A1A1A" stroke-width=".594" stroke-miterlimit="10" stroke-linecap="round" stroke-linejoin="round"/><path d="M18.403 94.406l9.265-60.643c.595-3.883 4.218-6.55 8.093-5.954l88.966 13.64c3.876.596 6.538 4.226 5.943 8.108l-9.268 60.644c-.595 3.882-4.217 6.549-8.093 5.954l-88.963-13.641c-3.875-.592-6.537-4.222-5.943-8.108z" fill="#A4CE2D" stroke="#1A1A1A" stroke-width=".594" stroke-miterlimit="10" stroke-linecap="round" stroke-linejoin="round"/><path d="M113.659 115.408l-89.424-13.712a6.086 6.086 0 01-5.086-6.937l9.337-61.109c.51-3.321 3.609-5.605 6.924-5.095l89.424 13.713a6.085 6.085 0 015.085 6.937l-9.336 61.109c-.51 3.321-3.609 5.601-6.924 5.094z" fill="#757575" stroke="#1A1A1A" stroke-width=".594" stroke-miterlimit="10" stroke-linecap="round" stroke-linejoin="round"/><path d="M25.316 64.434a.347.347 0 11-.686-.106.347.347 0 11.686.106z" fill="#999" stroke="#1A1A1A" stroke-width=".594" stroke-miterlimit="10" stroke-linecap="round" stroke-linejoin="round"/><path d="M25.167 67.622a.667.667 0 01-.759.558.667.667 0 01.202-1.318.668.668 0 01.557.76zm1.164-7.672a.667.667 0 01-.759.557.667.667 0 01.202-1.318.668.668 0 01.557.76zm-1.677 9.825a.485.485 0 11-.96-.147.487.487 0 11.96.147zM127.677 48.15l-9.545 62.492a3.003 3.003 0 01-3.418 2.517l-74.916-11.487-1.624-.25-6.107-.938-2.956-.452-4.272-.654-.933-.144a3.005 3.005 0 01-2.512-3.424l9.549-62.492a2.996 2.996 0 013.417-2.513l27.966 4.286 4.231.651 4.043.62 5.195.794 1.88.288 47.493 7.282a3.005 3.005 0 012.509 3.424z" fill="#1A1A1A"/><path d="M57.455 101.093l-31.77-4.873a.787.787 0 01-.66-.9l3.155-20.653a.786.786 0 01.899-.66l31.77 4.872c.43.065.727.469.659.9l-3.155 20.653a.789.789 0 01-.898.661zM29.038 74.277a.511.511 0 00-.585.431L25.3 95.362c-.045.28.15.545.43.586l31.77 4.872a.512.512 0 00.584-.432l3.155-20.652a.512.512 0 00-.43-.586l-31.77-4.872z" fill="#fff" opacity=".1"/><path opacity=".4" d="M38.625 86.78l7.115 4.044a8.36 8.36 0 00.926-2.756 8.39 8.39 0 00-1.452-6.136l-6.589 4.849z" fill="#A4CE2D"/><path opacity=".6" d="M38.695 86.387l6.357-4.677a8.389 8.389 0 00-3.291-2.606l-1.254 2.975-1.812 4.308z" fill="#A4CE2D"/><path d="M39.78 78.508l-1.1 7.208 2.83-6.721a8.434 8.434 0 00-1.73-.487z" fill="#A4CE2D"/><path opacity=".1" d="M38.253 86.695l1.258-8.227c-4.529-.62-8.736 2.513-9.43 7.056a8.398 8.398 0 00.442 4.235l7.73-3.064z" fill="#fff"/><path opacity=".2" d="M37.1 95.104a8.39 8.39 0 008.5-4.043l-7.242-4.116-7.74 3.068a8.387 8.387 0 006.482 5.091z" fill="#A4CE2D"/><path d="M51.35 83.21l-.943-.144a.21.21 0 01-.177-.243l.143-.945a.21.21 0 01.243-.178l.943.144a.21.21 0 01.178.243l-.144.945a.213.213 0 01-.242.178zm5.34-.072l-4.117-.63a.16.16 0 01-.134-.182.16.16 0 01.181-.133l4.119.63a.161.161 0 01.133.181.16.16 0 01-.181.134zm-1.374.492l-2.86-.438a.16.16 0 01-.134-.181.16.16 0 01.181-.133l2.86.438a.16.16 0 01.134.18.161.161 0 01-.181.134z" fill="#A4CE2D"/><path opacity=".6" d="M50.898 86.278l-.944-.144a.21.21 0 01-.177-.243l.143-.945a.21.21 0 01.243-.178l.943.144a.21.21 0 01.178.243l-.144.945a.213.213 0 01-.242.178z" fill="#A4CE2D"/><path d="M56.23 86.206l-4.118-.63a.16.16 0 01-.134-.181.16.16 0 01.182-.134l4.118.63a.16.16 0 01.133.182.157.157 0 01-.181.133zm-1.367.49l-2.86-.438a.16.16 0 01-.134-.182.16.16 0 01.181-.133l2.86.438a.16.16 0 01.134.181.156.156 0 01-.181.134z" fill="#A4CE2D"/><path opacity=".4" d="M50.421 89.346l-.943-.144a.21.21 0 01-.178-.243l.144-.945a.21.21 0 01.242-.178l.944.144a.21.21 0 01.177.243l-.143.945a.213.213 0 01-.243.178z" fill="#A4CE2D"/><path d="M55.753 89.273l-4.118-.63a.161.161 0 01-.133-.18.16.16 0 01.181-.134l4.118.63a.159.159 0 11-.048.315zm-1.351.49l-2.86-.438a.16.16 0 01-.134-.181.16.16 0 01.181-.134l2.86.438a.161.161 0 01.134.181.158.158 0 01-.181.134z" fill="#A4CE2D"/><path opacity=".2" d="M49.952 92.413l-.943-.144a.21.21 0 01-.178-.243l.144-.945a.21.21 0 01.242-.178l.944.144a.21.21 0 01.177.243l-.143.945a.215.215 0 01-.243.178z" fill="#A4CE2D"/><path d="M55.285 92.34l-4.119-.63a.16.16 0 01-.133-.18.16.16 0 01.181-.134l4.118.63a.16.16 0 01.134.181.161.161 0 01-.181.134zm-1.367.49l-2.86-.438a.16.16 0 01-.134-.181.16.16 0 01.18-.133l2.861.438a.16.16 0 01.134.18.158.158 0 01-.181.134z" fill="#A4CE2D"/><path opacity=".1" d="M49.491 95.481l-.943-.143a.21.21 0 01-.178-.244l.144-.944a.21.21 0 01.242-.179l.944.144a.21.21 0 01.177.243l-.143.945a.215.215 0 01-.243.178z" fill="#fff"/><path d="M54.831 95.406l-4.118-.63a.161.161 0 01-.133-.181.16.16 0 01.181-.134l4.118.63a.16.16 0 01.134.182.156.156 0 01-.181.133zm-1.367.493l-2.86-.438a.16.16 0 01-.133-.182.16.16 0 01.18-.133l2.861.438a.161.161 0 01.134.181.158.158 0 01-.182.134z" fill="#A4CE2D"/><path d="M117.301 87.534l-51.646-7.92a.793.793 0 00-.902.661l-.22 1.424-.04.274-.294 1.921-.041.274-.294 1.917-.04.274-.295 1.918-.04.274-.295 1.92-.04.274-.295 1.918-.04.273-.295 1.918-.04.274-.294 1.92-.041.275-.294 1.917-.041.274-.22 1.424a.798.798 0 00.664.904l51.646 7.919a.79.79 0 00.899-.664l.219-1.424.041-.274.294-1.917.041-.274.293-1.921.041-.274.294-1.917.041-.274.294-1.918.041-.274.294-1.92.041-.274.294-1.918.041-.274.294-1.917.041-.274.294-1.92.041-.274.219-1.425a.79.79 0 00-.66-.9zm-2.768 21.512a.514.514 0 01-.584.431l-51.647-7.919a.517.517 0 01-.43-.589l.218-1.424 52.662 8.076-.219 1.425zm.26-1.698l-52.662-8.077.294-1.918 52.662 8.077-.294 1.918zm.335-2.188l-52.662-8.077.294-1.921 52.665 8.077-.297 1.921zm.334-2.195l-52.66-8.077.293-1.917 52.661 8.077-.294 1.917zm.335-2.191l-52.66-8.077.293-1.918 52.661 8.077-.294 1.918zm.332-2.192l-52.661-8.076.294-1.921 52.661 8.077-.294 1.92zm.338-2.19l-52.661-8.078.294-1.917 52.661 8.077-.294 1.917zm.332-2.192l-52.665-8.077.294-1.917 52.661 8.077-.29 1.917zm.335-2.191l-52.662-8.077.294-1.921 52.662 8.077-.294 1.92zM64.807 81.74l.22-1.424a.514.514 0 01.587-.428l51.646 7.92a.517.517 0 01.431.585l-.219 1.424-52.665-8.076zm58.009-31.07L34.803 37.171a.9.9 0 00-1.025.757l-4.932 32.28a.901.901 0 00.756 1.027l88.012 13.497a.9.9 0 001.025-.757l4.932-32.28a.903.903 0 00-.755-1.027zm-71.783 4.642l6.121.938-.533 3.482-6.12-.938.532-3.482zm-.803 3.438l-6.12-.939.532-3.482 6.121.938-.533 3.482zm7.198-2.459l6.12.938-.533 3.482-6.12-.938.532-3.482zM89.17 60.88l-6.121-.938.533-3.482 6.121.938-.533 3.482zm.803-3.44l6.12.937-.532 3.482-6.121-.938.533-3.482zm-19.757.814l6.12.938-.532 3.482-6.121-.938.533-3.482zm-.803 3.438l-6.121-.939.533-3.482 6.121.939-.533 3.482zm7.197-2.459l6.121.938-.533 3.483-6.12-.939.532-3.482zm6.394.983l6.121.938-.533 3.482-6.12-.938.532-3.482zm-.228-.315l-6.121-.938.533-3.482 6.12.938-.532 3.482zm-6.395-.983l-6.12-.938.533-3.482 6.12.938-.533 3.482zm-6.394-.979L63.867 57l.532-3.482 6.121.938-.533 3.482zm-6.394-.98l-6.121-.937.533-3.482 6.12.938-.532 3.482zm-.615 4.027l-.534 3.482-6.12-.938.533-3.482 6.12.938zm.273.041l6.12.938-.532 3.483-6.121-.939.533-3.482zm6.394.98l6.121.938-.533 3.482-6.12-.938.532-3.482zm6.395.982l6.12.938-.533 3.483-6.12-.939.532-3.482zm6.394.98l6.12.938-.532 3.482-6.121-.938.533-3.483zm6.394.979l6.12.938-.532 3.482-6.121-.938.533-3.482zm.041-.27l.533-3.483 6.121.938-.533 3.482-6.12-.938zm6.924-2.504l6.121.938-.533 3.483-6.121-.938.533-3.483zm6.394.983l6.121.938-.533 3.482-6.121-.938.533-3.482zm.045-.274l.533-3.482 6.121.938-.533 3.482-6.121-.938zm-.274-.041l-6.12-.938.533-3.482 6.12.938-.533 3.482zm-5.55-4.694l.533-3.482 6.121.938-.533 3.482-6.12-.938zm-.27-.041l-6.12-.938.532-3.482 6.121.938-.533 3.482zm-6.394-.983l-6.12-.938.532-3.482 6.121.938-.533 3.482zm-6.394-.979l-6.121-.938.533-3.482 6.12.938-.532 3.482zm-6.395-.98l-6.12-.937.533-3.482 6.12.938-.533 3.482zm-6.394-.982l-6.12-.938.532-3.482 6.121.938-.533 3.482zm-6.394-.98l-6.12-.937.532-3.482 6.121.938-.533 3.482zm-6.394-.978l-6.121-.938.533-3.483 6.12.939-.532 3.482zm-.041.27l-.533 3.482-6.121-.938.533-3.482 6.12.938zm-6.928 2.503l-6.12-.938.533-3.482 6.12.938-.533 3.482zm-6.394-.983l-6.12-.938.532-3.482 6.121.938-.533 3.482zm-.041.274l-.533 3.482-6.121-.938.533-3.482 6.121.938zm-.574 3.756l-.533 3.482-6.121-.938.533-3.482 6.12.938zm.273.041l6.121.938-.533 3.482-6.12-.938.532-3.482zm6.395.98l6.12.938-.533 3.482-6.12-.938.532-3.482zm5.546 4.694l-.533 3.482-6.12-.938.532-3.482 6.121.938zm.274.04l6.12.939-.533 3.482-6.12-.938.533-3.482zm6.394.98l6.12.938-.532 3.482-6.121-.938.533-3.482zm6.394.983l6.121.938-.533 3.482-6.121-.938.533-3.482zm6.394.979l6.121.938-.533 3.482-6.12-.938.532-3.482zm6.395.983l6.12.938-.533 3.482-6.12-.939.533-3.481zm6.394.979l6.12.938-.532 3.482-6.121-.938.533-3.482zm6.394.979l6.121.938-.533 3.482-6.121-.938.533-3.482zm.041-.27l.533-3.483 6.121.939-.533 3.482-6.12-.939zm6.928-2.503l6.12.938-.533 3.482-6.121-.938.534-3.482zm6.394.982l6.121.938-.533 3.482-6.121-.938.533-3.482zm.041-.274l.533-3.482 6.121.938-.533 3.483-6.121-.939zm.574-3.756l.533-3.482 6.121.938-.533 3.482-6.121-.938zm.571-3.752l.533-3.482 6.121.938-.533 3.482-6.121-.938zm-.27-.041l-6.121-.938.533-3.483 6.121.939-.533 3.482zm-5.55-4.694l.533-3.482 6.121.938-.534 3.482-6.12-.938zm-.27-.041l-6.121-.939.533-3.482 6.121.938-.533 3.483zm-6.395-.983l-6.124-.938.533-3.482 6.121.938-.53 3.482zm-6.394-.98l-6.12-.938.532-3.482 6.121.939-.533 3.482zm-6.394-.979l-6.121-.938.533-3.482 6.121.938-.533 3.482zm-6.394-.982l-6.121-.938.533-3.482 6.12.938-.532 3.482zm-6.395-.98l-6.12-.938.533-3.482 6.12.938-.533 3.483zm-6.394-.982l-6.12-.938.532-3.482 6.121.938-.533 3.482zm-6.394-.98l-6.121-.937.533-3.483 6.12.939-.532 3.482zm-6.395-.978l-6.12-.939.533-3.482 6.12.938-.532 3.483zm-.044.27l-.533 3.482-6.12-.938.532-3.482 6.121.938zm-6.924 2.503l-6.12-.938.532-3.482 6.121.938-.533 3.482zm-6.394-.983l-6.121-.938.533-3.482 6.121.938-.533 3.482zm-.041.274l-.533 3.482-6.121-.938.533-3.482 6.12.938zm-.574 3.756l-.533 3.482-6.121-.938.533-3.482 6.12.938zm-.574 3.753l-.534 3.482-6.12-.938.533-3.483 6.12.939zm-.575 3.756l-.533 3.482-6.12-.938.533-3.483 6.12.939zm.274.04l6.12.939-.532 3.482-6.121-.938.533-3.482zm6.394.98l6.12.938-.532 3.482-6.121-.938.533-3.482zm5.547 4.694l-.533 3.482-6.121-.938.533-3.482 6.12.938zm.273.041l6.121.938-.533 3.482-6.121-.938.533-3.482zm6.394.983l6.121.938-.533 3.482-6.12-.938.532-3.482zm6.395.979l6.12.938-.533 3.482-6.12-.938.533-3.482zm6.394.98l6.12.937-.532 3.482-6.121-.938.533-3.482zm6.394.982l6.121.938-.533 3.482-6.12-.938.532-3.482zm6.394.979l6.121.938-.533 3.482-6.12-.938.532-3.482zm6.395.983l6.12.938-.532 3.482-6.121-.942.533-3.478zm6.394.979l6.121.938-.533 3.482-6.121-.938.533-3.482zm6.394.98l6.121.937-.533 3.482-6.12-.938.532-3.482zm.041-.271l.533-3.482 6.121.938-.533 3.482-6.121-.938zm6.928-2.503l6.121.938-.534 3.482-6.12-.938.533-3.482zm6.394.979l6.121.938-.533 3.482-6.121-.938.533-3.482zm.041-.27l.533-3.482 6.121.938-.533 3.482-6.121-.938zm.574-3.756l.533-3.482 6.121.938-.533 3.482-6.121-.938zm.574-3.753l.533-3.482 6.121.938-.533 3.482-6.121-.938zm.571-3.756l.533-3.482 6.121.938-.533 3.482-6.121-.938zm.574-3.752l.533-3.483 6.121.939-.533 3.482-6.121-.938zm-.27-.045l-6.121-.938.533-3.482 6.121.938-.533 3.482zm-5.55-4.69l.533-3.483 6.121.938-.533 3.482-6.121-.938zm-.273-.042l-6.121-.938.533-3.482 6.121.938-.533 3.482zm-6.395-.982l-6.12-.939.533-3.482 6.121.938-.534 3.483zm-6.394-.98l-6.12-.938.532-3.482 6.121.938-.533 3.482zm-6.394-.982l-6.121-.938.533-3.483 6.121.939-.533 3.482zm-6.394-.98l-6.121-.938.533-3.482 6.12.938-.532 3.483zm-6.395-.979l-6.12-.938.533-3.482 6.12.938-.533 3.482zm-6.394-.982l-6.12-.938.532-3.483 6.121.938-.533 3.483zm-6.394-.98l-6.121-.938.533-3.482 6.12.938-.532 3.482zm-6.395-.979l-6.12-.938.533-3.482 6.12.938-.533 3.482zm-6.394-.983l-6.12-.938.533-3.482 6.12.938-.533 3.483zm-6.394-.979l-6.12-.938.532-3.482 6.121.938-.533 3.482zm-.041.27l-.533 3.483-6.121-.938.533-3.482 6.121.938zm-6.924 2.504l-6.12-.938.532-3.483 6.121.939-.533 3.482zm-9.033 18.105l6.121.938-.533 3.482-6.12-.938.532-3.482zm6.395.983l6.12.938-.533 3.482-6.12-.938.533-3.482zm5.546 4.69l-.533 3.482-6.12-.938.533-3.482 6.12.938zm.274.041l6.12.938-.532 3.483-6.121-.939.533-3.482zm6.394.983l6.12.938-.532 3.482-6.121-.938.533-3.482zm6.394.98l6.121.937-.533 3.482-6.12-.938.532-3.482zm6.395.982l6.12.938-.533 3.482-6.12-.938.533-3.482zm6.394.98l6.12.937-.533 3.482-6.12-.938.533-3.482zm6.394.978l6.12.939-.532 3.481-6.121-.938.533-3.482zm6.394.983l6.121.938-.533 3.482-6.12-.938.532-3.482zm6.395.98l6.12.937-.533 3.482-6.12-.938.533-3.482zm6.394.978l6.12.939-.532 3.482-6.121-.939.533-3.482zm6.394.983l6.121.938-.533 3.482-6.121-.938.533-3.482zm6.394.98l6.121.937-.533 3.483-6.121-.939.533-3.482zm.041-.271l.534-3.482 6.12.938-.533 3.482-6.121-.938zm6.928-2.503l6.121.938-.533 3.482-6.121-.938.533-3.482zm10.041-24.724l-.438 2.863-6.121-.938.533-3.483 5.506.843a.63.63 0 01.52.715zm-88.532-14.21l5.505.846-.533 3.479-6.12-.938.437-2.863a.624.624 0 01.71-.524zM29.12 70.25l.437-2.862 6.121.938-.533 3.482-5.506-.846a.628.628 0 01-.52-.712zm88.535 14.21l-5.505-.843.533-3.482 6.121.938-.438 2.862a.625.625 0 01-.711.524z" fill="#fff" opacity=".1"/><path opacity=".5" d="M119.92 73.836l-1.541 10.093a.597.597 0 01-.684.5l-88.064-13.5a.596.596 0 01-.499-.681l.205-1.35s4.14-3.341 6.73-2.944c3.062.47 3.602 2.209 6.325 2.626 2.72.418 5.728-5.923 8.196-5.543 1.333.206 1.674 1.233 2.33 2.178.486.705 1.152 1.359 2.53 1.595.03.007.068.014.099.017 3.349.514 7.88-17.3 12.49-16.592 2.038.312 2.861 4.246 3.473 8.584.776 5.485 1.213 11.624 3.35 11.953 3.82.585 5.119-7.18 8.67-6.633 2.231.343 3.045 4.49 4.924 7.77 1.111 1.944 2.598 3.584 4.98 3.947 2.163.332 3.609-.171 4.733-.962 2.204-1.544 3.189-4.18 5.943-3.756 1.63.25 2.229 1.51 2.833 2.698.53 1.037 1.07 2.02 2.328 2.215 1.48.226 2.741-1.893 4.074-3.78 1.097-1.547 2.241-2.938 3.605-2.729 1.391.213 2.211 1.887 2.625 3.082.239.685.345 1.212.345 1.212z" fill="#A4CE2D"/><path opacity=".5" d="M122.039 59.966l-3.66 23.964a.597.597 0 01-.684.5l-88.064-13.5a.596.596 0 01-.499-.682l.205-1.35c3.657.562 5.609-2.18 8.062-1.804 2.454.377 3.726 2.092 6.022 2.445 2.3.353 5.837-5.033 8.353-4.646.434.065.81.181 1.145.322.967.404 1.633 1.058 2.529 1.595a6.13 6.13 0 002.3.829c2.942.452 8.83-10.22 12.245-9.697.594.093 1.087.411 1.517.877 2.016 2.201 2.536 7.707 5.38 8.142 3.448.527 5.293-5.091 8.636-4.578 3.342.514 4.333 6.286 8.209 6.882 3.879.596 8.072-10.011 12.094-9.392 4.019.617 5.171 6.064 8.667 6.598 3.835.586 7.543-6.505 7.543-6.505z" fill="#A4CE2D"/><path d="M120.337 71.107l-1.958 12.822a.597.597 0 01-.684.5l-88.064-13.5a.596.596 0 01-.499-.681l.103-.661c.126-.123 2.2-2.085 4.306-1.76 2.177.332 2.18 2.287 5.219 2.753 3.034.465 3.92-1.942 8.226-1.28 4.31.66 4.289 3.677 8.742 4.358 4.453.681 5.372-2.931 8.533-2.448 3.158.483 2.953 2.331 4.748 2.605 1.794.274 2.843-2.547 5.054-2.208 2.211.339 3.903 4.982 6.394 5.365 1.75.267 4.846-3.201 8-5.067 1.337-.788 2.684-1.288 3.945-1.092 2.6.397 4.118 2.43 5.769 4.077 1.038 1.038 2.129 1.918 3.571 2.14 2.061.315 3.626-1.55 5.208-3.198 1.285-1.338 2.581-2.53 4.156-2.287 1.005.154 1.705.418 2.249.726 1.36.767 1.726 1.801 3.363 2.051 1.968.301 3.619-3.215 3.619-3.215zm-80.31-34.975l-4.727-.726a.841.841 0 01-.704-.962.84.84 0 01.96-.705l4.727.725a.844.844 0 01-.256 1.667zm2.618-.956c.024 0 .051.004.075.007l4.727.726a.501.501 0 01-.15.99l-4.727-.727a.502.502 0 01-.42-.571.503.503 0 01.495-.425zm0-.342a.843.843 0 00-.127 1.678l4.727.725a.838.838 0 00.96-.705.843.843 0 00-.703-.962l-4.727-.726a.856.856 0 00-.13-.01zm7.211 1.448c.024 0 .051.004.075.007l4.727.726a.502.502 0 01-.075.997.562.562 0 01-.075-.007l-4.73-.726a.502.502 0 01-.42-.572.515.515 0 01.498-.425zm0-.342a.843.843 0 00-.126 1.678l4.73.726a.838.838 0 00.96-.705.843.843 0 00-.704-.963l-4.73-.726a.824.824 0 00-.13-.01zm73.624 12.226l.058-.37-.274-.065a.616.616 0 00-.044-.178l.212-.184-.222-.302-.239.147a.732.732 0 00-.154-.092l.017-.28-.369-.059-.065.274a.646.646 0 00-.178.044l-.184-.212-.301.223.147.24a.697.697 0 00-.093.154l-.28-.018-.058.37.274.065c.006.062.02.12.044.178l-.212.185.222.301.239-.147c.048.038.1.069.154.093l-.017.28.369.059.065-.274a.646.646 0 00.178-.045l.184.212.301-.222-.147-.24a.697.697 0 00.093-.154l.28.017zm-1.049.09a.435.435 0 11.134-.86.435.435 0 01-.134.86z" fill="#A4CE2D"/><path opacity=".2" d="M70.343 88.912l-1.007-.154L68.229 96l1.007.155 1.107-7.243z" fill="#A4CE2D"/><path d="M70.17 90.002l-1.006-.154-.52 3.408 1.006.154.52-3.408z" fill="#A4CE2D"/><path opacity=".2" d="M67.804 90.394l-1.007-.154-1.107 7.243 1.006.154 1.108-7.243z" fill="#A4CE2D"/><path d="M66.498 92.145l-.521 3.412 1.006.154.521-3.412-1.006-.154z" fill="#A4CE2D"/><path opacity=".2" d="M65.741 88.655l-1.007-.154-1.107 7.242 1.007.155 1.107-7.243z" fill="#A4CE2D"/><path d="M65.327 91.386l-1.007-.155-.52 3.412 1.006.154.521-3.411z" fill="#A4CE2D"/><path opacity=".2" d="M72.382 90.69l-1.007-.155-1.107 7.243 1.007.154 1.107-7.243z" fill="#A4CE2D"/><path d="M72.218 91.782l-1.007-.154-.521 3.411 1.006.155.522-3.412z" fill="#A4CE2D"/><path opacity=".2" d="M74.983 88.895l-1.006-.154-1.108 7.243 1.007.154 1.107-7.243z" fill="#A4CE2D"/><path d="M74.858 89.712l-1.006-.155-.522 3.412 1.007.154.521-3.411z" fill="#A4CE2D"/><path opacity=".2" d="M76.952 91.11l-1.007-.154-1.107 7.243 1.007.154 1.107-7.243z" fill="#A4CE2D"/><path d="M76.913 91.385l-1.007-.155-.521 3.412 1.007.154.521-3.411z" fill="#A4CE2D"/><path opacity=".2" d="M79.804 87.673l-1.007-.155-1.107 7.243 1.006.154 1.108-7.242z" fill="#A4CE2D"/><path d="M79.764 87.945l-1.006-.154-.52 3.408 1.006.154.52-3.408z" fill="#A4CE2D"/><path opacity=".2" d="M81.35 92.579l-1.006-.155-1.107 7.243 1.006.154 1.108-7.242z" fill="#A4CE2D"/><path d="M81.186 93.674l-1.006-.155-.522 3.412 1.007.154.521-3.411z" fill="#A4CE2D"/><path opacity=".2" d="M83.561 93.35l-1.006-.155-1.108 7.243 1.007.154 1.107-7.243z" fill="#A4CE2D"/><path d="M83.14 96.076l-1.007-.154-.521 3.411 1.006.154.522-3.411z" fill="#A4CE2D"/><path opacity=".2" d="M86.53 89.15l-1.007-.155-1.107 7.243 1.007.154 1.107-7.243z" fill="#A4CE2D"/><path d="M86.061 92.152l-1.006-.154-.521 3.408 1.007.155.52-3.409z" fill="#A4CE2D"/><path opacity=".2" d="M88.28 92.681l-1.007-.154-1.107 7.243 1.007.154 1.107-7.243z" fill="#A4CE2D"/><path d="M88.07 94.047l-1.007-.154-.521 3.408 1.007.154.52-3.408z" fill="#A4CE2D"/><path opacity=".2" d="M90.85 91.138l-1.006-.155-1.107 7.243 1.006.154 1.108-7.242z" fill="#A4CE2D"/><path d="M90.686 92.231l-1.006-.154-.522 3.412 1.007.154.521-3.412z" fill="#A4CE2D"/><path opacity=".2" d="M93.608 88.235l-1.006-.154-1.108 7.242 1.007.155 1.107-7.243z" fill="#A4CE2D"/><path d="M93.608 88.232l-1.006-.154-.522 3.411 1.007.155.521-3.412z" fill="#A4CE2D"/><path opacity=".2" d="M95.17 93.166l-1.006-.154-1.107 7.242 1.007.155 1.107-7.243z" fill="#A4CE2D"/><path d="M95.03 93.988l-1.007-.154-.52 3.411 1.006.155.521-3.412z" fill="#A4CE2D"/><path opacity=".2" d="M96.952 96.698l-1.007-.154-1.107 7.242 1.007.155 1.107-7.243z" fill="#A4CE2D"/><path d="M96.811 97.517l-1.006-.154-.522 3.412 1.007.154.521-3.412z" fill="#A4CE2D"/><path opacity=".2" d="M99.788 93.212l-1.007-.155-1.107 7.243 1.007.154 1.107-7.242z" fill="#A4CE2D"/><path d="M99.382 95.936l-1.007-.154-.521 3.412 1.007.154.52-3.412z" fill="#A4CE2D"/><path opacity=".2" d="M102.679 89.464l-1.007-.155-1.107 7.243 1.006.154 1.108-7.242z" fill="#A4CE2D"/><path d="M102.171 92.74l-1.007-.155-.521 3.411 1.007.155.521-3.412z" fill="#A4CE2D"/><path opacity=".2" d="M104.327 93.904l-1.007-.154-1.107 7.243 1.007.154 1.107-7.243z" fill="#A4CE2D"/><path d="M104.171 94.995l-1.007-.154-.521 3.411 1.007.155.521-3.412z" fill="#A4CE2D"/><path opacity=".2" d="M106.405 95.459l-1.007-.154-1.107 7.242 1.007.154 1.107-7.242z" fill="#A4CE2D"/><path d="M105.944 98.46l-1.006-.154-.522 3.411 1.007.154.521-3.411z" fill="#A4CE2D"/><path opacity=".2" d="M109.007 93.544L108 93.39l-1.107 7.242 1.007.154 1.107-7.242z" fill="#A4CE2D"/><path d="M109.007 93.546L108 93.39l-.522 3.412 1.007.154.522-3.411z" fill="#A4CE2D"/><path opacity=".2" d="M110.929 96.154L109.922 96l-1.107 7.243 1.006.154 1.108-7.243z" fill="#A4CE2D"/><path d="M110.843 96.697l-1.007-.154-.521 3.411 1.006.155.522-3.412z" fill="#A4CE2D"/><path opacity=".2" d="M113.343 95.523l-1.007-.154-1.107 7.243 1.007.154 1.107-7.243z" fill="#A4CE2D"/><path d="M113.304 95.796l-1.007-.155-.521 3.412 1.006.154.522-3.411z" fill="#A4CE2D"/><path opacity=".2" d="M115.468 96.8l-1.007-.154-1.107 7.243 1.006.154 1.108-7.242z" fill="#A4CE2D"/><path d="M114.936 100.343l-1.006-.155-.522 3.412 1.007.154.521-3.411z" fill="#A4CE2D"/><path d="M78.912 106.858l-18.959-2.907-.09.589 18.959 2.907.09-.589z" fill="#999" stroke="#1A1A1A" stroke-width=".594" stroke-miterlimit="10" stroke-linecap="round" stroke-linejoin="round"/><path opacity=".2" d="M90.956 65.447s-2.57 1.428-.933 5.297c1.633 3.873 11.592 10.227 11.39 13.46 0 0-10.221-6.383-13.061-2.699 0 0 7.72 7.502 8.523 13.145.8 5.645 3.428 8.145 9.46 11.363 6.032 3.219 19.179 20.208 19.179 20.208l-1.965-28.52-19.135-21.64-9.463-5.4-3.995-5.214z" fill="#1A1A1A" fill-opacity=".7"/><path d="M142.884 116.299s-16.848 11.086-16.852 11.086c-.01.004-.017.007-.027.007-.031 0-.058-.021-.072-.051-.075-.199-7.529-20.129-9.313-21.684-1.329-1.157-1.91-2.667-2.125-3.403 0-.003-.004-.003-.004-.007-.003-.007-.003-.017-.006-.027a4.523 4.523 0 01-.103-.401c-.065-.157-1.288-2.903-4.398-4.95-1.173-.775-2.536-1.33-3.978-1.918-2.119-.86-4.3-1.746-5.841-3.386a7.165 7.165 0 01-.721-.9c-2.45-3.596-6.234-7.564-7.495-8.379-1.309-.849-3.571-.705-3.592-.702a.076.076 0 01-.082-.061c-.099-.579.096-1.199.554-1.743a3.431 3.431 0 012.608-1.198c1.948 0 4.63 1.037 5.984 2.318 1.322 1.25 4.483 2.239 4.842 2.348.51-.301 1.695.346 2.15.62-.523-1.866-.311-2.585-.229-2.766-1.121-1.456-6.958-5.763-10.058-7.923h-.003c-.855-.6-1.497-1.03-1.778-1.195-1.445-.853-2.641-3.52-2.409-5.383.075-.606.308-1.04.687-1.294.328-.219.7-.26.974-.25.233.007.397.048.414.052.013.007.027.013.037.024.028.037 2.93 3.485 3.934 4.026.492.264 3.11 1.589 5.598 2.821.379.189.755.377 1.121.555.007-.53.031-2.612.171-3.25.095-.424.772-1.03 1.541-1.382.359-.165 1.035-.401 1.514-.14.188.105.632.38 1.247.763.301.184.65.404 1.032.636.13-.188.537-.743.793-.893.257-.15 1.675-.414 2.181-.236.441.16 1.855 1.061 3.352 2.013l.646.407c.079-.147.263-.455.438-.524.666-.27 1.746-.325 2.307-.123.505.185 2.241 1.469 3.923 2.712.923.685 1.808 1.339 2.389 1.732.02.007.037.017.048.035.167.113.307.202.413.263 1.237.709 4.279 16.692 4.31 16.852.198 1.072.922 2.178 1.688 3.349.748 1.144 1.596 2.441 2.105 3.934.974 2.852 3.192 7.026 6.442 12.127a216.7 216.7 0 003.643 5.489z" fill="#fff"/><path opacity=".4" d="M105.336 85.696c-.653.517-5.39.028-5.97 1.623-.343.942-.09 2.366.799 4.246a7.165 7.165 0 01-.721-.9c-2.45-3.596-6.234-7.564-7.495-8.379-1.309-.849-3.571-.705-3.592-.702a.076.076 0 01-.082-.061c-.099-.579.096-1.199.554-1.743a3.431 3.431 0 012.608-1.198c1.948 0 4.63 1.037 5.984 2.318 1.322 1.25 4.483 2.239 4.842 2.348.51-.301 1.695.346 2.15.62-.523-1.866-.311-2.585-.229-2.766-1.121-1.456-6.958-5.763-10.058-7.923h-.003c-.855-.6-1.497-1.03-1.778-1.195-1.445-.853-2.641-3.52-2.409-5.383.075-.606.308-1.04.687-1.294.328-.219.7-.26.974-.25-.215.082-.43.21-.642.39-.95.812 1.315 5.095 2.59 6.28 1.333 1.236 7.327 4.304 9.48 6.132 1.183 1.003 2.734 2.523 2.734 2.523-.946 1.613.226 4.8-.423 5.314z" fill="#A4CE2D"/><path d="M127.346 59.508c-.003-.032-.003-.039.004-.025.003.01.003.018-.004.025z" fill="#A4CE2D"/><path opacity=".4" d="M139.24 110.811c-2.54-2.421-6.319-6.191-7.027-7.845-1.08-2.533-1.801-4.872-3.144-6.577-1.34-1.701-4.067-19.875-4.85-19.927-.762-.054.985 7.184 1.077 7.56-.075-.23-1.053-3.314-1.989-6.83-.971-3.654-1.951-3.852-1.951-3.852-1.303.26-1.309 1.188-1.976 1.174-.663-.013-2.953-1.64-2.953-1.64-2.218.322-10.539-5.046-10.539-5.046-1.894.256-2.338 1.913-.721 3.468 1.619 1.558 4.032 3.448 4.032 3.448-1.558.76-7.279-2.455-7.279-2.455l-.342-.308c.379.188.755.376 1.121.554.007-.53.031-2.612.171-3.249.096-.424.772-1.03 1.541-1.383.359-.165 1.036-.4 1.514-.14.188.105.633.38 1.248.763.3.185.649.404 1.032.637.13-.189.536-.743.793-.894.256-.15 1.674-.414 2.18-.236.441.16 1.856 1.061 3.353 2.013l.646.408c.078-.148.263-.456.437-.524.666-.27 1.746-.326 2.307-.124.506.185 2.242 1.47 3.923 2.712.923.685 1.808 1.339 2.389 1.733a.081.081 0 01.048.034c.167.113.308.202.414.264 1.237.708 4.278 16.69 4.309 16.852.198 1.071.923 2.177 1.688 3.348.749 1.144 1.596 2.441 2.106 3.934.974 2.852 3.192 7.026 6.442 12.128z" fill="#A4CE2D"/><path d="M126.007 127.317s-7.515-20.129-9.333-21.714c-1.818-1.586-2.215-3.804-2.215-3.804s-1.186-2.852-4.429-4.992c-3.243-2.14-8.147-2.695-10.523-6.18-2.371-3.486-6.168-7.53-7.515-8.402-1.343-.874-3.64-.713-3.64-.713-.235-1.349 1.265-2.852 3.087-2.852 1.821 0 4.507.952 5.933 2.298 1.425 1.345 4.904 2.376 4.904 2.376.553-.397 2.266.702 2.266.702-.684-2.318-.267-2.941-.267-2.941-1.343-1.822-10.54-8.382-11.886-9.173-1.347-.79-2.611-3.407-2.372-5.31.236-1.904 1.979-1.428 1.979-1.428s2.925 3.485 3.954 4.04c1.028.555 9.097 4.598 10.283 5.07 1.186.477 2.058-.157 2.058-.157" stroke="#1A1A1A" stroke-width=".594" stroke-miterlimit="10" stroke-linecap="round" stroke-linejoin="round"/><path d="M102.781 72.654s.01-2.636.168-3.351c.157-.713 2.074-1.952 2.946-1.476.871.476 7.279 4.697 8.95 4.882" stroke="#1A1A1A" stroke-width=".594" stroke-miterlimit="10" stroke-linecap="round" stroke-linejoin="round"/><path d="M108.227 69.269s.519-.764.813-.938c.236-.14 1.64-.398 2.115-.23.95.343 6.545 4.212 7.495 4.448" stroke="#1A1A1A" stroke-width=".594" stroke-miterlimit="10" stroke-linecap="round" stroke-linejoin="round"/><path d="M115.211 70.563s.243-.487.437-.566c.677-.273 1.726-.311 2.256-.12.871.32 5.656 4.103 6.763 4.736 1.108.633 3.876 14.66 4.272 16.8.397 2.14 2.769 4.28 3.797 7.294 1.029 3.013 3.479 7.607 7.358 13.551.68 1.044 1.395 2.113 2.109 3.16M107.648 78.24s.356-1.606 1.306-2.318c.95-.712 2.256.417 3.202.534" stroke="#1A1A1A" stroke-width=".594" stroke-miterlimit="10" stroke-linecap="round" stroke-linejoin="round"/><path d="M114.125 75.688s.533-1.845 1.483-2.263c.95-.418 2.413.832 3.045.89m1.706-.295s.711-.674 1.009-.677c.297-.004 1.541 1.304 1.807 1.394.267.089.595-.401 1.053-.408m-6.033-1.983s.858-.078 1.48.367m-15.403 8.381s-.475-1.219-.236-1.842m1.152-7.104s.563.664.594 1.191c.031.527 1.381 1.174 1.381 1.174m7.079-1.961s.773-.277 1.19 0m-11.158 10.145s-.158-1.23.919-2.061m-.655 3.399s-.882.764-.882 1.24m-3.172-2.578c1.046.39 1.914 2.02 2.546 2.298m10.126-7.489c.632.91 2.058 7.53 3.479 9.628m1.818-11.497c.12.079.95 2.653.95 2.653m9.667 13.661a15.321 15.321 0 001.128 3.825m-15.633 6.454c-.109-.435-.567-3.287-1.127-4.239" stroke="#1A1A1A" stroke-width=".594" stroke-miterlimit="10" stroke-linecap="round" stroke-linejoin="round"/><path opacity=".2" d="M18.79 146.733s11.12-14.979 19.503-17.722c8.387-2.742 8.8-6.464 8.459-13.407-.342-6.944-.09-13.942-2.38-14.778-2.289-.835 2.762-9.902.336-13.493L28.844 112.31l-10.055 34.423z" fill="#1A1A1A" fill-opacity=".7"/><path d="M16.093 150.907c-.048-.013-.103-.034-.168-.054.133.075.215.123.24.133-.01-.014-.035-.038-.072-.079zm27.033-45.951c-1.384-.641-4.081-3.643-4.42-4.02 1.716-2.883 3.398-5.663 3.982-6.33 1.213-1.384 2.693-5.366 2.092-7.297-.55-1.773-2.352-1.49-2.598-1.441-.017.003-.027.007-.027.007a.06.06 0 00-.044.03c-.038.066-3.705 6.26-4.843 7.742-.544.705-1.794 2.31-3.062 3.92-.065-.01-.202-.034-.38-.058-.587-.072-1.667-.161-2.409.068a.96.96 0 00-.079.028c-.263.099-.676.322-1.172.623-.048-.02-.143-.062-.27-.113-.54-.226-1.657-.66-2.187-.685-.646-.034-2.922 1.024-4.282 1.883-.212-.068-1.5-.455-2.878-.4-1.042.044-3.168.91-4.877 1.605-.758.309-1.415.576-1.797.695-.117.038-.226.069-.332.103-1.018.305-1.579.476-2.29 1.9-.738 1.48-1.534 6.995-1.917 9.645l-.051.36c-.147 1.013-.123 2.828-.1 4.749.038 2.67.076 5.43-.32 6.512-.592 1.606-1.467 2.879-2.106 3.807-.112.161-.215.312-.31.456-.602.893-.896 1.681-1.269 2.674a39.97 39.97 0 01-.994 2.359c-.643 1.414-1.24 2.581-1.24 2.581s12.09 13.374 13.147 14.548c.106.038.167.055.174.055.041-.068 2.276-3.896 4.644-7.673 2.04-3.259 4.18-6.481 5.093-7.221 1.496-1.215 2.248-2.889 2.617-4.081.493-1.585 3.633-3.54 6.672-5.43 3.359-2.089 6.828-4.249 6.95-6.036.066-.925.278-2.455.524-4.232.666-4.814 1.493-10.809.359-11.333zm-5.756 7.697l-1.493 1.465c-.212-1.198-1.664-2.79-1.893-3.034.123-.527.174-1.157.222-1.746.054-.667.112-1.359.277-1.482.164-.124.919-1.36 2.15-3.428.102 1.449 1.353 3.044 1.537 3.274l-.8 4.951z" fill="#fff"/><path opacity=".4" d="M19.638 108.205c-.44 3.945-4.299 13.73-4.299 13.73l-.697-9.857s-2.977 13.377-3.814 13.86c-.837.479-2.27 3.04-3.083 5.07-.543 1.366-2.396 2.301-3.558 2.77.35-.763.708-1.599.995-2.359.373-.993.666-1.78 1.268-2.674.096-.144.198-.294.31-.455.64-.928 1.515-2.202 2.106-3.808.397-1.082.359-3.841.321-6.512-.024-1.921-.047-3.735.1-4.749l.05-.359c.384-2.65 1.18-8.166 1.918-9.645.71-1.425 1.271-1.596 2.29-1.9.106-.035.215-.065.331-.103.383-.12 1.04-.387 1.798-.695 1.709-.695 3.834-1.562 4.877-1.606 1.377-.055 2.666.332 2.877.4 1.36-.859 3.637-1.917 4.283-1.883.53.024 1.647.46 2.187.685-2.252 1.188-6.07 4.023-6.07 4.023-4.33.925-4.19 6.067-4.19 6.067zm7.643-5.239s2.362-1.619 3.47-2.14c1.106-.52 1.462-2.595.683-3.18a.219.219 0 00-.1-.042c.028-.01.055-.02.08-.027.74-.23 1.82-.14 2.408-.068-1.431 2.153-2.553 3.803-2.85 4.16-1.001 1.198-3.69 1.297-3.69 1.297zm5.657 13.515l.522.225c-.317 1.27-.523-.225-.523-.225z" fill="#A4CE2D"/><path opacity=".4" d="M43.12 104.956c-1.384-.641-4.08-3.643-4.418-4.02 1.715-2.883 3.397-5.663 3.981-6.33 1.213-1.384 2.693-5.366 2.092-7.297-.55-1.773-2.352-1.49-2.598-1.441l-.01.075s1.948.243 1.944 3.064c-.003 2.825-5.06 8.413-5.06 8.413s-5.202 9.775-5.548 9.628c-.345-.148-1.103 6.532-1.103 6.532s1.449 1.236 1.103 2.9a5.38 5.38 0 01-.05.226l2.227.963s2.236-1.572 3.37.739c1.138 2.308-10.895 10.57-11.842 11.788 0 0-.133 4.606-1.89 5.283-1.138.439-3.144 4.794-4.412 7.81 2.04-3.259 4.18-6.481 5.092-7.221 1.497-1.215 2.25-2.889 2.618-4.081.492-1.585 3.633-3.54 6.671-5.43 3.36-2.089 6.829-4.249 6.952-6.036.065-.925.277-2.455.523-4.232.666-4.814 1.493-10.809.358-11.333zm-5.755 7.697l-1.493 1.465c-.212-1.198-1.665-2.79-1.894-3.034.123-.527.175-1.157.223-1.746.054-.667.112-1.359.276-1.482.164-.124.92-1.36 2.15-3.428.103 1.449 1.353 3.044 1.538 3.274l-.8 4.951z" fill="#A4CE2D"/><path d="M28.555 103.059s1.384-.233 2.423-1.386c1.039-1.158 5.194-6.475 6.346-7.978 1.155-1.503 4.846-7.748 4.846-7.748s1.962-.462 2.54 1.386c.577 1.85-.807 5.78-2.078 7.225-1.268 1.445-7.734 12.894-8.196 13.24-.461.346-.116 3.588-1.039 4.28" stroke="#1A1A1A" stroke-width=".594" stroke-miterlimit="10" stroke-linecap="round" stroke-linejoin="round"/><path d="M33.89 111.106s1.809 1.896 1.921 3.167l1.617-1.586.806-5.005s-1.596-1.928-1.548-3.506" stroke="#1A1A1A" stroke-width=".594" stroke-miterlimit="10" stroke-linecap="round" stroke-linejoin="round"/><path d="M38.619 100.947s2.977 3.383 4.477 4.078c1.5.695-.694 12.141-.923 15.493-.232 3.352-12.58 8.087-13.619 11.446-.413 1.335-1.192 2.907-2.597 4.047-2.003 1.626-9.754 14.914-9.754 14.914M34.24 97.647s-1.76-.326-2.8 0c-1.038.325-5.423 3.444-6.462 4.023-1.039.578-2.54.695-2.884 1.386" stroke="#1A1A1A" stroke-width=".594" stroke-miterlimit="10" stroke-linecap="round" stroke-linejoin="round"/><path d="M30.173 98.31s-1.774-.773-2.464-.807c-.694-.035-3.462 1.277-4.734 2.201-1.268.925-2.502 1.387-3.233 1.582" stroke="#1A1A1A" stroke-width=".594" stroke-miterlimit="10" stroke-linecap="round" stroke-linejoin="round"/><path d="M23.434 99.392s-1.385-.469-2.885-.407c-1.5.062-5.423 1.914-6.654 2.297-1.23.387-1.808.425-2.577 1.966-.769 1.54-1.616 7.594-1.961 9.984-.346 2.389.27 9.384-.424 11.274-.694 1.89-1.764 3.294-2.423 4.28-1.316 1.959-1.169 3.438-3.565 7.577" stroke="#1A1A1A" stroke-width=".594" stroke-miterlimit="10" stroke-linecap="round" stroke-linejoin="round"/><path d="M20.645 103.58c-1.5 1.328-1.22 3.876-1.008 4.626.212.753-.721 3.756-1.012 5.375m11.541-8.731c-2.713.058-3.581 1.907-3.752 3.122m-7.798-5.837c-.807-.058-2.885 1.215-3.288 3.293m22.914 2.257s.404-1.157.807-1.27m-1.602 6.275s-.387 1.295-.742 1.99c-.356.695 0 1.777 0 1.777m-.877-2.182c-.058 1.158-1.326 2.397-1.586 2.181m-9.285-4.148c-.04 1.27-2.348 10.579-2.348 10.579" stroke="#1A1A1A" stroke-width=".594" stroke-miterlimit="10" stroke-linecap="round" stroke-linejoin="round"/></svg>