<svg width="171" height="148" fill="none" xmlns="http://www.w3.org/2000/svg"><g clip-path="url(#clip0_174_72325)"><path d="M171.004 72.493c0 3.595-.388 7.174-1.23 10.653a39.916 39.916 0 01-1.626 5.15c-.029.07-.055.142-.085.213-.107.27-.214.538-.328.804-.019.041-.037.086-.056.131a47.09 47.09 0 01-.34.782c-.051.116-.103.228-.155.34a21.7 21.7 0 01-.321.688 48.31 48.31 0 01-.351.722c-.045.086-.085.172-.13.254-.103.206-.21.412-.314.618l-.255.475a49.037 49.037 0 01-1.23 2.169 39.69 39.69 0 01-.532.871c-.04.071-.085.142-.129.214a77.706 77.706 0 01-1.16 1.784c-.155.232-.31.46-.469.692-.034.048-.067.097-.104.145-.162.24-.332.48-.498.719-.207.295-.418.583-.629.875-.044.06-.085.119-.129.176-.24.332-.488.662-.731.987-.148.194-.296.393-.447.583-.266.356-.54.707-.817 1.059a62.51 62.51 0 01-.798 1.002c-.029.038-.059.071-.089.109-.266.333-.531.662-.805.991a7.755 7.755 0 01-.244.299 211.1 211.1 0 01-2.94 3.486 259.367 259.367 0 01-4.585 5.195 204.006 204.006 0 01-3.953 4.223c-6.436 6.691-13.404 12.934-20.981 17.908a79.852 79.852 0 01-2.852 1.792c-.351.209-.702.418-1.053.624l-.181.105c-.362.209-.724.415-1.09.617-.373.209-.746.415-1.123.613l-.51.27a61.806 61.806 0 01-3.439 1.687c-.373.172-.75.34-1.127.504-.155.068-.307.135-.462.199-.343.149-.691.291-1.038.434-.669.273-1.345.534-2.025.781-.258.098-.52.191-.783.285l-.443.153c-.244.082-.488.164-.732.243-.21.071-.424.138-.635.206-.007.003-.015.003-.022.007a63.552 63.552 0 01-3.24.928 63.566 63.566 0 01-2.679.613 47.81 47.81 0 01-1.987.37c-.226.038-.45.075-.68.109-.203.034-.41.063-.613.09a47.86 47.86 0 01-.747.104c-2.626.341-5.26.483-7.894.453-.16 0-.315-.004-.473-.008a64.199 64.199 0 01-7.67-.613c-.3-.041-.599-.082-.898-.127l-.698-.112a65.514 65.514 0 01-2.945-.539 16.973 16.973 0 01-.646-.135 70.465 70.465 0 01-1.973-.445 69.68 69.68 0 01-1.311-.325c-.218-.056-.436-.112-.654-.172-.218-.056-.436-.116-.654-.176a81.312 81.312 0 01-2.594-.755 83.248 83.248 0 01-2.985-.977c-.358-.123-.72-.25-1.078-.377a105.596 105.596 0 01-3.322-1.261c-.196-.078-.395-.161-.602-.247a21.465 21.465 0 01-.81-.362 57.054 57.054 0 01-2.334-1.149l-.428-.224a90.188 90.188 0 01-1.6-.868 145.525 145.525 0 01-3.695-2.128c-14.781-8.804-37.41-25.329-42.722-31.594a43.76 43.76 0 01-.794-.965 29.836 29.836 0 01-.602-.774 24.687 24.687 0 01-.532-.714c-.156-.21-.307-.423-.455-.64a33.629 33.629 0 01-.942-1.402c-.155-.243-.31-.486-.458-.733-.074-.116-.144-.236-.214-.356a48.122 48.122 0 01-.488-.83c0-.004 0-.004-.004-.008-.17-.306-.34-.613-.506-.923a35.742 35.742 0 01-.824-1.642l-.2-.43a34.463 34.463 0 01-1.38-3.475 30.302 30.302 0 01-.4-1.242 35.816 35.816 0 01-.436-1.612 11.56 11.56 0 01-.074-.322c-.066-.28-.129-.564-.184-.848a26.064 26.064 0 01-.222-1.194c-.015-.097-.033-.194-.044-.291a25.568 25.568 0 01-.177-1.365 4.788 4.788 0 01-.027-.251c-.022-.213-.037-.426-.055-.636 0-.019 0-.037-.004-.052a17.571 17.571 0 01-.04-.756c-.004-.026-.004-.048-.004-.07a28.67 28.67 0 01-.022-.798v-.763a25.29 25.29 0 01.72-5.704 26.301 26.301 0 011.275-3.833 27.1 27.1 0 011.326-2.745 3.25 3.25 0 01.126-.229c1.991-3.549 4.699-6.698 7.75-9.616.326-.314.655-.62.99-.923a81.91 81.91 0 011.065-.965c.022-.02.044-.042.066-.06a96.905 96.905 0 011.74-1.508c.905-.766 1.825-1.518 2.753-2.266.03-.026.062-.049.092-.075.794-.636 1.596-1.268 2.394-1.896 1.256-.984 2.516-1.964 3.75-2.94.329-.258.654-.516.975-.774.358-.285.71-.569 1.06-.853 3.31-2.685 6.163-5.543 8.815-8.468.514-.568 1.024-1.14 1.53-1.717.24-.276.48-.55.716-.826 3.373-3.89 6.51-7.825 10.001-11.539a84.784 84.784 0 012.557-2.614 68.308 68.308 0 012.268-2.106 54.659 54.659 0 012.767-2.315 52.505 52.505 0 014.171-2.97c.362-.235.72-.464 1.083-.688 36.837-23.178 63.95-15.612 82.038 0a69.16 69.16 0 013.938 3.658 60 60 0 012.232 2.315c.081.082.155.168.233.258a67.231 67.231 0 011.902 2.143c.211.247.421.494.628.745.255.303.506.61.758.916a85.582 85.582 0 013.354 4.398c.185.255.366.513.547.77a93.377 93.377 0 013.528 5.413l.462.77c.155.259.307.517.454.775.148.254.296.512.44.767.148.258.292.512.432.766l.421.767c.144.254.281.509.41.76.137.254.27.508.403.758.133.251.262.505.392.756.125.25.255.501.38.748.126.25.248.501.37.748.484.988.942 1.964 1.378 2.925.214.486.428.969.632 1.444a82.132 82.132 0 012.357 6.115l.181.542.181.554c.044.142.092.28.133.422.066.21.133.42.195.633.071.228.137.456.2.684.122.419.24.838.351 1.26.096.356.188.711.277 1.07.018.067.037.131.052.198l.04.169c.052.21.104.419.152.632.133.557.255 1.118.369 1.68.063.306.126.609.181.915l.034.172c.055.288.107.577.155.864.066.386.129.775.184 1.16.048.292.089.587.13.883.003.04.011.086.018.13.026.195.052.393.074.591a56.407 56.407 0 01.377 4.686c.011.285.018.573.022.858.007.329.011.662.011.994z" fill="#A4CE2D"/><path d="M171 72.492c0 3.595-.388 7.174-1.23 10.652a39.916 39.916 0 01-1.626 5.15c-.029.072-.055.143-.085.214-.107.27-.214.539-.329.804a47.09 47.09 0 01-.55 1.253c-.104.232-.211.46-.322.688-.114.243-.232.483-.35.722-.045.086-.085.172-.13.255-.103.205-.21.41-.314.617l-.255.475a48.98 48.98 0 01-1.23 2.169c-.174.292-.351.583-.532.871-.041.072-.085.142-.129.214a77.67 77.67 0 01-.632.987c-.174.266-.347.531-.528.797-.156.232-.311.46-.47.692-.033.048-.066.097-.103.145-.163.24-.332.48-.499.719-.207.295-.417.583-.628.875-.044.06-.085.119-.129.176-.24.332-.488.662-.732.987-.147.195-.295.393-.447.583-.266.356-.539.707-.816 1.059a62.51 62.51 0 01-.798 1.002l-.089.109c-.266.333-.532.662-.805.991-.078.101-.163.202-.244.299a211.169 211.169 0 01-2.941 3.486 256.194 256.194 0 01-4.584 5.195 204.006 204.006 0 01-3.953 4.223c-6.436 6.691-13.404 12.934-20.981 17.908a80.758 80.758 0 01-2.852 1.792c-.351.209-.702.418-1.053.624l-.181.105c-.362.209-.724.415-1.09.617-.373.209-.746.415-1.123.613l-.51.27a61.85 61.85 0 01-3.439 1.687c-.374.172-.75.34-1.127.504-.155.068-.307.135-.462.199-.344.149-.691.291-1.038.434-.669.273-1.345.534-2.025.781-.258.098-.521.191-.783.285l-.443.153c-.244.082-.488.164-.732.243-.21.071-.425.138-.635.206-.008.003-.015.003-.022.007a63.552 63.552 0 01-3.24.928 63.566 63.566 0 01-2.679.613 47.615 47.615 0 01-1.987.37c-.226.038-.451.075-.68.109-.203.034-.41.063-.614.09-.247.037-.498.071-.746.104a56.28 56.28 0 01-7.895.453c-.159 0-.314-.004-.473-.008a64.199 64.199 0 01-7.67-.613 69.078 69.078 0 01-.897-.127l-.698-.112a65.51 65.51 0 01-2.945-.539 16.933 16.933 0 01-.646-.135 70.465 70.465 0 01-1.973-.445c-.44-.104-.876-.213-1.312-.325-.218-.056-.436-.112-.654-.172-.217-.056-.435-.116-.653-.176a78.784 78.784 0 01-2.594-.755 83.117 83.117 0 01-2.985-.977c-.358-.123-.72-.25-1.079-.377a105.502 105.502 0 01-3.321-1.261c-.196-.078-.395-.161-.602-.247a21.465 21.465 0 01-.81-.362 57.117 57.117 0 01-2.763-1.373 90.188 90.188 0 01-1.6-.868 145.35 145.35 0 01-3.694-2.128c-14.781-8.804-37.41-25.329-42.722-31.594a46.17 46.17 0 01-.794-.964 31.672 31.672 0 01-.603-.775 24.687 24.687 0 01-.532-.714c-.155-.21-.306-.423-.454-.64-.14-.198-.28-.4-.417-.602-.008-.015-.019-.03-.03-.045-.166-.25-.333-.501-.495-.755-.155-.243-.31-.486-.458-.733-.074-.116-.144-.236-.214-.356a48.51 48.51 0 01-.488-.83c0-.004 0-.004-.004-.007-.17-.307-.34-.614-.506-.924a35.78 35.78 0 01-.824-1.642l-.2-.43a34.463 34.463 0 01-1.381-3.475 30.253 30.253 0 01-.399-1.242 35.816 35.816 0 01-.436-1.612c-.026-.108-.052-.213-.074-.321-.066-.281-.13-.565-.185-.85a21.832 21.832 0 01-.221-1.193c-.015-.097-.034-.194-.045-.291a25.568 25.568 0 01-.203-1.616c-.022-.213-.037-.426-.055-.636 0-.019 0-.037-.004-.052a17.558 17.558 0 01-.04-.756c-.004-.026-.004-.048-.004-.07a28.659 28.659 0 01.018-2.731 25.27 25.27 0 01.68-4.533 26.305 26.305 0 011.275-3.834 27.1 27.1 0 011.326-2.745 3.52 3.52 0 01.125-.229c1.992-3.549 4.7-6.698 7.751-9.616a33.311 33.311 0 01.99-.923c.351-.326.706-.644 1.064-.965.023-.02.045-.042.067-.06a97.715 97.715 0 011.74-1.508c.905-.766 1.825-1.518 2.752-2.266.03-.026.063-.049.093-.075.794-.636 1.596-1.268 2.394-1.896.402-.314.801-.629 1.204-.943a381.956 381.956 0 003.52-2.771c.36-.285.71-.569 1.061-.853 3.31-2.686 6.163-5.543 8.815-8.468a157.22 157.22 0 001.53-1.717c.24-.276.48-.55.716-.826 3.373-3.89 6.51-7.825 10.001-11.539a84.668 84.668 0 012.557-2.614 68.105 68.105 0 012.268-2.106 54.659 54.659 0 012.767-2.315 52.505 52.505 0 014.171-2.97c.362-.235.72-.464 1.083-.688 36.837-23.178 63.95-15.612 82.038 0a69.536 69.536 0 013.938 3.658 59.574 59.574 0 012.464 2.573 65.282 65.282 0 011.903 2.143 86.567 86.567 0 011.385 1.66c.159.196.314.39.47.585a85.521 85.521 0 012.885 3.814c.185.255.366.513.547.771a93.41 93.41 0 013.99 6.182 76.186 76.186 0 01.894 1.541c.148.259.292.513.432.767l.421.767c.144.254.281.509.41.76.137.254.27.508.403.758.133.251.262.505.392.756.125.25.254.501.38.748.126.25.248.501.37.748.487.987.945 1.964 1.378 2.925.214.486.428.969.631 1.444a81.737 81.737 0 012.357 6.115c.063.183.122.363.181.542.063.187.122.37.181.554.045.142.093.28.133.422.067.21.133.42.196.633.07.228.137.456.2.684.122.419.24.838.351 1.26.096.356.188.711.277 1.07.018.067.037.131.051.198.015.056.026.113.041.169.052.21.104.419.152.632.133.557.254 1.118.369 1.68.063.306.126.609.181.916l.033.172c.056.288.107.576.155.864.067.385.13.774.185 1.159.048.292.089.587.129.883.004.04.012.086.019.13.026.195.052.393.074.591.022.165.04.33.059.49.066.595.126 1.186.174 1.78l.033.405.044.677c.015.25.03.5.041.755.011.195.018.385.026.58.011.284.018.572.022.856.007.33.011.662.011.995z" fill="#A4CE2D" opacity=".7"/><path opacity=".2" d="M4.909 78.639c-.075-.05-.056-.084 0 0z" fill="#263238"/><path opacity=".2" d="M39.469 75.34c-.377 2.542-2.231 4.61-4.644 5.411l-.916.303c-3.296 4.724-9.074 6.74-13.998 3.811l-1.441-.856-4.034-4.855-.048.011c-1.279.27-2.723.072-3.669-.841-.151.8-1.182 1.272-1.873.86-.69-.411-.78-1.556-.163-2.076-.812.726-2.068.393-2.852-.4a25.243 25.243 0 01.72-6.467 26.302 26.302 0 011.275-3.833 27.14 27.14 0 011.327-2.746 32.904 32.904 0 012.582-3.976l.466-.426c.35-.325.705-.643 1.063-.965.023-.019.045-.041.067-.06a97.308 97.308 0 011.74-1.507 147.9 147.9 0 012.752-2.267c.03-.026.063-.048.093-.075.794-.635 1.596-1.267 2.394-1.896.402-.314.801-.628 1.204-.942.244.03.48.086.71.168.986.348 1.156 1.264 1.84 1.893.908.841 1.78-.573 3.18-.528 4.304.135 2.634 4.604 4.736 4.043 9.078-2.423 7.552 9.332 3.606 11.913 2.328 1.952 4.334 3.243 3.883 6.302z" fill="#000"/><path d="M19.95 86.515c8.456 0 15.31-6.854 15.31-15.309 0-8.455-6.854-15.309-15.31-15.309-8.455 0-15.31 6.854-15.31 15.31 0 8.454 6.855 15.308 15.31 15.308z" fill="#fff" stroke="#263238" stroke-miterlimit="10"/><path d="M19.957 84.548c7.71 0 13.958-6.25 13.958-13.959s-6.249-13.958-13.957-13.958C12.248 56.63 6 62.88 6 70.589c0 7.71 6.249 13.959 13.957 13.959z" fill="#263238" stroke="#fff" stroke-miterlimit="10"/><path d="M4.95 76.09c-.88.554-1.131 2.413-.437 3.221.695.8 2.017.183 2.287-1.073.13.351.536.407.746.105.148-.217.156-.554.052-.786-.066-.056-.04-.097 0 0 .45.363 1.227-.034 1.334-.804-.33 2.057 1.518 3.852 2.878 2.805-.403.875.125 2.023.827 2.244.702.22 1.456-.198 2.128-.666.673-.467 1.36-.998 2.095-1.032.643-.03 1.234.337 1.843.554 1.944.684 4.22-.225 5.705-2.286.982 1.702 3.402 1.078 4.052-1.043.137.991.806 1.747 1.556 1.758.746.011 1.504-.726 1.758-1.713v.011c.015.939.843 1.399 1.434.793.754-.77 1.223-2.184.853-3.318 1.009-.04 1.98-1.223 2.136-2.592.155-1.368-.529-2.741-1.5-3.01 1.666-.7 2.974-3 3.036-5.345.06-2.342-1.13-4.522-2.767-5.068-.624-.21-1.352-.169-1.88.396-.196-1.335-.794-2.528-1.674-3.127-1.404-.96-3.358-.302-4.403 1.485.51-.923.543-2.259.08-3.134-.465-.872-1.385-1.223-2.168-.808-.17-1.432-1.26-2.45-2.327-2.173-1.064.277-1.929 1.81-1.836 3.258-.1-1.167-1.46-1.455-1.951-.475.04.09-.022.037 0 0-.68-1.444-2.061-2.184-3.343-1.762-1.364.453-2.509 2.188-2.683 4.077-.942-.868-2.312-.83-3.32.093-1.01.92-1.593 2.671-1.416 4.238-1.06-1.058-2.845-.482-3.572 1.156-.728 1.638-.226 3.96 1 4.645-.845.131-1.592 1.268-1.592 2.42.004 1.156.75 2.14 1.6 2.11-.857.074-1.662 1.1-1.788 2.262-.14 1.164.432 2.327 1.256 2.585z" fill="#95C70A"/><path d="M19.016 70.727c-.429-.363-.975-.538-1.496-.374-.521.165-1.002.715-1.12 1.391-.118.677.189 1.425.702 1.553.625.157 1.264-.55 1.9-.472.225.026.431.154.653.217.913.258 1.832-.568 2.608-1.35.274-.273.55-.557.735-.931.185-.374.263-.868.1-1.23-.225-.506-.78-.547-1.241-.45-.931.195-1.832.733-2.575 1.534.026-.187.055-.378.081-.569l-.347.681zm13.346-1.844c-.244-.209-.499-.422-.79-.493a.755.755 0 00-.835.351c-.263.438-.115 1.093.206 1.407.318.314.75.381 1.16.437.422.06.954.045 1.172-.448.158-.36.044-.816-.178-1.078-.221-.261-.528-.374-.82-.478l.085.302zm-20.885-7.641c-.857.509-1.53 1.564-1.751 2.738-.067.355-.067.793.17.965.166.12.38.052.576-.019l2.453-.897c-.392.217-.794.441-1.112.823-.318.377-.536.95-.443 1.466.107.606.62.95 1.112.912.491-.04.953-.381 1.356-.774.432-.419.857-.991.875-1.664.022-.677-.628-1.26-1.034-.804a9.106 9.106 0 002.645-1.702c.295-.27.584-.569.776-.961.188-.397.262-.906.1-1.29-.799-1.905-1.903 1.028-2.424 1.316-.983.538-2.054-.853-3.3-.109zm-3.949 8.58c-.092.389-.04.845.196 1.077.236.232.665.123.783-.254-.547.254-1.134.542-1.485 1.155-.35.614-.284 1.642.255 1.837.336.123.702-.116 1.016-.356a21.07 21.07 0 002.56-2.3c-.255.737.314 1.519.92 1.549.606.03 1.179-.43 1.707-.868.646-.539 1.393-1.35 1.241-2.278-.133-.808-.934-1.122-1.563-.841-.628.276-1.108.957-1.555 1.604.355-.666-.114-1.59-.713-1.657-.58-.067-1.171.43-1.54 1.003.687-.524.86-1.784-.045-1.874-.59-.056-1.622 1.56-1.777 2.203zm18.665-3.965c-.506-.217-1.157.255-1.308.947-.152.691.233 1.447.772 1.522-.399.067-.783.348-1.046.759-.147.228-.258.516-.232.8.04.423.384.677.716.674.333-.004.65-.206.957-.404-.328.06-.676.13-.942.407-.266.277-.388.835-.159 1.119.192.24.514.175.78.063.598-.25 1.16-.688 1.618-1.26.329.464.824.782 1.326.643.5-.134.935-.849.791-1.459a.935.935 0 00-.813-.725c-.358-.034-.716.116-1.064.28.355-.344.735-.725.872-1.264.137-.538-.125-1.23-.558-1.163-.484.079-.746.943-1.13 1.272-.458-.539.443-1.777-.58-2.21zm-8.644-2.049c-.558.512-.765 1.47-.743 2.322.026.94.34 1.927 1.002 2.263.871.442 1.99-.572 2.175-1.806.185-1.235-.417-2.443-1.26-2.963.004 0-.616-.333-1.174.184zm6.186-1.402c.074.078.148.16.222.24-.362-.588-1.153-.622-1.603-.064-.455.553-.473 1.578-.045 2.083.433.505 1.223.381 1.611-.25.628.34 1.47.141 1.932-.584.462-.726.38-1.934-.221-2.345-.602-.408-1.545.318-1.493 1.215l-.259-.362-.144.067zm6.761.994c-.447.58-.909 1.201-1.082 1.971-.174.771.074 1.725.661 1.886.584.157 1.157-.505 1.504-1.179.314-.61.558-1.357.395-2.02-.163-.661-.905-1.013-1.29-.47l-.188-.188zm-9.706-3.994c-.21-.625-.909-.804-1.378-.408-.47.4-.654 1.242-.462 1.882.189.64.698 1.047 1.238 1.088.665.052 1.47-.692 1.333-1.53.281.471.795.636 1.268.546.476-.09.92-.396 1.34-.725.57-.453 1.18-1.134 1.135-1.96-.037-.658-.521-1.141-1.035-1.17-.513-.03-1.023.31-1.422.766-.314.359-.576.793-.916 1.11-.34.319-.794.506-1.145.281l.044.12z" opacity=".2" fill="#fff"/><path d="M132.079 82.569h-85.22v36.336h85.22V82.568z" fill="#A4CE2D" stroke="#263238" stroke-miterlimit="10" stroke-linecap="round" stroke-linejoin="round"/><path d="M56.657 84.764h-8.016v4.492h8.017v-4.492zm73.455 21.906h-12.628v4.492h12.628v-4.492zm-.004-16.292h-7.796v4.492h7.796v-4.492zm-73.451 10.749h-8.016v4.492h8.017v-4.492zm-1.525-5.408H48.64v4.492h6.49v-4.492zm-2.054-5.479H48.64v4.492h4.437V90.24zm5.664 0h-4.437v4.492h4.437V90.24zm5.664 0h-4.437v4.492h4.437V90.24zm5.672 0H65.64v4.492h4.437V90.24zm5.656 0h-4.437v4.492h4.437V90.24zm5.672 0h-4.437v4.492h4.437V90.24zm5.656 0h-4.437v4.492h4.437V90.24zm5.672 0h-4.437v4.492h4.437V90.24zm5.664 0H93.96v4.492h4.437V90.24zm5.664 0h-4.437v4.492h4.437V90.24zm5.664 0h-4.437v4.492h4.437V90.24zm5.664 0h-4.437v4.492h4.437V90.24zm5.672 0h-4.437v4.492h4.437V90.24zm-67.984 21.969H48.64v4.492h4.437v-4.492zm5.664 0h-4.437v4.492h4.437v-4.492zm5.664 0h-4.437v4.492h4.437v-4.492zm6.651 0H65.64v4.492h5.416v-4.492zm28.323 0h-27.1v4.492h27.1v-4.492zm13.541 0h-4.437v4.492h4.437v-4.492zm5.672 0h-4.437v4.492h4.437v-4.492zm5.672 0h-4.437v4.492h4.437v-4.492zm-16.891 0h-6.89v4.492h6.89v-4.492zm22.735 0h-4.437v4.492h4.437v-4.492zm-69.281-16.49H56.39v4.492h4.437v-4.492zm5.664 0h-4.437v4.492h4.437v-4.492zm5.664 0h-4.437v4.492h4.437v-4.492zm5.672 0H73.39v4.492h4.437v-4.492zm5.656 0h-4.437v4.492h4.437v-4.492zm5.672 0h-4.437v4.492h4.437v-4.492zm5.656 0h-4.437v4.492h4.437v-4.492zm5.672 0h-4.437v4.492h4.437v-4.492zm5.664 0h-4.437v4.492h4.437v-4.492zm5.664 0h-4.437v4.492h4.437v-4.492zm5.664 0h-4.437v4.492h4.437v-4.492zm5.664 0h-4.437v4.492h4.437v-4.492zm6.972 0v9.968h-4.437v-5.476h-1.3v-4.492h5.737zm-67.988 5.476h-4.437v4.492h4.438v-4.492zm5.665 0h-4.437v4.492h4.437v-4.492zm5.664 0h-4.437v4.492h4.437v-4.492zm5.671 0h-4.436v4.492h4.436v-4.492zm5.656 0h-4.436v4.492h4.437v-4.492zm5.673 0h-4.437v4.492h4.437v-4.492zm5.656 0h-4.437v4.492h4.437v-4.492zm5.672 0h-4.437v4.492h4.437v-4.492zm5.664 0h-4.437v4.492h4.437v-4.492zm5.664 0h-4.437v4.492h4.437v-4.492zm5.664 0h-4.437v4.492h4.437v-4.492zm5.664 0H120v4.492h4.437v-4.492zm-64.719 5.475h-4.437v4.492h4.437v-4.492zm5.664 0h-4.437v4.492h4.437v-4.492zm5.664 0H66.61v4.492h4.437v-4.492zm5.672 0h-4.437v4.492h4.437v-4.492zm5.656 0h-4.436v4.492h4.436v-4.492zm5.672 0H83.61v4.492h4.437v-4.492zm5.657 0h-4.437v4.492h4.437v-4.492zm5.671 0h-4.436v4.492h4.436v-4.492zm5.665 0h-4.437v4.492h4.437v-4.492zm5.664 0h-4.437v4.492h4.437v-4.492zm5.664 0h-4.437v4.492h4.437v-4.492zM62.124 85.037h-4.437v4.492h4.438v-4.492zm5.665 0h-4.437v4.492h4.437v-4.492zm5.664 0h-4.437v4.492h4.437v-4.492zm5.671 0h-4.436v4.492h4.436v-4.492zm5.656 0h-4.436v4.492h4.437v-4.492zm5.673 0h-4.437v4.492h4.437v-4.492zm5.656 0h-4.437v4.492h4.437v-4.492zm5.672 0h-4.437v4.492h4.437v-4.492zm5.664 0h-4.437v4.492h4.437v-4.492zm5.664 0h-4.437v4.492h4.437v-4.492zm5.664 0h-4.437v4.492h4.437v-4.492zm5.664 0H120v4.492h4.437v-4.492zm5.672 0h-4.437v4.492h4.437v-4.492zM54.016 106.67h-5.375v4.492h5.375v-4.492z" fill="#fff" stroke="#263238" stroke-miterlimit="10"/><path d="M46.86 82.8l1.78-.602h82.282l1.171.595-85.234.007z" fill="#263238"/><path opacity=".2" d="M107.683 145.116l-1.732-10.566a8.658 8.658 0 00-2.346-4.136c-3.447-3.367-8.002-6.823-8.198-11.236-.3-6.744-1.338-6.542-1.227-8.206.004-.06.517-.804 1.186-2.469.214-.538.358-1.339.502-1.997a1.348 1.348 0 011.493-1.066c.465.064.924.277 1.252.595.632.621.913 1.537.939 2.431.026.89-.17 1.773-.37 2.641.621 1.406.913 3.115 1.112 4.641.396-1.234.695-2.48 1.09-3.71.082-.045.052-.142.13-.187-.558-1.212-.085-1.145-1.19-3.811-1.858-4.489-3.93-8.816-5.412-14.456-.119-.438-.111-1.156.033-1.586.536-1.612 2.176-1.242 2.893-.303.192.247.332.524.443.815.757 2.009 2.372 5.106 3.535 6.9l4.024 6.21s1.4-1.164 1.614-1.683l.004-.004c.21-.524.314-4.739.314-4.739s-.318.79-1.023.744c-.51-.037-1.545.262-2.28-.576-.602-.684-.602-1.713-.066-2.446l1.821-2.49s1.223-1.085 2.859-.349c1.633.741 3.218 2.282 3.218 2.282s1.515-.079 2.801.546c1.289.628 2.641 2.431 2.641 2.431s1.504.094 2.18.591c.17.124 2.464 3.74 1.636 6.557-.491 1.679-.794 4.118-1.015 4.772l-1.127 16.491 2.272 10.854-4.858 2.741a34.678 34.678 0 01-5.59 2.533l-3.558 1.241z" fill="#000"/><path d="M121.477 125.846l.044-16.531c.177-.67.321-3.123.698-4.833.639-2.865-1.884-6.32-2.065-6.433-.709-.449-2.213-.441-2.213-.441s-1.467-1.71-2.797-2.248c-1.322-.535-2.829-.355-2.829-.355s-1.681-1.433-3.362-2.061c-1.681-.625-2.83.538-2.83.538l-1.652 2.607c-.487.767-.417 1.796.226 2.439.79.79 1.802.419 2.312.419.71 0 .972-.808.972-.808s.174 4.211 0 4.746l-.004.004c-.181.535-1.503 1.788-1.503 1.788l-4.419-5.925c-1.282-1.713-3.096-4.694-3.983-6.646a3.004 3.004 0 00-.498-.785c-.776-.89-2.435-1.149-2.867.497-.115.441-.074 1.156.07 1.586 1.851 5.528 4.2 9.706 6.347 14.059 1.278 2.585.802 2.555 1.441 3.722-.074.052-.041.149-.118.194-.314 1.257-.529 2.518-.843 3.774-.299-1.507-.702-3.194-1.415-4.555.145-.879.281-1.773.193-2.663-.082-.891-.422-1.784-1.094-2.36a2.274 2.274 0 00-1.29-.509c-.698-.052-1.315.464-1.418 1.163-.1.666-.188 1.474-.373 2.024-.558 1.705-1.02 2.479-1.02 2.539 0 1.668 1.02 1.395 1.762 8.109.577 5.225 7.227 8.681 10.847 12.455l3.857 12.286c4.478-1.817 8.763-4.144 12.875-6.844l-3.051-10.952z" fill="#fff"/><path d="M119.581 103.382c.196-.486.429-.987.85-1.297.421-.311 1.079-.348 1.415.052a69.69 69.69 0 00-.879-2.555c-.237-.643-.503-1.312-1.027-1.75-.525-.434-1.389-.527-1.84-.011a20.46 20.46 0 01.103 5.909c-.136 1.063-.314 2.282.396 3.082.195.161.532-.127.41-.348-.059-.104-.266-.112-.359-.101.222-1.021.54-2.019.931-2.981z" fill="#A4CE2D"/><path d="M119.581 103.382c.196-.486.429-.987.85-1.297.421-.311 1.079-.348 1.415.052a69.69 69.69 0 00-.879-2.555c-.237-.643-.503-1.312-1.027-1.75-.525-.434-1.389-.527-1.84-.011a20.46 20.46 0 01.103 5.909c-.136 1.063-.314 2.282.396 3.082.195.161.532-.127.41-.348-.059-.104-.266-.112-.359-.101.222-1.021.54-2.019.931-2.981z" fill="#A4CE2D"/><path opacity=".5" d="M119.581 103.382c.196-.486.429-.987.85-1.297.421-.311 1.079-.348 1.415.052a69.69 69.69 0 00-.879-2.555c-.237-.643-.503-1.312-1.027-1.75-.525-.434-1.389-.527-1.84-.011a20.46 20.46 0 01.103 5.909c-.136 1.063-.314 2.282.396 3.082.195.161.532-.127.41-.348-.059-.104-.266-.112-.359-.101.222-1.021.54-2.019.931-2.981z" fill="#fff"/><path d="M113.688 101.606c.029.718.022 1.448.199 2.147.174.7.558 1.377 1.182 1.728-.365-1.395-.17-2.869.034-4.297l.365-2.603c.041-.303.089-.618.263-.865.173-.246.506-.415.779-.287-.365.22-.838-.075-1.06-.442-.222-.366-.307-.811-.569-1.148-.495-.643-1.552-.785-2.279-.613.218 2.135 1.001 4.174 1.086 6.38z" fill="#A4CE2D"/><path d="M113.688 101.606c.029.718.022 1.448.199 2.147.174.7.558 1.377 1.182 1.728-.365-1.395-.17-2.869.034-4.297l.365-2.603c.041-.303.089-.618.263-.865.173-.246.506-.415.779-.287-.365.22-.838-.075-1.06-.442-.222-.366-.307-.811-.569-1.148-.495-.643-1.552-.785-2.279-.613.218 2.135 1.001 4.174 1.086 6.38z" fill="#A4CE2D"/><path d="M113.688 101.606c.029.718.022 1.448.199 2.147.174.7.558 1.377 1.182 1.728-.365-1.395-.17-2.869.034-4.297l.365-2.603c.041-.303.089-.618.263-.865.173-.246.506-.415.779-.287-.365.22-.838-.075-1.06-.442-.222-.366-.307-.811-.569-1.148-.495-.643-1.552-.785-2.279-.613.218 2.135 1.001 4.174 1.086 6.38z" fill="#fff" opacity=".5"/><path d="M107.664 95.843c-.24-.176-.317-.497-.387-.785-.071-.292-.174-.61-.433-.756-1.134.73-.513 2.865-1.662 3.572-.222.138-.506.213-.628.445-.111.21-.041.486.122.658.162.172.395.258.628.303.912.165 1.873-.306 2.42-1.066.45-.624.761-1.638.539-2.382-.181.1-.429.138-.599.011zm-11.802 13.981c-.022.078-.036.179.03.232.096.082.225-.045.3-.15.476-.684 1.418-.995 2.201-.722.3-.007.4-.467.203-.695-.196-.228-.528-.27-.827-.27-.3 0-.62.015-.872-.145-.31-.199-.432-.599-.355-.943-.203.901-.45 1.799-.68 2.693z" fill="#A4CE2D"/><path d="M107.664 95.843c-.24-.176-.317-.497-.387-.785-.071-.292-.174-.61-.433-.756-1.134.73-.513 2.865-1.662 3.572-.222.138-.506.213-.628.445-.111.21-.041.486.122.658.162.172.395.258.628.303.912.165 1.873-.306 2.42-1.066.45-.624.761-1.638.539-2.382-.181.1-.429.138-.599.011zm-11.802 13.981c-.022.078-.036.179.03.232.096.082.225-.045.3-.15.476-.684 1.418-.995 2.201-.722.3-.007.4-.467.203-.695-.196-.228-.528-.27-.827-.27-.3 0-.62.015-.872-.145-.31-.199-.432-.599-.355-.943-.203.901-.45 1.799-.68 2.693z" opacity=".5" fill="#fff"/><path d="M110.902 95.558c-.647-.086-1.33-.104-1.892-.437-.705-.42-1.189-1.313-2.002-1.347-.724-.033-1.264.64-1.677 1.246-.048-.913.617-1.766 1.455-2.106.839-.34 1.803-.232 2.642.105.838.336 1.577.886 2.294 1.444.288.224.58.456.776.766.909 1.451-1.024.404-1.596.33z" fill="#A4CE2D"/><path opacity=".5" d="M110.902 95.558c-.647-.086-1.33-.104-1.892-.437-.705-.42-1.189-1.313-2.002-1.347-.724-.033-1.264.64-1.677 1.246-.048-.913.617-1.766 1.455-2.106.839-.34 1.803-.232 2.642.105.838.336 1.577.886 2.294 1.444.288.224.58.456.776.766.909 1.451-1.024.404-1.596.33z" fill="#fff"/><path d="M99.352 116.799c.045-.083.082-.165.122-.251a.275.275 0 00-.122.251z" fill="#A4CE2D"/><path d="M100.446 111.005c-.074-.92.056-1.847.019-2.771-.037-.924-.277-1.896-.942-2.532-.954-.909-3.566-.445-2.69 1.283.244.478.868.725 1.356.512.488-.217.728-.886.462-1.35 1.056 1.619.96 3.923-.226 5.449 1.353 1.186 1.785 3.314 1.042 4.956a.53.53 0 01.606-.007c.259.198.344.542.473.845.126.303.369.617.695.595.443-1.104.295-2.357.007-3.509-.288-1.155-.709-2.285-.802-3.471zm9.559-17.343a3.654 3.654 0 00-1.747-.744l1.747.744z" fill="#A4CE2D"/><path d="M114.345 105.365c-.141-.636-.429-1.227-.603-1.855-.402-1.462-.151-3.026-.336-4.533a7.849 7.849 0 00-2.745-5.034l-.661-.285a3.762 3.762 0 011.33 1.96c.51 1.784.672 3.65.898 5.498a75.21 75.21 0 001.537 8.457c.443-1.361.886-2.809.58-4.208zm-7.032-6.654c.458-.366.702-.95.78-1.537.07-.524.018-1.055-.041-1.578-.044.224-.333.415-.58.355-.314-.075-.521-.37-.698-.643-.045.157-.089.314-.137.47a23.086 23.086 0 01-.055-.253l-.174.224c.262.752.513 1.623.111 2.304-.196.33-.517.561-.831.778.472.34 1.167.247 1.625-.12z" fill="#A4CE2D"/><path d="M108.023 95.409l.023.187a.301.301 0 00-.023-.187zm-1.925 7.57c-1.296-2.577-2.593-5.154-4.016-7.66-.831-1.466-1.714-2.914-2.826-4.174-.491-.561-1.906-1.855-2.686-1.002-.52.568.163 1.604-.476 2.217.148.008.868-.07.946.027a11.473 11.473 0 012.478 7.252c.521-.415 1.234.16 1.644.692a122.951 122.951 0 017.009 10.136c-.421-1.545-.429-3.183-.883-4.72-.285-.965-.735-1.871-1.19-2.768zm15.051 6.279c.621-1.675 1.101-3.396 1.156-5.176.048-1.62-.314-3.299-1.16-4.683-.214-.351-1.101-1.784-1.588-1.668-.868.21.273 1.736.469 2.117.75 1.44 1.518 2.962 1.47 4.589-.037 1.253-.557 2.431-.975 3.613-.292.823-.528 1.702-.521 2.566-.063.097-.122.195-.192.288-.576.763-1.385 1.395-2.32 1.549.358-1.115.713-2.233 1.071-3.348.13-.396.174-.942-.055-1.219.074-.154.118-.314.114-.486-.011-.307-.184-.58-.314-.861-.495-1.077-.325-2.33-.207-3.512.148-1.458.204-2.958-.217-4.36-.422-1.403-1.401-2.705-2.775-3.169.118.127.236.258.351.385l-.466-.344.865 1.826c-.107.153-.214.306-.318.46.477-.255 1.086.112 1.304.613.218.498.159 1.07.108 1.612a32.637 32.637 0 00.435 9.074c-.055.695-.173 1.402-.532 1.997-.387.64-1.112 1.122-1.847 1.014.163-.718-.111-1.567-.713-1.994-.746 1.047-.306 2.674-.192 3.868.174 1.806.458 3.601.857 5.37.115-1.533.432-3.052.942-4.503.403 1.478.806 2.955 1.205 4.432.011-.415.029-.845.229-1.208.199-.362.639-.624 1.019-.478.314.119.484.456.61.77a13.901 13.901 0 01.743 8.09c.495.281 1.152-.06 1.426-.561.273-.501.273-1.107.262-1.683-.074-5.001-.159-9.99-.244-14.98zm-12.526 1.583c-.237.419.731 2.087.89 2.483.813 2.012 1.63 4.025 2.442 6.037a28.672 28.672 0 00-1.895-7.731c-.162-.415-.968-1.623-1.437-.789zm1.266-10.667c-.14.213-.336.475-.576.4-.226-.071-.263-.37-.259-.606l.067-4.2c-1.116.811-.972 1.874-1.053 3.082-.045.7.155 4.039-.318 4.447a12.446 12.446 0 002.749-3.389c-.192-.165-.473.052-.61.266z" fill="#A4CE2D"/><g opacity=".5" fill="#fff"><path d="M99.352 116.799c.045-.083.082-.165.122-.251a.275.275 0 00-.122.251z"/><path d="M100.446 111.005c-.074-.92.056-1.847.019-2.771-.037-.924-.277-1.896-.942-2.532-.954-.909-3.566-.445-2.69 1.283.244.478.868.725 1.356.512.488-.217.728-.886.462-1.35 1.056 1.619.96 3.923-.226 5.449 1.353 1.186 1.785 3.314 1.042 4.956a.53.53 0 01.606-.007c.259.198.344.542.473.845.126.303.369.617.695.595.443-1.104.295-2.357.007-3.509-.288-1.155-.709-2.285-.802-3.471zm9.559-17.343a3.654 3.654 0 00-1.747-.744l1.747.744z"/><path d="M114.345 105.365c-.141-.636-.429-1.227-.603-1.855-.402-1.462-.151-3.026-.336-4.533a7.849 7.849 0 00-2.745-5.034l-.661-.285a3.762 3.762 0 011.33 1.96c.51 1.784.672 3.65.898 5.498a75.21 75.21 0 001.537 8.457c.443-1.361.886-2.809.58-4.208zm-7.032-6.654c.458-.366.702-.95.78-1.537.07-.524.018-1.055-.041-1.578-.044.224-.333.415-.58.355-.314-.075-.521-.37-.698-.643-.045.157-.089.314-.137.47a23.086 23.086 0 01-.055-.253l-.174.224c.262.752.513 1.623.111 2.304-.196.33-.517.561-.831.778.472.34 1.167.247 1.625-.12z"/><path d="M108.023 95.409l.023.187a.301.301 0 00-.023-.187zm-1.925 7.57c-1.296-2.577-2.593-5.154-4.016-7.66-.831-1.466-1.714-2.914-2.826-4.174-.491-.561-1.906-1.855-2.686-1.002-.52.568.163 1.604-.476 2.217.148.008.868-.07.946.027a11.473 11.473 0 012.478 7.252c.521-.415 1.234.16 1.644.692a122.951 122.951 0 017.009 10.136c-.421-1.545-.429-3.183-.883-4.72-.285-.965-.735-1.871-1.19-2.768zm15.051 6.279c.621-1.675 1.101-3.396 1.156-5.176.048-1.62-.314-3.299-1.16-4.683-.214-.351-1.101-1.784-1.588-1.668-.868.21.273 1.736.469 2.117.75 1.44 1.518 2.962 1.47 4.589-.037 1.253-.557 2.431-.975 3.613-.292.823-.528 1.702-.521 2.566-.063.097-.122.195-.192.288-.576.763-1.385 1.395-2.32 1.549.358-1.115.713-2.233 1.071-3.348.13-.396.174-.942-.055-1.219.074-.154.118-.314.114-.486-.011-.307-.184-.58-.314-.861-.495-1.077-.325-2.33-.207-3.512.148-1.458.204-2.958-.217-4.36-.422-1.403-1.401-2.705-2.775-3.169.118.127.236.258.351.385l-.466-.344.865 1.826c-.107.153-.214.306-.318.46.477-.255 1.086.112 1.304.613.218.498.159 1.07.108 1.612a32.637 32.637 0 00.435 9.074c-.055.695-.173 1.402-.532 1.997-.387.64-1.112 1.122-1.847 1.014.163-.718-.111-1.567-.713-1.994-.746 1.047-.306 2.674-.192 3.868.174 1.806.458 3.601.857 5.37.115-1.533.432-3.052.942-4.503.403 1.478.806 2.955 1.205 4.432.011-.415.029-.845.229-1.208.199-.362.639-.624 1.019-.478.314.119.484.456.61.77a13.901 13.901 0 01.743 8.09c.495.281 1.152-.06 1.426-.561.273-.501.273-1.107.262-1.683-.074-5.001-.159-9.99-.244-14.98zm-12.526 1.583c-.237.419.731 2.087.89 2.483.813 2.012 1.63 4.025 2.442 6.037a28.672 28.672 0 00-1.895-7.731c-.162-.415-.968-1.623-1.437-.789zm1.266-10.667c-.14.213-.336.475-.576.4-.226-.071-.263-.37-.259-.606l.067-4.2c-1.116.811-.972 1.874-1.053 3.082-.045.7.155 4.039-.318 4.447a12.446 12.446 0 002.749-3.389c-.192-.165-.473.052-.61.266z"/></g><path d="M96.317 109.618a4.7 4.7 0 00-1.083 1.235l1.083-1.235z" fill="#fff"/><path d="M111.654 143.654l-3.857-12.287c-3.62-3.774-10.27-7.23-10.846-12.455-.743-6.71-1.763-6.441-1.763-8.109 0-.06.462-.837 1.02-2.539.18-.554.273-1.362.373-2.024.103-.699.72-1.215 1.419-1.163.469.034.942.213 1.289.509.672.576 1.012 1.473 1.094 2.36.088.89-.052 1.78-.193 2.663.713 1.361 1.116 3.044 1.415 4.555.314-1.256.529-2.517.843-3.773.077-.049.044-.146.118-.195-.635-1.167-.163-1.137-1.441-3.721-2.146-4.354-4.5-8.532-6.347-14.06-.148-.426-.185-1.144-.07-1.586.432-1.645 2.091-1.384 2.867-.497.21.232.37.501.499.785.886 1.953 2.7 4.934 3.982 6.647l4.419 5.924s1.319-1.253 1.503-1.788l.004-.003c.174-.535 0-4.747 0-4.747s-.266.808-.972.808c-.509 0-1.522.367-2.312-.419-.643-.64-.713-1.668-.226-2.438l1.652-2.607s1.149-1.164 2.83-.539c1.681.628 3.362 2.06 3.362 2.06s1.507-.179 2.829.356c1.33.539 2.797 2.248 2.797 2.248s1.507-.007 2.213.441c.177.113 2.704 3.565 2.065 6.434-.38 1.709-.521 4.162-.698 4.832l-.044 16.532 3.062 10.962" stroke="#263238" stroke-width=".5" stroke-miterlimit="10"/><path d="M112.703 95.596a29.81 29.81 0 011.009 7.488c.003.422-.004.856.133 1.256.133.401.439.771.846.857m3.247-7.144c1.097 2.341-.026 7.57.055 7.94.081.367.292.726.624.898M108.41 95.274c-.13.744-.237 1.608-.366 2.353a4.382 4.382 0 01-1.482-2.978m-5.233 20.582c-.266.12-.532.236-.798.356m1.006.292a4.745 4.745 0 00-.008 1.892m4.674-8.882c.296.538.591 1.073.883 1.612m.812-7.511c.292-.419.588-.838.88-1.257m11.488 7.156c-.089.329-.177.658-.266.983m-1.883-3.68c.259-.838.517-1.675.78-2.513m1.822-1.942c.458-.269 1.119-.06 1.345.422m-6.658-4.716a1.9 1.9 0 011.781.412m-18.234 2.083a2.69 2.69 0 012.294-.875m-5.622-6.183a2.451 2.451 0 011.862-.44m-1.178 17.178a4.712 4.712 0 00-1.082 1.234m1.437-2.932c.584-.423 1.515.524 2.05.041.215-.191.23-.524.181-.812-.047-.284-.147-.572-.107-.856m14.353-.965a6.846 6.846 0 01.406 4.795m3.877-2.491a3.147 3.147 0 01-.369 2.057" stroke="#263238" stroke-width=".5" stroke-miterlimit="10"/><path opacity=".2" d="M81.721 113.245c.033.258.022.524-.033.778-.24 1.126-.935 4.406-1.19 6.201-.303 2.192-3.801 8.977-3.801 8.977s-3.222 4.054-4.862 6.164c-.806 1.036-2.08 5.229-3.163 9.223a90.308 90.308 0 01-4.063-1.354c-1.112-.4-2.224-.823-3.322-1.26-1.544-.617-3.513-1.597-5.774-2.85.613-2.256 1.023-3.991 1.016-4.092-.019-.236 1.315-2.835 1.315-2.835l-1.164-15.5-.687-2.36a18.295 18.295 0 01-.2-9.466l2.007-3.015.938-.071 2.904-4.106s1.57-.48 1.973.718c.402 1.2-1.308 3.433-1.308 3.433l-.588 3.692 1.397 3.456.724.269s.244-6.085.078-7.301l1.544-5.554s.92-1.855 1.204-2.79c.281-.932 1.933-1.856 2.882-.221 0 0 .528.83.148 1.971-.388 1.14-.71 2.038-.71 2.038s-.35 4.706-.461 4.837c-.111.123.683 7.005.683 7.005l.606.273.214-6.564 1.26-6.168s-.103-2.966 1.962-2.606c0 0 .968-.113 1.518.957.55 1.066.026 8.165.026 8.165l.51 7.338.816 5.659.96-3.879s.056-5.557 3.522-6.033c0 0 1.03-.187 1.241.539.21.722-.514 2.207-.41 3.628.077.999.218 2.125.288 2.704z" fill="#000"/><path d="M80.666 106.379c-.159-.741-1.197-.632-1.197-.632-3.49.209-3.96 5.748-3.96 5.748l-1.249 3.793-.391-5.708.04-7.357s1.057-7.039.584-8.146c-.465-1.107-1.444-1.07-1.444-1.07-2.033-.516-2.15 2.45-2.15 2.45l-1.715 6.052-.702 6.527-.584-.318s-.277-6.923-.158-7.039c.118-.12.823-4.788.823-4.788s.388-.868.858-1.978c.465-1.108 0-1.979 0-1.979-.824-1.702-2.539-.909-2.89 0-.35.909-1.407 2.69-1.407 2.69l-1.958 5.419c.074 1.223-.62 7.275-.62 7.275l-.703-.326-1.134-3.553.86-3.64s1.874-2.094 1.564-3.32c-.314-1.224-1.914-.868-1.914-.868l-3.203 3.874h-.942l-2.224 2.851a18.267 18.267 0 00-.51 9.455l.51 2.405v15.544s-1.522 2.491-1.522 2.727c0 .108-.628 2.072-1.508 4.522 3.831 2.281 7.13 4.046 9.47 4.978 1.096.441 2.208.86 3.324 1.26 1.404-3.991 3.044-8.262 3.95-9.257 1.795-1.978 5.308-5.775 5.308-5.775s3.998-6.496 4.463-8.658c.388-1.773 1.323-4.99 1.648-6.097.074-.247.107-.512.092-.774-.026-.583-.081-1.717-.081-2.719-.007-1.41.828-2.835.672-3.568z" fill="#fff"/><path d="M56.69 104.812c.595-.752 1.825-1.044 2.516-.382.399.382.532.958.631 1.5.1.542.2 1.122.558 1.541.355.419 1.068.583 1.445.183.048.819.1 1.638.148 2.457a9.799 9.799 0 001.27-5.026c-.018-.849-.144-1.717.052-2.544.196-.826.828-1.634 1.67-1.672.931-.041 1.666.876 1.847 1.803.178.928-.03 1.878-.088 2.82a8.709 8.709 0 00.801 4.193c.196-.4.392-.8.588-1.204.177.804.35 1.608.528 2.412.151-1.773.307-3.542.458-5.315.044-.501.089-1.017.322-1.458.229-.445.69-.805 1.185-.756.666.067 1.05.786 1.271 1.425 1.667 4.765.98 10.001.274 15.006.462.082.85-.389.968-.849.114-.46.074-.961.247-1.403.174-.441.71-.808 1.105-.553.584.37.173 1.518.787 1.836a8.557 8.557 0 011.673-4.088c.41-.539 1.024-1.073 1.674-.901.484.127.802.628.872 1.129.07.501.787-1.571.665-1.081.28-2.883-.281-3.19 0-6.074.052-.52.883-1.425.528-1.806-.336-.363-1.341-.894-1.788-.685-.447.21-1.899.939-2.187 1.343-1.814 2.536-1.692 6.212-2.257 9.294-.48-4.697-.96-9.474-.111-14.115.469-2.562 1.334-5.229.517-7.701-.373-1.126-1.363-2.256-2.52-2.042-.93.172-1.496 1.125-1.873 2.004-1.27 2.955-1.836 6.164-2.394 9.34l2.084-9.583c.181-.83.362-1.687.214-2.524-.148-.838-.713-1.657-1.537-1.833-.816-.172-1.625.314-2.238.883-2.195 2.034-3.015 5.135-3.728 8.06.251-.763.506-1.556.428-2.357-.077-.8-.58-1.62-1.36-1.791-1.004-.225-1.92.684-2.36 1.627-.443.942-.661 2.023-1.363 2.786-.514-.583-1.478-.55-2.124-.12-.643.434-1.035 1.156-1.349 1.871a17.597 17.597 0 00-1.43 8.408c.51-1.149 1.796-1.893 3.034-1.747l-.222-1.911" fill="#A4CE2D"/><path d="M59.124 110.896c-.03.471-.063.943-.093 1.418.144-.393.713-.539 1.024-.262-.07-.299.114-.591.232-.875.119-.285.13-.689-.144-.823-.325-.161-.646.217-.816.538l-.044-.351-.16.355zm5.294-.845a3.31 3.31 0 00-.746 1.564c.159-.161.329-.322.54-.401.21-.078.48-.044.612.139.085.112.115.277.237.344.126.067.284-.015.362-.135.074-.119.085-.269.096-.411.019-.273.033-.55-.044-.812-.078-.262-.27-.505-.532-.561-.263-.056-.577.139-.577.412l.052-.139zm5.139 1.291a4.259 4.259 0 00-.776 1.881c.274-.041.499-.221.717-.389.218-.172.454-.344.728-.367.273-.022.584.18.576.457-.052-.314-.004-.636.03-.95.033-.318.048-.647-.07-.943-.119-.295-.4-.546-.714-.527-.314.018-.583.389-.436.669l-.055.169zm-14.121 1.873a3.741 3.741 0 00-.428 1.762c.004-.28.266-.509.54-.55.273-.041.55.068.79.213.055-.284.11-.575.052-.856-.06-.281-.263-.554-.544-.602-.28-.045-.59.228-.513.505-.03-.071-.06-.142-.089-.217l.192-.255z" fill="#A4CE2D"/><path opacity=".5" d="M56.69 104.812c.595-.752 1.825-1.044 2.516-.382.399.382.532.958.631 1.5.1.542.2 1.122.558 1.541.355.419 1.068.583 1.445.183.048.819.1 1.638.148 2.457a9.799 9.799 0 001.27-5.026c-.018-.849-.144-1.717.052-2.544.196-.826.828-1.634 1.67-1.672.931-.041 1.666.876 1.847 1.803.178.928-.03 1.878-.088 2.82a8.709 8.709 0 00.801 4.193c.196-.4.392-.8.588-1.204.177.804.35 1.608.528 2.412.151-1.773.307-3.542.458-5.315.044-.501.089-1.017.322-1.458.229-.445.69-.805 1.185-.756.666.067 1.05.786 1.271 1.425 1.667 4.765.98 10.001.274 15.006.462.082.85-.389.968-.849.114-.46.074-.961.247-1.403.174-.441.71-.808 1.105-.553.584.37.173 1.518.787 1.836a8.557 8.557 0 011.673-4.088c.41-.539 1.024-1.073 1.674-.901.484.127.802.628.872 1.129.07.501.787-1.571.665-1.081.28-2.883-.281-3.19 0-6.074.052-.52.883-1.425.528-1.806-.336-.363-1.341-.894-1.788-.685-.447.21-1.899.939-2.187 1.343-1.814 2.536-1.692 6.212-2.257 9.294-.48-4.697-.96-9.474-.111-14.115.469-2.562 1.334-5.229.517-7.701-.373-1.126-1.363-2.256-2.52-2.042-.93.172-1.496 1.125-1.873 2.004-1.27 2.955-1.836 6.164-2.394 9.34l2.084-9.583c.181-.83.362-1.687.214-2.524-.148-.838-.713-1.657-1.537-1.833-.816-.172-1.625.314-2.238.883-2.195 2.034-3.015 5.135-3.728 8.06.251-.763.506-1.556.428-2.357-.077-.8-.58-1.62-1.36-1.791-1.004-.225-1.92.684-2.36 1.627-.443.942-.661 2.023-1.363 2.786-.514-.583-1.478-.55-2.124-.12-.643.434-1.035 1.156-1.349 1.871a17.597 17.597 0 00-1.43 8.408c.51-1.149 1.796-1.893 3.034-1.747l-.222-1.911" fill="#fff"/><path d="M59.124 110.896c-.03.471-.063.943-.093 1.418.144-.393.713-.539 1.024-.262-.07-.299.114-.591.232-.875.119-.285.13-.689-.144-.823-.325-.161-.646.217-.816.538l-.044-.351-.16.355zm5.294-.845a3.31 3.31 0 00-.746 1.564c.159-.161.329-.322.54-.401.21-.078.48-.044.612.139.085.112.115.277.237.344.126.067.284-.015.362-.135.074-.119.085-.269.096-.411.019-.273.033-.55-.044-.812-.078-.262-.27-.505-.532-.561-.263-.056-.577.139-.577.412l.052-.139zm5.139 1.291a4.259 4.259 0 00-.776 1.881c.274-.041.499-.221.717-.389.218-.172.454-.344.728-.367.273-.022.584.18.576.457-.052-.314-.004-.636.03-.95.033-.318.048-.647-.07-.943-.119-.295-.4-.546-.714-.527-.314.018-.583.389-.436.669l-.055.169zm-14.121 1.873a3.741 3.741 0 00-.428 1.762c.004-.28.266-.509.54-.55.273-.041.55.068.79.213.055-.284.11-.575.052-.856-.06-.281-.263-.554-.544-.602-.28-.045-.59.228-.513.505-.03-.071-.06-.142-.089-.217l.192-.255z" opacity=".5" fill="#fff"/><path d="M51.813 136.996c.879-2.45 1.507-4.414 1.507-4.522 0-.236 1.522-2.727 1.522-2.727v-15.544l-.51-2.405a18.25 18.25 0 01.51-9.455l2.224-2.85h.942l3.203-3.875s1.6-.356 1.914.867c.314 1.23-1.563 3.322-1.563 3.322l-.86 3.639 1.134 3.553.701.326s.695-6.052.621-7.275l1.958-5.42s1.057-1.78 1.408-2.689c.35-.909 2.069-1.702 2.889 0 0 0 .465.868 0 1.979-.47 1.107-.857 1.978-.857 1.978s-.702 4.668-.824 4.788c-.118.116.159 7.039.159 7.039l.583.318.702-6.527 1.715-6.052s.118-2.966 2.15-2.45c0 0 .975-.04 1.444 1.07.47 1.104-.584 8.146-.584 8.146l-.04 7.357.391 5.708 1.25-3.793s.468-5.539 3.96-5.748c0 0 1.038-.109 1.197.632.155.737-.68 2.162-.68 3.587 0 1.002.055 2.132.081 2.719.015.262-.015.523-.092.774-.325 1.103-1.26 4.324-1.648 6.096-.465 2.162-4.463 8.659-4.463 8.659s-3.513 3.796-5.309 5.775c-.905.995-2.545 5.266-3.95 9.257" stroke="#263238" stroke-width=".5" stroke-miterlimit="10"/><path d="M62.478 107.912a2.29 2.29 0 01-.525 2.132l.525-2.132z" fill="#fff"/><path d="M62.478 107.912a2.29 2.29 0 01-.525 2.132" stroke="#263238" stroke-width=".5" stroke-miterlimit="10"/><path d="M56.516 113.142c.51-.797 1-1.889.864-2.828-.266-1.836-1.093-3.95-.72-5.767.236-1.16.476-2.323.713-3.483" fill="#fff"/><path d="M56.516 113.142c.51-.797 1-1.889.864-2.828-.266-1.836-1.093-3.95-.72-5.767.236-1.16.476-2.323.713-3.483m13.877-5.271a3.583 3.583 0 011.844.004l.022-.52m-6.726-1.82c.355.258.854.291 1.238.086.385-.206.64-.644.628-1.085m11.494 13.981c-1.026.235-1.791 1.309-1.695 2.367.303.09.602.183.905.273" stroke="#263238" stroke-width=".5" stroke-miterlimit="10"/><path d="M67.857 106.899c.04.628-.033 2.128.007 2.756l-.007-2.756z" fill="#fff"/><path d="M67.857 106.899c.04.628-.033 2.128.007 2.756" stroke="#263238" stroke-width=".5" stroke-miterlimit="10"/><path d="M68.538 107.766c-.074 1.029-.148 2.058-.225 3.082.007-.131.01-.261.018-.392" fill="#fff"/><path d="M68.538 107.766c-.074 1.029-.148 2.058-.225 3.082.007-.131.01-.261.018-.392" stroke="#263238" stroke-width=".5" stroke-miterlimit="10"/><path d="M74.172 116.436a5.196 5.196 0 01-.344 3.388l.344-3.388z" fill="#fff"/><path d="M74.172 116.436a5.196 5.196 0 01-.344 3.388m-9.019-8.777c-.805.894-.687 3.037-.118 4.219m6.077-2.745c.018.964-.33 1.933-.987 2.741m-10.834-3.789a3.867 3.867 0 00.55 2.607m-3.977.183c-.04.707.167 1.421.57 1.997m4.129-19.24a1.165 1.165 0 011.293.21c.151-.202.303-.408.458-.61M64 99.766c.61-.393 1.504-.24 1.954.337m3.968 1.533a2.442 2.442 0 012.098.045m-15.27 3.093c.384-.669 1.178-1.07 1.936-.972m-4.413 4.551c.011-.482.403-.931.876-.994" stroke="#263238" stroke-width=".5" stroke-miterlimit="10"/><path d="M149.47 81.476c8.457 0 15.313-6.941 15.313-15.503 0-8.562-6.856-15.503-15.313-15.503-8.458 0-15.314 6.94-15.314 15.503 0 8.562 6.856 15.503 15.314 15.503z" stroke="#263238" stroke-miterlimit="10" stroke-linecap="round" stroke-linejoin="round"/><path opacity=".2" d="M166.797 66.377c-3.265 5.42-4.426 4.69-15.56 10.09-5.653 2.742-11.117-6.073-7.423-15.12.181-.442 1.777-2.675 1.777-2.675.673-2.992 3.126-5.498 6.078-6.201 2.948-.707 6.251.419 8.176 2.79 2.091-1.874 5.124-2.57 7.824-1.893.13.382.252.756.37 1.122.044.142.092.28.133.423.14.438.273.875.395 1.317.244.837.469 1.679.68 2.528-1.23-.348-2.468-.355-3.635.22-.817.404-1.5 1.07-2.35 1.4-.85.325-2.025.142-2.35-.719.41 1.728 2.202 1.212 3.924 1.553 2.66.53 3.336 2.883 1.961 5.165z" fill="#000"/><path d="M161.771 63.706s2.741-.378 4.045-.18a2.486 2.486 0 011.577.917.893.893 0 01.189.493l.148 2.17a.888.888 0 01-.237.673c-.535.565-2.15 1.593-6.927 1.964-6.727.516 1.205-6.037 1.205-6.037z" fill="#fff" stroke="#263238" stroke-miterlimit="10" stroke-linecap="round" stroke-linejoin="round"/><path d="M159.766 58.1c.772.972 2.242 3.175 2.242 6.594 0 2.584-2.955 11.411-10.525 12.484-8.013 1.138-14.453-5.804-13.078-14.16.953-5.779 14.929-13.012 21.361-4.918z" fill="#fff" stroke="#263238" stroke-miterlimit="10" stroke-linecap="round" stroke-linejoin="round"/><path d="M149.97 75.252c6.421 0 11.626-4.989 11.626-11.142 0-6.154-5.205-11.142-11.626-11.142-6.421 0-11.626 4.988-11.626 11.142 0 6.153 5.205 11.142 11.626 11.142z" fill="#fff"/><path d="M149.953 73.838c5.272 0 9.546-4.094 9.546-9.144s-4.274-9.145-9.546-9.145c-5.273 0-9.547 4.094-9.547 9.145 0 5.05 4.274 9.144 9.547 9.144z" fill="#263238"/><path d="M161.596 64.11c0-6.153-5.205-11.142-11.626-11.142-6.421 0-11.626 4.99-11.626 11.142m20.187 7.54c1.907-1.983 3.067-4.63 3.067-7.54m-19.762 7.951c2.098 1.975 4.973 3.19 8.142 3.19 1.947 0 3.784-.46 5.398-1.27m-15.22-3.906c.152.228.314.453.484.673m-2.296-6.638c0 1.701.399 3.31 1.108 4.753" stroke="#263238" stroke-miterlimit="10" stroke-linecap="round" stroke-linejoin="round"/><path d="M167.044 67.157s-2.073-1.466-5.435-.138l5.435.138z" fill="#fff"/><path d="M167.044 67.157s-2.073-1.466-5.435-.138" stroke="#263238" stroke-miterlimit="10" stroke-linecap="round" stroke-linejoin="round"/><path d="M165.253 68.18c-.794.24-2.124.512-4.3.684l4.3-.684z" fill="#fff"/><path d="M165.253 68.18c-.794.24-2.124.512-4.3.684" stroke="#263238" stroke-miterlimit="10" stroke-linecap="round" stroke-linejoin="round"/><path d="M166.33 67.716s-.126.112-.518.27l.518-.27z" fill="#fff"/><path d="M166.33 67.716s-.126.112-.518.27" stroke="#263238" stroke-miterlimit="10" stroke-linecap="round" stroke-linejoin="round"/><path d="M168.17 54.913c-.04-.142-.088-.28-.133-.422a78.988 78.988 0 00-2.719-7.211c-.203-.475-.417-.958-.632-1.444l-.247.022c-1.06.109-2.176.244-3.048.853-.876.621-1.393 1.896-.828 2.813.555.909 2.007 1.414 1.777 2.45-2.368 1.35-5.257 1.193-7.891 1.873a12.777 12.777 0 00-4.4 2.102c-.004 0-.004.004-.007.004a13.7 13.7 0 00-1.197 1.017c-.167.161-.34.337-.488.532-.004.003-.004.003-.004.007-.218.28-.384.595-.417.95-.092.999.805 1.68 1.762 2.113.177.083.166.34-.015.404-.624.255-1.234.55-1.725 1.01-.004 0-.007.004-.011.008-.303.276-.055.796.358.74.045-.007.1-.011.148-.015.407-.03.787.019 1.116.135.565.202.96.59 1.001 1.07.059.759-.794 1.443-1.903 1.53-.269.026-.062.35.333.418.787.142 1.588-.011 2.364-.194.928-.225 1.918-.55 2.442-1.354.222-.34.289-.786.222-1.19-.092-.553-.436-1.036-.983-1.092a31.994 31.994 0 005.069-1.028h.004l.521-.161c.495-.15 1.016-.333 1.429-.632a2.01 2.01 0 00.625-.696c.384-.752-.159-1.941-.979-1.784 2.383-.946 4.902-1.5 7.311-2.371a21.56 21.56 0 001.145-.457z" fill="#fff"/><path opacity=".2" d="M149.921 22.56c-2.231 2.01-4.781 3.715-7.352 5.252-13.451 8.056-28.646 12.881-44.104 15.234-15.454 2.352-31.196 2.281-46.771.983-3.06-.254-6.17-.568-8.981-1.817-2.383-1.063-4.544-2.91-5.557-5.3 3.373-3.89 6.51-7.825 10.001-11.539a84.668 84.668 0 012.557-2.614 68.108 68.108 0 012.268-2.106 54.612 54.612 0 012.767-2.315 52.505 52.505 0 014.171-2.97c.362-.235.72-.464 1.083-.688 36.837-23.178 63.95-15.612 82.038 0a69.536 69.536 0 013.938 3.658 59.574 59.574 0 012.464 2.573c.506.546.998 1.096 1.478 1.65z" fill="#A4CE2D"/><path d="M151.374 18.843l-123.936.572 1.873-2.842a4.837 4.837 0 014.041-2.188H145.5c1.471 0 2.863.673 3.787 1.832l2.087 2.626z" fill="#fff" stroke="#263238" stroke-miterlimit="10" stroke-linecap="round" stroke-linejoin="round"/><path d="M91.563 70.073h-6.79c-6.968 0-12.617-5.718-12.617-12.772v-6.875c0-7.054 5.649-12.773 12.617-12.773h6.79c6.968 0 12.617 5.72 12.617 12.773v6.875c0 7.054-5.65 12.772-12.617 12.772z" fill="#757575" stroke="#263238" stroke-miterlimit="10" stroke-linecap="round" stroke-linejoin="round"/><path d="M77.977 56.6v4.609c0 1.447 1.156 2.618 2.586 2.618h15.616c1.422 0 2.571-1.163 2.586-2.6.019-2.072.13-4.626.13-4.626H77.976z" fill="#999" stroke="#263238" stroke-miterlimit="10" stroke-linecap="round" stroke-linejoin="round"/><path d="M135.134 58.142h-91.33a2.34 2.34 0 01-2.18-1.508L27.538 20.033c-.37-.958.328-1.99 1.344-1.99h121.174c1.016 0 1.714 1.032 1.345 1.99l-14.087 36.601a2.341 2.341 0 01-2.18 1.508z" fill="#BFBFBF" stroke="#263238" stroke-miterlimit="10" stroke-linecap="round" stroke-linejoin="round"/><path d="M135.811 54.952H42.908L30.125 20.358h118.41l-12.724 34.594zM98.79 58.093H78.077v1.436H98.79v-1.436z" fill="#263238"/><path d="M122.243 53.467H56.637c-.362 0-.705-.165-.768-.37L46.537 23.08c-.104-.336.184-.61.65-.61h84.502c.466 0 .754.274.651.61l-9.333 30.015c-.062.206-.406.37-.764.37z" fill="#A4CE2D"/><path d="M122.003 52.786H56.885l-7.932-26.372h80.982l-7.932 26.372z" fill="#263238"/><path d="M66.223 32.96H53.895c-.303 0-.506.164-.447.37s.35.37.65.37h12.258c.303 0 .517-.164.484-.37-.037-.202-.314-.37-.617-.37zm.412 2.281H56.15c-.299 0-.498.16-.447.36.052.197.337.354.636.354h10.426c.295 0 .51-.16.476-.355-.033-.198-.306-.359-.606-.359z" fill="#fff"/><path opacity=".5" d="M67.036 37.44H55.14c-.296 0-.488.154-.436.344.051.191.332.344.624.344h11.83c.291 0 .502-.153.469-.344-.03-.19-.296-.344-.591-.344z" fill="#fff"/><path d="M67.42 39.56h-6.986c-.288 0-.488.15-.444.333.045.184.315.333.603.333h6.949c.288 0 .495-.15.462-.333-.034-.183-.296-.333-.584-.333zm.369 2.054H56.292c-.285 0-.473.146-.425.322.052.176.318.322.602.322h11.434c.281 0 .488-.142.455-.322-.03-.176-.285-.322-.57-.322zm.361 1.983h-9.284c-.28 0-.47.138-.421.31.044.172.307.31.584.31h9.232c.277 0 .477-.138.447-.31-.026-.168-.277-.31-.558-.31zm.352 1.919h-9.133c-.273 0-.462.134-.417.303.044.164.299.299.572.299h9.085c.273 0 .47-.135.443-.3-.03-.168-.273-.302-.55-.302zm.332 1.858H58.87c-.27 0-.455.13-.41.292.044.16.295.292.565.292h9.912c.27 0 .466-.131.436-.292-.026-.161-.266-.292-.54-.292z" fill="#fff"/><path opacity=".5" d="M69.167 49.173H62.73c-.266 0-.45.127-.414.284.037.157.285.28.547.28h6.402c.266 0 .459-.127.429-.28-.026-.157-.262-.284-.528-.284zM65.8 30.6h-9.19c-.31 0-.517.172-.461.385.055.213.347.381.657.381h9.133c.306 0 .528-.172.491-.381-.04-.213-.321-.385-.632-.385z" fill="#fff"/><path d="M65.353 28.145h-12.79c-.314 0-.52.18-.458.4.063.221.366.397.68.397H65.5c.314 0 .536-.176.499-.396-.04-.221-.33-.4-.647-.4zm4.125 22.767h-10.6c-.262 0-.439.123-.395.273.045.15.289.273.547.273h10.548c.258 0 .45-.123.425-.273-.03-.15-.263-.273-.525-.273z" fill="#fff"/><path opacity=".5" d="M70.559 33.794h2.39l-.118-.924h-2.41l.138.924zm.331 2.247h2.35l-.114-.89h-2.368l.133.89zm.322 2.174h2.309l-.111-.865h-2.324l.126.864zm.316 2.094H73.8l-.11-.83h-2.284l.122.83zm.293 2.027h2.232l-.107-.804h-2.243l.118.804zm.294 1.959h2.194l-.1-.777H72l.115.777zm.281 1.897h2.157l-.096-.751h-2.176l.115.751zm.274 1.838h2.124l-.092-.73h-2.14l.108.73zm.265 1.776h2.091l-.092-.703h-2.106l.107.703zM70.21 31.46h2.435l-.122-.958H70.07l.14.957zm-.36-2.42h2.48l-.13-.995h-2.497l.148.995zm3.332 22.49h2.057l-.088-.685h-2.073l.104.684z" fill="#fff"/><path d="M85.79 47.666c-.005-.161.21-.292.48-.292h35.399c.27 0 .451.13.407.292-.048.16-.303.292-.569.292h-35.22c-.273 0-.494-.131-.498-.292zm36.241-1.548h-19.599c-.274 0-.481-.135-.462-.3.018-.164.255-.302.528-.302h19.703c.273 0 .458.134.41.303-.048.164-.311.299-.58.299z" fill="#fff"/><path opacity=".5" d="M97.775 46.118h-6.096c-.273 0-.492-.135-.492-.3.004-.164.226-.302.503-.302h6.129c.273 0 .488.134.473.303-.011.164-.244.299-.517.299z" fill="#fff"/><path d="M110.498 44.218H82.849c-.277 0-.51-.139-.52-.31-.012-.173.206-.311.487-.311h27.797c.281 0 .48.138.447.31-.033.172-.281.31-.562.31z" fill="#fff"/><path opacity=".5" d="M77.067 43.597h1.97c.28 0 .517.138.531.31.015.172-.199.31-.476.31H77.13c-.277 0-.517-.138-.535-.31-.015-.168.195-.31.472-.31z" fill="#fff"/><path d="M114.494 41.936c-.037.176-.295.322-.58.322H87.861c-.28 0-.514-.142-.517-.322-.004-.18.225-.322.51-.322h26.197c.281 0 .48.146.443.322zm-37.641-.322h7.396c.285 0 .521.146.529.322.007.176-.218.322-.5.322h-7.355c-.28 0-.528-.142-.546-.322-.023-.176.192-.322.476-.322zm-.208-2.054h28.421c.288 0 .503.15.48.333-.025.184-.277.333-.565.333H76.715c-.288 0-.535-.15-.558-.333-.018-.183.2-.333.488-.333zm18.447-1.432c-.292 0-.521-.153-.514-.344.008-.19.251-.344.547-.344h14.996c.295 0 .506.154.473.344-.034.191-.296.344-.588.344H95.092zm-18.674-.688h12.979c.292 0 .532.154.532.344 0 .191-.237.344-.532.344H76.489c-.292 0-.547-.153-.566-.344-.022-.19.2-.344.495-.344zm48.487-1.488H89.18c-.296 0-.54-.161-.54-.356 0-.198.24-.359.54-.359h35.928c.3 0 .495.161.44.36-.056.198-.344.355-.643.355zm.637-2.252H94.106c-.303 0-.543-.164-.535-.37.007-.206.258-.37.561-.37h31.621c.303 0 .502.164.443.37s-.351.37-.654.37z" fill="#fff"/><path opacity=".5" d="M126.208 31.366h-6.584c-.306 0-.517-.172-.469-.381.048-.213.34-.385.65-.385h6.621c.31 0 .513.172.451.385-.059.21-.359.381-.669.381z" fill="#fff"/><path d="M115.016 31.366H90.843c-.306 0-.558-.172-.554-.381 0-.213.255-.385.565-.385h24.317c.31 0 .528.172.484.385-.048.21-.332.381-.639.381zM77.655 49.174h22.321c.266 0 .469.127.455.284-.015.157-.244.28-.506.28H77.714c-.266 0-.492-.127-.51-.28-.015-.157.185-.284.45-.284zm.18 1.738h34.295c.263 0 .447.123.418.273-.033.15-.27.273-.528.273H77.894c-.262 0-.484-.123-.502-.273-.019-.15.18-.273.443-.273zm35.988-21.97h-17.46c-.314 0-.561-.176-.55-.396.01-.221.273-.4.591-.4h17.567c.314 0 .539.179.495.4-.041.22-.329.396-.643.396z" fill="#fff"/><path opacity=".5" d="M91.404 28.942H75.522c-.315 0-.588-.176-.614-.396-.026-.221.21-.4.528-.4h15.979c.314 0 .569.179.565.4-.007.22-.262.396-.576.396zm13.523 20.232c.266 0 .461.127.439.284-.022.157-.255.28-.521.28h-1.725c-.266 0-.465-.127-.447-.28.019-.157.248-.284.514-.284h1.74zm-21.172-1.508c.007.16-.203.292-.473.292h-2.35c-.27 0-.499-.131-.51-.292-.01-.161.196-.292.466-.292h2.364c.266 0 .495.13.503.292zm28.353-7.773c-.033.184-.295.333-.583.333h-2.749c-.288 0-.495-.15-.469-.333.029-.183.284-.333.576-.333h2.764c.291 0 .498.15.461.333zm8.581 1.721c.284 0 .477.146.429.322-.049.176-.315.322-.595.322h-2.191c-.281 0-.477-.142-.436-.322.041-.18.307-.322.591-.322h2.202zm-35.838-5.662c-.295 0-.543-.161-.554-.356-.007-.198.23-.359.528-.359h2.331c.3 0 .544.161.547.36.004.198-.236.355-.532.355h-2.32z" fill="#fff"/><path d="M53.1 24.435c.182.614-.17 1.104-.775 1.104-.61 0-1.26-.49-1.456-1.104-.2-.62.144-1.13.769-1.13.624 0 1.282.51 1.463 1.13zm3.005.019c.162.613-.203 1.103-.813 1.103-.61 0-1.245-.49-1.419-1.103-.177-.621.181-1.13.806-1.13.624 0 1.263.509 1.426 1.13zm3.042-.019c.14.614-.24 1.104-.85 1.104s-1.227-.49-1.386-1.104c-.159-.62.218-1.13.843-1.13.628 0 1.252.51 1.393 1.13z" fill="#fff"/><path opacity=".1" d="M30.125 20.357l9.956 26.941 12.011-26.94H30.125zM46.922 54.95l19.924-34.593H87.7L58.378 54.951H46.922zm49.766-34.76L65.633 54.95h4.784l32.167-34.592-5.896-.169zm6.14 34.76l34.129-34.593h4.818l-35.19 34.594h-3.757z" fill="#fff"/><path d="M56.534 69.965h-7.795c-1.013 0-1.833.83-1.833 1.855v3.837c0 1.025.82 1.856 1.833 1.856h2.035l1.545 3.542 2.176-3.542h2.035c1.012 0 1.833-.83 1.833-1.856V71.82a1.838 1.838 0 00-1.83-1.855z" fill="#fff" stroke="#263238" stroke-miterlimit="10" stroke-linecap="round" stroke-linejoin="round"/><path d="M51.555 72.16c0-.201.162-.358.38-.358s.38.15.38.344a.364.364 0 01-.38.374.36.36 0 01-.38-.36zm.081.786h.595v2.566h-.595v-2.566zm2.022-.135v.154h.698v.482h-.68v2.065h-.595v-2.065h-.417v-.482h.417V72.8c0-.538.318-.89.906-.89.203 0 .402.045.535.139l-.166.452a.566.566 0 00-.329-.105c-.24 0-.37.139-.37.415z" fill="#263238"/><path d="M80.268 70.503h-7.795c-1.012 0-1.832.83-1.832 1.855v3.837c0 1.025.82 1.856 1.832 1.856h2.036l1.544 3.542 2.176-3.542h2.036c1.012 0 1.832-.83 1.832-1.856v-3.837a1.838 1.838 0 00-1.829-1.855z" fill="#fff" stroke="#263238" stroke-miterlimit="10" stroke-linecap="round" stroke-linejoin="round"/><path d="M74.114 74.957h-1.988c.07.375.38.614.82.614.285 0 .506-.09.687-.28l.318.37c-.229.273-.584.419-1.02.419-.85 0-1.4-.554-1.4-1.317 0-.763.554-1.313 1.312-1.313.739 0 1.282.524 1.282 1.328-.004.049-.008.12-.011.18zm-1.995-.4h1.437a.694.694 0 00-.717-.624.702.702 0 00-.72.624zm2.569-2.076h.594v3.565h-.594V72.48zm1.078 3.311l.229-.457c.221.15.565.255.883.255.373 0 .532-.105.532-.285 0-.49-1.567-.03-1.567-1.05 0-.487.432-.805 1.116-.805.336 0 .72.082.95.22l-.23.457a1.353 1.353 0 00-.728-.19c-.361 0-.531.12-.531.287 0 .52 1.566.056 1.566 1.063 0 .482-.436.793-1.149.793-.421 0-.846-.124-1.071-.288zm5.114-.835h-1.988c.07.375.38.614.82.614.284 0 .506-.09.687-.28l.318.37c-.23.273-.584.419-1.02.419-.85 0-1.4-.554-1.4-1.317 0-.763.554-1.313 1.311-1.313.74 0 1.282.524 1.282 1.328l-.01.18zm-1.996-.4h1.437a.694.694 0 00-.716-.624.702.702 0 00-.72.624z" fill="#263238"/><path d="M103.268 70.275h-7.795c-1.012 0-1.832.83-1.832 1.855v3.838c0 1.025.82 1.855 1.832 1.855h2.036l1.544 3.542 2.176-3.542h2.036c1.012 0 1.832-.83 1.832-1.855V72.13a1.838 1.838 0 00-1.829-1.855z" fill="#fff" stroke="#263238" stroke-miterlimit="10" stroke-linecap="round" stroke-linejoin="round"/><path d="M97.26 73.122v.153h.698v.483h-.68v2.065h-.595v-2.065h-.417v-.483h.417v-.164c0-.539.318-.89.905-.89.203 0 .403.045.536.138l-.166.453a.566.566 0 00-.33-.105c-.24 0-.369.138-.369.415zm.85 1.418c0-.771.568-1.313 1.348-1.313.787 0 1.352.542 1.352 1.312s-.565 1.317-1.352 1.317c-.78 0-1.349-.55-1.349-1.317zm2.102 0c0-.49-.322-.805-.754-.805-.429 0-.75.314-.75.804 0 .49.321.805.75.805.432-.004.754-.315.754-.805zm2.63-1.313v.572a.636.636 0 00-.137-.015c-.451 0-.735.27-.735.793v1.246h-.595v-2.566h.565v.374c.174-.27.481-.404.902-.404z" fill="#263238"/><path d="M125.94 69.965h-7.795c-1.012 0-1.833.83-1.833 1.855v3.837c0 1.025.821 1.856 1.833 1.856h2.036l1.544 3.542 2.176-3.542h2.035c1.013 0 1.833-.83 1.833-1.856V71.82a1.838 1.838 0 00-1.829-1.855z" fill="#fff" stroke="#263238" stroke-miterlimit="10" stroke-linecap="round" stroke-linejoin="round"/><path d="M121.031 72.819h2.187v.478h-2.187v-.478zm0 1.163h2.187v.478h-2.187v-.478z" fill="#263238"/><path d="M68.424 65.522H60.63c-1.012 0-1.832.83-1.832 1.855v3.837c0 1.025.82 1.855 1.832 1.855h2.036l1.544 3.542 2.176-3.542h2.036c1.012 0 1.832-.83 1.832-1.855v-3.837a1.838 1.838 0 00-1.829-1.855z" fill="#fff" stroke="#263238" stroke-miterlimit="10" stroke-linecap="round" stroke-linejoin="round"/><path d="M62.695 67.12h1.135v.478h-.54v3.538h.54v.483h-1.135v-4.5zm2.61 4.495v-.483h.535v-3.538h-.535v-.479h1.13v4.5h-1.13z" fill="#263238"/><path d="M91.596 65.129h-7.795c-1.012 0-1.832.83-1.832 1.855v3.838c0 1.024.82 1.855 1.832 1.855h2.036l1.544 3.542 2.176-3.542h2.036c1.012 0 1.832-.83 1.832-1.856v-3.837a1.838 1.838 0 00-1.829-1.855z" fill="#fff" stroke="#263238" stroke-miterlimit="10" stroke-linecap="round" stroke-linejoin="round"/><path d="M86.117 68.959c.189.063.281.19.281.49v.913c0 .231.115.366.351.366h.1v.483h-.237c-.535 0-.805-.273-.805-.782v-.991c0-.157-.081-.232-.214-.232h-.156v-.49h.156c.133 0 .214-.071.214-.232v-.991c0-.509.27-.782.805-.782h.237v.479h-.1c-.236 0-.351.135-.351.366v.913c0 .3-.092.426-.28.49zm3.618-.247v.49h-.163c-.129 0-.21.07-.21.232v.99c0 .51-.277.783-.813.783h-.237v-.483h.1c.244 0 .355-.135.355-.366v-.913c0-.3.085-.426.277-.49-.188-.064-.277-.19-.277-.49v-.913c0-.232-.115-.366-.355-.366h-.1v-.479h.237c.536 0 .813.273.813.782v.991c0 .157.081.232.21.232h.163z" fill="#263238"/><path d="M114.518 64.35h-7.795c-1.012 0-1.832.83-1.832 1.856v3.837c0 1.025.82 1.855 1.832 1.855h2.036l1.544 3.542 2.176-3.542h2.036c1.012 0 1.832-.83 1.832-1.855v-3.837a1.838 1.838 0 00-1.829-1.855z" fill="#fff" stroke="#263238" stroke-miterlimit="10" stroke-linecap="round" stroke-linejoin="round"/><path d="M110.312 67.193c0-.24.178-.4.388-.4a.38.38 0 01.388.4.388.388 0 11-.776 0zm.78 1.833c0 .105-.022.19-.111.415l-.244.677h-.384l.189-.737a.368.368 0 01-.222-.355c0-.24.166-.4.384-.4.225 0 .388.164.388.4z" fill="#263238"/><path d="M84.047 131.465h7.796c1.012 0 1.832-.83 1.832-1.855v-3.838c0-1.025-.82-1.855-1.832-1.855h-2.036l-.595-3.542-3.125 3.542H84.05c-1.012 0-1.832.83-1.832 1.855v3.838a1.838 1.838 0 001.829 1.855z" fill="#fff" stroke="#263238" stroke-miterlimit="10" stroke-linecap="round" stroke-linejoin="round"/><path d="M86.78 126.902l-1.636.621 1.637.621v.501l-2.187-.86v-.52l2.187-.861v.498zm1.732-1.743h.532l-1.567 4.526h-.532l1.567-4.526zm2.831 2.105v.52l-2.187.861v-.502l1.637-.62-1.637-.621v-.501l2.187.863z" fill="#263238"/><path d="M34.5 103.511h7.796a1.844 1.844 0 001.832-1.856v-3.837c0-1.025-.82-1.855-1.832-1.855H40.26l.444-3.542-4.164 3.542h-2.036c-1.012 0-1.832.83-1.832 1.855v3.837a1.839 1.839 0 001.829 1.856z" fill="#fff" stroke="#263238" stroke-miterlimit="10" stroke-linecap="round" stroke-linejoin="round"/><path d="M36.813 101.076a.37.37 0 01.384-.371c.218 0 .373.165.373.371a.367.367 0 01-.373.374.374.374 0 01-.385-.374zm.033-3.022h.702l-.119 2.247h-.469l-.114-2.248zm1.31.86h2.187v.478h-2.187v-.478zm0 1.163h2.187v.482h-2.187v-.482z" fill="#263238"/><path d="M159.292 99.157a27.25 27.25 0 01-.359 4.44c-1.071 6.47-4.433 11.194-8.408 11.194-.355 0-.713-.041-1.057-.112-4.341-.932-7.71-7.526-7.71-15.522 0-8.632 3.927-11.688 8.763-11.688 4.847.004 8.771 3.056 8.771 11.688z" fill="#fff"/><path d="M156.111 99.258c.326 4.63-.461 9.283-1.777 13.73 3.303-2.745 4.822-7.058 6.196-11.153.997-2.974 2.006-6.04 1.829-9.175-.181-3.134-1.84-6.396-4.748-7.495-1.418-.54-3.073-.498-4.477.074-2.435.988-1.101 1.792-.082 3.565 1.829 3.16 2.805 6.803 3.059 10.454z" fill="#A4CE2D"/><path opacity=".5" d="M156.111 99.258c.326 4.63-.461 9.283-1.777 13.73 3.303-2.745 4.822-7.058 6.196-11.153.997-2.974 2.006-6.04 1.829-9.175-.181-3.134-1.84-6.396-4.748-7.495-1.418-.54-3.073-.498-4.477.074-2.435.988-1.101 1.792-.082 3.565 1.829 3.16 2.805 6.803 3.059 10.454z" fill="#fff"/><path d="M159.292 99.157a27.25 27.25 0 01-.359 4.44c-1.071 6.47-4.433 11.194-8.408 11.194-.355 0-.713-.041-1.057-.112-4.341-.932-7.71-7.526-7.71-15.522 0-8.632 3.927-11.688 8.763-11.688 4.847.004 8.771 3.056 8.771 11.688z" stroke="#263238" stroke-miterlimit="10"/><path d="M155.234 107.101c-.588 1.993-1.556 3.867-2.875 5.46l2.875-5.46z" fill="#fff"/><path d="M155.234 107.101c-.588 1.993-1.556 3.867-2.875 5.46m3.152-6.548c-.048.209-.096.422-.152.632" stroke="#263238" stroke-miterlimit="10"/><path d="M155.484 99.138a15.49 15.49 0 01.174 6.089l-.174-6.09z" fill="#fff"/><path d="M155.484 99.138a15.49 15.49 0 01.174 6.089m-13.9-6.07s9.964-3.987 17.53 0" stroke="#263238" stroke-miterlimit="10"/><path d="M150.523 87.473s.998 3.74 1.112 9.821l-1.112-9.821z" fill="#fff"/><path d="M150.523 87.473s.998 3.74 1.112 9.821" stroke="#263238" stroke-miterlimit="10"/><path d="M151.915 92.02c.129 1.164-.07 2.155-.443 2.215-.373.06-.78-.834-.909-1.998-.129-1.163.07-2.154.443-2.214.377-.06.783.834.909 1.998z" fill="#BFBFBF" stroke="#263238" stroke-miterlimit="10" stroke-linecap="round" stroke-linejoin="round"/><path d="M146.595 117.779h-11.682c-1.455 0-2.652-1.092-2.841-2.509a2.007 2.007 0 01-.033-.4V86.971c0-.134.007-.269.033-.404a2.873 2.873 0 012.841-2.505h33.147c.502 0 .971.13 1.378.359" stroke="#263238" stroke-miterlimit="10"/></g><defs><clipPath id="clip0_174_72325"><path fill="#fff" d="M0 0h171v148H0z"/></clipPath></defs></svg>