<svg width="152" height="139" fill="none" xmlns="http://www.w3.org/2000/svg"><g clip-path="url(#clip0_174_72774)"><path d="M68.943.39c42.088-3.725 42.159 19.873 61.123 41.86s23.022 31.952 15.873 57.298c-7.149 25.342-31.237 45.211-61.038 33.955-29.802-11.257-46.872-.445-65.67-10.444C.433 113.06-6.546 93.748 7.213 70.989 20.972 48.228 17.049 4.984 68.943.39z" fill="#A4CE2D"/><path opacity=".7" d="M68.943.39c42.088-3.725 42.159 19.873 61.123 41.86s23.022 31.952 15.873 57.298c-7.149 25.342-31.237 45.211-61.038 33.955-29.802-11.257-46.872-.445-65.67-10.444C.433 113.06-6.546 93.748 7.213 70.989 20.972 48.228 17.049 4.984 68.943.39z" fill="#A4CE2D"/><path d="M80.668 12.178l-6.922 1.45a1.727 1.727 0 01-2.046-1.325l-1.46-6.88a1.717 1.717 0 011.334-2.033l6.922-1.45a1.727 1.727 0 012.046 1.325l1.46 6.88a1.718 1.718 0 01-1.334 2.033zM75.68 5.696l.882 4.175m1.662-2.529l-4.2.88m74.745 77.514l-6.922 1.45a1.727 1.727 0 01-2.046-1.325l-1.459-6.88a1.717 1.717 0 011.334-2.033l6.922-1.45a1.727 1.727 0 012.046 1.325l1.459 6.88a1.718 1.718 0 01-1.334 2.033zm-1.682-6.181l-2.345 3.574m2.964-.623l-3.597-2.33m-89.682 50.185l-7.065-.405a1.72 1.72 0 01-1.625-1.814l.407-7.021a1.723 1.723 0 011.826-1.615l7.064.404c.954.054 1.68.867 1.626 1.815l-.408 7.021a1.726 1.726 0 01-1.825 1.615zm-1.084-5.301l-4.288-.246M9.29 81.284l-6.714-2.212a1.71 1.71 0 01-1.096-2.168l2.225-6.674a1.726 1.726 0 012.182-1.089l6.715 2.212a1.71 1.71 0 011.096 2.169l-2.226 6.673a1.728 1.728 0 01-2.182 1.09zm.98-7.412l-5.372 2.681" stroke="#1A1A1A" stroke-miterlimit="10" stroke-linecap="round" stroke-linejoin="round"/><path d="M7.186 72.77a.744.744 0 01-.332 1.001.753.753 0 01-1.008-.33.744.744 0 01.333-1.002.753.753 0 011.007.33zm2.125 4.218a.744.744 0 01-.332 1.002.753.753 0 01-1.008-.33.744.744 0 01.333-1.002.75.75 0 011.007.33z" stroke="#1A1A1A" stroke-miterlimit="10" stroke-linecap="round" stroke-linejoin="round"/><path d="M78.94 118.241c-1.96 2.823-5.856 3.527-8.696 1.578a6.187 6.187 0 01-1.588-8.646 6.22 6.22 0 013.349-2.415 6.26 6.26 0 015.35.84 6.186 6.186 0 011.585 8.643z" fill="#A4CE2D"/><path opacity=".3" d="M78.118 117.678c-1.652 2.374-4.927 2.968-7.319 1.325a5.207 5.207 0 01-1.333-7.273c1.652-2.375 4.926-2.968 7.319-1.326a5.21 5.21 0 011.333 7.274z" fill="#1A1A1A" fill-opacity=".7"/><path d="M75.153 112.097l.251-.365.631.435-.25.365c.471.489.457 1.099 0 1.76l-.11.155-.729-.502.14-.203c.244-.347.193-.576-.052-.745-.244-.169-.478-.132-.719.216-.24.347-.271.688-.037 1.457.281.937.234 1.47-.156 2.026-.462.661-1.045.891-1.67.624l-.247.358-.632-.435.248-.358c-.478-.492-.461-1.109 0-1.774l.234-.333.73.502-.268.384c-.245.348-.177.58.071.749.244.169.489.148.73-.199.24-.347.278-.695.037-1.457-.288-.93-.234-1.47.156-2.026.455-.655 1.021-.887 1.642-.634z" fill="#A4CE2D" stroke="#1A1A1A" stroke-width=".4" stroke-miterlimit="10" stroke-linecap="round" stroke-linejoin="round"/><path opacity=".2" d="M72.056 109.673c0 3.062-1.653 5.739-4.12 7.199a6.188 6.188 0 01.72-5.699 6.217 6.217 0 013.349-2.414c.034.3.05.603.05.914z" fill="#1A1A1A" fill-opacity=".7"/><path d="M78.94 118.241c-1.96 2.823-5.856 3.527-8.696 1.578a6.187 6.187 0 01-1.588-8.646 6.22 6.22 0 013.349-2.415 6.26 6.26 0 015.35.84 6.186 6.186 0 011.585 8.643z" stroke="#1A1A1A" stroke-width=".75" stroke-miterlimit="10" stroke-linecap="round" stroke-linejoin="round"/><path d="M64.87 115.695c3.454 0 6.254-2.783 6.254-6.215 0-3.433-2.8-6.215-6.253-6.215-3.454 0-6.254 2.782-6.254 6.215 0 3.432 2.8 6.215 6.254 6.215z" fill="#A4CE2D" stroke="#1A1A1A" stroke-miterlimit="10" stroke-linecap="round" stroke-linejoin="round"/><path opacity=".3" d="M64.876 114.707c2.905 0 5.26-2.341 5.26-5.227 0-2.887-2.355-5.227-5.26-5.227-2.904 0-5.259 2.34-5.259 5.227 0 2.886 2.355 5.227 5.26 5.227z" fill="#1A1A1A" fill-opacity=".7"/><path d="M64.483 106.57v-.442h.767v.442c.665.135 1.008.644 1.008 1.45v.185h-.89v-.246c0-.425-.169-.587-.467-.587-.299 0-.469.162-.469.587 0 .425.17.722.801 1.221.767.61 1.032 1.076 1.032 1.753 0 .806-.35 1.322-1.015 1.457v.432h-.767v-.432c-.675-.135-1.014-.654-1.014-1.457v-.408h.889v.466c0 .425.186.576.485.576.298 0 .485-.151.485-.576 0-.425-.17-.729-.8-1.221-.767-.604-1.032-1.076-1.032-1.757-.004-.789.329-1.298.987-1.443z" fill="#A4CE2D" stroke="#1A1A1A" stroke-width=".4" stroke-miterlimit="10" stroke-linecap="round" stroke-linejoin="round"/><path d="M99.967 114.693a6.193 6.193 0 00-1.892-8.586c-2.908-1.852-6.776-1.01-8.639 1.88a6.192 6.192 0 001.892 8.586c2.908 1.852 6.776 1.01 8.64-1.88z" fill="#A4CE2D" stroke="#1A1A1A" stroke-miterlimit="10" stroke-linecap="round" stroke-linejoin="round"/><path opacity=".3" d="M98.552 107.79a5.206 5.206 0 01-.274 7.389 5.284 5.284 0 01-7.435-.273 5.206 5.206 0 01.275-7.389c2.131-1.963 5.46-1.841 7.434.273z" fill="#1A1A1A" fill-opacity=".7"/><path d="M92.427 109.479l-.302-.324.563-.519.302.323c.58-.35 1.178-.209 1.73.382l.13.138-.652.6-.17-.179c-.291-.31-.525-.313-.743-.111-.217.202-.234.435.058.745.292.311.618.412 1.425.351.98-.071 1.493.091 1.958.587.553.59.648 1.207.255 1.753l.295.317-.564.52-.295-.317c-.587.357-1.19.209-1.74-.381l-.279-.297.652-.6.319.34c.292.31.532.297.75.095.217-.203.25-.442-.038-.752-.291-.311-.624-.419-1.425-.351-.974.077-1.493-.091-1.958-.587-.55-.587-.654-1.184-.271-1.733z" fill="#A4CE2D" stroke="#1A1A1A" stroke-width=".4" stroke-miterlimit="10" stroke-linecap="round" stroke-linejoin="round"/><path opacity=".2" d="M92.125 84.336s-.027 12.895 0 13.647c.028.752 1.008 5.281 1.008 5.281l-3.149 5.77 2.711 2.172 5.277-5.156s4.492 2.758 5.313 6.704c.821 3.945 5.711 6.818 10.783 17.744 5.073 10.926 10.858-24.448 10.858-24.448l-15.652-19.586-17.149-2.128z" fill="#1A1A1A" fill-opacity=".7"/><path d="M139.975 15.057l-4.794 46.496-2.949 28.604-41.205-4.195-8.018-.816-5.134-.523 4.55-44.143 3.193-30.957 54.357 5.534z" fill="#fff"/><path d="M124.19 16.794l-23.463-2.39a.8.8 0 00-.88.71.797.797 0 00.717.874l23.463 2.391a.8.8 0 00.879-.711.795.795 0 00-.716-.874zm-6.201 2.656l-11.733-1.193a.402.402 0 00-.441.354.4.4 0 00.356.438l11.733 1.194a.398.398 0 10.085-.793zm12.906 34.32l-38.084-3.877a.402.402 0 00-.442.354.4.4 0 00.357.438l38.084 3.878a.398.398 0 10.085-.792zm-.301 2.85l-44.283-4.508a.402.402 0 00-.442.354.4.4 0 00.357.438l44.283 4.509a.403.403 0 00.441-.354.395.395 0 00-.356-.439zm-12.691 1.586l-31.882-3.248a.402.402 0 00-.44.354.4.4 0 00.356.439l31.881 3.247a.402.402 0 00.441-.354.4.4 0 00-.356-.438z" fill="#1A1A1A"/><path d="M85.522 58.033L84.227 70.6l44.643 4.544 1.295-12.566-44.643-4.545z" fill="#BFBFBF" stroke="#1A1A1A" stroke-miterlimit="10"/><path d="M105.991 43.495c4.217-3.491 4.788-9.72 1.274-13.91-3.513-4.192-9.78-4.759-13.997-1.267a9.836 9.836 0 00-1.274 13.911c3.514 4.191 9.78 4.758 13.997 1.266z" fill="#A4CE2D"/><path opacity=".5" d="M105.992 43.495a9.836 9.836 0 001.274-13.91c-3.514-4.192-9.78-4.759-13.998-1.267a9.836 9.836 0 00-1.274 13.911c3.514 4.191 9.78 4.758 13.998 1.267z" fill="#fff"/><path d="M105.991 43.495c4.217-3.491 4.788-9.72 1.274-13.91-3.513-4.192-9.78-4.759-13.997-1.267a9.836 9.836 0 00-1.274 13.911c3.514 4.191 9.78 4.758 13.997 1.266z" stroke="#1A1A1A" stroke-miterlimit="10"/><path d="M99.922 35.877l8.265 4.135a9.323 9.323 0 00.893-3.14 9.366 9.366 0 00-1.985-6.795l-7.173 5.8z" fill="#fff"/><path d="M99.969 35.436l6.922-5.598a9.513 9.513 0 00-3.865-2.738l-1.249 3.406-1.808 4.93z" fill="#A4CE2D"/><path d="M100.76 26.543l-.838 8.14 2.82-7.692a9.8 9.8 0 00-1.982-.448z" fill="#757575"/><path d="M99.483 35.807l.957-9.294c-5.15-.442-9.728 3.305-10.257 8.434a9.348 9.348 0 00.736 4.72l8.564-3.86z" fill="#999"/><path d="M98.658 45.296a9.506 9.506 0 009.375-5.008l-8.412-4.205-8.574 3.871a9.492 9.492 0 007.61 5.342z" fill="#BFBFBF"/><path d="M115.426 31.045l-1.134-.115a.215.215 0 01-.19-.232l.116-1.127a.215.215 0 01.234-.189l1.133.115c.116.014.2.115.19.233l-.115 1.126a.214.214 0 01-.234.189z" fill="#A4CE2D" stroke="#1A1A1A" stroke-miterlimit="10"/><path d="M131.33 31.672l-14.607-1.487a.18.18 0 01-.16-.195.18.18 0 01.197-.159l14.607 1.487a.179.179 0 11-.037.354zm-1.506.628l-13.179-1.343a.178.178 0 01-.16-.195.18.18 0 01.197-.159l13.179 1.342a.178.178 0 11-.037.355z" fill="#1A1A1A"/><path d="M115.074 34.508l-1.133-.115a.214.214 0 01-.19-.232l.115-1.127a.216.216 0 01.234-.189l1.134.115c.115.014.2.115.19.233l-.116 1.126a.21.21 0 01-.234.189z" fill="#757575" stroke="#1A1A1A" stroke-miterlimit="10" stroke-linecap="round" stroke-linejoin="round"/><path d="M130.986 35.135l-14.607-1.487a.178.178 0 11.038-.354l14.607 1.487a.178.178 0 11-.038.354zm-1.506.627l-13.179-1.342a.178.178 0 11.037-.354l13.179 1.342c.099.01.17.098.16.196a.18.18 0 01-.197.158z" fill="#1A1A1A"/><path d="M114.715 37.972l-1.134-.115a.215.215 0 01-.19-.233l.116-1.126a.215.215 0 01.234-.189l1.133.115c.116.013.2.114.19.233l-.115 1.126a.213.213 0 01-.234.189z" fill="#999" stroke="#1A1A1A" stroke-miterlimit="10" stroke-linecap="round" stroke-linejoin="round"/><path d="M130.627 38.599l-14.607-1.487a.178.178 0 01-.16-.196.18.18 0 01.197-.158l14.607 1.487c.099.01.17.098.16.195a.175.175 0 01-.197.159zm-1.507.631l-13.178-1.343a.178.178 0 01-.16-.195.18.18 0 01.197-.159l13.179 1.343c.098.01.169.097.159.195a.18.18 0 01-.197.159z" fill="#1A1A1A"/><path d="M114.355 41.439l-1.133-.115a.215.215 0 01-.19-.233l.115-1.126a.216.216 0 01.235-.189l1.133.115c.115.013.2.114.19.232l-.115 1.127a.218.218 0 01-.235.189z" fill="#BFBFBF" stroke="#1A1A1A" stroke-miterlimit="10"/><path d="M130.268 42.066l-14.608-1.487a.178.178 0 11.038-.354l14.607 1.487a.178.178 0 11-.037.354zm-1.507.627l-13.179-1.342a.178.178 0 11.038-.354l13.178 1.342c.099.01.17.098.16.196a.18.18 0 01-.197.158z" fill="#1A1A1A"/><path d="M113.996 44.902l-1.133-.115a.214.214 0 01-.19-.233l.115-1.126a.215.215 0 01.234-.189l1.133.115a.214.214 0 01.19.232l-.115 1.127a.215.215 0 01-.234.189z" fill="#fff" stroke="#1A1A1A" stroke-miterlimit="10" stroke-linecap="round" stroke-linejoin="round"/><path d="M129.908 45.529l-14.607-1.487a.178.178 0 11.037-.355l14.608 1.488a.178.178 0 11-.038.354zm-1.506.627l-13.179-1.342a.179.179 0 01-.16-.196.18.18 0 01.197-.158l13.179 1.342a.178.178 0 11-.037.354z" fill="#1A1A1A"/><path d="M123.416 70.9l.834.085.489-4.74-.834-.085-.489 4.74z" fill="#757575" stroke="#1A1A1A" stroke-miterlimit="10" stroke-linecap="round" stroke-linejoin="round"/><path d="M123.487 70.194l.833.085.23-2.23-.833-.086-.23 2.231z" fill="#A4CE2D" stroke="#1A1A1A" stroke-miterlimit="10"/><path d="M125.408 69.903l.834.085.489-4.74-.834-.085-.489 4.74z" fill="#757575" stroke="#1A1A1A" stroke-miterlimit="10" stroke-linecap="round" stroke-linejoin="round"/><path d="M125.769 66.42l-.23 2.23.834.085.23-2.23-.834-.086z" fill="#A4CE2D" stroke="#1A1A1A" stroke-miterlimit="10"/><path d="M127.19 71.001l.833.085.489-4.74-.834-.085-.488 4.74z" fill="#757575" stroke="#1A1A1A" stroke-miterlimit="10" stroke-linecap="round" stroke-linejoin="round"/><path d="M127.377 69.209l.834.085.23-2.23-.834-.086-.23 2.231z" fill="#A4CE2D" stroke="#1A1A1A" stroke-miterlimit="10"/><path d="M121.635 69.771l.834.085.489-4.74-.834-.085-.489 4.74z" fill="#757575" stroke="#1A1A1A" stroke-miterlimit="10" stroke-linecap="round" stroke-linejoin="round"/><path d="M121.705 69.065l.834.085.23-2.23-.834-.086-.23 2.231z" fill="#A4CE2D" stroke="#1A1A1A" stroke-miterlimit="10"/><path d="M119.596 70.99l.834.085.488-4.74-.833-.085-.489 4.74z" fill="#757575" stroke="#1A1A1A" stroke-miterlimit="10" stroke-linecap="round" stroke-linejoin="round"/><path d="M119.658 70.447l.834.085.23-2.23-.833-.086-.231 2.231z" fill="#A4CE2D" stroke="#1A1A1A" stroke-miterlimit="10"/><path d="M117.854 69.576l.834.085.488-4.74-.834-.085-.488 4.74z" fill="#757575" stroke="#1A1A1A" stroke-miterlimit="10" stroke-linecap="round" stroke-linejoin="round"/><path d="M117.877 69.39l.834.085.23-2.231-.834-.085-.23 2.23z" fill="#A4CE2D" stroke="#1A1A1A" stroke-miterlimit="10"/><path d="M115.721 71.856l.834.085.489-4.74-.834-.085-.489 4.74z" fill="#757575" stroke="#1A1A1A" stroke-miterlimit="10" stroke-linecap="round" stroke-linejoin="round"/><path d="M115.744 71.677l.834.084.23-2.23-.833-.085-.231 2.23z" fill="#A4CE2D" stroke="#1A1A1A" stroke-miterlimit="10"/><path d="M114.151 68.684l.833.085.489-4.74-.834-.085-.488 4.74z" fill="#757575" stroke="#1A1A1A" stroke-miterlimit="10" stroke-linecap="round" stroke-linejoin="round"/><path d="M114.229 67.97l.833.085.23-2.23-.833-.085-.23 2.23z" fill="#A4CE2D" stroke="#1A1A1A" stroke-miterlimit="10"/><path d="M112.307 68.21l.834.086.489-4.74-.834-.085-.489 4.74z" fill="#757575" stroke="#1A1A1A" stroke-miterlimit="10" stroke-linecap="round" stroke-linejoin="round"/><path d="M112.494 66.434l.834.085.23-2.23-.834-.085-.23 2.23z" fill="#A4CE2D" stroke="#1A1A1A" stroke-miterlimit="10"/><path d="M110.112 71.002l.833.085.489-4.74-.834-.085-.488 4.74z" fill="#757575" stroke="#1A1A1A" stroke-miterlimit="10" stroke-linecap="round" stroke-linejoin="round"/><path d="M110.315 69.037l.833.085.23-2.23-.833-.086-.23 2.231z" fill="#A4CE2D" stroke="#1A1A1A" stroke-miterlimit="10"/><path d="M108.455 68.725l.834.085.489-4.74-.834-.085-.489 4.74z" fill="#757575" stroke="#1A1A1A" stroke-miterlimit="10" stroke-linecap="round" stroke-linejoin="round"/><path d="M108.549 67.834l.834.085.23-2.231-.834-.085-.23 2.23z" fill="#A4CE2D" stroke="#1A1A1A" stroke-miterlimit="10"/><path d="M106.448 69.764l.833.086.489-4.74-.833-.086-.489 4.74z" fill="#757575" stroke="#1A1A1A" stroke-miterlimit="10" stroke-linecap="round" stroke-linejoin="round"/><path d="M106.518 69.058l.834.084.229-2.23-.833-.085-.23 2.23z" fill="#A4CE2D" stroke="#1A1A1A" stroke-miterlimit="10"/><path d="M104.354 71.703l.834.085.489-4.74-.834-.085-.489 4.74z" fill="#757575" stroke="#1A1A1A" stroke-miterlimit="10" stroke-linecap="round" stroke-linejoin="round"/><path d="M104.346 71.709l.834.085.23-2.231-.834-.085-.23 2.23z" fill="#A4CE2D" stroke="#1A1A1A" stroke-miterlimit="10"/><path d="M102.783 68.517l.834.084.489-4.74-.834-.085-.489 4.74z" fill="#757575" stroke="#1A1A1A" stroke-miterlimit="10" stroke-linecap="round" stroke-linejoin="round"/><path d="M102.846 67.981l.834.085.23-2.23-.834-.085-.23 2.23z" fill="#A4CE2D" stroke="#1A1A1A" stroke-miterlimit="10"/><path d="M101.119 66.235l.834.085.489-4.74-.834-.085-.489 4.74z" fill="#757575" stroke="#1A1A1A" stroke-miterlimit="10" stroke-linecap="round" stroke-linejoin="round"/><path d="M101.174 65.706l.834.085.23-2.231-.834-.085-.23 2.231z" fill="#A4CE2D" stroke="#1A1A1A" stroke-miterlimit="10"/><path d="M98.979 68.56l.834.084.488-4.74-.834-.085-.488 4.74z" fill="#757575" stroke="#1A1A1A" stroke-miterlimit="10" stroke-linecap="round" stroke-linejoin="round"/><path d="M99.166 66.766l.834.085.23-2.23-.834-.085-.23 2.23z" fill="#A4CE2D" stroke="#1A1A1A" stroke-miterlimit="10"/><path d="M96.83 71.047l.834.085.489-4.74-.834-.085-.489 4.74z" fill="#757575" stroke="#1A1A1A" stroke-miterlimit="10" stroke-linecap="round" stroke-linejoin="round"/><path d="M97.057 68.903l.834.085.23-2.23-.834-.086-.23 2.231z" fill="#A4CE2D" stroke="#1A1A1A" stroke-miterlimit="10"/><path d="M95.229 68.176l.834.085.488-4.74-.834-.085-.488 4.74z" fill="#757575" stroke="#1A1A1A" stroke-miterlimit="10" stroke-linecap="round" stroke-linejoin="round"/><path d="M95.307 67.456l.834.085.23-2.23-.834-.086-.23 2.231z" fill="#A4CE2D" stroke="#1A1A1A" stroke-miterlimit="10"/><path d="M93.432 67.191l.834.085.489-4.74-.834-.085-.49 4.74z" fill="#757575" stroke="#1A1A1A" stroke-miterlimit="10" stroke-linecap="round" stroke-linejoin="round"/><path d="M93.635 65.232l.834.085.23-2.23-.834-.086-.23 2.231z" fill="#A4CE2D" stroke="#1A1A1A" stroke-miterlimit="10"/><path d="M91.4 68.478l.834.085.49-4.74-.834-.086-.49 4.74z" fill="#757575" stroke="#1A1A1A" stroke-miterlimit="10" stroke-linecap="round" stroke-linejoin="round"/><path d="M91.393 68.483l.834.084.23-2.23-.834-.085-.23 2.23z" fill="#A4CE2D" stroke="#1A1A1A" stroke-miterlimit="10"/><path d="M89.674 66.813l.834.084.488-4.74-.833-.085-.489 4.74z" fill="#757575" stroke="#1A1A1A" stroke-miterlimit="10" stroke-linecap="round" stroke-linejoin="round"/><path d="M89.721 66.45l.834.085.23-2.23-.834-.086-.23 2.231z" fill="#A4CE2D" stroke="#1A1A1A" stroke-miterlimit="10"/><path d="M87.737 67.26l.833.086.489-4.74-.834-.086-.488 4.74z" fill="#757575" stroke="#1A1A1A" stroke-miterlimit="10" stroke-linecap="round" stroke-linejoin="round"/><path d="M87.76 67.081l.834.085.23-2.231-.834-.085-.23 2.231z" fill="#A4CE2D" stroke="#1A1A1A" stroke-miterlimit="10"/><path d="M85.916 66.463l.834.085.489-4.74-.834-.085-.489 4.74z" fill="#757575" stroke="#1A1A1A" stroke-miterlimit="10" stroke-linecap="round" stroke-linejoin="round"/><path d="M86.159 64.142l.833.084.23-2.23-.834-.085-.23 2.23z" fill="#A4CE2D" stroke="#1A1A1A" stroke-miterlimit="10"/><path d="M128.527 76.722l-38.084-3.878a.402.402 0 00-.44.354.399.399 0 00.356.438l38.084 3.879a.403.403 0 00.441-.355.401.401 0 00-.357-.438zm-.293 2.85l-44.283-4.51a.402.402 0 00-.44.355.398.398 0 00.355.438l44.284 4.509a.403.403 0 00.441-.354.4.4 0 00-.357-.439zm-18.897.958l-25.683-2.618a.402.402 0 00-.44.354.4.4 0 00.356.439l25.682 2.617a.403.403 0 00.441-.354.395.395 0 00-.356-.439z" fill="#1A1A1A"/><path opacity=".2" d="M132.728 55.079c-1.314-.105-1.768 1.976-1.768 1.976s-2.077-2.705-1.748-9.065c0 0-1.014-2.819-3.732-1.116-2.714 1.703-5.534 7.706-4.862 14.244l-5.283-17.43c-1.826.384-5.534 2.822-4.557 14.594l-5.765-6.056s-1.561-.5-2.443.873c-.882 1.376-.462 11.203.268 14.879.733 3.679-1.13 11.06-1.13 11.06s-1.988-8.363-5.585-10.48L82.425 40.48l-4.55 44.143 5.134.523 8.245-3.99c-.048 1.845-.092 3.541-.227 4.806l41.205 4.195 2.949-28.603c-1.001-3.565-1.958-6.438-2.453-6.475z" fill="#1A1A1A" fill-opacity=".7"/><path d="M139.975 15.057l-4.794 46.496-2.949 28.604-41.205-4.195-8.018-.816-5.134-.523 4.55-44.143 3.193-30.957 54.357 5.534z" stroke="#1A1A1A" stroke-miterlimit="10" stroke-linecap="round" stroke-linejoin="round"/><path d="M139.304 134.758l-24.091 4.073s-4.194-22.138-6.694-25.625c-2.501-3.49-2.043-4.924-3.258-7.274-.733-1.42-4.407-4.067-7.291-6.68h-.004a28.564 28.564 0 01-.73-.678c-.101-.091-.196-.189-.291-.28-.383-.378-.74-.745-1.055-1.106a8.158 8.158 0 01-.326-.385c-.6-.738-1.025-1.43-1.167-2.053a.518.518 0 01-.02-.105.878.878 0 01-.021-.125 98.528 98.528 0 01-.2-1.767c-.014-.128-.027-.263-.044-.398-.007-.054-.014-.104-.02-.162a88.373 88.373 0 00-.198-1.702 73.443 73.443 0 00-.25-1.902 27.893 27.893 0 00-.099-.671c0-.004 0-.007-.003-.007-.038-.25-.078-.5-.12-.752l-.111-.648c-.007-.037-.017-.07-.02-.1l-.143-.75a.337.337 0 01-.017-.084c-.047-.219-.091-.435-.142-.654a25.346 25.346 0 00-.353-1.433 17.71 17.71 0 00-.9-2.563c-1.737-3.855.523-2.462-.838-12.38 0 0 1.001-2.3 3.855-.462.22.142.43.297.638.462h.003a7.994 7.994 0 011.517 1.612 9.29 9.29 0 011.31 2.685c.451 1.467.597 3.109.386 4.822 0 0 2.145 7.304 3.275 8.967 1.133 1.662 5.802-7.888 5.5-9-.061-.223-.146-.766-.241-1.511l-.064-.527c-.021-.185-.044-.377-.065-.576-.013-.095-.024-.196-.037-.294-.004-.04-.007-.08-.014-.118-.04-.38-.088-.785-.132-1.204-.01-.118-.024-.229-.037-.344-.021-.198-.041-.404-.061-.606-.007-.03-.007-.065-.011-.102-.013-.114-.027-.232-.037-.354a51.432 51.432 0 01-.075-.715c-.023-.205-.04-.411-.061-.617-.04-.388-.078-.775-.115-1.15-.027-.28-.054-.556-.078-.826a225.92 225.92 0 01-.312-3.403s-3.397-4.997-3.746-7.351c-.35-2.357-.319-4.832 1.103-5.84 3.365-2.381 2.382 1.456 3.888 3.044 1.507 1.595 3.817 4.192 5.127 5.005 1.208.762 2.287 3.723 2.44 4.154-.173-.647-1.901-7.014-1.938-8.295-.044-1.352-1.082-8.485.682-11.044 1.761-2.556 4.109-.574 4.326-.068.218.506.282 7.416.903 9.341.624 1.922 3.22 9.938 3.22 9.938s.109-7.796.696-11.287c.583-3.486 2.11-6.218 3.603-6.373 1.493-.155 2.874 1.48 2.874 1.48s-.59 5.564-.421 6.85c.166 1.28-.244 5.924.465 8.42 0 0-.081-6.647.957-7.497 1.042-.85 1.931-1.258 2.514-.684.58.573.709 4.508 1.303 6.876.597 2.37.519 5.584.909 9.277.391 3.692 1.928 8.818 1.622 11.749-.305 2.923-1.245 10.197-2.002 14.463-.756 4.269-2.687 10.11-2.687 10.11s.879 3.119.709 5.901c-.173 2.783 6.715 21.303 6.715 21.303z" fill="#fff"/><path opacity=".4" d="M118.827 54.229l2.772 8.562s-3.369 2.462-3.285 4.745c.089 2.283-.617 6.9-2.127 6.768-1.51-.128-1.374-9.733-1.87-11.345.306.692.506 1.258.547 1.37-.112-.415-1.911-7.021-1.948-8.33-.01-.307-.071-.92-.143-1.713v-.017s3.346-3.183 5.806-1.234v.003c.071.49.153.897.248 1.19zm10.006 2.745c-1.568 1.477-3.933 4.09-4.231 6.61 0 0 .875 7.03.502 10.099l-3.057-9.513s.108-7.797.695-11.287l.051-.29c1.5-.762 3.556-1.443 6.138-1.49-.118 1.504-.213 3.115-.132 3.733.051.421.048 1.197.034 2.138zm1.379-1.211a4.813 4.813 0 00-.274.22 4.42 4.42 0 01.268-.44l.006.22z" fill="#A4CE2D"/><path opacity=".4" d="M131.019 75.21s-2.016-7.512-2.05-13.562c-.013-2.24.245-4.28.974-5.659l.003-.003c.085-.155.174-.304.269-.439l.006.22c.431-.351.832-.628 1.201-.79-.566.877-1.218 2.594-.464 5.383 1.184 4.367.152 9.701.061 14.85zm-27.803 14.32s.543 7.158-5.25 9.725h-.003a35.713 35.713 0 01-.73-.678c-.101-.095-.196-.19-.291-.28-.383-.378-.74-.745-1.055-1.106-.116-.132-.224-.26-.326-.385-.6-.738-1.025-1.43-1.167-2.053a.567.567 0 01-.02-.105.864.864 0 01-.02-.125 98.528 98.528 0 01-.201-1.767c-.014-.128-.027-.263-.044-.398-.007-.054-.014-.108-.017-.162-.061-.539-.126-1.112-.197-1.703a73.486 73.486 0 00-.251-1.901c-.034-.223-.065-.449-.098-.671 0-.004 0-.007-.004-.007a58.992 58.992 0 00-.23-1.403l-.02-.101a58.117 58.117 0 00-.303-1.487 32.905 32.905 0 00-.356-1.434c2.29-2.192 7.577-.816 5.018-5.89 0 0 1.29-4.344-2.263-9.055h.003c2.43 1.949 3.675 5.368 3.214 9.122 0 0 2.144 7.3 3.274 8.966 1.133 1.663 5.802-7.887 5.497-9-.058-.22-.143-.766-.238-1.51-.02-.166-.04-.341-.064-.527-.024-.185-.044-.378-.068-.577a6.506 6.506 0 01-.034-.29 125.338 125.338 0 00-.146-1.325c-.01-.115-.024-.23-.037-.344a74.507 74.507 0 01-.071-.708c-.011-.115-.028-.233-.038-.358-.027-.236-.047-.475-.074-.714l-.062-.618c-.037-.387-.078-.775-.112-1.15-.027-.28-.054-.56-.081-.822-.007-.061-.01-.122-.017-.182.095.441 1.815 8.582 2.796 10.477 1.008 1.956-3.271 12.231-5.914 10.545zm31.345 7.914c-.757 4.269-2.684 10.11-2.684 10.11s.879 3.119.706 5.901c-.048.749.421 2.637 1.12 4.998-.204-.519-2.365-6.09-2.331-8.033.04-2.04-.543-2.603-1.687-5.109-1.14-2.509-2.887-2.229-2.887-2.229s-.672 6.252-2.253 2.145c-1.578-4.111-1.883-8.886 2.097-25.477 0 0 .6 2.08.098 8.262-.506 6.184.984 8.053.984 8.053s3.217-5.264 5.29-12.262c0 0-.513 7.213-.974 10.501-.458 3.285 1.632-3.807 3.091-8.19 1.371-4.111 1.422-5.676.899-8.603.387 2.064.679 4.03.53 5.466-.302 2.927-1.242 10.201-1.999 14.467zm-27.217 13.904c1.174 1.854 4.048 4.306 5.761 11.088 1.714 6.781.635 14.203.635 14.203l-6.396-25.291z" fill="#A4CE2D"/><path opacity=".2" d="M98.22 72.843s-6.008 3.025-6.483 8.084c-1.738-3.855.522-2.462-.839-12.38 0 0 1.001-2.3 3.855-.462.22.142.43.297.638.462h.003a7.99 7.99 0 011.517 1.612l1.31 2.684z" fill="#1A1A1A" fill-opacity=".7"/><path d="M115.209 138.831s-4.191-22.139-6.695-25.625c-2.5-3.487-2.042-4.924-3.257-7.274-1.215-2.351-10.495-8.07-10.905-11.412-.411-3.338-.883-9.739-2.62-13.593-1.737-3.858.523-2.462-.841-12.38 0 0 1.007-2.296 3.858-.462 2.85 1.838 4.353 5.514 3.854 9.584 0 0 2.145 7.3 3.274 8.963 1.134 1.666 5.799-7.887 5.497-9.004-.302-1.116-1.198-10.612-1.337-12.342 0 0-3.396-5-3.746-7.351-.349-2.354-.319-4.833 1.103-5.838 3.366-2.38 2.382 1.457 3.889 3.049 1.506 1.591 3.817 4.188 5.127 5.004 1.309.816 2.456 4.205 2.456 4.205s-1.914-6.994-1.954-8.346c-.041-1.352-1.083-8.484.682-11.04 1.764-2.557 4.112-.574 4.326-.071.217.505.285 7.415.906 9.337.621 1.926 3.217 9.942 3.217 9.942s.112-7.797.695-11.287c.587-3.49 2.114-6.222 3.604-6.374 1.493-.155 2.874 1.48 2.874 1.48s-.591 5.565-.425 6.85c.167 1.285-.241 5.925.469 8.42 0 0-.085-6.646.956-7.496 1.042-.85 1.931-1.258 2.511-.685.584.573.71 4.509 1.307 6.876.593 2.367.519 5.585.909 9.277.39 3.693 1.927 8.819 1.622 11.746-.305 2.927-1.249 10.197-2.005 14.467-.757 4.269-2.684 10.109-2.684 10.109s.879 3.12.705 5.902c-.173 2.782 6.715 21.302 6.715 21.302" stroke="#1A1A1A" stroke-width=".75" stroke-miterlimit="10" stroke-linecap="round" stroke-linejoin="round"/><path d="M122.031 64.17c.703 1.64 2.436 8.56 3.057 9.517.621.958 1.324 1.248 1.324 1.248m2.85-11.675s-.15 1.416.621 5.938c.77 4.52 1.146 6.445 1.577 7.453" stroke="#1A1A1A" stroke-width=".75" stroke-miterlimit="10" stroke-linecap="round" stroke-linejoin="round"/><path d="M114.859 64.35c.944 2.755 1.473 7.145 2.009 8.467.536 1.322 1.015 1.595 1.015 1.595" stroke="#1A1A1A" stroke-miterlimit="10" stroke-linecap="round" stroke-linejoin="round"/><path d="M116.391 70.959s.987.728 1.303 1.635" stroke="#1A1A1A" stroke-width=".75" stroke-miterlimit="10" stroke-linecap="round" stroke-linejoin="round"/><path d="M101.883 86.633s.516 3.652 2.819 3.362m2.681-12.366s.598 4.34-.383 6.185" stroke="#1A1A1A" stroke-miterlimit="10" stroke-linecap="round" stroke-linejoin="round"/><path d="M125.774 77.67s1.547.94.512 3.702-2.833 13.904-2.833 13.904m9.067-14.693c.648 2.496.706 2.56-.346 5.625-1.056 3.065-2.752 10.572-2.752 10.572m2.46 10.774s-1.012-2.03-.177-3.7m-23.189 9.352s2.558 3.571 3.671 7.567" stroke="#1A1A1A" stroke-width=".75" stroke-miterlimit="10" stroke-linecap="round" stroke-linejoin="round"/><path d="M127.336 50.607l.692-.681.312-.088-.02.337-.635.806-.349-.374z" fill="#757575" stroke="#1A1A1A" stroke-miterlimit="10" stroke-linecap="round" stroke-linejoin="round"/><path d="M127.903 50.981l-1.123 2.54-30.267 40.105-3.372-2.134 4.577-5.706 27.185-33.891 2.399-1.514c-.003 0 .509.131.601.6z" fill="#A4CE2D"/><path opacity=".3" d="M127.903 50.981l-1.123 2.54-30.267 40.105-3.372-2.134 4.577-5.706c2.104-.216 2.453 1.018 2.453 1.018l26.076-33.823c-.255-.91-1.344-1.086-1.344-1.086l2.399-1.514c-.003 0 .509.131.601.6z" fill="#1A1A1A" fill-opacity=".7"/><path d="M127.903 50.981l-1.123 2.54-30.267 40.105-3.372-2.134 4.577-5.706 27.185-33.891 2.399-1.514c-.003 0 .509.131.601.6z" stroke="#1A1A1A" stroke-miterlimit="10" stroke-linecap="round" stroke-linejoin="round"/><path d="M106.379 81.752s-3.376 6.664-6.627 11.378l-2.32.597s-5.328 5.26-8.578 7.888c0 0-.835-.483-1.588-1.326 0 0 4.614-8.808 9.72-14.382 0 0 .744.226 1.677.883a8.185 8.185 0 011.747 1.666l5.691-7.115.278.411z" fill="#A4CE2D"/><path opacity=".3" d="M106.385 81.752s-3.376 6.664-6.627 11.378l-2.32.597s-5.328 5.26-8.579 7.888l.089-1.43c3.525-5.352 8.004-11.19 9.717-13.395a8.19 8.19 0 011.748 1.666l-3.162 4.195 1.811-.323 7.041-10.987.282.411z" fill="#1A1A1A" fill-opacity=".7"/><path d="M106.379 81.752s-3.376 6.664-6.627 11.378l-2.32.597s-5.328 5.26-8.578 7.888c0 0-.835-.483-1.588-1.326 0 0 4.614-8.808 9.72-14.382 0 0 .744.226 1.677.883a8.185 8.185 0 011.747 1.666l5.691-7.115.278.411z" stroke="#1A1A1A" stroke-miterlimit="10" stroke-linecap="round" stroke-linejoin="round"/><path d="M117.886 74.412l-9.453 9.112-1.51 1.457c1.035-2.644.533-6.728.468-7.227v-.007l-.006-.044a.462.462 0 00-.007-.07c-.058-.22-.143-.766-.238-1.511-.02-.165-.04-.34-.064-.526s-.044-.378-.068-.577a6.528 6.528 0 01-.034-.29 1.405 1.405 0 00-.013-.118c-.041-.38-.089-.786-.133-1.207-.01-.115-.024-.23-.037-.344a74.507 74.507 0 01-.071-.708c-.011-.115-.028-.233-.038-.358-.027-.236-.047-.475-.074-.715l-.061-.617c-.038-.388-.078-.775-.112-1.15-.031-.28-.058-.556-.082-.823-.007-.06-.01-.12-.017-.182a255.246 255.246 0 01-.295-3.224s-3.393-4.997-3.746-7.35c-.349-2.355-.319-4.833 1.103-5.838 3.366-2.384 2.378 1.453 3.885 3.045 1.506 1.595 3.82 4.188 5.127 5.004 1.306.82 2.456 4.205 2.456 4.205.94 2.755 1.473 7.143 2.009 8.468.533 1.322 1.011 1.595 1.011 1.595z" fill="#fff"/><path d="M116.383 70.959s.987.728 1.303 1.635" stroke="#1A1A1A" stroke-miterlimit="10" stroke-linecap="round" stroke-linejoin="round"/><path opacity=".4" d="M107.278 55.14c1.5 1.592 3.804 4.172 5.114 4.998-.183-.091-2.596-1.261-3.943.04-1.401 1.356-2.416 5.11-2.416 5.11s-3.393-4.998-3.746-7.352c-.349-2.354-.319-4.832 1.103-5.837 3.366-2.384 2.382 1.453 3.888 3.041zm1.147 28.383l-1.51 1.457c1.035-2.644.533-6.728.468-7.227v-.006a.497.497 0 00-.013-.115c-.058-.22-.143-.766-.238-1.51-.02-.166-.04-.341-.064-.527-.024-.185-.044-.377-.068-.576a6.506 6.506 0 01-.034-.29 125.001 125.001 0 00-.146-1.325c-.01-.116-.024-.23-.037-.345a74.062 74.062 0 01-.071-.708c-.011-.115-.028-.233-.038-.357-.027-.237-.047-.476-.074-.715l-.062-.617c-.037-.388-.078-.776-.111-1.15l-.082-.823c-.007-.06-.01-.122-.017-.182.095.441 1.815 8.582 2.796 10.477.366.722.024 2.57-.699 4.54z" fill="#A4CE2D"/><path d="M117.884 74.412s-.479-.273-1.015-1.595c-.536-1.322-1.069-5.713-2.009-8.468 0 0-1.15-3.39-2.456-4.205-1.306-.816-3.617-3.413-5.127-5.005-1.507-1.591-.523-5.429-3.889-3.048-1.421 1.005-1.448 3.483-1.102 5.837.349 2.354 3.746 7.352 3.746 7.352.139 1.733 1.035 11.23 1.337 12.342m-.001.007s.597 4.34-.384 6.185" stroke="#1A1A1A" stroke-width=".75" stroke-miterlimit="10" stroke-linecap="round" stroke-linejoin="round"/><path opacity=".2" d="M49.334 82.94s2.148 9.912-2.504 17.125c-4.652 7.213-8.232 9.135-9.843 11.287-1.612 2.151-7.913 14.18-7.913 14.18l-7.363-21.673 7.363-26.813 20.26 5.895z" fill="#1A1A1A" fill-opacity=".7"/><path d="M92.735 75.363L47.078 94.46l-4.706 1.97-8.87-20.946-20.596-48.637L63.27 5.78l29.465 69.583z" fill="#fff"/><path d="M50.262 14.831l-21.74 9.095a.794.794 0 00-.427 1.042.802.802 0 001.048.425l21.74-9.092a.794.794 0 00.427-1.042.803.803 0 00-1.048-.428zM46.1 20.123l-10.87 4.545a.4.4 0 00-.215.523.404.404 0 00.526.213l10.872-4.546a.4.4 0 00.214-.523.405.405 0 00-.526-.212z" fill="#1A1A1A"/><path d="M63.992 47.82s.458 3.577-.882 4.14c-1.225.513-2.837-1.41-4.245-.819-1.408.59-.299 5.662-1.656 6.232-1.357.57-2.993-1.518-4.163-1.029-1.17.49-.462 3.1-1.67 3.605-.997.418-2.422-1.659-3.562-2.114-.241-.098-.469-.121-.679-.034-1.194.5-.6 5.952-1.632 6.38a1.904 1.904 0 01-.916.149c-.407-.027-.767-.149-1.164-.108-.14.013-.282.047-.434.111-.88.368-.76 3.237-1.565 3.575-.804.337-1.598-.081-2.456.28-.859.36-.845 1.851-2.124 2.387l.543 1.278 31.253-13.07" fill="#BFBFBF"/><path d="M63.992 47.82s.458 3.577-.882 4.14c-1.225.513-2.837-1.41-4.245-.819-1.408.59-.299 5.662-1.656 6.232-1.357.57-2.993-1.518-4.163-1.029-1.17.49-.462 3.1-1.67 3.605-.997.418-2.422-1.659-3.562-2.114-.241-.098-.469-.121-.679-.034-1.194.5-.6 5.952-1.632 6.38a1.904 1.904 0 01-.916.149c-.407-.027-.767-.149-1.164-.108-.14.013-.282.047-.434.111-.88.368-.76 3.237-1.565 3.575-.804.337-1.598-.081-2.456.28-.859.36-.845 1.851-2.124 2.387l.543 1.278 31.253-13.07" stroke="#1A1A1A" stroke-width=".5" stroke-miterlimit="10"/><path d="M31.047 56.911l6.328 14.942L70.098 58.17" stroke="#1A1A1A" stroke-width=".5" stroke-miterlimit="10" stroke-linecap="round" stroke-linejoin="round"/><path d="M66.504 53.757s-.153-.188-.387-.411c-.404-.388-1.045-.88-1.533-.678-.479.2-.52.988-.51 1.828.01 1.025.102 2.124-.417 2.344-.44.185-.834-.095-1.242-.395-.465-.344-.94-.722-1.513-.482-.964.404-.672 1.652-1.011 2.721-.173.547-.512 1.046-1.27 1.363-.834.347-1.679.006-2.473-.533-1.343-.91-2.551-2.388-3.332-2.06-1.245.519.13 3.867-1.211 4.427-.746.314-2.294-2.03-3.797-4.043-1.187-1.595-2.348-2.981-3.064-2.684-1.615.674 1.045 8.676-.129 9.169-.01.003-.023.01-.037.013-.489.192-.848.07-1.164-.108-.424-.24-.767-.576-1.235-.38-.865.36-.356 3.496-1.31 3.897-.953.398-1.523-.178-2.595.27-.906.378-1.446 2.563-1.446 2.563l.543 1.278 31.254-13.07" fill="#757575"/><path d="M66.504 53.757s-.153-.188-.387-.411c-.404-.388-1.045-.88-1.533-.678-.479.2-.52.988-.51 1.828.01 1.025.102 2.124-.417 2.344-.44.185-.834-.095-1.242-.395-.465-.344-.94-.722-1.513-.482-.964.404-.672 1.652-1.011 2.721-.173.547-.512 1.046-1.27 1.363-.834.347-1.679.006-2.473-.533-1.343-.91-2.551-2.388-3.332-2.06-1.245.519.13 3.867-1.211 4.427-.746.314-2.294-2.03-3.797-4.043-1.187-1.595-2.348-2.981-3.064-2.684-1.615.674 1.045 8.676-.129 9.169-.01.003-.023.01-.037.013-.489.192-.848.07-1.164-.108-.424-.24-.767-.576-1.235-.38-.865.36-.356 3.496-1.31 3.897-.953.398-1.523-.178-2.595.27-.906.378-1.446 2.563-1.446 2.563l.543 1.278 31.254-13.07" stroke="#1A1A1A" stroke-width=".5" stroke-miterlimit="10" stroke-linecap="round" stroke-linejoin="round"/><path d="M59.89 64.427l-10.872 4.546a.4.4 0 10.312.735l10.872-4.546a.4.4 0 00.214-.522.405.405 0 00-.526-.213z" fill="#1A1A1A"/><path d="M69.107 47.954l-1.051.438a.216.216 0 01-.279-.111l-.44-1.045a.213.213 0 01.111-.277l1.052-.438a.215.215 0 01.278.11l.441 1.046a.207.207 0 01-.112.277z" fill="#BFBFBF" stroke="#1A1A1A" stroke-miterlimit="10"/><path d="M74.177 44.764l-4.343 1.817a.179.179 0 01-.234-.094.177.177 0 01.095-.233l4.343-1.817a.179.179 0 01.234.094.178.178 0 01-.095.233zm-1.019 1.268l-3.02 1.261a.179.179 0 01-.234-.094.177.177 0 01.095-.233l3.02-1.26a.179.179 0 01.234.093.177.177 0 01-.095.233z" fill="#1A1A1A"/><path d="M70.467 51.164l-1.052.438a.215.215 0 01-.278-.111l-.441-1.046a.213.213 0 01.112-.276l1.051-.438a.216.216 0 01.279.11l.44 1.046a.207.207 0 01-.111.277z" fill="#757575" stroke="#1A1A1A" stroke-miterlimit="10" stroke-linecap="round" stroke-linejoin="round"/><path d="M75.536 47.97l-4.343 1.818a.179.179 0 01-.234-.094.177.177 0 01.095-.233l4.343-1.817a.179.179 0 01.234.094.177.177 0 01-.095.233zm-1.026 1.272l-3.02 1.261a.179.179 0 01-.234-.094.177.177 0 01.095-.233l3.02-1.261a.179.179 0 01.234.094.174.174 0 01-.095.233zm6.738 11.961L45.963 75.96a.4.4 0 10.313.735L81.56 61.938a.4.4 0 10-.312-.735zm1.12 2.64l-41.03 17.162a.4.4 0 10.313.735L82.68 64.579a.4.4 0 00.214-.523.405.405 0 00-.526-.213zm1.109 2.641l-41.03 17.161a.4.4 0 00-.213.523.404.404 0 00.526.212l41.03-17.16a.4.4 0 00.213-.523.404.404 0 00-.526-.213zm1.125 2.644l-41.03 17.161a.4.4 0 00-.213.523.404.404 0 00.526.212l41.03-17.161a.4.4 0 10-.313-.735zm-16.116 9.847L44.69 88.926a.4.4 0 00-.214.523.404.404 0 00.526.212l23.796-9.951a.4.4 0 00.214-.523.404.404 0 00-.526-.212z" fill="#1A1A1A"/><path d="M55.382 27.497s.459 3.578-.882 4.141c-1.225.513-2.836-1.41-4.245-.82-1.408.59-.298 5.663-1.655 6.233-1.358.566-2.993-1.518-4.164-1.029-1.17.489-.461 3.1-1.669 3.605-.998.418-2.423-1.66-3.563-2.114-.24-.098-.471-.122-.678-.034-1.195.499-.601 5.952-1.633 6.38a1.904 1.904 0 01-.916.148c-.407-.026-.766-.148-1.163-.107-.14.013-.282.047-.435.11-.879.369-.76 3.238-1.564 3.576-.804.337-1.598-.081-2.457.28-.858.36-.844 1.85-2.124 2.387l.543 1.278 31.254-13.07" fill="#BFBFBF"/><path d="M55.382 27.497s.459 3.578-.882 4.141c-1.225.513-2.836-1.41-4.245-.82-1.408.59-.298 5.663-1.655 6.233-1.358.566-2.993-1.518-4.164-1.029-1.17.489-.461 3.1-1.669 3.605-.998.418-2.423-1.66-3.563-2.114-.24-.098-.471-.122-.678-.034-1.195.499-.601 5.952-1.633 6.38a1.904 1.904 0 01-.916.148c-.407-.026-.766-.148-1.163-.107-.14.013-.282.047-.435.11-.879.369-.76 3.238-1.564 3.576-.804.337-1.598-.081-2.457.28-.858.36-.844 1.85-2.124 2.387l.543 1.278 31.254-13.07" stroke="#1A1A1A" stroke-width=".5" stroke-miterlimit="10"/><path d="M57.4 32.269s.286 1.733-.403 2.023c-.573.24-.926-.095-1.53-.115-.241-.01-.523.03-.876.179-.553.23-.685.971-.784 1.77-.122.982-.183 2.044-.905 2.348-.506.212-1.052.087-1.616-.108-.895-.31-1.842-.803-2.751-.422-.441.185-.75.661-.991 1.251-.567 1.393-.743 3.41-1.357 3.666-.872.364-2.47-1.127-3.244-.803-.774.324-.458 1.663-1.086 1.926-.628.263-.987-.513-2.093-.05-1.107.461-.567 2.087-2.128 2.737-1.56.651-2.243-.546-3.753.085-1.51.63-1.235 1.767-2.297 2.212-1.062.445-1.513-.327-2.273-.01-.74.31-.94 1.514-.954 1.591l.418.985 31.253-13.07" fill="#A4CE2D"/><path d="M57.4 32.269s.286 1.733-.403 2.023c-.573.24-.926-.095-1.53-.115-.241-.01-.523.03-.876.179-.553.23-.685.971-.784 1.77-.122.982-.183 2.044-.905 2.348-.506.212-1.052.087-1.616-.108-.895-.31-1.842-.803-2.751-.422-.441.185-.75.661-.991 1.251-.567 1.393-.743 3.41-1.357 3.666-.872.364-2.47-1.127-3.244-.803-.774.324-.458 1.663-1.086 1.926-.628.263-.987-.513-2.093-.05-1.107.461-.567 2.087-2.128 2.737-1.56.651-2.243-.546-3.753.085-1.51.63-1.235 1.767-2.297 2.212-1.062.445-1.513-.327-2.273-.01-.74.31-.94 1.514-.954 1.591l.418.985 31.253-13.07" stroke="#1A1A1A" stroke-width=".5" stroke-miterlimit="10"/><path d="M22.438 36.589l6.328 14.942 32.723-13.688" stroke="#1A1A1A" stroke-width=".5" stroke-miterlimit="10" stroke-linecap="round" stroke-linejoin="round"/><path d="M51.179 43.873l-10.872 4.545a.4.4 0 00-.214.523.404.404 0 00.526.212l10.872-4.545a.4.4 0 00.214-.523.405.405 0 00-.526-.212z" fill="#1A1A1A"/><path d="M59.94 26.337l-1.048.438a.215.215 0 01-.279-.111l-.44-1.046a.213.213 0 01.111-.276l1.052-.438a.215.215 0 01.278.11l.441 1.046a.214.214 0 01-.115.277z" fill="#BFBFBF" stroke="#1A1A1A" stroke-miterlimit="10"/><path d="M65.013 23.143l-4.343 1.818a.179.179 0 01-.234-.094.177.177 0 01.095-.233l4.343-1.818a.179.179 0 01.234.095c.04.087-.004.192-.095.232zm-1.019 1.272l-3.02 1.261a.179.179 0 01-.234-.094.177.177 0 01.095-.233l3.02-1.261a.179.179 0 01.234.094.18.18 0 01-.095.233z" fill="#1A1A1A"/><path d="M61.303 29.545l-1.052.438a.216.216 0 01-.278-.111l-.441-1.046a.213.213 0 01.112-.276l1.051-.439a.215.215 0 01.279.112l.44 1.045a.207.207 0 01-.111.277z" fill="#A4CE2D" stroke="#1A1A1A" stroke-miterlimit="10"/><path d="M66.372 26.355l-4.343 1.817a.179.179 0 01-.234-.094.177.177 0 01.095-.233l4.343-1.818a.179.179 0 01.234.095.18.18 0 01-.095.233zm-1.026 1.267l-3.02 1.261a.179.179 0 01-.234-.094.177.177 0 01.095-.233l3.02-1.261a.179.179 0 01.234.094.177.177 0 01-.095.233z" fill="#1A1A1A"/><path opacity=".2" d="M47.076 94.46l-4.706 1.97-8.87-20.946c.556-.526 1.208-1.426 1.483-2.89.53-2.805.156-11.826 7.224-12.757 7.064-.93 1.106 14.865 1.431 17.877.3 2.741 4.327 10.71 3.438 16.746z" fill="#1A1A1A" fill-opacity=".7"/><path d="M92.735 75.363L47.078 94.46l-4.706 1.97-8.87-20.946-20.596-48.637L63.27 5.78l29.465 69.583z" stroke="#1A1A1A" stroke-miterlimit="10" stroke-linecap="round" stroke-linejoin="round"/><path d="M44.233 78.854c.79-2.691 3.885-11.334 3.481-15.155a3.747 3.747 0 00-.217-.93c-1.086-2.854-5.524-2.577-7.23-.213-1.873 2.6-3.4 7.28-3.533 10.127-.07 1.574-.75 3.018-1.343 3.999-.004.007-.004.01-.007.013-.478.79-.9 1.268-.9 1.268L24.357 54.081s-1.635 1.316-2.65 2.94c-.41.652-.715 1.36-.777 2.048-.207 2.35-2.887 12.015-4.003 16.096-.02.087-.048.168-.068.249-1.072 3.919 1.757 18.473.95 22.702-.811 4.225-1.313 4.134-1.429 7.136-.085 2.191-3.24 8.855-6.776 15.697a482.922 482.922 0 01-5.955 11.119l25.896-1.069c.448-3.127.91-6.428 1.33-9.621a36.25 36.25 0 01.774-3.949v-.004c.57-2.293 1.27-4.367 1.69-5.581.662-1.895 1.35-5.429 1.35-5.429 3.013-3.17 6.963-8.147 8.106-11.523a.062.062 0 00.007-.024c.289-.853.394-1.601.258-2.188-.115-.486-.176-1.116-.203-1.841.003-.004.003-.004 0-.007-.126-3.652.712-9.732 1.377-11.978z" fill="#fff"/><path opacity=".4" d="M35.385 76.692c-.804 1.601-1.771 3.156-2.389 4.953-.617 1.794-1.279 2.05-3.094 3.454-1.812 1.406-3.135-.911-3.135-.911s2.399-2.475 1.601-3.854c-.8-1.38-3.783-4.81-3.603-6.701.173-1.892-1.809-6.134-1.809-6.134s4.523-2.637 3.644-5.72c-.478-1.689-2.846-3.483-4.89-4.761 1.015-1.625 2.65-2.94 2.65-2.94L34.49 77.96s.417-.48.895-1.268zM18.968 91.34c.06.203 1.533 5.035.291 7.048-1.272 2.057-2.517 4.684-1.91 7.416.485 2.185-3.587 10.076-7.74 15.141 3.536-6.842 6.691-13.506 6.776-15.698.12-3.001.618-2.91 1.429-7.135.807-4.229-2.019-18.783-.95-22.702.02-.081.047-.162.068-.25.79 4.442 2.633 13.287 3.138 16.13.645 3.622-1.035.195-1.102.05zm9.322 29.16c3.009-12.878 13.137-22.752 14.508-25.612-1.144 3.372-5.093 8.353-8.106 11.523 0 0-.689 3.531-1.35 5.429-.425 1.214-1.12 3.288-1.69 5.581v.004c-2.942 3.443-3.363 3.075-3.363 3.075zm15.943-41.647c-.665 2.243-1.506 8.323-1.374 11.975-.533-2.293-1.557-5.207-1.727-9.264-.288-6.879 3.634-4.41 2.267-7.8-1.368-3.385-5.267.955-3.346-6.218 1.401-5.237 5.395-5.19 7.444-4.782.106.277.18.587.218.931.407 3.824-2.688 12.467-3.482 15.158z" fill="#A4CE2D"/><path d="M7.594 124.961c3.247-5.898 6.406-11.964 8.68-18.507.27-.94-.092-2.165.182-3.105 3.078-8.498-.413-17.344.16-26.044.482-3.43 1.585-6.886 2.687-10.34.52-2.502.716-5.297 1.544-7.813.855-1.895 1.7-4.1 3.519-5.072 3.46 7.885 6.912 15.8 10.128 23.883 1.452-.837 1.687-2.705 1.934-4.266.78-3.754 1.571-7.193 3-10.353 1.452-2.54 5.15-3.622 7.42-1.548.648.593.998 1.507 1.039 2.438-.441 4.357-1.82 8.754-3.207 12.842-.546 1.881-1.103 3.456-1.337 5.324l.065 1.548c-.804 3.133-.065 5.892-.248 9-.702 5.609-5.215 9.517-8.472 13.678-.805 3.133-1.609 6.266-2.725 9.412-1.364 4.708-1.792 9.375-2.257 13.911" stroke="#1A1A1A" stroke-width=".75" stroke-miterlimit="10" stroke-linecap="round" stroke-linejoin="round"/><path d="M34.5 77.96s-1.066 2.033-1.49 3.685c-.424 1.652-2.572 1.413-3.682 2.442" stroke="#1A1A1A" stroke-width=".75" stroke-miterlimit="10" stroke-linecap="round" stroke-linejoin="round"/><path d="M26.39 75.052s2.922 1.025 4.622 2.344c1.7 1.318 2.959 1.642 2.959 1.642m-9.44-11.185s2.358.657 4.106-.17c0 0 .129-1.436.444-2.491" stroke="#1A1A1A" stroke-width=".75" stroke-miterlimit="10" stroke-linecap="round" stroke-linejoin="round"/><path d="M29.203 68.022s.024.327 1.228.34" stroke="#1A1A1A" stroke-miterlimit="10" stroke-linecap="round" stroke-linejoin="round"/><path d="M34.69 106.414s-2.3 2.074-3.706 5.811M16.722 76.131c-.105 2.02 2.28 9.2 3.006 12.764.726 3.568.995 6.09.995 6.09" stroke="#1A1A1A" stroke-width=".75" stroke-miterlimit="10" stroke-linecap="round" stroke-linejoin="round"/></g><defs><clipPath id="clip0_174_72774"><path fill="#fff" d="M0 0h152v139H0z"/></clipPath></defs></svg>