<svg width="150" height="153" fill="none" xmlns="http://www.w3.org/2000/svg"><path d="M132.632 55.766c-.882-2.826-1.978-5.59-3.396-8.243-7.161-13.397-19.719-23.502-33.455-29.475-10.903-4.74-24.392-7.218-35.963-2.948-5.854 2.16-11.36 6.304-14.499 11.81-4.097 7.193-3.702 16.114-6.947 23.671-2.63 6.126-9.175 9.806-14.302 13.566-8 5.868-15.878 12.811-18.652 22.74-3.703 13.249-2.607 29.005 4.893 40.779 5.595 8.779 15.17 11.419 25.053 11.598 9.327.173 20.723-2.199 29.437 2.081 14.828 7.292 34.396 15.471 50.988 9.703 17.099-5.946 25.494-17.528 27.982-32.549 2.488-15.024-4.354-27.543-6.529-39.437-1.379-7.51-2.274-15.81-4.61-23.296z" fill="#A4CE2D"/><path opacity=".8" d="M132.632 55.766c-.882-2.826-1.978-5.59-3.396-8.243-7.161-13.397-19.719-23.502-33.455-29.475-10.903-4.74-24.392-7.218-35.963-2.948-5.854 2.16-11.36 6.304-14.499 11.81-4.097 7.193-3.702 16.114-6.947 23.671-2.63 6.126-9.175 9.806-14.302 13.566-8 5.868-15.878 12.811-18.652 22.74-3.703 13.249-2.607 29.005 4.893 40.779 5.595 8.779 15.17 11.419 25.053 11.598 9.327.173 20.723-2.199 29.437 2.081 14.828 7.292 34.396 15.471 50.988 9.703 17.099-5.946 25.494-17.528 27.982-32.549 2.488-15.024-4.354-27.543-6.529-39.437-1.379-7.51-2.274-15.81-4.61-23.296z" fill="#A4CE2D"/><path d="M7.862 100.875a35.554 35.554 0 01-.102-3.84c.342-.278 1.698-1.421 2.08-2.196.372-.756.632-1.822.234-2.627-.392-.789-1.356-1.173-2.123-.693-1.063.666-1.152 2.952-.865 4.055.026.096.579 1.54.599 1.527l.02-.016c-.017.361-.03.749-.037 1.173a32.958 32.958 0 00.096 3.124c.118.182.187.295.187.295-.033-.275-.066-.547-.089-.802z" fill="#fff"/><path d="M4.448 98.447c-1.428.235-1.612 1.583-.28 2.444 1.13.729 3.058.782 3.62.779-.01-.099-.016-.199-.023-.298-.54-.828-2.145-3.121-3.317-2.925zm28.42-6.328c-1.26-.04-2.59 1.796-2.952 2.862-.033.093-.355 1.594-.332 1.594l.026-.003a33.454 33.454 0 00-2.067 3.147c-.052.093-.108.192-.16.288-.024.232-.043.368-.043.368l-.116-.09a24.595 24.595 0 00-1.079 2.187c-.434 1.014-.84 2.104-1.112 3.28-.004.013-.004.026-.007.039a35.834 35.834 0 00-.154-1.487c-.247-1.11-1.366-3.121-2.62-3.26-.905-.099-1.596.663-1.586 1.537.006.898.73 1.739 1.405 2.256.76.58 2.77 1.047 2.932 1.084a26.604 26.604 0 00-.517 3.501 48.894 48.894 0 00-.125 2.078 12.477 12.477 0 00-.075-.646c-.247-1.11-1.366-3.121-2.62-3.26-.905-.1-1.596.662-1.586 1.537.007.898.73 1.739 1.405 2.256.685.523 2.393.954 2.847 1.063-.01.269-.02.534-.027.802-.036 1.282-.065 2.561-.134 3.817-.023.44-.063.874-.102 1.308-.03-.285-.06-.523-.066-.56-.247-1.11-1.366-3.12-2.62-3.26-.905-.099-1.596.66-1.586 1.538.007.897.73 1.739 1.405 2.256.655.5 2.225.911 2.764 1.043-.036.305-.072.61-.115.908.191.056.385.103.583.142a34.29 34.29 0 00.174-1.755c.47.132 2.14.579 2.975.457.83-.123 1.85-.51 2.268-1.296.408-.768.144-1.775-.695-2.133-1.168-.497-3.073.725-3.794 1.583-.046.053-.494.729-.734 1.104.03-.434.06-.865.072-1.302.04-1.266.043-2.551.053-3.833.003-.395.01-.786.013-1.176.168.049 2.143.622 3.077.483.83-.122 1.85-.51 2.267-1.295.409-.769.145-1.776-.694-2.134-1.168-.497-3.073.726-3.794 1.584a36.424 36.424 0 00-.853 1.292 55.33 55.33 0 01.086-2.568c.072-1.166.207-2.305.421-3.399.08.024 2.136.63 3.094.491.829-.123 1.85-.51 2.267-1.296.408-.768.145-1.775-.694-2.133-1.169-.497-3.074.725-3.795 1.583-.056.067-.75 1.114-.862 1.312.013-.066.02-.132.033-.198.244-1.163.622-2.256 1.027-3.264.233-.586.49-1.129.753-1.656.372.152 2.084.831 2.959.802.839-.03 1.899-.302 2.399-1.037.49-.72.339-1.746-.46-2.197-1.11-.623-3.14.378-3.953 1.15-.043.043-.448.52-.734.871.122-.235.244-.48.365-.702a34.749 34.749 0 012.02-3.227c.442-.04 2.212-.229 2.956-.656.724-.417 1.534-1.153 1.636-2.04.092-.859-.51-1.71-1.419-1.74z" fill="#fff"/><path d="M15.557 119.47c.085.172.168.341.253.51.191-.066.379-.126.563-.185a35.815 35.815 0 00-.668-1.276c.46-.149 2.083-.702 2.705-1.269.619-.563 1.247-1.457 1.158-2.352-.085-.874-.852-1.58-1.744-1.414-1.237.232-2.139 2.319-2.264 3.442-.007.069-.01.888 0 1.338-.214-.381-.425-.762-.655-1.14-.661-1.089-1.362-2.176-2.057-3.259-.214-.332-.42-.666-.632-.998.165-.049 2.11-.665 2.804-1.302.619-.563 1.247-1.457 1.159-2.352-.086-.874-.853-1.58-1.744-1.414-1.238.232-2.14 2.319-2.265 3.442-.01.086-.01 1.262.007 1.563a50.796 50.796 0 01-1.333-2.213 26.577 26.577 0 01-1.514-3.1c.076-.024 2.11-.656 2.82-1.306.62-.563 1.248-1.457 1.16-2.352-.087-.874-.853-1.58-1.745-1.415-1.237.232-2.14 2.32-2.264 3.443-.01.089-.01 1.355.01 1.586-.027-.062-.06-.122-.083-.185-.437-1.116-.724-2.25-.94-3.323A22.525 22.525 0 018 102.124c.392-.08 2.175-.458 2.88-.971.677-.49 1.401-1.309 1.411-2.206.01-.878-.678-1.663-1.583-1.594-1.257.093-2.382 2.064-2.63 3.164-.012.06-.081.686-.127 1.143 0 0-.063.003-.165.003.063.736.151 1.511.296 2.309.198 1.097.458 2.24.879 3.383.003.013.01.026.016.039a40.21 40.21 0 00-.94-1.166c-.81-.798-2.838-1.871-3.95-1.292-.8.421-.954 1.445-.467 2.18.497.752 1.556 1.06 2.396 1.12.947.066 2.863-.656 3.014-.716a27.06 27.06 0 001.494 3.24c.33.613.678 1.216 1.033 1.819a26.814 26.814 0 00-.414-.503c-.81-.799-2.837-1.872-3.95-1.289-.799.421-.954 1.444-.467 2.18.497.752 1.554 1.06 2.396 1.12.852.059 2.498-.524 2.932-.683.139.229.277.461.418.689.671 1.1 1.35 2.197 1.981 3.29.224.384.428.772.635 1.159-.18-.222-.335-.41-.362-.437-.81-.798-2.836-1.872-3.949-1.289-.8.421-.954 1.445-.467 2.18.497.752 1.557 1.06 2.396 1.12.81.066 2.333-.46 2.85-.646zM26.63 95.65c-1.257-.726-2.244.205-1.75 1.716.42 1.295 1.912 2.577 2.333 2.918.052-.096.105-.185.158-.278.099-1.007.28-3.767-.74-4.356zm75.9 52.565c-1.389.037-2.735 2.154-3.067 3.36-.016.063-.125.725-.197 1.222.654.06 1.309.109 1.964.143.5-.14.978-.312 1.287-.514.773-.507 1.612-1.371 1.672-2.362.056-.971-.658-1.875-1.659-1.849zm-11.97-18.75c-1.6.007-2.034 1.444-.731 2.617 1.106.994 3.199 1.388 3.814 1.488.007-.113.016-.219.026-.328-.44-1.001-1.796-3.784-3.11-3.777zm25.753 18.512c.576-.768.467-1.911-.388-2.451-1.188-.746-3.479.252-4.413 1.06a34.3 34.3 0 00-1.152 1.262c.161-.937.332-1.872.539-2.783a29.62 29.62 0 011.05-3.634c.079.04 2.222 1.064 3.291 1.077.928.013 2.106-.232 2.695-1.017.579-.769.468-1.912-.388-2.452-1.188-.745-3.478.252-4.413 1.06a36.496 36.496 0 00-1.168 1.282c.026-.069.042-.142.069-.212.464-1.225 1.069-2.352 1.685-3.379.358-.596.73-1.146 1.109-1.673.378.232 2.129 1.272 3.09 1.392.921.116 2.122.003 2.794-.709.658-.699.671-1.846-.122-2.475-1.102-.871-3.488-.136-4.508.56-.056.036-.576.487-.951.821.174-.235.348-.48.519-.702a36.252 36.252 0 011.847-2.193c.325-.358.628-.676.914-.971.488.033 2.452.139 3.337-.195.863-.328 1.87-.987 2.139-1.938.264-.931-.25-1.965-1.234-2.157-1.369-.265-3.133 1.504-3.715 2.607-.049.096-.665 1.677-.638 1.68l.029.003c-.28.279-.579.58-.898.915a36.48 36.48 0 00-1.899 2.156c-.076.093-.151.192-.227.285-.066.249-.112.394-.112.394s-.043-.043-.109-.119a25.728 25.728 0 00-1.556 2.197c-.648 1.03-1.28 2.146-1.78 3.382-.007.013-.01.03-.017.043.036-.411.096-1.56.089-1.65-.076-1.255-.948-3.644-2.294-4.015-.971-.265-1.853.441-1.997 1.401-.145.981.493 2.025 1.142 2.707.73.769 2.843 1.63 3.011 1.7a29.279 29.279 0 00-1.169 3.73 49.015 49.015 0 00-.496 2.243c.019-.355.032-.673.029-.719-.076-1.256-.948-3.644-2.294-4.015-.97-.265-1.852.44-1.997 1.401-.148.981.494 2.024 1.142 2.707.658.692 2.445 1.461 2.919 1.659-.056.292-.115.58-.168.868-.224 1.19-.448 2.376-.688 3.545.198-.026.395-.053.593-.083.2-1.116.388-2.242.575-3.369.07-.427.145-.851.221-1.279.174.083 2.228 1.054 3.271 1.07.921.01 2.1-.235 2.692-1.017z" fill="#fff"/><path d="M115.255 130.31c-1.244-1.01-2.485-.172-2.208 1.567.237 1.487 1.639 3.147 2.037 3.591.072-.093.145-.185.22-.275.29-1.08.965-4.058-.049-4.883zm-21.385 2.401a36.724 36.724 0 01.556-4.207c.42-.245 2.099-1.252 2.649-2.031.536-.758 1.007-1.875.707-2.826-.293-.931-1.277-1.517-2.195-1.129-1.273.54-1.767 3.018-1.649 4.27.01.109.366 1.782.389 1.772 0 0 .02-.013.026-.013a37.873 37.873 0 00-.635 4.151c-.017.179-.03.361-.046.544.099.218.151.354.151.354.017-.295.027-.6.046-.885zm.413 17.914c-.599.202-.957.715-1.033 1.289a59.53 59.53 0 005.1.788c-.76-1.014-2.763-2.515-4.067-2.077zm11.939-.6c-.971-.265-1.853.44-1.998 1.401-.079.527.073 1.07.326 1.567a40.38 40.38 0 003.705-.248c-.362-1.176-1.076-2.458-2.033-2.72z" fill="#fff"/><path d="M98.728 151.678c-.53-1.305-1.109-2.611-1.682-3.916-.174-.401-.345-.798-.516-1.199.187-.027 2.415-.358 3.284-.928.773-.507 1.613-1.371 1.672-2.362.059-.971-.658-1.872-1.659-1.849-1.389.037-2.734 2.154-3.067 3.36a36.218 36.218 0 00-.263 1.706 58.089 58.089 0 01-1.073-2.647 30.158 30.158 0 01-1.116-3.648c.09-.013 2.416-.344 3.304-.931.774-.506 1.613-1.371 1.672-2.362.06-.97-.658-1.871-1.658-1.848-1.39.036-2.735 2.153-3.068 3.359a37.199 37.199 0 00-.266 1.733c-.017-.073-.043-.146-.056-.216-.283-1.292-.401-2.58-.45-3.79a25.95 25.95 0 01.002-2.027c.441-.017 2.452-.116 3.311-.553.823-.418 1.754-1.183 1.922-2.157.165-.954-.45-1.932-1.448-2.018-1.385-.119-2.955 1.832-3.416 2.992-.026.063-.21.732-.339 1.222l-.178-.026a27.36 27.36 0 00-.079 2.571c.027 1.229.112 2.521.376 3.846l.01.046a36.685 36.685 0 00-.827-1.437c-.747-1.014-2.77-2.541-4.084-2.101-.944.318-1.29 1.408-.885 2.296.412.908 1.514 1.431 2.419 1.643 1.02.239 3.235-.215 3.413-.252.26 1.259.628 2.528 1.07 3.797.25.726.526 1.448.812 2.167a17.255 17.255 0 00-.365-.623c-.747-1.014-2.771-2.541-4.084-2.101-.945.318-1.29 1.408-.885 2.296.41.908 1.513 1.431 2.418 1.644.918.215 2.814-.133 3.317-.232.112.275.221.55.336.825.543 1.318 1.093 2.633 1.59 3.935.105.279.204.557.302.832.22.023.441.046.659.066a41.535 41.535 0 00-.425-1.113z" fill="#fff"/><path d="M101.216 38.736c.28.155.536.347.767.566m-4.091 8.223l.217 1.308 1.448.126.438-1.239a5.551 5.551 0 001.392-.305l.911.935 1.258-.733-.346-1.258c.365-.312.688-.67.968-1.06l1.276.238.612-1.325-1-.832c.115-.454.178-.93.181-1.421l1.191-.547-.253-1.437-1.313-.103a5.77 5.77 0 00-.658-1.252l.678-1.153-1.027-1.034-1.152.69a5.72 5.72 0 00-2.201-.905l-.333-1.325h-1.451l-.336 1.335a5.626 5.626 0 00-1.306.417l-1.037-.904-1.188.838.49 1.292a5.717 5.717 0 00-.832 1.09l-1.366-.143-.497 1.375 1.132.772a5.96 5.96 0 00-.082.97c0 .14.007.276.016.412l-1.19.669.374 1.411 1.35-.016c.2.427.447.825.74 1.186l-.582 1.215 1.112.941 1.08-.778 1.286.55zm4.736-7.381c.296.53.467 1.14.467 1.792 0 2.014-1.623 3.65-3.627 3.65-2 0-3.626-1.633-3.626-3.65 0-2.014 1.622-3.651 3.626-3.651.178 0 .352.013.52.036l2.64 1.823zm2.025 73.211c.28.155.537.348.767.566m-4.09 8.223l.217 1.308 1.448.126.437-1.239a5.546 5.546 0 001.392-.304l.912.934 1.257-.732-.345-1.259a5.97 5.97 0 00.967-1.06l1.277.238.612-1.325-1-.832a5.98 5.98 0 00.181-1.421l1.191-.546-.254-1.438-1.313-.103a5.681 5.681 0 00-.658-1.252l.678-1.153-1.027-1.034-1.151.689a5.733 5.733 0 00-2.202-.904l-.332-1.325h-1.452l-.335 1.335a5.617 5.617 0 00-1.307.417l-1.036-.904-1.188.838.49 1.292a5.7 5.7 0 00-.833 1.09l-1.365-.142-.497 1.374 1.132.772a5.692 5.692 0 00-.066 1.382l-1.191.669.375 1.411 1.35-.016c.2.427.447.825.74 1.186l-.583 1.216 1.112.94 1.08-.778 1.287.55zm4.735-7.381a3.66 3.66 0 01.467 1.792c0 2.014-1.622 3.651-3.626 3.651-2.001 0-3.627-1.633-3.627-3.651s1.623-3.651 3.627-3.651c.178 0 .352.013.52.037l2.639 1.822zm9.669-76.406a3.616 3.616 0 01-3.057 1.687c-2.001 0-3.627-1.634-3.627-3.651 0-2.014 1.623-3.651 3.627-3.651 2.001 0 3.626 1.633 3.626 3.65 0 .09-.003.18-.01.266m-7.93-4.83l.19.5a6.35 6.35 0 00-.276.305l.086-.805zm-.573 1.467c-.026.04-.049.08-.076.123l-1.365-.143-.497 1.375 1.132.772c-.053.315-.083.64-.083.97 0 .14.007.276.017.412l-1.191.669.375 1.411 1.349-.016c.201.427.448.825.74 1.186l-.582 1.215 1.112.941 1.08-.778c.404.235.839.42 1.3.553l.217 1.309 1.448.126.437-1.24a5.552 5.552 0 001.392-.304l.912.934 1.257-.732-.345-1.26a5.92 5.92 0 00.967-1.06l1.277.24.612-1.326-1.004-.831c.115-.454.178-.931.181-1.422l1.192-.546-.254-1.441-1.313-.103a5.772 5.772 0 00-.658-1.252l.678-1.153-1.027-1.034-1.152.69a5.72 5.72 0 00-2.201-.905l-.333-1.325h-1.451l-.336 1.335a5.624 5.624 0 00-1.306.417l-1.037-.904-1.188.838.152.394-.428 1.865zm8.434 3.85a3.602 3.602 0 01-.22.699l.22-.7zM30.257 63.247c3.6.163 6.467 3.15 6.467 6.815 0 3.767-3.034 6.821-6.776 6.821s-6.776-3.054-6.776-6.821a6.827 6.827 0 014.021-6.235M21.57 76.9l-1.086 2.276 2.08 1.756 2.014-1.451a10.8 10.8 0 002.425 1.03l.405 2.445 2.702.238.816-2.315a10.763 10.763 0 002.603-.567l1.705 1.746 2.35-1.365-.645-2.352a10.958 10.958 0 001.806-1.981l2.39.444 1.145-2.475-1.873-1.557c.217-.852.333-1.74.336-2.657l2.224-1.02-.47-2.69-2.455-.193a10.95 10.95 0 00-1.228-2.342l1.267-2.153-1.918-1.932-2.156 1.289a10.709 10.709 0 00-4.113-1.69l-.629-2.488H28.55l-.625 2.495c-.852.162-1.672.427-2.439.782l-1.938-1.69-2.221 1.567.915 2.415a11.027 11.027 0 00-1.56 2.034l-2.554-.264-.928 2.567 2.116 1.444a10.98 10.98 0 00-.151 1.813c0 .258.013.513.03.768l-2.225 1.252.7 2.638 2.518-.034c.283.603.616 1.173.997 1.707l.385.51zm6.115-13.268a6.37 6.37 0 01.901-.252l-.901.252z" stroke="#1A1A1A" stroke-width=".3" stroke-miterlimit="10"/><path d="M56.33 69.545l-2.69-1.75m7.37-3.51l-.697-.587M53.15 79.71l-5.572-1.405" stroke="#1A1A1A" stroke-width=".586" stroke-miterlimit="10" stroke-linecap="round" stroke-linejoin="round"/><path d="M83.247 114.18a.486.486 0 01-.424-.249c-.175-.301-.264-.46 1.125-2.063-2.995 1.845-3.314 1.769-3.488 1.726a.586.586 0 01-.34-.252c-.276-.481-.328-.577 5.213-5.142a290.38 290.38 0 00-2.636 1.756c-4.88 3.276-6.394 4.207-7.065 4.048a.615.615 0 01-.392-.285c-.296-.516-.296-.516 6.24-5.28.421-.305.855-.623 1.293-.945-.754.511-1.507 1.027-2.198 1.498-5.154 3.528-7.503 5.052-8.382 4.853a.667.667 0 01-.434-.314c-.323-.56-.392-.686 9.132-7.199l-12.525 7.278a.49.49 0 01-.675-.182c-.22-.384-.046-.855.86-1.66-1.442.835-2.282 1.17-2.693 1.074a.655.655 0 01-.415-.302c-.273-.474-.167-.918 3.318-3.276-3.597 2.262-4.92 2.931-5.437 2.806a.573.573 0 01-.368-.275c-.24-.418-.017-.564.81-1.114.427-.281 1.049-.692 1.819-1.195l2.78-1.813c-3.066 1.604-3.527 1.494-3.78 1.432a.648.648 0 01-.418-.305.5.5 0 01.174-.676c9.659-5.761 24.57-15.01 28.166-18.069-3.587 1.64-14.298 8.342-20.416 12.169-7.862 4.916-7.898 4.906-8.234 4.823a.515.515 0 01-.312-.238c-.267-.467-.254-.762 2.892-2.727-1.444.686-2.402.997-2.823.895a.688.688 0 01-.441-.322.503.503 0 01.161-.669c9.748-6.251 23.46-15.103 29.055-18.844-1.553.799-3.646 1.998-5.97 3.39a534.527 534.527 0 01-6.743 4.283 1010.776 1010.776 0 01-9.935 6.136c-7.081 4.495-7.167 4.475-7.513 4.392a.5.5 0 01-.145-.917c2.133-1.276 4.49-2.7 6.931-4.188l1.284-.815c-5.115 2.945-7.941 4.234-8.774 4.029a.702.702 0 01-.464-.338c-.306-.534.132-1.206 3.735-3.581-2.326 1.427-3.248 1.855-3.64 1.755a.557.557 0 01-.358-.265c-.207-.36-.375-.656 2.034-2.421-1.297.656-2.116.93-2.511.834a.658.658 0 01-.428-.314.506.506 0 01-.05-.378.488.488 0 01.234-.301C70.755 90.33 86.923 80.65 91.85 76.744c-5.4 3.002-20.288 11.8-30.677 18.002a.504.504 0 01-.378.053.486.486 0 01-.303-.232.774.774 0 01-.063-.602c.073-.269.356-.636.813-1.087-.767.315-1.28.43-1.573.358a.675.675 0 01-.434-.318c-.297-.514.27-.911 1.125-1.508.642-.45 1.586-1.066 2.893-1.888 2.432-1.53 5.769-3.558 9.303-5.705 3.972-2.412 8.691-5.277 12.44-7.65A5933.217 5933.217 0 0058.28 91.805a.513.513 0 01-.375.052.472.472 0 01-.3-.231c-.253-.444-.332-.577 4.032-3.336-1.708.944-2.787 1.351-3.337 1.222a.751.751 0 01-.5-.361c-.326-.57-.326-.57 7.589-5.198 3.662-2.144 8.032-4.698 12.054-7.156 3.376-2.26 6.019-3.979 8.023-5.168 1.649-1.16 2.524-1.885 2.985-2.339-4.11 1.859-20.34 11.738-30.618 18.165a.496.496 0 01-.523-.841c1.023-.653 2.09-1.34 3.185-2.041-2.646 1.361-3.61 1.59-4.025 1.484a.674.674 0 01-.437-.318.496.496 0 01.161-.666c1.817-1.17 4.272-2.757 7.013-4.526-5.733 3.26-6.194 3.144-6.48 3.071a.573.573 0 01-.359-.268.5.5 0 01.168-.672c7.391-4.602 17.892-11.278 24.033-15.439-4.953 2.873-12.17 7.14-17.257 10.148l-5.64 3.333c-1.258.738-1.866 1.096-2.192 1.262-.053.033-.082.053-.086.053l-.006-.01c-.227.106-.283.093-.379.066a.5.5 0 01-.135-.904c7.84-4.877 19.416-12.235 24.603-15.853-2.761 1.607-6.885 4.257-10.212 6.394-9.3 5.97-12.127 7.68-12.943 7.474a.588.588 0 01-.375-.278c-.207-.361-.352-.616 2.738-2.86-.842.375-1.412.518-1.744.435a.702.702 0 01-.454-.331.5.5 0 01.164-.67c6.072-3.846 15.3-9.875 18.472-12.37-2.778 1.368-8.836 5.29-12.407 7.6-5.805 3.757-6.028 3.85-6.394 3.76a.532.532 0 01-.322-.242c-.26-.454-.49-.858 5.212-4.807-.704.45-1.424.918-2.158 1.395-.099.066-.234.152-.441.102a.484.484 0 01-.31-.235c-.352-.613.155-1.14 4.16-4.23a.526.526 0 01-.349-.259.5.5 0 01.181-.679.472.472 0 01.303-.063c.286-.136 1.014-.652 1.51-1.004 1.603-1.133 2.06-1.408 2.452-1.318.158.036.286.13.365.268.283.497.066.795-2.636 2.896.748-.47 1.524-.951 2.297-1.428 7.609-4.688 8.198-4.545 8.547-4.463.164.04.296.14.378.279a.5.5 0 01-.164.669 444.673 444.673 0 00-10.8 7c7.509-4.827 11.119-6.944 12.132-6.699a.666.666 0 01.425.312c.316.55.543.944-9.846 7.832-.497.33-.997.659-1.494.983a543.256 543.256 0 005.933-3.84c6.667-4.356 7.743-4.992 8.247-4.872a.532.532 0 01.339.255.504.504 0 01-.161.669c-6.444 4.134-15.856 10.303-20.509 13.622 2.498-1.484 6.045-3.763 9.129-5.74 9.787-6.282 12.976-8.2 13.877-7.978a.6.6 0 01.389.288c.243.42.414.719-5.308 4.565 8.02-4.684 8.174-4.648 8.43-4.578.13.033.241.119.307.235.329.573.566.987-14.569 10.727-1.099.706-2.201 1.415-3.28 2.104 5.989-3.565 13.126-7.958 18.537-11.35a.498.498 0 01.69.172c.238.41-.108.653-.473.911-.224.16-.556.384-.978.67a488.75 488.75 0 01-3.495 2.312c-2.56 1.68-6.14 4.012-10.635 6.924a8103.433 8103.433 0 01-11.683 7.556c3.93-2.093 11.613-6.649 26.442-16.163 2.132-1.368 2.136-1.368 2.35-1.316a.484.484 0 01.309.236c.122.212.19.334-.204.685v.004a.071.071 0 01-.017.01c-.526.463-1.836 1.322-4.82 3.283 4.231-2.34 4.626-2.24 4.883-2.177.155.04.283.133.359.269.177.308.22.685-.438 1.427.336-.086.602-.106.803-.056.29.066.441.239.517.371.329.57.493.865-9.284 7.07 10.353-6.033 10.452-6.006 10.702-5.943a.5.5 0 01.303.231c.316.55-.263 1.104-1.679 2.144-.911.67-2.198 1.537-3.922 2.65 5.752-3.61 7.19-4.363 7.707-4.234a.54.54 0 01.349.262.5.5 0 01-.184.68 717.278 717.278 0 00-10.067 5.85l-3.416 2.173c-6.713 4.277-11.617 7.358-15.056 9.372a66.78 66.78 0 00-2.767 1.995c3.06-1.822 8.273-4.92 13.476-7.984C93.35 74.594 93.6 74.66 93.913 74.743a.51.51 0 01.309.239.727.727 0 01.063.563c-.04.146-.1.36-.537.821 1.129-.566 1.836-.798 2.185-.712a.654.654 0 01.412.302c.263.457-.109.705-.919 1.245-.49.328-1.217.792-2.218 1.422-.065.04-.128.082-.194.122 1.537-.739 2.61-1.087 3.15-.954a.815.815 0 01.533.384c.454.792-.01 1.292-16.056 10.853-6.724 4.006-15.635 9.316-18.06 11.287 1.339-.473 4.676-2.097 12.965-7.145 6.76-4.118 14.204-8.925 17.784-11.235 2.478-1.6 2.478-1.596 2.699-1.543a.484.484 0 01.309.235c.2.351.405.705-2.287 2.733.572-.202.977-.272 1.217-.212.195.05.353.162.445.325.29.503.29.503-5.035 4.018-2.62 1.73-6.286 4.118-10.896 7.1-4.44 2.875-8.922 5.758-11.989 7.729 6.21-3.353 17.856-10.787 23.033-14.093 4.594-2.932 4.594-2.932 4.857-2.87.132.034.244.12.313.236.352.613-.208 1.487-2.376 3.107a.674.674 0 01.19.014.62.62 0 01.389.288c.346.603.737 1.285-13.868 10.492a688.37 688.37 0 0012.074-7.67.508.508 0 01.385-.066.5.5 0 01.313.235c.24.424-.092.663-.645 1.06-.329.236-.826.58-1.477 1.02-.655.445-1.465.985-2.439 1.63 1.362-.698 2.205-.977 2.626-.874a.685.685 0 01.444.325c.277.484.214.679-3.116 2.83.7-.299 1.198-.412 1.517-.335.207.05.378.172.48.347.389.676.096.971-8.826 6.411-2.553 1.557-5.769 3.515-8.371 5.204l17.51-10.177a.492.492 0 01.675.182c.243.424-.102.68-.675 1.104-.346.255-.852.616-1.55 1.103-1.3.904-3.106 2.137-5.019 3.439a726.747 726.747 0 00-7.328 5.039 294.896 294.896 0 003.133-2.124c5.09-3.485 7.25-4.88 8.079-4.694a.649.649 0 01.424.308c.287.5.303.523-5.538 4.783 4.238-2.835 5.62-3.644 6.252-3.501a.61.61 0 01.392.288c.234.407.234.407-2.715 2.826-.889.729-2.123 1.742-3.235 2.68.902-.56 1.899-1.193 2.84-1.812a.478.478 0 01.385-.066.5.5 0 01.313.235c.184.324.115.401-.56 1.13a102.99 102.99 0 00-1.418 1.557c2.988-1.793 3.097-1.763 3.307-1.71a.5.5 0 01-.033.974c-.437.199-2.87 1.64-5.012 2.945a.788.788 0 01-.276.06zm4.752-3.253zm-12.153-5.059c-2.843 1.785-5.64 3.574-7.464 4.85 1.985-1.189 4.867-3.111 7.464-4.85zm12.239-8.822c-3.229 1.802-8.451 5.188-12.42 7.768a1295.18 1295.18 0 015.018-3.127c2.607-1.617 5.414-3.356 7.401-4.641zm-.208 2.312c-1.757.941-4.416 2.644-7.013 4.356.09-.056.181-.109.274-.165 2.422-1.478 5.058-3.085 6.74-4.191zm-16.184-7.434a291.784 291.784 0 00-5.799 3.75 464.341 464.341 0 005.799-3.75zm23.427-13.03c-.954.322-2.978 1.262-7.26 3.85-4.244 2.564-9.47 5.986-14.078 9-2.01 1.316-3.702 2.42-5.13 3.344 2.771-1.716 6.496-3.96 11.465-6.921 6.072-3.618 12.835-7.646 15.003-9.273zm-3.09 9.72l-.694.444a1473.24 1473.24 0 01-6.546 4.158c2.745-1.66 5.341-3.287 7.24-4.602zm-21.825-2.21c-3.017 1.836-5.95 3.635-7.878 4.884a83.48 83.48 0 003.518-1.978c1.303-.908 2.78-1.888 4.36-2.906zm7.73-8.752a878.55 878.55 0 00-3.675 2.474 613.008 613.008 0 01-6.125 4.099c.573-.358 1.179-.732 1.814-1.127 6.664-4.134 16.286-10.108 19.113-12.277-.724.298-1.78.868-3.037 1.616a111.38 111.38 0 01-4.37 2.892 199.133 199.133 0 01-3.72 2.323z" fill="#A4CE2D"/><path d="M83.247 114.18a.486.486 0 01-.424-.249c-.175-.301-.264-.46 1.125-2.063-2.995 1.845-3.314 1.769-3.488 1.726a.586.586 0 01-.34-.252c-.276-.481-.328-.577 5.213-5.142a290.38 290.38 0 00-2.636 1.756c-4.88 3.276-6.394 4.207-7.065 4.048a.615.615 0 01-.392-.285c-.296-.516-.296-.516 6.24-5.28.421-.305.855-.623 1.293-.945-.754.511-1.507 1.027-2.198 1.498-5.154 3.528-7.503 5.052-8.382 4.853a.667.667 0 01-.434-.314c-.323-.56-.392-.686 9.132-7.199l-12.525 7.278a.49.49 0 01-.675-.182c-.22-.384-.046-.855.86-1.66-1.442.835-2.282 1.17-2.693 1.074a.655.655 0 01-.415-.302c-.273-.474-.167-.918 3.318-3.276-3.597 2.262-4.92 2.931-5.437 2.806a.573.573 0 01-.368-.275c-.24-.418-.017-.564.81-1.114.427-.281 1.049-.692 1.819-1.195l2.78-1.813c-3.066 1.604-3.527 1.494-3.78 1.432a.648.648 0 01-.418-.305.5.5 0 01.174-.676c9.659-5.761 24.57-15.01 28.166-18.069-3.587 1.64-14.298 8.342-20.416 12.169-7.862 4.916-7.898 4.906-8.234 4.823a.515.515 0 01-.312-.238c-.267-.467-.254-.762 2.892-2.727-1.444.686-2.402.997-2.823.895a.688.688 0 01-.441-.322.503.503 0 01.161-.669c9.748-6.251 23.46-15.103 29.055-18.844-1.553.799-3.646 1.998-5.97 3.39a534.527 534.527 0 01-6.743 4.283 1010.776 1010.776 0 01-9.935 6.136c-7.081 4.495-7.167 4.475-7.513 4.392a.5.5 0 01-.145-.917c2.133-1.276 4.49-2.7 6.931-4.188l1.284-.815c-5.115 2.945-7.941 4.234-8.774 4.029a.702.702 0 01-.464-.338c-.306-.534.132-1.206 3.735-3.581-2.326 1.427-3.248 1.855-3.64 1.755a.557.557 0 01-.358-.265c-.207-.36-.375-.656 2.034-2.421-1.297.656-2.116.93-2.511.834a.658.658 0 01-.428-.314.506.506 0 01-.05-.378.488.488 0 01.234-.301C70.755 90.33 86.923 80.65 91.85 76.744c-5.4 3.002-20.288 11.8-30.677 18.002a.504.504 0 01-.378.053.486.486 0 01-.303-.232.774.774 0 01-.063-.602c.073-.269.356-.636.813-1.087-.767.315-1.28.43-1.573.358a.675.675 0 01-.434-.318c-.297-.514.27-.911 1.125-1.508.642-.45 1.586-1.066 2.893-1.888 2.432-1.53 5.769-3.558 9.303-5.705 3.972-2.412 8.691-5.277 12.44-7.65A5933.217 5933.217 0 0058.28 91.805a.513.513 0 01-.375.052.472.472 0 01-.3-.231c-.253-.444-.332-.577 4.032-3.336-1.708.944-2.787 1.351-3.337 1.222a.751.751 0 01-.5-.361c-.326-.57-.326-.57 7.589-5.198 3.662-2.144 8.032-4.698 12.054-7.156 3.376-2.26 6.019-3.979 8.023-5.168 1.649-1.16 2.524-1.885 2.985-2.339-4.11 1.859-20.34 11.738-30.618 18.165a.496.496 0 01-.523-.841c1.023-.653 2.09-1.34 3.185-2.041-2.646 1.361-3.61 1.59-4.025 1.484a.674.674 0 01-.437-.318.496.496 0 01.161-.666c1.817-1.17 4.272-2.757 7.013-4.526-5.733 3.26-6.194 3.144-6.48 3.071a.573.573 0 01-.359-.268.5.5 0 01.168-.672c7.391-4.602 17.892-11.278 24.033-15.439-4.953 2.873-12.17 7.14-17.257 10.148l-5.64 3.333c-1.258.738-1.866 1.096-2.192 1.262-.053.033-.082.053-.086.053l-.006-.01c-.227.106-.283.093-.379.066a.5.5 0 01-.135-.904c7.84-4.877 19.416-12.235 24.603-15.853-2.761 1.607-6.885 4.257-10.212 6.394-9.3 5.97-12.127 7.68-12.943 7.474a.588.588 0 01-.375-.278c-.207-.361-.352-.616 2.738-2.86-.842.375-1.412.518-1.744.435a.702.702 0 01-.454-.331.5.5 0 01.164-.67c6.072-3.846 15.3-9.875 18.472-12.37-2.778 1.368-8.836 5.29-12.407 7.6-5.805 3.757-6.028 3.85-6.394 3.76a.532.532 0 01-.322-.242c-.26-.454-.49-.858 5.212-4.807-.704.45-1.424.918-2.158 1.395-.099.066-.234.152-.441.102a.484.484 0 01-.31-.235c-.352-.613.155-1.14 4.16-4.23a.526.526 0 01-.349-.259.5.5 0 01.181-.679.472.472 0 01.303-.063c.286-.136 1.014-.652 1.51-1.004 1.603-1.133 2.06-1.408 2.452-1.318.158.036.286.13.365.268.283.497.066.795-2.636 2.896.748-.47 1.524-.951 2.297-1.428 7.609-4.688 8.198-4.545 8.547-4.463.164.04.296.14.378.279a.5.5 0 01-.164.669 444.673 444.673 0 00-10.8 7c7.509-4.827 11.119-6.944 12.132-6.699a.666.666 0 01.425.312c.316.55.543.944-9.846 7.832-.497.33-.997.659-1.494.983a543.256 543.256 0 005.933-3.84c6.667-4.356 7.743-4.992 8.247-4.872a.532.532 0 01.339.255.504.504 0 01-.161.669c-6.444 4.134-15.856 10.303-20.509 13.622 2.498-1.484 6.045-3.763 9.129-5.74 9.787-6.282 12.976-8.2 13.877-7.978a.6.6 0 01.389.288c.243.42.414.719-5.308 4.565 8.02-4.684 8.174-4.648 8.43-4.578.13.033.241.119.307.235.329.573.566.987-14.569 10.727-1.099.706-2.201 1.415-3.28 2.104 5.989-3.565 13.126-7.958 18.537-11.35a.498.498 0 01.69.172c.238.41-.108.653-.473.911-.224.16-.556.384-.978.67a488.75 488.75 0 01-3.495 2.312c-2.56 1.68-6.14 4.012-10.635 6.924a8103.433 8103.433 0 01-11.683 7.556c3.93-2.093 11.613-6.649 26.442-16.163 2.132-1.368 2.136-1.368 2.35-1.316a.484.484 0 01.309.236c.122.212.19.334-.204.685v.004a.071.071 0 01-.017.01c-.526.463-1.836 1.322-4.82 3.283 4.231-2.34 4.626-2.24 4.883-2.177.155.04.283.133.359.269.177.308.22.685-.438 1.427.336-.086.602-.106.803-.056.29.066.441.239.517.371.329.57.493.865-9.284 7.07 10.353-6.033 10.452-6.006 10.702-5.943a.5.5 0 01.303.231c.316.55-.263 1.104-1.679 2.144-.911.67-2.198 1.537-3.922 2.65 5.752-3.61 7.19-4.363 7.707-4.234a.54.54 0 01.349.262.5.5 0 01-.184.68 717.278 717.278 0 00-10.067 5.85l-3.416 2.173c-6.713 4.277-11.617 7.358-15.056 9.372a66.78 66.78 0 00-2.767 1.995c3.06-1.822 8.273-4.92 13.476-7.984C93.35 74.594 93.6 74.66 93.913 74.743a.51.51 0 01.309.239.727.727 0 01.063.563c-.04.146-.1.36-.537.821 1.129-.566 1.836-.798 2.185-.712a.654.654 0 01.412.302c.263.457-.109.705-.919 1.245-.49.328-1.217.792-2.218 1.422-.065.04-.128.082-.194.122 1.537-.739 2.61-1.087 3.15-.954a.815.815 0 01.533.384c.454.792-.01 1.292-16.056 10.853-6.724 4.006-15.635 9.316-18.06 11.287 1.339-.473 4.676-2.097 12.965-7.145 6.76-4.118 14.204-8.925 17.784-11.235 2.478-1.6 2.478-1.596 2.699-1.543a.484.484 0 01.309.235c.2.351.405.705-2.287 2.733.572-.202.977-.272 1.217-.212.195.05.353.162.445.325.29.503.29.503-5.035 4.018-2.62 1.73-6.286 4.118-10.896 7.1-4.44 2.875-8.922 5.758-11.989 7.729 6.21-3.353 17.856-10.787 23.033-14.093 4.594-2.932 4.594-2.932 4.857-2.87.132.034.244.12.313.236.352.613-.208 1.487-2.376 3.107a.674.674 0 01.19.014.62.62 0 01.389.288c.346.603.737 1.285-13.868 10.492a688.37 688.37 0 0012.074-7.67.508.508 0 01.385-.066.5.5 0 01.313.235c.24.424-.092.663-.645 1.06-.329.236-.826.58-1.477 1.02-.655.445-1.465.985-2.439 1.63 1.362-.698 2.205-.977 2.626-.874a.685.685 0 01.444.325c.277.484.214.679-3.116 2.83.7-.299 1.198-.412 1.517-.335.207.05.378.172.48.347.389.676.096.971-8.826 6.411-2.553 1.557-5.769 3.515-8.371 5.204l17.51-10.177a.492.492 0 01.675.182c.243.424-.102.68-.675 1.104-.346.255-.852.616-1.55 1.103-1.3.904-3.106 2.137-5.019 3.439a726.747 726.747 0 00-7.328 5.039 294.896 294.896 0 003.133-2.124c5.09-3.485 7.25-4.88 8.079-4.694a.649.649 0 01.424.308c.287.5.303.523-5.538 4.783 4.238-2.835 5.62-3.644 6.252-3.501a.61.61 0 01.392.288c.234.407.234.407-2.715 2.826-.889.729-2.123 1.742-3.235 2.68.902-.56 1.899-1.193 2.84-1.812a.478.478 0 01.385-.066.5.5 0 01.313.235c.184.324.115.401-.56 1.13a102.99 102.99 0 00-1.418 1.557c2.988-1.793 3.097-1.763 3.307-1.71a.5.5 0 01-.033.974c-.437.199-2.87 1.64-5.012 2.945a.788.788 0 01-.276.06zm4.752-3.253zm-12.153-5.059c-2.843 1.785-5.64 3.574-7.464 4.85 1.985-1.189 4.867-3.111 7.464-4.85zm12.239-8.822c-3.229 1.802-8.451 5.188-12.42 7.768a1295.18 1295.18 0 015.018-3.127c2.607-1.617 5.414-3.356 7.401-4.641zm-.208 2.312c-1.757.941-4.416 2.644-7.013 4.356.09-.056.181-.109.274-.165 2.422-1.478 5.058-3.085 6.74-4.191zm-16.184-7.434a291.784 291.784 0 00-5.799 3.75 464.341 464.341 0 005.799-3.75zm23.427-13.03c-.954.322-2.978 1.262-7.26 3.85-4.244 2.564-9.47 5.986-14.078 9-2.01 1.316-3.702 2.42-5.13 3.344 2.771-1.716 6.496-3.96 11.465-6.921 6.072-3.618 12.835-7.646 15.003-9.273zm-3.09 9.72l-.694.444a1473.24 1473.24 0 01-6.546 4.158c2.745-1.66 5.341-3.287 7.24-4.602zm-21.825-2.21c-3.017 1.836-5.95 3.635-7.878 4.884a83.48 83.48 0 003.518-1.978c1.303-.908 2.78-1.888 4.36-2.906zm7.73-8.752a878.55 878.55 0 00-3.675 2.474 613.008 613.008 0 01-6.125 4.099c.573-.358 1.179-.732 1.814-1.127 6.664-4.134 16.286-10.108 19.113-12.277-.724.298-1.78.868-3.037 1.616a111.38 111.38 0 01-4.37 2.892 199.133 199.133 0 01-3.72 2.323z" fill="#fff" opacity=".4"/><path d="M76.264 61.084v-.003c-.04 0-.075.003-.115.003-.036 0-.072-.003-.105-.003v.003c-11.93.222-20.927 9.412-20.927 20.72 0 3.498.862 6.794 2.383 9.686.671 1.574 2.25 5.427 3.827 10.409 1.458 4.599 2.221 9.224 2.221 9.923 0 .066 0 .139-.003.212a1.547 1.547 0 001.537 1.603h21.371c.872 0 1.566-.729 1.536-1.603-.003-.073-.003-.146-.003-.212 0-.699.764-5.324 2.221-9.923a120.83 120.83 0 013.828-10.409 20.759 20.759 0 002.382-9.687c.01-11.303-8.98-20.49-20.153-20.719z" stroke="#1A1A1A" stroke-width=".391" stroke-miterlimit="10" stroke-linecap="round" stroke-linejoin="round"/><path d="M83.49 64.41a16.682 16.682 0 00-1.834-.705m8.696 5.967s-1.679-2.683-5.368-4.509m-10.567 39.095V93.617s.813-5.182-1.866-5.182c-2.675 0-2.471 2.694.619 5.596 3.087 2.902 7.822.209 8.44-2.074.62-2.28-1.03-3.316-2.06-1.451-1.03 1.865 0 23.008 0 23.008M68.688 55.7l1.141 3.608m26.76 4.26l-3.745 2.952M82.693 53.066l-1.412 6.242" stroke="#1A1A1A" stroke-width=".586" stroke-miterlimit="10" stroke-linecap="round" stroke-linejoin="round"/><path d="M87.064 116.515H64.492a.524.524 0 01-.523-.527v-.258c0-.292.233-.527.523-.527h22.572c.29 0 .523.235.523.527v.258a.524.524 0 01-.523.527zm0 2.962H64.492a.524.524 0 01-.523-.527v-.258c0-.292.233-.527.523-.527h22.572c.29 0 .523.235.523.527v.258a.524.524 0 01-.523.527zm0 2.962H64.492a.524.524 0 01-.523-.527v-.258c0-.292.233-.527.523-.527h22.572c.29 0 .523.235.523.527v.258a.524.524 0 01-.523.527zm-10.602 1.58H64.875l3.334 4.624a3.085 3.085 0 002.5 1.283h10.194c.993 0 1.925-.481 2.504-1.289l3.31-4.618H76.462z" fill="#1A1A1A" stroke="#1A1A1A" stroke-width=".195" stroke-miterlimit="10" stroke-linecap="round" stroke-linejoin="round"/><path d="M101.349 74.477s-2.106 2.316-3.83 3.472c-1.725 1.156-2.926 2.687-1.343 3.472.951.47 2.3-.192 2.3-.192s-2.105.58-2.49 2.508c-.382 1.928 3.83 1.156 3.83 1.156s-3.064 2.12-2.106 2.892c.958.772 2.873.192 3.83.192.958 0 5.746-3.084 6.898-3.084 1.148 0 3.449 2.508 3.449 4.436s3.064 1.736 3.449-4.244c.381-5.98-1.149-10.992-3.64-12.536-2.491-1.544-10.347 1.928-10.347 1.928z" fill="#fff" stroke="#1A1A1A" stroke-width=".5" stroke-miterlimit="10" stroke-linecap="round"/><path d="M100.203 81.034l7.648-2.876s3.357-.736 5.766 3.263" stroke="#1A1A1A" stroke-width=".5" stroke-miterlimit="10" stroke-linecap="round"/><path d="M101.539 83.35l6.898-1.157s3.063-.192 4.982 3.472" stroke="#1A1A1A" stroke-width=".195" stroke-miterlimit="10" stroke-linecap="round"/><path d="M109.986 87.978l-5.173 1.156 3.063 12.344s2.682 5.4 3.449 7.715c.767 2.316 8.622 10.029 8.622 10.029l9.195-8.872s-4.216-5.016-4.407-6.172c-.19-1.157-.957-14.657-.957-16.588 0-1.928-3.831-6.556-3.831-6.556s-1.573-2.27-2.34-6.126c-.766-3.856-4.284-5.443-6.2-5.25-1.915.191-7.17.768-9.276 2.311-2.107 1.544-4.025 3.472-2.107 4.052 3.183.96 8.389-3.31 10.9-.358 1.148 1.352 2.507 7.302 2.701 8.074 0-.003-.957 3.664-3.639 4.24-2.682.58 0 0 0 0z" fill="#fff"/><path d="M109.986 87.978l-5.173 1.156 3.063 12.344s2.682 5.4 3.449 7.715c.767 2.316 8.622 10.029 8.622 10.029l9.195-8.872s-4.216-5.016-4.407-6.172c-.19-1.157-.957-14.657-.957-16.588 0-1.928-3.831-6.556-3.831-6.556s-1.573-2.27-2.34-6.126c-.766-3.856-4.284-5.443-6.2-5.25-1.915.191-7.17.768-9.276 2.311-2.107 1.544-4.025 3.472-2.107 4.052 3.183.96 8.389-3.31 10.9-.358 1.148 1.352 2.507 7.302 2.701 8.074 0-.003-.957 3.664-3.639 4.24zm0 0c-2.682.58 0 0 0 0z" stroke="#1A1A1A" stroke-width=".5" stroke-miterlimit="10" stroke-linecap="round"/><path d="M90.69 70.051a.354.354 0 01.461-.05l.783.55c.161.113.2.335.09.498a.353.353 0 01-.495.089l-.783-.55a.358.358 0 01-.056-.537z" fill="#1A1A1A" stroke="#1A1A1A" stroke-width=".195" stroke-miterlimit="10" stroke-linecap="round"/><path d="M91.593 70.687a.812.812 0 011.056-.112l2.455 1.275 24.102 15.962a1.928 1.928 0 01.478 2.67 1.898 1.898 0 01-2.653.48L93.64 73.59l-1.915-1.673a.818.818 0 01-.204-1.136c.02-.033.046-.063.072-.093z" fill="#A4CE2D" stroke="#1A1A1A" stroke-width=".195" stroke-miterlimit="10" stroke-linecap="round"/><path d="M119.204 87.812l-6.954-4.605c-1.105.364-1.898 1.335-1.898 2.481 0 .113.009.226.026.335l6.654 4.943c.862.606 2.05.39 2.652-.48a1.937 1.937 0 00-.48-2.674z" fill="#1A1A1A" stroke="#1A1A1A" stroke-width=".195" stroke-miterlimit="10" stroke-linecap="round"/><path d="M111.329 109.193c-2.106-3.084-4.788-10.992-5.94-12.536-1.149-1.543-4.232-4.956-5.381-8.428-1.148-3.472-1.899-6.231-1.899-9.123 0-2.893 2.469-3.393 4.384-.309 1.915 3.085 4.235 7.829 4.235 7.829s1.534 1.928 4.597 1.352" fill="#fff"/><path d="M111.329 109.193c-2.106-3.084-4.788-10.992-5.94-12.536-1.149-1.543-4.232-4.956-5.381-8.428-1.148-3.472-1.899-6.231-1.899-9.123 0-2.893 2.469-3.393 4.384-.309 1.915 3.085 4.235 7.829 4.235 7.829s1.534 1.928 4.597 1.352" stroke="#1A1A1A" stroke-width=".5" stroke-miterlimit="10" stroke-linecap="round"/><path d="M100.507 77.896l.642 1.29s-.145 0-1.169.585c-1.02.587-1.49 1.455-1.49 1.455s-.988-2.776-.112-3.658c.263-.265.54-.384.796-.42.55-.076 1.083.248 1.333.748z" fill="#fff" stroke="#1A1A1A" stroke-width=".195" stroke-miterlimit="10" stroke-linecap="round"/><path d="M127.138 106.407s-5.075 1.514-7.704 4.161c-2.63 2.647-4.887 5.675-4.887 5.675l4.699 5.486s3.946-4.538 6.579-6.622c2.629-2.081 5.637-3.784 5.637-3.784l-4.324-4.916z" fill="#fff" stroke="#1A1A1A" stroke-width=".5" stroke-miterlimit="10" stroke-linecap="round"/><path d="M131.837 146.321l-14.845-24.025s3.758-5.675 6.954-8.514c3.195-2.839 7.328-3.594 7.328-3.594l18.561 17.932" fill="#1A1A1A"/><path d="M131.837 146.321l-14.845-24.025s3.758-5.675 6.954-8.514c3.195-2.839 7.328-3.594 7.328-3.594l18.561 17.932M103.25 84.916c.099-.013.204-.026.309-.036m-3.184 1.64s.174-1.057 2.284-1.501m.021.754s-.148.448-1.625 1.044m1.55-2.457s-1.284.192-2.05.838" stroke="#1A1A1A" stroke-width=".195" stroke-miterlimit="10" stroke-linecap="round"/><path d="M56.295 51.41s3.11.255 5.074.914c1.965.66 3.903.676 3.544-1.067-.214-1.043-1.563-1.71-1.563-1.71s1.748 1.32 3.495.441c1.748-.878-1.445-3.757-1.445-3.757s3.545 1.133 3.561-.102c.017-1.236-1.612-2.402-2.201-3.164-.59-.762-5.947-2.674-6.655-3.588-.707-.914-.151-4.28 1.363-5.463 1.514-1.183-.52-3.502-5.443-.136-4.923 3.366-7.915 7.663-7.596 10.588.323 2.932 7.866 7.044 7.866 7.044z" fill="#fff" stroke="#1A1A1A" stroke-width=".5" stroke-miterlimit="10" stroke-linecap="round"/><path d="M62.149 48.295l-6.95-4.31s-2.636-2.216-.981-6.582" stroke="#1A1A1A" stroke-width=".5" stroke-miterlimit="10" stroke-linecap="round"/><path d="M63.121 45.81l-5.14-4.77s-2.034-2.319-.336-6.089" stroke="#1A1A1A" stroke-width=".195" stroke-miterlimit="10" stroke-linecap="round"/><path d="M61.585 36.27l4.083 3.4 7.796-10.012s5.035-2.28 6.362-4.32c1.326-2.041 2.458-13.03 2.458-13.03l-12.617-1.75s-1.287 6.44-2.07 7.309c-.783.868-13.269 6.493-14.782 7.676-1.514 1.183-2.791 7.07-2.791 7.07s-.908 3.419-2.64 6.947c-2.879 5.87-2.365 5.42-1.04 6.824 1.327 1.405 4.555 4.264 7.06 4.99 2.504.728 5.617 3.332 4.92.149-.718-3.264-7.744-4.635-6.974-8.442.352-1.742 4.186-6.476 4.673-7.102 0 .003 3.462-1.485 5.562.291z" fill="#fff"/><path d="M61.585 36.27l4.083 3.4 7.796-10.012s5.035-2.28 6.362-4.32c1.326-2.041 2.458-13.03 2.458-13.03l-12.617-1.75s-1.287 6.44-2.07 7.309c-.783.868-13.269 6.493-14.782 7.676-1.514 1.183-2.791 7.07-2.791 7.07s-.908 3.419-2.64 6.947c-2.879 5.87-2.365 5.42-1.04 6.824 1.327 1.405 4.555 4.264 7.06 4.99 2.504.728 5.617 3.332 4.92.149-.718-3.264-7.744-4.635-6.974-8.442.352-1.742 4.186-6.476 4.673-7.102 0 .003 3.462-1.485 5.562.291zm0 0c2.1 1.776 0 0 0 0z" stroke="#1A1A1A" stroke-width=".5" stroke-miterlimit="10" stroke-linecap="round"/><path d="M59.364 62.608a.361.361 0 01-.322-.338l-.05-.961a.358.358 0 01.336-.378c.198-.01.362.14.375.338l.05.96a.358.358 0 01-.336.379h-.053z" fill="#1A1A1A" stroke="#1A1A1A" stroke-width=".195" stroke-miterlimit="10" stroke-linecap="round"/><path d="M59.305 61.497a.813.813 0 01-.734-.768l-.506-2.734-2.281-28.951a1.914 1.914 0 011.8-2.018 1.908 1.908 0 012.004 1.813l.737 29.253-.135 2.547a.819.819 0 01-.885.858z" fill="#A4CE2D" stroke="#1A1A1A" stroke-width=".195" stroke-miterlimit="10" stroke-linecap="round"/><path d="M55.784 29.044l.658 8.355c.964.656 2.212.69 3.11-.013a2.3 2.3 0 00.247-.225l-.21-8.322a1.906 1.906 0 00-2.005-1.813 1.914 1.914 0 00-1.8 2.018z" fill="#1A1A1A" stroke="#1A1A1A" stroke-width=".195" stroke-miterlimit="10" stroke-linecap="round"/><path d="M79.82 25.338c-1.096 3.578-5.845 8.504-6.684 10.237-2.593 5.36-4.42 8.282-6.437 11.327-.82 1.235-1.704 1.41-2.244 1.855-.79.65-1.195 1.342-2.544 2.398-2.267 1.776-4.176.12-2.932-3.296 1.244-3.416 3.538-8.173 3.538-8.173s.572-2.402-1.764-4.482" fill="#fff"/><path d="M79.82 25.338c-1.096 3.578-5.845 8.504-6.684 10.237-2.593 5.36-4.42 8.282-6.437 11.327-.82 1.235-1.704 1.41-2.244 1.855-.79.65-1.195 1.342-2.544 2.398-2.267 1.776-4.176.12-2.932-3.296 1.244-3.416 3.538-8.173 3.538-8.173s.572-2.402-1.764-4.482" stroke="#1A1A1A" stroke-width=".5" stroke-miterlimit="10" stroke-linecap="round"/><path d="M59.49 49.99l.619-1.3s.089.117 1.178.567c1.09.45 2.057.295 2.057.295s-1.57 2.488-2.797 2.336a1.388 1.388 0 01-.82-.375c-.404-.394-.48-1.017-.237-1.524z" fill="#fff" stroke="#1A1A1A" stroke-width=".195" stroke-miterlimit="10" stroke-linecap="round"/><path d="M68.585.166l-2.616 17.105s3.156 2.792 7.348 3.551c4.193.759 11.837 1.892 11.837 1.892L91.858.166" fill="#1A1A1A"/><path d="M68.585.166l-2.616 17.105s3.156 2.792 7.348 3.551c4.193.759 11.837 1.892 11.837 1.892L91.858.166" stroke="#1A1A1A" stroke-width=".195" stroke-miterlimit="10" stroke-linecap="round"/><path d="M83.821 18.884c0 .719-.58 1.302-1.293 1.302a1.298 1.298 0 01-1.294-1.302c0-.719.58-1.302 1.294-1.302.714 0 1.293.583 1.293 1.302z" fill="#fff" stroke="#1A1A1A" stroke-width=".391" stroke-miterlimit="10" stroke-linecap="round" stroke-linejoin="round"/><path d="M62.361 45.764a14.21 14.21 0 01-.22-.225m3.236 1.521s-.935.51-2.58-.895m.593-.47s.442-.156 1.817.652m-2.902.269s.938.901 1.918 1.117" stroke="#1A1A1A" stroke-width=".195" stroke-miterlimit="10" stroke-linecap="round"/><path d="M63.272 102.369s.3 3.124.984 5.096c.684 1.968.73 3.919-1.007 3.584-1.04-.202-1.721-1.547-1.721-1.547s1.336 1.739.49 3.512c-.849 1.772-3.752-1.398-3.752-1.398s1.179 3.551-.046 3.588c-1.227.036-2.408-1.587-3.175-2.17-.764-.58-2.745-5.947-3.663-6.646-.918-.696-4.252-.089-5.407 1.451-1.155 1.541-3.485-.47-.217-5.48 3.271-5.005 7.493-8.08 10.402-7.801 2.916.278 7.112 7.811 7.112 7.811z" fill="#fff" stroke="#1A1A1A" stroke-width=".5" stroke-miterlimit="10" stroke-linecap="round"/><path d="M60.264 108.302l-4.384-6.93s-2.24-2.62-6.552-.888" stroke="#1A1A1A" stroke-width=".5" stroke-miterlimit="10" stroke-linecap="round"/><path d="M57.82 109.336l-4.815-5.105s-2.333-2.011-6.052-.248" stroke="#1A1A1A" stroke-width=".195" stroke-miterlimit="10" stroke-linecap="round"/><path d="M48.31 107.922l3.438 4.058-9.83 7.998s-5.37 2.686-7.368 4.068c-1.997 1.385-12.88 2.783-12.88 2.783l-2.037-12.659s6.364-1.448 7.21-2.256c.846-.808 9.53-11.122 10.685-12.662 1.156-1.54 6.98-2.912 6.98-2.912s2.613-.858 5.532-3.475c2.92-2.614 6.677-1.75 8.092-.434 1.416 1.315 5.266 4.96 6.026 7.47.76 2.508 1.135 5.212-.74 4.512-3.114-1.162-4.72-7.725-8.49-6.894-1.725.381-6.372 4.31-6.984 4.811-.003 0-1.432 3.505.365 5.592 1.797 2.087 0 0 0 0z" fill="#fff"/><path d="M48.31 107.922l3.438 4.058-9.83 7.998s-5.37 2.686-7.368 4.068c-1.997 1.385-12.88 2.783-12.88 2.783l-2.037-12.659s6.364-1.448 7.21-2.256c.846-.808 9.53-11.122 10.685-12.662 1.156-1.54 6.98-2.912 6.98-2.912s2.613-.858 5.532-3.475c2.92-2.614 6.677-1.75 8.092-.434 1.416 1.315 5.266 4.96 6.026 7.47.76 2.508 1.135 5.212-.74 4.512-3.114-1.162-4.72-7.725-8.49-6.894-1.725.381-6.372 4.31-6.984 4.811-.003 0-1.432 3.505.365 5.592zm0 0c1.796 2.087 0 0 0 0z" stroke="#1A1A1A" stroke-width=".5" stroke-miterlimit="10" stroke-linecap="round"/><path d="M74.428 105.305a.356.356 0 00-.339-.318l-.954-.037a.356.356 0 00-.369.345.354.354 0 00.342.371l.955.036a.354.354 0 00.368-.344c-.003-.02-.003-.037-.003-.053z" fill="#1A1A1A" stroke="#1A1A1A" stroke-width=".195" stroke-miterlimit="10" stroke-linecap="round"/><path d="M73.328 105.265a.816.816 0 00-.776-.729l-2.722-.47-28.788-1.866a1.912 1.912 0 00-1.978 1.842 1.911 1.911 0 001.83 1.992l29.065.308 2.527-.176a.815.815 0 00.842-.785.46.46 0 000-.116z" fill="#A4CE2D" stroke="#1A1A1A" stroke-width=".195" stroke-miterlimit="10" stroke-linecap="round"/><path d="M41.042 102.2l8.306.537c.665.961.717 2.217.033 3.131-.07.089-.142.172-.22.252l-8.267-.086a1.911 1.911 0 01-1.83-1.992 1.916 1.916 0 011.978-1.842z" fill="#1A1A1A" stroke="#1A1A1A" stroke-width=".195" stroke-miterlimit="10" stroke-linecap="round"/><path d="M34.547 124.049c3.528-1.186 10.399-5.874 12.239-6.41 1.84-.537 6.341-1.392 9.336-3.466 2.994-2.073 5.242-3.823 6.973-6.132 1.73-2.309.06-4.207-3.317-2.902-3.377 1.302-8.066 3.684-8.066 3.684s-2.376.61-4.479-1.709" fill="#fff"/><path d="M34.547 124.049c3.528-1.186 10.399-5.874 12.239-6.41 1.84-.537 6.341-1.392 9.336-3.466 2.994-2.073 5.242-3.823 6.973-6.132 1.73-2.309.06-4.207-3.317-2.902-3.377 1.302-8.066 3.684-8.066 3.684s-2.376.61-4.479-1.709" stroke="#1A1A1A" stroke-width=".5" stroke-miterlimit="10" stroke-linecap="round"/><path d="M61.9 105.619l-1.283.643s.115.089.58 1.176c.463 1.087.322 2.064.322 2.064s2.448-1.617 2.277-2.852a1.405 1.405 0 00-.385-.819c-.392-.397-1.01-.464-1.51-.212z" fill="#fff" stroke="#1A1A1A" stroke-width=".195" stroke-miterlimit="10" stroke-linecap="round"/><path d="M26.156 111.447s3.146 4.284 3.663 7.994c.517 3.711.507 7.494.507 7.494l-9.603 2.322s-.434-6.016-1.29-9.272c-.855-3.257-2.238-6.437-2.238-6.437l8.961-2.101z" fill="#fff" stroke="#1A1A1A" stroke-width=".5" stroke-miterlimit="10" stroke-linecap="round"/><path d="M26.604 118.921c-.852-4.201-3.702-7.312-3.702-7.312L.172 115.25v25.851l26.893-11.168s.391-6.812-.461-11.012z" fill="#1A1A1A" stroke="#1A1A1A" stroke-width=".195" stroke-miterlimit="10" stroke-linecap="round"/><path d="M20.522 130.151a1.01 1.01 0 01-1.007 1.014 1.01 1.01 0 01-1.007-1.014c0-.56.45-1.014 1.007-1.014.553 0 1.007.454 1.007 1.014zm2.82-1.219c0 .56-.45 1.014-1.007 1.014a1.01 1.01 0 01-1.007-1.014 1.01 1.01 0 011.007-1.013 1.01 1.01 0 011.007 1.013z" fill="#fff"/><path d="M55.524 109.565c-.072-.073-.148-.142-.227-.218m1.565 3.236s.49-.947-.925-2.584m-.473.6s-.149.447.674 1.818m.237-2.911s.908.931 1.135 1.911" stroke="#1A1A1A" stroke-width=".195" stroke-miterlimit="10" stroke-linecap="round"/></svg>