<svg width="151" height="156" fill="none" xmlns="http://www.w3.org/2000/svg"><g clip-path="url(#clip0_174_73191)"><path d="M56.181 1.504s16.707-3.383 31.908 0c9.294 2.068 28.879 6.972 33.499 18.088 4.62 11.116-17.629 20.6-6.698 31.877 4.717 4.865 27.349 11.28 26.076 42.835-1.273 31.555-34.436 50.79-80.523 49.933-46.086-.857-72.683-42.717-54.858-63.335 17.826-20.614 25.497-20.675 17.419-37.46C14.926 26.659 26.14 6.309 56.18 1.505z" fill="#A4CE2D"/><path opacity=".7" d="M56.181 1.504s16.707-3.383 31.908 0c9.294 2.068 28.879 6.972 33.499 18.088 4.62 11.116-17.629 20.6-6.698 31.877 4.717 4.865 27.349 11.28 26.076 42.835-1.273 31.555-34.436 50.79-80.523 49.933-46.086-.857-72.683-42.717-54.858-63.335 17.826-20.614 25.497-20.675 17.419-37.46C14.926 26.659 26.14 6.309 56.18 1.505z" fill="#A4CE2D"/><path d="M24.314 52.958l3.111 9.088-14.919 5.097-3.694-10.784 14.923-5.097.58 1.696z" stroke="#1A1A1A" stroke-width=".201" stroke-miterlimit="10" stroke-linecap="round" stroke-linejoin="round"/><path d="M25.871 57.48l1.563 4.565-14.919 5.097-.765-2.236 3.007-4.55 4.892 1.903 3.497-5.89 2.725 1.111zm-9.325-.571a1.624 1.624 0 01-3.075 1.05 1.624 1.624 0 013.075-1.05zm96.681 70.637l-2.056 9.38-15.405-3.368 2.442-11.134 15.405 3.368-.386 1.754zm-14.414 3.611l10.581 2.315" stroke="#1A1A1A" stroke-width=".201" stroke-miterlimit="10" stroke-linecap="round" stroke-linejoin="round"/><path d="M99.687 126.225s-1.076 4.911 4.416 6.111c5.496 1.201 6.573-3.707 6.573-3.707" stroke="#1A1A1A" stroke-width=".201" stroke-miterlimit="10" stroke-linecap="round" stroke-linejoin="round"/><path d="M100.148 126.324a.474.474 0 11-.926-.204.474.474 0 01.926.204zm10.993 2.404a.475.475 0 01-.926-.204.474.474 0 01.926.204zm-12.038 2.079l-.814-.178-.178.813.814.178.178-.813zm5.5 1.218l-.814-.178-.178.813.814.178.178-.813zm5.484 1.185l-.814-.178-.178.813.814.178.178-.813z" fill="#fff" stroke="#1A1A1A" stroke-width=".201" stroke-miterlimit="10" stroke-linecap="round" stroke-linejoin="round"/><path d="M41.953 25.483l-3.894 8.78-14.418-6.376 4.62-10.423 14.418 6.38-.726 1.639z" stroke="#1A1A1A" stroke-width=".201" stroke-miterlimit="10" stroke-linecap="round" stroke-linejoin="round"/><path d="M34.386 29.105c-.276.625-1.273.786-2.225.368-.95-.422-1.498-1.268-1.223-1.89.276-.625 1.273-.786 2.225-.368.95.418 1.498 1.265 1.223 1.89z" fill="#1A1A1A"/><path d="M35.122 22.243l-3.848 5.483-.329-.146 2.815-4.008.729-1.04c.365-.11.6-.267.633-.289z" fill="#1A1A1A"/><path d="M35.11 22.243l-.938 1.322s-.164.025-.425.003a3.064 3.064 0 01-1.205-.364c-.851-.465-1.577.078-1.62.11.046-.056.955-1.189 2.206-.792.522.168.994.11 1.348.003.369-.103.605-.26.633-.282z" fill="#1A1A1A"/><path d="M138.055 96.688l-3.354 8.997-14.779-5.497 3.983-10.68 14.78 5.497-.63 1.683z" stroke="#1A1A1A" stroke-width=".201" stroke-miterlimit="10" stroke-linecap="round" stroke-linejoin="round"/><path d="M128.119 94.709l-3.705 1.693 1.695 3.701m3.985 1.482l3.704-1.693-1.695-3.7m-1.35-.508l-3.308 4.925m-4.118-87.557l-3.293 9.023-14.815-5.393 3.908-10.71 14.815 5.394-.615 1.686z" stroke="#1A1A1A" stroke-width=".201" stroke-miterlimit="10" stroke-linecap="round" stroke-linejoin="round"/><path d="M112.82 13.73s-.175-1.01-1.673-.789c-1.381.204-1.774 1.758-.608 2.183 1.369.5 2.446-.657 3.776-1.793 1.391-1.19 2.657-2.468 2.814-2.622 0 0-3.136 5.605-3.544 6.344-.407.74.819.468 1.041.14m3.487-1.794s-1.366-.925-2.493.421c-.436.522-.207 1.08.172 1.219.962.35 1.563-.072 2.578-1.547 0 0-1.405 1.972-1.105 2.082.451.165.783-.175.783-.175m-4.157-3.544l2.485.908M25.538 117.344l-15.405-3.365 2.102-9.601 15.46 3.379-2.157 9.587zm-9.811-10.563l9 1.968m-10.454-1.382l10.27 2.243m-10.457-1.379l10.27 2.244m-10.466-1.383l10.27 2.243m-10.457-1.378l10.27 2.243m-10.457-1.382l10.27 2.246m-10.458-1.382l10.27 2.243m-10.458-1.378l9.001 1.964" stroke="#1A1A1A" stroke-width=".201" stroke-miterlimit="10" stroke-linecap="round" stroke-linejoin="round"/><path d="M101.059 45.733H43.433l-7.19-35.731h72.007l-7.191 35.73z" fill="#1A1A1A"/><path d="M41.66 11.163L31.047 83.257h82.421l-10.61-72.094" fill="#A4CE2D"/><path opacity=".3" d="M113.472 83.257H31.047l4.438-30.148h73.549l4.438 30.148z" fill="#000" fill-opacity=".7"/><path d="M41.66 11.163L31.047 83.257h82.421l-10.61-72.094" stroke="#1A1A1A" stroke-width=".201" stroke-miterlimit="10" stroke-linecap="round" stroke-linejoin="round"/><path d="M100.61 11.163H43.896l-9.834 72.094h76.382l-9.834-72.094z" fill="#1A1A1A"/><path d="M95.029 16.656H64.244l-.35-.786a1.208 1.208 0 00-1.105-.718h-6.991a.703.703 0 00-.705.704v.804h-5.571c-.43 0-.747.39-.665.81l4.548 22.593H91.15l4.549-22.592a.686.686 0 00-.67-.815z" fill="#BFBFBF" stroke="#1A1A1A" stroke-width=".201" stroke-miterlimit="10" stroke-linecap="round" stroke-linejoin="round"/><path d="M96.188 18.389l-.393 1.95-4.041 20.071a1.322 1.322 0 01-1.298 1.065H54.089a1.321 1.321 0 01-1.298-1.065l-4.137-20.546-.297-1.475a.68.68 0 01.665-.81h46.501c.43 0 .747.392.665.81z" fill="#fff"/><path opacity=".4" d="M95.797 20.34l-4.04 20.07a1.322 1.322 0 01-1.298 1.065H54.092a1.321 1.321 0 01-1.298-1.065l-4.138-20.546 47.142.475z" fill="#A4CE2D"/><path d="M96.188 18.389l-.393 1.95-4.041 20.071a1.322 1.322 0 01-1.298 1.065H54.089a1.321 1.321 0 01-1.298-1.065l-4.137-20.546-.297-1.475a.68.68 0 01.665-.81h46.501c.43 0 .747.392.665.81z" stroke="#1A1A1A" stroke-width=".201" stroke-miterlimit="10" stroke-linecap="round" stroke-linejoin="round"/><path d="M95.576 21.86H64.054l-.358-.786a1.241 1.241 0 00-1.133-.718h-7.16a.713.713 0 00-.721.7v.8h-5.708a.68.68 0 00-.68.808l4.657 22.525h38.648l4.656-22.525c.09-.414-.24-.804-.68-.804z" fill="#BFBFBF" stroke="#1A1A1A" stroke-width=".201" stroke-miterlimit="10" stroke-linecap="round" stroke-linejoin="round"/><path d="M96.755 23.654l-.393 1.907-4.145 20.05a1.348 1.348 0 01-1.33 1.057h-37.24a1.348 1.348 0 01-1.33-1.057l-4.159-20.118-.379-1.84a.683.683 0 01.68-.81h47.617c.436 0 .765.393.679.81z" fill="#fff"/><path opacity=".4" d="M96.36 25.561l-4.145 20.05a1.348 1.348 0 01-1.33 1.057h-37.24a1.348 1.348 0 01-1.33-1.057l-4.159-20.118 48.203.068z" fill="#A4CE2D"/><path d="M96.755 23.654l-.393 1.907-4.145 20.05a1.348 1.348 0 01-1.33 1.057h-37.24a1.348 1.348 0 01-1.33-1.057l-4.159-20.118-.379-1.84a.683.683 0 01.68-.81h47.617c.436 0 .765.393.679.81z" stroke="#1A1A1A" stroke-width=".201" stroke-miterlimit="10" stroke-linecap="round" stroke-linejoin="round"/><path d="M96.106 27.065H63.848l-.365-.782a1.271 1.271 0 00-1.158-.715h-7.327c-.408 0-.737.315-.737.7v.8h-5.84c-.446 0-.782.39-.697.804l4.767 22.458h39.55l4.766-22.458c.083-.418-.254-.807-.7-.807z" fill="#BFBFBF" stroke="#1A1A1A" stroke-width=".201" stroke-miterlimit="10" stroke-linecap="round" stroke-linejoin="round"/><path d="M96.627 28.108H47.898c-.447 0-.783.39-.697.804l4.645 21.893c.129.614.7 1.057 1.363 1.057H91.32c.662 0 1.23-.443 1.363-1.057l4.645-21.893c.086-.414-.25-.804-.7-.804z" fill="#fff" stroke="#1A1A1A" stroke-width=".201" stroke-miterlimit="10" stroke-linecap="round" stroke-linejoin="round"/><path d="M96.657 31.198H63.658l-.375-.779c-.208-.432-.672-.714-1.187-.714H54.6c-.419 0-.755.31-.755.697v.796h-5.972c-.457 0-.8.39-.711.804l4.874 22.39H92.49l4.874-22.39c.096-.415-.25-.804-.708-.804z" fill="#BFBFBF" stroke="#1A1A1A" stroke-width=".201" stroke-miterlimit="10" stroke-linecap="round" stroke-linejoin="round"/><path d="M97.195 32.305H47.351c-.458 0-.801.389-.712.803l4.753 21.829c.132.61.715 1.054 1.39 1.054h38.985c.676 0 1.259-.44 1.391-1.054l4.753-21.829c.089-.417-.258-.803-.716-.803z" fill="#fff" stroke="#1A1A1A" stroke-width=".201" stroke-miterlimit="10" stroke-linecap="round" stroke-linejoin="round"/><path d="M97.203 35.33H63.467l-.382-.778c-.211-.432-.687-.71-1.212-.71H54.21c-.426 0-.773.31-.773.696v.793H47.33c-.468 0-.819.385-.73.8l4.982 22.325h41.36l4.98-22.325c.1-.415-.25-.8-.718-.8z" fill="#BFBFBF" stroke="#1A1A1A" stroke-width=".201" stroke-miterlimit="10" stroke-linecap="round" stroke-linejoin="round"/><path d="M97.748 36.502H46.791c-.468 0-.822.386-.73.8l1.195 5.355 3.662 16.406c.14.61.733 1.05 1.423 1.05h39.857c.69 0 1.284-.44 1.423-1.05l1.796-8.048 3.06-13.713c.093-.414-.26-.8-.729-.8z" fill="#fff"/><path opacity=".4" d="M47.258 42.656l3.661 16.407c.14.61.734 1.05 1.424 1.05H92.2c.69 0 1.284-.44 1.423-1.05l1.795-8.048-48.16-8.359z" fill="#A4CE2D"/><path d="M97.748 36.502H46.791c-.468 0-.822.386-.73.8l1.195 5.355 3.662 16.406c.14.61.733 1.05 1.423 1.05h39.857c.69 0 1.284-.44 1.423-1.05l1.796-8.048 3.06-13.713c.093-.414-.26-.8-.729-.8z" stroke="#1A1A1A" stroke-width=".201" stroke-miterlimit="10" stroke-linecap="round" stroke-linejoin="round"/><path d="M62.18 60.885l-.45-.75c-.25-.415-.78-.668-1.348-.64l-8.325.382c-.46.022-.822.347-.808.725l.036.783-6.633.303c-.508.025-.873.422-.755.825L50.323 84.3l44.931-2.06 4.399-22.283c.082-.414-.318-.779-.826-.754L62.18 60.885z" fill="#BFBFBF" stroke="#1A1A1A" stroke-width=".201" stroke-miterlimit="10" stroke-linecap="round" stroke-linejoin="round"/><path d="M100.305 61.345l-.508 2.565-3.78 19.157c-.12.61-.747 1.071-1.498 1.107L51.226 86.16c-.751.036-1.42-.368-1.595-.964l-5.975-20.254-.29-.982c-.118-.404.247-.804.755-.825l55.358-2.543c.512-.022.909.343.826.753z" fill="#fff"/><path opacity=".4" d="M99.798 63.91l-3.78 19.157c-.121.61-.747 1.071-1.498 1.107L51.227 86.16c-.752.036-1.42-.368-1.595-.964l-5.976-20.254 56.142-1.032z" fill="#A4CE2D"/><path d="M100.305 61.345l-.508 2.565-3.78 19.157c-.12.61-.747 1.071-1.498 1.107L51.226 86.16c-.751.036-1.42-.368-1.595-.964l-5.975-20.254-.29-.982c-.118-.404.247-.804.755-.825l55.358-2.543c.512-.022.909.343.826.753z" stroke="#1A1A1A" stroke-width=".201" stroke-miterlimit="10" stroke-linecap="round" stroke-linejoin="round"/><path d="M63.121 65.86l-.383-.785c-.214-.436-.725-.74-1.305-.768l-8.489-.443c-.472-.025-.873.26-.89.64l-.04.781-6.765-.353c-.519-.029-.93.332-.848.746l4.37 22.247 45.818 2.393 6.669-21.671c.125-.4-.247-.804-.765-.829l-37.372-1.957z" fill="#BFBFBF" stroke="#1A1A1A" stroke-width=".201" stroke-miterlimit="10" stroke-linecap="round" stroke-linejoin="round"/><path d="M101.795 70.15l-1.087 3.53-5.414 17.595c-.182.593-.865.993-1.63.95L49.51 89.921c-.765-.039-1.401-.507-1.523-1.114L44.25 69.779l-.522-2.661c-.082-.411.33-.772.848-.743l56.453 2.947c.518.028.89.428.765.828z" fill="#fff"/><path opacity=".4" d="M100.706 73.68l-5.413 17.596c-.183.593-.866.993-1.631.95L49.51 89.922c-.765-.04-1.402-.507-1.523-1.114L44.25 69.779l56.456 3.901z" fill="#A4CE2D"/><path d="M101.795 70.15l-1.087 3.53-5.414 17.595c-.182.593-.865.993-1.63.95L49.51 89.921c-.765-.039-1.401-.507-1.523-1.114L44.25 69.779l-.522-2.661c-.082-.411.33-.772.848-.743l56.453 2.947c.518.028.89.428.765.828z" stroke="#1A1A1A" stroke-width=".201" stroke-miterlimit="10" stroke-linecap="round" stroke-linejoin="round"/><path d="M62.317 71.558l-.433-.765c-.24-.425-.776-.696-1.37-.696h-8.667c-.483 0-.873.307-.873.682v.779h-6.908c-.53 0-.927.378-.823.785l5.636 21.922h46.787l5.636-21.921c.103-.408-.294-.786-.823-.786H62.317z" fill="#BFBFBF" stroke="#1A1A1A" stroke-width=".201" stroke-miterlimit="10" stroke-linecap="round" stroke-linejoin="round"/><path d="M94.805 96.287H49.723c-.783 0-1.455-.432-1.609-1.032l-5.496-21.371c-.104-.408.293-.786.823-.786h57.643c.529 0 .926.378.823.785l-5.496 21.372c-.15.6-.823 1.032-1.606 1.032z" fill="#fff" stroke="#1A1A1A" stroke-width=".201" stroke-miterlimit="10" stroke-linecap="round" stroke-linejoin="round"/><path d="M62.126 76.762l-.44-.76c-.243-.422-.794-.697-1.398-.697h-8.836c-.49 0-.89.303-.89.678v.78H43.52c-.54 0-.944.378-.84.781l5.746 21.854h47.692l5.746-21.854c.108-.403-.3-.782-.84-.782H62.126z" fill="#BFBFBF" stroke="#1A1A1A" stroke-width=".201" stroke-miterlimit="10" stroke-linecap="round" stroke-linejoin="round"/><path d="M95.244 101.481H49.29c-.798 0-1.484-.429-1.642-1.029l-5.6-21.304c-.107-.403.3-.782.84-.782h58.76c.54 0 .944.379.841.782l-5.6 21.304c-.161.6-.848 1.029-1.645 1.029z" fill="#fff" stroke="#1A1A1A" stroke-width=".201" stroke-miterlimit="10" stroke-linecap="round" stroke-linejoin="round"/><path d="M104.566 126.102h-64.63L25.788 86.028h92.924l-14.147 40.074z" fill="#A4CE2D"/><path opacity=".3" d="M104.566 126.102h-64.63L25.788 86.028h92.924l-14.147 40.074z" fill="#000" fill-opacity=".7"/><path d="M104.566 126.102h-64.63L25.788 86.028h92.924l-14.147 40.074z" stroke="#1A1A1A" stroke-width=".201" stroke-miterlimit="10" stroke-linecap="round" stroke-linejoin="round"/><path d="M117.483 80.756H27.019l-1.23 5.272h92.924l-1.23-5.272z" fill="#A4CE2D" stroke="#1A1A1A" stroke-width=".201" stroke-miterlimit="10" stroke-linecap="round" stroke-linejoin="round"/><path d="M49.83 104.389l-.908 8.555h46.676l-.904-8.555h-2.06l.586 6.108H51.3l.59-6.108h-2.06z" fill="#BFBFBF" stroke="#1A1A1A" stroke-width=".201" stroke-miterlimit="10" stroke-linecap="round" stroke-linejoin="round"/><path d="M95.248 114.912H49.276l-.354-1.968h46.676l-.35 1.968zm-2.615-10.523l-.29 2.268.29 3.84h.587l-.587-6.108zm-40.746 0l.286 2.268-.286 3.84h-.59l.59-6.108z" fill="#757575" stroke="#1A1A1A" stroke-width=".201" stroke-miterlimit="10" stroke-linecap="round" stroke-linejoin="round"/><path d="M87.292 100.099H57.215l-1.434-7.262H88.73l-1.438 7.262z" fill="#fff" stroke="#1A1A1A" stroke-width=".201" stroke-miterlimit="10" stroke-linecap="round" stroke-linejoin="round"/><path d="M65.965 97.52h.011l.197-3.076h.915l.268 4.269h-.59l-.214-3.015h-.011l-.207 3.015h-.59l-.723-2.969h-.01l.268 2.969h-.544l-.415-4.269h.916l.73 3.076zm2.363-.176l-.976-2.904h.69l.59 2h.01l.408-2h.63l-.712 2.904.057 1.365H68.4l-.071-1.365zm3.215-.95h.83v.608h-.823l.014 1.707h-.625l-.072-4.268h1.745l-.003.639h-1.077l.011 1.314zm1.403-1.95h.658l-.072 4.269h-.626l.04-4.269zm1.128 0h.661l-.11 3.686h1.037l-.026.583h-1.652l.09-4.269zm2.59 1.854h.884l-.04.61h-.876l-.068 1.222h1.087l-.039.583h-1.706l.2-4.269h1.8l-.044.64h-1.13l-.068 1.214zm2.544-1.908c.64 0 .933.411.862 1.118l-.015.14h-.615l.018-.182c.029-.315-.078-.436-.29-.436-.207 0-.336.121-.36.436-.026.318.085.553.471.943.49.493.626.843.58 1.318-.065.657-.419 1.028-1.03 1.028-.612 0-.905-.371-.855-1.028l.018-.257h.6l-.024.296c-.025.296.093.4.293.4.2 0 .336-.103.361-.4.029-.304-.078-.529-.465-.91-.497-.494-.64-.851-.604-1.351.054-.704.411-1.114 1.055-1.114z" fill="#1A1A1A"/><path d="M74.263 29.862l-.296-.84c-.165-.464-.623-.81-1.166-.882l-7.953-1.025c-.443-.057-.84.21-.89.6l-.104.804-6.337-.814c-.486-.065-.9.282-.858.714l2.253 23.268 42.918 5.526 8.089-21.936c.15-.407-.165-.846-.651-.907l-35.005-4.508z" fill="#fff"/><path opacity=".4" d="M74.263 29.862l-.296-.84c-.165-.464-.623-.81-1.166-.882l-7.953-1.025c-.443-.057-.84.21-.89.6l-.104.804-6.337-.814c-.486-.065-.9.282-.858.714l2.253 23.268 42.918 5.526 8.089-21.936c.15-.407-.165-.846-.651-.907l-35.005-4.508z" fill="#A4CE2D"/><path d="M74.263 29.862l-.296-.84c-.165-.464-.623-.81-1.166-.882l-7.953-1.025c-.443-.057-.84.21-.89.6l-.104.804-6.337-.814c-.486-.065-.9.282-.858.714l2.253 23.268 42.918 5.526 8.089-21.936c.15-.407-.165-.846-.651-.907l-35.005-4.508z" stroke="#1A1A1A" stroke-width=".201" stroke-miterlimit="10" stroke-linecap="round" stroke-linejoin="round"/><path d="M110.325 36.599l-7.319 19.857-.565 1.528c-.222.6-.898.965-1.613.872l-41.36-5.322c-.714-.093-1.276-.618-1.337-1.254l-2.199-22.682c-.04-.433.376-.775.862-.715l35.194 4.533 17.687 2.275c.486.065.801.504.65.908z" fill="#fff"/><path opacity=".3" d="M110.327 36.599l-7.32 19.857C97.819 55.23 97.622 52 96.753 50.33c-.958-1.844-7.034-2.822-8.732-3.119-1.699-.3-2.732-2.014-2.732-2.014-1.53-4.294 6.458-8.037 6.458-8.037-.158-.59.075-2.522.243-3.744l17.686 2.276c.487.064.801.503.651.907z" fill="#000" fill-opacity=".7"/><path d="M110.325 36.599l-7.319 19.857-.565 1.528c-.222.6-.898.965-1.613.872l-41.36-5.322c-.714-.093-1.276-.618-1.337-1.254l-2.199-22.682c-.04-.433.376-.775.862-.715l35.194 4.533 17.687 2.275c.486.065.801.504.65.908z" stroke="#1A1A1A" stroke-width=".201" stroke-miterlimit="10" stroke-linecap="round" stroke-linejoin="round"/><path d="M63.71 35.709l.566 14.034 5.092.661.597-13.988-6.254-.707z" fill="#A4CE2D" stroke="#1A1A1A" stroke-width=".201" stroke-miterlimit="10" stroke-linecap="round" stroke-linejoin="round"/><path d="M66.82 48.715c.157-.49.017-1.032-.247-1.468-.269-.436-.655-.79-1.034-1.133.59.34 1.248.554 1.924.633-.007-.733-.705-1.24-1.327-1.622.28-.11.608-.086.866.064a.7.7 0 00-.254-.603c.078.068.2-.04.196-.14-.003-.103-.075-.185-.125-.275-.114-.203-.114-.453-.11-.69.01-.839.024-1.678.035-2.52a.403.403 0 00.293.324c-.01-.332-.043-.664-.071-.996l-.24-2.522" stroke="#1A1A1A" stroke-width=".201" stroke-miterlimit="10" stroke-linecap="round" stroke-linejoin="round"/><path d="M147.711 81.352s-28.857-25.79-30.699-27.415c-1.838-1.625-3.183-1.554-4.173-2.543-.991-.99-1.484-1.697-5.518-1.625-4.03.071-9.408-2.118-10.61-2.897-1.2-.779-2.9-.211-4.03-.65-1.13-.44-4.03-.054-5.8 0-1.77.053-1.91-1.75-1.201-3.8.708-2.051 6.082-3.323 6.79-2.898.709.425 3.537-.779 3.537-.779-.425-1.482-.282-5.086-.282-5.086s-2.972-1.272-4.102-1.697c-1.13-.425-2.689-.282-2.689-.282s.354-1.622.919-2.222c.565-.603 3.254-1.168 5.872-3.004 2.617-1.836 4.244-2.26 4.666-2.118.422.143 3.326.99 4.102.99.776 0 1.909-.708 3.043-.494 1.133.215 3.182 1.98 4.101 2.19.919.21 1.198.404 2.407.404.529 0 2.689 1.575 2.689 1.575s1.273.21 2.618.847c1.344.635 2.757 3.675 3.393 4.665.637.99.708 3.39.708 3.39s1.699.918 2.335 2.19c.637 1.27 24.048 13.848 24.048 13.848s3.701 14.456-2.124 27.411z" fill="#fff"/><path opacity=".4" d="M127.149 62.982a5280.804 5280.804 0 00-10.134-9.044c-1.842-1.626-3.183-1.554-4.173-2.544-.991-.989-1.488-1.693-5.518-1.625-4.034.072-9.408-2.118-10.61-2.897-1.201-.775-2.9-.21-4.033-.65-1.13-.44-4.03-.053-5.8 0-1.767.054-1.91-1.75-1.202-3.8.708-2.047 6.083-3.319 6.79-2.897.709.425 3.537-.775 3.537-.775-.425-1.486-.282-5.09-.282-5.09s-2.972-1.272-4.102-1.694c-1.133-.425-2.689-.282-2.689-.282s.354-1.622.92-2.225c.564-.604 3.253-1.168 5.87-3.004 2.618-1.836 4.245-2.261 4.667-2.122.426.143 3.326.99 4.105.99.59 0 1.388-.408 2.235-.511-.686.382-1.162 1.11-1.033 1.5.204.614.78 2.179.812 2.279-.154-.15-3.862-3.808-6.258-3.619-2.07.161-4.173 3.644-3.82 6.201.355 2.558-.503 2.558-.039 4.465.462 1.908.887 4.594.18 5.655-.709 1.057-2.121-.825-2.121-.825s-1.792.896-1.792 2.943c0 2.05 2.128 2.19 3.412 2.404 1.28.21 5.936 2.768 9.125 2.904l3.19.132s-1.842-2.504-1.062-2.629c.776-.125 3.111.1 4.667 2.497 1.559 2.393 2.717 2.933 5.567 4.111 1.645.68 6.086 5.47 9.591 10.152zm14.134-13.699c-.433-.204-14.304-6.733-15.001-7.709-.708-.989-1.556-1.214-2.335-2.196-.776-.983-3.394-1.618-3.748-2.962-.354-1.342-.779-5.418-1.416-5.922-.636-.507-1.695-1.036-1.695-1.036l1.052 2.619s-2.396-3.39-2.965-3.483c-.565-.09.615 2.465.511 2.386-.067-.05-2.699-2.5-4.874-4.336.322.185.608.325.827.375.922.21 1.201.403 2.406.403.529 0 2.689 1.575 2.689 1.575s1.273.211 2.618.847c1.341.636 2.757 3.676 3.393 4.665.637.99.708 3.39.708 3.39s1.699.918 2.335 2.19c.376.753 8.74 5.472 15.495 9.194z" fill="#A4CE2D"/><path opacity=".4" d="M141.295 49.288s-.004 0-.014-.005h.01l.004.005z" fill="#A4CE2D"/><path d="M147.711 81.352s-28.857-25.79-30.699-27.415c-1.838-1.625-3.183-1.554-4.173-2.543-.991-.99-1.484-1.697-5.518-1.625-4.03.071-9.408-2.118-10.61-2.897-1.2-.779-2.9-.211-4.03-.65-1.13-.44-4.03-.054-5.8 0-1.77.053-1.91-1.75-1.201-3.8.708-2.051 6.082-3.323 6.79-2.898.709.425 3.537-.779 3.537-.779-.425-1.482-.282-5.086-.282-5.086s-2.972-1.272-4.102-1.697c-1.13-.425-2.689-.282-2.689-.282s.354-1.622.919-2.222c.565-.603 3.254-1.168 5.872-3.004 2.617-1.836 4.244-2.26 4.666-2.118.422.143 3.326.99 4.102.99.776 0 1.909-.708 3.043-.494 1.133.215 3.182 1.98 4.101 2.19.919.21 1.198.404 2.407.404.529 0 2.689 1.575 2.689 1.575s1.273.21 2.618.847c1.344.635 2.757 3.675 3.393 4.665.637.99.708 3.39.708 3.39s1.699.918 2.335 2.19c.637 1.27 24.048 13.848 24.048 13.848M95.727 33.659s.328-2.78 0-3.169m8.718-3.636s4.81 4.069 5.189 4.319m-.665-5.691c.661.415 5.997 5.137 7.742 6.22m6.738 6.198c-.518-.308-1.884-.965-2.027-1.483m-25.406 2.329s.282 1.154 0 1.718m-4.252 1.933s-.661 1.836.898 3.06m5.508-20.488c-.8.8-.943 1.882-.943 1.882m-6.414 3.639s.379 1.279 1.837 1.883m19.344 18.235c-.991-1.568-3.025-3.783-3.025-3.783" stroke="#1A1A1A" stroke-width=".5" stroke-miterlimit="10" stroke-linecap="round" stroke-linejoin="round"/><path d="M13.063 144.798s23.1-15.167 24.516-17.124c1.416-1.958 2.546-2.847 2.546-2.847s.661-5.651 2.356-8.573c1.7-2.922 2.357-5.087 3.112-6.594.754-1.507 4.337-2.636 5.374-3.204 1.037-.564 2.829-1.697 3.866-1.697s2.263.661 2.263.661 3.49-1.789 5.092-.661c0 0 3.962.19 4.903.093.944-.093 2.357.565 2.357.565s2.356-1.69 3.962-1.033c1.602.657 2.367.94 2.41 1.883.043.943-.397 4.147-.397 4.147h-.787s-2.639 3.429-2.925 4.118c-.282.686-1.791 4.455-1.791 4.455s1.98-1.508 3.207-2.637c1.227-1.128 3.394-3.297 5.657-3.861 2.264-.564 3.866.7 3.866 2.047 0 0-2.64 2.1-3.208 2.761-.565.661-1.588 2.354-2.728 3.579-1.141 1.225-3.78 6.312-6.044 8.762-2.263 2.451-12.165 7.727-14.428 8.48 0 0-13.771 9.609-19.804 17.71.011-.007-16.399.086-23.376-11.03z" fill="#fff"/><path opacity=".4" d="M57.856 136.04c.197.2 1.001.321 2.135.342-1.667.854-3.054 1.501-3.74 1.729 0 0-9.005 6.283-15.642 12.974 2.285-3.633 6.673-8.166 8.304-9.109 2.27-1.321 6.633-5.586 6.633-5.586s1.656-1.011 2.31-.35zm15.28-19.689c.747-.69 1.841-1.761 3.096-2.619-1.802 1.886-2.803 4.315-2.803 4.315-.436 2.368-4.527 7.251-4.527 7.251 1.32-4.236.186-5.086.558-6.311.368-1.222.611-4.23.611-4.23s.715-1.232 1.47-1.514c.754-.286 2.735-5.276 3.104-5.951.371-.675-2.443-1.775-3.197-1.868-.755-.097-1.037 1.221-2.546 1.868-1.51.643-3.404 1.832-4.102 2.525-.672.672-1.91 3.758-1.988 3.947.054-.214.908-3.654 1.13-4.34.186-.571 1.999-1.625 2.671-2-1.116.518-1.741-.464-2.671-1.357-.998-.958-2.485-1.261-4.112-.765-1.627.497-2.718 1.722-2.725 1.629-.007-.096-2.432-.518-3.208-.286-.776.236-2.603 1.054-2.603 1.054s-1.652-.95-4.366 1.725c-1.134 1.118-4.906 9.659-4.341 8.623.55-1.004 3.028-4.072 3.182-4.261-.175.4-5.178 11.623-6.2 12.32-1.038.71-1.32 3.243-4.996 5.318-3.497 1.969-16.986 10.438-18.323 11.277 6.387-4.236 20.247-13.52 21.33-15.024 1.416-1.957 2.546-2.847 2.546-2.847s.662-5.654 2.36-8.572c1.699-2.922 2.357-5.09 3.111-6.598.755-1.507 4.338-2.636 5.375-3.2 1.04-.568 2.832-1.697 3.87-1.697 1.036 0 2.263.661 2.263.661s3.49-1.793 5.092-.661c0 0 3.962.189 4.903.093.944-.093 2.36.568 2.36.568s2.356-1.693 3.958-1.036c1.606.657 2.367.939 2.41 1.882.043.943-.397 4.144-.397 4.144h-.786s-2.64 3.433-2.922 4.118c-.282.686-1.791 4.455-1.791 4.455s1.977-1.508 3.204-2.636zm9.532-1.818s-2.64 2.1-3.208 2.761c-.34.396-.844 1.168-1.444 1.986.472-1.486.604-2.929.604-2.929s.847-1.318 2.263-1.79c.57-.189 1.213-.196 1.778-.135.007.035.007.071.007.107z" fill="#A4CE2D"/><path d="M13.063 144.798s23.1-15.167 24.516-17.124c1.416-1.958 2.546-2.847 2.546-2.847s.661-5.651 2.356-8.573c1.7-2.922 2.357-5.087 3.112-6.594.754-1.507 4.337-2.636 5.374-3.204 1.037-.564 2.829-1.697 3.866-1.697s2.263.661 2.263.661 3.49-1.789 5.092-.661c0 0 3.962.19 4.903.093.944-.093 2.357.565 2.357.565s2.356-1.69 3.962-1.033c1.602.657 2.367.94 2.41 1.883.043.943-.397 4.147-.397 4.147h-.787s-2.639 3.429-2.925 4.118c-.282.686-1.791 4.455-1.791 4.455s1.98-1.508 3.207-2.637c1.227-1.128 3.394-3.297 5.657-3.861 2.264-.564 3.866.7 3.866 2.047 0 0-2.64 2.1-3.208 2.761-.565.661-1.588 2.354-2.728 3.579-1.141 1.225-3.78 6.312-6.044 8.762-2.263 2.451-12.165 7.727-14.428 8.48 0 0-13.771 9.609-19.804 17.71m33.494-36.842s.565 2.826-.565 5.369m-3.117-16.767s1.602-.661 3.208-2.168" stroke="#1A1A1A" stroke-width=".5" stroke-miterlimit="10" stroke-linecap="round" stroke-linejoin="round"/><path d="M74.64 110.414s.52-1.036.612-1.979" stroke="#1A1A1A" stroke-width=".201" stroke-miterlimit="10" stroke-linecap="round" stroke-linejoin="round"/><path d="M62.192 104.763s-1.838-.092-3.16 1.083m-1.932-.426s-2.83 1.318-3.82 1.318c-.99 0-2.593 1.318-2.593 1.697m-10.562 16.392s1.273-1.883 2.028-4.097m24.713-12.295s-1.792.471-2.407 1.978c-.611 1.508-3.443 6.737-3.443 6.737m-3.161-9.562c-.38.896-4.62 8.762-4.62 8.762" stroke="#1A1A1A" stroke-width=".5" stroke-miterlimit="10" stroke-linecap="round" stroke-linejoin="round"/></g><defs><clipPath id="clip0_174_73191"><path fill="#fff" d="M0 0h151v156H0z"/></clipPath></defs></svg>