<svg width="1099" height="629" viewBox="0 0 1099 629" fill="none" xmlns="http://www.w3.org/2000/svg">
<path d="M770.617 132.451L772.117 134.267H772.906L774.879 132.294L776.696 130.162L780.169 128.583L782.695 130.478L781.275 134.425V136.635L779.617 138.293L777.011 139.478L774.169 140.584H771.328L769.196 142.716L765.801 141.531L764.064 139.004L763.275 137.899L762.958 136.635L765.327 137.741L770.617 132.451Z" fill="#F0EFEE"/>
<path d="M757.115 151.162L759.011 150.373H760.591L762.168 148.794L761.379 145.478H758.853L759.485 142.636V140.584L757.431 141.215H752.379L750.721 142.873L748.115 144.689L746.22 142.794L741.642 144.215L741.958 147.057L746.064 151.162L744.327 152.584L741.958 150.532L740.695 151.794L738.958 150.057L735.01 150.847L733.273 149.9L732.484 151.952L733.747 153.215L731.378 154.479V157.478L733.274 159.373L732.799 161.584H734.536L736.747 163.795L736.115 166.322L738.958 167.742L742.747 167.9L744.327 169.478H747.168L750.484 168.532V166.005L748.432 164.11L749.537 163.005L751.195 164.663L754.116 159.374L756.879 156.611L758.064 157.794L760.591 155.268L761.379 152.899L758.537 151.952L756.642 153.847L754.275 152.11L751.432 150.373L748.589 148.32L749.537 146.268L751.037 144.768L752.221 148.793L754.037 150.61L757.115 151.162Z" fill="#F0EFEE"/>
<path d="M760.117 169.006L758.695 170.269L759.8 173.427L761.617 175.243L763.117 172.321V169.954L762.011 168.848L760.117 169.006Z" fill="#F0EFEE"/>
<path d="M767.538 177.848L766.431 180.374L767.38 181.322L768.801 178.322L772.432 177.532L775.591 176.268L779.853 173.742L777.643 169.637H774.643L770.38 168.215L768.405 170.032L764.773 173.664L765.801 176.111L767.538 177.848Z" fill="#F0EFEE"/>
<path d="M731.062 165.057L729.641 163.637L727.115 163.479L728.774 165.137L729.799 168.847H731.851V166.795L731.062 165.057Z" fill="#F0EFEE"/>
<path d="M653.848 226.165L652.11 226.481L649.19 229.402V231.375H651.636L652.426 233.27L654.479 232.323L656.849 229.954V226.165H653.848Z" fill="#F0EFEE"/>
<path d="M756.32 117.056L755.055 115.319L754.109 117.056L755.135 118.082L756.32 117.056Z" fill="#F0EFEE"/>
<path d="M746.213 184.322L743.212 183.69L742.266 184.479L744.003 185.268L746.213 187.006L747.16 185.742L746.213 184.322Z" fill="#F0EFEE"/>
<path d="M604.733 164.111L602.838 164.901L600.943 161.584L599.522 160.163L597.784 162.216L596.68 165.216V163.006L596.837 159.058L595.733 156.848L594.153 157.005L591.943 159.689L592.101 162.058L591.153 163.638L591.785 167.901L589.89 169.796L590.048 174.058L589.101 177.69L588.31 181.322L589.732 182.112L592.733 179.743L594.47 178.638L598.417 176.586L601.575 176.27L605.523 173.269L607.417 169.637L606.154 166.479L604.733 164.111Z" fill="#F0EFEE"/>
<path d="M582.468 148.321L581.048 150.058L579.784 152.427L578.679 151.953L579.468 148.952V145.794L575.995 146.9C575.995 146.9 573.942 147.374 573.468 147.531C572.994 147.689 570.626 148.479 570.626 148.479L569.52 150.848L568.889 152.901L567.468 154.638L567.942 156.69L565.258 158.743L566.521 159.848L568.415 159.217L569.994 161.427L570.152 163.479L571.573 165.216L575.205 165.531L575.678 167.584L578.205 166.005L579.468 168.058L582.941 169.321L586.258 167.742L587.838 165.53L586.574 163.004L584.521 160.161L586.1 159.056L586.732 156.372L585.942 153.371L586.258 150.371L582.468 148.321Z" fill="#F0EFEE"/>
<path d="M469.571 251.114L471.151 251.273V249.693L468.624 249.062L469.887 247.641L468.466 245.589L466.729 246.22L466.098 246.062L464.361 247.325L464.992 248.747L463.729 250.483L464.044 251.588L466.887 252.378L469.571 251.114Z" fill="#F0EFEE"/>
<path d="M397.567 271.009L395.041 272.272L393.146 272.904L393.62 277.01L393.936 279.221L395.673 279.694L396.304 283.01L399.621 283.326L400.725 280.642L399.146 277.958L399.305 274.958L397.567 271.009Z" fill="#F0EFEE"/>
<path d="M346.881 263.431L344.671 260.588L344.512 258.22L341.671 257.273L338.198 258.22L336.144 260.905L334.566 262.957L335.67 265.957L338.198 266.904L340.565 267.851L342.776 266.273L345.46 266.747L346.881 263.431Z" fill="#F0EFEE"/>
<path d="M418.409 196.638L420.304 198.533H422.673V196.164L426.146 197.427L427.883 195.533L429.62 193.48H431.832L435.62 191.744L438.305 192.691H442.252L444.858 190.085L447.937 190.322L449.358 192.376H452.673L454.253 193.954L457.096 193.164H461.043L463.648 190.559L466.727 188.901L470.832 187.322H474.622L476.833 190.796V194.586L473.517 197.586L470.517 200.428L466.569 200.744L461.832 202.954L457.568 201.376L455.516 203.428L450.621 203.271H444.305L441.936 205.797H437.042L433.41 207.849L434.516 210.376L431.988 211.323L428.989 211.007H426.305L425.989 212.745L423.147 211.954V214.797L420.304 216.849L417.935 218.587V215.903L416.041 217.64L416.515 220.798H414.62L413.277 219.455V223.324L411.896 221.942L408.619 225.219H406.566L404.987 227.271L402.935 230.745H399.619L396.934 232.956V235.956L394.25 237.062L393.302 240.22L391.092 242.43V246.378L389.986 249.22L391.407 253.324L390.144 257.43L391.881 260.114L392.67 262.957L391.724 263.905L389.04 265.168V263.115L386.513 261.694H384.776L382.881 258.851L381.777 259.483L378.461 256.325L375.934 253.641L376.882 250.798L379.408 250.009L380.355 248.43L378.618 247.009L378.776 243.219L377.671 242.904L376.565 240.061L374.198 239.903L372.303 237.219L372.934 233.745L375.46 230.272L378.461 230.587L379.408 231.692L380.512 232.166L380.986 230.113L384.618 229.008L387.461 226.008L385.566 223.956L388.093 222.376L390.934 223.482L391.725 221.113V218.744H395.356L397.093 220.481L398.908 218.666L399.303 217.008L403.251 216.218L401.908 214.876L398.513 213.691V212.429L402.462 211.323L406.567 210.218L408.619 208.166H411.303V206.271L415.094 206.112L413.041 204.06L416.357 203.902L417.62 205.165L417.461 202.007L419.041 200.428L417.304 198.375L418.409 196.638Z" fill="#F0EFEE"/>
<path d="M563.046 136.628L564.482 138.064L562.59 139.955L561.35 142.37L563.046 144.719L563.699 147.068L566.7 149.678L569.441 147.068H571.267L574.008 145.502L577.27 144.458L576.357 141.326V137.411L578.314 135.715L573.355 130.756L572.181 128.146L569.31 127.363L568.919 129.973L566.57 131.017L563.046 133.366V136.628Z" fill="#F0EFEE"/>
<path d="M564.873 149.808L561.611 149.025L559.392 148.764L559.784 151.635V153.462L562.655 154.245L563.829 155.42L565.591 153.657L566.57 151.113L564.873 149.808Z" fill="#F0EFEE"/>
<path d="M911.164 70.9889L912.556 65.9435L917.864 60.8103L926.476 52.1976L931.696 49.9353L935.436 47.7607L942.483 40.714L946.833 38.9737L949.965 34.4502L955.88 32.7099L959.012 29.4037L962.841 27.6634L965.276 26.2718L968.06 29.056L972.062 27.8377L975.629 30.5343L977.978 28.1854L982.154 25.9231V23.8352L977.978 24.7048L973.106 24.3572L969.974 23.4875L971.018 20.3557L974.324 18.0934L971.54 17.3971V15.8311L973.455 16.0065L973.802 12.8746L975.542 10.439L977.978 8.00348L982.154 6.43753H983.372L986.504 2.08733C986.504 2.08733 989.462 1.21771 990.506 0.173749C991.55 -0.870214 990.506 3.1313 990.506 3.1313L992.768 5.04488L994.507 6.78517L992.594 10.7867C992.594 10.7867 995.203 10.7867 996.247 9.74272C997.291 8.69876 996.247 11.8306 996.247 11.8306V15.4845L992.246 18.0944L995.378 18.6164L997.291 16.7028L1001.38 18.2688V16.4418L1004.6 19.6604L1006.86 23.141L1008.78 22.619L1010.69 20.1834V22.4457L1011.91 25.2299H1008.25V26.6215L1011.21 27.4911L1009.64 32.0146L1005.64 32.3623L1001.99 36.3638L1000.08 40.5396L996.422 41.758L993.812 40.714H990.506L987.548 45.0642L988.853 47.6741V52.1109L985.982 54.9818L983.72 53.2416L981.458 54.9818H978.152L976.238 53.4159L974.499 52.3719L974.238 54.0245L975.542 55.3295L973.977 56.0258L972.933 57.0698L975.977 57.5917V59.9407L978.326 62.2896L982.154 61.2456H984.764L984.937 64.5518L986.503 62.9859L992.072 68.5544L993.463 73.5999L994.16 77.6014L991.375 82.1249H988.765L985.112 83.6908L983.894 86.474L986.852 85.2557H988.765L985.982 88.563L987.721 90.3023L989.984 89.4326V86.1264L992.072 84.5605L995.812 84.4738L997.988 82.2992L999.032 80.5589L1001.64 80.7333L1003.73 80.3857L1007.56 80.2113V82.6469H1010.69L1011.56 80.9943H1014.6L1016.43 79.1673L1018.69 78.8197L1020.61 80.3857L1023.39 78.2977L1024.7 81.343L1027.22 83.8662V87.5201L1023.74 88.9117L1021.48 93.7818H1017.82L1016.78 95.3477L1020.87 98.0443L1019.56 99.3493L1022.52 103.874L1023.74 109.441V115.705L1024.78 120.577L1026.52 124.753L1027.39 130.321L1029.13 135.715L1032.44 138.672V143.718L1034.18 150.678L1037.14 153.984L1039.05 155.898L1036.09 158.508L1032.96 156.942L1028.61 158.333L1026.35 163.553L1022.7 168.773L1024.61 170.687L1023.22 175.56V178.17L1026.17 182.693V185.477L1022.87 183.911L1020.43 181.475L1018.35 181.649L1020.26 186.695V190.001L1023.48 191.48L1020.26 194.699H1018.17V199.222L1016.26 201.136L1018.87 205.486L1026.7 213.316L1027.39 218.188L1027.91 222.016L1032.7 224.538L1035.57 227.409H1040.44L1039.14 224.452V222.972L1040.79 221.32L1042.01 218.71L1046.53 223.233L1047.4 227.235L1051.93 230.367L1056.41 231.367L1058.19 229.584H1061.06L1064.45 232.977L1063.06 236.283L1059.58 237.327L1060.63 241.503L1064.28 247.592L1067.5 248.375L1070.02 250.898L1075.94 250.202L1079.42 252.986L1080.63 256.118L1078.55 257.51L1075.59 259.423L1073.85 263.252L1075.07 270.212L1078.55 275.606L1081.59 276.736L1083.07 278.216L1088.12 279.434V281.522L1084.29 282.044V285.176L1082.9 288.308L1084.64 294.572L1087.59 295.79L1092.12 300.313L1095.42 303.445L1096.12 309.013L1097.86 316.32L1098.73 321.018V324.498L1096.82 321.888H1091.77L1088.55 320.235L1086.03 317.712H1082.55L1079.42 314.58L1073.33 311.796L1067.58 309.36L1060.97 305.881L1059.06 303.271L1055.93 301.183L1052.45 300.487L1044.97 298.224L1040.09 295.614L1035.4 292.483L1033.13 288.307L1028.09 283.261L1024.61 279.607L1024.61 275.953L1022.17 273.518L1021.65 269.516L1018.69 265.341L1015.47 264.644V263.165L1016.95 261.686L1018.17 259.076L1016.52 256.205L1019.39 253.334L1017.65 248.114L1016.78 242.547L1014.69 236.109L1011.38 231.758L1009.99 226.017L1008.43 220.622L1006.69 216.272L1004.6 209.834L1002.51 208.094L1002.34 204.614L1003.56 200.438V195.045L1001.47 192.957L999.205 188.607H996.944L994.768 187.824L992.768 185.823L990.331 182.691L986.677 180.429V176.427L989.984 173.296L988.852 172.165L986.155 174.861L982.328 176.949V180.603L981.284 183.387L983.371 185.301L989.287 191.217H992.768L992.419 193.479L990.853 193.305L989.201 195.654L991.375 197.828V203.396L993.116 207.572L993.463 214.183L992.246 218.188L990.853 214.708L987.721 213.142L987.722 217.493L983.372 213.142L981.98 210.185L977.108 205.661L978.5 209.49L977.108 213.665H972.411V216.45L970.845 222.191L968.93 224.454L969.104 232.109L972.236 234.197L971.714 239.069L974.846 243.941V249.161L975.804 256.034L978.674 258.904V262.036L981.11 264.472L983.372 264.124L985.372 262.297L986.852 260.818H989.462L989.287 264.124L986.504 264.994V269.692L981.284 270.561L982.502 276.651L981.98 279.261L978.674 280.651V284.305L977.456 287.611C977.456 287.611 973.367 288.569 974.15 287.786C974.933 287.003 972.584 286.22 972.584 286.22V283.958L973.28 281.695L976.151 280.738L974.846 279.433L971.714 280.651L968.408 281.173V282.739L963.537 285.001L961.1 287.959L958.317 288.655L956.055 290.918L955.185 293.528L956.054 296.834L957.968 298.747L955.707 301.183L952.053 299.791L953.184 303.532L950.487 306.228L948.051 308.491H945.963L943.875 310.404L945.268 312.667L946.312 313.711L943.353 315.624H939.351L932.913 322.062L930.129 326.76L927.172 329.718L924.214 335.634L923.692 341.376L926.476 346.943L923.866 349.553L922.997 355.12L924.562 359.122L926.998 361.557L924.91 365.037V375.999L923.866 380.349V386.265L925.607 388.179V397.052L924.041 402.968V407.841L921.431 412.191V416.54L920.038 420.368L921.604 423.891H924.258L926.302 421.847H929.172L933.957 417.062L935.698 418.802L937.785 419.846V422.108L939.439 425.153L941.527 427.241L943.354 425.414V422.63L940.917 421.586V418.976L942.832 416.889V418.628L944.92 420.194L945.964 419.846L947.008 420.89V426.284L950.487 424.893V423.153L952.401 420.543L953.619 419.5L955.533 420.891L955.968 418.02L954.316 416.368L952.75 413.409L950.835 409.93L953.967 408.19L955.882 406.276L959.709 405.406H964.233L967.974 405.841L969.626 407.494C969.626 407.494 973.629 406.798 974.499 406.798C975.368 406.798 977.804 405.753 977.804 405.753L979.979 407.928L977.108 410.799L976.065 412.714H982.154L982.85 414.975L985.46 417.585L988.68 417.151L990.332 418.803L992.072 422.109L992.594 428.721L994.856 435.681L998.422 440.813L1004.6 446.991L1005.47 449.948L1008.95 453.428L1011.38 457.604L1012.26 460.041L1015.47 465L1018.17 467.695V475.003L1017.13 481.267L1019.04 487.53L1018.87 493.968L1020.78 499.014L1022.17 504.583L1023.22 509.627L1024.26 516.413V523.025L1023.22 526.506V541.643L1022.17 547.907L1023.22 554.344L1022.87 562.696V566.698L1019.39 572.44L1017.13 577.311L1014.52 582.185H1012.25L1007.91 583.923L1004.25 586.011L1001.73 584.967V582.618L1000.42 581.313L999.117 584.271V587.489L995.378 583.749V585.489L994.682 589.838L995.378 592.796L994.421 596.189L992.941 597.668V602.192L989.636 602.019L988.243 600.626L989.462 596.624L991.55 592.448V588.969L989.723 584.879L984.068 579.225L982.502 575.222L979.196 571.917L976.065 570.873L975.977 567.48L980.066 563.392V559.912L982.502 557.475L985.286 556.084L988.158 557.041L990.68 554.518L992.246 551.387L989.462 547.035L990.853 543.381L989.114 539.554L988.765 535.552L986.33 532.247L987.026 529.463L985.112 526.156L984.242 522.329L980.762 518.675L983.372 516.065V512.236L978.674 507.538L977.978 505.277H975.021L970.845 507.538L969.801 511.019L967.016 515.543L963.885 519.544L965.277 523.895L961.623 526.851L957.969 528.939L954.838 529.983L953.967 533.115H950.662L947.355 531.203L944.92 530.332V526.329L942.136 523.895L939.873 521.632L936.133 520.675L934.132 522.676L930.13 521.632L926.824 520.763L921.778 521.458H917.081L915.167 523.373L909.947 525.285L904.727 524.241L902.553 519.98L900.029 517.456C900.029 517.456 897.072 515.716 897.072 515.019C897.072 514.322 893.766 511.714 893.766 511.714L889.59 511.019L887.85 506.843L883.847 503.711L881.064 500.928L877.236 499.884L875.844 496.23L872.363 494.664L870.275 492.576L863.316 491.879H859.663L855.487 494.142L850.267 493.271L846.264 494.664H841.915L835.998 499.013L833.215 501.796L827.734 505.016L825.037 507.713L823.124 513.455L821.731 516.934L823.646 519.37L826.342 517.195L830.954 521.807L832.345 527.373L830.954 530.332L829.91 537.813V542.511L827.995 547.384L830.605 552.429L832.171 553.994V558.868L828.517 559.912L826.168 565.392L822.775 568.785L817.033 570.873L810.596 570.351L805.898 569.481L802.419 571.569L797.547 574.352L793.893 572.439L790.587 571.22L786.237 573.134L779.974 579.398L778.494 584.53L775.449 587.577L771.448 590.36L765.88 592.97L759.442 599.407H753.875L748.828 600.973H741.695L736.475 601.67L731.777 600.104L730.384 597.494L727.949 595.058H721.337L715.248 594.187L712.811 592.621L704.808 593.753H699.848L695.76 597.841L691.237 598.885L686.887 600.104L680.623 599.582L676.361 597.755L673.664 595.058L671.141 589.75L667.922 586.533L663.397 584.793H659.048L654.089 586.096L650.696 582.706H643.911L639.908 579.747L635.21 584.445L633.036 588.882L630.687 591.231L629.99 595.755L632.166 598.365V602.278L635.21 605.324V609.5L631.122 612.197L627.207 616.112H618.856L614.158 614.893L609.286 615.764L605.806 614.72L600.76 612.978L594.67 606.89L590.669 605.673L585.971 607.585L583.012 604.627L579.272 602.975L576.226 606.019H572.399L571.181 609.673H566.657L560.916 613.327L557.435 616.808H553.956L553.259 620.461L549.171 621.418L546.3 624.289L541.08 624.115L536.73 626.55L534.468 628.813L529.422 627.943L527.856 625.333L525.943 621.852L524.986 618.286L522.289 620.983L517.765 622.723L513.59 621.33L508.892 620.113V615.937L505.238 613.676L503.846 610.544L500.889 608.629L500.192 604.453L497.757 602.192L494.494 600.757L492.363 598.626H487.926L485.751 600.799L481.401 601.497L479.66 599.756L475.833 600.451L471.831 596.45V593.84L469.917 591.579L467.132 592.448L465.219 596.45L461.39 597.146L459.128 592.623L457.91 588.621L457.04 584.096L454.083 578.876V574.7L451.298 572.091V566.349L449.21 559.39L444.339 554.518L442.338 550.255L440.163 548.079L437.206 546.862V543.73H439.641L441.729 540.947L440.86 538.51H437.728L435.118 541.12L431.464 541.294L428.768 541.381L425.897 544.252L421.024 545.645L416.849 547.906L414.934 545.123L411.28 546.862H408.323L409.367 542.164L413.542 540.25V537.815H410.063L406.931 535.9L405.017 537.815L401.538 536.771L402.668 532.681L400.145 530.159L396.666 532.247L392.837 531.203L391.88 528.158L394.056 525.983V522.678L394.925 520.241L393.534 515.892L390.924 514.672H387.792L386.226 511.541H381.876L378.396 509.453L374.568 509.104L372.48 512.063H368.13L364.302 513.107L361.17 511.367L357.342 512.063H352.644L348.12 509.714H346.293L344.292 511.714L340.813 512.411L337.506 510.67H334.549L330.547 509.453L324.631 509.626L320.281 508.757L317.149 509.626L314.365 507.191L310.363 505.103H306.709L305.491 508.931L306.709 511.541L304.274 513.977L306.187 515.194L310.45 519.458L308.275 521.632H305.84L302.882 518.675L298.359 518.848L295.401 520.066L296.619 524.417L295.401 527.549L292.444 528.417L288.964 527.549L287.572 531.203L288.703 533.725L292.791 537.813L293.488 540.772L295.923 543.208L293.488 546.513L291.225 548.775H287.397L283.482 549.036L281.481 547.035L280.089 544.207H278.306L276.435 546.079H273.39L269.997 542.686L269.345 540.729L266.779 538.162V533.725L264.603 531.549H260.602L257.295 532.769L256.077 530.159L252.771 527.549L249.813 525.983L245.812 527.897L242.158 528.419L239.2 527.549L237.112 523.546L234.155 520.936L232.067 524.417H229.805V521.634L231.893 519.546L230.501 516.587L228.761 512.063L228.064 507.365L225.455 504.233L221.279 502.667L220.061 499.71L217.799 497.447L213.623 498.144H211.188V494.837L209.969 491.359L205.707 490.574L203.532 492.749L199.531 494.142L196.051 492.227H192.397L190.657 494.837H183.002L182.13 496.752L179.868 499.013L179.52 502.318L175.258 501.537L172.734 499.013V495.532L173.866 492.14L172.039 490.313H169.08L167.862 493.098L165.6 494.749H162.207L157.248 499.708V502.84L154.291 504.06L151.159 503.884L148.896 506.147L146.112 508.06L147.243 511.453L149.766 513.977L148.722 518.5L146.46 520.763L148.722 522.154L152.028 525.285L154.116 527.373L153.247 531.898L154.204 537.813V542.599L152.377 544.425L150.637 542.511L148.027 542.164L148.374 545.296L149.854 548.34L152.028 550.516L150.288 552.255L147.331 552.604H141.415C141.415 552.604 139.327 552.865 137.675 552.865C136.022 552.865 136.37 551.56 136.37 551.56L133.76 550.863L132.543 549.645L129.411 549.123V551.56L126.975 552.604L124.018 556.082H120.712L117.058 557.126L114.926 556.562L113.143 558.346V561.217L114.97 563.044L116.014 566.349L115.144 569.654L114.361 572.7L112.36 574.7V575.918L110.62 577.484L106.791 583.747V588.621L107.835 594.536L107.139 599.06L107.487 604.627L103.311 606.541L100.527 605.324L96.525 606.715L92.6968 605.846L92.1748 602.539L90.2612 596.797L89.9136 592.621L87.1293 590.709V588.445L85.7377 584.791L83.3021 581.659L84.8681 579.05L85.9121 576.093L83.3021 573.308L82.4325 570.176L79.475 569.829L78.8663 568.002L76.6897 565.827L72.8615 565.305L70.4259 562.868L69.7296 557.302L67.294 555.038L67.9903 551.56L65.0328 549.123L63.4668 545.123L60.8569 543.904L57.0287 541.294L55.8104 537.118L53.2005 533.117L52.3309 529.637L50.4173 529.288L49.0257 527.549L47.2854 525.112L45.0231 525.461L43.6315 521.285L44.1535 513.282L43.4572 507.365L42.0656 504.408L40.3253 501.798L40.6729 496.578L38.585 494.664L37.1934 491.881L38.2374 488.749L37.3677 485.268L39.2813 483.354L41.3693 483.007L44.1535 486.485L46.7634 487.356L47.9817 484.746L50.9393 483.529L54.9408 483.354H57.0287L59.6386 484.224L60.1606 479.875L58.769 477.265L59.4653 475.002L61.5532 475.351L63.4668 476.743L65.5548 478.656L67.1207 477.09L69.5563 478.134L73.5578 478.656L76.5153 479.875L77.2117 476.743L75.1237 475.177L72.1662 474.48L70.2526 472.567L68.1647 471.87L70.7746 469.087L74.6018 467.348L77.908 468.738L80.8655 467.521L83.6498 470.479L87.8256 475.002L91.6539 471.175L94.2638 469.609L93.5674 465.779L96.003 463.345L98.4386 463.694L98.2642 460.908L104.702 460.04L105.921 457.081L107.312 455.342L104.355 453.949V450.295L101.57 447.163L100.527 443.161L97.9166 441.595L95.1323 438.463L96.1763 434.809L95.1323 429.415L91.8272 426.981L87.9989 424.023L86.7806 420.02L84.1707 417.933L83.3011 415.497L85.5634 412.887L87.3037 409.059V405.405L85.3901 401.925L83.4765 398.968L85.2168 397.576L86.2607 394.966H88.3487L89.9146 393.575L91.1329 388.877L91.4806 386.093L90.0879 382.613L88.1733 380.699L85.5634 380.351L83.6498 378.263L82.0838 376.001L79.7349 378.001L77.908 376.174L76.342 373.564L77.908 370.78L81.2142 367.474L83.4765 364.864L84.3461 361.732L86.956 361.557L88.8696 363.645L89.9136 366.255L93.3931 367.475L96.6993 366.431L97.569 362.951L98.6129 359.123L96.003 356.513L97.7433 355.295L97.569 352.337L98.6129 348.161L100.527 343.638L101.918 339.81L105.398 338.766L106.616 336.156L109.922 333.371V327.455L106.965 324.672L103.658 323.802L104.702 321.193L105.572 318.408L103.136 315.973L101.57 312.493L102.092 310.058L105.399 306.751L107.312 303.272L106.443 300.14L109.227 299.444L113.403 296.834V293.18L115.143 291.092L119.492 290.918L121.406 288.655L121.58 286.045L125.234 284.654L128.192 280.652L132.193 280.827L135.673 278.739L140.37 279.783L141.067 277.173L142.633 275.607L145.59 276.998L148.026 279.608L151.855 280.826L153.247 283.958L154.638 287.437L156.726 285.349L156.379 280.304L153.247 277.519V271.603L156.031 270.908L156.901 270.038L153.072 268.472L150.81 265.863L189.784 265.688L197.092 263.078V258.555L198.31 247.071H203.183L207.358 243.765V239.241L210.49 238.023V232.107L213.275 231.933L219.364 227.06L222.322 228.452L228.76 216.446L229.195 213.228L234.501 207.921H243.375L246.159 203.049V193.654L259.035 187.215L264.08 189.129H267.039L269.474 191.565L272.462 189.483L271.736 193.131L274.693 192.783L278.869 192.957V195.742L279.739 198.873L277.825 197.655L275.824 195.654L273.997 197.481L274.866 200.787V204.093L277.824 205.659L280.086 207.921V211.575L282.609 212.794V216.883L285.48 219.754L286.872 224.626V229.671L286.002 234.022L287.046 236.457L287.133 241.764L290.178 244.809L290.004 248.637L289.308 254.901L286.262 260.207L281.651 264.819H276.779L271.385 265.863L266.687 264.122L261.554 261.251L258.339 258.032V253.334L255.033 250.028L253.467 246.374L252.249 242.894L249.988 239.067L248.769 232.629L246.334 231.585L247.117 227.67L249.118 225.669L246.682 223.233L245.552 226.279L243.899 227.931L244.596 231.759L244.682 236.196L242.769 238.11L245.292 240.633L244.596 244.461L242.16 249.855L237.898 251.16L234.505 254.553L233.2 260.73L229.981 263.949L231.025 267.603L232.591 272.126L230.068 276.563L237.46 283.958L241.81 280.826L242.68 276.476L240.418 274.214L240.765 270.386V267.428L243.723 264.297H246.68L247.724 272.126L248.682 277.259L251.727 280.305L253.641 284.306L258.599 285.785L260.079 284.306L258.86 281.349L261.818 278.913L261.992 272.824L267.386 273.693L272.432 271.78L276.608 274.042L281.306 272.563H284.524L286.526 274.562L289.484 279.085L287.048 281.521V285.349L289.223 282.653L292.268 279.607L296.444 278.738L299.924 273.692V269.342L301.315 266.384L305.839 264.122V261.338L310.189 258.728V254.378L309.493 250.202H312.45L313.407 252.377L317.322 256.291L320.28 260.815V266.904L319.236 270.036L317.67 271.602L315.06 268.992L311.406 268.123L305.839 270.036V274.56L307.23 278.736V282.215L311.232 283.259L315.06 284.999L319.41 282.911V279.78L323.934 278.736L328.284 280.824L327.588 278.039L334.373 279.258L338.027 278.561L344.639 279.431H348.467L350.38 282.91H352.121V279.779L357.688 278.038H360.648L361.866 282.562H358.56L357.516 285.694L354.906 286.563L358.908 290.217H361.692L366.912 287.955L371.87 288.912L377.265 294.306L379.092 292.479H382.745L387.357 291L389.184 292.827L388.662 295.263L385.877 297.176V300.134L389.184 302.918L389.445 299.699L390.924 298.22L394.403 299.09V296.306L397.71 295.784L398.406 291.608L397.884 286.562L401.016 284.996L403.712 284.213L406.931 287.432L408.323 286.04L411.89 290.477L419.285 297.873L421.46 302.309L425.549 306.399L428.333 310.749L431.291 314.75V318.23L433.725 322.062L437.205 319.974V316.32L441.206 312.667L438.422 311.797L436.509 307.273L437.205 302.401L433.899 300.139L432.072 296.398L433.724 294.746L437.204 293.006V290.221L438.073 286.045L439.639 283.958V281.348L437.377 280.651L438.595 277.172L440.509 274.736L443.989 273.518L447.729 271.691L451.992 267.428L454.254 262.383L455.994 258.207L457.908 254.031L461.214 252.291L463.302 255.249H467.478L469.566 257.336H473.22L474.785 263.253L473.045 264.993L472.262 271.343L467.303 276.302L465.912 280.826L468.869 283.436L467.825 289.352L466.956 294.05L463.476 299.269L462.258 306.751L460.344 313.363L458.953 316.669L460.258 321.28L463.303 324.326L462.781 327.11L458.953 330.067L458.256 336.505L454.428 337.549L449.905 342.073L447.295 345.901L444.859 347.293L440.509 346.423L437.899 348.163L435.028 346.336L433.201 344.51L430.591 343.64V346.946L433.201 350.948L435.811 352.166L439.291 354.602L442.248 354.427L444.336 357.385H447.468C447.468 357.385 448.773 355.036 448.077 354.339C447.38 353.643 449.904 352.513 449.904 352.513H452.166L453.21 351.469L457.56 350.25L461.04 348.337V344.683L467.477 338.246L468.521 334.07L467.651 330.416L467.303 327.11L472.001 322.412H475.655L479.657 321.89L480.787 325.283L482.44 326.935L484.528 332.33L481.748 335.112L481.922 339.288V341.898L485.402 345.377L489.403 346.247V343.811L485.488 342.681L484.009 341.201V339.113L483.661 335.981L486.445 335.112L487.489 332.849L486.445 329.543L487.664 326.759L485.923 323.279L483.661 321.192L482.27 319.8L478.007 318.321L475.572 315.885L473.57 317.886L470.96 319.105L469.569 317.191H466.437L465.915 313.885L468.003 311.797L467.481 306.229L469.916 302.401L471.482 297.878L474.962 294.398L473.744 290.57L472.7 287.264L473.135 283.698L470.612 281.174L477.746 274.04H481.4L483.488 270.734L484.88 267.08L483.661 264.122L484.88 261.512H487.664L486.794 265.166V270.212L486.098 274.735L482.966 277.867V285.349L486.62 288.133L488.708 289.874L491.404 288.221L494.101 290.918L497.058 293.702V291.614L495.928 288.917L493.927 286.916L490.795 285.35V283.959L488.185 281.349L486.967 277.519L490.621 275.084L495.146 279.608L497.234 277.695L496.538 275.433L496.276 273.431L498.278 271.43L501.757 272.126L504.628 271.691L506.977 274.04L511.501 276.475L510.282 279.955L514.458 284.131H519.156L519.852 281.347L517.939 278.737L518.113 276.301L514.807 275.083L512.371 271.081L510.979 269.69L512.023 265.514L513.589 262.034L512.197 260.643L511.327 256.292L514.807 253.161H522.984L527.16 254.727V253.683H533.946L538.469 251.769H541.774L543.515 250.029L541.774 247.419L539.687 246.722L537.946 244.982C537.946 244.982 538.643 244.286 539.948 242.981C541.253 241.676 541.253 244.286 541.253 244.286L543.34 243.764L541.949 242.198L542.906 240.023L541.427 238.544L543.167 236.109L545.603 234.195L543.167 234.021L542.993 231.411L547.865 231.585L549.779 227.583L554.563 225.757L556.39 223.93L562.915 222.972L564.567 221.32L569.265 219.928L570.309 218.71L567.177 217.666L568.918 215.926L573.441 214.882L577.269 214.36L578.139 212.446L581.271 211.924L579.618 215.056V217.579L581.793 215.405L587.188 215.578L587.71 212.794L591.19 212.097L594.669 212.794L593.103 210.706L591.015 209.14L589.971 207.226H593.799L597.801 206.008H599.019L598.672 203.05L597.279 202.006V197.831L598.15 195.046L600.76 188.608L603.891 186.346L606.675 183.388L610.155 185.476L612.765 185.129L613.548 188.696L610.85 191.392L608.589 194.35L614.113 194.655L615.201 193.567H618.594L621.117 196.09L618.855 198.353C618.855 198.353 618.68 200.615 619.724 200.615C620.768 200.615 623.552 201.833 623.552 201.833L624.422 198.876L622.856 197.31L626.684 195.222H630.164L633.731 192.698L635.732 194.7L638.429 193.395L640.43 195.396L642.169 198.876L644.257 200.616L645.476 199.224L649.651 203.4L649.304 207.054L645.823 206.358L647.216 207.749L650.695 209.663L652.87 213.403L650.87 215.404V218.883L649.13 221.319L647.477 224.712L645.476 226.713L641.996 230.889V232.629L640.952 237.501L638.342 240.111L637.298 245.505L633.122 246.549L631.817 250.464L628.947 253.335L628.25 257.858L627.381 260.99L630.512 259.599L629.816 256.119L632.948 254.206C632.948 254.206 635.732 253.336 637.298 253.336C638.864 253.336 639.386 250.204 639.386 250.204L642.344 247.769L645.128 246.725L646.781 243.506L645.476 242.201L643.388 242.027L643.562 240.633L643.388 237.849L645.998 237.674H648.086L651.043 238.371L654.524 239.762L655.219 237.674L657.395 234.629L659.221 236.456V239.936L661.309 242.893H663.745L661.309 240.633L666.181 235.762L670.531 233.5L677.142 232.281L682.362 230.715L683.668 232.717L682.45 233.935L685.321 236.806H690.714L690.888 235.414L691.41 233.501L693.498 236.807L697.152 235.415L700.806 232.283C700.806 232.283 704.634 231.587 705.504 231.587C706.373 231.587 705.504 228.455 705.504 228.455L704.982 224.976L702.372 220.974L703.068 216.973L703.59 214.885L705.678 216.973L707.852 215.32L709.679 217.147L712.464 219.061L713.159 216.973L714.552 216.622L715.943 218.188L717.335 217.144C717.335 217.144 717.161 213.925 718.466 213.925C719.771 213.925 720.119 212.273 720.119 212.273L723.947 215.23L725.164 214.012L729.34 215.404L727.949 219.666H729.949L731.95 221.667V224.974L735.257 222.886L736.997 224.626V228.454L734.734 229.15L733.343 230.541L735.779 232.977C735.779 232.977 737.692 232.107 737.692 231.236C737.692 230.366 739.258 232.802 739.258 232.802V235.587L742.825 235.499L746.218 238.892L748.828 240.632L752.482 241.328L754.048 239.762L758.049 241.85L758.398 238.545L756.658 232.803L755.614 230.193V227.758L753.352 225.496V222.364L757.702 222.886L760.137 225.321L763.966 224.277H768.316L767.445 219.754L769.882 215.23L774.405 214.186L777.711 214.012L781.539 215.056V212.446L777.45 210.619L778.929 209.14L780.843 207.052L784.148 207.226L786.758 204.616L785.541 203.92L782.931 201.31L779.973 199.744V195.916L778.755 194.872L777.015 199.395L774.927 198.004V194.35L778.755 190.87L778.233 188.435L774.579 186.173L776.841 183.91H780.147L785.019 181.475L786.411 177.473L792.849 175.038L797.894 172.775C797.894 172.775 798.591 173.472 798.591 174.516C798.591 175.56 795.284 176.778 795.284 176.778L794.066 181.476L797.025 180.083L799.635 177.473L802.94 178.517L802.07 185.303L805.028 182.519V179.212L803.984 173.645L804.68 171.209L806.246 166.859L809.9 165.119L815.12 162.857L818.252 165.119C818.252 165.119 816.772 167.12 815.642 168.251C814.511 169.381 816.86 170.165 816.86 170.165H820.687L823.124 167.381C823.124 167.381 825.907 170.339 826.429 170.861C826.951 171.383 825.907 166.859 825.907 166.859L830.605 164.249L833.911 165.99L837.565 165.816L840.871 162.51L844.351 158.16V153.114L848.701 146.676L852.355 143.022L855.66 139.021L861.402 138.151L866.187 137.89L873.407 145.111L877.758 143.198L880.889 140.675H884.282L882.63 139.021V136.584L885.935 133.279V127.537L887.501 124.58H890.111L892.373 122.317V118.838L896.723 115.706L897.767 111.53L896.027 109.79L896.723 107.702L894.288 104.222L896.201 100.742L898.028 98.915L901.334 102.221L898.811 104.744L901.421 107.354H905.423L908.207 106.31L912.035 104.57L915.515 103.7L916.384 100.916L915.34 98.132L913.427 97.7843L907.511 95.1744L903.161 95.8708L902.117 93.4352H898.637V91.5216L899.508 88.2154L902.639 86.6494L902.987 82.9956L905.771 81.4296H908.207L907.163 78.4721L908.207 75.3402L911.164 70.9889Z" fill="#F0EFEE"/>
<path d="M977.437 390.244L976.232 390.546L975.33 387.986V385.728L979.244 386.782L981.201 387.685L982.255 390.094L984.363 392.202L988.126 392.955L989.029 395.363L993.244 398.073H995.502L997.308 400.632L998.813 404.697L1001.15 407.029L1005.59 411.622L1008.45 412.374L1012.36 413.88L1016.13 417.192L1021.24 420.052L1024.56 422.912L1028.92 425.17L1032.68 427.428L1035.09 429.385L1039.31 431.042L1038.71 432.999L1037.2 434.503L1034.34 435.406H1032.08L1032.69 438.567L1032.08 440.826V442.632L1034.64 446.546C1034.64 446.546 1037.05 449.255 1036.6 449.707C1036.15 450.159 1036.75 454.374 1036.75 454.374L1041.72 459.343L1044.28 460.999H1048.19L1050.45 463.256H1053.01L1054.36 466.117L1057.68 466.268L1059.71 464.235L1063.25 466.268L1065.36 468.978C1065.36 468.978 1066.11 470.784 1065.36 470.784C1064.6 470.784 1060.54 468.827 1060.54 468.827L1058.81 470.558H1054.97L1053.76 473.645L1054.52 476.654L1056.93 479.063L1058.73 482.978L1056.32 484.935L1054.37 482.527L1051.81 479.966L1047.29 475.751V472.891L1041.42 467.021L1039.46 464.462L1037.05 459.794L1034.04 456.934L1030.88 455.128L1027.87 454.225L1025.31 448.806L1019.74 441.128L1011.46 432.849L1008.15 428.332L1006.04 424.871L1000.32 422.311L995.805 420.354L993.094 420.053L989.481 415.085V412.828L985.568 408.913L983.46 404.999L979.244 403.644L980.299 400.633V398.375L983.76 399.428L984.363 396.417L982.331 394.386V393.256L980.336 391.26L977.437 390.244Z" fill="#F0EFEE"/>
<path d="M38.6278 267.272L41.3359 267.88L43.6566 267.217L44.5408 265.503L46.6402 265.835L48.6029 267.797L48.6854 270.477L50.2879 270.975L50.6198 273.074L53.1066 273.517L53.6588 271.527L52.3058 270.173L53.4657 269.013L54.2121 269.76L56.5882 271.748V274.732L56.2562 277.329L57.6374 279.595L59.0196 280.534L59.5165 283.905L58.3013 286.447L52.499 289.377L43.7119 278.932L38.6278 267.272Z" fill="#F0EFEE"/>
<path d="M17.6676 450.693L16.7198 449.864L15.5247 448.913L14.6444 448.272L13.8306 447.727L10.6021 447.646L8.7232 447.861L7.1354 446.946L5.57408 446.461L4.67433 445.896L3.29824 447.134L3.48348 448.857L4.83311 449.557L6.39444 450.041L7.29418 452.545L7.47942 454.483L7.00309 456.044L7.24126 458.198L6.57968 460.216L4.35677 461.32L3.19239 462.531L1.49875 462.72L0.228516 464.792L0.916561 467.323L1.55168 469.207L4.06568 470.876L6.81785 470.58L8.4321 469.745L10.8667 468.615L12.6397 469.099L14.9156 470.58L15.5901 471.839L16.2155 472.634L17.377 473.691L20.0477 474.614L22.8036 474.657L25.9113 474.616L27.1805 477.237L27.9035 479.135L31.5534 481.494L35.106 482.167L36.3649 480.123L39.3396 480.581L36.5031 477.714L36.184 476.559L35.6651 475.681L35.1169 475.096L31.9537 474.591L28.4755 472.684L25.9993 468.849L27.5429 466.561L28.2645 463.223L27.8534 460.19L27.4154 459.773L26.4249 459.033L26.2392 458.48L26.9937 455.181L25.2275 453.415L25.1617 450.68L23.1271 450.343L22.7902 451.708L21.1154 451.553L18.9314 451.915L17.6676 450.693Z" fill="#F0EFEE"/>
<path d="M975.023 505.277L970.848 507.538L969.804 511.019L967.019 515.543L963.887 519.544L965.28 523.895L961.626 526.852L957.972 528.939L954.84 529.983L953.97 533.115H950.665L947.358 531.203L944.923 530.332V526.33L942.139 523.895L939.876 521.632L939.512 517.784L940.322 515.728L939.544 513.004L941.241 512.322L943.09 512.683L944.923 509.829L946.521 508.23L946.224 504.587L949.05 504.216L952.025 504.736L955.968 502.877L958.794 504.216L962.215 508.307L964.446 505.256C964.446 505.256 968.987 504.434 969.208 504.216C969.428 503.996 970.992 500.943 970.992 500.943L974.562 500.497L977.538 499.305L977.241 502.131L978.356 503.249L977.981 505.277H975.023Z" fill="#F0EFEE"/>
</svg>
