<svg width="59" height="61" fill="none" xmlns="http://www.w3.org/2000/svg"><path d="M15.322 39.498c2.421-2.642 6.383-2.862 8.804-.66 2.421 2.2 2.421 6.162 0 8.804-2.421 2.641-6.383 2.861-8.804.66-2.421-2.201-2.421-6.163 0-8.804z" fill="#fff"/><path d="M19.284 50.943c-1.761 0-3.302-.66-4.623-1.76-2.861-2.642-2.861-7.264-.22-10.346 2.862-3.082 7.484-3.302 10.345-.66 2.862 2.641 2.862 7.263.22 10.345-1.54 1.54-3.521 2.421-5.722 2.421zm-3.082-10.785c-1.98 2.2-1.98 5.503 0 7.264 1.981 1.76 5.283 1.54 7.264-.44 1.98-2.202 1.98-5.504 0-7.264-2.201-1.982-5.283-1.541-7.264.44z" fill="#000"/><path d="M55.821 11.764c2.201-2.421 2.201-5.943 0-8.144-2.2-1.981-5.943-1.761-8.144.66l-2.641 2.861C40.633 2.96 33.37 3.4 28.968 8.242L15.32 22.989 1.233 26.511l35.879 33.237 2.421-14.307L53.18 30.693c4.402-4.842 4.402-11.886-.22-16.068l2.861-2.861z" fill="#E0FF23"/><path d="M37.112 60.849c-.22 0-.44 0-.66-.22L.572 27.391c-.22-.22-.44-.66-.22-1.101 0-.44.44-.66.88-.88L15.1 21.889 28.527 7.36c4.623-4.842 11.886-5.723 16.729-1.98l1.98-2.202c1.323-1.318 2.863-2.2 4.624-2.2 1.761-.22 3.522.44 4.843 1.76 1.32 1.101 1.98 2.862 1.98 4.623 0 1.761-.66 3.522-1.98 4.843l-1.981 2.2c1.98 2.202 2.861 4.843 3.081 7.925 0 3.302-1.32 6.603-3.522 9.024L40.853 45.882l-2.42 14.087c0 .44-.44.66-.661.88h-.66zM3.434 26.95l33.017 30.596 2.201-12.326c0-.22.22-.44.22-.44L52.52 30.032c1.98-2.201 3.081-4.843 3.081-7.484s-1.1-5.283-3.081-7.044c-.22-.22-.44-.44-.44-.66 0-.22 0-.66.22-.88l2.64-2.862c.881-.88 1.321-2.201 1.321-3.302 0-1.32-.44-2.42-1.32-3.081-.88-.88-1.981-1.1-3.302-1.1-1.32 0-2.421.66-3.302 1.54l-2.641 2.862c-.22.22-.44.44-.66.44-.22 0-.66 0-.88-.22C40.192 4.5 33.59 4.94 29.627 9.342L15.98 24.09c-.22.22-.22.22-.44.22L3.434 26.95z" fill="#000"/></svg>