<svg width="99" height="15" viewBox="0 0 99 15" fill="none" xmlns="http://www.w3.org/2000/svg">
<path d="M7.31394 0.394085C7.48466 -0.131363 8.22803 -0.131362 8.39876 0.394087L9.86241 4.89873C9.93876 5.13371 10.1577 5.29281 10.4048 5.29281H15.1413C15.6938 5.29281 15.9235 5.9998 15.4765 6.32454L11.6446 9.10856C11.4447 9.25379 11.3611 9.51122 11.4374 9.74621L12.9011 14.2508C13.0718 14.7763 12.4704 15.2132 12.0235 14.8885L8.19158 12.1045C7.99169 11.9592 7.72101 11.9592 7.52112 12.1045L3.68924 14.8885C3.24227 15.2132 2.64087 14.7763 2.8116 14.2508L4.27525 9.74621C4.3516 9.51122 4.26796 9.25379 4.06807 9.10856L0.23619 6.32454C-0.210783 5.9998 0.018932 5.29281 0.571421 5.29281H5.30788C5.55496 5.29281 5.77394 5.13371 5.85029 4.89873L7.31394 0.394085Z" fill="#F9D876"/>
<path d="M48.7394 0.394085C48.9101 -0.131363 49.6534 -0.131362 49.8242 0.394087L51.2878 4.89873C51.3642 5.13371 51.5832 5.29281 51.8302 5.29281H56.5667C57.1192 5.29281 57.3489 5.9998 56.9019 6.32454L53.07 9.10856C52.8702 9.25379 52.7865 9.51122 52.8629 9.74621L54.3265 14.2508C54.4972 14.7763 53.8958 15.2132 53.4489 14.8885L49.617 12.1045C49.4171 11.9592 49.1464 11.9592 48.9465 12.1045L45.1147 14.8885C44.6677 15.2132 44.0663 14.7763 44.237 14.2508L45.7007 9.74621C45.777 9.51122 45.6934 9.25379 45.4935 9.10856L41.6616 6.32454C41.2146 5.9998 41.4443 5.29281 41.9968 5.29281H46.7333C46.9804 5.29281 47.1994 5.13371 47.2757 4.89873L48.7394 0.394085Z" fill="#F9D876"/>
<path d="M28.0266 0.394085C28.1974 -0.131363 28.9407 -0.131362 29.1115 0.394087L30.5751 4.89873C30.6515 5.13371 30.8704 5.29281 31.1175 5.29281H35.854C36.4065 5.29281 36.6362 5.9998 36.1892 6.32454L32.3573 9.10856C32.1574 9.25379 32.0738 9.51122 32.1502 9.74621L33.6138 14.2508C33.7845 14.7763 33.1831 15.2132 32.7362 14.8885L28.9043 12.1045C28.7044 11.9592 28.4337 11.9592 28.2338 12.1045L24.402 14.8885C23.955 15.2132 23.3536 14.7763 23.5243 14.2508L24.988 9.74621C25.0643 9.51122 24.9807 9.25379 24.7808 9.10856L20.9489 6.32454C20.5019 5.9998 20.7316 5.29281 21.2841 5.29281H26.0206C26.2677 5.29281 26.4866 5.13371 26.563 4.89873L28.0266 0.394085Z" fill="#F9D876"/>
<path d="M69.4521 0.394085C69.6228 -0.131363 70.3662 -0.131362 70.5369 0.394087L72.0005 4.89873C72.0769 5.13371 72.2959 5.29281 72.5429 5.29281H77.2794C77.8319 5.29281 78.0616 5.9998 77.6146 6.32454L73.7828 9.10856C73.5829 9.25379 73.4992 9.51122 73.5756 9.74621L75.0392 14.2508C75.2099 14.7763 74.6085 15.2132 74.1616 14.8885L70.3297 12.1045C70.1298 11.9592 69.8591 11.9592 69.6592 12.1045L65.8274 14.8885C65.3804 15.2132 64.779 14.7763 64.9497 14.2508L66.4134 9.74621C66.4897 9.51122 66.4061 9.25379 66.2062 9.10856L62.3743 6.32454C61.9273 5.9998 62.1571 5.29281 62.7095 5.29281H67.446C67.6931 5.29281 67.9121 5.13371 67.9884 4.89873L69.4521 0.394085Z" fill="#F9D876"/>
<path opacity="0.15" d="M90.1648 0.394085C90.3355 -0.131363 91.0789 -0.131362 91.2496 0.394087L92.7132 4.89873C92.7896 5.13371 93.0086 5.29281 93.2556 5.29281H97.9921C98.5446 5.29281 98.7743 5.9998 98.3273 6.32454L94.4955 9.10856C94.2956 9.25379 94.2119 9.51122 94.2883 9.74621L95.7519 14.2508C95.9227 14.7763 95.3213 15.2132 94.8743 14.8885L91.0424 12.1045C90.8425 11.9592 90.5718 11.9592 90.3719 12.1045L86.5401 14.8885C86.0931 15.2132 85.4917 14.7763 85.6624 14.2508L87.1261 9.74621C87.2024 9.51122 87.1188 9.25379 86.9189 9.10856L83.087 6.32454C82.64 5.9998 82.8698 5.29281 83.4223 5.29281H88.1587C88.4058 5.29281 88.6248 5.13371 88.7011 4.89873L90.1648 0.394085Z" fill="#F9D876"/>
<mask id="mask0_116_43" style="mask-type:alpha" maskUnits="userSpaceOnUse" x="82" y="0" width="9" height="15">
<rect x="82.8508" width="7.855" height="15" fill="#D9D9D9"/>
</mask>
<g mask="url(#mask0_116_43)">
<path d="M90.1648 0.394085C90.3355 -0.131363 91.0789 -0.131362 91.2496 0.394087L92.7132 4.89873C92.7896 5.13371 93.0086 5.29281 93.2556 5.29281H97.9921C98.5446 5.29281 98.7743 5.9998 98.3273 6.32454L94.4955 9.10856C94.2956 9.25379 94.2119 9.51122 94.2883 9.74621L95.7519 14.2508C95.9227 14.7763 95.3213 15.2132 94.8743 14.8885L91.0424 12.1045C90.8425 11.9592 90.5718 11.9592 90.3719 12.1045L86.5401 14.8885C86.0931 15.2132 85.4917 14.7763 85.6624 14.2508L87.1261 9.74621C87.2024 9.51122 87.1188 9.25379 86.9189 9.10856L83.087 6.32454C82.64 5.9998 82.8698 5.29281 83.4223 5.29281H88.1587C88.4058 5.29281 88.6248 5.13371 88.7011 4.89873L90.1648 0.394085Z" fill="#F9D876"/>
</g>
</svg>
