<svg width="69" height="44" fill="none" xmlns="http://www.w3.org/2000/svg"><path d="M.441 1.406c1.1 10 1.3 20.1.5 30.1-.2 2.8-.4 5.8.4 8.5.6 1.9 2.4 3.2 4.4 3.2l7.7-.2c3-.1 6.1-.1 9.1-.2l39.7-.9c1.2 0 2.5-.1 3.6-.5 1.1-.5 2.1-1.5 2.1-2.6.2-12.7.3-25.4-.1-37.9a791.3 791.3 0 01-26.5 25.3c-1.4 1.3-3.3 2.7-5.2 2.1-5.4-1.9-9.9-5.7-14.3-9.5-7.1-6.1-14.3-12.2-21.4-17.4z" fill="#fff"/><path d="M5.641 43.606c-2.2 0-4.1-1.4-4.7-3.5-.8-2.6-.7-5.6-.4-8.7.8-10 .6-20.1-.5-30 0-.2.1-.4.2-.5.2-.1.4-.1.5 0 7.1 5.3 14.4 11.5 21.5 17.5 4.1 3.5 8.7 7.5 14.1 9.4 1.7.5 3.5-.9 4.7-2 9-8.2 17.9-16.7 26.5-25.3.1-.1.3-.2.5-.1s.3.2.3.4c.3 10.8.3 22.8.1 37.9.1 1.4-1.1 2.5-2.4 3-1.2.5-2.6.5-3.8.6l-56.6 1.3zm-4.6-41.2c1 9.6 1.1 19.4.4 29.1-.2 3-.4 5.8.4 8.3.5 1.7 2.1 2.9 3.9 2.8l56.6-1.3c1.2 0 2.4-.1 3.4-.5.9-.4 1.8-1.2 1.8-2.1.2-14.6.2-26.3 0-36.7-8.3 8.3-17 16.6-25.7 24.5-1.4 1.3-3.5 2.9-5.6 2.3-5.6-2-10.3-6-14.5-9.5-6.9-5.9-13.9-11.8-20.7-16.9z" fill="#000"/></svg>