<svg width="44" height="57" fill="none" xmlns="http://www.w3.org/2000/svg"><path d="M.4 1.3c.8 18.1 1.3 36.3 1.5 54.4 0 0 41.3-.9 41.3-1.4-.4-17.9-.6-35.8-.3-53.8L.4 1.3z" fill="#fff"/><path d="M1.9 56.2c-.1 0-.3 0-.3-.1-.1-.1-.1-.2-.1-.3C1.2 37.6.8 19.3 0 1.3c0-.1 0-.3.1-.4C.2.8.3.7.4.7L42.8 0c.1 0 .3 0 .4.1.1.1.1.2.1.4-.2 17.8-.1 35.9.3 53.7 0 .6 0 .6-6.9.9-3.4.1-8.2.3-14.2.5-10.2.4-20.5.6-20.6.6zM1 1.7c.8 17.7 1.3 35.7 1.4 53.5 15.1-.3 37.3-.9 40.3-1.3-.4-17.5-.5-35.3-.3-52.9L1 1.7z" fill="#000"/><path d="M8.4 10.8c-.3 0-.5-.2-.5-.5s.2-.5.5-.5l27.2-.7c.3 0 .5.2.5.5s-.2.5-.5.5l-27.2.7s.1 0 0 0zm27.4 8.3L8.3 19c-.3 0-.5-.2-.5-.5s.2-.5.5-.5l27.5.1c.3 0 .5.2.5.5-.1.3-.3.5-.5.5zM28 27.7c-6.5 0-13-.1-19.4-.2-.3 0-.5-.2-.5-.5s.2-.5.5-.5c8.9.2 17.9.3 26.8.2.3 0 .5.2.5.5s-.2.5-.5.5c-2.4-.1-4.9 0-7.4 0zM8.5 35.6c-.3 0-.5-.2-.5-.5s.2-.5.5-.5h27c.3 0 .5.2.5.5s-.2.5-.5.5h-27zm0 8.4c-.3 0-.5-.2-.5-.5s.2-.5.5-.5h27c.3 0 .5.2.5.5s-.2.5-.5.5h-27z" fill="#000"/></svg>