<svg width="348" height="112" fill="none" xmlns="http://www.w3.org/2000/svg"><path d="M34 74.227C78.473 24.251 186.611-54.943 308.5 65" stroke="#000" stroke-width="2" stroke-linecap="round" stroke-dasharray="10 10"/><path d="M.441 69.406c9.6-9.2 19.7-19 29.2-28.2 1.8-1.7 3.8-3.5 6.2-3.5 1.5 0 2.9.7 4.1 1.5 11.5 7.2 20.5 23.6 27.9 29.5-.1 11.3-8.2 23-16.6 30.6-2.9 2.6-6.1 5.1-9.8 6.3-2.8.9-5.8 1.1-8.7.7-8.5-1.2-15.9-7-20.8-14.1-4.8-7-8.2-14.7-11.5-22.8z" fill="#D1BAFF"/><path d="M35.741 107.106c-1 0-2-.1-3-.2-7.9-1.1-15.6-6.3-21.1-14.3-5.1-7.3-8.5-15.4-11.6-23-.1-.2 0-.4.1-.5 4.8-4.6 9.7-9.3 14.6-14.1 4.9-4.7 9.8-9.4 14.6-14 1.9-1.8 4-3.6 6.5-3.6h.1c1.7 0 3.1.8 4.4 1.6 6.9 4.3 12.9 11.9 18.2 18.6 3.5 4.4 6.8 8.6 9.7 10.9.1.1.2.2.2.4-.1 11.7-8.7 23.7-16.7 31-2.5 2.3-5.9 5.1-10 6.4-1.9.5-3.9.8-6 .8zm-34.7-37.6c3.1 7.5 6.5 15.4 11.4 22.5 5.4 7.8 12.9 12.9 20.4 13.9 3 .4 5.9.2 8.5-.6 3.9-1.3 7.2-4 9.6-6.2 7.8-7.1 16.2-18.8 16.4-30-3-2.4-6.2-6.6-9.7-10.9-5.2-6.6-11.2-14.2-18-18.4-1.1-.7-2.5-1.4-3.9-1.4-2.2 0-4.1 1.6-5.8 3.3-4.8 4.6-9.7 9.3-14.6 14-4.8 4.6-9.6 9.3-14.3 13.8z" fill="#000"/><path d="M.441 69.406c1.1 10 1.3 20.1.5 30.1-.2 2.8-.4 5.8.4 8.5.6 1.9 2.4 3.2 4.4 3.2l7.7-.2c3-.1 6.1-.1 9.1-.2l39.7-.9c1.2 0 2.5-.1 3.6-.5 1.1-.5 2.1-1.5 2.1-2.6.2-12.7.3-25.4-.1-37.9a791.3 791.3 0 01-26.5 25.3c-1.4 1.3-3.3 2.7-5.2 2.1-5.4-1.9-9.9-5.7-14.3-9.5-7.1-6.1-14.3-12.2-21.4-17.4z" fill="#fff"/><path d="M5.641 111.606c-2.2 0-4.1-1.4-4.7-3.5-.8-2.6-.7-5.6-.4-8.7.8-10 .6-20.1-.5-30 0-.2.1-.4.2-.5.2-.1.4-.1.5 0 7.1 5.3 14.4 11.5 21.5 17.5 4.1 3.5 8.7 7.5 14.1 9.4 1.7.5 3.5-.9 4.7-2 9-8.2 17.9-16.7 26.5-25.3.1-.1.3-.2.5-.1s.3.2.3.4c.3 10.8.3 22.8.1 37.9.1 1.4-1.1 2.5-2.4 3-1.2.5-2.6.5-3.8.6l-56.6 1.3zm-4.6-41.2c1 9.6 1.1 19.4.4 29.1-.2 3-.4 5.8.4 8.3.5 1.7 2.1 2.9 3.9 2.8l56.6-1.3c1.2 0 2.4-.1 3.4-.5.9-.4 1.8-1.2 1.8-2.1.2-14.6.2-26.3 0-36.7-8.3 8.3-17 16.6-25.7 24.5-1.4 1.3-3.5 2.9-5.6 2.3-5.6-2-10.3-6-14.5-9.5-6.9-5.9-13.9-11.8-20.7-16.9z" fill="#000"/><path opacity=".129" d="M13.742 76.206c-1.6-2.1-3.8-3.7-6-5.2-.9-.6-1.8-1-2.7-1.5-.9-.5-1.9-1-2.9-1.4-1.7-.4-2.4 2.1-.7 2.6 1.8.6 2.3.9 3.7 1.4.1.1.3.1.4.2-.2.4 0 .9.4 1.2 1.5.8 2.4 1.2 3.3 2.2l1.5 1.5c.2.2.5.4.8.4.2 0 .4-.1.5-.2l.1.1c.1.1.5.5.5.6.1.1.1.2.3.3.5.5 1.4.1 1.6-.5.1-.6-.5-1.2-.8-1.7zm52.899-7.6c-.4.1-.6.4-.9.6.4-.3-.6.5-1 .8-1.6 1.1-3.1 2.3-4.6 3.6-1 .8-1.8 1.4-3.2 2.6-.5.4-.9.8-1.4 1.2-.2.2-.5.4-.5.7-.5 1.2 1.1 2.3 2 1.3 1.9-1.8 3.9-3.5 5.8-5.2 1.5-1.3 2.2-1.7 3.9-3.1.4-.4.9-.6 1.1-1.1.3-.7-.5-1.6-1.2-1.4zm-14 13.2c-1 .9-2.5 2.3-3.1 2.8-.6.5-2.1 1.6-3.7 2.8-1.8 1.5-2.6 2.2-4.4 3.7-1 .7-2.4 2.1-4.3 2.4-1.6 0-1.7 0-3.2-.3-1.2-.3-1.2-.4-2.4-1.1-1.2-.7-2.3-1.4-3.5-2.1-.4-.3-.9-.7-1.4-.5-.8.2-1 1.4-.2 1.8 1.8 1.1 3.6 2.4 5.6 3.3 1.1.5 2.2.8 3.4 1 3 .7 5.6-1.1 7.7-3.1 2-1.7 3.8-3.5 5.8-5.2 1.5-1.3 2.9-2.6 4.3-3.9.2-.3.6-.5.8-.8.3-.7-.8-1.5-1.4-.8zm-10.3-40.1c-2.3.1-4.6 0-6.8-.2-1.7-.1-3.4.1-5.1.3-.5.1-.9.1-1.4.2-.5 0-1 .2-1.2.6-.5.8.1 1.8 1 1.8 3-.5 6.1-.4 9.2-.3 1.6 0 3.2-.1 4.8-.2.6-.1 1.2 0 1.7-.2.4-.1.7-.6.7-1-.2-1.4-1.9-1-2.9-1zm24.8 64.4c-.3 0-.5.1-.7.3-.1.1-.3.2-.4.3-.5.4-1.9.6-2.1.7-1.6.2-3.2.1-4.9.1-1.7 0-3.5-.1-5.2-.3-4.8 0-9.5-.2-14.3.3-3.8.3-7.6.1-11.4.2-1.7.1-3.3.1-5 .1-2.3.1-4.7.4-7 .7-1.5.3-5.8.5-8.7.2-1.8-.2-.6 0-2.2-.3-.7-.2-.6-.1-1.5-.8-.3-.3-.6-.6-1.1-.5-1 0-1.6 1.3-.8 2 .9.8 2 1.5 3.1 1.9 1.1.3 2.2.4 3.3.6 4.4.5 8.8-.2 13.2-.4 4.8-.3 9.7-.1 14.5-.5 3.2-.2 6.4-.6 9.5-.7 2.4-.1 4.8 0 7.2-.1l6.3-.3c2.7 0 4.3 0 6.5-.5.6-.2 1.2-.5 1.8-.9.3-.2.6-.4.8-.8.3-.6-.2-1.4-.9-1.3z" fill="#000"/><g clip-path="url(#clip0_211_259)"><path d="M320 107.406s21-19.545 21-34.375c0-5.47-2.212-10.716-6.151-14.584-3.938-3.868-9.279-6.04-14.849-6.04s-10.911 2.172-14.849 6.04C301.212 62.315 299 67.561 299 73.031c0 14.83 21 34.375 21 34.375zm0-24.062a10.6 10.6 0 01-7.425-3.02 10.22 10.22 0 01-3.075-7.293 10.22 10.22 0 013.075-7.292A10.6 10.6 0 01320 62.72a10.6 10.6 0 017.425 3.02 10.22 10.22 0 013.075 7.292 10.22 10.22 0 01-3.075 7.292 10.6 10.6 0 01-7.425 3.02z" fill="#E0FF23"/></g><defs><clipPath id="clip0_211_259"><path fill="#fff" transform="translate(292 52.406)" d="M0 0h56v55H0z"/></clipPath></defs></svg>