<svg width="371" height="336" viewBox="0 0 371 336" fill="none" xmlns="http://www.w3.org/2000/svg">
<g clip-path="url(#clip0_130_6803)">
<path d="M255.888 149.998C257.782 150.403 260.512 150.976 260.292 152.168C260.18 153.327 258.612 153.089 256.421 152.961C255.082 152.877 254.503 152.758 253.822 152.672C253.609 152.648 253.403 152.577 253.219 152.465C253.036 152.354 252.878 152.204 252.757 152.026C252.636 151.848 252.555 151.647 252.52 151.435C252.484 151.223 252.494 151.005 252.549 150.798C253.608 146.219 255.063 141.742 256.899 137.416C257.119 137.002 258.951 133.451 260.186 134.083C261.686 134.936 258.797 138.776 255.888 149.998Z" fill="#181D22"/>
<path d="M269.147 134.728C272.754 133.371 275.198 137.405 276.462 136.422C277.541 135.682 276.095 131.875 271.373 131.397C266.791 130.935 264.622 134.962 265.868 135.836C266.529 136.31 266.54 135.94 269.147 134.728Z" fill="#181D22"/>
<path d="M254.831 160.194C255.031 162.034 255.533 163.83 256.315 165.508C256.81 166.452 257.521 167.265 258.389 167.883C259.258 168.501 260.259 168.905 261.313 169.063C262.367 169.221 263.443 169.127 264.454 168.791C265.465 168.455 266.383 167.884 267.132 167.127C268.323 165.752 269.191 164.129 269.674 162.376C270.157 160.622 270.241 158.783 269.922 156.993C264.802 157.74 259.852 159.031 254.831 160.194Z" fill="#57E697"/>
<path d="M268.881 156.083C268.922 155.876 269.034 155.689 269.196 155.555C269.359 155.42 269.563 155.345 269.774 155.343C269.986 155.341 270.191 155.412 270.356 155.543C270.522 155.675 270.637 155.859 270.682 156.065C272.959 163.424 268.661 171.602 261.085 170.584C257.016 170.04 254.906 167.209 253.873 163.314C253.595 162.354 253.4 161.372 253.292 160.379C253.252 160.006 253.348 159.632 253.562 159.325C253.776 159.017 254.094 158.797 254.457 158.705C259.18 157.415 264.006 156.538 268.881 156.083ZM268.987 158.224C265.507 159.064 265.992 159.106 256.578 161.348C256.641 161.74 256.73 162.127 256.844 162.507C257.522 165.109 258.661 167.149 261.51 167.539C266.353 168.211 268.764 163.049 268.987 158.224Z" fill="#181D22"/>
<path d="M160.881 282.087C153.766 279.926 145.398 283.288 145.398 290.679C145.248 290.773 145.126 290.905 145.045 291.063C144.964 291.22 144.927 291.397 144.937 291.573C144.948 291.75 145.007 291.921 145.106 292.067C145.206 292.213 145.343 292.33 145.504 292.404C147.475 293.674 149.839 294.188 152.159 293.85C154.479 293.512 156.598 292.345 158.124 290.565C159.695 288.655 160.948 286.504 161.835 284.196C161.922 283.996 161.967 283.78 161.965 283.562C161.964 283.343 161.917 283.128 161.827 282.929C161.737 282.731 161.607 282.553 161.444 282.408C161.281 282.263 161.089 282.154 160.881 282.087Z" fill="#57E697"/>
<path d="M150.555 300.336C150.447 300.188 150.303 300.071 150.135 299.996C149.968 299.922 149.784 299.893 149.602 299.913C149.478 299.859 149.345 299.833 149.21 299.837C149.076 299.84 148.944 299.872 148.823 299.931C148.702 299.99 148.595 300.074 148.51 300.178C148.425 300.282 148.363 300.404 148.329 300.534C147.926 301.681 147.089 302.624 145.997 303.158C145.182 303.641 144.218 303.807 143.289 303.624C142.359 303.441 141.53 302.922 140.959 302.166C140.388 301.409 140.116 300.469 140.194 299.525C140.273 298.581 140.696 297.698 141.383 297.046C141.662 296.821 141.964 296.626 142.284 296.465C142.567 296.318 142.796 296.085 142.938 295.8C143.081 295.516 143.13 295.193 143.079 294.879C142.753 292.911 139.699 293.596 137.884 293.947C129.646 295.656 124.713 306.91 130.3 314.215C131.463 315.643 132.93 316.792 134.595 317.578C136.26 318.365 138.079 318.768 139.92 318.76C141.761 318.751 143.577 318.33 145.234 317.527C146.891 316.725 148.347 315.561 149.496 314.122C151.193 312.276 152.22 309.913 152.412 307.413C152.604 304.912 151.95 302.419 150.555 300.336Z" fill="#57E697"/>
<path d="M186.552 93.6573C185.893 93.3383 185.327 92.855 184.909 92.2539C184.605 91.8108 184.433 91.2901 184.414 90.7528C184.395 90.2155 184.529 89.6839 184.801 89.2203C185.119 88.6804 185.548 88.2144 186.06 87.8535C186.572 87.4926 187.155 87.2451 187.77 87.1274C187.825 87.1274 187.825 87.1142 187.825 87.1142V87.1979C191.635 86.1336 195.625 85.871 199.542 86.4268C200.114 86.538 200.647 86.7944 201.091 87.1713C201.535 87.5482 201.874 88.0331 202.076 88.5792C202.279 89.1252 202.337 89.7142 202.246 90.2895C202.155 90.8648 201.918 91.407 201.557 91.864C202.137 92.5824 202.438 93.4859 202.405 94.4085C202.039 99.3214 194.46 99.8875 189.84 98.5371C189.303 98.4334 188.792 98.2248 188.336 97.9232C187.881 97.6217 187.489 97.2331 187.183 96.7798C186.878 96.3265 186.665 95.8173 186.557 95.2815C186.448 94.7457 186.447 94.1937 186.552 93.6573ZM188.195 89.0088C188.195 89.2996 188.214 88.7643 187.188 89.7997C186.338 90.8638 187.893 91.3132 189.256 91.3242C189.576 91.3399 189.882 91.4582 190.13 91.6617C190.377 91.8651 190.552 92.1429 190.63 92.4538C190.707 92.7647 190.682 93.0923 190.559 93.388C190.436 93.6837 190.221 93.9319 189.945 94.0957C189.573 94.3028 189.309 94.4614 189.415 94.7015C190.106 96.5874 199.047 96.6667 199.324 94.2609C199.324 93.8754 199.005 93.5559 198.527 93.3533C198.247 93.2357 198.008 93.038 197.84 92.785C197.672 92.532 197.582 92.235 197.582 91.9312C197.582 91.6273 197.672 91.3303 197.84 91.0773C198.008 90.8243 198.247 90.6266 198.527 90.5091C198.899 90.3527 199.219 90.0685 199.219 89.7512C199.225 88.6497 189.573 88.9714 188.195 89.0044V89.0088Z" fill="#181D22"/>
<path d="M190.513 102.894C190.712 103.178 190.944 103.437 191.205 103.665C193.025 104.418 195.054 104.501 196.93 103.901C197.371 103.707 197.782 103.45 198.15 103.139C198.282 103.111 198.407 103.058 198.517 102.981C198.628 102.905 198.722 102.807 198.794 102.693C198.866 102.579 198.914 102.452 198.935 102.319C198.957 102.186 198.951 102.05 198.919 101.92C198.887 101.789 198.829 101.666 198.748 101.559C198.667 101.451 198.566 101.361 198.449 101.293C198.333 101.226 198.204 101.183 198.07 101.166C197.937 101.15 197.801 101.161 197.672 101.198C197.21 101.052 196.725 100.989 196.241 101.01C195.101 101.19 193.944 101.233 192.794 101.138C191.955 101.006 191.759 101.273 191.363 101.273C191.142 101.16 190.886 101.137 190.649 101.208C190.412 101.28 190.211 101.442 190.09 101.658C189.983 101.878 189.967 102.132 190.046 102.364C190.126 102.595 190.293 102.786 190.513 102.894Z" fill="#181D22"/>
<path d="M183.782 85.9613C181.351 83.9868 179.545 81.3487 178.585 78.3673C177.697 75.9208 177.37 73.3059 177.629 70.7161C177.85 68.6057 178.508 66.5647 179.562 64.7231C180.615 62.8816 182.041 61.28 183.748 60.0207C185.455 58.7613 187.406 57.8718 189.476 57.409C191.546 56.9461 193.689 56.92 195.77 57.3324C199.174 58.1495 202.206 60.087 204.378 62.834C206.55 65.581 207.736 68.9783 207.747 72.4807C207.604 75.3539 206.586 78.1144 204.83 80.392C203.854 81.7886 202.715 83.063 201.436 84.1878C201.246 84.3604 201.13 84.5997 201.112 84.8558C201.094 85.1119 201.176 85.365 201.34 85.5623C201.505 85.7596 201.739 85.8858 201.994 85.9146C202.249 85.9433 202.505 85.8725 202.709 85.7168C206.992 82.3263 210.355 78.0435 210.716 72.6328C210.782 68.4032 209.397 64.2788 206.792 60.9464C204.188 57.6141 200.521 55.2749 196.402 54.3187C192.243 53.4746 187.921 54.1066 184.178 56.1059C180.434 58.1052 177.504 61.3469 175.892 65.2735C174.279 69.2 174.084 73.566 175.341 77.6207C176.597 81.6754 179.227 85.1653 182.777 87.4902C182.98 87.606 183.219 87.6402 183.445 87.5859C183.672 87.5316 183.87 87.3928 183.998 87.1979C184.126 87.003 184.175 86.7665 184.134 86.5368C184.094 86.307 183.968 86.1012 183.782 85.9613Z" fill="#181D22"/>
<path d="M192.37 71.0596L199.157 65.9463C199.404 65.7626 199.7 65.6571 200.007 65.6432C200.314 65.6293 200.619 65.7077 200.881 65.8683C201.144 66.029 201.352 66.2645 201.479 66.5446C201.607 66.8246 201.648 67.1365 201.597 67.44C199.899 76.7259 201.418 69.4866 198.681 82.1543C198.665 82.2836 198.623 82.4083 198.558 82.5212C198.493 82.634 198.406 82.7326 198.302 82.8113C198.198 82.8899 198.079 82.947 197.953 82.979C197.827 83.0111 197.696 83.0176 197.567 82.998C197.434 82.9854 197.306 82.9451 197.189 82.88C197.073 82.8148 196.972 82.7261 196.892 82.6195C196.812 82.513 196.755 82.3909 196.725 82.2611C196.695 82.1313 196.692 81.9966 196.717 81.8657C196.922 78.129 197.329 74.4063 197.937 70.7137L193.431 74.1043C193.194 74.2932 192.905 74.4069 192.603 74.4309C192.3 74.4548 191.998 74.3879 191.733 74.2386C190.449 73.5491 189.188 72.8441 187.917 72.1391C189.122 79.1493 188.434 74.0866 189.771 83.2183C189.824 83.4554 189.781 83.7035 189.652 83.9094C189.524 84.1154 189.32 84.2627 189.084 84.3199C188.845 84.3718 188.594 84.3284 188.386 84.1988C188.178 84.0693 188.029 83.8638 187.97 83.6259C186.235 79.0495 185.042 74.2856 184.416 69.4315C184.38 69.1496 184.425 68.8634 184.544 68.6056C184.664 68.3477 184.853 68.1287 185.091 67.9734C185.329 67.8181 185.606 67.7329 185.89 67.7274C186.173 67.7219 186.453 67.7963 186.697 67.9423C188.32 68.9006 189.8 69.6937 192.37 71.0596Z" fill="#57E697"/>
<path d="M160.769 81.7976C162.625 81.5883 164.479 81.4011 166.336 81.0971C167.452 80.9076 169.679 80.3745 169.571 79.2399C169.201 77.3232 163.451 78.3432 161.511 78.612C160.201 78.786 155.92 79.3544 156.261 80.9539C156.391 82.1744 159.555 81.932 160.769 81.7976Z" fill="#57E697"/>
<path d="M170.152 60.4171C170.491 60.6198 172.178 61.056 172.698 60.3048C173.383 59.124 171.639 57.7625 170.472 57.0443C166.389 54.5438 164.237 57.595 170.152 60.4171Z" fill="#57E697"/>
<path d="M189.084 43.8722C189.305 45.4143 189.635 51.7592 191.522 51.5256C193.409 51.2921 192.288 44.4075 192 42.1428C191.839 40.8826 191.317 35.6988 189.613 35.9566C187.908 36.2143 188.84 42.1053 189.084 43.8722Z" fill="#57E697"/>
<path d="M215.966 54.0234C217.067 53.1422 220.37 50.6792 219.251 49.408C218.58 48.5092 216.732 49.679 215.752 50.3355C213.933 51.6133 207.705 55.9137 209.126 57.6056C210.205 58.8834 214.466 55.2087 215.966 54.0234Z" fill="#57E697"/>
<path d="M225.774 73.3624C227.261 73.1994 231.059 72.8139 230.918 71.3114C230.729 69.3661 223.554 70.472 221.216 70.776C220.056 70.8814 218.904 71.0669 217.769 71.3312C217.137 71.5097 214.631 72.3138 214.852 73.3382C215.193 74.9398 219.905 74.0454 225.774 73.3624Z" fill="#57E697"/>
<path d="M246.293 303.127C246.669 301.956 247.11 300.808 247.614 299.688C248.481 297.092 250.106 294.816 252.281 293.156C253.324 292.532 254.489 292.141 255.696 292.009C256.904 291.877 258.126 292.007 259.279 292.391C259.521 292.513 259.801 292.534 260.059 292.452C260.317 292.37 260.533 292.19 260.66 291.95C260.773 291.709 260.786 291.432 260.696 291.18C260.607 290.929 260.422 290.723 260.182 290.607C252.805 285.22 243.569 294.554 244.487 302.975C244.477 303.093 244.491 303.213 244.527 303.326C244.563 303.439 244.621 303.545 244.698 303.636C244.775 303.727 244.869 303.801 244.974 303.856C245.08 303.911 245.196 303.944 245.314 303.954C245.433 303.964 245.552 303.95 245.665 303.914C245.779 303.878 245.884 303.82 245.975 303.743C246.066 303.666 246.141 303.572 246.195 303.466C246.25 303.361 246.283 303.245 246.293 303.127Z" fill="#181D22"/>
<path d="M255.945 308.355C256.251 307.416 257.277 305.026 257.374 304.805C257.998 302.665 259.06 300.678 260.494 298.971C261.927 297.264 263.701 295.875 265.701 294.892C266.662 294.454 267.678 294.149 268.722 293.986C268.987 293.993 269.243 293.895 269.435 293.712C269.627 293.53 269.739 293.279 269.746 293.015C269.753 292.75 269.655 292.493 269.472 292.301C269.29 292.109 269.039 291.997 268.775 291.99C267.108 291.714 265.399 291.872 263.811 292.448C262.224 293.024 260.811 293.999 259.709 295.279C257.942 296.913 256.535 298.896 255.577 301.103C254.618 303.31 254.129 305.693 254.142 308.099C254.119 308.22 254.121 308.344 254.148 308.465C254.174 308.585 254.225 308.699 254.297 308.799C254.369 308.899 254.46 308.983 254.565 309.047C254.671 309.111 254.788 309.153 254.91 309.17C255.032 309.187 255.156 309.18 255.275 309.148C255.394 309.116 255.505 309.06 255.602 308.984C255.698 308.907 255.779 308.812 255.838 308.704C255.897 308.596 255.933 308.477 255.945 308.355Z" fill="#181D22"/>
<path d="M266.124 309.658C266.333 309.249 267.271 307.779 267.445 307.515C268.907 304.822 270.828 302.405 273.12 300.373C275.079 298.914 277.417 298.05 279.854 297.885C280.117 297.924 280.385 297.86 280.602 297.707C280.819 297.553 280.968 297.322 281.019 297.061C281.047 296.799 280.975 296.535 280.818 296.322C280.661 296.11 280.43 295.964 280.171 295.914C279.317 295.638 278.426 295.49 277.529 295.473C272.827 295.352 265.274 301.536 264.38 309.092C264.342 309.206 264.328 309.327 264.337 309.446C264.346 309.566 264.378 309.683 264.432 309.79C264.487 309.897 264.561 309.992 264.653 310.07C264.744 310.148 264.849 310.207 264.963 310.245C265.195 310.317 265.446 310.296 265.662 310.187C265.879 310.077 266.044 309.888 266.124 309.658Z" fill="#181D22"/>
<path d="M277.101 314.926C278.682 312.43 280.492 310.086 282.507 307.925C283.649 306.649 285.073 305.657 286.666 305.029C288.259 304.401 289.976 304.154 291.681 304.308C296.279 304.365 305.498 306.762 314.958 303.426C318.389 302.276 321.398 300.129 323.601 297.258C323.758 297.046 323.828 296.784 323.799 296.522C323.769 296.261 323.641 296.021 323.441 295.85C323.342 295.766 323.228 295.703 323.104 295.665C322.981 295.627 322.851 295.613 322.722 295.626C322.593 295.639 322.468 295.678 322.355 295.74C322.242 295.803 322.142 295.887 322.062 295.989C319.176 298.674 315.593 300.492 311.723 301.234C294.811 305.098 284.69 293.215 275.509 314.058C275.452 314.163 275.416 314.278 275.404 314.396C275.391 314.515 275.402 314.634 275.435 314.749C275.469 314.863 275.525 314.969 275.6 315.062C275.674 315.155 275.767 315.232 275.871 315.289C275.976 315.346 276.091 315.382 276.209 315.394C276.327 315.407 276.447 315.396 276.561 315.362C276.675 315.329 276.782 315.273 276.874 315.198C276.967 315.123 277.044 315.031 277.101 314.926Z" fill="#181D22"/>
<path d="M275.721 270.737C277.592 271.702 279.352 272.868 280.97 274.216C282.038 274.877 283.393 276.02 284.258 275.209C284.967 274.451 283.487 272.59 283.305 272.363C281.767 270.76 279.953 269.449 277.949 268.492C276.661 267.922 274.265 267.45 273.919 268.492C273.725 269.098 273.917 269.481 275.721 270.737Z" fill="#181D22"/>
<path d="M285.053 265.47C288.544 269.51 289.849 273.711 291.417 272.98C293.668 272.035 289.435 265.681 287.493 263.679C286.421 262.577 284.243 261.141 283.516 262.02C282.919 262.749 284.388 264.809 285.053 265.47Z" fill="#181D22"/>
<path d="M273.23 242.879C277.414 243.54 277.311 243.238 285.637 242.635C288.945 242.715 292.252 242.43 295.498 241.784C295.745 241.744 295.968 241.612 296.122 241.415C296.276 241.217 296.351 240.969 296.331 240.72C296.311 240.47 296.198 240.237 296.014 240.067C295.831 239.897 295.59 239.802 295.34 239.802C292.051 239.417 288.733 239.338 285.43 239.568C281.306 239.624 277.199 240.123 273.182 241.057C272.941 241.068 272.713 241.17 272.545 241.344C272.377 241.517 272.282 241.748 272.279 241.989C272.282 242.11 272.309 242.23 272.358 242.341C272.408 242.452 272.479 242.551 272.568 242.634C272.656 242.717 272.76 242.781 272.874 242.824C272.988 242.866 273.109 242.885 273.23 242.879Z" fill="#181D22"/>
<path d="M236.804 324.003C236.801 327.955 237.137 331.901 237.811 335.796C238.454 337.891 238.434 338.801 239.506 338.717C239.769 338.693 240.011 338.565 240.18 338.363C240.349 338.161 240.431 337.9 240.409 337.638C240.647 334.54 240.85 337.287 240.09 329.074C239.737 325.274 239.759 320.465 238.233 320.421C237.17 320.39 236.804 323.395 236.804 324.003Z" fill="#181D22"/>
<path d="M269.88 145.797C270.552 145.84 271.219 145.511 271.736 144.883C272.252 144.255 272.575 143.379 272.634 142.449C272.693 141.518 272.483 140.608 272.05 139.92C271.617 139.232 270.996 138.822 270.325 138.779C269.653 138.736 268.986 139.065 268.47 139.693C267.953 140.321 267.63 141.197 267.571 142.128C267.512 143.058 267.722 143.968 268.155 144.656C268.588 145.344 269.209 145.755 269.88 145.797Z" fill="#181D22"/>
<path d="M249.458 238.565C249.458 238.983 249.53 239.396 249.669 239.781C249.809 240.167 250.013 240.517 250.271 240.812C250.528 241.107 250.834 241.341 251.171 241.501C251.508 241.66 251.868 241.742 252.233 241.742C252.597 241.742 252.958 241.66 253.295 241.501C253.631 241.341 253.937 241.107 254.195 240.812C254.452 240.517 254.657 240.167 254.796 239.781C254.936 239.396 255.007 238.983 255.007 238.565C255.007 238.148 254.936 237.735 254.796 237.35C254.657 236.964 254.452 236.614 254.195 236.319C253.937 236.024 253.631 235.79 253.295 235.63C252.958 235.471 252.597 235.389 252.233 235.389C251.868 235.389 251.508 235.471 251.171 235.63C250.834 235.79 250.528 236.024 250.271 236.319C250.013 236.614 249.809 236.964 249.669 237.35C249.53 237.735 249.458 238.148 249.458 238.565Z" fill="#181D22"/>
<path d="M246.965 265.275C246.965 266.118 247.257 266.926 247.778 267.522C248.298 268.118 249.004 268.452 249.74 268.452C250.475 268.452 251.181 268.118 251.702 267.522C252.222 266.926 252.514 266.118 252.514 265.275C252.514 264.433 252.222 263.625 251.702 263.029C251.181 262.433 250.475 262.099 249.74 262.099C249.004 262.099 248.298 262.433 247.778 263.029C247.257 263.625 246.965 264.433 246.965 265.275Z" fill="#181D22"/>
<path d="M104.419 75.7263L103.905 75.7118V75.7633C103.883 75.7642 103.859 75.7651 103.834 75.7659C103.476 75.7784 102.946 75.7904 102.26 75.802C100.891 75.8252 98.9123 75.8467 96.4809 75.8672C91.6186 75.9082 84.95 75.9452 77.7249 75.9841L76.0236 75.9933C61.9869 76.0689 46.2543 76.1535 37.7101 76.2901C34.9379 76.3325 32.1813 76.4315 29.4357 76.5301C22.5736 76.7765 15.78 77.0205 8.98147 76.3723C8.72534 76.34 8.4913 76.2104 8.32789 76.0101C8.16387 75.8091 8.08375 75.5525 8.10422 75.2938C9.05477 65.2395 12.7048 55.6294 18.6679 47.4805L18.6681 47.4806L18.6748 47.4709C20.8411 44.3584 22.9986 41.5851 25.0309 38.9727C25.5203 38.3436 26.0024 37.7239 26.4756 37.1111C28.9085 33.9603 31.1077 30.9887 32.8089 27.896C36.2318 21.6732 37.6217 14.9863 35.0254 5.33806L35.0255 5.33805L35.0239 5.33239C34.9862 5.19862 34.9756 5.05866 34.9928 4.92075C35.01 4.78283 35.0545 4.64975 35.1239 4.52934C35.1932 4.40893 35.2859 4.30362 35.3965 4.2196C35.5067 4.13588 35.6324 4.07497 35.7664 4.04043C38.9594 3.24489 45.2579 2.60191 53.1762 2.09797C61.0796 1.59499 70.552 1.23279 80.0614 0.988884C99.0842 0.500972 118.23 0.487023 125.233 0.763946V0.763979L125.239 0.76414C125.401 0.768692 125.56 0.814178 125.7 0.8964C125.841 0.978628 125.958 1.09495 126.042 1.23461L126.049 1.24758L126.058 1.26005C129.247 5.93118 131.28 11.294 131.989 16.9059C132.699 22.517 132.065 28.2164 130.139 33.5341C127.547 40.4424 122.979 46.386 118.287 52.4898C117.96 52.9146 117.633 53.3401 117.306 53.7668C112.297 60.3025 107.308 67.0946 104.783 75.4201L104.719 75.6322C104.715 75.6352 104.711 75.6381 104.707 75.6409C104.623 75.6993 104.522 75.7292 104.419 75.7263ZM104.299 75.7413C104.299 75.7414 104.299 75.7414 104.298 75.7414L104.299 75.7413ZM80.8125 4.02056C98.3392 3.54744 115.964 3.47261 124.064 3.73396C125.858 6.60801 127.219 9.7323 128.099 13.0055C131.545 26.094 127.171 35.4116 120.989 44.4507C119.549 46.5561 118.015 48.6415 116.458 50.7578C116.341 50.917 116.223 51.0763 116.106 51.2359C114.43 53.5139 112.736 55.8301 111.126 58.232C107.97 62.9389 105.125 67.9915 103.344 73.7883C97.3201 73.7051 44.8843 73.2361 37.6452 73.3027C34.8253 73.3289 31.9696 73.4264 29.0995 73.5243C23.1602 73.727 17.1592 73.9318 11.2863 73.5115C12.5843 64.7433 15.9632 56.4108 21.1433 49.2134L21.1433 49.2134L21.1478 49.2069C23.1563 46.3208 25.2199 43.6695 27.2121 41.1099C27.7336 40.44 28.2501 39.7763 28.7595 39.1164C31.2095 35.9423 33.4917 32.8567 35.3112 29.6125C38.9018 23.2106 40.6815 16.204 38.5209 6.64158C46.2974 5.34499 63.4772 4.48852 80.8125 4.02056ZM123.841 1.51718V2.72647C115.602 2.47377 98.1367 2.55254 80.7855 3.02093C63.077 3.49896 45.4251 4.38398 37.8258 5.74691L37.305 5.84033L37.4277 6.35507C39.7077 15.9134 37.9849 22.801 34.439 29.1234C32.6581 32.2989 30.4149 35.3351 27.9679 38.5053C27.4635 39.1589 26.9503 39.8182 26.4309 40.4854C24.4376 43.0464 22.3539 45.7234 20.3293 48.6325C14.9517 56.1056 11.4813 64.7803 10.2202 73.9017L10.1476 74.4273L10.6766 74.4686C16.7748 74.9455 23.0567 74.7315 29.2057 74.522C32.0612 74.4247 34.888 74.3284 37.6545 74.3027C45.0711 74.2345 100.104 74.7301 103.705 74.7939L104.085 74.8007L104.193 74.4368C105.925 68.6217 108.764 63.551 111.956 58.7889C113.553 56.4072 115.235 54.1071 116.911 51.8284C117.029 51.6679 117.148 51.5075 117.265 51.3472C118.82 49.2342 120.365 47.1354 121.815 45.0152C128.065 35.8754 132.62 26.2492 129.066 12.7496L129.065 12.747C128.135 9.28818 126.684 5.99092 124.763 2.96811L123.841 1.51718Z" stroke="#57E697"/>
<path d="M117.754 195.597L118.28 195.624C118.354 195.628 118.427 195.612 118.492 195.578C118.558 195.545 118.613 195.494 118.652 195.431C118.691 195.369 118.713 195.297 118.716 195.224C118.716 195.219 118.716 195.214 118.716 195.21L118.609 195.009C114.074 186.539 111.745 175.977 109.606 166.278C109.315 164.957 109.027 163.652 108.738 162.37C104.405 143.185 100.033 116.317 104.228 96.8991M117.754 195.597L104.718 97.0011M117.754 195.597V195.671M117.754 195.597V195.671M104.228 96.8991C104.229 96.8979 104.229 96.8967 104.229 96.8955L104.718 97.0011M104.228 96.8991C104.228 96.8999 104.228 96.9007 104.228 96.9016L104.718 97.0011M104.228 96.8991C104.257 96.757 104.254 96.6105 104.22 96.4697C104.186 96.328 104.121 96.1956 104.03 96.0818C103.939 95.9679 103.825 95.8754 103.694 95.8108C103.565 95.7466 103.423 95.7114 103.278 95.7077M104.718 97.0011C104.761 96.7866 104.757 96.5652 104.706 96.3525C104.655 96.1398 104.558 95.9409 104.421 95.7699C104.285 95.5989 104.112 95.4599 103.916 95.3628C103.72 95.2657 103.505 95.2128 103.287 95.2078M103.278 95.7077C103.279 95.7077 103.28 95.7077 103.282 95.7078L103.287 95.2078M103.278 95.7077C93.2597 95.6088 53.305 96.0118 43.3316 96.2386M103.278 95.7077C103.277 95.7077 103.276 95.7077 103.275 95.7077L103.287 95.2078M103.287 95.2078L43.3316 96.2386M43.3316 96.2386C40.2502 96.3091 37.1402 96.4138 34.0145 96.5191C23.6873 96.8669 13.1884 97.2205 2.98181 96.3628C2.71745 96.3436 2.45567 96.426 2.24985 96.5932C2.04361 96.7608 1.90915 97.001 1.87407 97.2646C-2.69137 132.292 4.44765 165.612 19.5464 198.369L19.5479 198.372C19.6329 198.56 19.7737 198.717 19.951 198.822C20.1284 198.928 20.3337 198.976 20.5393 198.961L20.5396 198.961C37.5773 197.698 62.0083 196.939 82.1713 196.457C90.7927 196.251 98.6363 196.096 104.79 195.975C105.834 195.954 106.828 195.934 107.77 195.916C111.019 195.851 113.636 195.797 115.441 195.749C116.343 195.725 117.04 195.703 117.51 195.683C117.601 195.679 117.682 195.675 117.754 195.671M43.3316 96.2386L117.754 195.671M100.85 98.7147C93.8967 98.7029 66.978 99.1705 45.7376 99.5395C32.8815 99.7628 22.1056 99.95 19.0961 99.9729H19.0961C14.2638 100.009 9.48004 99.9215 4.68489 99.591C0.719254 132.86 7.68773 164.915 21.6837 195.85C48.5952 194.02 88.8824 193.634 115.839 193.703C111.555 185.1 109.514 176.474 107.257 166.937C106.946 165.624 106.631 164.295 106.306 162.946M100.85 98.7147L106.306 162.946M100.85 98.7147C97.5886 119.404 101.403 142.612 106.306 162.946M100.85 98.7147L106.306 162.946M101.93 98.2983L102.025 97.7215L101.44 97.7172C95.5537 97.6741 67.5533 98.1604 45.6449 98.5409C32.8164 98.7637 22.0767 98.9502 19.0886 98.9729C14.1136 99.0103 9.20149 98.9157 4.28157 98.56L3.80697 98.5257L3.74922 98.9981C-0.380262 132.773 6.7018 165.275 20.9163 196.579L21.0597 196.895L21.4058 196.871C48.5497 195.005 89.584 194.626 116.652 194.705L117.473 194.707L117.098 193.977C112.619 185.247 110.555 176.526 108.23 166.708C107.92 165.396 107.605 164.065 107.278 162.712L107.278 162.712C102.336 142.214 98.5382 118.926 101.93 98.2983Z" stroke="#57E697"/>
<path d="M183.462 253.132C176.82 241.721 172.524 224.466 157.534 220.91C155.597 220.465 153.586 220.453 151.643 220.873C148.624 220.578 148.397 220.432 130.386 221.516C126.735 221.754 123.599 221.957 123.599 223.124C123.599 224.338 126.167 224.409 128.796 224.504C131.937 224.607 141.692 223.992 144.788 223.792C136.262 229.154 131.575 238.599 121.267 224.997C119.42 222.407 117.738 219.702 116.231 216.901C116.091 216.648 115.882 216.44 115.628 216.303C115.374 216.165 115.085 216.104 114.797 216.125C92.9389 217.872 79.8406 220.752 54.3509 220.86C27.1678 220.968 26.9718 219.928 26.1438 221.468C26.009 221.708 25.9427 221.982 25.952 222.257C25.9614 222.533 26.0459 222.801 26.1966 223.032C32.2657 232.532 37.2227 238.086 50.6954 240.143C57.9272 241.245 66.5639 241.002 85.1632 240.187C87.1797 241.599 88.9668 243.313 90.4615 245.27C91.8867 247.474 92.9935 249.869 93.7493 252.383C94.3923 254.412 94.5575 254.307 95.0199 255.659C95.0715 255.918 95.2233 256.145 95.4421 256.292C95.6608 256.438 95.9287 256.492 96.1871 256.441C96.4467 256.388 96.675 256.235 96.8235 256.015C96.972 255.795 97.0289 255.526 96.982 255.265C96.9553 254.021 96.8138 252.782 96.5592 251.564C95.5753 247.041 93.1269 242.969 89.5939 239.98C91.1574 239.903 114.744 238.438 124.978 237.766C125.112 237.764 125.245 237.735 125.369 237.681C125.492 237.627 125.603 237.548 125.695 237.45C125.787 237.351 125.858 237.235 125.904 237.109C125.95 236.982 125.97 236.848 125.963 236.713C125.956 236.579 125.922 236.447 125.863 236.326C125.803 236.205 125.72 236.097 125.618 236.009C125.517 235.921 125.398 235.854 125.27 235.813C125.141 235.772 125.006 235.758 124.872 235.77C114.639 236.211 80.5453 237.533 73.7055 237.647C61.7611 237.911 47.3591 239.121 37.6499 232.054C34.7569 229.718 32.2829 226.906 30.3344 223.739C42.1885 223.81 54.069 224.18 65.9121 223.724C82.1242 223.096 97.9091 220.611 114.055 219.26C117.878 226.2 124.236 235.832 132.084 234.986C135.795 234.583 139.188 231.855 142.795 228.938C146.81 225.594 151.853 222.578 156.951 223.697C170.417 226.634 175.123 243.159 181.925 254.073C181.982 254.177 182.059 254.267 182.152 254.34C182.246 254.412 182.353 254.465 182.467 254.494C182.581 254.524 182.7 254.53 182.817 254.511C182.934 254.493 183.045 254.451 183.145 254.388C183.352 254.263 183.502 254.061 183.561 253.826C183.621 253.59 183.585 253.341 183.462 253.132Z" fill="#181D22"/>
<path d="M366.708 311.042C367.662 306.33 369.307 301.604 369.996 296.85C372.378 281.031 371.237 264.88 366.656 249.552C359.248 225.319 343.469 207.033 318.405 198.864C307.006 195.137 294.707 193.705 283.232 191.876C283.391 190.268 276.725 184.58 274.503 183.659C274.268 183.552 274.011 183.501 273.753 183.511C273.495 183.521 273.243 183.591 273.016 183.716C257.161 192.308 253.252 194.443 251.085 195.886C250.658 192.601 250.627 190.259 250.323 186.963C250.326 186.831 250.299 186.7 250.244 186.579C250.189 186.458 250.108 186.352 250.006 186.267C249.912 186.051 249.738 185.88 249.52 185.79C249.302 185.7 249.058 185.698 248.839 185.785C245.281 186.981 238.749 187.327 236.992 192.282C229.622 192.667 222.32 193.885 215.224 195.912C200.011 200.122 181.485 209.767 175.986 224.484C175.901 224.699 175.902 224.94 175.989 225.154C176.076 225.369 176.242 225.543 176.453 225.638C176.664 225.734 176.904 225.745 177.123 225.668C177.342 225.592 177.523 225.435 177.629 225.228C179.628 221.601 182.208 218.327 185.266 215.535C198.639 202.283 217.884 197.602 236.382 194.537C235.123 200.219 234.183 205.966 233.567 211.752C233.535 212.055 233.591 212.362 233.729 212.633C233.868 212.905 234.082 213.131 234.346 213.283C234.61 213.435 234.913 213.507 235.217 213.491C235.521 213.474 235.814 213.369 236.06 213.189C240.425 209.657 244.599 205.896 248.566 201.922C241.927 225.832 238.641 255.078 237.28 279.66C236.76 290.151 237.406 292.576 237.227 300.809C237.219 301.074 237.315 301.332 237.496 301.527C237.676 301.721 237.925 301.837 238.19 301.849C238.455 301.861 238.714 301.768 238.911 301.59C239.108 301.412 239.227 301.164 239.242 300.899C240.583 282.999 239.161 260.414 250.66 201.689C253.908 205.993 258.412 211.199 261.724 215.163C261.862 215.328 262.034 215.463 262.228 215.557C262.422 215.651 262.634 215.703 262.85 215.708C263.066 215.714 263.28 215.674 263.479 215.59C263.678 215.506 263.856 215.381 264.003 215.222C266.26 212.847 271.684 206.397 273.177 204.575C279.482 196.571 281.206 194.687 282.074 193.559C294.679 196.033 306.405 197.776 317.504 201.601C341.87 209.985 356.548 227.086 363.749 250.471C368.19 265.362 369.295 281.049 366.984 296.416C366.063 302.679 362.723 311.864 363.059 316.182C363.196 319.2 364.553 323.298 362.899 326.147C362.132 327.431 361.252 327.468 360.567 326.902C359.706 326.089 359.259 324.168 357.385 319.178C356.113 316.035 354.57 313.008 352.773 310.132C346.198 299.232 336.786 286.535 324.83 291.032C324.703 291.071 324.585 291.135 324.483 291.22C324.381 291.305 324.297 291.41 324.236 291.528C324.176 291.647 324.139 291.776 324.129 291.909C324.119 292.041 324.136 292.175 324.179 292.301C324.222 292.427 324.289 292.543 324.377 292.642C324.466 292.742 324.573 292.823 324.693 292.88C324.813 292.937 324.944 292.969 325.077 292.975C325.21 292.981 325.342 292.96 325.467 292.913C336.083 289.038 344.711 301.946 350.333 311.591C353.793 317.55 353.857 318.403 357.173 327.147C359.613 332.32 366.202 331.064 366.717 323.362C366.984 319.094 365.163 317.731 366.708 311.042ZM238.712 206.965C238.181 207.428 237.652 207.884 237.17 208.333C237.68 203.228 238.563 198.167 239.813 193.191C240.583 190.598 244.985 189.347 248.295 187.99C248.067 191.316 248.103 194.656 248.401 197.976C245.181 200.9 241.999 204.039 238.712 206.965ZM271.162 202.363C269.339 204.506 263.895 210.818 262.944 211.851C259.76 208.062 255.267 202.753 252.338 198.77C255.804 196.329 262.735 192.962 270.631 188.364C274.375 186.256 273.73 186.32 274.078 186.468C276.612 187.83 278.933 189.554 280.97 191.585C277.799 195.344 277.654 194.729 271.162 202.363Z" fill="#181D22"/>
<path d="M318.777 282.145C319.572 275.381 318.565 268.528 315.859 262.28C315.782 262.173 315.727 262.051 315.699 261.923C315.67 261.794 315.668 261.661 315.693 261.531C315.718 261.402 315.769 261.279 315.844 261.17C315.918 261.061 316.014 260.969 316.125 260.898C316.235 260.826 316.358 260.777 316.487 260.753C316.616 260.729 316.749 260.731 316.877 260.759C317.006 260.787 317.127 260.84 317.235 260.915C317.342 260.991 317.434 261.087 317.504 261.198C322.115 267.146 322.745 275.862 321.688 283.352C321.652 283.578 321.566 283.794 321.438 283.985C321.31 284.175 321.142 284.335 320.946 284.453C316.691 286.712 315.744 291.047 316.438 295.861C316.472 295.976 316.483 296.097 316.469 296.217C316.455 296.336 316.418 296.452 316.358 296.556C316.299 296.661 316.219 296.752 316.123 296.825C316.028 296.898 315.918 296.951 315.802 296.98C315.686 297.012 315.565 297.02 315.446 297.005C315.327 296.99 315.212 296.95 315.109 296.89C315.005 296.83 314.914 296.75 314.842 296.654C314.769 296.558 314.717 296.449 314.687 296.332C312.54 290.869 313.483 285.489 318.777 282.145Z" fill="#181D22"/>
<path d="M331.131 282.654C333.186 282.606 335.238 282.844 337.228 283.361C342.441 284.797 345.511 288.393 346.614 287.198C347.495 286.249 345.471 284.35 344.491 283.53C340.616 280.631 335.794 279.296 330.981 279.79C330.157 279.915 327.193 280.563 327.321 281.772C327.488 282.594 328.065 282.565 331.131 282.654Z" fill="#181D22"/>
<path d="M34.0978 54.3742C42.9746 55.3634 40.8584 54.7245 51.0124 55.4757C56.5772 55.8833 59.4268 56.8438 64.9035 56.0617C65.1735 56.0565 65.4307 55.9452 65.6194 55.7519C65.8082 55.5586 65.9133 55.2987 65.9121 55.0285C65.8878 54.7642 65.7653 54.5186 65.5687 54.3403C65.3722 54.1621 65.1159 54.0641 64.8506 54.0657C61.3404 53.8609 47.0133 50.7942 34.045 52.5566C33.804 52.5673 33.5762 52.6698 33.4084 52.8431C33.2405 53.0163 33.1452 53.2473 33.1421 53.4885C33.1455 53.6099 33.173 53.7293 33.2231 53.8399C33.2732 53.9504 33.3449 54.0498 33.4339 54.1323C33.5229 54.2148 33.6275 54.2787 33.7415 54.3202C33.8555 54.3617 33.9766 54.3801 34.0978 54.3742Z" fill="#57E697"/>
<path d="M29.3783 61.8645C31.8711 61.9526 34.3618 62.1311 36.8546 62.2522C37.7552 62.2941 77.4157 63.6578 78.2107 63.671C80.7563 63.7107 83.302 63.6358 85.8477 63.4287C85.9822 63.4303 86.1157 63.4048 86.2401 63.3536C86.3646 63.3024 86.4774 63.2266 86.5719 63.1308C86.6664 63.0349 86.7405 62.921 86.7899 62.7958C86.8393 62.6706 86.863 62.5367 86.8594 62.4021C86.8558 62.2675 86.8252 62.1351 86.7692 62.0126C86.7133 61.8902 86.6332 61.7804 86.5338 61.6896C86.4344 61.5989 86.3177 61.5292 86.1907 61.4847C86.0637 61.4401 85.9291 61.4217 85.7948 61.4305C83.1941 61.4305 80.5978 61.0626 78.0015 60.8158C67.3872 59.8487 42.4678 59.1768 36.1124 59.494C33.8332 59.6041 31.5518 59.8244 29.3255 60.0403C29.1982 60.0321 29.0706 60.0505 28.9509 60.0944C28.8311 60.1383 28.7219 60.2068 28.6301 60.2954C28.5383 60.384 28.4661 60.4907 28.4179 60.6089C28.3698 60.727 28.3468 60.8539 28.3505 60.9815C28.3542 61.109 28.3844 61.2343 28.4394 61.3495C28.4943 61.4647 28.5726 61.5671 28.6694 61.6502C28.7661 61.7333 28.8791 61.7953 29.0012 61.8322C29.1233 61.8691 29.2517 61.8801 29.3783 61.8645Z" fill="#57E697"/>
<path d="M17.3967 112.068C24.9192 112.051 59.7636 112.681 67.2927 112.269C69.6247 112.147 71.8511 111.929 74.1325 111.709C74.3971 111.702 74.648 111.59 74.8302 111.398C75.0123 111.206 75.1107 110.949 75.1037 110.685C75.0966 110.42 74.9848 110.169 74.7928 109.987C74.6008 109.805 74.3442 109.706 74.0797 109.713C73.8595 109.713 47.4338 108.99 34.3642 109.07C28.6325 108.97 22.9029 109.362 17.2382 110.242C17.0006 110.271 16.7824 110.388 16.6258 110.569C16.4692 110.75 16.3853 110.983 16.3904 111.222C16.4128 111.467 16.5311 111.694 16.7195 111.852C16.908 112.011 17.1514 112.088 17.3967 112.068Z" fill="#57E697"/>
<path d="M61.0874 133.065C69.5106 132.962 66.7139 132.752 73.5999 132.374C87.535 131.602 81.4065 132.2 87.2267 131.437C87.4919 131.429 87.744 131.32 87.9312 131.132C88.1184 130.944 88.2265 130.691 88.2331 130.426C88.2279 130.162 88.1196 129.911 87.9314 129.727C87.7433 129.542 87.4902 129.439 87.2267 129.439C81.926 128.793 76.5664 128.793 71.2657 129.439C67.6942 129.511 64.1545 130.126 60.7681 131.263C60.54 131.317 60.341 131.456 60.2121 131.651C60.0833 131.847 60.0342 132.085 60.0751 132.315C60.116 132.546 60.2437 132.753 60.432 132.892C60.6203 133.032 60.8548 133.094 61.0874 133.065Z" fill="#57E697"/>
<path d="M61.6599 143.47C63.2631 143.942 62.5408 144.028 67.1763 144.019C69.0289 144.259 70.9117 144.073 72.6816 143.475C72.9384 143.463 73.1806 143.352 73.358 143.166C73.5355 142.98 73.6345 142.733 73.6345 142.476C73.6345 142.219 73.5355 141.971 73.358 141.785C73.1806 141.599 72.9384 141.489 72.6816 141.477C71.938 141.201 71.157 141.039 70.365 140.996C67.998 140.866 65.6252 140.887 63.2609 141.058C62.6764 141.193 62.1075 141.388 61.563 141.64C61.3265 141.662 61.1074 141.773 60.9499 141.951C60.7925 142.129 60.7086 142.36 60.7152 142.598C60.7261 142.839 60.8314 143.065 61.0083 143.229C61.1852 143.392 61.4193 143.479 61.6599 143.47Z" fill="#57E697"/>
<path d="M23.2281 169.777C24.8885 169.912 27.3637 170.134 29.8037 170.158C34.7453 170.207 60.0808 168.951 61.2942 168.863C63.0955 168.728 64.8991 168.528 66.7555 168.387C67.0203 168.381 67.2727 168.274 67.4601 168.087C67.6476 167.9 67.7557 167.647 67.7619 167.382C67.7488 167.121 67.6382 166.874 67.4519 166.69C67.2656 166.506 67.0171 166.398 66.7555 166.389C64.5291 166.252 62.3512 166.08 60.1799 166.05C54.8507 165.975 29.9336 167.263 28.6894 167.371C26.833 167.528 25.0316 167.772 23.2281 167.949C22.9967 167.965 22.78 168.068 22.6217 168.238C22.4635 168.407 22.3755 168.631 22.3755 168.863C22.3755 169.095 22.4635 169.318 22.6217 169.488C22.78 169.658 22.9967 169.761 23.2281 169.777Z" fill="#57E697"/>
<path d="M27.0441 181.284C31.5519 181.689 29.429 181.676 39.9288 181.086C43.8644 181.024 47.7941 180.755 51.7014 180.279C51.8365 180.286 51.9715 180.264 52.0981 180.217C52.2248 180.17 52.3406 180.097 52.4385 180.004C52.5363 179.91 52.6142 179.798 52.6674 179.674C52.7206 179.549 52.7481 179.415 52.7481 179.28C52.7481 179.145 52.7206 179.011 52.6674 178.887C52.6142 178.762 52.5363 178.65 52.4385 178.557C52.3406 178.463 52.2248 178.391 52.0981 178.343C51.9715 178.296 51.8365 178.275 51.7014 178.281C50.3858 178.047 49.058 177.887 47.7243 177.803C45.1522 177.695 36.02 178.076 31.3405 178.605C29.8581 178.81 28.3879 179.094 26.9362 179.458C26.6954 179.474 26.4709 179.585 26.312 179.767C26.1531 179.949 26.0726 180.186 26.0884 180.427C26.108 180.665 26.218 180.886 26.3957 181.046C26.5735 181.205 26.8055 181.29 27.0441 181.284Z" fill="#57E697"/>
<path d="M110.397 247.907C111.866 247.801 115.537 247.658 117.131 247.552C140.947 245.977 140.498 247.277 152.603 245.514C152.867 245.486 153.11 245.361 153.286 245.164C153.462 244.966 153.559 244.71 153.557 244.446C153.53 244.176 153.398 243.927 153.19 243.754C152.981 243.581 152.713 243.497 152.443 243.52C149.045 243.52 149.157 243.36 143.59 243.452C124.084 243.778 118.338 243.919 110.08 246.096C109.84 246.138 109.627 246.274 109.487 246.473C109.347 246.673 109.292 246.92 109.334 247.16C109.376 247.4 109.511 247.614 109.711 247.754C109.91 247.894 110.157 247.949 110.397 247.907Z" fill="#57E697"/>
<path d="M118.563 256.188C122.568 256.203 126.571 255.967 130.547 255.483C134.239 255.416 137.922 255.106 141.573 254.555C141.708 254.562 141.843 254.541 141.97 254.493C142.097 254.446 142.212 254.373 142.31 254.28C142.408 254.187 142.486 254.074 142.539 253.95C142.592 253.826 142.62 253.692 142.62 253.556C142.62 253.421 142.592 253.287 142.539 253.163C142.486 253.038 142.408 252.926 142.31 252.833C142.212 252.739 142.097 252.667 141.97 252.619C141.843 252.572 141.708 252.551 141.573 252.557C137.694 251.952 133.747 251.911 129.856 252.436C127.7 252.581 123.454 252.982 121.69 253.357C120.539 253.625 119.406 253.966 118.299 254.379C118.055 254.415 117.835 254.545 117.686 254.741C117.537 254.937 117.471 255.183 117.502 255.428C117.549 255.666 117.685 255.876 117.882 256.017C118.079 256.158 118.323 256.219 118.563 256.188Z" fill="#57E697"/>
<path d="M53.0273 152.875C50.9339 144.442 49.549 135.849 48.8873 127.185C48.868 126.805 48.7025 126.447 48.4254 126.186C48.1484 125.926 47.7812 125.782 47.4009 125.786C41.0389 125.866 19.9359 126.209 15.6901 126.339C15.3039 126.353 14.937 126.512 14.6622 126.783C14.3873 127.055 14.2244 127.42 14.2059 127.806C14.0426 136.908 15.6856 145.951 19.0396 154.413C19.6518 155.997 21.5919 155.354 26.8351 155.391C29.165 155.391 31.5521 155.442 33.882 155.422C34.4039 155.422 46.2293 155.083 46.4496 155.069C48.3899 155.002 50.3138 154.688 52.1751 154.135C52.3191 154.12 52.458 154.073 52.5821 153.999C52.7062 153.924 52.8125 153.823 52.8937 153.703C52.9748 153.583 53.0288 153.447 53.0519 153.304C53.075 153.161 53.0666 153.015 53.0273 152.875ZM50.5323 151.553C45.1657 148.227 39.5855 144.587 34.4854 140.785C43.0737 132.565 41.9726 134.065 46.1038 129.637C46.8359 137.079 48.3196 144.428 50.5323 151.571V151.553ZM43.382 128.853C39.4061 131.995 35.6006 135.347 31.9815 138.894C26.0358 134.345 27.9428 135.55 19.1101 129.329C27.1523 129.1 35.8573 128.97 43.382 128.853ZM17.2801 130.836C19.2884 132.902 19.4007 133.019 29.7948 141.064C26.4974 144.209 23.6317 147.778 21.2726 151.677C18.8276 144.989 17.4772 137.951 17.2735 130.833L17.2801 130.836ZM23.7169 152.441C27.0201 148.645 29.6252 145.594 32.2722 142.968C37.1528 146.837 42.445 150.156 48.0527 152.864C47.2886 152.873 30.4158 152.313 23.7103 152.439L23.7169 152.441Z" fill="#57E697"/>
<path d="M119.356 16.2851C119.327 15.9137 119.157 15.5674 118.881 15.3172C118.605 15.067 118.244 14.9317 117.872 14.939C103.456 14.8861 57.4032 13.2867 49.8433 14.7187C49.5364 14.7767 49.2528 14.9224 49.0269 15.1382C48.801 15.3541 48.6425 15.6307 48.5704 15.9348C46.972 24.759 43.4016 33.1079 38.1257 40.358C37.9623 40.5826 37.8626 40.8472 37.8371 41.1238C37.8116 41.4004 37.8612 41.6788 37.9808 41.9295C38.1003 42.1802 38.2853 42.394 38.5163 42.5482C38.7473 42.7024 39.0156 42.7913 39.2929 42.8056C51.5191 43.5789 63.4833 43.4842 75.6127 43.9909C90.226 44.4315 106.953 46.3393 108.167 45.077C111.959 41.3407 114.917 36.8431 116.845 31.8805C118.774 26.9178 119.629 21.6026 119.356 16.2851ZM110.175 17.7744C94.1304 22.1342 93.3156 22.0131 77.3634 27.3775C62.5408 20.2242 73.1705 25.115 56.2845 17.3161C68.4535 16.9372 96.3017 17.5849 110.177 17.7744H110.175ZM51.3429 17.7744C53.3677 18.6845 55.3291 19.7296 57.2138 20.9027L73.2233 28.7721C55.2099 34.8327 52.7919 34.7512 43.0189 38.6705C47.0065 32.2511 49.8255 25.1756 51.3451 17.7722L51.3429 17.7744ZM75.7206 41.0608C67.2357 40.6664 47.2095 40.1421 45.6526 40.0738C56.7404 37.0732 57.0266 37.4301 77.1431 30.6888C82.7938 33.436 101.985 42.5523 103.617 43.3079C94.2295 42.7065 85.0026 41.5983 75.7206 41.0608ZM107.607 42.9444C98.9531 37.7011 89.6777 33.2862 81.347 29.2854C101.413 22.6343 105.278 22.7357 116.553 17.9749C116.828 27.1293 113.633 36.0493 107.607 42.9444Z" fill="#57E697"/>
<path d="M355.044 330.581C350.828 333.873 346.36 336.827 341.681 339.418C329.541 346.199 316.647 350.352 302.703 348.774C285.677 346.84 270.792 336.591 259.861 323.536C258.271 321.648 257.157 320.231 256.681 319.531C256.399 319.116 256.015 318.781 255.567 318.557C247.155 316.173 244.14 315.655 239.819 314.673C239.582 314.618 239.333 314.658 239.125 314.784C238.917 314.911 238.766 315.113 238.705 315.349C238.657 315.586 238.702 315.832 238.83 316.037C238.959 316.242 239.16 316.39 239.394 316.451C243.411 317.552 248.511 319.077 254.347 321.077C261.314 331.044 270.485 339.27 281.147 345.115C279.645 345.069 268.529 344.765 263.906 344.987C263.279 341.903 259.502 340.94 256.362 341.011L227.146 340.444C225.605 335.042 207.794 273.584 206.886 270.693C206.144 267.928 204.498 265.49 202.212 263.768C199.925 262.045 197.128 261.138 194.266 261.189C192.724 261.229 77.6695 261.954 74.8596 261.936C70.4047 261.912 68.1012 263.427 66.9055 265.199C66.1914 266.516 65.7912 267.98 65.7362 269.477C65.6812 270.975 65.9728 272.464 66.5884 273.83C66.5884 273.61 69.4291 281.393 94.7118 345.053C87.7861 344.793 43.5408 345.232 30.7442 346.538C30.5093 346.55 30.2879 346.651 30.1257 346.821C29.9635 346.992 29.873 347.218 29.873 347.453C29.873 347.689 29.9635 347.915 30.1257 348.085C30.2879 348.256 30.5093 348.357 30.7442 348.369C44.5186 349.153 86.8987 347.838 95.5112 347.104C96.4165 348.612 97.7063 349.852 99.2484 350.696C100.791 351.54 102.529 351.959 104.287 351.909H256.527C258.396 351.502 260.187 350.796 261.83 349.816C262.658 349.287 263.306 348.519 263.688 347.613C268.284 347.95 282.88 348.435 287.449 348.054C306.104 355.509 325.74 352.482 343.06 341.81C347.71 338.918 352.141 335.685 356.314 332.139C356.504 331.965 356.62 331.726 356.639 331.469C356.658 331.212 356.578 330.958 356.415 330.759C356.253 330.56 356.02 330.43 355.765 330.397C355.51 330.364 355.252 330.43 355.044 330.581ZM259.656 347.571C257.3 348.702 266.703 348.19 104.3 350.301C102.629 350.208 101.016 349.66 99.6336 348.717C96.5308 346.534 99.0434 350.92 69.3058 272.768C69.253 272.768 69.253 272.74 69.253 272.74C68.9628 271.924 68.7663 271.078 68.6672 270.217C68.3479 266.954 69.8189 264.851 74.82 264.901C78.5306 264.934 194.332 264.271 194.332 264.271C196.508 264.239 198.634 264.929 200.377 266.234C202.105 267.606 203.349 269.494 203.929 271.623C204.83 274.504 224.554 342.39 224.554 342.39C224.638 342.706 224.824 342.985 225.084 343.184C225.343 343.384 225.661 343.492 225.988 343.491C225.988 343.491 256.377 344.066 256.421 344.064C257.472 344.013 260.929 344.196 260.929 345.928C260.982 346.791 260.293 347.25 259.656 347.571Z" fill="#181D22"/>
<path d="M295.765 111.035C294.193 107.648 291.807 104.704 288.819 102.467C284.919 100.324 280.543 99.1962 276.093 99.1868C270.272 98.7843 264.433 99.6574 258.985 101.745C253.536 103.833 248.608 107.085 244.545 111.275C234.442 121.436 231.634 136.108 227.895 149.879C224.957 161.526 220.613 172.771 214.957 183.366C214.841 183.579 214.776 183.817 214.769 184.059C214.762 184.302 214.812 184.543 214.916 184.763C215.019 184.982 215.173 185.174 215.365 185.323C215.556 185.472 215.78 185.574 216.019 185.62C227.807 188.175 243.032 184.851 253.294 177.867C253.294 183.626 253.4 184.95 253.4 187.854C253.384 188.121 253.475 188.384 253.653 188.584C253.831 188.784 254.081 188.905 254.348 188.921C254.615 188.937 254.878 188.846 255.078 188.668C255.278 188.49 255.399 188.24 255.415 187.973C255.908 183.628 256.023 181.007 256.139 178.929C256.664 179.114 257.201 179.261 257.747 179.37C260.427 179.934 264.944 179.59 264.587 177.77C264.448 176.354 260.7 176.871 258.383 176.347C251.286 174.82 248.117 168.182 247.672 160.91C247.163 150.615 250.581 140.964 252.711 131.83C259.83 130.594 267.643 131.235 274.873 131.499C275.233 131.51 275.585 131.393 275.867 131.17C276.149 130.946 276.343 130.629 276.414 130.277C277.258 126.719 278.889 123.396 281.186 120.552C280.969 124.411 282.197 128.213 284.631 131.215C284.483 134.918 284.59 138.626 284.95 142.314C284.927 142.531 284.947 142.75 285.009 142.959C285.071 143.167 285.174 143.362 285.313 143.53C285.451 143.699 285.621 143.838 285.814 143.939C286.006 144.041 286.217 144.104 286.434 144.123C287.976 144.162 289.722 143.863 291.365 143.953C297.156 144.295 295.69 152.556 289.352 153.475C286.401 153.915 285.668 153.131 284.739 153.931C284.58 154.064 284.451 154.229 284.359 154.414C284.268 154.6 284.216 154.803 284.208 155.01C284.024 159.224 282.744 163.316 280.493 166.882C278.242 170.447 275.1 173.363 271.376 175.34C271.148 175.416 270.95 175.561 270.808 175.754C270.665 175.947 270.586 176.18 270.581 176.42L270.422 182.163C270.403 182.409 270.482 182.653 270.643 182.84C270.803 183.028 271.031 183.144 271.277 183.163C271.523 183.183 271.766 183.103 271.954 182.943C272.141 182.783 272.257 182.555 272.277 182.309L272.913 177.382C276.466 175.937 279.54 173.518 281.781 170.403C283.049 170.531 283.778 170.623 290.149 170.916C292.904 171.044 297.465 171.602 300.382 170.236C301.188 169.886 301.889 169.334 302.418 168.633C302.947 167.933 303.287 167.108 303.404 166.237C303.413 166.067 303.396 165.895 303.351 165.73C304.655 160.099 304.293 154.539 304.571 148.661C305.139 136.046 309.209 113.366 295.765 111.035ZM247.672 122.006C238.762 135.121 235.492 155.255 232.037 167.33C231.348 169.672 230.496 171.895 229.758 174.038C229.685 174.272 229.524 174.469 229.308 174.585C229.093 174.702 228.84 174.729 228.604 174.662C228.369 174.595 228.169 174.438 228.047 174.225C227.926 174.012 227.892 173.76 227.954 173.523C230.025 162.535 232.645 151.658 235.803 140.933C238.267 133.273 240.905 126.703 246.153 120.783C246.315 120.579 246.551 120.447 246.811 120.417C247.07 120.387 247.33 120.462 247.535 120.624C247.739 120.786 247.871 121.023 247.901 121.282C247.931 121.541 247.856 121.802 247.694 122.006H247.672ZM260.929 111.119C259.185 112.612 257.323 113.962 255.362 115.157C255.178 115.313 254.946 115.401 254.705 115.405C254.464 115.408 254.229 115.328 254.041 115.177C252.719 113.833 257.39 110.33 259.872 109.418C261.16 108.946 261.927 110.211 260.929 111.119Z" fill="#181D22"/>
</g>
<defs>
<clipPath id="clip0_130_6803">
<path d="M0 0H371V326C371 331.523 366.523 336 361 336H0V0Z" fill="white"/>
</clipPath>
</defs>
</svg>
