<svg width="121" height="24" viewBox="0 0 121 24" fill="none" xmlns="http://www.w3.org/2000/svg">
<mask id="path-1-outside-1_119_728" maskUnits="userSpaceOnUse" x="34.1611" y="2.13477" width="87" height="20" fill="black">
<rect fill="white" x="34.1611" y="2.13477" width="87" height="20"/>
<path d="M35.8654 3.37848C36.8225 3.37848 37.5983 4.1543 37.5983 5.11133V20.4386H35.1611V3.37848H35.8654Z"/>
<path d="M46.988 8.00909C47.9791 8.00909 48.8647 8.22031 49.6445 8.64275C50.4407 9.0652 51.0662 9.70698 51.5212 10.5681C51.9923 11.413 52.2279 12.4529 52.2279 13.6877V20.4386H49.9126V13.7364C49.9126 12.6641 49.5958 11.8111 48.9621 11.1774C48.3285 10.5437 47.5323 10.2269 46.5737 10.2269C45.8751 10.2269 45.2576 10.3975 44.7215 10.7387C44.2015 11.0637 43.7954 11.5105 43.5029 12.0792C43.2267 12.6478 43.0886 13.2652 43.0886 13.9314V20.4386H40.7733V8.25281H41.2339C42.1909 8.25281 42.9667 9.02863 42.9667 9.98566V10.2025C43.4217 9.53638 43.9984 9.00833 44.6971 8.61838C45.412 8.21219 46.1756 8.00909 46.988 8.00909Z"/>
<path d="M61.6139 5.32821C60.379 5.32821 59.5017 5.58005 58.9817 6.08373C58.4618 6.57117 58.2018 7.29419 58.2018 8.25281H61.6139V8.71341C61.6139 9.67043 60.838 10.4463 59.881 10.4463H58.2018V20.4386H55.8865V10.4463H53.4494V9.98566C53.4494 9.02863 54.2252 8.25281 55.1822 8.25281H55.8865C55.8865 6.57929 56.374 5.31196 57.3488 4.45083C58.3237 3.57346 59.7454 3.13477 61.6139 3.13477V5.32821Z"/>
<path d="M68.5927 20.6823C67.3904 20.6823 66.2937 20.4061 65.3026 19.8537C64.3114 19.285 63.5315 18.5214 62.9629 17.5628C62.3942 16.5879 62.1099 15.5156 62.1099 14.3457C62.1099 13.1759 62.3942 12.1116 62.9629 11.153C63.5315 10.1782 64.3114 9.41452 65.3026 8.8621C66.2937 8.29343 67.3904 8.00909 68.5927 8.00909C69.7788 8.00909 70.8593 8.29343 71.8341 8.8621C72.8253 9.41452 73.6051 10.1782 74.1738 11.153C74.7425 12.1116 75.0268 13.1759 75.0268 14.3457C75.0268 15.5156 74.7425 16.5879 74.1738 17.5628C73.6051 18.5214 72.8253 19.285 71.8341 19.8537C70.8593 20.4061 69.7788 20.6823 68.5927 20.6823ZM68.5927 18.5376C69.3401 18.5376 70.0225 18.3589 70.6399 18.0015C71.2574 17.6278 71.7448 17.1241 72.1022 16.4904C72.4597 15.8405 72.6384 15.1256 72.6384 14.3457C72.6384 13.5658 72.4597 12.859 72.1022 12.2254C71.7448 11.5755 71.2574 11.0718 70.6399 10.7143C70.0225 10.3406 69.3401 10.1538 68.5927 10.1538C67.8291 10.1538 67.1304 10.3406 66.4968 10.7143C65.8793 11.0718 65.3919 11.5755 65.0345 12.2254C64.677 12.859 64.4983 13.5658 64.4983 14.3457C64.4983 15.1256 64.677 15.8405 65.0345 16.4904C65.3919 17.1241 65.8793 17.6278 66.4968 18.0015C67.1304 18.3589 67.8291 18.5376 68.5927 18.5376Z"/>
<path d="M92.206 18.0989V20.4386H80.7513V3.37848H81.4556C82.4126 3.37848 83.1885 4.1543 83.1885 5.11133V18.0989H92.206Z"/>
<path d="M105.128 8.25281V20.4386H104.545C103.588 20.4386 102.812 19.6628 102.812 18.7058V18.6107C102.309 19.2607 101.699 19.7725 100.985 20.1462C100.27 20.5036 99.506 20.6823 98.6936 20.6823C97.6212 20.6823 96.6464 20.4143 95.769 19.8781C94.8916 19.3257 94.2011 18.5701 93.6974 17.6115C93.1937 16.6529 92.9419 15.5643 92.9419 14.3457C92.9419 13.1271 93.1937 12.0385 93.6974 11.0799C94.2011 10.1213 94.8916 9.3739 95.769 8.83773C96.6464 8.2853 97.6212 8.00909 98.6936 8.00909C99.5385 8.00909 100.326 8.20406 101.058 8.59401C101.789 8.98396 102.414 9.52826 102.934 10.2269V8.25281H105.128ZM99.0835 18.5376C99.7984 18.5376 100.448 18.3589 101.033 18.0015C101.618 17.644 102.073 17.1485 102.398 16.5148C102.723 15.8649 102.886 15.1419 102.886 14.3457C102.886 13.5496 102.723 12.8347 102.398 12.201C102.073 11.5511 101.618 11.0474 101.033 10.69C100.448 10.3325 99.7984 10.1538 99.0835 10.1538C98.3686 10.1538 97.7268 10.3325 97.1582 10.69C96.5895 11.0474 96.1427 11.5511 95.8177 12.201C95.4928 12.8347 95.3303 13.5496 95.3303 14.3457C95.3303 15.1419 95.4928 15.8649 95.8177 16.5148C96.1427 17.1485 96.5895 17.644 97.1582 18.0015C97.7268 18.3589 98.3686 18.5376 99.0835 18.5376Z"/>
<path d="M114.248 8.00909C115.321 8.00909 116.296 8.2853 117.173 8.83773C118.05 9.3739 118.741 10.1213 119.245 11.0799C119.748 12.0385 120 13.1271 120 14.3457C120 15.5643 119.748 16.6529 119.245 17.6115C118.741 18.5701 118.05 19.3257 117.173 19.8781C116.296 20.4143 115.321 20.6823 114.248 20.6823C113.436 20.6823 112.672 20.5036 111.957 20.1462C111.243 19.7725 110.633 19.2607 110.13 18.6107V18.7058C110.13 19.6628 109.354 20.4386 108.397 20.4386H107.814V3.25662H108.275C109.232 3.25662 110.008 4.03245 110.008 4.98947V10.2269C110.528 9.52826 111.153 8.98396 111.884 8.59401C112.615 8.20406 113.404 8.00909 114.248 8.00909ZM113.858 18.5376C114.573 18.5376 115.215 18.3589 115.784 18.0015C116.352 17.644 116.799 17.1485 117.124 16.5148C117.449 15.8649 117.612 15.1419 117.612 14.3457C117.612 13.5496 117.449 12.8347 117.124 12.201C116.799 11.5511 116.352 11.0474 115.784 10.69C115.215 10.3325 114.573 10.1538 113.858 10.1538C113.144 10.1538 112.494 10.3325 111.909 10.69C111.324 11.0474 110.869 11.5511 110.544 12.201C110.219 12.8347 110.056 13.5496 110.056 14.3457C110.056 15.1419 110.219 15.8649 110.544 16.5148C110.869 17.1485 111.324 17.644 111.909 18.0015C112.494 18.3589 113.144 18.5376 113.858 18.5376Z"/>
</mask>
<path d="M35.8654 3.37848C36.8225 3.37848 37.5983 4.1543 37.5983 5.11133V20.4386H35.1611V3.37848H35.8654Z" fill="url(#paint0_radial_119_728)"/>
<path d="M46.988 8.00909C47.9791 8.00909 48.8647 8.22031 49.6445 8.64275C50.4407 9.0652 51.0662 9.70698 51.5212 10.5681C51.9923 11.413 52.2279 12.4529 52.2279 13.6877V20.4386H49.9126V13.7364C49.9126 12.6641 49.5958 11.8111 48.9621 11.1774C48.3285 10.5437 47.5323 10.2269 46.5737 10.2269C45.8751 10.2269 45.2576 10.3975 44.7215 10.7387C44.2015 11.0637 43.7954 11.5105 43.5029 12.0792C43.2267 12.6478 43.0886 13.2652 43.0886 13.9314V20.4386H40.7733V8.25281H41.2339C42.1909 8.25281 42.9667 9.02863 42.9667 9.98566V10.2025C43.4217 9.53638 43.9984 9.00833 44.6971 8.61838C45.412 8.21219 46.1756 8.00909 46.988 8.00909Z" fill="url(#paint1_radial_119_728)"/>
<path d="M61.6139 5.32821C60.379 5.32821 59.5017 5.58005 58.9817 6.08373C58.4618 6.57117 58.2018 7.29419 58.2018 8.25281H61.6139V8.71341C61.6139 9.67043 60.838 10.4463 59.881 10.4463H58.2018V20.4386H55.8865V10.4463H53.4494V9.98566C53.4494 9.02863 54.2252 8.25281 55.1822 8.25281H55.8865C55.8865 6.57929 56.374 5.31196 57.3488 4.45083C58.3237 3.57346 59.7454 3.13477 61.6139 3.13477V5.32821Z" fill="url(#paint2_radial_119_728)"/>
<path d="M68.5927 20.6823C67.3904 20.6823 66.2937 20.4061 65.3026 19.8537C64.3114 19.285 63.5315 18.5214 62.9629 17.5628C62.3942 16.5879 62.1099 15.5156 62.1099 14.3457C62.1099 13.1759 62.3942 12.1116 62.9629 11.153C63.5315 10.1782 64.3114 9.41452 65.3026 8.8621C66.2937 8.29343 67.3904 8.00909 68.5927 8.00909C69.7788 8.00909 70.8593 8.29343 71.8341 8.8621C72.8253 9.41452 73.6051 10.1782 74.1738 11.153C74.7425 12.1116 75.0268 13.1759 75.0268 14.3457C75.0268 15.5156 74.7425 16.5879 74.1738 17.5628C73.6051 18.5214 72.8253 19.285 71.8341 19.8537C70.8593 20.4061 69.7788 20.6823 68.5927 20.6823ZM68.5927 18.5376C69.3401 18.5376 70.0225 18.3589 70.6399 18.0015C71.2574 17.6278 71.7448 17.1241 72.1022 16.4904C72.4597 15.8405 72.6384 15.1256 72.6384 14.3457C72.6384 13.5658 72.4597 12.859 72.1022 12.2254C71.7448 11.5755 71.2574 11.0718 70.6399 10.7143C70.0225 10.3406 69.3401 10.1538 68.5927 10.1538C67.8291 10.1538 67.1304 10.3406 66.4968 10.7143C65.8793 11.0718 65.3919 11.5755 65.0345 12.2254C64.677 12.859 64.4983 13.5658 64.4983 14.3457C64.4983 15.1256 64.677 15.8405 65.0345 16.4904C65.3919 17.1241 65.8793 17.6278 66.4968 18.0015C67.1304 18.3589 67.8291 18.5376 68.5927 18.5376Z" fill="url(#paint3_radial_119_728)"/>
<path d="M92.206 18.0989V20.4386H80.7513V3.37848H81.4556C82.4126 3.37848 83.1885 4.1543 83.1885 5.11133V18.0989H92.206Z" fill="url(#paint4_radial_119_728)"/>
<path d="M105.128 8.25281V20.4386H104.545C103.588 20.4386 102.812 19.6628 102.812 18.7058V18.6107C102.309 19.2607 101.699 19.7725 100.985 20.1462C100.27 20.5036 99.506 20.6823 98.6936 20.6823C97.6212 20.6823 96.6464 20.4143 95.769 19.8781C94.8916 19.3257 94.2011 18.5701 93.6974 17.6115C93.1937 16.6529 92.9419 15.5643 92.9419 14.3457C92.9419 13.1271 93.1937 12.0385 93.6974 11.0799C94.2011 10.1213 94.8916 9.3739 95.769 8.83773C96.6464 8.2853 97.6212 8.00909 98.6936 8.00909C99.5385 8.00909 100.326 8.20406 101.058 8.59401C101.789 8.98396 102.414 9.52826 102.934 10.2269V8.25281H105.128ZM99.0835 18.5376C99.7984 18.5376 100.448 18.3589 101.033 18.0015C101.618 17.644 102.073 17.1485 102.398 16.5148C102.723 15.8649 102.886 15.1419 102.886 14.3457C102.886 13.5496 102.723 12.8347 102.398 12.201C102.073 11.5511 101.618 11.0474 101.033 10.69C100.448 10.3325 99.7984 10.1538 99.0835 10.1538C98.3686 10.1538 97.7268 10.3325 97.1582 10.69C96.5895 11.0474 96.1427 11.5511 95.8177 12.201C95.4928 12.8347 95.3303 13.5496 95.3303 14.3457C95.3303 15.1419 95.4928 15.8649 95.8177 16.5148C96.1427 17.1485 96.5895 17.644 97.1582 18.0015C97.7268 18.3589 98.3686 18.5376 99.0835 18.5376Z" fill="url(#paint5_radial_119_728)"/>
<path d="M114.248 8.00909C115.321 8.00909 116.296 8.2853 117.173 8.83773C118.05 9.3739 118.741 10.1213 119.245 11.0799C119.748 12.0385 120 13.1271 120 14.3457C120 15.5643 119.748 16.6529 119.245 17.6115C118.741 18.5701 118.05 19.3257 117.173 19.8781C116.296 20.4143 115.321 20.6823 114.248 20.6823C113.436 20.6823 112.672 20.5036 111.957 20.1462C111.243 19.7725 110.633 19.2607 110.13 18.6107V18.7058C110.13 19.6628 109.354 20.4386 108.397 20.4386H107.814V3.25662H108.275C109.232 3.25662 110.008 4.03245 110.008 4.98947V10.2269C110.528 9.52826 111.153 8.98396 111.884 8.59401C112.615 8.20406 113.404 8.00909 114.248 8.00909ZM113.858 18.5376C114.573 18.5376 115.215 18.3589 115.784 18.0015C116.352 17.644 116.799 17.1485 117.124 16.5148C117.449 15.8649 117.612 15.1419 117.612 14.3457C117.612 13.5496 117.449 12.8347 117.124 12.201C116.799 11.5511 116.352 11.0474 115.784 10.69C115.215 10.3325 114.573 10.1538 113.858 10.1538C113.144 10.1538 112.494 10.3325 111.909 10.69C111.324 11.0474 110.869 11.5511 110.544 12.201C110.219 12.8347 110.056 13.5496 110.056 14.3457C110.056 15.1419 110.219 15.8649 110.544 16.5148C110.869 17.1485 111.324 17.644 111.909 18.0015C112.494 18.3589 113.144 18.5376 113.858 18.5376Z" fill="url(#paint6_radial_119_728)"/>
<path d="M35.8654 3.37848C36.8225 3.37848 37.5983 4.1543 37.5983 5.11133V20.4386H35.1611V3.37848H35.8654Z" stroke="url(#paint7_radial_119_728)" stroke-width="0.997387" mask="url(#path-1-outside-1_119_728)"/>
<path d="M46.988 8.00909C47.9791 8.00909 48.8647 8.22031 49.6445 8.64275C50.4407 9.0652 51.0662 9.70698 51.5212 10.5681C51.9923 11.413 52.2279 12.4529 52.2279 13.6877V20.4386H49.9126V13.7364C49.9126 12.6641 49.5958 11.8111 48.9621 11.1774C48.3285 10.5437 47.5323 10.2269 46.5737 10.2269C45.8751 10.2269 45.2576 10.3975 44.7215 10.7387C44.2015 11.0637 43.7954 11.5105 43.5029 12.0792C43.2267 12.6478 43.0886 13.2652 43.0886 13.9314V20.4386H40.7733V8.25281H41.2339C42.1909 8.25281 42.9667 9.02863 42.9667 9.98566V10.2025C43.4217 9.53638 43.9984 9.00833 44.6971 8.61838C45.412 8.21219 46.1756 8.00909 46.988 8.00909Z" stroke="url(#paint8_radial_119_728)" stroke-width="0.997387" mask="url(#path-1-outside-1_119_728)"/>
<path d="M61.6139 5.32821C60.379 5.32821 59.5017 5.58005 58.9817 6.08373C58.4618 6.57117 58.2018 7.29419 58.2018 8.25281H61.6139V8.71341C61.6139 9.67043 60.838 10.4463 59.881 10.4463H58.2018V20.4386H55.8865V10.4463H53.4494V9.98566C53.4494 9.02863 54.2252 8.25281 55.1822 8.25281H55.8865C55.8865 6.57929 56.374 5.31196 57.3488 4.45083C58.3237 3.57346 59.7454 3.13477 61.6139 3.13477V5.32821Z" stroke="url(#paint9_radial_119_728)" stroke-width="0.997387" mask="url(#path-1-outside-1_119_728)"/>
<path d="M68.5927 20.6823C67.3904 20.6823 66.2937 20.4061 65.3026 19.8537C64.3114 19.285 63.5315 18.5214 62.9629 17.5628C62.3942 16.5879 62.1099 15.5156 62.1099 14.3457C62.1099 13.1759 62.3942 12.1116 62.9629 11.153C63.5315 10.1782 64.3114 9.41452 65.3026 8.8621C66.2937 8.29343 67.3904 8.00909 68.5927 8.00909C69.7788 8.00909 70.8593 8.29343 71.8341 8.8621C72.8253 9.41452 73.6051 10.1782 74.1738 11.153C74.7425 12.1116 75.0268 13.1759 75.0268 14.3457C75.0268 15.5156 74.7425 16.5879 74.1738 17.5628C73.6051 18.5214 72.8253 19.285 71.8341 19.8537C70.8593 20.4061 69.7788 20.6823 68.5927 20.6823ZM68.5927 18.5376C69.3401 18.5376 70.0225 18.3589 70.6399 18.0015C71.2574 17.6278 71.7448 17.1241 72.1022 16.4904C72.4597 15.8405 72.6384 15.1256 72.6384 14.3457C72.6384 13.5658 72.4597 12.859 72.1022 12.2254C71.7448 11.5755 71.2574 11.0718 70.6399 10.7143C70.0225 10.3406 69.3401 10.1538 68.5927 10.1538C67.8291 10.1538 67.1304 10.3406 66.4968 10.7143C65.8793 11.0718 65.3919 11.5755 65.0345 12.2254C64.677 12.859 64.4983 13.5658 64.4983 14.3457C64.4983 15.1256 64.677 15.8405 65.0345 16.4904C65.3919 17.1241 65.8793 17.6278 66.4968 18.0015C67.1304 18.3589 67.8291 18.5376 68.5927 18.5376Z" stroke="url(#paint10_radial_119_728)" stroke-width="0.997387" mask="url(#path-1-outside-1_119_728)"/>
<path d="M92.206 18.0989V20.4386H80.7513V3.37848H81.4556C82.4126 3.37848 83.1885 4.1543 83.1885 5.11133V18.0989H92.206Z" stroke="url(#paint11_radial_119_728)" stroke-width="0.997387" mask="url(#path-1-outside-1_119_728)"/>
<path d="M105.128 8.25281V20.4386H104.545C103.588 20.4386 102.812 19.6628 102.812 18.7058V18.6107C102.309 19.2607 101.699 19.7725 100.985 20.1462C100.27 20.5036 99.506 20.6823 98.6936 20.6823C97.6212 20.6823 96.6464 20.4143 95.769 19.8781C94.8916 19.3257 94.2011 18.5701 93.6974 17.6115C93.1937 16.6529 92.9419 15.5643 92.9419 14.3457C92.9419 13.1271 93.1937 12.0385 93.6974 11.0799C94.2011 10.1213 94.8916 9.3739 95.769 8.83773C96.6464 8.2853 97.6212 8.00909 98.6936 8.00909C99.5385 8.00909 100.326 8.20406 101.058 8.59401C101.789 8.98396 102.414 9.52826 102.934 10.2269V8.25281H105.128ZM99.0835 18.5376C99.7984 18.5376 100.448 18.3589 101.033 18.0015C101.618 17.644 102.073 17.1485 102.398 16.5148C102.723 15.8649 102.886 15.1419 102.886 14.3457C102.886 13.5496 102.723 12.8347 102.398 12.201C102.073 11.5511 101.618 11.0474 101.033 10.69C100.448 10.3325 99.7984 10.1538 99.0835 10.1538C98.3686 10.1538 97.7268 10.3325 97.1582 10.69C96.5895 11.0474 96.1427 11.5511 95.8177 12.201C95.4928 12.8347 95.3303 13.5496 95.3303 14.3457C95.3303 15.1419 95.4928 15.8649 95.8177 16.5148C96.1427 17.1485 96.5895 17.644 97.1582 18.0015C97.7268 18.3589 98.3686 18.5376 99.0835 18.5376Z" stroke="url(#paint12_radial_119_728)" stroke-width="0.997387" mask="url(#path-1-outside-1_119_728)"/>
<path d="M114.248 8.00909C115.321 8.00909 116.296 8.2853 117.173 8.83773C118.05 9.3739 118.741 10.1213 119.245 11.0799C119.748 12.0385 120 13.1271 120 14.3457C120 15.5643 119.748 16.6529 119.245 17.6115C118.741 18.5701 118.05 19.3257 117.173 19.8781C116.296 20.4143 115.321 20.6823 114.248 20.6823C113.436 20.6823 112.672 20.5036 111.957 20.1462C111.243 19.7725 110.633 19.2607 110.13 18.6107V18.7058C110.13 19.6628 109.354 20.4386 108.397 20.4386H107.814V3.25662H108.275C109.232 3.25662 110.008 4.03245 110.008 4.98947V10.2269C110.528 9.52826 111.153 8.98396 111.884 8.59401C112.615 8.20406 113.404 8.00909 114.248 8.00909ZM113.858 18.5376C114.573 18.5376 115.215 18.3589 115.784 18.0015C116.352 17.644 116.799 17.1485 117.124 16.5148C117.449 15.8649 117.612 15.1419 117.612 14.3457C117.612 13.5496 117.449 12.8347 117.124 12.201C116.799 11.5511 116.352 11.0474 115.784 10.69C115.215 10.3325 114.573 10.1538 113.858 10.1538C113.144 10.1538 112.494 10.3325 111.909 10.69C111.324 11.0474 110.869 11.5511 110.544 12.201C110.219 12.8347 110.056 13.5496 110.056 14.3457C110.056 15.1419 110.219 15.8649 110.544 16.5148C110.869 17.1485 111.324 17.644 111.909 18.0015C112.494 18.3589 113.144 18.5376 113.858 18.5376Z" stroke="url(#paint13_radial_119_728)" stroke-width="0.997387" mask="url(#path-1-outside-1_119_728)"/>
<path fill-rule="evenodd" clip-rule="evenodd" d="M12.6526 9.35285C15.1485 9.35285 17.1718 7.32954 17.1718 4.83365C17.1718 2.33777 15.1485 0.314453 12.6526 0.314453C10.1567 0.314453 8.13338 2.33777 8.13338 4.83365C8.13338 6.03423 8.60154 7.12547 9.36526 7.93476L7.79451 10.9109C7.09552 12.2353 7.60252 13.8756 8.92691 14.5746L11.7323 9.25908C12.0294 9.32055 12.3372 9.35285 12.6526 9.35285Z" fill="url(#paint14_linear_119_728)"/>
<path fill-rule="evenodd" clip-rule="evenodd" d="M14.8655 11.1297L17.8864 16.2652C17.5248 16.6655 17.2338 17.1309 17.0332 17.6416H8.72692C8.0673 15.9628 6.43203 14.7744 4.5192 14.7744C2.02331 14.7744 0 16.7977 0 19.2936C0 21.7895 2.02331 23.8128 4.5192 23.8128C6.69018 23.8128 8.50362 22.282 8.93896 20.2409H16.8211C17.2565 22.282 19.0699 23.8128 21.2409 23.8128C23.7368 23.8128 25.7601 21.7895 25.7601 19.2936C25.7601 16.7977 23.7368 14.7744 21.2409 14.7744C20.8909 14.7744 20.5502 14.8142 20.223 14.8895L18.5775 12.092C17.8182 10.8013 16.1563 10.3704 14.8655 11.1297Z" fill="url(#paint15_linear_119_728)"/>
<defs>
<radialGradient id="paint0_radial_119_728" cx="0" cy="0" r="1" gradientUnits="userSpaceOnUse" gradientTransform="translate(120 20.6823) rotate(-168.314) scale(86.6347 34.3677)">
<stop stop-color="#1A0633"/>
<stop offset="1" stop-color="#252F52"/>
</radialGradient>
<radialGradient id="paint1_radial_119_728" cx="0" cy="0" r="1" gradientUnits="userSpaceOnUse" gradientTransform="translate(120 20.6823) rotate(-168.314) scale(86.6347 34.3677)">
<stop stop-color="#1A0633"/>
<stop offset="1" stop-color="#252F52"/>
</radialGradient>
<radialGradient id="paint2_radial_119_728" cx="0" cy="0" r="1" gradientUnits="userSpaceOnUse" gradientTransform="translate(120 20.6823) rotate(-168.314) scale(86.6347 34.3677)">
<stop stop-color="#1A0633"/>
<stop offset="1" stop-color="#252F52"/>
</radialGradient>
<radialGradient id="paint3_radial_119_728" cx="0" cy="0" r="1" gradientUnits="userSpaceOnUse" gradientTransform="translate(120 20.6823) rotate(-168.314) scale(86.6347 34.3677)">
<stop stop-color="#1A0633"/>
<stop offset="1" stop-color="#252F52"/>
</radialGradient>
<radialGradient id="paint4_radial_119_728" cx="0" cy="0" r="1" gradientUnits="userSpaceOnUse" gradientTransform="translate(120 20.6823) rotate(-168.314) scale(86.6347 34.3677)">
<stop stop-color="#1A0633"/>
<stop offset="1" stop-color="#252F52"/>
</radialGradient>
<radialGradient id="paint5_radial_119_728" cx="0" cy="0" r="1" gradientUnits="userSpaceOnUse" gradientTransform="translate(120 20.6823) rotate(-168.314) scale(86.6347 34.3677)">
<stop stop-color="#1A0633"/>
<stop offset="1" stop-color="#252F52"/>
</radialGradient>
<radialGradient id="paint6_radial_119_728" cx="0" cy="0" r="1" gradientUnits="userSpaceOnUse" gradientTransform="translate(120 20.6823) rotate(-168.314) scale(86.6347 34.3677)">
<stop stop-color="#1A0633"/>
<stop offset="1" stop-color="#252F52"/>
</radialGradient>
<radialGradient id="paint7_radial_119_728" cx="0" cy="0" r="1" gradientUnits="userSpaceOnUse" gradientTransform="translate(120 20.6823) rotate(-168.314) scale(86.6347 34.3677)">
<stop stop-color="#1A0633"/>
<stop offset="1" stop-color="#252F52"/>
</radialGradient>
<radialGradient id="paint8_radial_119_728" cx="0" cy="0" r="1" gradientUnits="userSpaceOnUse" gradientTransform="translate(120 20.6823) rotate(-168.314) scale(86.6347 34.3677)">
<stop stop-color="#1A0633"/>
<stop offset="1" stop-color="#252F52"/>
</radialGradient>
<radialGradient id="paint9_radial_119_728" cx="0" cy="0" r="1" gradientUnits="userSpaceOnUse" gradientTransform="translate(120 20.6823) rotate(-168.314) scale(86.6347 34.3677)">
<stop stop-color="#1A0633"/>
<stop offset="1" stop-color="#252F52"/>
</radialGradient>
<radialGradient id="paint10_radial_119_728" cx="0" cy="0" r="1" gradientUnits="userSpaceOnUse" gradientTransform="translate(120 20.6823) rotate(-168.314) scale(86.6347 34.3677)">
<stop stop-color="#1A0633"/>
<stop offset="1" stop-color="#252F52"/>
</radialGradient>
<radialGradient id="paint11_radial_119_728" cx="0" cy="0" r="1" gradientUnits="userSpaceOnUse" gradientTransform="translate(120 20.6823) rotate(-168.314) scale(86.6347 34.3677)">
<stop stop-color="#1A0633"/>
<stop offset="1" stop-color="#252F52"/>
</radialGradient>
<radialGradient id="paint12_radial_119_728" cx="0" cy="0" r="1" gradientUnits="userSpaceOnUse" gradientTransform="translate(120 20.6823) rotate(-168.314) scale(86.6347 34.3677)">
<stop stop-color="#1A0633"/>
<stop offset="1" stop-color="#252F52"/>
</radialGradient>
<radialGradient id="paint13_radial_119_728" cx="0" cy="0" r="1" gradientUnits="userSpaceOnUse" gradientTransform="translate(120 20.6823) rotate(-168.314) scale(86.6347 34.3677)">
<stop stop-color="#1A0633"/>
<stop offset="1" stop-color="#252F52"/>
</radialGradient>
<linearGradient id="paint14_linear_119_728" x1="12.3261" y1="0.314453" x2="12.3261" y2="14.5746" gradientUnits="userSpaceOnUse">
<stop stop-color="#2DAEFD"/>
<stop offset="1" stop-color="#BD46FC"/>
</linearGradient>
<linearGradient id="paint15_linear_119_728" x1="12.8801" y1="10.7549" x2="12.8801" y2="23.8128" gradientUnits="userSpaceOnUse">
<stop stop-color="#2DAEFD"/>
<stop offset="1" stop-color="#BD46FC"/>
</linearGradient>
</defs>
</svg>
