<svg width="18" height="18" viewBox="0 0 18 18" fill="none" xmlns="http://www.w3.org/2000/svg">
<g id="phone">
<path id="Vector" d="M16.502 12.6901V14.9401C16.5029 15.1489 16.4601 15.3557 16.3764 15.5471C16.2927 15.7385 16.17 15.9103 16.0161 16.0515C15.8622 16.1927 15.6805 16.3002 15.4826 16.3671C15.2847 16.434 15.0751 16.4589 14.867 16.4401C12.5592 16.1893 10.3423 15.4007 8.39452 14.1376C6.5824 12.9861 5.04603 11.4497 3.89453 9.63757C2.62701 7.68098 1.83821 5.45332 1.59203 3.13507C1.57328 2.92767 1.59793 2.71864 1.6644 2.52129C1.73087 2.32394 1.8377 2.14259 1.9781 1.98879C2.1185 1.83499 2.28938 1.7121 2.47987 1.62796C2.67036 1.54382 2.87628 1.50027 3.08453 1.50007H5.33453C5.6985 1.49649 6.05137 1.62538 6.32735 1.86272C6.60332 2.10006 6.78358 2.42966 6.83453 2.79007C6.92949 3.51012 7.10561 4.21712 7.35953 4.89757C7.46043 5.16602 7.48227 5.45776 7.42245 5.73823C7.36264 6.01871 7.22367 6.27616 7.02203 6.48007L6.06953 7.43257C7.13719 9.31023 8.69187 10.8649 10.5695 11.9326L11.522 10.9801C11.7259 10.7784 11.9834 10.6395 12.2639 10.5796C12.5443 10.5198 12.8361 10.5417 13.1045 10.6426C13.785 10.8965 14.492 11.0726 15.212 11.1676C15.5764 11.219 15.9091 11.4025 16.1469 11.6832C16.3848 11.9639 16.5112 12.3223 16.502 12.6901Z" fill="url(#paint0_linear_396_331)"/>
</g>
<defs>
<linearGradient id="paint0_linear_396_331" x1="1.58594" y1="16.4462" x2="17.3733" y2="15.4614" gradientUnits="userSpaceOnUse">
<stop stop-color="#1C9AEA"/>
<stop offset="1" stop-color="#3AB8FF"/>
</linearGradient>
</defs>
</svg>
