<svg width="24" height="24" viewBox="0 0 24 24" fill="none" xmlns="http://www.w3.org/2000/svg">
<path d="M12.002 8.4C10.0131 8.4 8.40195 10.0117 8.40195 12C8.40195 13.9888 10.0137 15.6 12.002 15.6C13.9907 15.6 15.602 13.9883 15.602 12C15.602 10.0112 13.9903 8.4 12.002 8.4ZM12.002 6C15.3145 6 18.002 8.68452 18.002 12C18.002 15.3126 15.3175 18 12.002 18C8.68939 18 6.00195 15.3155 6.00195 12C6.00195 8.68744 8.68647 6 12.002 6ZM19.802 5.69898C19.802 6.52711 19.129 7.199 18.302 7.199C17.4739 7.199 16.802 6.52608 16.802 5.69898C16.802 4.87188 17.4748 4.2 18.302 4.2C19.1279 4.19896 19.802 4.87188 19.802 5.69898ZM12.002 2.4C9.03258 2.4 8.54859 2.40786 7.1675 2.46936C6.22656 2.51353 5.59581 2.64008 5.00977 2.8676C4.48897 3.06959 4.11329 3.31078 3.713 3.71106C3.31118 4.11288 3.07043 4.48756 2.86926 5.0086C2.64121 5.59598 2.51469 6.22573 2.47131 7.16538C2.40921 8.49024 2.40195 8.95326 2.40195 12C2.40195 14.9694 2.40981 15.4534 2.4713 16.8343C2.5155 17.7749 2.64222 18.4066 2.86919 18.9912C3.0717 19.5127 3.31338 19.8893 3.71173 20.2877C4.11513 20.6905 4.49093 20.9321 5.00702 21.1313C5.60021 21.3606 6.23055 21.4873 7.16732 21.5306C8.49219 21.5927 8.95521 21.6 12.002 21.6C14.9714 21.6 15.4553 21.5921 16.8363 21.5306C17.7748 21.4866 18.407 21.3595 18.9932 21.1327C19.5133 20.9308 19.891 20.6882 20.2897 20.2902C20.6931 19.8862 20.9342 19.5113 21.1336 18.994C21.3623 18.403 21.4893 17.7718 21.5326 16.8347C21.5947 15.5098 21.602 15.0467 21.602 12C21.602 9.03062 21.5941 8.54665 21.5326 7.16564C21.4885 6.22687 21.3614 5.59379 21.1343 5.00782C20.9329 4.48846 20.6908 4.11162 20.2909 3.71106C19.8884 3.30858 19.5147 3.06832 18.9933 2.8673C18.4064 2.63945 17.7757 2.51275 16.8365 2.46937C15.5117 2.40726 15.0487 2.4 12.002 2.4ZM12.002 0C15.2619 0 15.6689 0.0119999 16.949 0.0719999C18.2259 0.131004 19.097 0.333 19.862 0.63C20.6529 0.935004 21.3209 1.347 21.9879 2.014C22.6539 2.681 23.066 3.351 23.372 4.14C23.6679 4.904 23.87 5.776 23.93 7.053C23.987 8.333 24.002 8.74 24.002 12C24.002 15.26 23.99 15.667 23.93 16.947C23.8709 18.224 23.6679 19.095 23.372 19.86C23.0669 20.651 22.6539 21.319 21.9879 21.986C21.3209 22.652 20.6499 23.064 19.862 23.37C19.097 23.666 18.2259 23.868 16.949 23.928C15.6689 23.985 15.2619 24 12.002 24C8.74195 24 8.33495 23.988 7.05495 23.928C5.77795 23.869 4.90795 23.666 4.14195 23.37C3.35195 23.065 2.68295 22.652 2.01595 21.986C1.34895 21.319 0.937953 20.648 0.631953 19.86C0.334953 19.095 0.133953 18.224 0.0739533 16.947C0.0169533 15.667 0.00195312 15.26 0.00195312 12C0.00195312 8.74 0.0139533 8.333 0.0739533 7.053C0.132945 5.775 0.334953 4.905 0.631953 4.14C0.936945 3.35 1.34895 2.681 2.01595 2.014C2.68295 1.347 3.35295 0.936 4.14195 0.63C4.90695 0.333 5.77695 0.132 7.05495 0.0719999C8.33495 0.0149999 8.74195 0 12.002 0Z" fill="#1C9AEA"/>
</svg>
