<svg width="24" height="24" viewBox="0 0 24 24" fill="none" xmlns="http://www.w3.org/2000/svg">
<path d="M20.5917 3.82978C17.6234 5.05037 4.89596 10.2846 1.37937 11.7111C-0.979013 12.6249 0.401617 13.4817 0.401617 13.4817C0.401617 13.4817 2.41478 14.1669 4.14063 14.6809C5.86624 15.1949 6.78658 14.6239 6.78658 14.6239L14.8971 9.19836C17.7732 7.25658 17.083 8.8556 16.3926 9.54111C14.8971 11.0261 12.4237 13.3674 10.3529 15.2522C9.43252 16.0517 9.89257 16.737 10.2954 17.0797C11.7909 18.3362 15.8751 20.9063 16.105 21.0775C17.3202 21.9317 19.7104 23.1611 20.074 20.5635L21.512 11.5971C21.9723 8.57034 22.4324 5.7718 22.4898 4.97229C22.6625 3.03027 20.5917 3.82978 20.5917 3.82978Z" fill="#1C9AEA"/>
</svg>
