<svg version="1.0" xmlns="http://www.w3.org/2000/svg" width="101.333" height="101.333" viewBox="0 0 76 76"><path d="M10.5 1.5C5.6 3.2 2.2 6.6.9 10.9.3 13.2 0 24.2.2 40.2.5 64.5.6 66 2.6 68.7c3.1 4.1 8 6.6 12.6 6.5 5-.2 8.3-2 13.6-7.4l4.2-4.4-3.9-3.8-3.8-3.7-2.9 3.1c-4.3 4.6-7.7 6.2-9.8 4.7-1.6-1.2-1.8-3.8-1.8-25.7 0-21.8.2-24.5 1.7-25.6.9-.7 2.4-1 3.3-.7 1 .4 9.1 8 18.1 17 9 8.9 16.5 16.3 16.7 16.3.2 0 2-1.6 4-3.6l3.6-3.7-16.8-16.9c-9.3-9.3-17.8-17.4-18.9-18-3.7-2.1-8.2-2.6-12-1.3z"/><path d="M56.3 2.3c-1.8.7-5.6 3.4-8.3 6.1l-5.1 4.9 3.8 3.9 3.7 3.8 4.6-4.5c2.5-2.5 5.3-4.5 6.1-4.5 3.6 0 3.9 1.9 3.9 26.1 0 13.1-.3 24.4-.6 25.3-1.6 4.2-5.3 1.7-22.2-15.4L25.3 31.1l-3.7 3.8-3.8 3.9L35 56c20.9 20.9 24.6 22.8 33.4 17.7 7.4-4.2 7.7-5.6 7.4-36.2-.3-25.2-.4-27.2-2.3-29.7C69.4 2.4 62.2.1 56.3 2.3z"/></svg>