<svg width="101" height="44" viewBox="0 0 101 44" fill="none" xmlns="http://www.w3.org/2000/svg">
<path d="M54.2053 14.2709L52.9351 17.6332H49L55.8242 0H59.9087L66.6332 17.6332H62.6732L61.4528 14.2709H54.2053ZM55.2513 11.083H60.3819L57.8415 3.81057L55.2513 11.083Z" fill="#000C19"/>
<path d="M1.30371 17.6332V0H9.12409C9.93767 0 10.6848 0.0830188 11.3656 0.249056C12.063 0.415094 12.669 0.713961 13.1837 1.14566C13.5988 1.47774 13.9475 1.91774 14.2297 2.46566C14.5286 2.99698 14.6781 3.64453 14.6781 4.4083C14.6947 5.22189 14.5452 5.94415 14.2297 6.57509C13.9309 7.20604 13.4162 7.73736 12.6856 8.16906C13.2003 8.31849 13.6403 8.54264 14.0056 8.84151C14.3709 9.14038 14.6614 9.48906 14.8773 9.88755C15.1097 10.286 15.2758 10.7177 15.3754 11.1826C15.475 11.6475 15.5165 12.1291 15.4999 12.6272C15.4667 13.4242 15.2509 14.163 14.8524 14.8438C14.4705 15.5079 13.9641 16.0475 13.3331 16.4626C12.586 16.9774 11.7641 17.3011 10.8675 17.434C9.97088 17.5668 9.08258 17.6332 8.20258 17.6332H1.30371ZM8.10296 7.14792C8.46824 7.14792 8.83352 7.13132 9.19881 7.09811C9.56409 7.0483 9.90447 6.93208 10.2199 6.74943C10.4856 6.5834 10.7097 6.35924 10.8924 6.07698C11.075 5.79472 11.1747 5.46264 11.1913 5.08075C11.2079 4.68226 11.1414 4.35849 10.992 4.10943C10.8426 3.86038 10.6599 3.66943 10.4441 3.5366C10.1784 3.37057 9.87126 3.27924 9.52258 3.26264C9.1739 3.22943 8.81692 3.21283 8.45164 3.21283H4.91503V7.14792H8.10296ZM4.91503 14.4453H8.20258C8.68409 14.4453 9.1905 14.4204 9.72182 14.3706C10.2697 14.3042 10.7347 14.1298 11.1165 13.8475C11.349 13.6649 11.5399 13.4408 11.6894 13.1751C11.8388 12.8928 11.9135 12.5442 11.9135 12.1291C11.9135 11.7472 11.8305 11.4234 11.6645 11.1577C11.4984 10.8921 11.2909 10.6928 11.0418 10.56C10.7596 10.3774 10.4358 10.2694 10.0705 10.2362C9.72182 10.203 9.35654 10.1864 8.97466 10.1864L4.91503 10.2113V14.4453Z" fill="#000C19"/>
<path d="M34.6543 3.21283V0H50.3237V3.21283H43.7947V17.6332H40.1834V3.21283H34.6543Z" fill="#000C19"/>
<path d="M30.4581 7.32227H19.0015V17.6332H31.6037V14.4453H22.6128V10.5351H30.4581V7.32227Z" fill="#000C19"/>
<path d="M31.6037 3.21283V0H19.0015V3.21283H31.6037Z" fill="#285FE0"/>
<path d="M31.6023 25V28.2128H22.6113V32.3223H30.4566V35.5351H22.6113V39.4453H31.6023V42.6332H19V25H31.6023Z" fill="#000C19"/>
<path d="M38.4619 25L46.8302 36.8053V25H50.3668V42.6332H46.9049L38.5366 30.8777V42.6332H35V25H38.4619Z" fill="#000C19"/>
<path d="M53.3742 28.2128V25H68.0437V28.2128H62.5146V42.6332H58.9033V28.2128H53.3742Z" fill="#000C19"/>
<path d="M78.0741 25C78.539 25 79.0039 25.0166 79.4688 25.0498C79.9337 25.0664 80.3903 25.1245 80.8386 25.2241C81.2869 25.3238 81.7186 25.4732 82.1337 25.6725C82.5654 25.8551 82.9639 26.1125 83.3292 26.4445C83.9103 26.9758 84.3254 27.6151 84.5745 28.3623C84.8235 29.0928 84.9398 29.84 84.9232 30.6038C84.9066 31.6332 84.7239 32.5049 84.3752 33.2189C84.0432 33.9328 83.5866 34.5389 83.0054 35.037C82.4741 35.4687 81.8598 35.7758 81.1624 35.9585L85.0726 42.6332H81.0379L77.4764 36.3072H74.662V42.6332H71.0507V25H78.0741ZM78.099 33.2687C78.5473 33.2687 78.9707 33.2272 79.3692 33.1442C79.7677 33.0611 80.1081 32.9283 80.3903 32.7457C80.6892 32.5464 80.9217 32.2891 81.0877 31.9736C81.2703 31.6415 81.3699 31.2264 81.3866 30.7283C81.4032 30.197 81.3285 29.7653 81.1624 29.4332C80.9964 29.1011 80.7639 28.8438 80.465 28.6611C80.1828 28.4785 79.8424 28.3623 79.4439 28.3125C79.062 28.246 78.6386 28.2128 78.1737 28.2128H74.662V33.2687H78.099Z" fill="#000C19"/>
<path d="M100.557 25V28.2128H91.5658V32.3223H99.4111V35.5351H91.5658V39.4453H100.557V42.6332H87.9545V25H100.557Z" fill="#000C19"/>
<path d="M3.71095 33.9909C3.71095 34.7381 3.80227 35.4604 3.98491 36.1577C4.18415 36.8551 4.47472 37.4694 4.85661 38.0008C5.2551 38.5321 5.75321 38.9638 6.35094 39.2958C6.96528 39.6113 7.69585 39.7691 8.54264 39.7691C9.60528 39.7691 10.477 39.5366 11.1577 39.0717C11.8551 38.5902 12.2868 37.926 12.4528 37.0792H15.9396C15.8566 38.0589 15.5992 38.9223 15.1675 39.6694C14.7359 40.4 14.1796 41.0143 13.4989 41.5125C12.8181 42.0106 12.046 42.3842 11.1826 42.6332C10.3192 42.8823 9.42264 43.0068 8.49283 43.0068C7.11472 43.0068 5.89434 42.7826 4.8317 42.3343C3.78566 41.886 2.89736 41.2634 2.16679 40.4664C1.45283 39.6694 0.913203 38.723 0.54792 37.6272C0.182637 36.5313 0 35.3275 0 34.0158C0 32.7374 0.182637 31.5502 0.54792 30.4543C0.929807 29.3419 1.48604 28.3872 2.21661 27.5902C2.94717 26.7766 3.83547 26.1457 4.88151 25.6974C5.94415 25.2325 7.16453 25 8.54264 25C9.50566 25 10.4106 25.1162 11.2574 25.3487C12.1042 25.5811 12.8596 25.9381 13.5238 26.4196C14.1879 26.9011 14.7275 27.5238 15.1426 28.2875C15.5743 29.0347 15.84 29.9313 15.9396 30.9774H12.4528C12.2702 30.1306 11.8385 29.4581 11.1577 28.96C10.477 28.4619 9.60528 28.2128 8.54264 28.2128C7.69585 28.2128 6.96528 28.3706 6.35094 28.686C5.75321 28.9849 5.2551 29.4 4.85661 29.9313C4.47472 30.4626 4.18415 31.0853 3.98491 31.7992C3.80227 32.4966 3.71095 33.2272 3.71095 33.9909Z" fill="#000C19"/>
</svg>
