<svg width="72" height="70" fill="none" xmlns="http://www.w3.org/2000/svg"><g clip-path="url(#clip0_58_99)"><path d="M16.241 19.445L6 33.945h59.504l-11.263-14.5h-38z" fill="#E83650"/><g filter="url(#filter0_f_58_99)"><path d="M50.158 32.611h7.403l2.177 2.334h-54l1.307-2.667h7.838v-8.333h35.275v8.666z" fill="#922131"/></g></g><path d="M57.154 3v35.111a3 3 0 01-3 3H16.821a3 3 0 01-3-3V3a3 3 0 013-3h37.333a3 3 0 013 3z" fill="url(#paint0_linear_58_99)"/><path d="M18.29 45.945c7.557-8.49 20.828-8.49 28.385 0L61.562 62.67c1.148 1.29.232 3.33-1.494 3.33H4.898c-1.727 0-2.642-2.04-1.495-3.33L18.29 45.945z" fill="url(#paint1_linear_58_99)"/><mask id="a" style="mask-type:alpha" maskUnits="userSpaceOnUse" x="2" y="39" width="61" height="27"><path d="M18.333 45.945c7.557-8.49 20.828-8.49 28.385 0L61.605 62.67c1.148 1.29.232 3.33-1.494 3.33H4.94c-1.727 0-2.642-2.04-1.495-3.33l14.887-16.725z" fill="url(#paint2_linear_58_99)"/></mask><g filter="url(#filter1_f_58_99)" mask="url(#a)"><path d="M16.483 68l-7.5-15 47 1-7.5 14h-32z" fill="#8CD3B8"/></g><path d="M66.778 33.889H5.308c-2.222 0-3.673 2.331-2.691 4.325L17.44 68.325A3 3 0 0020.132 70h31.822a3 3 0 002.691-1.675L69.47 38.214c.982-1.994-.47-4.325-2.691-4.325z" fill="url(#paint3_linear_58_99)"/><path d="M40.487 56.667l5.556-7.778H24.932l5.555 7.778" stroke="url(#paint4_linear_58_99)" stroke-width="4" stroke-linecap="round" stroke-linejoin="round"/><rect x="20.487" y="11.111" width="21.111" height="4.444" rx="2" fill="url(#paint5_linear_58_99)"/><rect x="20.487" y="22.222" width="12.222" height="4.444" rx="2" fill="url(#paint6_linear_58_99)"/><rect x="34.932" y="22.222" width="6.667" height="4.444" rx="2" fill="url(#paint7_linear_58_99)"/><defs><linearGradient id="paint0_linear_58_99" x1="14.376" y1="0" x2="57.154" y2="35.556" gradientUnits="userSpaceOnUse"><stop stop-color="#81FCC6"/><stop offset="1" stop-color="#6ADAA2"/></linearGradient><linearGradient id="paint1_linear_58_99" x1="-3.569" y1="30" x2="46.28" y2="90.6" gradientUnits="userSpaceOnUse"><stop stop-color="#ABFDE1"/><stop offset="1" stop-color="#90F0CA"/></linearGradient><linearGradient id="paint2_linear_58_99" x1="-3.526" y1="30" x2="46.323" y2="90.6" gradientUnits="userSpaceOnUse"><stop stop-color="#ABFDE1"/><stop offset="1" stop-color="#90F0CA"/></linearGradient><linearGradient id="paint3_linear_58_99" x1="12.154" y1="32.222" x2="54.932" y2="71.667" gradientUnits="userSpaceOnUse"><stop stop-color="#FA8B60"/><stop offset="1" stop-color="#FF3A55"/></linearGradient><linearGradient id="paint4_linear_58_99" x1="27.71" y1="46.111" x2="41.599" y2="60.556" gradientUnits="userSpaceOnUse"><stop stop-color="#FFC7A7"/><stop offset="1" stop-color="#FF9989"/></linearGradient><linearGradient id="paint5_linear_58_99" x1="23.821" y1="10" x2="39.932" y2="17.778" gradientUnits="userSpaceOnUse"><stop stop-color="#C7FFF4"/><stop offset="1" stop-color="#9EFFD7"/></linearGradient><linearGradient id="paint6_linear_58_99" x1="22.417" y1="21.111" x2="33.085" y2="24.093" gradientUnits="userSpaceOnUse"><stop stop-color="#C7FFF4"/><stop offset="1" stop-color="#9EFFD7"/></linearGradient><linearGradient id="paint7_linear_58_99" x1="35.984" y1="21.111" x2="42.115" y2="22.046" gradientUnits="userSpaceOnUse"><stop stop-color="#C7FFF4"/><stop offset="1" stop-color="#9EFFD7"/></linearGradient><filter id="filter0_f_58_99" x="1.738" y="19.945" width="62" height="19" filterUnits="userSpaceOnUse" color-interpolation-filters="sRGB"><feFlood flood-opacity="0" result="BackgroundImageFix"/><feBlend in="SourceGraphic" in2="BackgroundImageFix" result="shape"/><feGaussianBlur stdDeviation="2" result="effect1_foregroundBlur_58_99"/></filter><filter id="filter1_f_58_99" x="5.983" y="50" width="53" height="21" filterUnits="userSpaceOnUse" color-interpolation-filters="sRGB"><feFlood flood-opacity="0" result="BackgroundImageFix"/><feBlend in="SourceGraphic" in2="BackgroundImageFix" result="shape"/><feGaussianBlur stdDeviation="1.5" result="effect1_foregroundBlur_58_99"/></filter><clipPath id="clip0_58_99"><path fill="#fff" transform="translate(2.997 19.445)" d="M0 0h66.115v16.111H0z"/></clipPath></defs></svg>