<svg width="69" height="71" fill="none" xmlns="http://www.w3.org/2000/svg"><path d="M65.667 35.42c1.841 0 3.35 1.496 3.172 3.328a34.438 34.438 0 01-68.55 0c-.179-1.832 1.33-3.328 3.17-3.328h62.208z" fill="url(#paint0_linear_58_141)"/><circle cx="54.559" cy="57.638" r="13.33" fill="url(#paint1_linear_58_141)"/><g filter="url(#filter0_d_58_141)"><circle cx="54.559" cy="57.637" r="6.665" fill="url(#paint2_linear_58_141)"/></g><path d="M9.961 45.418a30.548 30.548 0 0012.344 14.384" stroke="#D69DFF" stroke-opacity=".7" stroke-width="4.443" stroke-linecap="round"/><path d="M9.014 13.203A8.887 8.887 0 0117.9 4.317h22.217a8.887 8.887 0 018.887 8.886V35.42H9.014V13.203z" fill="url(#paint3_linear_58_141)"/><path d="M49.005 13.203h3.332c5.522 0 9.998 4.477 9.998 9.998v12.22h-13.33V13.202z" fill="url(#paint4_linear_58_141)"/><g filter="url(#filter1_d_58_141)"><path d="M26.53 14.314c.855-1.481 2.993-1.481 3.848 0l6.253 10.831c.855 1.481-.214 3.332-1.924 3.332H22.201c-1.71 0-2.78-1.85-1.925-3.332l6.254-10.83z" fill="url(#paint5_linear_58_141)"/></g><defs><linearGradient id="paint0_linear_58_141" x1="11.236" y1="32.088" x2="45.672" y2="72.634" gradientUnits="userSpaceOnUse"><stop stop-color="#AD62EB"/><stop offset="1" stop-color="#803AFF"/></linearGradient><linearGradient id="paint1_linear_58_141" x1="49.56" y1="44.307" x2="59.558" y2="70.968" gradientUnits="userSpaceOnUse"><stop stop-color="#FD8F6A"/><stop offset="1" stop-color="#FF3D5B"/></linearGradient><linearGradient id="paint2_linear_58_141" x1="52.337" y1="52.083" x2="57.891" y2="63.192" gradientUnits="userSpaceOnUse"><stop stop-color="#FF8A87"/><stop offset="1" stop-color="#FF8A68"/></linearGradient><linearGradient id="paint3_linear_58_141" x1="18.456" y1="4.317" x2="35.674" y2="37.087" gradientUnits="userSpaceOnUse"><stop stop-color="#F98957"/><stop offset="1" stop-color="#FB3A54"/></linearGradient><linearGradient id="paint4_linear_58_141" x1="55.67" y1="13.203" x2="55.67" y2="35.42" gradientUnits="userSpaceOnUse"><stop stop-color="#F7D460"/><stop offset="1" stop-color="#F9B97A"/></linearGradient><linearGradient id="paint5_linear_58_141" x1="24.566" y1="12.926" x2="34.286" y2="32.365" gradientUnits="userSpaceOnUse"><stop stop-color="#FFC19C"/><stop offset="1" stop-color="#FC877E"/></linearGradient><filter id="filter0_d_58_141" x="45.672" y="49.861" width="17.774" height="17.774" filterUnits="userSpaceOnUse" color-interpolation-filters="sRGB"><feFlood flood-opacity="0" result="BackgroundImageFix"/><feColorMatrix in="SourceAlpha" values="0 0 0 0 0 0 0 0 0 0 0 0 0 0 0 0 0 0 127 0" result="hardAlpha"/><feOffset dy="1.111"/><feGaussianBlur stdDeviation="1.111"/><feComposite in2="hardAlpha" operator="out"/><feColorMatrix values="0 0 0 0 0.7875 0 0 0 0 0.149381 0 0 0 0 0.141094 0 0 0 0.6 0"/><feBlend in2="BackgroundImageFix" result="effect1_dropShadow_58_141"/><feBlend in="SourceGraphic" in2="effect1_dropShadow_58_141" result="shape"/></filter><filter id="filter1_d_58_141" x="17.754" y="12.092" width="21.4" height="19.718" filterUnits="userSpaceOnUse" color-interpolation-filters="sRGB"><feFlood flood-opacity="0" result="BackgroundImageFix"/><feColorMatrix in="SourceAlpha" values="0 0 0 0 0 0 0 0 0 0 0 0 0 0 0 0 0 0 127 0" result="hardAlpha"/><feOffset dy="1.111"/><feGaussianBlur stdDeviation="1.111"/><feComposite in2="hardAlpha" operator="out"/><feColorMatrix values="0 0 0 0 0.7875 0 0 0 0 0.149381 0 0 0 0 0.141094 0 0 0 0.6 0"/><feBlend in2="BackgroundImageFix" result="effect1_dropShadow_58_141"/><feBlend in="SourceGraphic" in2="effect1_dropShadow_58_141" result="shape"/></filter></defs></svg>