<svg width="80" height="70" fill="none" xmlns="http://www.w3.org/2000/svg"><path d="M72.252 6.261l5.943 56c.439 4.135-2.802 7.739-6.96 7.739H39.748c-4.158 0-7.4-3.604-6.96-7.739l5.942-56A7 7 0 0145.692 0h19.6a7 7 0 016.96 6.261z" fill="url(#paint0_linear_58_125)"/><mask id="a" style="mask-type:alpha" maskUnits="userSpaceOnUse" x="32" y="0" width="47" height="70"><path d="M72.252 6.261l5.943 56c.439 4.135-2.802 7.739-6.96 7.739H39.748c-4.158 0-7.4-3.604-6.96-7.739l5.942-56A7 7 0 0145.692 0h19.6a7 7 0 016.96 6.261z" fill="url(#paint1_linear_58_125)"/></mask><g mask="url(#a)"><path fill="url(#paint2_linear_58_125)" d="M27.377 55.082h53.934V70H27.377z"/></g><path d="M52.514 70H7.977c-3.677 0-6.49-3.278-5.93-6.912l5.04-32.755a6 6 0 015.93-5.087h34.458a6 6 0 015.93 5.088l5.04 32.754c.559 3.634-2.253 6.912-5.93 6.912z" fill="url(#paint3_linear_58_125)"/><path d="M42.295 34.426v-15.62c0-5.95-5.138-10.773-11.475-10.773-6.338 0-11.476 4.823-11.476 10.773v15.62" stroke="url(#paint4_linear_58_125)" stroke-width="5" stroke-linecap="round" stroke-linejoin="round"/><path d="M19.344 45.902c0 6.337 5.138 11.475 11.476 11.475 6.337 0 11.475-5.138 11.475-11.475" stroke="url(#paint5_linear_58_125)" stroke-width="5" stroke-linecap="round" stroke-linejoin="round"/><defs><linearGradient id="paint0_linear_58_125" x1="55.492" y1="0" x2="77.295" y2="70" gradientUnits="userSpaceOnUse"><stop stop-color="#C49BF7"/><stop offset="1" stop-color="#8A51F0"/></linearGradient><linearGradient id="paint1_linear_58_125" x1="76.147" y1="61.967" x2="57.213" y2="62.541" gradientUnits="userSpaceOnUse"><stop stop-color="#BE9AF4"/><stop offset=".701" stop-color="#AA88F9"/><stop offset="1" stop-color="#AB79D2"/></linearGradient><linearGradient id="paint2_linear_58_125" x1="78.023" y1="68.288" x2="56.86" y2="71.738" gradientUnits="userSpaceOnUse"><stop stop-color="#BE9AF4"/><stop offset=".701" stop-color="#AA88F9"/><stop offset="1" stop-color="#AB79D2"/></linearGradient><linearGradient id="paint3_linear_58_125" x1="19.918" y1="25.246" x2="42.295" y2="72.295" gradientUnits="userSpaceOnUse"><stop stop-color="#F4E42C"/><stop offset="1" stop-color="#FBA919"/></linearGradient><linearGradient id="paint4_linear_58_125" x1="30.82" y1="8.033" x2="30.82" y2="34.426" gradientUnits="userSpaceOnUse"><stop stop-color="#AB3007"/><stop offset="1" stop-color="#D06A06"/></linearGradient><linearGradient id="paint5_linear_58_125" x1="30.82" y1="57.377" x2="30.82" y2="45.902" gradientUnits="userSpaceOnUse"><stop stop-color="#FE9A2B"/><stop offset=".984" stop-color="#EB8928"/></linearGradient></defs></svg>