<svg width="66" height="71" fill="none" xmlns="http://www.w3.org/2000/svg"><g clip-path="url(#clip0_58_114)"><rect x=".126" y="22.44" width="40" height="45" rx="6" fill="#FF742C"/><g filter="url(#filter0_f_58_114)"><rect x="10.126" y="17.44" width="40" height="50" rx="6" fill="#AD4915"/></g></g><path d="M11.79 10.412a6 6 0 016-6h24.564a6 6 0 014.025 1.55l9.42 8.524 8.076 7.225a6 6 0 012 4.472V64.16a6 6 0 01-6 6H17.79a6 6 0 01-6-6V10.412z" fill="url(#paint0_linear_58_114)"/><g filter="url(#filter1_f_58_114)"><path d="M43.605 24.56l1.06-15.376 7.423 6.893 6.363 7.423-14.846 1.06z" fill="#DEC94D"/></g><path d="M47.447 23.5a3 3 0 01-3-3V4.412L65.656 23.5h-18.21z" fill="url(#paint1_linear_58_114)"/><rect x="21.335" y="30.923" width="31.814" height="15.907" rx="3" fill="url(#paint2_linear_58_114)"/><rect x="21.335" y="19.258" width="11.665" height="4.242" rx="2.121" fill="url(#paint3_linear_58_114)"/><rect x="21.335" y="54.253" width="16.967" height="4.242" rx="2.121" fill="url(#paint4_linear_58_114)"/><rect x="44.665" y="54.253" width="8.484" height="4.242" rx="2.121" fill="url(#paint5_linear_58_114)"/><defs><linearGradient id="paint0_linear_58_114" x1="14.972" y1="6.002" x2="63.753" y2="70.16" gradientUnits="userSpaceOnUse"><stop offset=".008" stop-color="#FFDE2F"/><stop offset="1" stop-color="#FEAC1D"/></linearGradient><linearGradient id="paint1_linear_58_114" x1="45.725" y1="22.439" x2="55.8" y2="12.365" gradientUnits="userSpaceOnUse"><stop stop-color="#FFF8B9"/><stop offset="1" stop-color="#FEC326"/></linearGradient><linearGradient id="paint2_linear_58_114" x1="37.242" y1="30.923" x2="37.242" y2="46.83" gradientUnits="userSpaceOnUse"><stop stop-color="#FF8231"/><stop offset="1" stop-color="#FF8231" stop-opacity=".37"/></linearGradient><linearGradient id="paint3_linear_58_114" x1="27.168" y1="19.258" x2="27.168" y2="23.5" gradientUnits="userSpaceOnUse"><stop stop-color="#FF8231"/><stop offset="1" stop-color="#FF8231" stop-opacity=".37"/></linearGradient><linearGradient id="paint4_linear_58_114" x1="29.819" y1="54.253" x2="29.819" y2="58.495" gradientUnits="userSpaceOnUse"><stop stop-color="#FF8231"/><stop offset="1" stop-color="#FF8231" stop-opacity=".37"/></linearGradient><linearGradient id="paint5_linear_58_114" x1="48.907" y1="54.253" x2="48.907" y2="58.495" gradientUnits="userSpaceOnUse"><stop stop-color="#FF8231"/><stop offset="1" stop-color="#FF8231" stop-opacity=".37"/></linearGradient><filter id="filter0_f_58_114" x="6.126" y="13.44" width="48" height="58" filterUnits="userSpaceOnUse" color-interpolation-filters="sRGB"><feFlood flood-opacity="0" result="BackgroundImageFix"/><feBlend in="SourceGraphic" in2="BackgroundImageFix" result="shape"/><feGaussianBlur stdDeviation="2" result="effect1_foregroundBlur_58_114"/></filter><filter id="filter1_f_58_114" x="39.605" y="5.184" width="22.846" height="23.377" filterUnits="userSpaceOnUse" color-interpolation-filters="sRGB"><feFlood flood-opacity="0" result="BackgroundImageFix"/><feBlend in="SourceGraphic" in2="BackgroundImageFix" result="shape"/><feGaussianBlur stdDeviation="2" result="effect1_foregroundBlur_58_114"/></filter><clipPath id="clip0_58_114"><path fill="#fff" transform="translate(.126 22.44)" d="M0 0h42.418v47.721H0z"/></clipPath></defs></svg>