<svg width="72" height="73" fill="none" xmlns="http://www.w3.org/2000/svg"><path d="M71.823 50.803c0 6.638-6.034 11.642-12.557 10.414l-28.607-5.385a11.774 11.774 0 01-9.562-10.677l-2.472-32.487C18.105 5.833 23.511 0 30.365 0h21.441c11.055 0 20.017 8.962 20.017 20.016v30.787z" fill="url(#paint0_linear_58_149)"/><g filter="url(#filter0_f_58_149)"><path d="M52.984 11.774H18.839l1.675 5.626 36.863 45.003 5.026-2.813V21.194a9.42 9.42 0 00-9.42-9.419z" fill="url(#paint1_linear_58_149)"/></g><path d="M0 21.194a9.42 9.42 0 019.42-9.42h41.209a9.42 9.42 0 019.42 9.42v36.963c0 6.905-7.183 11.463-13.43 8.523l-13.587-6.394a7.064 7.064 0 00-6.016 0L13.43 66.68C7.183 69.62 0 65.062 0 58.157V21.194z" fill="url(#paint2_linear_58_149)"/><g filter="url(#filter1_d_58_149)"><path d="M27.246 24.737c1.043-3.285 5.691-3.285 6.734 0l1.914 6.032h6.423c3.401 0 4.837 4.336 2.108 6.367l-5.267 3.917 1.968 6.201c1.037 3.269-2.723 5.95-5.475 3.903l-5.038-3.748-5.038 3.748c-2.752 2.047-6.512-.634-5.475-3.903l1.968-6.2-5.267-3.918c-2.73-2.03-1.293-6.367 2.108-6.367h6.423l1.914-6.032z" fill="url(#paint3_linear_58_149)"/></g><defs><linearGradient id="paint0_linear_58_149" x1="62.403" y1="63.581" x2="25.314" y2="0" gradientUnits="userSpaceOnUse"><stop stop-color="#F78C5E"/><stop offset="1" stop-color="#FB5466"/></linearGradient><linearGradient id="paint1_linear_58_149" x1="31.908" y1="11.774" x2="67.589" y2="74.522" gradientUnits="userSpaceOnUse"><stop stop-color="#BE3D5C"/><stop offset="1" stop-color="#BE3D5C" stop-opacity="0"/></linearGradient><linearGradient id="paint2_linear_58_149" x1="15.895" y1="10.597" x2="45.331" y2="71.234" gradientUnits="userSpaceOnUse"><stop stop-color="#95FFD4"/><stop offset=".53" stop-color="#6CEEB9"/><stop offset="1" stop-color="#48DEA1"/></linearGradient><linearGradient id="paint3_linear_58_149" x1="28.258" y1="22.371" x2="37.089" y2="54.75" gradientUnits="userSpaceOnUse"><stop stop-color="#BFFFE8"/><stop offset="1" stop-color="#F5FFFC"/></linearGradient><filter id="filter0_f_58_149" x="14.129" y="7.064" width="52.984" height="60.048" filterUnits="userSpaceOnUse" color-interpolation-filters="sRGB"><feFlood flood-opacity="0" result="BackgroundImageFix"/><feBlend in="SourceGraphic" in2="BackgroundImageFix" result="shape"/><feGaussianBlur stdDeviation="2.355" result="effect1_foregroundBlur_58_149"/></filter><filter id="filter1_d_58_149" x="13.015" y="21.096" width="35.196" height="34.307" filterUnits="userSpaceOnUse" color-interpolation-filters="sRGB"><feFlood flood-opacity="0" result="BackgroundImageFix"/><feColorMatrix in="SourceAlpha" values="0 0 0 0 0 0 0 0 0 0 0 0 0 0 0 0 0 0 127 0" result="hardAlpha"/><feOffset dy="1.177"/><feGaussianBlur stdDeviation="1.177"/><feComposite in2="hardAlpha" operator="out"/><feColorMatrix values="0 0 0 0 0.301806 0 0 0 0 0.683333 0 0 0 0 0.526969 0 0 0 1 0"/><feBlend in2="BackgroundImageFix" result="effect1_dropShadow_58_149"/><feBlend in="SourceGraphic" in2="effect1_dropShadow_58_149" result="shape"/></filter></defs></svg>