<svg width="69" height="70" fill="none" xmlns="http://www.w3.org/2000/svg"><g clip-path="url(#clip0_58_154)"><rect x="41.111" y="14.444" width="27.778" height="55.556" rx="7.778" fill="url(#paint0_linear_58_154)"/><g filter="url(#filter0_f_58_154)"><rect x="47.778" y="16.667" width="10" height="53.333" rx="5" fill="#6B24D3"/></g></g><path d="M0 7.778A7.778 7.778 0 017.778 0h40a7.778 7.778 0 017.778 7.778v54.444A7.778 7.778 0 0147.778 70h-8.291a4.421 4.421 0 01-2.382-.697l-2.229-1.427a.285.285 0 00-.308 0l-.393.252a11.867 11.867 0 01-12.794 0l-.394-.252a.285.285 0 00-.308 0l-2.228 1.427a4.42 4.42 0 01-2.383.697h-8.29A7.778 7.778 0 010 62.222V7.778z" fill="url(#paint1_linear_58_154)"/><g filter="url(#filter1_d_58_154)"><path d="M25.556 39.444H16.47c-2.47 0-4.082-2.591-2.99-4.806l10.197-20.694C25.236 10.779 30 11.889 30 15.417v14.027h9.086c2.47 0 4.081 2.592 2.99 4.807L31.879 54.945c-1.56 3.165-6.323 2.055-6.323-1.473V39.444z" fill="url(#paint2_linear_58_154)"/></g><rect x="32.222" y="12.222" width="10" height="4.444" rx="2.222" fill="#9AEFFF"/><rect x="12.222" y="52.222" width="10" height="4.444" rx="2.222" fill="#9AEFFF"/><defs><linearGradient id="paint0_linear_58_154" x1="55.556" y1="14.444" x2="60" y2="71.111" gradientUnits="userSpaceOnUse"><stop stop-color="#A160F0"/><stop offset="1" stop-color="#8130FB"/></linearGradient><linearGradient id="paint1_linear_58_154" x1="6.111" y1="0" x2="34.444" y2="70" gradientUnits="userSpaceOnUse"><stop stop-color="#68E0F8"/><stop offset="1" stop-color="#19AFFC"/></linearGradient><linearGradient id="paint2_linear_58_154" x1="27.778" y1="10.556" x2="27.778" y2="58.333" gradientUnits="userSpaceOnUse"><stop stop-color="#E2FFFF"/><stop offset="1" stop-color="#68CDFD"/></linearGradient><filter id="filter0_f_58_154" x="43.333" y="12.222" width="18.889" height="62.222" filterUnits="userSpaceOnUse" color-interpolation-filters="sRGB"><feFlood flood-opacity="0" result="BackgroundImageFix"/><feBlend in="SourceGraphic" in2="BackgroundImageFix" result="shape"/><feGaussianBlur stdDeviation="2.222" result="effect1_foregroundBlur_58_154"/></filter><filter id="filter1_d_58_154" x="9.799" y="9.857" width="35.958" height="51.398" filterUnits="userSpaceOnUse" color-interpolation-filters="sRGB"><feFlood flood-opacity="0" result="BackgroundImageFix"/><feColorMatrix in="SourceAlpha" values="0 0 0 0 0 0 0 0 0 0 0 0 0 0 0 0 0 0 127 0" result="hardAlpha"/><feOffset dy="1.111"/><feGaussianBlur stdDeviation="1.667"/><feComposite in2="hardAlpha" operator="out"/><feColorMatrix values="0 0 0 0 0 0 0 0 0 0.330667 0 0 0 0 0.516667 0 0 0 0.25 0"/><feBlend in2="BackgroundImageFix" result="effect1_dropShadow_58_154"/><feBlend in="SourceGraphic" in2="effect1_dropShadow_58_154" result="shape"/></filter><clipPath id="clip0_58_154"><path fill="#fff" transform="translate(41.111 14.444)" d="M0 0h27.778v55.556H0z"/></clipPath></defs></svg>