<svg width="67" height="67" fill="none" xmlns="http://www.w3.org/2000/svg"><g clip-path="url(#clip0_58_162)"><path d="M0 19.143A9.571 9.571 0 019.571 9.57h28.715c5.873 0 10.635 4.762 10.635 10.635v36.16C48.92 62.238 44.159 67 38.286 67H18.079C8.094 67 0 58.906 0 48.92V19.144z" fill="url(#paint0_linear_58_162)"/><g filter="url(#filter0_f_58_162)"><path d="M17.016 57.429h34.032l-1.637-4.963-35.995-39.704-4.908 2.481v33.678a8.508 8.508 0 008.508 8.508z" fill="url(#paint1_linear_58_162)"/></g></g><path d="M18.08 0a8.508 8.508 0 00-8.51 8.508v38.286a8.508 8.508 0 008.508 8.508h32.969a8.508 8.508 0 008.508-8.508V20.999c0-1.892.63-3.73 1.792-5.224l4.318-5.552a6.334 6.334 0 00-5-10.223H18.078z" fill="url(#paint2_linear_58_162)"/><path d="M35.096 25.156c2.998-2.427 7.63-2.346 10.518.263 2.887 2.61 2.987 6.765.302 9.476l-8.684 7.84a3.19 3.19 0 01-4.276 0l-8.682-7.84c-2.685-2.71-2.584-6.874.302-9.477 2.89-2.605 7.514-2.692 10.52-.262z" fill="url(#paint3_linear_58_162)"/><rect x="21.27" y="10.635" width="27.651" height="5.317" rx="2.659" fill="url(#paint4_linear_58_162)"/><defs><linearGradient id="paint0_linear_58_162" x1="8.508" y1="9.571" x2="42.008" y2="67" gradientUnits="userSpaceOnUse"><stop stop-color="#F78C5E"/><stop offset="1" stop-color="#FB5466"/></linearGradient><linearGradient id="paint1_linear_58_162" x1="38.286" y1="57.429" x2="8.508" y2="-.532" gradientUnits="userSpaceOnUse"><stop stop-color="#BE3D5C"/><stop offset="1" stop-color="#BE3D5C" stop-opacity="0"/></linearGradient><linearGradient id="paint2_linear_58_162" x1="29.246" y1="0" x2="51.579" y2="57.429" gradientUnits="userSpaceOnUse"><stop stop-color="#86EBFF"/><stop offset="1" stop-color="#18B1F4"/></linearGradient><linearGradient id="paint3_linear_58_162" x1="30.628" y1="23.397" x2="35.879" y2="45.527" gradientUnits="userSpaceOnUse"><stop stop-color="#D3FFFF"/><stop offset="1" stop-color="#A5E5F4"/></linearGradient><linearGradient id="paint4_linear_58_162" x1="30.256" y1="10.635" x2="30.575" y2="16.462" gradientUnits="userSpaceOnUse"><stop stop-color="#D3FFFF"/><stop offset="1" stop-color="#A5E5F4"/></linearGradient><clipPath id="clip0_58_162"><path fill="#fff" transform="translate(0 9.571)" d="M0 0h48.921v57.429H0z"/></clipPath><filter id="filter0_f_58_162" x="4.254" y="8.508" width="51.048" height="53.175" filterUnits="userSpaceOnUse" color-interpolation-filters="sRGB"><feFlood flood-opacity="0" result="BackgroundImageFix"/><feBlend in="SourceGraphic" in2="BackgroundImageFix" result="shape"/><feGaussianBlur stdDeviation="2.127" result="effect1_foregroundBlur_58_162"/></filter></defs></svg>