<svg width="70" height="67" fill="none" xmlns="http://www.w3.org/2000/svg"><rect x=".951" y="10.984" width="68.098" height="45.033" rx="7.689" fill="url(#paint0_linear_33_125)"/><path stroke="url(#paint1_linear_33_125)" stroke-width="4.393" stroke-linecap="round" d="M19.623 23.066v20.868"/><path stroke="url(#paint2_linear_33_125)" stroke-width="4.393" stroke-linecap="round" d="M35 23.066v20.868"/><path stroke="url(#paint3_linear_33_125)" stroke-width="4.393" stroke-linecap="round" d="M50.377 23.066v20.868"/><circle cx="19.623" cy="31.852" r="4.393" stroke="url(#paint4_linear_33_125)" stroke-width="4.393"/><circle cx="35" cy="24.164" r="4.393" stroke="url(#paint5_linear_33_125)" stroke-width="4.393"/><circle cx="50.377" cy="41.738" r="4.393" stroke="url(#paint6_linear_33_125)" stroke-width="4.393"/><rect x="14.131" width="41.738" height="5.492" rx="2.746" fill="url(#paint7_linear_33_125)"/><path d="M17.657 56.016h34.686l2.698 6.41c.915 2.172-.68 4.574-3.036 4.574h-34.01c-2.356 0-3.95-2.402-3.036-4.574l2.698-6.41z" fill="url(#paint8_linear_33_125)"/><path fill="url(#paint9_linear_33_125)" d="M22.918 5.492h24.164v5.492H22.918z"/><defs><linearGradient id="paint0_linear_33_125" x1="16.877" y1="12.082" x2="49.828" y2="56.016" gradientUnits="userSpaceOnUse"><stop stop-color="#FBE335"/><stop offset="1" stop-color="#FFAC16"/></linearGradient><linearGradient id="paint1_linear_33_125" x1="17.426" y1="33.5" x2="16.426" y2="33.5" gradientUnits="userSpaceOnUse"><stop stop-color="#F5A81E"/><stop offset="1" stop-color="#F89E23"/></linearGradient><linearGradient id="paint2_linear_33_125" x1="32.803" y1="33.5" x2="31.803" y2="33.5" gradientUnits="userSpaceOnUse"><stop stop-color="#F5A81E"/><stop offset="1" stop-color="#F89E23"/></linearGradient><linearGradient id="paint3_linear_33_125" x1="48.18" y1="33.5" x2="47.18" y2="33.5" gradientUnits="userSpaceOnUse"><stop stop-color="#F5A81E"/><stop offset="1" stop-color="#F89E23"/></linearGradient><linearGradient id="paint4_linear_33_125" x1="16.877" y1="25.262" x2="22.369" y2="38.443" gradientUnits="userSpaceOnUse"><stop stop-color="#FFFEDD"/><stop offset="1" stop-color="#FFED98"/></linearGradient><linearGradient id="paint5_linear_33_125" x1="32.254" y1="17.574" x2="37.746" y2="30.754" gradientUnits="userSpaceOnUse"><stop stop-color="#FFFEDD"/><stop offset="1" stop-color="#FFED98"/></linearGradient><linearGradient id="paint6_linear_33_125" x1="47.631" y1="35.148" x2="53.123" y2="48.328" gradientUnits="userSpaceOnUse"><stop stop-color="#FFFEDD"/><stop offset="1" stop-color="#FFED98"/></linearGradient><linearGradient id="paint7_linear_33_125" x1="21.82" y1="0" x2="53.123" y2="6.59" gradientUnits="userSpaceOnUse"><stop stop-color="#915ADA"/><stop offset="1" stop-color="#7541FD"/></linearGradient><linearGradient id="paint8_linear_33_125" x1="35" y1="56.016" x2="35" y2="67" gradientUnits="userSpaceOnUse"><stop stop-color="#BD5966"/><stop offset=".188" stop-color="#EE6558"/><stop offset=".404" stop-color="#EF675F"/><stop offset=".906" stop-color="#ED6243"/><stop offset="1" stop-color="#CC5231"/></linearGradient><linearGradient id="paint9_linear_33_125" x1="35" y1="5.492" x2="35" y2="10.984" gradientUnits="userSpaceOnUse"><stop stop-color="#F06B7C"/><stop offset="1" stop-color="#ED613B"/></linearGradient></defs></svg>