<svg width="325" height="370" viewBox="0 0 325 370" fill="none" xmlns="http://www.w3.org/2000/svg">
<path fill-rule="evenodd" clip-rule="evenodd" d="M9.99999 366.755L315 366.755C318.73 366.755 321.755 363.731 321.755 360L321.755 10C321.755 6.2692 318.731 3.24476 315 3.24476L10 3.24473C6.2692 3.24473 3.24476 6.26917 3.24476 9.99999L3.24473 360C3.24473 363.731 6.26916 366.755 9.99999 366.755ZM315 370C320.523 370 325 365.523 325 360L325 10C325 4.47718 320.523 2.71467e-05 315 2.66639e-05L10 0C4.47718 0 3.10808e-05 4.47715 3.0598e-05 9.99999L0 360C0 365.523 4.47714 370 9.99999 370L315 370Z" fill="url(#paint0_radial_322_5)"/>
<path fill-rule="evenodd" clip-rule="evenodd" d="M9.99999 366.755L315 366.755C318.73 366.755 321.755 363.731 321.755 360L321.755 10C321.755 6.2692 318.731 3.24476 315 3.24476L10 3.24473C6.2692 3.24473 3.24476 6.26917 3.24476 9.99999L3.24473 360C3.24473 363.731 6.26916 366.755 9.99999 366.755ZM315 370C320.523 370 325 365.523 325 360L325 10C325 4.47718 320.523 2.71467e-05 315 2.66639e-05L10 0C4.47718 0 3.10808e-05 4.47715 3.0598e-05 9.99999L0 360C0 365.523 4.47714 370 9.99999 370L315 370Z" fill="url(#paint1_radial_322_5)"/>
<defs>
<radialGradient id="paint0_radial_322_5" cx="0" cy="0" r="1" gradientUnits="userSpaceOnUse" gradientTransform="translate(162.5 366.636) rotate(-90) scale(321.227 282.159)">
<stop stop-color="white"/>
<stop offset="1" stop-color="white" stop-opacity="0"/>
</radialGradient>
<radialGradient id="paint1_radial_322_5" cx="0" cy="0" r="1" gradientUnits="userSpaceOnUse" gradientTransform="translate(162.5 -1.16086e-05) rotate(90) scale(185 162.5)">
<stop stop-color="white"/>
<stop offset="1" stop-color="white" stop-opacity="0"/>
</radialGradient>
</defs>
</svg>
