<svg width="24" height="24" viewBox="0 0 24 24" fill="none" xmlns="http://www.w3.org/2000/svg">
<g id="Frame 2377">
<g id="Ellipse 1">
<mask id="path-1-inside-1_938_6" fill="white">
<path d="M22.1578 12C22.1578 13.9778 21.5713 15.9112 20.4725 17.5557C19.3737 19.2002 17.8119 20.4819 15.9847 21.2388C14.1574 21.9957 12.1467 22.1937 10.2069 21.8079C8.26712 21.422 6.48529 20.4696 5.08677 19.0711C3.68824 17.6725 2.73584 15.8907 2.34998 13.9509C1.96413 12.0111 2.16217 10.0004 2.91904 8.17317C3.67592 6.3459 4.95764 4.78412 6.60213 3.6853C8.24663 2.58649 10.18 2 12.1578 2V4C10.5756 4 9.02887 4.46919 7.71327 5.34824C6.39768 6.22729 5.3723 7.47672 4.7668 8.93853C4.1613 10.4003 4.00287 12.0089 4.31155 13.5607C4.62024 15.1126 5.38216 16.538 6.50098 17.6569C7.6198 18.7757 9.04527 19.5376 10.5971 19.8463C12.149 20.155 13.7575 19.9965 15.2193 19.391C16.6811 18.7855 17.9305 17.7602 18.8096 16.4446C19.6886 15.129 20.1578 13.5823 20.1578 12H22.1578Z"/>
</mask>
<path d="M22.1578 12C22.1578 13.9778 21.5713 15.9112 20.4725 17.5557C19.3737 19.2002 17.8119 20.4819 15.9847 21.2388C14.1574 21.9957 12.1467 22.1937 10.2069 21.8079C8.26712 21.422 6.48529 20.4696 5.08677 19.0711C3.68824 17.6725 2.73584 15.8907 2.34998 13.9509C1.96413 12.0111 2.16217 10.0004 2.91904 8.17317C3.67592 6.3459 4.95764 4.78412 6.60213 3.6853C8.24663 2.58649 10.18 2 12.1578 2V4C10.5756 4 9.02887 4.46919 7.71327 5.34824C6.39768 6.22729 5.3723 7.47672 4.7668 8.93853C4.1613 10.4003 4.00287 12.0089 4.31155 13.5607C4.62024 15.1126 5.38216 16.538 6.50098 17.6569C7.6198 18.7757 9.04527 19.5376 10.5971 19.8463C12.149 20.155 13.7575 19.9965 15.2193 19.391C16.6811 18.7855 17.9305 17.7602 18.8096 16.4446C19.6886 15.129 20.1578 13.5823 20.1578 12H22.1578Z" stroke="#181D22" stroke-width="4" mask="url(#path-1-inside-1_938_6)"/>
</g>
</g>
</svg>
