<svg width="355" height="70" viewBox="0 0 355 70" fill="none" xmlns="http://www.w3.org/2000/svg">
<mask id="path-1-outside-1_251_115" maskUnits="userSpaceOnUse" x="101.432" y="6.29639" width="254" height="56" fill="black">
<rect fill="white" x="101.432" y="6.29639" width="254" height="56"/>
<path d="M105.503 9.01332C108.319 9.01332 110.601 11.2955 110.601 14.1108V59.1984H103.432V9.01332H105.503Z"/>
<path d="M138.222 22.635C141.138 22.635 143.743 23.2563 146.037 24.499C148.379 25.7417 150.219 27.6296 151.557 30.1628C152.943 32.6481 153.636 35.707 153.636 39.3395V59.1984H146.826V39.4829C146.826 36.3284 145.894 33.8191 144.029 31.9551C142.165 30.0911 139.824 29.1591 137.004 29.1591C134.948 29.1591 133.132 29.6609 131.555 30.6646C130.025 31.6205 128.831 32.9349 127.97 34.6077C127.158 36.2806 126.751 38.0968 126.751 40.0564V59.1984H119.941V23.3519H121.296C124.111 23.3519 126.393 25.6341 126.393 28.4494V29.0874C127.731 27.1278 129.428 25.5744 131.483 24.4273C133.586 23.2324 135.833 22.635 138.222 22.635Z"/>
<path d="M181.247 14.7488C177.614 14.7488 175.033 15.4896 173.504 16.9712C171.974 18.4051 171.21 20.532 171.21 23.3519H181.247V24.7069C181.247 27.5221 178.964 29.8043 176.149 29.8043H171.21V59.1984H164.399V29.8043H157.229V28.4494C157.229 25.6341 159.512 23.3519 162.327 23.3519H164.399C164.399 18.429 165.833 14.701 168.7 12.1678C171.568 9.58686 175.75 8.29639 181.247 8.29639V14.7488Z"/>
<path d="M201.776 59.9154C198.239 59.9154 195.013 59.1028 192.097 57.4778C189.182 55.805 186.888 53.5586 185.215 50.7387C183.542 47.8709 182.706 44.7164 182.706 41.2752C182.706 37.8339 183.542 34.7033 185.215 31.8834C186.888 29.0157 189.182 26.7693 192.097 25.1442C195.013 23.4714 198.239 22.635 201.776 22.635C205.265 22.635 208.443 23.4714 211.311 25.1442C214.227 26.7693 216.521 29.0157 218.194 31.8834C219.867 34.7033 220.703 37.8339 220.703 41.2752C220.703 44.7164 219.867 47.8709 218.194 50.7387C216.521 53.5586 214.227 55.805 211.311 57.4778C208.443 59.1028 205.265 59.9154 201.776 59.9154ZM201.776 53.6064C203.975 53.6064 205.982 53.0806 207.798 52.0291C209.614 50.9298 211.048 49.4482 212.1 47.5842C213.151 45.6724 213.677 43.5694 213.677 41.2752C213.677 38.981 213.151 36.9019 212.1 35.0379C211.048 33.1261 209.614 31.6444 207.798 30.5929C205.982 29.4936 203.975 28.944 201.776 28.944C199.53 28.944 197.474 29.4936 195.61 30.5929C193.794 31.6444 192.36 33.1261 191.309 35.0379C190.257 36.9019 189.732 38.981 189.732 41.2752C189.732 43.5694 190.257 45.6724 191.309 47.5842C192.36 49.4482 193.794 50.9298 195.61 52.0291C197.474 53.0806 199.53 53.6064 201.776 53.6064Z"/>
<path d="M271.238 52.3159V59.1984H237.542V9.01332H239.614C242.429 9.01332 244.712 11.2955 244.712 14.1108V52.3159H271.238Z"/>
<path d="M309.249 23.3519V59.1984H307.536C304.721 59.1984 302.439 56.9162 302.439 54.101V53.8215C300.957 55.7333 299.165 57.2388 297.062 58.3381C294.959 59.3896 292.712 59.9154 290.322 59.9154C287.168 59.9154 284.3 59.1267 281.719 57.5495C279.138 55.9245 277.107 53.702 275.625 50.882C274.144 48.0621 273.403 44.8598 273.403 41.2752C273.403 37.6905 274.144 34.4882 275.625 31.6683C277.107 28.8484 279.138 26.6498 281.719 25.0726C284.3 23.4475 287.168 22.635 290.322 22.635C292.808 22.635 295.126 23.2085 297.277 24.3556C299.427 25.5027 301.268 27.1039 302.797 29.1591V23.3519H309.249ZM291.47 53.6064C293.573 53.6064 295.484 53.0806 297.205 52.0291C298.926 50.9776 300.264 49.5199 301.22 47.6559C302.176 45.744 302.654 43.6172 302.654 41.2752C302.654 38.9332 302.176 36.8302 301.22 34.9662C300.264 33.0544 298.926 31.5727 297.205 30.5212C295.484 29.4697 293.573 28.944 291.47 28.944C289.367 28.944 287.479 29.4697 285.806 30.5212C284.133 31.5727 282.819 33.0544 281.863 34.9662C280.907 36.8302 280.429 38.9332 280.429 41.2752C280.429 43.6172 280.907 45.744 281.863 47.6559C282.819 49.5199 284.133 50.9776 285.806 52.0291C287.479 53.0806 289.367 53.6064 291.47 53.6064Z"/>
<path d="M336.079 22.635C339.234 22.635 342.102 23.4475 344.683 25.0726C347.264 26.6498 349.295 28.8484 350.776 31.6683C352.258 34.4882 352.999 37.6905 352.999 41.2752C352.999 44.8598 352.258 48.0621 350.776 50.882C349.295 53.702 347.264 55.9245 344.683 57.5495C342.102 59.1267 339.234 59.9154 336.079 59.9154C333.69 59.9154 331.443 59.3896 329.34 58.3381C327.237 57.2388 325.445 55.7333 323.963 53.8215V54.101C323.963 56.9162 321.681 59.1984 318.866 59.1984H317.152V8.65485H318.507C321.323 8.65485 323.605 10.9371 323.605 13.7523V29.1591C325.134 27.1039 326.974 25.5027 329.125 24.3556C331.276 23.2085 333.594 22.635 336.079 22.635ZM334.932 53.6064C337.035 53.6064 338.923 53.0806 340.596 52.0291C342.269 50.9776 343.583 49.5199 344.539 47.6559C345.495 45.744 345.973 43.6172 345.973 41.2752C345.973 38.9332 345.495 36.8302 344.539 34.9662C343.583 33.0544 342.269 31.5727 340.596 30.5212C338.923 29.4697 337.035 28.944 334.932 28.944C332.829 28.944 330.918 29.4697 329.197 30.5212C327.476 31.5727 326.138 33.0544 325.182 34.9662C324.226 36.8302 323.748 38.9332 323.748 41.2752C323.748 43.6172 324.226 45.744 325.182 47.6559C326.138 49.5199 327.476 50.9776 329.197 52.0291C330.918 53.0806 332.829 53.6064 334.932 53.6064Z"/>
</mask>
<path d="M105.503 9.01332C108.319 9.01332 110.601 11.2955 110.601 14.1108V59.1984H103.432V9.01332H105.503Z" fill="url(#paint0_radial_251_115)"/>
<path d="M138.222 22.635C141.138 22.635 143.743 23.2563 146.037 24.499C148.379 25.7417 150.219 27.6296 151.557 30.1628C152.943 32.6481 153.636 35.707 153.636 39.3395V59.1984H146.826V39.4829C146.826 36.3284 145.894 33.8191 144.029 31.9551C142.165 30.0911 139.824 29.1591 137.004 29.1591C134.948 29.1591 133.132 29.6609 131.555 30.6646C130.025 31.6205 128.831 32.9349 127.97 34.6077C127.158 36.2806 126.751 38.0968 126.751 40.0564V59.1984H119.941V23.3519H121.296C124.111 23.3519 126.393 25.6341 126.393 28.4494V29.0874C127.731 27.1278 129.428 25.5744 131.483 24.4273C133.586 23.2324 135.833 22.635 138.222 22.635Z" fill="url(#paint1_radial_251_115)"/>
<path d="M181.247 14.7488C177.614 14.7488 175.033 15.4896 173.504 16.9712C171.974 18.4051 171.21 20.532 171.21 23.3519H181.247V24.7069C181.247 27.5221 178.964 29.8043 176.149 29.8043H171.21V59.1984H164.399V29.8043H157.229V28.4494C157.229 25.6341 159.512 23.3519 162.327 23.3519H164.399C164.399 18.429 165.833 14.701 168.7 12.1678C171.568 9.58686 175.75 8.29639 181.247 8.29639V14.7488Z" fill="url(#paint2_radial_251_115)"/>
<path d="M201.776 59.9154C198.239 59.9154 195.013 59.1028 192.097 57.4778C189.182 55.805 186.888 53.5586 185.215 50.7387C183.542 47.8709 182.706 44.7164 182.706 41.2752C182.706 37.8339 183.542 34.7033 185.215 31.8834C186.888 29.0157 189.182 26.7693 192.097 25.1442C195.013 23.4714 198.239 22.635 201.776 22.635C205.265 22.635 208.443 23.4714 211.311 25.1442C214.227 26.7693 216.521 29.0157 218.194 31.8834C219.867 34.7033 220.703 37.8339 220.703 41.2752C220.703 44.7164 219.867 47.8709 218.194 50.7387C216.521 53.5586 214.227 55.805 211.311 57.4778C208.443 59.1028 205.265 59.9154 201.776 59.9154ZM201.776 53.6064C203.975 53.6064 205.982 53.0806 207.798 52.0291C209.614 50.9298 211.048 49.4482 212.1 47.5842C213.151 45.6724 213.677 43.5694 213.677 41.2752C213.677 38.981 213.151 36.9019 212.1 35.0379C211.048 33.1261 209.614 31.6444 207.798 30.5929C205.982 29.4936 203.975 28.944 201.776 28.944C199.53 28.944 197.474 29.4936 195.61 30.5929C193.794 31.6444 192.36 33.1261 191.309 35.0379C190.257 36.9019 189.732 38.981 189.732 41.2752C189.732 43.5694 190.257 45.6724 191.309 47.5842C192.36 49.4482 193.794 50.9298 195.61 52.0291C197.474 53.0806 199.53 53.6064 201.776 53.6064Z" fill="url(#paint3_radial_251_115)"/>
<path d="M271.238 52.3159V59.1984H237.542V9.01332H239.614C242.429 9.01332 244.712 11.2955 244.712 14.1108V52.3159H271.238Z" fill="url(#paint4_radial_251_115)"/>
<path d="M309.249 23.3519V59.1984H307.536C304.721 59.1984 302.439 56.9162 302.439 54.101V53.8215C300.957 55.7333 299.165 57.2388 297.062 58.3381C294.959 59.3896 292.712 59.9154 290.322 59.9154C287.168 59.9154 284.3 59.1267 281.719 57.5495C279.138 55.9245 277.107 53.702 275.625 50.882C274.144 48.0621 273.403 44.8598 273.403 41.2752C273.403 37.6905 274.144 34.4882 275.625 31.6683C277.107 28.8484 279.138 26.6498 281.719 25.0726C284.3 23.4475 287.168 22.635 290.322 22.635C292.808 22.635 295.126 23.2085 297.277 24.3556C299.427 25.5027 301.268 27.1039 302.797 29.1591V23.3519H309.249ZM291.47 53.6064C293.573 53.6064 295.484 53.0806 297.205 52.0291C298.926 50.9776 300.264 49.5199 301.22 47.6559C302.176 45.744 302.654 43.6172 302.654 41.2752C302.654 38.9332 302.176 36.8302 301.22 34.9662C300.264 33.0544 298.926 31.5727 297.205 30.5212C295.484 29.4697 293.573 28.944 291.47 28.944C289.367 28.944 287.479 29.4697 285.806 30.5212C284.133 31.5727 282.819 33.0544 281.863 34.9662C280.907 36.8302 280.429 38.9332 280.429 41.2752C280.429 43.6172 280.907 45.744 281.863 47.6559C282.819 49.5199 284.133 50.9776 285.806 52.0291C287.479 53.0806 289.367 53.6064 291.47 53.6064Z" fill="url(#paint5_radial_251_115)"/>
<path d="M336.079 22.635C339.234 22.635 342.102 23.4475 344.683 25.0726C347.264 26.6498 349.295 28.8484 350.776 31.6683C352.258 34.4882 352.999 37.6905 352.999 41.2752C352.999 44.8598 352.258 48.0621 350.776 50.882C349.295 53.702 347.264 55.9245 344.683 57.5495C342.102 59.1267 339.234 59.9154 336.079 59.9154C333.69 59.9154 331.443 59.3896 329.34 58.3381C327.237 57.2388 325.445 55.7333 323.963 53.8215V54.101C323.963 56.9162 321.681 59.1984 318.866 59.1984H317.152V8.65485H318.507C321.323 8.65485 323.605 10.9371 323.605 13.7523V29.1591C325.134 27.1039 326.974 25.5027 329.125 24.3556C331.276 23.2085 333.594 22.635 336.079 22.635ZM334.932 53.6064C337.035 53.6064 338.923 53.0806 340.596 52.0291C342.269 50.9776 343.583 49.5199 344.539 47.6559C345.495 45.744 345.973 43.6172 345.973 41.2752C345.973 38.9332 345.495 36.8302 344.539 34.9662C343.583 33.0544 342.269 31.5727 340.596 30.5212C338.923 29.4697 337.035 28.944 334.932 28.944C332.829 28.944 330.918 29.4697 329.197 30.5212C327.476 31.5727 326.138 33.0544 325.182 34.9662C324.226 36.8302 323.748 38.9332 323.748 41.2752C323.748 43.6172 324.226 45.744 325.182 47.6559C326.138 49.5199 327.476 50.9776 329.197 52.0291C330.918 53.0806 332.829 53.6064 334.932 53.6064Z" fill="url(#paint6_radial_251_115)"/>
<path d="M105.503 9.01332C108.319 9.01332 110.601 11.2955 110.601 14.1108V59.1984H103.432V9.01332H105.503Z" stroke="url(#paint7_radial_251_115)" stroke-width="2.93397" mask="url(#path-1-outside-1_251_115)"/>
<path d="M138.222 22.635C141.138 22.635 143.743 23.2563 146.037 24.499C148.379 25.7417 150.219 27.6296 151.557 30.1628C152.943 32.6481 153.636 35.707 153.636 39.3395V59.1984H146.826V39.4829C146.826 36.3284 145.894 33.8191 144.029 31.9551C142.165 30.0911 139.824 29.1591 137.004 29.1591C134.948 29.1591 133.132 29.6609 131.555 30.6646C130.025 31.6205 128.831 32.9349 127.97 34.6077C127.158 36.2806 126.751 38.0968 126.751 40.0564V59.1984H119.941V23.3519H121.296C124.111 23.3519 126.393 25.6341 126.393 28.4494V29.0874C127.731 27.1278 129.428 25.5744 131.483 24.4273C133.586 23.2324 135.833 22.635 138.222 22.635Z" stroke="url(#paint8_radial_251_115)" stroke-width="2.93397" mask="url(#path-1-outside-1_251_115)"/>
<path d="M181.247 14.7488C177.614 14.7488 175.033 15.4896 173.504 16.9712C171.974 18.4051 171.21 20.532 171.21 23.3519H181.247V24.7069C181.247 27.5221 178.964 29.8043 176.149 29.8043H171.21V59.1984H164.399V29.8043H157.229V28.4494C157.229 25.6341 159.512 23.3519 162.327 23.3519H164.399C164.399 18.429 165.833 14.701 168.7 12.1678C171.568 9.58686 175.75 8.29639 181.247 8.29639V14.7488Z" stroke="url(#paint9_radial_251_115)" stroke-width="2.93397" mask="url(#path-1-outside-1_251_115)"/>
<path d="M201.776 59.9154C198.239 59.9154 195.013 59.1028 192.097 57.4778C189.182 55.805 186.888 53.5586 185.215 50.7387C183.542 47.8709 182.706 44.7164 182.706 41.2752C182.706 37.8339 183.542 34.7033 185.215 31.8834C186.888 29.0157 189.182 26.7693 192.097 25.1442C195.013 23.4714 198.239 22.635 201.776 22.635C205.265 22.635 208.443 23.4714 211.311 25.1442C214.227 26.7693 216.521 29.0157 218.194 31.8834C219.867 34.7033 220.703 37.8339 220.703 41.2752C220.703 44.7164 219.867 47.8709 218.194 50.7387C216.521 53.5586 214.227 55.805 211.311 57.4778C208.443 59.1028 205.265 59.9154 201.776 59.9154ZM201.776 53.6064C203.975 53.6064 205.982 53.0806 207.798 52.0291C209.614 50.9298 211.048 49.4482 212.1 47.5842C213.151 45.6724 213.677 43.5694 213.677 41.2752C213.677 38.981 213.151 36.9019 212.1 35.0379C211.048 33.1261 209.614 31.6444 207.798 30.5929C205.982 29.4936 203.975 28.944 201.776 28.944C199.53 28.944 197.474 29.4936 195.61 30.5929C193.794 31.6444 192.36 33.1261 191.309 35.0379C190.257 36.9019 189.732 38.981 189.732 41.2752C189.732 43.5694 190.257 45.6724 191.309 47.5842C192.36 49.4482 193.794 50.9298 195.61 52.0291C197.474 53.0806 199.53 53.6064 201.776 53.6064Z" stroke="url(#paint10_radial_251_115)" stroke-width="2.93397" mask="url(#path-1-outside-1_251_115)"/>
<path d="M271.238 52.3159V59.1984H237.542V9.01332H239.614C242.429 9.01332 244.712 11.2955 244.712 14.1108V52.3159H271.238Z" stroke="url(#paint11_radial_251_115)" stroke-width="2.93397" mask="url(#path-1-outside-1_251_115)"/>
<path d="M309.249 23.3519V59.1984H307.536C304.721 59.1984 302.439 56.9162 302.439 54.101V53.8215C300.957 55.7333 299.165 57.2388 297.062 58.3381C294.959 59.3896 292.712 59.9154 290.322 59.9154C287.168 59.9154 284.3 59.1267 281.719 57.5495C279.138 55.9245 277.107 53.702 275.625 50.882C274.144 48.0621 273.403 44.8598 273.403 41.2752C273.403 37.6905 274.144 34.4882 275.625 31.6683C277.107 28.8484 279.138 26.6498 281.719 25.0726C284.3 23.4475 287.168 22.635 290.322 22.635C292.808 22.635 295.126 23.2085 297.277 24.3556C299.427 25.5027 301.268 27.1039 302.797 29.1591V23.3519H309.249ZM291.47 53.6064C293.573 53.6064 295.484 53.0806 297.205 52.0291C298.926 50.9776 300.264 49.5199 301.22 47.6559C302.176 45.744 302.654 43.6172 302.654 41.2752C302.654 38.9332 302.176 36.8302 301.22 34.9662C300.264 33.0544 298.926 31.5727 297.205 30.5212C295.484 29.4697 293.573 28.944 291.47 28.944C289.367 28.944 287.479 29.4697 285.806 30.5212C284.133 31.5727 282.819 33.0544 281.863 34.9662C280.907 36.8302 280.429 38.9332 280.429 41.2752C280.429 43.6172 280.907 45.744 281.863 47.6559C282.819 49.5199 284.133 50.9776 285.806 52.0291C287.479 53.0806 289.367 53.6064 291.47 53.6064Z" stroke="url(#paint12_radial_251_115)" stroke-width="2.93397" mask="url(#path-1-outside-1_251_115)"/>
<path d="M336.079 22.635C339.234 22.635 342.102 23.4475 344.683 25.0726C347.264 26.6498 349.295 28.8484 350.776 31.6683C352.258 34.4882 352.999 37.6905 352.999 41.2752C352.999 44.8598 352.258 48.0621 350.776 50.882C349.295 53.702 347.264 55.9245 344.683 57.5495C342.102 59.1267 339.234 59.9154 336.079 59.9154C333.69 59.9154 331.443 59.3896 329.34 58.3381C327.237 57.2388 325.445 55.7333 323.963 53.8215V54.101C323.963 56.9162 321.681 59.1984 318.866 59.1984H317.152V8.65485H318.507C321.323 8.65485 323.605 10.9371 323.605 13.7523V29.1591C325.134 27.1039 326.974 25.5027 329.125 24.3556C331.276 23.2085 333.594 22.635 336.079 22.635ZM334.932 53.6064C337.035 53.6064 338.923 53.0806 340.596 52.0291C342.269 50.9776 343.583 49.5199 344.539 47.6559C345.495 45.744 345.973 43.6172 345.973 41.2752C345.973 38.9332 345.495 36.8302 344.539 34.9662C343.583 33.0544 342.269 31.5727 340.596 30.5212C338.923 29.4697 337.035 28.944 334.932 28.944C332.829 28.944 330.918 29.4697 329.197 30.5212C327.476 31.5727 326.138 33.0544 325.182 34.9662C324.226 36.8302 323.748 38.9332 323.748 41.2752C323.748 43.6172 324.226 45.744 325.182 47.6559C326.138 49.5199 327.476 50.9776 329.197 52.0291C330.918 53.0806 332.829 53.6064 334.932 53.6064Z" stroke="url(#paint13_radial_251_115)" stroke-width="2.93397" mask="url(#path-1-outside-1_251_115)"/>
<path fill-rule="evenodd" clip-rule="evenodd" d="M37.2203 26.5879C44.5623 26.5879 50.5142 20.636 50.5142 13.2939C50.5142 5.9519 44.5623 0 37.2203 0C29.8782 0 23.9263 5.9519 23.9263 13.2939C23.9263 16.8257 25.3036 20.0358 27.5503 22.4165L22.9297 31.1713C20.8735 35.0672 22.3649 39.8923 26.2608 41.9485L34.5133 26.3121C35.3873 26.4929 36.2927 26.5879 37.2203 26.5879Z" fill="url(#paint14_linear_251_115)"/>
<path fill-rule="evenodd" clip-rule="evenodd" d="M43.7292 31.8144L52.6156 46.9215C51.5519 48.0991 50.6959 49.468 50.1056 50.9704H25.6717C23.7313 46.032 18.9209 42.536 13.2939 42.536C5.9519 42.536 0 48.4879 0 55.8299C0 63.172 5.9519 69.1239 13.2939 69.1239C19.6802 69.1239 25.0147 64.6208 26.2953 58.6166H49.482C50.7627 64.6207 56.0972 69.1238 62.4834 69.1238C69.8254 69.1238 75.7773 63.1719 75.7773 55.8298C75.7773 48.4878 69.8254 42.5359 62.4834 42.5359C61.4538 42.5359 60.4515 42.6529 59.4891 42.8745L54.6484 34.6454C52.4149 30.8484 47.5262 29.5809 43.7292 31.8144Z" fill="url(#paint15_linear_251_115)"/>
<defs>
<radialGradient id="paint0_radial_251_115" cx="0" cy="0" r="1" gradientUnits="userSpaceOnUse" gradientTransform="translate(352.999 59.9154) rotate(-168.314) scale(254.85 101.098)">
<stop stop-color="#1A0633"/>
<stop offset="1" stop-color="#252F52"/>
</radialGradient>
<radialGradient id="paint1_radial_251_115" cx="0" cy="0" r="1" gradientUnits="userSpaceOnUse" gradientTransform="translate(352.999 59.9154) rotate(-168.314) scale(254.85 101.098)">
<stop stop-color="#1A0633"/>
<stop offset="1" stop-color="#252F52"/>
</radialGradient>
<radialGradient id="paint2_radial_251_115" cx="0" cy="0" r="1" gradientUnits="userSpaceOnUse" gradientTransform="translate(352.999 59.9154) rotate(-168.314) scale(254.85 101.098)">
<stop stop-color="#1A0633"/>
<stop offset="1" stop-color="#252F52"/>
</radialGradient>
<radialGradient id="paint3_radial_251_115" cx="0" cy="0" r="1" gradientUnits="userSpaceOnUse" gradientTransform="translate(352.999 59.9154) rotate(-168.314) scale(254.85 101.098)">
<stop stop-color="#1A0633"/>
<stop offset="1" stop-color="#252F52"/>
</radialGradient>
<radialGradient id="paint4_radial_251_115" cx="0" cy="0" r="1" gradientUnits="userSpaceOnUse" gradientTransform="translate(352.999 59.9154) rotate(-168.314) scale(254.85 101.098)">
<stop stop-color="#1A0633"/>
<stop offset="1" stop-color="#252F52"/>
</radialGradient>
<radialGradient id="paint5_radial_251_115" cx="0" cy="0" r="1" gradientUnits="userSpaceOnUse" gradientTransform="translate(352.999 59.9154) rotate(-168.314) scale(254.85 101.098)">
<stop stop-color="#1A0633"/>
<stop offset="1" stop-color="#252F52"/>
</radialGradient>
<radialGradient id="paint6_radial_251_115" cx="0" cy="0" r="1" gradientUnits="userSpaceOnUse" gradientTransform="translate(352.999 59.9154) rotate(-168.314) scale(254.85 101.098)">
<stop stop-color="#1A0633"/>
<stop offset="1" stop-color="#252F52"/>
</radialGradient>
<radialGradient id="paint7_radial_251_115" cx="0" cy="0" r="1" gradientUnits="userSpaceOnUse" gradientTransform="translate(352.999 59.9154) rotate(-168.314) scale(254.85 101.098)">
<stop stop-color="#1A0633"/>
<stop offset="1" stop-color="#252F52"/>
</radialGradient>
<radialGradient id="paint8_radial_251_115" cx="0" cy="0" r="1" gradientUnits="userSpaceOnUse" gradientTransform="translate(352.999 59.9154) rotate(-168.314) scale(254.85 101.098)">
<stop stop-color="#1A0633"/>
<stop offset="1" stop-color="#252F52"/>
</radialGradient>
<radialGradient id="paint9_radial_251_115" cx="0" cy="0" r="1" gradientUnits="userSpaceOnUse" gradientTransform="translate(352.999 59.9154) rotate(-168.314) scale(254.85 101.098)">
<stop stop-color="#1A0633"/>
<stop offset="1" stop-color="#252F52"/>
</radialGradient>
<radialGradient id="paint10_radial_251_115" cx="0" cy="0" r="1" gradientUnits="userSpaceOnUse" gradientTransform="translate(352.999 59.9154) rotate(-168.314) scale(254.85 101.098)">
<stop stop-color="#1A0633"/>
<stop offset="1" stop-color="#252F52"/>
</radialGradient>
<radialGradient id="paint11_radial_251_115" cx="0" cy="0" r="1" gradientUnits="userSpaceOnUse" gradientTransform="translate(352.999 59.9154) rotate(-168.314) scale(254.85 101.098)">
<stop stop-color="#1A0633"/>
<stop offset="1" stop-color="#252F52"/>
</radialGradient>
<radialGradient id="paint12_radial_251_115" cx="0" cy="0" r="1" gradientUnits="userSpaceOnUse" gradientTransform="translate(352.999 59.9154) rotate(-168.314) scale(254.85 101.098)">
<stop stop-color="#1A0633"/>
<stop offset="1" stop-color="#252F52"/>
</radialGradient>
<radialGradient id="paint13_radial_251_115" cx="0" cy="0" r="1" gradientUnits="userSpaceOnUse" gradientTransform="translate(352.999 59.9154) rotate(-168.314) scale(254.85 101.098)">
<stop stop-color="#1A0633"/>
<stop offset="1" stop-color="#252F52"/>
</radialGradient>
<linearGradient id="paint14_linear_251_115" x1="36.2601" y1="0" x2="36.2601" y2="41.9484" gradientUnits="userSpaceOnUse">
<stop stop-color="#2DAEFD"/>
<stop offset="1" stop-color="#BD46FC"/>
</linearGradient>
<linearGradient id="paint15_linear_251_115" x1="37.8887" y1="30.7119" x2="37.8887" y2="69.1241" gradientUnits="userSpaceOnUse">
<stop stop-color="#2DAEFD"/>
<stop offset="1" stop-color="#BD46FC"/>
</linearGradient>
</defs>
</svg>
