<svg width="210" height="28" viewBox="0 0 210 28" fill="none" xmlns="http://www.w3.org/2000/svg">
<g clip-path="url(#clip0_1501_3123)">
<path d="M75.9255 26.442H84.7725V25.291H82.874C82.8055 25.291 82.636 25.257 82.4 25.189C82.1244 25.1326 81.8605 25.0296 81.6195 24.8845C81.349 24.6115 81.2465 24.2725 81.2465 23.6285V3.80054L88.8735 26.442H91.383L99.1105 3.76654V24.0695C99.1105 24.375 98.975 24.6795 98.7045 24.8845C98.5005 25.0535 97.992 25.223 97.518 25.291H95.551V26.442H108.061V25.291H106.195C105.076 25.291 104.432 24.647 104.432 23.6285V4.88504C104.432 4.13904 104.502 3.90254 104.874 3.66504C105.077 3.46254 105.586 3.29204 106.129 3.22504H108.094V2.00354H97.925L91.9935 19.291L86.23 2.00354H75.959V3.22454H77.824C78.8395 3.22454 79.5185 3.86804 79.5185 4.88504V22.9515L79.5525 23.6285C79.5525 24.6115 78.807 25.291 77.7905 25.291H75.9255V26.442V26.442ZM108.549 3.12254H110.481C110.549 3.12254 110.752 3.19004 110.954 3.25854C111.259 3.32604 111.531 3.42804 111.701 3.56304C111.972 3.80004 112.073 4.03704 112.073 4.44404V19.9335C112.073 22.714 112.817 24.306 114.582 25.2905C116.175 26.273 118.751 26.849 121.226 26.849C124.038 26.849 126.818 26.0355 128.208 24.8835C128.92 24.239 129.496 23.3235 129.766 22.206C130.038 21.2895 130.174 20.1375 130.174 18.918V4.81704C130.174 3.80054 130.886 3.12254 131.971 3.12254H133.868V2.00354H124.953V3.12254H126.853C127.801 3.12254 128.445 3.83404 128.445 4.81704V19.088C128.445 22.952 126.853 24.544 122.854 24.544C120.209 24.544 118.243 23.6285 117.632 22.037C117.43 21.5265 117.362 20.849 117.362 19.393V4.81704C117.362 3.83454 118.04 3.12254 119.091 3.12254H120.953V2.00354H108.549V3.12254V3.12254ZM134.352 26.442H143.335V25.291H141.404C141.37 25.291 141.164 25.257 140.895 25.2225C140.588 25.1215 140.284 25.0195 140.081 24.884C139.777 24.611 139.673 24.3405 139.673 23.628V6.95304L152.114 26.442H155.876V4.41054C155.876 3.90204 156.283 3.49554 157.029 3.29204C157.233 3.25904 157.469 3.19004 157.504 3.19004H159.401V2.00354H150.657V3.19004H152.52C153.571 3.19004 154.249 3.86804 154.249 4.88504V20.0025L142.724 2.00354H134.386V3.22454H136.251C137.268 3.22454 137.98 3.86804 137.98 4.88504V23.6285C137.98 24.6115 137.233 25.291 136.218 25.291H134.352V26.442H134.352V26.442Z" fill="#211915"/>
<path fill-rule="evenodd" clip-rule="evenodd" d="M160.053 26.4419H173.202C180.017 26.4419 184.93 21.1879 184.93 13.9014C184.93 9.69844 182.999 5.96894 179.712 3.83444C177.744 2.58144 175.61 2.00394 172.831 2.00394H160.052V3.18994H161.95C162.967 3.18994 163.645 3.83444 163.645 4.88494V23.6284C163.645 24.2724 163.509 24.6469 163.204 24.9174C163 25.0529 162.457 25.2224 161.984 25.3584H160.052V26.4419H160.053V26.4419ZM168.899 23.7979V4.54594C168.899 3.39394 169.17 3.08894 170.221 3.08894H173.339C175.068 3.08894 176.729 3.93594 177.61 5.29144C178.22 6.27494 178.661 7.59594 178.933 9.52944C179.102 10.8844 179.202 12.8849 179.202 14.3419C179.202 21.9009 177.237 25.3924 172.967 25.3924H170.255C169.238 25.3919 168.899 25.0194 168.899 23.7979V23.7979ZM187.186 14.2394C187.186 21.7314 191.764 26.7809 198.577 26.7809C205.391 26.7809 210 21.7314 210 14.2394C210 10.7144 208.948 7.62994 206.915 5.25694C204.881 2.85094 202.17 1.66394 198.577 1.66394C194.983 1.66394 192.374 2.81744 190.204 5.25694C188.239 7.52894 187.186 10.7149 187.186 14.2394V14.2394ZM193.527 7.15594C194.203 4.47844 195.932 3.08894 198.577 3.08894C201.221 3.08894 202.915 4.47844 203.661 7.15594C204.134 8.88444 204.271 10.7149 204.271 14.2399C204.271 17.7309 204.135 19.5284 203.661 21.2904C202.949 23.9344 201.221 25.3589 198.577 25.3589C195.932 25.3589 194.238 23.9344 193.527 21.2904C193.017 19.5629 192.848 17.7654 192.848 14.2399C192.848 10.6809 193.017 8.91894 193.527 7.15594V7.15594Z" fill="#211915"/>
<path d="M0 26.442H21.9645L22.642 18.5795H21.3535C20.845 22.9515 18.066 25.3585 13.4565 25.3585H10.067C9.152 25.3585 8.7785 24.9175 8.7785 23.934V13.698H10.542C12.338 13.698 13.9315 14.1045 14.6435 14.749C15.354 15.426 15.863 16.6805 15.863 17.8335C15.863 18.0365 15.863 18.275 15.8295 18.512H17.083V7.83354L15.8295 7.80004V8.07104C15.8295 11.02 13.9645 12.614 10.542 12.614H8.7785V4.27454C8.7785 3.36054 9.0505 3.08904 9.8975 3.08904H13.2865C15.9645 3.08904 17.3545 3.49554 18.8115 4.71554C19.8955 5.59704 20.7435 6.91904 20.9465 8.10504C21.014 8.41004 21.049 8.81604 21.0825 9.32604H22.5065L21.93 2.00354H0V3.19004H1.898C2.8815 3.19004 3.559 3.80054 3.559 4.85054V23.6625C3.559 24.647 2.8815 25.291 1.8645 25.291H0V26.442ZM23.001 3.19004H24.866C25.916 3.19004 26.594 3.83454 26.594 4.88504V23.5945C26.594 24.272 26.458 24.611 26.1865 24.884C25.949 25.053 25.441 25.2225 24.9675 25.2905H23.001V26.4415H43.982L44.4905 16.8155H43.101C42.2875 22.24 39.6775 25.358 35.8135 25.358H33.102C32.1855 25.358 31.779 24.917 31.779 23.9V4.88504C31.779 3.86804 32.458 3.19004 33.475 3.19004H35.3735V2.00354H23.001V3.19004Z" fill="#211915"/>
<path d="M73.185 20.031C74.0121 18.3282 74.4821 16.4742 74.566 14.583H61.4495V20.139H73.1295C73.129 20.139 73.124 20.153 73.185 20.031ZM59.9785 7.2095H48.3965C47.3949 9.02659 46.8131 11.045 46.694 13.1165H59.978V7.2095H59.9785ZM61.449 7.2095V13.1165H74.557C74.4371 11.0456 73.8565 9.02751 72.8575 7.2095H61.449V7.2095ZM59.9785 14.583H46.686C46.7727 16.5145 47.2609 18.4067 48.1195 20.139H59.979V14.583H59.9785ZM59.9785 21.6055H48.962C51.3475 25.2265 55.3725 27.6725 59.9785 27.8835V21.6055ZM61.449 5.742H71.922C69.5335 2.46 65.753 0.259 61.449 0.008V5.742V5.742ZM61.449 21.6055V27.873C65.983 27.6085 69.934 25.1815 72.2885 21.6055H61.449V21.6055ZM59.9785 5.742V0C55.602 0.199 51.7515 2.4165 49.332 5.742H59.9785V5.742Z" fill="#216087"/>
</g>
<defs>
<clipPath id="clip0_1501_3123">
<rect width="210" height="28" fill="white"/>
</clipPath>
</defs>
</svg>
