<svg width="169" height="57" viewBox="0 0 169 57" fill="none" xmlns="http://www.w3.org/2000/svg">
<path d="M27.0678 38.8879V19.2415H37.4243C38.7154 19.2415 39.8567 19.5221 40.8484 20.0834C41.8588 20.6261 42.654 21.3745 43.234 22.3288C43.8141 23.283 44.1041 24.3776 44.1041 25.6125C44.1041 26.7913 43.8141 27.8578 43.234 28.8121C42.654 29.7476 41.8588 30.4867 40.8484 31.0293C39.838 31.572 38.6966 31.8433 37.4243 31.8433H31.8952V38.8879H27.0678ZM31.8952 27.8578H36.863C37.574 27.8578 38.1447 27.652 38.575 27.2404C39.0054 26.8287 39.2205 26.2955 39.2205 25.6406C39.2205 24.967 39.0054 24.4244 38.575 24.0127C38.1447 23.5824 37.574 23.3672 36.863 23.3672H31.8952V27.8578ZM46.5827 38.8879V19.2415H56.6305C57.9777 19.2415 59.1752 19.5128 60.223 20.0554C61.2708 20.5793 62.0847 21.3184 62.6648 22.2726C63.2635 23.2082 63.5629 24.2841 63.5629 25.5003C63.5629 26.7352 63.2261 27.8391 62.5525 28.8121C61.8789 29.7851 60.9901 30.5242 59.8862 31.0293L64.1804 38.8879H58.7916L55.0868 31.731H51.4101V38.8879H46.5827ZM51.4101 27.8017H56.1814C56.9299 27.8017 57.5286 27.5959 57.9777 27.1842C58.4455 26.7726 58.6793 26.2393 58.6793 25.5845C58.6793 24.9296 58.4455 24.3963 57.9777 23.9847C57.5286 23.573 56.9299 23.3672 56.1814 23.3672H51.4101V27.8017ZM75.838 39.1967C74.3598 39.1967 72.9846 38.9441 71.7122 38.4389C70.4399 37.915 69.3266 37.1946 68.3723 36.2778C67.4181 35.3422 66.6696 34.2663 66.127 33.0501C65.6031 31.8152 65.3412 30.4867 65.3412 29.0647C65.3412 27.6427 65.6031 26.3235 66.127 25.1073C66.6696 23.8724 67.4181 22.7965 68.3723 21.8797C69.3266 20.9441 70.4399 20.2238 71.7122 19.7186C72.9846 19.1947 74.3598 18.9327 75.838 18.9327C77.3162 18.9327 78.6914 19.1947 79.9638 19.7186C81.2361 20.2238 82.3494 20.9441 83.3037 21.8797C84.2579 22.7965 84.997 23.8724 85.5209 25.1073C86.0635 26.3235 86.3348 27.6427 86.3348 29.0647C86.3348 30.4867 86.0635 31.8152 85.5209 33.0501C84.997 34.2663 84.2579 35.3422 83.3037 36.2778C82.3494 37.1946 81.2361 37.915 79.9638 38.4389C78.6914 38.9441 77.3162 39.1967 75.838 39.1967ZM75.838 34.7622C76.6239 34.7622 77.3536 34.6218 78.0272 34.3412C78.7008 34.0418 79.2808 33.6395 79.7673 33.1343C80.2725 32.6291 80.6654 32.0304 80.9461 31.3381C81.2267 30.6271 81.3671 29.8693 81.3671 29.0647C81.3671 28.2414 81.2267 27.4836 80.9461 26.7913C80.6654 26.099 80.2725 25.5003 79.7673 24.9951C79.2808 24.4899 78.7008 24.0969 78.0272 23.8163C77.3536 23.5169 76.6239 23.3672 75.838 23.3672C75.0521 23.3672 74.3224 23.5169 73.6488 23.8163C72.9752 24.0969 72.3858 24.4899 71.8806 24.9951C71.3942 25.5003 71.0106 26.099 70.7299 26.7913C70.4492 27.4836 70.3089 28.2414 70.3089 29.0647C70.3089 29.8693 70.4492 30.6271 70.7299 31.3381C71.0106 32.0304 71.3942 32.6291 71.8806 33.1343C72.3858 33.6395 72.9752 34.0418 73.6488 34.3412C74.3224 34.6218 75.0521 34.7622 75.838 34.7622ZM100.502 38.8879L92.559 19.2415H97.7793L103.365 33.8641L109.062 19.2415H114.086L106.031 38.8879H100.502ZM115.515 38.8879V19.2415H120.343V27.8298L128.286 19.2415H134.123L125.03 28.4753L134.629 38.8879H128.229L120.343 29.8786V38.8879H115.515Z" fill="white"/>
<path d="M159.833 15.5221C159.833 13.7579 159.486 12.011 158.811 10.381C158.136 8.75113 157.146 7.27016 155.899 6.02268C154.651 4.7752 153.17 3.78564 151.54 3.11051C149.91 2.43538 148.163 2.08789 146.399 2.08789H15.4342C11.8712 2.08789 8.4542 3.50328 5.9348 6.02268C3.41539 8.54208 2 11.9591 2 15.5221V41.5658C2 45.1288 3.41539 48.5458 5.9348 51.0652C8.4542 53.5846 11.8712 55 15.4342 55H146.399C148.163 55 149.91 54.6525 151.54 53.9774C153.17 53.3022 154.651 52.3127 155.899 51.0652C157.146 49.8177 158.136 48.3368 158.811 46.7068C159.486 45.0769 159.833 43.33 159.833 41.5658" stroke="#E0FF23" stroke-width="3.25546" stroke-linecap="round" stroke-linejoin="round"/>
<path d="M159.78 20.3184L162.695 25.651L168.028 28.5667L162.695 31.4824L159.78 36.8127L156.864 31.4824L151.534 28.5667L156.864 25.651L159.78 20.3184Z" fill="#E0FF23"/>
</svg>
