<svg width="17" height="17" viewBox="0 0 17 17" fill="none" xmlns="http://www.w3.org/2000/svg">
<path d="M9.88353 0.516902C11.1681 -0.555568 13.1277 0.271575 13.2552 1.94014C13.3319 2.94276 14.1217 3.74327 15.1232 3.8334C16.7899 3.9834 17.5906 5.95388 16.501 7.22394C15.8462 7.98711 15.8387 9.11163 16.4831 9.88353C17.5556 11.1681 16.7284 13.1277 15.0599 13.2552C14.0572 13.3319 13.2567 14.1217 13.1666 15.1232C13.0166 16.7899 11.0461 17.5906 9.77606 16.501C9.01289 15.8462 7.88837 15.8387 7.11647 16.4831C5.83187 17.5556 3.87234 16.7284 3.74476 15.0599C3.6681 14.0572 2.87829 13.2567 1.87679 13.1666C0.210091 13.0166 -0.590627 11.0461 0.49902 9.77606C1.15377 9.01289 1.16133 7.88837 0.516902 7.11647C-0.555567 5.83187 0.271575 3.87234 1.94014 3.74476C2.94276 3.6681 3.74327 2.87829 3.8334 1.87679C3.9834 0.210091 5.95388 -0.590627 7.22394 0.49902C7.98711 1.15377 9.11163 1.16133 9.88353 0.516902Z" fill="#57E697"/>
<path d="M11.6481 6.13916L7.3194 10.4679L5.35181 8.50027" stroke="white" stroke-width="1.5" stroke-linecap="round" stroke-linejoin="round"/>
</svg>
