<svg width="19" height="20" viewBox="0 0 19 20" fill="none" xmlns="http://www.w3.org/2000/svg">
<path d="M11.5417 4.16683C12.3556 4.32563 13.1036 4.72371 13.69 5.31011C14.2764 5.89651 14.6745 6.64455 14.8333 7.4585M11.5417 0.833496C13.2327 1.02136 14.8096 1.77864 16.0135 2.981C17.2174 4.18336 17.9767 5.75934 18.1667 7.45016M17.3333 14.1002V16.6002C17.3343 16.8322 17.2867 17.062 17.1937 17.2746C17.1008 17.4873 16.9644 17.6782 16.7934 17.8351C16.6224 17.9919 16.4205 18.1114 16.2006 18.1858C15.9808 18.2601 15.7478 18.2877 15.5167 18.2668C12.9523 17.9882 10.4892 17.112 8.32499 15.7085C6.31151 14.4291 4.60443 12.722 3.32499 10.7085C1.91663 8.5345 1.04019 6.05933 0.766652 3.4835C0.745827 3.25305 0.773214 3.0208 0.847069 2.80152C0.920923 2.58224 1.03963 2.38074 1.19562 2.20985C1.35162 2.03896 1.54149 1.90242 1.75314 1.80893C1.9648 1.71544 2.1936 1.66705 2.42499 1.66683H4.92499C5.32941 1.66285 5.72148 1.80606 6.02812 2.06977C6.33476 2.33349 6.53505 2.6997 6.59165 3.10016C6.69717 3.90022 6.89286 4.68577 7.17499 5.44183C7.2871 5.7401 7.31137 6.06426 7.24491 6.3759C7.17844 6.68754 7.02404 6.97359 6.79999 7.20016L5.74165 8.2585C6.92795 10.3448 8.65536 12.0722 10.7417 13.2585L11.8 12.2002C12.0266 11.9761 12.3126 11.8217 12.6243 11.7552C12.9359 11.6888 13.26 11.713 13.5583 11.8252C14.3144 12.1073 15.0999 12.303 15.9 12.4085C16.3048 12.4656 16.6745 12.6695 16.9388 12.9814C17.203 13.2933 17.3435 13.6915 17.3333 14.1002Z" stroke="#0D2938" stroke-width="1.5" stroke-linecap="round" stroke-linejoin="round"/>
</svg>
