<svg width="17" height="16" viewBox="0 0 17 16" fill="none" xmlns="http://www.w3.org/2000/svg">
<path d="M6.86265 0.80524C7.30544 -0.268415 8.82611 -0.268412 9.26889 0.805242L10.5554 3.92472C10.7385 4.36859 11.151 4.67561 11.6288 4.72348L14.9581 5.05705C16.073 5.16876 16.535 6.54339 15.7139 7.30575L13.1158 9.71782C12.7804 10.0291 12.6332 10.4937 12.7281 10.9413L13.466 14.425C13.7036 15.5464 12.4803 16.405 11.5065 15.8004L8.75215 14.0907C8.33177 13.8297 7.79977 13.8297 7.37939 14.0907L4.62506 15.8004C3.65119 16.405 2.42797 15.5464 2.66551 14.425L3.40348 10.9413C3.4983 10.4937 3.3511 10.0291 3.01578 9.71782L0.417677 7.30575C-0.403471 6.54339 0.0585067 5.16876 1.1734 5.05705L4.50276 4.72348C4.98051 4.67561 5.39308 4.36859 5.57614 3.92472L6.86265 0.80524Z" fill="#EAAE4F"/>
</svg>
