<svg width="246" height="180" viewBox="0 0 246 180" fill="none" xmlns="http://www.w3.org/2000/svg">
<g clip-path="url(#clip0_267_2958)">
<path d="M147.704 122.601C146.749 122.014 145.544 122.445 144.588 121.865C143.774 121.349 144.188 119.614 144.522 118.786C144.807 117.999 145.206 117.258 145.705 116.586C145.894 116.34 147.105 115.924 147.153 114.875C147.257 114.107 146.666 113.689 145.89 113.573C145.218 113.587 144.546 113.53 143.886 113.403C143.673 113.19 143.519 112.924 143.44 112.633C143.362 112.342 143.361 112.035 143.438 111.743C143.683 110.682 144.795 109.696 144.898 108.256C144.981 107.079 143.203 106.074 142.847 104.939C142.523 103.239 142.519 101.494 142.834 99.7934L142.939 99.4381C142.968 99.3632 142.982 99.2829 142.978 99.2025C142.975 99.122 142.954 99.0432 142.919 98.9711C142.883 98.8991 142.832 98.8354 142.77 98.7843C142.708 98.7332 142.635 98.6957 142.558 98.6744C142.081 98.4982 141.66 99.034 141.637 99.345C141.582 100.094 138.998 105.538 137.718 108.558C137.114 109.941 136.549 111.362 136.089 112.784C136.089 112.824 135.668 129.459 135.641 130.121C135.245 138.043 134.877 138.549 135.826 138.992C136.002 139.077 136.199 139.109 136.393 139.083C136.586 139.058 136.768 138.976 136.917 138.848C139.636 136.604 142.166 133.739 144.582 131.373C144.722 131.255 144.827 131.1 144.883 130.925C144.939 130.751 144.944 130.564 144.898 130.386C144.516 128.997 146.071 127.446 146.975 126.358C147.446 125.824 148.369 125.156 148.448 124.056C148.485 123.766 148.434 123.473 148.301 123.213C148.168 122.953 147.96 122.74 147.704 122.601Z" fill="#57E697"/>
<path d="M154.354 92.6331C154.415 92.6747 154.465 92.7313 154.497 92.7975C154.53 92.8636 154.545 92.9371 154.541 93.0108C154.537 93.0845 154.515 93.156 154.475 93.2183C154.436 93.2807 154.381 93.3318 154.316 93.3667C153.677 93.7264 152.717 93.9012 152.133 94.172C149.522 95.4787 150.387 97.7541 152.186 97.0806C153.921 97.0104 153.697 96.9932 153.697 97.2655C153.744 97.5626 153.74 97.8654 153.685 98.161C153.619 99.505 151.718 99.3431 150.713 100.253C150.524 100.402 150.38 100.602 150.299 100.829C150.217 101.056 150.201 101.301 150.251 101.537C150.302 101.773 150.418 101.989 150.585 102.163C150.753 102.336 150.966 102.459 151.2 102.517C151.698 102.621 153.47 102.141 153.461 102.596C153.44 103.706 153.484 103.599 153.158 104.215C152.368 105.766 150.647 106.52 150.095 107.585C149.859 107.941 149.758 108.369 149.808 108.793C149.859 109.217 150.058 109.61 150.371 109.9C150.719 110.129 151.125 110.257 151.542 110.268C153.765 110.644 153.048 113.148 151.515 114.875C150.753 115.758 149.662 116.837 149.767 118.1C149.8 118.365 149.927 118.609 150.125 118.788C150.322 118.967 150.578 119.069 150.845 119.075C151.042 119.075 152.562 119.009 153.028 118.996C153.908 118.957 154.266 119.11 154.684 118.732C154.89 118.541 155.013 118.276 155.026 117.994C155.105 114.336 155.275 108.861 155.368 104.281C155.621 103.519 155.639 102.698 155.419 101.925C155.427 100.991 155.407 100.148 155.407 99.3846C155.632 98.8856 155.736 98.3399 155.709 97.7928C155.705 97.2155 155.612 96.6424 155.434 96.0934C157.975 89.6643 157.199 91.623 157.458 91.1057C158.136 90.3334 159.287 89.6356 159.05 88.2888C158.884 87.6317 158.541 87.0328 158.059 86.5571C157.576 86.0814 156.973 85.7472 156.314 85.5907C155.781 85.4656 155.219 85.5575 154.753 85.8463C154.287 86.1351 153.955 86.5972 153.829 87.131C153.573 87.6855 154.197 88.4507 154.688 89.2502C154.213 89.2591 153.742 89.3437 153.294 89.5009C153.107 89.5531 152.934 89.6473 152.789 89.7763C152.644 89.9054 152.531 90.0659 152.457 90.2455C152.384 90.4252 152.352 90.6193 152.365 90.8131C152.378 91.0069 152.434 91.1952 152.531 91.3636C153.098 91.8424 153.709 92.2674 154.354 92.6331Z" fill="#57E697"/>
<path d="M199.307 71.4331C200.3 72.1295 203.233 74.2143 206.237 76.4208C206.359 76.5272 206.518 76.5808 206.679 76.5696C206.841 76.5585 206.991 76.4836 207.098 76.3614C207.204 76.2392 207.257 76.0798 207.246 75.9181C207.235 75.7565 207.16 75.6059 207.038 75.4995C205.032 73.2857 202.575 71.527 199.834 70.3413C199.691 70.2834 199.531 70.282 199.388 70.3375C199.244 70.3931 199.126 70.5013 199.059 70.6402C198.992 70.7791 198.981 70.9384 199.027 71.0857C199.073 71.2329 199.173 71.3572 199.307 71.4331Z" fill="#181D22"/>
<path d="M159.977 51.444C160.263 51.1273 161.265 50.0355 161.713 49.6529C163.547 47.9808 163.952 47.7401 164.395 48.1399C164.909 48.6285 164.35 49.1099 163.461 50.4439C162.65 51.5414 161.768 52.5834 160.818 53.5631C160.644 53.7425 160.41 53.852 160.161 53.8712C159.912 53.8905 159.664 53.8181 159.464 53.6677C158.712 53.124 158.004 52.5213 157.347 51.8652C156.775 51.2448 155.695 50.0269 156.242 49.5082C156.858 48.7216 159.159 50.7935 159.977 51.444Z" fill="#181D22"/>
<path d="M159.127 45.148C159.762 45.4016 159.819 45.0664 161.678 41.7264C162.478 40.338 164.198 36.8261 166.688 32.9732C166.872 32.658 167.016 32.3557 167.201 32.039C167.895 30.6477 168.299 30.0445 167.766 29.6963C166.043 28.3351 157.301 44.3442 159.127 45.148Z" fill="#181D22"/>
<path d="M172.331 35.3616C172.866 35.4633 173.356 35.7297 173.732 36.1237C174.108 36.5178 174.352 37.0196 174.43 37.5592C174.507 38.0988 174.414 38.6491 174.164 39.1331C173.913 39.6172 173.518 40.0108 173.033 40.259C172.548 40.5071 171.998 40.5974 171.459 40.5171C170.921 40.4369 170.421 40.1902 170.029 39.8115C169.637 39.4328 169.374 38.941 169.275 38.405C169.176 37.8689 169.247 37.3153 169.478 36.8217C169.674 36.257 170.08 35.7898 170.611 35.5177C171.143 35.2456 171.759 35.1897 172.331 35.3616Z" fill="#181D22"/>
<path d="M161.184 30.027C161.719 30.1286 162.209 30.3951 162.586 30.7891C162.962 31.1831 163.206 31.685 163.283 32.2246C163.361 32.7642 163.268 33.3144 163.017 33.7985C162.767 34.2826 162.371 34.6762 161.887 34.9243C161.402 35.1725 160.851 35.2628 160.313 35.1825C159.774 35.1023 159.274 34.8556 158.882 34.4769C158.491 34.0982 158.227 33.6064 158.128 33.0703C158.03 32.5343 158.101 31.9807 158.332 31.4871C158.527 30.9221 158.933 30.4547 159.465 30.1826C159.996 29.9104 160.613 29.8547 161.184 30.027Z" fill="#181D22"/>
<path d="M179.162 62.8146C179.914 64.6484 180.293 66.6144 180.274 68.5968C180.256 70.5792 179.842 72.5379 179.056 74.3575C176.178 81.5604 172.44 83.9676 173.809 96.0077C173.827 96.1657 173.906 96.3107 174.028 96.4121C174.15 96.5136 174.307 96.5636 174.466 96.5517C174.624 96.5399 174.772 96.467 174.877 96.3485C174.983 96.2299 175.039 96.0749 175.033 95.916C174.95 93.1492 175.171 90.3816 175.69 87.6629C177.716 77.974 186.093 72.8516 180.239 62.3275C180.211 62.254 180.169 62.1872 180.114 62.131C180.059 62.0749 179.993 62.0306 179.92 62.0011C179.847 61.9715 179.769 61.9572 179.691 61.9592C179.612 61.9611 179.535 61.9791 179.464 62.0122C179.39 62.0435 179.323 62.0894 179.268 62.1472C179.212 62.205 179.169 62.2736 179.141 62.3486C179.112 62.4236 179.1 62.5036 179.103 62.5838C179.107 62.6639 179.127 62.7424 179.162 62.8146Z" fill="#181D22"/>
<path d="M183.205 59.0103C183.829 61.9791 183.848 60.6838 184.442 63.538C184.711 64.819 184.838 67.1531 185.014 68.2492C185.003 68.3282 185.007 68.4088 185.027 68.486C185.048 68.5632 185.083 68.6355 185.133 68.6984C185.182 68.7613 185.243 68.8135 185.313 68.8518C185.383 68.8901 185.46 68.9137 185.54 68.9212C185.621 68.9305 185.703 68.9236 185.782 68.9007C185.861 68.8779 185.934 68.8396 185.998 68.7881C186.061 68.7367 186.114 68.673 186.153 68.6009C186.192 68.5288 186.216 68.4497 186.224 68.3681C186.303 68.0257 186.422 67.6976 186.473 67.3551C186.93 64.7197 186.515 62.007 185.291 59.6293C185.01 59.1735 184.664 58.7613 184.264 58.4056C184.184 58.265 184.052 58.162 183.896 58.1193C183.74 58.0766 183.573 58.0976 183.433 58.1778C183.292 58.258 183.189 58.3907 183.147 58.5469C183.104 58.703 183.125 58.8697 183.205 59.0103Z" fill="#181D22"/>
<path d="M187.456 54.8825C187.525 55.3853 187.631 55.8824 187.772 56.3698C188.154 57.4275 188.466 58.5093 188.706 59.608C188.903 60.5966 189.295 63.9552 189.337 64.4897C189.323 64.6536 189.375 64.8165 189.48 64.9424C189.586 65.0683 189.738 65.1469 189.902 65.1609C190.065 65.175 190.228 65.1233 190.354 65.0173C190.48 64.9113 190.558 64.7597 190.572 64.5957C191.07 62.847 191.129 61.0024 190.744 59.2254C190.522 57.9651 190.123 56.7423 189.56 55.5932C189.252 55.1301 188.9 54.6982 188.508 54.3036C188.431 54.164 188.303 54.0605 188.15 54.0161C187.997 53.9716 187.832 53.9897 187.693 54.0665C187.553 54.1433 187.45 54.2724 187.406 54.4254C187.361 54.5784 187.379 54.7428 187.456 54.8825Z" fill="#181D22"/>
<path d="M191.167 49.2153C191.385 50.2425 191.657 51.2574 191.983 52.2558C192.82 54.4967 193.449 56.81 193.862 59.1664C194.199 61.3996 194.271 63.6649 194.075 65.915C194.053 66.0755 194.092 66.2385 194.185 66.3714C194.277 66.5043 194.417 66.5972 194.575 66.6314C194.653 66.6496 194.734 66.6516 194.813 66.6373C194.892 66.623 194.968 66.5928 195.035 66.5484C195.102 66.504 195.159 66.4464 195.203 66.3791C195.247 66.3119 195.277 66.2364 195.291 66.1572C196.08 63.8119 196.283 61.309 195.883 58.8669C195.517 56.3479 194.836 53.8848 193.858 51.5351C193.44 50.5371 192.906 49.5916 192.267 48.7181C192.235 48.6458 192.188 48.5806 192.131 48.5262C192.073 48.4719 192.005 48.4294 191.931 48.4014C191.857 48.3733 191.778 48.3601 191.698 48.3626C191.619 48.3651 191.541 48.3831 191.469 48.4158C191.396 48.4484 191.331 48.495 191.277 48.5529C191.223 48.6107 191.18 48.6787 191.152 48.7529C191.124 48.8272 191.111 48.9062 191.114 48.9856C191.116 49.0649 191.134 49.143 191.167 49.2153Z" fill="#181D22"/>
<path d="M201.363 55.9252C201.038 57.6877 200.544 59.415 199.89 61.0834C198.714 64.2178 197.055 67.1486 194.973 69.7693C191.015 75.0407 192.11 82.5444 194.565 88.7228C194.592 88.8006 194.634 88.8724 194.688 88.934C194.743 88.9956 194.809 89.0459 194.883 89.082C194.957 89.118 195.037 89.1391 195.119 89.1441C195.201 89.1491 195.283 89.1379 195.361 89.1111C195.439 89.0843 195.51 89.0424 195.572 88.9879C195.633 88.9333 195.684 88.8672 195.72 88.7932C195.756 88.7192 195.777 88.6389 195.782 88.5567C195.787 88.4746 195.776 88.3923 195.749 88.3144C194.199 83.1562 193.304 75.3645 196.629 71.0201C200.085 66.4078 202.585 61.8041 202.585 56.0298C202.592 55.8717 202.537 55.7173 202.432 55.5987C202.328 55.48 202.182 55.4063 202.024 55.3929C201.867 55.3794 201.71 55.4272 201.587 55.5263C201.464 55.6255 201.384 55.7683 201.363 55.9252Z" fill="#181D22"/>
<path d="M255.021 191.945C253.667 189.523 252.404 186.997 251.208 184.431C247.411 176.314 247.94 175.797 246.935 175.834C246.481 175.858 245.543 175.872 244.883 175.927C244.206 174.342 243.433 172.798 242.57 171.306C242.494 171.176 242.384 171.07 242.252 170.998C242.12 170.926 241.97 170.892 241.82 170.899C240.689 170.923 239.561 171.015 238.441 171.176C238.235 171.204 238.046 171.304 237.907 171.457C237.768 171.611 237.687 171.809 237.679 172.017C237.66 172.349 237.563 174.405 237.613 174.729L235.502 174.753C235.45 174.394 235.124 172.818 234.929 171.557C234.87 171.348 234.744 171.165 234.57 171.036C234.397 170.906 234.185 170.837 233.969 170.84C231.349 170.84 229.606 170.807 226.303 170.892C226.089 170.898 225.882 170.97 225.71 171.098C225.538 171.226 225.41 171.405 225.343 171.608C224.996 172.668 224.8 173.772 224.762 174.887L222.633 174.911C222.473 174.501 222.002 172.845 221.885 172.358C221.83 172.142 221.705 171.951 221.528 171.816C221.351 171.681 221.134 171.61 220.911 171.614H217.387C217.181 171.624 216.982 171.695 216.816 171.818C216.65 171.941 216.524 172.11 216.454 172.305L215.586 175.083C215.395 174.614 215.184 174.155 214.972 173.696C214.905 173.563 214.803 173.451 214.677 173.372C214.551 173.293 214.405 173.25 214.257 173.248C208.501 172.858 197.917 173.199 195.717 173.05C195.495 173.032 195.275 173.089 195.089 173.21C194.903 173.332 194.763 173.512 194.69 173.722C194.322 174.996 194.079 176.169 193.886 177.139C193.647 177.112 193.411 177.08 193.17 177.043C192.94 177.007 192.705 177.049 192.5 177.16C192.296 177.272 192.135 177.449 192.041 177.662C191.039 180.051 189.984 182.413 188.927 184.778C187.716 184.024 186.562 183.183 185.473 182.26C185.33 182.128 184.855 181.614 184.698 181.483C184.984 180.27 189.118 177.675 186.946 175.428C185.372 173.852 182.533 176.976 180.529 177.363C180.245 177.405 179.958 177.432 179.67 177.443C179.71 177.363 179.751 177.258 179.789 177.179C180.745 174.688 183.467 172.451 182.393 169.717C181.425 167.701 176.337 171.335 175.266 170.322C175.226 170.283 175.266 170.23 175.266 170.178C175.552 167.569 177.223 165.066 176.437 162.493C176.32 162.104 176.088 161.761 175.77 161.509C175.453 161.258 175.066 161.109 174.662 161.084C173.33 161.14 172.018 161.425 170.783 161.927C171.968 159.65 173.728 157.342 172.357 155.24C171.168 153.417 167.296 155.956 165.678 156.135C167.241 154.564 168.585 152.789 169.675 150.858C170.38 149.301 170.332 147.382 168.624 146.686C165.483 145.473 161.813 148.515 160.05 148.515C160.169 148.252 160.234 147.942 160.274 147.869C160.639 146.812 161.992 144.238 161.55 142.711C161.155 141.38 159.851 141.155 158.512 141.579C157.58 141.942 156.575 142.082 155.579 141.987C155.577 141.786 155.623 141.588 155.711 141.407C156.39 139.401 158.245 137.783 158.328 135.734C158.359 135.508 158.342 135.278 158.28 135.059C158.217 134.839 158.109 134.635 157.963 134.46C157.817 134.285 157.636 134.142 157.431 134.041C157.227 133.939 157.004 133.882 156.776 133.872C155.631 133.842 153.394 135.083 151.898 135.083C152.821 132.767 157.32 129.017 155.277 127.041C154.225 125.702 149.981 128.914 148.019 128.648C148.382 128.02 148.787 127.418 149.23 126.844C150.443 125.436 151.514 123.911 152.425 122.29C152.54 122.055 152.607 121.798 152.62 121.536C152.634 121.273 152.594 121.011 152.503 120.765C152.412 120.518 152.272 120.293 152.091 120.103C151.91 119.913 151.692 119.761 151.451 119.658C150.372 119.22 149.018 119.778 147.586 119.96C147.278 120.023 146.961 120.027 146.652 119.973C147.079 119.089 147.652 118.284 148.348 117.592C149.7 116.339 150.949 114.979 152.082 113.524C152.646 112.495 152.863 111.267 151.872 110.658C150.494 109.829 148.046 111.325 146.52 111.052C146.49 111.045 146.459 111.041 146.428 111.04L146.757 110.539C148.108 108.547 149.799 106.81 151.753 105.407C151.928 105.278 152.056 105.097 152.121 104.889C152.185 104.682 152.182 104.46 152.112 104.254C152.041 104.049 151.907 103.871 151.729 103.747C151.552 103.623 151.339 103.559 151.122 103.564C149.815 103.751 148.498 103.857 147.178 103.88C146.862 103.911 146.542 103.876 146.239 103.779C145.936 103.682 145.656 103.523 145.416 103.314C146.494 102.102 146.481 102.329 148.677 101.077C149.301 100.72 151.815 99.2258 151.991 98.5237C152.043 98.3595 152.055 98.185 152.025 98.0153C151.995 97.8455 151.925 97.6856 151.819 97.5494C151.178 96.7484 149.529 97.0235 146.236 97.0235C148.282 95.6235 150.462 94.4326 152.745 93.4687C152.903 93.401 153.04 93.2915 153.141 93.1519C153.242 93.0123 153.303 92.8479 153.318 92.6763C153.332 92.5047 153.3 92.3323 153.225 92.1776C153.149 92.0229 153.033 91.8917 152.888 91.798C151.64 90.9909 150.314 90.3117 148.93 89.7705C150.144 89.4643 151.38 89.2531 152.626 89.1386C152.795 89.1208 152.955 89.0515 153.083 88.94C153.212 88.8285 153.303 88.6802 153.344 88.5152C153.386 88.3501 153.376 88.1763 153.316 88.0173C153.255 87.8582 153.148 87.7214 153.007 87.6256C151.653 86.7171 150.206 85.9678 148.826 85.0995C149.234 85.151 149.615 85.2041 150.01 85.2299C150.166 85.2397 150.321 85.1972 150.451 85.109C150.581 85.0208 150.677 84.8919 150.725 84.7427C151.052 83.605 151.985 80.682 152.443 79.4742C154.302 80.1758 156.268 80.5495 158.255 80.5789C164.816 80.5559 173.343 77.024 179.227 70.3914C179.824 69.7953 178.842 68.9485 178.346 69.5317C173.716 74.0079 165.05 78.5342 158.255 78.5084C154.684 78.3277 151.233 77.1564 148.289 75.1255C147.054 74.3688 145.893 73.4987 144.819 72.5263C147.998 68.2754 152.191 64.8908 157.015 62.6828C159.288 64.2899 161.961 65.2375 164.738 65.4211C167.515 65.6046 170.289 65.017 172.754 63.723C180.054 59.777 184.514 50.2543 180.327 43.1245C183.674 38.5796 188.362 33.3397 191.493 29.7791C193.036 34.1988 193.669 38.8859 193.353 43.5573C193.313 44.3998 193.313 45.2165 193.235 46.0461C193.091 47.542 192.831 48.2598 193.521 48.4533C194.302 48.6166 194.41 47.5721 194.783 46.304C195.812 41.788 195.659 37.0827 194.338 32.6434C196.6 30.3604 198.05 27.3966 198.464 24.2082C199.098 18.176 195.735 11.125 189.312 11.125C188.968 9.12557 188.091 7.25614 186.774 5.71347C185.457 4.17081 183.75 3.01197 181.83 2.35893C177.17 0.466713 171.999 0.242514 167.193 1.72419C159.251 4.26317 153.913 11.2525 150.06 15.0496C147.004 18.08 143.71 22.5834 140.843 25.1711C136.145 29.4223 132.669 26.7773 130.107 29.6731C127.834 32.3095 129.534 35.297 132.644 36.4074C131.295 39.6943 132.742 43.3696 136.274 43.3696C135.987 46.2152 137.705 48.7714 140.612 48.5679C140.583 49.3727 140.851 50.1601 141.365 50.7795C141.879 51.3989 142.604 51.8067 143.399 51.925C144.233 52.1381 145.091 52.2454 145.952 52.2445C146.054 54.115 146.556 55.9417 147.425 57.6008C148.295 59.2598 149.51 60.7125 150.989 61.8603C149.35 61.2972 144.772 62.1469 143.803 62.5094C143.66 62.5638 142.042 63.2258 142.211 63.8777C142.37 64.491 143.95 64.4509 144.645 64.3649C144.788 64.3463 148.573 63.6986 149.47 63.4823C151.246 63.0925 151.603 62.9292 151.573 62.4162C151.557 62.1426 151.232 62.1297 152.482 62.8332C148.674 65.1507 145.566 68.4593 143.49 72.406C143.44 72.485 143.41 72.5746 143.402 72.6674C143.394 72.7602 143.408 72.8536 143.443 72.94C143.478 73.0263 143.533 73.1032 143.603 73.1643C143.673 73.2254 143.757 73.269 143.847 73.2915C145.805 75.8117 148.381 77.7825 151.324 79.0128C150.592 80.9056 150.335 81.5919 149.606 83.8013C148.636 83.658 146.965 83.2583 146.003 83.0519C145.849 83.0258 145.69 83.0495 145.551 83.1194C145.411 83.1894 145.297 83.302 145.225 83.4411C145.153 83.5802 145.128 83.7385 145.152 83.8931C145.176 84.0478 145.248 84.1907 145.359 84.3014C146.837 85.6359 148.465 86.7933 150.21 87.7502C148.678 88.0115 147.173 88.4125 145.714 88.9481C145.54 89.0158 145.391 89.1368 145.29 89.294C145.189 89.4511 145.14 89.6363 145.15 89.8231C145.16 90.0099 145.229 90.1886 145.347 90.3338C145.464 90.4791 145.625 90.5833 145.806 90.6316C147.387 91.0713 148.913 91.69 150.355 92.4757C148.599 93.2216 146.921 94.1383 145.345 95.2124C144.662 95.6893 144.016 96.2161 143.411 96.7885C142.729 97.9248 144.297 98.7458 145.581 98.9464C146.481 99.0266 147.387 99.0352 148.289 98.9722C146.878 99.7918 144.476 100.806 143.709 102.268C143.554 102.52 143.456 102.803 143.42 103.097C143.384 103.391 143.412 103.689 143.502 103.971C143.592 104.253 143.741 104.512 143.94 104.732C144.139 104.951 144.383 105.124 144.655 105.241C145.663 105.816 146.83 106.047 147.981 105.9C147.788 106.092 148.366 105.46 146.022 108.137C145.47 108.759 144.985 109.439 144.576 110.164C143.803 111.454 144.453 112.753 146.141 113.073C147.55 113.113 148.956 112.931 150.309 112.533C150.072 112.866 149.813 113.183 149.533 113.481C148.437 114.68 145.382 117.249 144.655 119.356C144.106 120.932 145.202 121.965 146.732 122.054C148.002 121.967 149.267 121.809 150.519 121.581C149.931 122.757 147.8 125.203 146.941 126.477C146.234 127.533 145.141 128.837 146.073 129.86C148.039 131.99 151.737 129.655 153.424 129.122C152.1 131.331 149.287 134.018 149.781 136C149.881 136.361 150.104 136.677 150.411 136.893C150.718 137.109 151.09 137.212 151.464 137.184C153.073 137.077 154.654 136.708 156.145 136.091C155.721 137.262 155.132 138.366 154.396 139.37C152.832 142.144 153.406 144.307 156.579 144.098C157.599 143.97 158.606 143.745 159.585 143.427C159.338 144.736 158.931 146.008 158.374 147.217C158.133 147.755 157.961 148.321 157.861 148.902C157.784 150.622 159.865 150.824 161.517 150.271C163.299 149.707 165.685 148.18 167.486 148.468C167.629 148.488 168.021 148.555 168.066 148.704C168.6 150.557 164.782 153.727 163.628 156.245C163.485 156.519 163.456 156.839 163.547 157.134C163.638 157.429 163.842 157.676 164.115 157.822C166.302 158.825 168.535 156.903 170.597 156.558C170.692 156.556 170.788 156.548 170.883 156.532C171.464 157.853 168.051 161.977 168.372 163.284C168.515 164.373 169.918 164.143 170.962 163.809C172.214 163.421 174.37 162.507 174.722 163.073C175.333 165.096 173.462 168.253 173.54 170.246C173.577 171.679 174.778 172.308 176.222 172.18C177.784 172.022 179.085 171.151 180.982 170.786C181.268 172.889 177.107 176.616 178.325 178.446C178.816 179.217 179.988 179.019 180.85 178.827C182.694 178.416 184.33 176.782 185.622 176.459C185.728 176.418 185.86 176.34 185.926 176.418C187.058 177.552 183.464 179.654 183.361 181.538C183.278 182.786 187.238 185.147 188.411 185.92C187.752 187.397 185.536 192.498 185.088 193.577C185.015 193.741 184.986 193.922 185.006 194.101C185.025 194.28 185.092 194.451 185.199 194.596C185.306 194.74 185.45 194.854 185.615 194.925C185.781 194.995 185.962 195.021 186.14 194.998C202.327 193.565 241.345 194.803 254.382 193.142C255.174 193.438 255.715 192.32 255.021 191.945ZM183.879 17.5685C185.005 16.1643 188.164 12.9218 188.283 12.7642C188.368 12.6274 188.501 12.5284 188.656 12.4877C188.812 12.447 188.977 12.4677 189.117 12.5455C189.257 12.6233 189.362 12.7523 189.41 12.9056C189.458 13.0589 189.445 13.2248 189.374 13.3688C188.382 15.5322 186.736 17.3283 184.667 18.5027C183.912 18.9053 183.388 18.1832 183.882 17.5699L183.879 17.5685ZM163.696 63.2143C166.667 62.6025 168.363 60.8917 170.538 58.7367C173.171 56.1614 175.435 53.2335 177.266 50.0365C178.087 50.5387 179.034 50.7985 179.997 50.7859C178.696 57.8183 171.991 64.4681 163.7 63.2158L163.696 63.2143ZM150.24 20.8927C154.615 15.3218 160.957 8.78663 167.439 6.01983C169.201 5.16794 171.115 4.67354 173.069 4.56509C175.024 4.45665 176.98 4.7363 178.826 5.38795C178.903 5.41297 178.974 5.45292 179.035 5.50549C179.097 5.55806 179.147 5.62223 179.184 5.69434C179.221 5.76646 179.243 5.8451 179.249 5.92578C179.255 6.00645 179.246 6.08759 179.221 6.16455C179.196 6.2415 179.156 6.31278 179.103 6.3743C179.051 6.43583 178.987 6.48639 178.915 6.52312C178.843 6.55984 178.764 6.582 178.684 6.58833C178.603 6.59466 178.522 6.58504 178.445 6.56001C170.191 4.30186 161.37 11.5864 155.473 17.7605C153.346 19.8911 152.443 20.533 151.083 21.7352C151.029 21.7946 150.963 21.8424 150.89 21.8754C150.816 21.9085 150.737 21.9261 150.657 21.9274C150.576 21.9286 150.496 21.9133 150.422 21.8825C150.348 21.8516 150.28 21.8059 150.224 21.7481C150.17 21.6905 150.127 21.6226 150.099 21.5484C150.071 21.4742 150.057 21.3951 150.06 21.3157C150.062 21.2363 150.08 21.1582 150.113 21.0858C150.145 21.0135 150.192 20.9483 150.25 20.8941L150.24 20.8927ZM144.695 27.4035C144.623 27.4467 144.543 27.4748 144.459 27.4859C144.376 27.4971 144.292 27.4912 144.211 27.4685C144.13 27.4457 144.055 27.4068 143.989 27.3539C143.924 27.301 143.87 27.2353 143.831 27.1609C143.792 27.0865 143.769 27.0049 143.762 26.9211C143.756 26.8373 143.767 26.753 143.794 26.6735C143.821 26.594 143.864 26.5209 143.921 26.4587C143.977 26.3965 144.046 26.3464 144.122 26.3117C145.252 25.3329 146.433 24.4146 147.659 23.5606C148.313 23.1651 148.938 23.5821 148.501 24.4203C147.598 25.8063 146.264 26.8554 144.705 27.4049L144.695 27.4035ZM150.564 38.8791C150.647 38.6847 150.668 38.4697 150.626 38.2626C150.584 38.0555 150.48 37.8662 150.327 37.7199C147.626 35.1938 147.738 30.5686 149.862 29.1558C150.896 28.5807 152.074 28.316 153.255 28.3936C153.42 28.4004 153.585 28.3668 153.735 28.2956C153.884 28.2245 154.014 28.1179 154.114 27.9852C155.883 25.7195 158.33 24.0801 161.098 23.307C160.997 23.5807 161.098 23.9031 161.527 24.1122C164.461 25.5451 164.232 28.1958 165.34 27.8648C165.49 27.8104 165.614 27.7017 165.687 27.5602C165.76 27.4187 165.777 27.2548 165.735 27.1011C165.65 26.1615 165.288 25.2684 164.694 24.5358C164.1 23.8032 163.301 23.2642 162.4 22.9875C168.054 21.8957 173.252 25.0579 180.007 21.1148C178.43 24.9083 177.708 29.003 177.893 33.1076C177.61 31.8497 176.842 30.7551 175.755 30.0636C174.668 29.372 173.351 29.1399 172.094 29.418C171.325 29.5742 171.269 30.4311 172.107 30.6288C173.05 30.7674 173.952 31.107 174.752 31.6246C175.553 32.1422 176.233 32.8258 176.747 33.6291C176.806 33.7493 176.901 33.8475 177.019 33.909C177.138 33.9706 177.273 33.9923 177.404 33.9709C177.536 33.9495 177.657 33.8861 177.75 33.7902C177.843 33.6943 177.902 33.571 177.92 33.4386C178.12 36.0341 178.986 38.5339 180.435 40.6959C180.263 40.8807 179.408 41.8995 178.844 42.6474C178.757 42.769 178.707 42.9134 178.7 43.0629C178.693 43.2125 178.73 43.3608 178.806 43.4899C179.865 45.3175 180.335 47.4273 180.154 49.5322C179.662 49.494 179.182 49.3558 178.745 49.1259C178.308 48.8961 177.922 48.5794 177.611 48.1954C177.524 48.0895 177.412 48.0066 177.285 47.954C177.159 47.9013 177.022 47.8805 176.885 47.8934C176.749 47.9063 176.618 47.9524 176.503 48.0278C176.389 48.1032 176.295 48.2055 176.229 48.3257C173.863 52.2718 167.181 60.406 162.569 62.1583C162.413 62.1991 162.278 62.298 162.192 62.435C162.107 62.5719 162.077 62.7364 162.108 62.8948C160.561 62.5387 159.127 61.7997 157.938 60.7456C157.794 60.6075 157.614 60.5141 157.418 60.4768C157.222 60.4394 157.019 60.4596 156.835 60.5349C155.781 60.9841 154.754 61.4926 153.759 62.058C145.851 57.4042 147.1 47.3629 150.578 38.8805L150.564 38.8791ZM227.055 172.912C228.605 172.899 230.118 172.899 231.683 172.859C232.21 172.846 232.735 172.821 233.273 172.808C233.35 173.156 233.776 174.193 234.003 174.769L226.273 174.858C226.586 174.23 226.852 173.58 227.069 172.914L227.055 172.912ZM213.743 174.96C214.076 175.517 214.375 176.095 214.636 176.691L209.136 176.868C209.153 176.269 209.123 175.669 209.049 175.074C213.333 175.007 212.333 174.987 213.751 174.961L213.743 174.96ZM206.972 175.103C206.994 175.717 207.059 176.328 207.168 176.933L203.273 177.059C203.24 176.629 203.163 175.526 203.113 175.133C204.393 175.126 205.708 175.117 206.981 175.097L206.972 175.103ZM196.269 175.041C197.308 175.08 199.051 175.113 201.049 175.126C201.066 175.52 201.162 176.659 201.202 177.132C199.023 177.206 197.21 177.335 195.333 177.249C195.883 176.042 196.022 175.723 196.278 175.041H196.269ZM232.686 192.104C232.523 192.104 197.525 192.033 187.679 192.787C187.903 192.248 191.939 183.206 193.661 179.175C195.971 179.423 197.082 179.307 215.848 178.674C216.062 178.665 216.267 178.592 216.439 178.464C216.61 178.336 216.738 178.16 216.807 177.957L218.136 173.594H220.16C220.401 174.492 220.687 175.378 221.019 176.246C221.088 176.435 221.214 176.598 221.378 176.713C221.543 176.828 221.738 176.89 221.939 176.891C240.034 176.699 238.811 176.655 239.216 176.234C239.622 175.812 239.352 175.456 239.427 174.193C239.414 173.733 239.401 173.272 239.427 172.812C239.803 172.778 240.77 172.65 241.374 172.627C243.839 176.977 243.545 177.727 244.503 177.589C245.456 177.479 245.336 177.517 246.461 177.431C248.542 182.415 250.932 187.264 253.618 191.949C246.521 192.541 239.737 192.208 232.695 192.104H232.686Z" fill="#181D22"/>
<path d="M42.5264 89.3417C42.4262 87.4332 42.3661 85.4802 42.3947 83.3539C42.2481 78.7306 42.843 74.1136 44.1568 69.6789C47.9415 57.0484 54.8568 69.5557 51.4571 72.3511C51.3318 72.4507 51.2502 72.5953 51.2296 72.7541C51.209 72.9129 51.251 73.0736 51.3466 73.2019C51.4423 73.3303 51.5842 73.4164 51.7421 73.4418C51.9001 73.4673 52.0618 73.4302 52.1929 73.3383C55.0557 71.3238 54.0122 65.7114 51.2066 63.2827C50.7324 62.867 50.1763 62.5556 49.5742 62.3688C48.9721 62.1821 48.3375 62.124 47.7116 62.1984C47.0857 62.2729 46.4823 62.4781 45.9407 62.8009C45.3991 63.1237 44.9313 63.5568 44.5676 64.0722C41.3212 67.928 39.957 78.5711 40.531 84.4328C40.7122 86.1389 40.9798 87.8347 41.3326 89.5136C41.3396 89.5957 41.3633 89.6754 41.4021 89.748C41.441 89.8206 41.4943 89.8844 41.5587 89.9357C41.6231 89.9869 41.6973 90.0244 41.7767 90.0459C41.8561 90.0674 41.9391 90.0725 42.0205 90.0607C42.1019 90.049 42.1801 90.0208 42.2503 89.9777C42.3204 89.9347 42.381 89.8777 42.4284 89.8104C42.4757 89.7431 42.5089 89.6668 42.5257 89.5862C42.5426 89.5056 42.5428 89.4224 42.5264 89.3417Z" fill="#181D22"/>
<path d="M51.5661 60.5784C52.1789 60.2368 52.8313 59.9717 53.5085 59.7889C56.4358 58.9292 58.1607 61.2704 58.3081 64.0143C58.4169 65.1434 58.6216 67.1952 57.7427 67.9231C57.6123 68.0219 57.5247 68.1671 57.498 68.3286C57.4714 68.4902 57.5077 68.6559 57.5996 68.7914C57.6468 68.8572 57.7067 68.9128 57.7756 68.9551C57.8446 68.9975 57.9214 69.0256 58.0013 69.0379C58.0813 69.0501 58.1629 69.0463 58.2414 69.0266C58.3199 69.007 58.3937 68.9718 58.4584 68.9232C60.1246 67.9962 60.2592 65.7538 60.2864 63.9083C60.0273 57.7399 54.147 55.5219 50.7802 59.6571C50.1805 60.1657 50.9649 61.1171 51.5661 60.5784Z" fill="#181D22"/>
<path d="M64.368 67.7048C63.735 68.0901 63.1572 68.5596 62.6503 69.1004C61.4829 70.3979 60.5674 71.9017 59.9506 73.535C59.4276 74.7002 59.1572 75.963 59.1572 77.2403C59.1572 78.5177 59.4276 79.7805 59.9506 80.9456C59.9723 81.025 60.0101 81.099 60.0616 81.1632C60.1131 81.2273 60.1772 81.2802 60.2499 81.3184C60.3227 81.3567 60.4025 81.3797 60.4845 81.3858C60.5665 81.3919 60.6488 81.3811 60.7264 81.354C60.8039 81.3322 60.8762 81.2946 60.9386 81.2437C61.001 81.1927 61.0522 81.1295 61.0891 81.0578C61.1261 80.9862 61.1479 80.9077 61.1532 80.8273C61.1585 80.7468 61.1472 80.6662 61.1201 80.5903C60.8089 78.4572 61.0769 76.2796 61.8959 74.2858C62.5773 72.3887 63.3817 71.6566 65.2097 68.5545C65.2673 68.4991 65.3134 68.4328 65.3453 68.3595C65.3771 68.2862 65.3942 68.2073 65.3954 68.1273C65.3966 68.0474 65.3819 67.968 65.3522 67.8937C65.3226 67.8195 65.2785 67.7519 65.2225 67.6948C65.1666 67.6378 65.0997 67.5928 65.0259 67.5623C64.9521 67.5319 64.8729 67.5167 64.7931 67.5176C64.7133 67.5186 64.6345 67.5356 64.5615 67.5678C64.4884 67.6 64.4226 67.6466 64.368 67.7048Z" fill="#181D22"/>
<path d="M74.846 55.1793C73.5362 56.678 68.8225 60.9422 67.4956 66.4199C66.0456 72.7817 69.0458 79.8885 69.8503 84.4249C69.8758 84.5904 69.965 84.7394 70.0987 84.84C70.2324 84.9407 70.4001 84.9851 70.566 84.9637C70.7267 84.9378 70.8711 84.8507 70.969 84.7206C71.067 84.5905 71.1108 84.4276 71.0914 84.2659C70.7006 79.6579 69.6227 76.166 69.2505 71.9205C68.6665 65.0057 71.339 62.9453 75.8122 55.9301C75.9119 55.803 75.9579 55.6419 75.9405 55.4813C75.9232 55.3207 75.8437 55.1732 75.7192 55.0704C75.5875 54.973 75.4234 54.9299 75.2609 54.9502C75.0983 54.9705 74.9498 55.0525 74.846 55.1793Z" fill="#181D22"/>
<path d="M85.3665 53.2803C83.4187 52.1493 81.2917 51.3589 79.0767 50.9428C71.5997 48.915 67.4544 47.7754 55.8006 45.3609C56.5051 44.111 56.8981 42.7102 56.9463 41.2775C56.9257 40.9362 56.852 40.6139 56.5337 40.53C55.3818 40.2221 54.6928 43.9161 54.5297 45.0994C44.8104 43.1144 34.0902 41.2375 33.8783 41.2542C32.4453 41.3368 31.0525 41.4712 29.6101 41.5914C22.6979 42.2796 23.5786 42.304 23.1534 42.1105C23.0079 42.0492 22.8442 42.0466 22.6966 42.1031C22.5489 42.1596 22.4286 42.271 22.3608 42.4139C22.293 42.5568 22.2829 42.7202 22.3327 42.87C22.3824 43.0199 22.4881 43.1446 22.6277 43.2182C23.687 43.7948 19.3089 41.3987 32.6175 48.4685C37.023 49.8005 38.9287 50.18 51.2624 52.9117C50.5582 54.0149 49.9135 55.155 49.3312 56.327C48.9883 56.998 47.4201 59.7346 48.237 60.2581C48.9395 60.7086 50.18 59.0962 50.602 58.3211C51.6007 56.7629 52.3119 55.0387 52.7016 53.2305C79.332 59.1272 82.512 60.7518 85.6069 58.7065C87.4526 57.4227 87.8153 55.0486 85.3665 53.2803Z" fill="#181D22"/>
<path d="M68.6251 133.669C63.5292 132.681 59.9463 134.581 58.1985 137.524C57.2528 139.109 56.7193 140.905 56.6469 142.75C56.6235 142.905 56.6574 143.063 56.7422 143.195C56.8271 143.327 56.957 143.423 57.1078 143.466C58.1926 143.75 59.3152 143.86 60.4344 143.794C65.6133 143.568 68.4948 139.977 69.4524 134.872C69.4991 134.603 69.4386 134.326 69.2839 134.101C69.1293 133.876 68.8928 133.721 68.6251 133.669Z" fill="#181D22"/>
<path d="M69.9585 159.061C69.9409 158.899 69.8811 158.744 69.785 158.612C69.6889 158.48 69.5599 158.375 69.4108 158.308C69.2618 158.242 69.0979 158.216 68.9355 158.232C68.7732 158.249 68.618 158.308 68.4855 158.403C65.9848 160.266 62.296 157.452 63.6859 153.613C63.7735 153.224 63.969 152.867 64.2499 152.583C64.5308 152.3 64.8859 152.101 65.2744 152.01C65.6629 151.92 66.069 151.94 66.4464 152.07C66.8237 152.2 67.1568 152.433 67.4077 152.744C67.4168 152.903 67.4867 153.052 67.6028 153.16C67.719 153.269 67.8725 153.329 68.0315 153.327C68.1904 153.325 68.3427 153.263 68.4565 153.151C68.5704 153.04 68.6372 152.89 68.643 152.731C68.7087 151.936 68.607 151.137 68.3446 150.385C68.0822 149.632 67.6648 148.943 67.1196 148.363C66.5743 147.782 65.9133 147.322 65.1793 147.013C64.4453 146.704 63.6546 146.553 62.8586 146.57C60.4112 146.899 58.1462 148.045 56.4286 149.821C54.9165 148.667 53.1489 147.895 51.2754 147.57C45.5855 147.462 44.1684 156.85 46.4887 161.898C48.7275 166.77 53.9036 170.676 57.495 167.098C58.5921 167.953 59.8415 168.591 61.1766 168.979C62.0336 169.207 62.9207 169.3 63.8062 169.256C68.4641 168.883 70.4366 163.718 69.9585 159.061Z" fill="#181D22"/>
<path d="M124.827 24.5332L115.484 3.94652L75.1766 21.088L85.835 40.3471L93.6745 37.2817L101.359 45.4492L101.176 34.1088L124.827 24.5332Z" fill="#57E697"/>
<path d="M86.5717 24.2488C87.2673 24.0342 89.4238 23.301 90.4886 22.8723C92.658 22.0343 103.287 17.4596 104.786 16.7902C106.081 16.2019 110.407 14.136 110.407 14.136C110.512 14.0855 110.595 13.9975 110.639 13.8893C110.682 13.781 110.684 13.6603 110.643 13.5506C110.593 13.4436 110.503 13.3605 110.393 13.319C110.282 13.2775 110.16 13.281 110.052 13.3287C105.329 14.9837 92.6527 20.3476 89.9473 21.5811C88.0613 22.4474 86.117 23.5178 86.2229 23.4588C86.1305 23.5122 86.0612 23.5978 86.0282 23.6993C85.9952 23.8008 86.0008 23.911 86.044 24.0089C86.0872 24.1067 86.1649 24.1853 86.2623 24.2295C86.3597 24.2738 86.4698 24.2806 86.5717 24.2488Z" fill="#181D22"/>
<path d="M96.5807 24.9535C97.139 24.8311 98.4797 24.4726 99.1509 24.2418C100.884 23.6477 107.357 21.0784 108.464 20.6127C110.814 19.596 112.185 18.8931 112.094 18.9404C112.15 18.923 112.203 18.8942 112.248 18.8559C112.293 18.8175 112.33 18.7704 112.356 18.7173C112.383 18.6643 112.398 18.6064 112.401 18.5472C112.404 18.488 112.396 18.4287 112.375 18.3729C112.355 18.3171 112.323 18.266 112.283 18.2227C112.242 18.1794 112.193 18.1447 112.139 18.1208C112.085 18.097 112.026 18.0844 111.967 18.0838C111.907 18.0832 111.848 18.0947 111.794 18.1175C106.911 19.6389 102.119 21.4388 97.4438 23.5084C96.701 23.886 96.2615 24.1463 96.2615 24.1463C96.2085 24.1667 96.1601 24.1974 96.1191 24.2366C96.0781 24.2758 96.0452 24.3227 96.0224 24.3747C95.9996 24.4267 95.9873 24.4827 95.9862 24.5395C95.985 24.5963 95.9952 24.6528 96.0159 24.7058C96.0641 24.8085 96.148 24.8903 96.2519 24.9359C96.3559 24.9815 96.4727 24.9878 96.5807 24.9535Z" fill="#181D22"/>
<path d="M102.03 28.5225C102.364 28.5112 102.695 28.4644 103.019 28.3829C103.466 28.2561 105.117 27.5148 105.541 27.3204C106.243 26.993 106.913 26.6 107.542 26.1466C107.595 26.1234 107.643 26.0899 107.683 26.0481C107.724 26.0063 107.755 25.957 107.776 25.9029C107.797 25.8488 107.808 25.7911 107.807 25.733C107.805 25.6749 107.793 25.6176 107.769 25.5643C107.746 25.511 107.712 25.4628 107.67 25.4224C107.629 25.3821 107.579 25.3504 107.525 25.3291C107.471 25.3078 107.413 25.2974 107.355 25.2984C107.297 25.2994 107.239 25.3119 107.186 25.3351C105.546 25.732 103.96 26.3226 102.46 27.0947C102.177 27.27 101.918 27.4813 101.689 27.7233C101.583 27.7682 101.5 27.8534 101.457 27.9601C101.414 28.0668 101.415 28.1863 101.461 28.2923C101.506 28.3983 101.591 28.4821 101.698 28.5253C101.805 28.5684 101.924 28.5674 102.03 28.5225Z" fill="#181D22"/>
<path d="M124.078 101.393C120.146 100.104 116.044 98.4102 112.232 98.6294C112.045 98.6348 111.859 98.5905 111.695 98.5011C111.53 98.4117 111.392 98.2803 111.295 98.1203C111.197 97.9603 111.144 97.7773 111.139 97.5899C111.135 97.4025 111.181 97.2174 111.271 97.0533C117.829 86.3285 121.721 79.8163 128.417 71.2966C128.512 71.1657 128.655 71.0779 128.814 71.0525C128.974 71.0271 129.137 71.0662 129.268 71.1612C129.399 71.2562 129.486 71.3993 129.512 71.5591C129.537 71.7188 129.498 71.8821 129.403 72.013C126.748 76.0006 116.52 92.4009 113.992 96.5862C118.632 96.963 122.592 98.9905 126.905 100.127C127.104 100.174 127.283 100.28 127.419 100.432C127.555 100.584 127.642 100.774 127.668 100.976C127.693 101.179 127.657 101.384 127.563 101.565C127.469 101.746 127.322 101.894 127.141 101.989C121.615 105.13 118.101 106.837 112.139 109.86C112.777 113.12 113.268 116.06 113.809 118.19C113.844 118.349 113.817 118.514 113.733 118.653C113.648 118.791 113.514 118.892 113.357 118.933C113.2 118.974 113.034 118.952 112.892 118.873C112.751 118.793 112.646 118.662 112.6 118.507C111.679 115.374 111.267 113.206 110.391 109.583C110.349 109.408 110.366 109.224 110.439 109.06C110.513 108.895 110.639 108.76 110.797 108.675C114.399 106.711 123.261 101.853 124.078 101.393Z" fill="#181D22"/>
<path d="M153.474 146.281C153.398 146.141 153.27 146.036 153.118 145.989C152.965 145.942 152.8 145.958 152.659 146.032C147.207 148.263 141.965 150.976 136.994 154.138C136.564 150.649 135.705 143.979 135.705 143.919C139.947 139.587 141.743 136.995 146.935 132.288C147.052 132.178 147.121 132.027 147.129 131.867C147.137 131.707 147.082 131.55 146.977 131.429C146.871 131.308 146.723 131.233 146.564 131.219C146.404 131.205 146.245 131.253 146.12 131.354C140.522 136.369 139.554 137.969 135.141 142.436C133.262 121.4 137.613 74.7857 140.664 63.0193C140.711 62.8387 140.708 62.6486 140.655 62.4697C140.602 62.2908 140.5 62.13 140.362 62.005C140.223 61.88 140.053 61.7955 139.87 61.7608C139.686 61.7262 139.497 61.7427 139.323 61.8085C116.319 70.2665 93.909 83.7381 80.7055 104.162C79.6004 97.8415 78.2863 90.693 77.5091 84.6966C77.4845 84.5351 77.4222 84.3817 77.3272 84.2487C77.2323 84.1158 77.1075 84.0071 76.9628 83.9315C76.8181 83.8558 76.6576 83.8154 76.4944 83.8134C76.3311 83.8114 76.1697 83.8479 76.0232 83.92C65.2646 89.5196 50.2575 91.58 38.4453 91.0928C38.3232 91.0961 38.2029 91.1237 38.0916 91.174C37.9802 91.2243 37.88 91.2963 37.7967 91.3858C37.7134 91.4753 37.6488 91.5805 37.6066 91.6953C37.5643 91.81 37.5453 91.9321 37.5507 92.0542C37.8141 94.7379 39.9927 112.509 40.8645 118.719C40.8887 118.872 40.9709 119.01 41.094 119.104C41.2171 119.198 41.3716 119.241 41.5256 119.224C41.6795 119.208 41.821 119.132 41.9207 119.013C42.0205 118.895 42.0707 118.742 42.0611 118.587C41.4886 112.349 39.6019 95.2323 39.3786 92.8967C51.5529 93.212 64.652 91.6946 75.6683 86.3673C76.2881 90.4538 79.8967 112.111 80.0026 112.572C80.5222 114.914 80.7942 115.495 81.3825 115.402C82.2013 115.27 81.9451 114.035 81.8964 112.203C81.5013 108.659 81.3396 108.191 81.1979 107.258C93.6757 86.6252 115.562 73.0319 138.269 64.3876C136.067 77.2316 134.596 90.1905 133.865 103.202C132.741 119.966 132.323 139.825 135.501 157.962C135.644 158.903 136.073 160.935 136.332 161.83C135.231 164.888 134.45 168.053 134.003 171.273C133.564 174.351 133.574 175.173 134.201 175.285C134.931 175.419 135.07 174.568 135.595 172.678C136.067 171.173 137.155 166.06 137.185 165.914C137.891 162.147 137.901 163.533 137.288 156.472L137.188 155.659C140.434 154.284 143.602 152.735 146.68 151.017C148.999 149.974 151.188 148.662 153.202 147.108C153.344 147.031 153.451 146.902 153.502 146.749C153.552 146.595 153.542 146.428 153.474 146.281Z" fill="#181D22"/>
<path d="M138.822 90.3652C140.899 88.9231 142.872 87.3354 144.725 85.6139C144.791 85.5655 144.847 85.5047 144.889 85.4348C144.931 85.3649 144.959 85.2874 144.972 85.2066C144.984 85.1259 144.98 85.0435 144.961 84.9641C144.941 84.8848 144.907 84.81 144.858 84.7442C144.81 84.6783 144.749 84.6226 144.679 84.5803C144.609 84.5379 144.532 84.5098 144.451 84.4974C144.371 84.485 144.288 84.4887 144.209 84.5082C144.13 84.5276 144.055 84.5626 143.989 84.6109C141.764 85.9106 139.746 87.539 138.006 89.441C137.884 89.5493 137.809 89.7019 137.799 89.8651C137.789 90.0283 137.844 90.1889 137.952 90.3115C138.06 90.434 138.213 90.5085 138.376 90.5186C138.539 90.5287 138.699 90.4735 138.822 90.3652Z" fill="#181D22"/>
<path d="M157.984 89.3302C158.457 89.9162 159.668 91.2573 161.651 93.9496C162.08 94.5701 163.082 95.8696 163.636 96.556C165.668 98.9144 165.974 99.2784 166.499 98.8858C167.012 98.4745 166.602 98.0046 165.908 96.8067C164.065 93.5979 161.859 90.6122 159.333 87.9088C159.047 87.6036 157.125 85.8813 156.494 86.5132C156.044 87.052 157.851 89.1869 157.984 89.3302Z" fill="#181D22"/>
<path d="M221.522 91.2003C216.466 97.4532 219.374 93.9441 214.475 100.322C212.038 103.356 209.803 106.547 207.784 109.874C207.475 109.023 202.272 93.7951 201.812 92.4526C201.795 92.3746 201.762 92.301 201.714 92.2367C201.667 92.1724 201.607 92.1186 201.537 92.079C201.468 92.0393 201.391 92.0146 201.312 92.0064C201.233 91.9982 201.152 92.0067 201.076 92.0313C201.001 92.0535 200.93 92.0907 200.869 92.1407C200.808 92.1907 200.757 92.2525 200.721 92.3224C200.684 92.3922 200.661 92.4688 200.654 92.5475C200.648 92.6263 200.657 92.7055 200.681 92.7807C203.895 107.929 213.601 132.152 219.983 146.27C220.044 146.422 220.163 146.543 220.313 146.608C220.464 146.672 220.634 146.674 220.786 146.612C220.938 146.551 221.059 146.432 221.123 146.281C221.187 146.131 221.189 145.961 221.128 145.809C220.555 144.318 211.858 121.02 208.408 111.588C211.557 107.401 218.735 98.406 220.707 95.2538C221.389 94.1556 222.004 93.0168 222.548 91.8436C222.632 91.7074 222.659 91.5434 222.622 91.3875C222.586 91.2316 222.49 91.0963 222.354 91.0114C222.219 90.9264 222.055 90.8985 221.899 90.9339C221.743 90.9693 221.607 91.0651 221.522 91.2003Z" fill="#181D22"/>
<path d="M211.774 75.3638L210.945 75.2979C206.12 77.0705 201.555 79.4881 197.377 82.485C197.18 82.6112 197.035 82.8049 196.97 83.03C196.904 83.2551 196.923 83.4962 197.022 83.7086C197.308 84.3462 198.177 86.3278 199.218 88.8668C187.961 93.7685 177.746 97.4767 166.319 103.146C166.171 103.22 166.049 103.338 165.972 103.485C165.895 103.632 165.866 103.799 165.89 103.963L166.245 107.423C162.184 111.129 158.4 115.128 154.924 119.388C154.82 119.513 154.77 119.673 154.782 119.835C154.794 119.997 154.869 120.148 154.989 120.256C155.049 120.31 155.118 120.352 155.194 120.379C155.269 120.406 155.35 120.417 155.43 120.412C155.51 120.408 155.588 120.387 155.66 120.351C155.732 120.315 155.796 120.265 155.848 120.204C159.158 116.342 162.698 112.683 166.448 109.247C165.503 126.188 170.612 147.751 182.416 161.633C182.522 161.754 182.671 161.829 182.832 161.842C182.992 161.855 183.152 161.804 183.276 161.702C183.4 161.6 183.48 161.453 183.498 161.293C183.517 161.133 183.472 160.972 183.375 160.844C182.188 159.328 181.095 157.741 180.101 156.093C168.601 137.248 168.72 118.068 167.524 104.357C177.617 99.5371 190.237 94.9005 200.877 90.3269C201.109 90.2295 201.297 90.0486 201.403 89.8198C201.509 89.591 201.525 89.3308 201.449 89.0903C200.921 87.53 200.339 86.2247 199.228 83.6814C202.957 81.0981 206.989 78.9809 211.232 77.3769C233.924 89.5359 245.95 119.284 244.405 144.408C243.954 152.228 243.173 160.348 239.488 167.256C239.446 167.324 239.419 167.401 239.407 167.48C239.396 167.56 239.401 167.641 239.422 167.719C239.442 167.796 239.479 167.869 239.529 167.932C239.579 167.995 239.641 168.047 239.711 168.085C239.855 168.162 240.023 168.18 240.18 168.136C240.336 168.092 240.47 167.989 240.553 167.849C244.528 161.331 245.706 152.002 246.279 144.527C248.04 117.983 235.238 87.6245 211.774 75.3638Z" fill="#181D22"/>
<path d="M170.262 186.491C170.249 186.238 170.142 185.999 169.962 185.821C169.782 185.644 169.542 185.54 169.289 185.53L133.932 184.412L120.876 123.382C120.825 123.156 120.701 122.953 120.522 122.806C120.344 122.658 120.121 122.574 119.89 122.567L0.250988 121.145C0.155923 121.14 0.0609973 121.158 -0.0258249 121.197C-0.112647 121.236 -0.188834 121.295 -0.248001 121.37C-0.307168 121.445 -0.347588 121.533 -0.365871 121.626C-0.384153 121.72 -0.379766 121.816 -0.353077 121.908L16.1485 191.002C16.2272 191.383 16.5779 192.304 16.9758 192.304H169.598C169.874 192.304 170.136 192.832 170.346 192.621C170.753 192.226 170.673 192.3 170.262 186.491ZM127.817 190.615C126.376 183.704 122.325 165.06 122.001 163.304C120.345 154.707 119.148 145.984 117.452 137.369C115.591 129.166 116.33 132.605 114.717 126.38C114.675 126.225 114.575 126.092 114.438 126.009C114.301 125.926 114.138 125.898 113.981 125.933C113.902 125.95 113.827 125.982 113.761 126.029C113.695 126.075 113.638 126.135 113.596 126.203C113.553 126.272 113.524 126.349 113.511 126.429C113.499 126.509 113.502 126.59 113.522 126.669C113.798 128.143 118.57 156.309 119.95 163.692C122.061 174.295 123.627 179.43 126.463 190.602C82.8045 190.327 20.636 189.939 17.66 189.922L1.01394 122.382C4.05144 122.448 114.097 124.531 119.075 124.593L132.092 185.632C132.135 185.862 132.257 186.071 132.437 186.222C132.617 186.373 132.843 186.458 133.078 186.461L168.264 187.566L168.487 190.87C166.019 190.859 149.299 190.751 127.817 190.615Z" fill="#181D22"/>
</g>
<defs>
<clipPath id="clip0_267_2958">
<path d="M0 0H246V170C246 175.523 241.523 180 236 180H0V0Z" fill="white"/>
</clipPath>
</defs>
</svg>
