<svg width="231" height="180" viewBox="0 0 231 180" fill="none" xmlns="http://www.w3.org/2000/svg">
<g clip-path="url(#clip0_267_2936)">
<path d="M123.606 126.228L120.45 116.45C120.45 116.45 115.077 117.711 112.559 115.819L107.508 122.127C107.508 122.127 108.296 129.224 110.348 132.694C110.348 132.694 97.7225 148.306 94.7236 162.656C94.7236 166.126 102.772 179.053 102.772 179.053C102.772 179.053 117.451 169.591 120.45 168.488C119.187 150.51 117.925 133.32 117.925 133.32C120.148 131.239 122.061 128.851 123.606 126.228ZM109.875 139.633C105.794 145.07 100.435 153.908 98.9831 160.608C98.6767 162.028 96.4576 161.396 96.7728 159.976C99.3026 150.952 103.806 145.717 108.927 139.001C109.402 138.528 110.348 139.157 109.875 139.633Z" fill="#57E697"/>
<path d="M109.401 62.0432C109.756 62.1099 110.123 62.0523 110.441 61.8799C110.758 61.7076 111.007 61.4311 111.144 61.0971C112.236 59.646 111.454 57.1038 109.882 57.6276C108.454 58.1006 107.496 61.6151 109.401 62.0432Z" fill="#181D22"/>
<path d="M126.29 64.717C126.645 64.784 127.012 64.7265 127.33 64.5541C127.647 64.3817 127.895 64.1051 128.032 63.7709C129.124 62.3198 128.343 59.7776 126.77 60.3014C125.343 60.7803 124.384 64.2962 126.29 64.717Z" fill="#181D22"/>
<path d="M114.136 50.0621C112.865 49.6123 110.033 49.5891 109.56 51.1664C109.482 51.3593 109.471 51.5725 109.528 51.7725C109.585 51.9724 109.707 52.1477 109.875 52.2706C110.546 52.6842 111.284 52.0327 112.085 52.1125C112.887 52.1923 113.506 53.0586 114.294 53.2167C114.463 53.2664 114.641 53.2752 114.814 53.2424C114.987 53.2097 115.149 53.1364 115.288 53.0285C115.427 52.9206 115.538 52.7812 115.612 52.622C115.686 52.4627 115.721 52.288 115.715 52.1125C115.663 51.6595 115.489 51.2292 115.211 50.8679C114.933 50.5066 114.561 50.228 114.136 50.0621Z" fill="#181D22"/>
<path d="M133.076 55.1035C132.129 52.895 128.657 51.4759 127.078 53.8411C126.45 54.7843 127.961 55.7986 128.657 55.1035C129.13 54.6305 129.921 54.9453 130.4 55.4184C130.879 55.8914 130.873 56.8375 131.347 57.3048C132.549 58.5193 133.869 57.4789 133.076 55.1035Z" fill="#181D22"/>
<path d="M117.293 59.0466C117.33 58.8812 117.301 58.708 117.211 58.564C117.122 58.4199 116.98 58.3163 116.816 58.2752C116.651 58.2342 116.477 58.2589 116.331 58.3442C116.184 58.4295 116.077 58.5685 116.031 58.7317C115.228 60.7763 113.979 66.1438 113.821 66.7735C113.663 67.4033 113.506 68.1926 114.136 68.6671C115.635 69.0416 117.169 69.2527 118.714 69.2969C118.943 69.3159 119.17 69.2437 119.346 69.096C119.522 68.9483 119.633 68.7371 119.653 68.5083C119.674 68.2796 119.604 68.0519 119.458 67.8748C119.311 67.6977 119.101 67.5856 118.872 67.5629C118.243 67.3946 115.4 67.0898 115.4 67.0898C115.715 67.0898 116.978 60.6239 117.293 59.0466Z" fill="#181D22"/>
<path d="M123.923 74.8166C118.995 75.8019 116.04 76.6899 110.98 75.7627C110.816 75.7301 110.646 75.7619 110.504 75.8514C110.363 75.9409 110.261 76.0812 110.221 76.2434C110.18 76.4056 110.203 76.5772 110.286 76.7227C110.368 76.8682 110.503 76.9765 110.664 77.0251C112.101 77.4901 113.581 77.8071 115.083 77.9712C115.588 81.4973 119.393 85.968 122.818 84.5938C123.896 84.1823 124.791 83.3996 125.343 82.3868C126.219 80.7283 126.705 78.8921 126.763 77.0179C126.802 76.6598 126.749 76.2977 126.608 75.9662C126.467 75.6347 126.244 75.3447 125.959 75.124C125.674 74.9033 125.337 74.7591 124.981 74.7053C124.624 74.6515 124.26 74.6898 123.923 74.8166ZM123.449 81.7556C121.967 83.6071 119.647 82.1517 118.398 80.1783C117.956 79.4266 117.586 78.6347 117.293 77.813C119.843 77.6333 122.375 77.2642 124.87 76.7088C124.667 78.4557 124.188 80.1592 123.449 81.7556Z" fill="#181D22"/>
<path d="M32.2212 62.3577C32.8405 61.5495 33.3206 60.6437 33.6415 59.6776C34.115 58.7315 34.4301 57.7912 34.905 56.8379C37.3244 51.0337 38.8856 45.5486 37.7456 39.3338C37.5728 38.3906 36.167 38.8607 36.3253 39.8068C37.795 48.6162 32.426 57.1702 30.9592 61.5727C30.8009 62.201 31.7376 62.9759 32.2212 62.3577Z" fill="#181D22"/>
<path d="M0.811419 40.5948C3.90182 42.5029 5.42815 46.8053 7.44098 51.4777C10.5169 58.6198 11.2604 61.3449 14.0705 64.5677C15.3645 66.0522 18.4186 68.6525 20.2252 67.879C20.3976 67.76 20.5234 67.5848 20.5812 67.3835C20.6389 67.1821 20.625 66.967 20.5418 66.7748C20.4006 66.5601 20.2146 66.3785 19.9965 66.2425C19.7784 66.1065 19.5334 66.0193 19.2783 65.9869C17.8987 65.3481 16.6635 64.4358 15.6477 63.3053C13.2834 60.8269 12.2567 57.3429 9.01958 50.3735C7.27687 46.6254 5.72877 41.5554 1.60145 39.3353C0.654579 39.0175 0.0286522 40.1116 0.811419 40.5948Z" fill="#181D22"/>
<path d="M12.6493 47.2194C12.7466 47.3854 12.9016 47.5097 13.0849 47.5687C13.2681 47.6276 13.4667 47.617 13.6426 47.5389C13.8185 47.4608 13.9595 47.3207 14.0385 47.1453C14.1176 46.9699 14.1291 46.7716 14.0711 46.5882C13.6708 45.1272 13.033 43.7418 12.1831 42.4875C9.90727 38.5306 6.7138 35.1775 2.87125 32.7103C2.70295 32.6205 2.50805 32.5939 2.3218 32.6352C2.13556 32.6766 1.97028 32.7831 1.85586 32.9357C1.74145 33.0882 1.68546 33.2766 1.69802 33.4669C1.71059 33.6571 1.79089 33.8365 1.92437 33.9727C10.0541 40.4763 10.7294 44.0866 12.6493 47.2194Z" fill="#181D22"/>
<path d="M14.3864 35.2335C18.1535 41.8576 17.8108 43.3014 18.6473 44.6929C18.7524 44.8681 18.9119 45.0042 19.1016 45.0805C19.2912 45.1567 19.5006 45.169 19.6978 45.1155C19.8951 45.0619 20.0695 44.9455 20.1944 44.7838C20.3193 44.6222 20.388 44.4241 20.39 44.2199C20.2959 43.2847 20.028 42.3753 19.6 41.5383C19.2848 40.7504 18.9871 39.9538 18.6531 39.1731C16.5176 34.1515 13.3444 29.6373 9.34122 25.9264C9.21565 25.8009 9.04535 25.7305 8.86778 25.7305C8.69021 25.7305 8.51991 25.8009 8.39434 25.9264C8.26878 26.0519 8.19824 26.222 8.19824 26.3995C8.19824 26.5769 8.26878 26.747 8.39434 26.8725C10.6171 29.4911 12.6212 32.2875 14.3864 35.2335Z" fill="#181D22"/>
<path d="M24.3301 43.1177C24.6452 43.7489 25.7417 43.9042 25.9087 43.1177C26.1113 41.6398 26.0034 40.136 25.5921 38.7021C24.9634 34.3863 23.8518 30.1546 22.2781 26.0866C22.2153 25.8984 22.0802 25.7429 21.9027 25.6542C21.7251 25.5654 21.5195 25.5508 21.3312 25.6136C21.1428 25.6763 20.9872 25.8112 20.8984 25.9887C20.8096 26.1661 20.795 26.3715 20.8578 26.5597C23.4762 32.9139 23.7913 40.9672 24.3301 43.1177Z" fill="#181D22"/>
<path d="M228.407 60.9439C227.672 56.3469 223.615 53.2533 220.674 53.217C207.031 53.0719 201.012 53.0588 152.649 53.0588C152.52 50.4485 151.644 47.93 150.123 45.8035C147.951 42.9759 144.798 41.0632 141.285 40.4419C139.827 36.7022 137.919 33.1538 135.602 29.8753C128.691 19.2825 118.175 16.4312 110.034 20.098C100.485 24.3961 98.934 36.1003 104.515 42.1759C108.519 46.5392 114.932 47.6899 120.613 47.6899C124.473 47.6886 128.327 47.3722 132.135 46.7438C133.838 51.785 137.242 56.0777 141.764 58.8863C141.055 62.8985 138.54 70.3206 141.132 72.1344C142.711 73.2373 147.166 66.5784 150.281 69.7678C153.636 73.1995 147.441 77.6528 145.389 77.811C144.758 78.284 140.181 96.2626 140.023 99.8888C136.709 100.993 121.869 105.258 117.768 106.198C116.506 105.252 112.25 100.829 111.297 99.8888C111.455 99.1009 111.455 92.6336 111.455 91.374C113.191 91.5308 114.929 91.5119 116.506 91.6889C117.77 91.834 118.083 89.6386 116.821 89.3237C113.349 88.6925 109.689 89.4108 106.246 88.2194C102.575 86.9483 101.512 85.0474 101.512 82.5414C101.512 75.2992 104.325 60.0805 108.456 49.4239C108.763 48.6331 107.359 48.0077 107.036 48.7942C104.057 55.8331 101.887 63.1866 100.565 70.7139C99.8715 74.5167 99.4493 78.364 99.3014 82.2266C99.1808 88.0642 103.899 90.5295 109.718 91.0577C109.562 92.3201 109.245 98.786 109.245 99.574C109.245 101.151 115.401 106.829 116.033 107.301C111.614 112.979 107.825 119.128 103.879 125.279C102.932 118.814 101.92 112.329 100.565 106.04C100.129 103.982 99.7748 101.782 99.1445 99.7321C98.9862 98.9428 97.5659 99.1009 97.7242 99.8888C98.6711 107.144 100.135 114.234 101.197 121.337C101.525 123.543 101.802 125.757 102.143 127.961C102.154 128.179 102.234 128.388 102.372 128.556C102.511 128.725 102.7 128.845 102.912 128.898C103.123 128.951 103.347 128.935 103.548 128.851C103.75 128.768 103.919 128.621 104.031 128.434C108.208 122.015 112.081 115.344 116.811 109.351C116.811 110.647 123.307 127.904 125.335 131.745C125.411 131.881 125.518 131.996 125.649 132.082C125.779 132.167 125.928 132.219 126.083 132.235C126.238 132.25 126.394 132.228 126.538 132.171C126.683 132.113 126.812 132.021 126.913 131.904C139.17 119.95 137.571 119.538 150.114 106.04C168.738 110.27 191.454 115.129 203.62 135.373C207.92 142.853 210.709 151.104 211.827 159.658C212.496 164.943 212.549 170.289 211.985 175.586C211.655 179.359 210.666 183.857 210.565 184.576C203.777 184.576 168.265 184.89 157.216 185.049C158.523 179.054 161.156 154.867 171.422 135.373C171.895 134.584 170.632 133.796 170.158 134.584C164.726 144.872 160.517 155.834 157.379 172.433C156.484 176.589 155.901 180.806 155.636 185.049C130.539 185.207 104.971 185.365 79.7177 185.049C81.0393 174.491 85.1172 137.151 86.0307 129.537C86.189 128.749 84.6031 128.433 84.4521 129.38C83.2903 136.627 80.9797 155.086 80.6646 157.136C65.7281 157.136 54.1493 155.565 41.9953 146.411C31.8602 138.671 24.7672 127.62 21.9542 115.187C20.2484 106.835 19.5068 98.3149 19.7438 89.7938C33.5882 83.9693 27.9273 86.2373 38.0524 82.6967C38.751 91.0766 42.8696 97.4975 49.4164 102.567C58.4334 109.547 67.5507 111.301 78.4615 109.506C84.6313 108.21 90.6579 106.308 96.4535 103.828C97.4106 103.377 96.7628 101.755 95.6649 102.087C82.6672 106.105 69.4372 113.497 51.7864 101.772C48.4156 99.6085 45.555 96.7393 43.4025 93.3629C41.2499 89.9865 39.8566 86.1834 39.3188 82.2164C40.1074 82.0582 40.742 81.7622 41.5277 81.5852C41.6662 81.5401 41.7921 81.4633 41.8954 81.3608C41.9987 81.2582 42.0765 81.1329 42.1226 80.9949C42.1686 80.8569 42.1816 80.71 42.1605 80.5661C42.1394 80.4221 42.0848 80.2851 42.0011 80.1661C41.5291 75.9159 39.952 66.8555 39.1605 62.6619C38.9819 61.7188 38.5288 61.0846 37.8971 61.2428C30.0506 64.2163 22.3598 67.5847 14.8541 71.3349C14.3807 71.4931 14.539 72.5973 14.539 72.5973C14.3487 76.1989 14.2717 87.0862 14.539 90.5745C14.6595 92.1547 17.3796 90.5745 17.853 90.4178C17.5626 104.566 18.9509 119.4 26.0597 131.577C29.7963 137.833 34.6048 143.383 40.2657 147.974C40.2657 163.039 39.6049 161.277 40.2657 178.095V178.253C40.896 182.196 43.1063 186.296 46.8938 186.77C50.3051 186.77 66.6314 187.557 114.604 187.557C140.018 187.557 209.461 186.848 218.933 186.77C221.127 186.776 223.253 186.002 224.929 184.586C226.605 183.17 227.723 181.205 228.082 179.041C228.092 173.52 229.312 136.862 228.407 60.9439ZM39.1663 72.609C39.6151 75.2934 39.9549 77.9706 40.4283 80.6507C32.2513 83.1824 24.2834 86.345 16.5968 90.1102C16.2686 84.3857 16.1219 78.9109 16.1219 73.2358C23.3832 69.9245 30.6445 66.7699 38.0612 63.9316C38.1918 66.8494 38.5614 69.7515 39.1663 72.609ZM42.797 178.584C42.341 167.225 42.797 153.471 42.797 150.199C49.8475 155.057 57.9686 158.14 66.4688 159.186C71.0669 159.875 75.7334 159.981 80.3581 159.503C80.1694 161.012 77.6744 182.106 77.6744 185.681L47.2133 185.208C44.8476 184.735 43.1121 181.581 42.797 178.584ZM129.446 28.61C129.604 28.2936 130.078 28.2936 130.394 28.4518C131.294 28.8783 132.019 29.6027 132.445 30.5021C132.761 31.2901 132.13 32.2434 131.341 31.7631C130.709 31.4482 130.551 30.817 130.236 30.344C129.762 29.8709 128.972 29.2397 129.446 28.61ZM124.87 22.9262C127.254 23.8795 127.164 25.9226 125.974 25.9226C123.447 25.6701 122.052 23.1931 116.824 23.7141C113.631 23.5988 110.517 24.7302 108.144 26.8687C108.019 26.9943 107.848 27.065 107.671 27.0651C107.493 27.0653 107.322 26.9949 107.197 26.8694C107.071 26.744 107 26.5737 107 26.3961C107 26.2186 107.07 26.0482 107.196 25.9226C110.98 21.0601 119.347 20.2838 124.87 22.9262ZM226.04 179.683C225.696 181.261 224.817 182.672 223.551 183.676C222.286 184.681 220.711 185.218 219.095 185.197H212.94C213.379 183.326 213.696 181.43 213.887 179.519C214.534 174.447 214.745 169.329 214.519 164.222C213.942 154.816 211.416 145.633 207.101 137.255C196.389 116.979 175.099 109.022 152.496 105.084C151.703 104.939 149.497 103.821 148.709 104.767C145.551 108.553 142.089 112.188 138.922 115.965C132.841 123.22 132.968 123.49 126.454 130C125.217 127.429 124.11 124.797 123.139 122.115C121.79 118.304 120.089 114.402 119.036 110.445C118.869 109.817 118.561 109.184 118.404 108.395C118.561 108.395 129.617 105.58 134.029 104.138C139.895 102.219 142.079 102.168 142.079 100.983C142.59 95.3788 143.644 89.8374 145.226 84.4365C145.679 82.8534 146.015 81.2819 146.488 79.7046C150.276 79.0734 153.838 75.5923 153.275 71.6614C153.124 70.6894 152.725 69.7726 152.117 68.9992C151.509 68.2259 150.712 67.622 149.802 67.2458C149.683 67.2293 149.572 67.1742 149.487 67.0891C149.96 66.143 150.276 65.0388 150.749 64.0927C151.912 61.2809 152.605 58.2976 152.801 55.2615C161.166 55.2615 206.15 55.1034 220.511 55.4183C221.87 55.698 223.116 56.3693 224.097 57.3493C225.078 58.3293 225.75 59.5749 226.03 60.9323C226.513 100.993 226.513 139.79 226.04 179.688V179.683Z" fill="#181D22"/>
<path d="M56.2111 55.4183H97.8822C98.1818 55.3973 98.4623 55.2636 98.6671 55.0441C98.8718 54.8246 98.9857 54.5357 98.9857 54.2356C98.9857 53.9356 98.8718 53.6467 98.6671 53.4272C98.4623 53.2077 98.1818 53.074 97.8822 53.053H56.2111C56.0652 53.0496 55.92 53.0759 55.7845 53.1302C55.6489 53.1845 55.5258 53.2658 55.4226 53.369C55.3194 53.4723 55.2383 53.5953 55.1841 53.7308C55.1299 53.8663 55.1039 54.0114 55.1074 54.1573C55.0949 54.4687 55.2024 54.773 55.4077 55.0076C55.6131 55.2422 55.9006 55.3892 56.2111 55.4183Z" fill="#181D22"/>
<path d="M220.988 22.6177C217.439 3.61749 192.721 -2.31009 173.482 0.538342C163.328 2.04164 153.415 6.923 149.175 16.1517C147.987 18.9482 147.344 21.9455 147.28 24.9829C147.28 36.9077 157.025 45.5052 168.588 47.6919C169.309 47.8852 170.051 47.9909 170.798 48.0068C170.746 49.497 170.535 50.9774 170.166 52.4224C169.322 55.7036 167.698 58.733 165.432 61.2535C164.783 62.0284 165.432 63.4795 166.537 63.1472C174.026 60.7553 180.338 55.6311 184.214 48.7962C191.388 49.3273 200.951 48.6975 207.574 45.9565C217.532 41.8355 222.776 32.1961 220.988 22.6177ZM172.06 27.1899C170.172 30.8176 164.142 29.7119 164.485 25.4487C164.776 21.821 168.588 19.614 171.43 22.4522C171.995 23.0895 172.357 23.8808 172.469 24.7249C172.582 25.5689 172.439 26.4273 172.06 27.1899ZM184.371 29.3984C183.54 29.3045 182.755 28.9712 182.11 28.4392C181.465 27.9072 180.99 27.1994 180.74 26.402C179.061 21.0215 187.923 19.4761 188.79 24.5156C188.888 25.1391 188.845 25.7765 188.664 26.3812C188.484 26.9859 188.17 27.5426 187.747 28.0106C187.323 28.4787 186.8 28.8462 186.216 29.0863C185.632 29.3264 185.002 29.4331 184.371 29.3984ZM198.894 21.8283C199.659 21.3628 200.555 21.1588 201.446 21.2468C202.338 21.3349 203.177 21.7103 203.836 22.3165C204.495 22.9226 204.939 23.7265 205.101 24.607C205.263 25.4874 205.134 26.3965 204.733 27.1972C204.342 27.9344 203.741 28.5384 203.004 28.9318C202.268 29.3252 201.431 29.4901 200.601 29.4055C199.77 29.3209 198.984 28.9906 198.342 28.4568C197.701 27.923 197.233 27.2101 197 26.4093C196.709 25.5461 196.74 24.6068 197.088 23.7648C197.435 22.9228 198.076 22.2349 198.892 21.8283H198.894Z" fill="#57E697"/>
</g>
<defs>
<clipPath id="clip0_267_2936">
<rect width="230.704" height="180" fill="white"/>
</clipPath>
</defs>
</svg>
