<svg width="25" height="24" fill="none" xmlns="http://www.w3.org/2000/svg"><path d="M8.983 15c-.179 0-.536 0-.715-.171a.806.806 0 010-1.2L22.564.257a.89.89 0 011.25 0 .806.806 0 010 1.2L9.52 14.83c-.18.17-.358.17-.537.17z" fill="#000"/><path d="M5.739 23.672s-.205 0 0 0C2.459 23.672 0 21.007 0 17.933s2.664-5.739 5.739-5.534c1.434 0 2.87.615 4.099 1.64 1.025 1.025 1.64 2.46 1.64 4.1-.205 3.073-2.665 5.533-5.74 5.533zm-3.69-5.739c0 2.05 1.64 3.69 3.69 3.69 1.024 0 1.844-.41 2.664-1.025.615-.615 1.025-1.64 1.025-2.665 0-1.025-.41-1.844-1.025-2.664-.615-.615-1.64-1.025-2.664-1.025-2.05 0-3.69 1.64-3.69 3.69z" fill="#000"/></svg>