<svg width="107" height="82" fill="none" xmlns="http://www.w3.org/2000/svg"><path d="M.751 80.512h105.207V7.697H.751v72.815z" fill="#fff"/><path d="M105.887 81.253H.681c-.409 0-.681-.272-.681-.68V7.757c0-.409.272-.68.68-.68h105.207c.409 0 .681.271.681.68v72.814c0 .409-.272.68-.681.68zM1.361 79.892h103.846V8.438H1.361v71.454z" fill="#000"/><path d="M.751 14.22h105.207V4.555H.751v9.663z" fill="#D1BAFF"/><path d="M105.887 14.835H.681c-.409 0-.681-.272-.681-.68V4.492c0-.409.272-.681.68-.681h105.207c.409 0 .681.272.681.68v9.664c0 .408-.272.68-.681.68zM1.361 13.61h103.846V5.308H1.361v8.302z" fill="#000"/><path d="M73.631 10.072c-.408 0-.68-.273-.68-.681V.681c0-.409.272-.681.68-.681.409 0 .68.272.68.68v8.711c0 .408-.408.68-.68.68zm-40.558 0c-.408 0-.68-.273-.68-.681V.681c0-.409.272-.681.68-.681.408 0 .68.272.68.68v8.711c0 .408-.408.68-.68.68z" fill="#000"/></svg>