<svg width="90" height="90" fill="none" xmlns="http://www.w3.org/2000/svg"><path d="M75.419 76.603c17.456-16.637 17.992-44.142 1.198-61.434C59.822-2.124 32.056-2.655 14.6 13.983-2.856 30.62-3.392 58.125 13.402 75.417 30.197 92.71 57.962 93.24 75.42 76.603z" fill="#fff"/><path d="M45.103 89.74h-.62c-12-.205-23.173-4.919-31.655-13.322C4.345 67.81 0 56.742 0 44.855.207 20.465 20.483.79 44.897.79h.62c12 .205 23.173 4.918 31.655 13.322C85.655 22.72 90 33.787 90 45.675 89.586 70.269 69.517 89.74 45.103 89.74zm0-86.9c-23.379 0-42.62 18.65-42.827 42.015-.207 23.365 18.827 42.63 42.414 43.04 23.586.206 43.034-18.65 43.448-42.015C88.345 34.607 84 23.744 75.93 15.75 67.862 7.553 57.103 3.044 45.724 3.044c-.414-.205-.62-.205-.62-.205z" fill="#000"/><path d="M45.31 15.136c-.621 0-1.035-.41-1.035-1.024V8.168c0-.615.414-1.025 1.034-1.025.621 0 1.035.41 1.035 1.025v5.944c0 .41-.414 1.024-1.035 1.024zm-.827 68.455c-.62 0-1.034-.41-1.034-1.024v-5.944c0-.615.413-1.025 1.034-1.025.62 0 1.035.41 1.035 1.025v5.944c0 .41-.414 1.024-1.035 1.024zM82.551 46.7h-6c-.62 0-1.034-.41-1.034-1.025s.414-1.025 1.035-1.025h6c.62 0 1.034.41 1.034 1.025 0 .614-.414 1.025-1.035 1.025zm-69.103-.82h-6c-.62 0-1.034-.41-1.034-1.025s.413-1.025 1.034-1.025h6c.62 0 1.035.41 1.035 1.025s-.414 1.025-1.035 1.025z" fill="#000"/></svg>