<svg width="12" height="7" fill="none" xmlns="http://www.w3.org/2000/svg"><path d="M.476 2.629H.339c-.136-.136-.136-.272 0-.272L2.381.315c.136-.136.272-.136.272 0 .136.136.136.272 0 .272L.612 2.63H.476zm9.119 3.946h-.136c-.137-.136-.137-.272 0-.272l1.497-1.497c.136-.136.272-.136.272 0 .136.136.136.272 0 .272L9.73 6.575h-.136zM.748 5.215s-.136 0-.136-.136c-.136-.137-.136-.273 0-.273C2.245 3.446 3.878 1.948 5.375.315c.137-.136.273-.136.273 0 .136.136.136.272 0 .272C4.15 2.084 2.518 3.581.884 5.08l-.136.136zM2.79 6.848h-.137c-.136-.136-.136-.273 0-.273C4.831 4.534 7.01 2.492 9.186.587c.136-.136.272-.136.272 0 .137.136.137.272 0 .272-2.177 1.906-4.355 3.947-6.532 5.989h-.137zm3.266.136s-.137 0-.137-.136c-.136-.136-.136-.273 0-.273a72.26 72.26 0 014.764-4.355c.136-.136.272-.136.272 0 .136.136.136.272 0 .272-1.633 1.361-3.13 2.859-4.763 4.356 0 0 0 .136-.136.136z" fill="#000"/></svg>