<svg width="90" height="57" fill="none" xmlns="http://www.w3.org/2000/svg"><path d="M.661 1.366c1.441 13.099 1.703 26.33.655 39.428-.262 3.668-.524 7.598.524 11.135.786 2.488 3.144 4.191 5.764 4.191l10.086-.262c3.93-.13 7.99-.13 11.92-.262l52.004-1.179c1.572 0 3.274-.13 4.715-.655 1.441-.655 2.751-1.965 2.751-3.405.262-16.636.393-33.272-.13-49.646a1036.498 1036.498 0 01-34.713 33.14c-1.834 1.704-4.323 3.538-6.812 2.752-7.073-2.49-12.968-7.467-18.732-12.445-9.3-7.99-18.731-15.98-28.032-22.792z" fill="#fff"/><path d="M7.473 56.644c-2.882 0-5.37-1.833-6.157-4.584C.268 48.654.4 44.724.792 40.663 1.84 27.564 1.578 14.334.137 1.367A1 1 0 01.4.711c.262-.13.524-.13.655 0 9.3 6.943 18.863 15.064 28.163 22.924 5.37 4.584 11.397 9.824 18.47 12.313 2.227.655 4.585-1.18 6.157-2.62A1036.474 1036.474 0 0088.556.188c.131-.132.393-.263.655-.132s.393.262.393.524c.393 14.147.393 29.866.131 49.646.131 1.834-1.44 3.275-3.144 3.93-1.571.655-3.405.655-4.977.786L7.473 56.644zM1.447 2.676c1.31 12.575 1.441 25.412.524 38.118-.262 3.93-.524 7.598.524 10.873.655 2.227 2.75 3.798 5.109 3.667l74.14-1.702c1.573 0 3.145-.131 4.454-.655 1.18-.524 2.358-1.572 2.358-2.751.262-19.125.262-34.45 0-48.074a973.552 973.552 0 01-33.664 32.093c-1.834 1.703-4.585 3.799-7.336 3.013-7.335-2.62-13.492-7.86-18.994-12.444C19.524 17.085 10.355 9.357 1.447 2.676z" fill="#000"/></svg>