<svg width="110" height="124" fill="none" xmlns="http://www.w3.org/2000/svg"><mask id="a" style="mask-type:alpha" maskUnits="userSpaceOnUse" x="0" y="0" width="110" height="124"><path fill="#C4C4C4" d="M.232.613h108.8v122.452H.232z"/></mask><g mask="url(#a)"><path d="M25.973 82.294c.354 1.652 1.534 2.596 2.95 3.54 1.297.943 2.83 1.533 4.364 2.123 4.955 1.887 10.145 3.657 15.336 2.83 2.95-.47 6.017-2.948 6.017-3.184 0-.59-2.242-2.006-4.247-2.95-3.068-1.297-6.489-1.061-9.792-1.769-2.477-.59-4.837-1.415-7.314-1.887-2.477-.59-6.724-.59-7.314 1.297z" fill="#fff"/><path d="M45.91 91.496c-4.246 0-8.493-1.416-12.858-3.067-1.416-.59-3.067-1.18-4.483-2.124-1.18-.826-2.713-1.887-3.185-3.893v-.354c.944-2.949 7.668-1.77 8.022-1.77 1.533.237 2.949.709 4.364 1.062.944.236 2.006.59 2.95.826 1.18.236 2.477.472 3.775.59 2.005.236 4.129.472 6.134 1.298.944.354 4.483 2.241 4.6 3.42 0 .945-3.774 3.422-6.487 3.894-.944.118-1.888.118-2.832.118zm-19.346-9.202c.353 1.298 1.297 2.124 2.595 3.067 1.297.944 2.831 1.534 4.247 2.006 5.072 1.887 10.145 3.539 14.982 2.713 2.359-.354 4.718-2.123 5.426-2.713-.472-.472-1.887-1.534-3.775-2.36-1.77-.825-3.775-.943-5.78-1.18-1.298-.117-2.596-.235-3.893-.59-1.062-.235-2.006-.471-3.067-.825-1.416-.354-2.832-.826-4.247-1.062-2.596-.353-5.899-.118-6.488.944z" fill="#000"/><path d="M52.87 102.821c-1.887-8.376-2.712-16.87-2.712-25.364 0-2.359-.354-2.477 1.18-4.246 4.718.235 14.981-1.534 19.7-5.31 1.651-1.415.59-4.482-1.652-4.6 2.36-.472 3.775-2.831 3.775-4.247 0-1.415-.707-2.123-1.887-2.83 1.18-1.063 2.595-2.242 2.595-3.776 0-1.651-1.533-3.067-3.067-3.657 6.134-1.534 4.129-6.252 2.477-7.314-.707-.472-4.483.236-5.426.236-2.242.118-7.55.944-9.674 1.298-.471.118-2.713.118-3.185 0-1.18-.472-1.297-2.242-1.415-3.54 0-1.887 2.949-7.195 2.949-11.56 0-2.714-2.006-6.253-3.421-6.96-.944-.472-2.478 4.954-2.714 6.252-.825 4.365-6.606 13.92-8.14 16.28-3.774 5.19-8.14 8.257-9.319 16.633-1.062 7.196-2.713 14.274-2.713 21.588-.118 7.668 0 15.218.826 23.476 2.241 2.595 5.19 4.601 8.493 5.426 3.303.708 7.078.118 9.674-2.005 1.533-1.416 2.713-3.067 3.657-5.78z" fill="#fff"/><path d="M42.136 111.314c-.944 0-1.888-.118-2.832-.354-3.303-.707-6.37-2.713-8.847-5.544-.118-.118-.118-.236-.118-.354-.944-9.084-.944-17.341-.826-23.594.118-5.308.944-10.499 1.77-15.572.354-2.005.707-4.128.943-6.134.944-6.606 3.775-9.91 6.724-13.448.944-1.062 1.77-2.124 2.714-3.421 2.595-4.247 7.314-12.387 8.022-16.044 0 0 1.297-5.898 2.83-6.606a1.01 1.01 0 01.827 0c1.533.826 3.657 4.483 3.775 7.432 0 2.713-1.062 5.78-1.888 8.14-.472 1.415-.944 2.713-.944 3.303 0 .707 0 2.595.944 2.949.354.118 2.36 0 2.831 0 1.888-.236 7.432-1.18 9.792-1.298.236 0 .708-.118 1.297-.118 2.596-.354 3.893-.472 4.483 0 1.18.826 2.124 2.714 1.77 4.601-.236 1.062-.944 2.477-3.185 3.421 1.18.826 2.123 2.124 2.123 3.54 0 1.65-1.18 2.83-2.123 3.774.825.59 1.533 1.416 1.533 2.95 0 1.297-.944 3.185-2.713 4.246.59.354 1.062 1.062 1.298 1.77.353 1.297.118 2.595-.826 3.303-4.837 3.893-15.1 5.662-19.819 5.544-.944 1.18-.944 1.416-.944 2.596v1.061c-.118 8.494.826 16.988 2.714 25.246v.354c-.944 2.595-2.124 4.482-3.893 5.898-2.124 1.534-4.719 2.359-7.432 2.359zM31.4 104.708c2.241 2.595 5.072 4.365 8.021 5.073 3.303.708 6.725 0 9.202-1.888 1.533-1.179 2.595-2.831 3.539-5.19-1.887-8.258-2.713-16.87-2.713-25.364v-1.061c0-1.534 0-2.006 1.297-3.657.118-.118.236-.236.472-.236 4.955.236 14.982-1.77 19.347-5.19.708-.59.708-1.416.472-2.006-.236-.708-.826-1.416-1.888-1.534-.236 0-.471-.236-.59-.59 0-.236.119-.59.472-.59 2.006-.353 3.304-2.477 3.304-3.657 0-1.061-.472-1.651-1.652-2.359-.118-.118-.236-.236-.236-.472s.118-.354.236-.472c1.298-1.061 2.36-2.123 2.36-3.42 0-1.298-1.416-2.714-2.596-3.186a.649.649 0 01-.354-.59c0-.236.236-.472.472-.472 2.123-.59 3.421-1.533 3.657-2.949.236-1.415-.59-2.949-1.298-3.42-.471-.237-2.713.117-3.657.235-.59.118-1.061.118-1.415.118-2.242.118-7.786.944-9.674 1.298-.354.118-2.83.236-3.42 0-1.652-.59-1.77-2.95-1.77-4.011 0-.826.472-2.124 1.062-3.775.825-2.36 1.887-5.19 1.887-7.786 0-2.595-1.77-5.663-2.95-6.37-.59.59-1.769 4.128-2.123 5.78-.943 4.719-7.55 15.336-8.257 16.516-.944 1.297-1.888 2.359-2.714 3.42-2.831 3.422-5.544 6.725-6.488 12.86-.354 2.005-.59 4.128-.944 6.134-.826 5.072-1.77 10.145-1.77 15.335-.117 6.37-.117 14.51.709 23.476z" fill="#000"/><path d="M66.91 49.853c-.237 0-.473-.236-.59-.472-.119-.354.117-.59.471-.708l4.6-.944c.355-.118.59.118.709.472.118.354-.118.59-.472.708l-4.719.944zm1.533 7.314c-.354 0-.59-.236-.59-.59s.236-.59.59-.59c.826 0 2.123-.354 2.831-.826.236-.118.59-.118.826.118.118.236.118.59-.118.826-.944.59-2.477 1.062-3.54 1.062z" fill="#000"/><path d="M18.424 188.112c.236-6.135.354-12.269.59-18.521.825-23.83 2.83-68.304 6.96-69.956 8.375 2.006 14.51 2.124 23.357 2.95 1.534.118.944.825 2.124 2.241 5.073.472-.944 54.03 1.416 81.28l-34.447 2.006z" fill="#fff"/><path d="M18.424 188.702c-.354 0-.59-.236-.59-.59.118-6.017.354-12.269.59-18.521 2.478-68.54 6.135-69.956 7.314-70.545h.354c6.253 1.533 11.325 1.887 17.106 2.359 1.887.118 3.893.354 6.134.472 1.18.118 1.534.59 1.77 1.298.117.235.235.589.59 1.061 2.83.826 2.713 11.443 1.769 36.452-.59 15.572-1.18 33.15-.118 45.3 0 .354-.236.59-.472.59-.354 0-.59-.236-.59-.472-1.062-12.268-.472-29.964.118-45.535.354-9.556.708-18.522.59-25.01-.118-9.673-1.298-10.263-1.533-10.263-.119 0-.237-.118-.355-.236-.59-.59-.825-1.062-.943-1.416-.236-.471-.236-.471-.826-.589-2.123-.236-4.129-.354-6.134-.472-5.78-.472-10.853-.826-17.106-2.36-.825.59-2.477 4.601-4.247 26.071-.825 11.089-1.651 25.717-2.241 43.295-.236 6.134-.354 12.386-.59 18.521 0 .354-.236.59-.59.59z" fill="#000"/><path d="M26.091 82.294c-.943 3.775-1.651 7.55-2.241 11.443-.354 2.713-.472 5.898 1.298 7.786 1.297 1.415 3.303 1.533 4.954 2.359 1.062.472 2.006 1.18 3.067 1.77 4.955 2.831 10.736 2.477 16.162 1.887 1.534-.118 3.303-.354 4.483-1.533 1.062-1.062.708-5.073.236-6.489-1.18-4.364 1.77-8.847.59-12.032-.708.707-3.421 4.364-11.915 2.949-2.831-.472-5.78-.944-8.494-1.888-3.303-1.297-6.842-3.303-8.14-6.252z" fill="#D1BAFF"/><path d="M43.315 108.365c-3.775 0-7.196-.472-10.381-2.359l-1.062-.708c-.59-.354-1.297-.826-1.887-1.062-.472-.236-1.062-.354-1.652-.59-1.297-.354-2.595-.825-3.539-1.887-2.005-2.124-1.77-5.545-1.416-8.258.59-3.893 1.298-7.786 2.242-11.56.118-.237.236-.473.472-.473s.472.118.59.354c1.061 2.36 3.657 4.365 7.786 5.899 2.595.943 5.308 1.415 7.903 1.887l.472.118c7.55 1.18 10.381-1.651 11.207-2.595l.236-.236c.118-.118.354-.236.472-.118.236 0 .354.118.472.354.59 1.651.236 3.539-.236 5.662-.472 2.124-.944 4.247-.354 6.488.354 1.416.826 5.781-.472 7.079-1.297 1.297-2.949 1.533-4.837 1.651-2.005.236-4.01.354-6.016.354zM26.328 83.828c-.826 3.303-1.416 6.606-1.888 10.027-.354 2.477-.59 5.544 1.18 7.314.826.826 1.887 1.18 3.067 1.534.59.236 1.18.353 1.77.589.707.354 1.415.708 2.005 1.18.354.236.708.472 1.062.59 4.6 2.595 9.91 2.359 15.807 1.887 1.652-.118 3.068-.353 4.13-1.415.707-.708.59-4.247.117-5.899-.707-2.359-.118-4.836.354-6.96.354-1.415.59-2.831.472-4.01-1.415 1.297-4.6 3.538-11.679 2.359l-.472-.118c-2.713-.472-5.544-.826-8.14-1.888-3.774-1.297-6.37-3.067-7.785-5.19z" fill="#000"/><path d="M30.103 97.158a2.241 2.241 0 100-4.483 2.241 2.241 0 000 4.483z" fill="#fff"/><path d="M30.103 97.63c-1.533 0-2.831-1.297-2.831-2.831s1.298-2.831 2.831-2.831c1.534 0 2.831 1.297 2.831 2.83 0 1.652-1.297 2.832-2.83 2.832zm0-4.365c-.944 0-1.651.708-1.651 1.652s.707 1.651 1.651 1.651c.944 0 1.652-.707 1.652-1.651 0-.944-.708-1.652-1.652-1.652z" fill="#000"/><path opacity=".129" d="M54.404 86.187c-.354-.708-1.297-.944-2.005-.472-.472.354-.944.59-1.534.826-.708.236-.354.236-1.533.59-.236.118-1.534.354-1.888.354-1.533.118-3.185.236-4.719.118-.707 0-2.005-.236-3.539-.59-3.303-.708-4.836-1.18-7.432-2.713-.825-.472-1.18-.944-2.123-2.006-.118-.118-.236-.236-.236-.354-.118-.354-.472-.472-.826-.59-1.061-.353-2.123.944-1.533 2.006 2.359 3.775 6.606 5.544 10.853 6.488 1.533.354 2.949.708 4.482.944 1.652.236 3.422.118 5.073 0 1.888-.236 3.775-1.062 5.427-1.888 1.18-.59 2.241-1.533 1.533-2.713zm0 16.752c-.826-.472-1.534 0-1.888.707l-.117.118s-.118 0-.118.118c-.118.118-.472.236-.708.354-.472.118-.944.354-1.416.472-2.36.59-3.893.59-6.724.826-2.242.118-4.483.354-5.78-.118-1.298-.354-2.95-1.298-4.72-2.359-1.769-.826-3.892-1.534-4.836-2.006-.708-.354-1.416-.944-1.652-1.062-.471-.236-.707-.707-1.297-.825-.944-.236-1.534 1.061-.826 1.651.236.236.472.354.708.59h-.236c-1.298.354-1.534 2.123-.354 2.713 1.651 1.18 3.421 2.124 5.308 2.949 1.652.826 3.304 1.652 5.073 2.242 5.899 2.005 13.095.708 16.87.118.59-.118 1.18-.236 1.533-.826.472-.826 0-1.887-.825-2.123.235-.118.471-.236.59-.354 1.533-.59 2.949-2.124 1.415-3.185zM74.695 44.19c-.59.355-1.18.708-1.887.944-1.416.826-3.658 1.298-6.017 1.77-1.415.472-.826 2.595.59 2.241 2.36-.472 4.955-.944 6.842-2.477.118 0 .118-.118.236-.118.236-.59.472-1.298.708-1.888 0-.236-.236-.353-.472-.471zm-1.415 8.376c-.472.236-.826.472-1.298.708l-.708.354c-.118.118-.354.236-.59.354-.825.471-1.769.943-2.713 1.18h-.354c-.472.59-.118 1.887.826 1.769 1.298-.118 2.242-.59 2.713-.826.708-.354 1.416-.708 2.006-1.18 0-.118 0-.235.118-.471.236-.472.472-.826.708-1.298a1.208 1.208 0 00-.708-.59zm-1.062 7.078c-1.298 1.18-2.714 2.242-4.13 3.068h-.117c0 .707.707 1.297 1.651.825.472-.236.826-.471 1.298-.707-.118-.118 0-.354.118-.472.826-.708 1.533-1.534 1.887-2.478.118-.236.236-.59.236-.825l-.236-.236c-.118.353-.354.59-.707.825zm-2.832 7.668c-.826.354-1.534.59-2.36.944-.825.354-1.65.59-2.477.826-2.359.708-4.836 1.061-7.196 1.297-1.061.236-2.241.59-3.303.708-1.18.236-2.36.354-3.42.944-.945.708-.119 2.241.943 2.005 1.77-.59 3.657-.826 5.544-1.18 1.888-.353 3.775-.943 5.663-1.415 1.651-.472 3.185-1.062 4.837-1.651 1.415-.59 2.949-1.062 4.128-2.124l-.236.236c.118-.118.236-.236.354-.236 0-.118.118-.236.118-.354.236-.59.236-1.18.236-1.77a11.486 11.486 0 01-2.831 1.77z" fill="#000"/></g></svg>