<svg width="39" height="42" fill="none" xmlns="http://www.w3.org/2000/svg"><path d="M19.55 1.212c-10.2 0-18.5 8.6-18.5 19.2 0 4.4 1.4 8.4 3.8 11.7l-2.3 9.3 7.8-4.3c2.7 1.6 5.8 2.5 9.2 2.5 10.2 0 18.5-8.6 18.5-19.2s-8.3-19.2-18.5-19.2z" fill="#fff"/><path d="M2.55 41.912c-.1 0-.2 0-.3-.1-.2-.1-.2-.3-.2-.5l2.2-9.1c-2.5-3.4-3.8-7.5-3.8-11.8 0-10.9 8.5-19.7 19-19.7s19 8.8 19 19.7c0 10.9-8.5 19.7-19 19.7-3.2 0-6.4-.9-9.2-2.5l-7.5 4.2c0 .1-.1.1-.2.1zm17-40.2c-9.9 0-18 8.4-18 18.7 0 4.2 1.3 8.1 3.7 11.4.1.1.1.3.1.4l-2 8.2 6.8-3.8c.2-.1.3-.1.5 0 2.7 1.6 5.8 2.5 8.9 2.5 9.9 0 18-8.4 18-18.7 0-10.3-8.1-18.7-18-18.7z" fill="#000"/><path d="M20.05 29.712l-7.5-10.5c-1.2-1.7-.9-4.2.8-5.4 1.7-1.3 4.1-.9 5.3.9l1.3 1.8 1.3-1.8c1.2-1.7 3.6-2.1 5.3-.9 1.7 1.3 2.1 3.7.8 5.4l-7.3 10.5z" fill="#E0FF23"/><path d="M20.05 30.212c-.2 0-.3-.1-.4-.2l-7.5-10.5c-1.4-2-1-4.7 1-6.1.9-.7 2.1-1 3.2-.8 1.1.2 2.1.8 2.8 1.8l.9 1.3.9-1.3c.7-1 1.7-1.6 2.8-1.8 1.1-.2 2.3.1 3.2.8 1.9 1.4 2.3 4.2 1 6.1l-7.5 10.5c-.1.1-.3.2-.4.2zm-4.4-16.8c-.7 0-1.4.2-1.9.6-1.5 1.1-1.8 3.2-.7 4.8l7.1 10 7.1-10c1.1-1.5.7-3.7-.7-4.8-.7-.5-1.6-.7-2.5-.6-.9.1-1.7.6-2.2 1.4l-1.3 1.8c-.2.3-.6.3-.8 0l-1.3-1.8c-.5-.7-1.3-1.2-2.2-1.4h-.6z" fill="#000"/><path opacity=".129" d="M34.75 31.312c.8-1.5 1.6-3.1 2.3-4.6-.1 0-.1-.1-.2-.1-.9-.2-1.2.9-1.7 1.4-.9 1.3-1.4 2-2.1 2.8-1.9 1.9-4.8 3.3-7.6 5-3.3 1.9-6.9 1.6-10.2.9-1.5-.3-2.9-1-4.4-1.4-1.3-.3-2.5.3-3.5 1.1-.8.6-1.7 1.2-2.5 1.7-.5.3-1 .6-1.4.9-.2.1-.3.3-.4.5-.2.7.6 1.4 1.3 1 1.5-1 3.1-1.8 4.6-2.9.9-.6 1.2-.5 1.5-.5 1.5.4 2.9 1.2 4.4 1.6 4.4 1.2 8.7 1 12.6-1.6 2.2-1.5 4.7-2.7 6.6-4.6.2-.3.4-.7.7-1.2z" fill="#000"/></svg>