<svg width="58" height="75" fill="none" xmlns="http://www.w3.org/2000/svg"><path d="M.903 2.356c1.048 23.71 1.703 47.55 1.965 71.26 0 0 54.1-1.18 54.1-1.835-.525-23.447-.787-46.895-.394-70.473L.903 2.356z" fill="#fff"/><path d="M2.868 74.27c-.13 0-.393 0-.393-.13-.13-.132-.13-.263-.13-.394-.394-23.84-.918-47.811-1.966-71.39 0-.13 0-.393.131-.524.131-.13.262-.262.393-.262l55.54-.917c.132 0 .394 0 .525.131.13.131.13.262.13.524-.261 23.317-.13 47.026.394 70.343 0 .785 0 .785-9.039 1.178-4.454.132-10.741.394-18.6.656a1521.7 1521.7 0 01-26.985.785zM1.69 2.88c1.048 23.186 1.703 46.764 1.834 70.08 19.78-.392 48.86-1.178 52.79-1.702-.524-22.924-.655-46.24-.393-69.295L1.69 2.88z" fill="#000"/><path d="M11.383 14.8c-.393 0-.655-.262-.655-.655s.261-.655.655-.655l35.63-.917c.392 0 .654.262.654.655s-.262.655-.655.655l-35.63.917c.132 0 0 0 0 0zm35.891 10.873l-36.023-.131c-.393 0-.655-.262-.655-.655s.262-.655.655-.655l36.023.13c.393 0 .655.263.655.656-.131.393-.393.655-.655.655zM37.057 36.938c-8.514 0-17.028-.13-25.412-.262-.393 0-.655-.262-.655-.655s.262-.655.655-.655c11.658.262 23.448.393 35.106.262.393 0 .655.262.655.655s-.262.655-.655.655c-3.144-.13-6.419 0-9.694 0zM11.513 47.286c-.393 0-.655-.262-.655-.655s.262-.655.655-.655h35.368c.393 0 .655.262.655.655s-.262.655-.655.655H11.513z" fill="#000"/></svg>