<svg width="90" height="98" fill="none" xmlns="http://www.w3.org/2000/svg"><path d="M.661 42.366c12.575-12.051 25.805-24.888 38.25-36.94C41.268 3.2 43.888.842 47.032.842c1.965 0 3.799.917 5.37 1.965C67.468 12.238 79.257 33.72 88.95 41.449c-.13 14.802-10.741 30.128-21.744 40.083-3.799 3.406-7.99 6.681-12.837 8.253-3.668 1.179-7.598 1.44-11.397.917-11.134-1.572-20.827-9.17-27.246-18.47C9.438 63.062 4.984 52.976.661 42.366z" fill="#E0FF23"/><path d="M46.9 91.75c-1.31 0-2.62-.131-3.93-.262-10.347-1.441-20.434-8.253-27.638-18.732C8.652 63.194 4.198 52.583.137 42.628c-.131-.262 0-.524.13-.655 6.288-6.026 12.707-12.182 19.125-18.47 6.42-6.156 12.838-12.313 19.125-18.339C41.007 2.807 43.757.45 47.032.45h.13c2.227 0 4.061 1.048 5.764 2.096 9.039 5.632 16.898 15.588 23.84 24.364 4.585 5.764 8.908 11.265 12.707 14.278.13.131.262.262.262.524-.131 15.326-11.396 31.045-21.876 40.607-3.274 3.013-7.728 6.68-13.099 8.384-2.489.655-5.108 1.048-7.86 1.048zM1.448 42.497C5.507 52.32 9.96 62.67 16.38 71.97c7.073 10.217 16.898 16.898 26.722 18.208 3.93.524 7.728.262 11.134-.786 5.109-1.703 9.431-5.24 12.575-8.122 10.218-9.3 21.22-24.626 21.483-39.297-3.93-3.144-8.121-8.645-12.706-14.278-6.812-8.646-14.671-18.6-23.579-24.102-1.44-.917-3.275-1.834-5.108-1.834-2.882 0-5.371 2.096-7.598 4.322a60780.703 60780.703 0 00-19.125 18.34c-6.287 6.024-12.575 12.18-18.731 18.075z" fill="#000"/><path d="M.661 42.366c1.441 13.099 1.703 26.33.655 39.428-.262 3.668-.524 7.598.524 11.135.786 2.488 3.144 4.191 5.764 4.191l10.086-.262c3.93-.13 7.99-.13 11.92-.262l52.004-1.179c1.572 0 3.274-.13 4.715-.655 1.441-.655 2.751-1.965 2.751-3.405.262-16.636.393-33.272-.13-49.646a1036.46 1036.46 0 01-34.713 33.14c-1.834 1.704-4.323 3.537-6.812 2.752-7.073-2.49-12.968-7.467-18.732-12.445-9.3-7.99-18.731-15.98-28.032-22.792z" fill="#fff"/><path d="M7.473 97.644c-2.882 0-5.37-1.833-6.157-4.584C.268 89.654.4 85.724.792 81.663c1.048-13.099.786-26.329-.655-39.297a1 1 0 01.262-.655c.262-.13.524-.13.655 0 9.3 6.943 18.863 15.064 28.163 22.924 5.37 4.584 11.397 9.824 18.47 12.313 2.227.655 4.585-1.18 6.157-2.62a1036.465 1036.465 0 0034.712-33.14c.131-.132.393-.263.655-.132s.393.262.393.524c.393 14.147.393 29.866.131 49.646.131 1.834-1.44 3.275-3.144 3.93-1.571.655-3.405.655-4.977.786L7.473 97.644zM1.447 43.676c1.31 12.575 1.441 25.412.524 38.118-.262 3.93-.524 7.598.524 10.873.655 2.227 2.75 3.799 5.109 3.668l74.14-1.703c1.573 0 3.145-.131 4.454-.655 1.18-.524 2.358-1.572 2.358-2.751.262-19.125.262-34.45 0-48.074a973.57 973.57 0 01-33.664 32.093c-1.834 1.703-4.585 3.799-7.336 3.013-7.335-2.62-13.492-7.86-18.994-12.444-9.038-7.729-18.207-15.457-27.115-22.138z" fill="#000"/><path opacity=".129" d="M18.082 51.273c-2.096-2.75-4.978-4.846-7.86-6.811-1.178-.786-2.357-1.31-3.536-1.965-1.18-.655-2.49-1.31-3.799-1.834-2.227-.524-3.144 2.75-.917 3.406 2.358.786 3.013 1.179 4.847 1.834.13.13.393.13.524.262-.262.524 0 1.178.524 1.572 1.965 1.047 3.143 1.571 4.322 2.881l1.965 1.965c.262.262.655.524 1.048.524a1 1 0 00.655-.262l.131.131c.131.131.655.655.655.786.131.131.131.262.393.393.655.655 1.834.131 2.096-.655.13-.786-.655-1.572-1.048-2.227zm69.296-9.955c-.524.131-.786.524-1.18.786.525-.393-.785.655-1.31 1.048-2.095 1.441-4.06 3.013-6.025 4.716-1.31 1.048-2.358 1.834-4.192 3.406-.655.524-1.178 1.048-1.833 1.572-.262.262-.655.524-.655.917-.655 1.571 1.44 3.012 2.62 1.702 2.488-2.357 5.108-4.584 7.597-6.811 1.965-1.703 2.882-2.227 5.109-4.06.524-.525 1.178-.787 1.44-1.442.394-.917-.654-2.096-1.571-1.834zM69.038 58.61c-1.31 1.178-3.275 3.012-4.061 3.667-.786.655-2.75 2.096-4.847 3.668-2.358 1.965-3.406 2.882-5.763 4.846-1.31.917-3.144 2.751-5.633 3.144-2.096 0-2.227 0-4.192-.393-1.572-.393-1.572-.524-3.144-1.44-1.572-.918-3.012-1.835-4.584-2.752-.524-.392-1.18-.916-1.834-.654-1.048.261-1.31 1.833-.262 2.357 2.358 1.441 4.716 3.144 7.335 4.323 1.441.655 2.882 1.048 4.454 1.31 3.93.917 7.336-1.44 10.086-4.06 2.62-2.228 4.978-4.585 7.598-6.812 1.965-1.703 3.799-3.406 5.633-5.109.261-.393.785-.655 1.047-1.048.394-.917-1.047-1.965-1.833-1.048zM55.546 6.081c-3.013.131-6.026 0-8.907-.261-2.227-.131-4.454.13-6.68.392-.656.131-1.18.131-1.835.262-.655 0-1.31.262-1.572.786-.655 1.048.131 2.358 1.31 2.358 3.93-.655 7.99-.524 12.051-.393 2.096 0 4.192-.13 6.288-.262.786-.13 1.572 0 2.227-.262.524-.13.917-.786.917-1.31-.262-1.833-2.489-1.31-3.799-1.31z" fill="#000"/></svg>