<svg width="164" height="20" fill="none" xmlns="http://www.w3.org/2000/svg"><path d="M19.95 20h-3.99v-2.914L12.54 20H3.99a3.985 3.985 0 01-2.85-1.143A4.006 4.006 0 010 16v-4c0-1.105.38-2.038 1.14-2.8C1.938 8.4 2.888 8 3.99 8h11.4l-3.42 3.371H3.99v5.2h11.97V3.43H0L3.42 0h12.54c1.101 0 2.032.4 2.792 1.2.798.762 1.197 1.695 1.197 2.8v16zM45.29 0l-7.75 20h-5.814L24.202 0h4.56l5.414 16.686h1.14L40.731 0h4.56zm24.22 20H53.55a3.985 3.985 0 01-2.849-1.143A4.006 4.006 0 0149.561 16V4c0-1.105.38-2.038 1.14-2.8.798-.8 1.748-1.2 2.85-1.2h11.97c1.101 0 2.032.4 2.792 1.2.798.762 1.197 1.695 1.197 2.8v4l-3.99 4h-11.4l3.42-3.429h7.98V3.43H53.55v13.14h15.96V20zm24.507-4c0 1.105-.4 2.057-1.197 2.857-.76.762-1.691 1.143-2.793 1.143h-11.97a3.985 3.985 0 01-2.85-1.143A4.006 4.006 0 0174.068 16V4c0-1.105.38-2.038 1.14-2.8.799-.8 1.749-1.2 2.85-1.2h11.97c1.102 0 2.033.4 2.793 1.2.798.762 1.197 1.695 1.197 2.8v12zm-3.99.571V3.43h-11.97v13.14h11.97zM115.689 0l-3.477 3.429h-9.632V16.57h11.969V20H102.58a3.986 3.986 0 01-2.85-1.143A4.006 4.006 0 0198.59 16V4c0-1.105.38-2.038 1.14-2.8.798-.8 1.748-1.2 2.85-1.2h13.109zm23.376 20h-15.96a3.985 3.985 0 01-2.849-1.143 4.006 4.006 0 01-1.14-2.857V4c0-1.105.38-2.038 1.14-2.8.798-.8 1.748-1.2 2.849-1.2h11.97c1.102 0 2.033.4 2.793 1.2.798.762 1.197 1.695 1.197 2.8v4l-3.99 4h-11.4l3.42-3.429h7.98V3.43h-11.97v13.14h15.96V20zm24.506-4c0 1.105-.399 2.057-1.197 2.857-.759.762-1.69 1.143-2.792 1.143h-11.97a3.985 3.985 0 01-2.85-1.143 4.006 4.006 0 01-1.14-2.857V4c0-1.105.38-2.038 1.14-2.8.798-.8 1.748-1.2 2.85-1.2h11.97c1.102 0 2.033.4 2.792 1.2.798.762 1.197 1.695 1.197 2.8v12zm-3.989.571V3.43h-11.97v13.14h11.97z" fill="#fff"/></svg>