<svg width="1600" height="66" fill="none" xmlns="http://www.w3.org/2000/svg"><g opacity=".9" fill-rule="evenodd" clip-rule="evenodd"><path d="M-482.318.658h1.816v28.143h-1.816V.658zm2.725 0h1.816v28.143h-1.816V.659zm-4.54.001h-2.724v28.143h2.724V.659zm-10.894 0h5.447v28.142h-5.447V.66zm-2.724 0h-9.986V28.8h9.986V.66zm-28.142 0h15.433V28.8h-15.433V.659zm-1.816 0h-23.603v28.143h23.603V.659zm670.834 0h-1.816V28.8h1.816V.658zm2.725 0h-1.816V28.8h1.816V.659zm-9.08 0h2.724v28.143h-2.724V.659zm-2.723 0H128.6v28.142h5.447V.66zm-18.158 0h9.986V28.8h-9.986V.66zm-2.722 0H97.734V28.8h15.433V.659zm-40.853 0h23.604v28.143H72.314V.659zm-311.811 0h23.603V28.8h-23.603V.66zm70.81 0h-1.815V28.8h1.815V.66zm2.725 0h-1.815v28.142h1.815V.66zm-9.079 0h2.723v28.143h-2.723V.66zm-2.723 0h-5.447v28.143h5.447V.66zm-18.158 0h9.986v28.143h-9.986V.659zm-2.723 0h-15.432v28.143h15.432V.659zm59.433 27.982h5.597V6.255c0-1.546-.56-2.851-1.679-3.917-1.066-1.12-2.372-1.68-3.918-1.68H-156.8l-4.797 4.798h22.385v18.388h-16.789v-7.275h11.193l4.797-4.717h-15.99c-1.546 0-2.878.56-3.997 1.678-1.066 1.067-1.599 2.372-1.599 3.918v5.596c0 1.546.533 2.879 1.599 3.998 1.119 1.066 2.451 1.599 3.997 1.599h11.992l4.797-4.077v4.077zm30.27 0L-98.069.659h-6.396l-7.595 23.345h-1.599L-121.254.659h-6.396l10.553 27.982h8.155zm44.845 0h-22.386c-1.545 0-2.878-.533-3.997-1.6-1.066-1.118-1.6-2.45-1.6-3.997V6.255c0-1.546.534-2.851 1.6-3.917 1.12-1.12 2.452-1.68 3.997-1.68h16.79c1.545 0 2.851.56 3.917 1.68 1.12 1.066 1.679 2.371 1.679 3.917v5.597l-5.597 5.596h-15.99l4.798-4.797h11.192V5.456h-16.789v18.388h22.386v4.797zm32.696-1.6c1.12-1.118 1.679-2.45 1.679-3.997V6.255c0-1.546-.56-2.851-1.68-3.917-1.065-1.12-2.37-1.68-3.917-1.68h-16.789c-1.546 0-2.878.56-3.997 1.68-1.066 1.066-1.6 2.371-1.6 3.917v16.79c0 1.545.534 2.878 1.6 3.997 1.119 1.066 2.451 1.599 3.997 1.599h16.79c1.545 0 2.85-.533 3.917-1.6zM-35.32 5.457v18.388h-16.789V5.456h16.79zM.677.659L-4.2 5.456h-13.51v18.388H-.92v4.797h-16.79c-1.546 0-2.878-.533-3.998-1.6-1.066-1.118-1.599-2.45-1.599-3.997V6.255c0-1.546.534-2.851 1.6-3.917 1.119-1.12 2.451-1.68 3.997-1.68H.677zM11.08 28.64h22.386v-4.797H11.08V5.456h16.79v7.195H16.675l-4.797 4.797h15.99l5.597-5.596V6.255c0-1.546-.56-2.851-1.68-3.917-1.065-1.12-2.371-1.68-3.917-1.68H11.08c-1.545 0-2.877.56-3.997 1.68-1.066 1.066-1.599 2.371-1.599 3.917v16.79c0 1.545.533 2.878 1.6 3.997 1.119 1.066 2.451 1.599 3.997 1.599zm56.76-5.596c0 1.545-.56 2.878-1.678 3.997-1.066 1.066-2.372 1.599-3.918 1.599h-16.79c-1.545 0-2.877-.533-3.997-1.6-1.066-1.118-1.599-2.45-1.599-3.997V6.255c0-1.546.533-2.851 1.6-3.917 1.119-1.12 2.451-1.68 3.997-1.68h16.79c1.545 0 2.85.56 3.917 1.68 1.119 1.066 1.678 2.371 1.678 3.917v16.79zm-5.596.799V5.456h-16.79v18.388h16.79zM-445.43 28.64h-5.596v-4.077l-4.797 4.077h-11.992c-1.546 0-2.879-.533-3.998-1.599-1.066-1.12-1.599-2.452-1.599-3.997v-5.597c0-1.545.533-2.851 1.599-3.917 1.119-1.12 2.452-1.68 3.998-1.68h15.989l-4.797 4.718h-11.192v7.275h16.789V5.456h-22.386l4.797-4.797h17.589c1.546 0 2.851.56 3.917 1.679 1.12 1.066 1.679 2.372 1.679 3.917v22.386zM-409.885.66l-10.873 27.982h-8.154L-439.466.66h6.396l7.595 23.345h1.599L-416.281.66h6.396zm11.587 27.982h22.385v-4.797h-22.385V5.456h16.789v7.195h-11.193l-4.797 4.797h15.99l5.596-5.596V6.255c0-1.545-.559-2.851-1.678-3.917-1.066-1.12-2.372-1.679-3.918-1.679h-16.789c-1.546 0-2.878.56-3.998 1.679-1.066 1.066-1.599 2.372-1.599 3.917v16.79c0 1.545.533 2.878 1.599 3.997 1.12 1.066 2.452 1.6 3.998 1.6zm56.76-5.596c0 1.545-.559 2.878-1.679 3.997-1.066 1.066-2.371 1.6-3.917 1.6h-16.789c-1.546 0-2.878-.534-3.998-1.6-1.066-1.12-1.599-2.452-1.599-3.997V6.255c0-1.545.533-2.851 1.599-3.917 1.12-1.12 2.452-1.679 3.998-1.679h16.789c1.546 0 2.851.56 3.917 1.679 1.12 1.066 1.679 2.372 1.679 3.917v16.79zm-5.596.8V5.454h-16.789v18.39h16.789zm31.119-18.39l4.877-4.796h-18.389c-1.545 0-2.878.56-3.997 1.679-1.066 1.066-1.599 2.372-1.599 3.917v16.79c0 1.545.533 2.878 1.599 3.997 1.119 1.066 2.452 1.6 3.997 1.6h16.79v-4.798h-16.79V5.456h13.512zm37.665 23.186h-22.386c-1.545 0-2.878-.533-3.997-1.599-1.066-1.12-1.599-2.452-1.599-3.997V6.255c0-1.545.533-2.851 1.599-3.917 1.119-1.12 2.452-1.679 3.997-1.679h16.79c1.545 0 2.851.56 3.917 1.679 1.12 1.066 1.679 2.372 1.679 3.917v5.597l-5.596 5.596h-15.99l4.797-4.797h11.193V5.456h-16.79v18.388h22.386v4.797zm32.696-1.599c1.119-1.12 1.679-2.452 1.679-3.997V6.255c0-1.545-.56-2.851-1.679-3.917-1.066-1.12-2.372-1.679-3.917-1.679h-16.79c-1.545 0-2.878.56-3.997 1.679-1.066 1.066-1.599 2.372-1.599 3.917v16.79c0 1.545.533 2.878 1.599 3.997 1.119 1.066 2.452 1.6 3.997 1.6h16.79c1.545 0 2.851-.534 3.917-1.6zm-3.917-21.586v18.388h-16.79V5.456h16.79zM764.937.659h1.815V28.8h-1.815V.66zm2.725 0h1.816v28.142h-1.816V.66zm-4.541 0h-2.723v28.143h2.723V.66zm-10.893 0h5.447v28.143h-5.447V.66zm-2.725 0h-9.986v28.143h9.986V.659zm-28.141 0h15.433v28.142h-15.433V.66zm-1.817 0h-23.603v28.143h23.603V.66zm-263.699 0h1.816v28.143h-1.816V.659zm-2.721 0h1.816v28.143h-1.816V.659zm-1.819.001h-2.724v28.142h2.724V.66zm-10.894 0h5.447v28.142h-5.447V.66zm-2.724 0h-9.986v28.142h9.986V.66zm-28.142 0h15.433v28.142h-15.433V.659zm-1.816 0h-23.603v28.142h23.603V.66zm76.682 27.982h5.596V6.256c0-1.546-.559-2.851-1.678-3.917-1.066-1.12-2.372-1.68-3.918-1.68h-17.589l-4.797 4.798h22.386v18.388h-16.789V16.57h11.193l4.797-4.717h-15.99c-1.546 0-2.878.56-3.998 1.678-1.066 1.066-1.599 2.372-1.599 3.918v5.596c0 1.546.533 2.879 1.599 3.998 1.12 1.066 2.452 1.599 3.998 1.599h11.992l4.797-4.078v4.078zm30.269 0L525.555.66h-6.396l-7.596 23.345h-1.599L502.369.66h-6.396l10.554 27.982h8.154zm44.846 0h-22.386c-1.546 0-2.878-.533-3.998-1.6-1.066-1.118-1.599-2.45-1.599-3.997V6.256c0-1.546.533-2.851 1.599-3.917 1.12-1.12 2.452-1.68 3.998-1.68h16.789c1.546 0 2.852.56 3.918 1.68 1.119 1.066 1.679 2.371 1.679 3.917v5.597l-5.597 5.596h-15.99l4.797-4.797h11.193V5.457h-16.789v18.388h22.386v4.797zm32.696-1.6c1.119-1.118 1.678-2.45 1.678-3.997V6.256c0-1.546-.559-2.851-1.678-3.917-1.066-1.12-2.372-1.68-3.918-1.68h-16.789c-1.546 0-2.878.56-3.998 1.68-1.066 1.066-1.599 2.371-1.599 3.917v16.79c0 1.545.533 2.878 1.599 3.997 1.12 1.066 2.452 1.599 3.998 1.599h16.789c1.546 0 2.852-.533 3.918-1.6zm-3.918-21.585v18.388h-16.789V5.457h16.789zM624.301.66l-4.877 4.797h-13.511v18.388h16.789v4.797h-16.789c-1.546 0-2.879-.533-3.998-1.6-1.066-1.118-1.599-2.45-1.599-3.997V6.256c0-1.546.533-2.851 1.599-3.917 1.119-1.12 2.452-1.68 3.998-1.68h18.388zm10.403 27.982h22.385v-4.797h-22.385V5.457h16.789v7.195H640.3l-4.797 4.797h15.99l5.596-5.596V6.256c0-1.546-.559-2.851-1.679-3.917-1.066-1.12-2.371-1.68-3.917-1.68h-16.789c-1.546 0-2.879.56-3.998 1.68-1.066 1.066-1.599 2.371-1.599 3.917v16.79c0 1.545.533 2.878 1.599 3.997 1.119 1.066 2.452 1.599 3.998 1.599zm56.76-5.597c0 1.546-.559 2.879-1.679 3.998-1.066 1.066-2.372 1.599-3.917 1.599h-16.789c-1.546 0-2.879-.533-3.998-1.6-1.066-1.118-1.599-2.45-1.599-3.997V6.256c0-1.546.533-2.851 1.599-3.917 1.119-1.12 2.452-1.68 3.998-1.68h16.789c1.545 0 2.851.56 3.917 1.68 1.12 1.066 1.679 2.371 1.679 3.917v16.79zm-5.596.8V5.457h-16.789v18.388h16.789zM178.193 28.64h-5.596v-4.077L167.8 28.64h-11.993c-1.545 0-2.878-.533-3.997-1.599-1.066-1.119-1.599-2.452-1.599-3.997v-5.597c0-1.545.533-2.851 1.599-3.917 1.119-1.12 2.452-1.679 3.997-1.679h15.99L167 16.569h-11.193v7.275h16.79V5.456h-22.386L155.008.66h17.589c1.545 0 2.851.56 3.917 1.68 1.119 1.065 1.679 2.37 1.679 3.917V28.64zM213.739.66l-10.873 27.982h-8.155L184.158.66h6.396l7.595 23.345h1.599L207.343.66h6.396zm11.586 27.982h22.386v-4.797h-22.386V5.456h16.79v7.196h-11.193l-4.797 4.796h15.99l5.596-5.596V6.256c0-1.546-.559-2.852-1.679-3.918-1.066-1.12-2.372-1.679-3.917-1.679h-16.79c-1.545 0-2.878.56-3.997 1.68-1.066 1.065-1.599 2.37-1.599 3.917v16.789c0 1.545.533 2.878 1.599 3.997 1.119 1.066 2.452 1.6 3.997 1.6zm56.761-5.596c0 1.545-.56 2.878-1.679 3.997-1.066 1.066-2.372 1.6-3.917 1.6H259.7c-1.545 0-2.878-.534-3.997-1.6-1.066-1.119-1.599-2.452-1.599-3.997V6.255c0-1.545.533-2.851 1.599-3.917C256.822 1.218 258.155.66 259.7.66h16.79c1.545 0 2.851.56 3.917 1.68 1.119 1.065 1.679 2.37 1.679 3.917v16.789zm-5.596.8V5.455H259.7v18.388h16.79zm31.119-18.389L312.485.66h-18.388c-1.545 0-2.878.56-3.997 1.68-1.066 1.065-1.599 2.37-1.599 3.917v16.789c0 1.545.533 2.878 1.599 3.997 1.119 1.066 2.452 1.6 3.997 1.6h16.789v-4.798h-16.789V5.456h13.512zm37.665 23.185h-22.386c-1.545 0-2.878-.533-3.997-1.599-1.066-1.119-1.599-2.452-1.599-3.997V6.255c0-1.545.533-2.851 1.599-3.917 1.119-1.12 2.452-1.679 3.997-1.679h16.789c1.546 0 2.852.56 3.918 1.68 1.119 1.065 1.679 2.37 1.679 3.917v5.596l-5.597 5.596h-15.989l4.797-4.796h11.192V5.456h-16.789v18.388h22.386v4.797zm32.696-1.599c1.119-1.119 1.679-2.452 1.679-3.997V6.255c0-1.545-.56-2.851-1.679-3.917-1.066-1.12-2.372-1.679-3.918-1.679h-16.789c-1.546 0-2.878.56-3.997 1.68-1.066 1.065-1.599 2.37-1.599 3.917v16.789c0 1.545.533 2.878 1.599 3.997 1.119 1.066 2.451 1.6 3.997 1.6h16.789c1.546 0 2.852-.534 3.918-1.6zm-3.918-21.586v18.388h-16.789V5.456h16.789zM1077.54.659h-2.72v28.142h2.72V.66zm4.54 0h1.82v28.143h-1.82V.659zm-2.72.001h1.82v28.143h-1.82V.66zm-12.71 0h5.45v28.142h-5.45V.66zm-2.72 0h-9.99v28.142h9.99V.66zm-28.15 0h15.44v28.142h-15.44V.659zm-1.81 0h-23.61v28.142h23.61V.66zm355.39-.001h-2.72v28.142h2.72V.66zm1.82 0h1.81v28.142h-1.81V.66zm2.72 0h1.82v28.143h-1.82V.659zm-15.43 0h5.45v28.143h-5.45V.66zm-2.72 0h-9.99v28.143h9.99V.66zm-28.15 0h15.44v28.143h-15.44V.659zm-1.81.001h-23.61v28.142h23.61V.66zm-235.14 27.982h5.6V6.256c0-1.545-.56-2.851-1.68-3.917-1.06-1.12-2.37-1.679-3.92-1.679h-17.58l-4.8 4.797h22.38v18.388h-16.79V16.57h11.2l4.79-4.717h-15.99c-1.54 0-2.87.56-3.99 1.679-1.07 1.066-1.6 2.372-1.6 3.917v5.597c0 1.545.53 2.878 1.6 3.997 1.12 1.066 2.45 1.6 3.99 1.6h12l4.79-4.078v4.077zm30.27 0L1151.8.66h-6.4l-7.59 23.345h-1.6L1128.61.66h-6.39l10.55 27.982h8.15zm44.85 0h-22.39c-1.54 0-2.88-.533-3.99-1.599-1.07-1.12-1.6-2.452-1.6-3.997V6.256c0-1.545.53-2.851 1.6-3.917 1.11-1.12 2.45-1.679 3.99-1.679h16.79c1.55 0 2.85.56 3.92 1.679 1.12 1.066 1.68 2.372 1.68 3.917v5.597l-5.6 5.596h-15.99l4.8-4.797h11.19V5.457h-16.79v18.388h22.39v4.797zm32.69-1.599c1.12-1.12 1.68-2.452 1.68-3.997V6.256c0-1.545-.56-2.851-1.68-3.917-1.06-1.12-2.37-1.679-3.91-1.679h-16.79c-1.55 0-2.88.56-4 1.679-1.07 1.066-1.6 2.372-1.6 3.917v16.79c0 1.545.53 2.878 1.6 3.997 1.12 1.066 2.45 1.6 4 1.6h16.79c1.54 0 2.85-.534 3.91-1.6zm-3.91-21.586v18.388h-16.79V5.457h16.79zM1250.54.66l-4.87 4.797h-13.52v18.388h16.79v4.797h-16.79c-1.54 0-2.87-.533-3.99-1.599-1.07-1.12-1.6-2.452-1.6-3.997V6.256c0-1.545.53-2.851 1.6-3.917 1.12-1.12 2.45-1.679 3.99-1.679h18.39zm10.41 27.982h22.38v-4.797h-22.38V5.457h16.79v7.195h-11.2l-4.79 4.797h15.99l5.59-5.596V6.256c0-1.545-.56-2.851-1.68-3.917-1.06-1.12-2.37-1.679-3.91-1.679h-16.79c-1.55 0-2.88.56-4 1.679-1.07 1.066-1.6 2.372-1.6 3.917v16.79c0 1.545.53 2.878 1.6 3.997 1.12 1.066 2.45 1.6 4 1.6zm56.76-5.596c0 1.545-.56 2.878-1.68 3.997-1.07 1.066-2.37 1.6-3.92 1.6h-16.79c-1.55 0-2.88-.534-4-1.6-1.06-1.12-1.6-2.452-1.6-3.997V6.256c0-1.545.54-2.851 1.6-3.917 1.12-1.12 2.45-1.679 4-1.679h16.79c1.55 0 2.85.56 3.92 1.679 1.12 1.066 1.68 2.372 1.68 3.917v16.79zm-5.6.8V5.456h-16.79v18.388h16.79zm-507.675 4.796h-5.596v-4.078l-4.797 4.078H782.05c-1.546 0-2.879-.534-3.998-1.6-1.066-1.119-1.599-2.451-1.599-3.997v-5.596c0-1.546.533-2.852 1.599-3.918 1.119-1.12 2.452-1.679 3.998-1.679h15.989l-4.797 4.717H782.05v7.276h16.789V5.456h-22.386L781.25.66h17.589c1.546 0 2.851.56 3.917 1.68 1.12 1.065 1.679 2.371 1.679 3.917v22.386zM839.981.659l-10.873 27.983h-8.155L810.4.659h6.396l7.595 23.345h1.599L833.585.66h6.396zm11.587 27.983h22.385v-4.797h-22.385V5.456h16.789v7.196h-11.193l-4.797 4.797h15.99l5.596-5.597V6.256c0-1.546-.559-2.852-1.679-3.918C871.208 1.22 869.903.66 868.357.66h-16.789c-1.546 0-2.878.56-3.998 1.68-1.066 1.065-1.599 2.371-1.599 3.917v16.789c0 1.546.533 2.878 1.599 3.997 1.12 1.066 2.452 1.6 3.998 1.6zm56.76-5.597c0 1.546-.559 2.878-1.679 3.997-1.066 1.066-2.371 1.6-3.917 1.6h-16.789c-1.546 0-2.879-.534-3.998-1.6-1.066-1.119-1.599-2.451-1.599-3.997V6.255c0-1.545.533-2.85 1.599-3.917C883.064 1.22 884.397.66 885.943.66h16.789c1.546 0 2.851.56 3.917 1.68 1.12 1.065 1.679 2.371 1.679 3.917v16.789zm-5.596.8V5.456h-16.789v18.389h16.789zm31.119-18.389L938.728.66h-18.389c-1.545 0-2.878.56-3.997 1.68-1.066 1.065-1.599 2.371-1.599 3.917v16.789c0 1.546.533 2.878 1.599 3.997 1.119 1.066 2.452 1.6 3.997 1.6h16.79v-4.797h-16.79V5.456h13.512zm37.665 23.186H949.13c-1.545 0-2.878-.534-3.997-1.6-1.066-1.119-1.599-2.451-1.599-3.997V6.255c0-1.545.533-2.85 1.599-3.917C946.252 1.22 947.585.66 949.13.66h16.79c1.545 0 2.851.56 3.917 1.68 1.119 1.065 1.679 2.371 1.679 3.917v5.596l-5.596 5.597h-15.99l4.797-4.797h11.193V5.456h-16.79v18.389h22.386v4.797zm32.694-1.6c1.12-1.119 1.68-2.451 1.68-3.997V6.255c0-1.545-.56-2.85-1.68-3.917-1.06-1.119-2.37-1.679-3.92-1.679h-16.785c-1.545 0-2.878.56-3.997 1.68-1.066 1.065-1.599 2.371-1.599 3.917v16.789c0 1.546.533 2.878 1.599 3.997 1.119 1.066 2.452 1.6 3.997 1.6h16.785c1.55 0 2.86-.534 3.92-1.6zm-3.92-21.586v18.389h-16.785V5.456h16.785zM2017.53.66h1.81v28.142h-1.81V.659zm-2.73 0h1.82v28.142h-1.82V.659zm-1.81 0h-2.72v28.142h2.72V.659zm-10.9 0h5.45v28.142h-5.45V.66zm-2.72 0h-9.99v28.142h9.99V.66zm-28.14 0h15.43v28.142h-15.43V.659zm-1.82 0h-23.6v28.142h23.6V.66zm-263.7 0h1.82v28.142h-1.82V.66zm-2.72 0h1.82v28.142h-1.82V.66zm-1.82 0h-2.72v28.143h2.72V.66zm-10.89 0h5.45v28.143h-5.45V.66zm-2.73 0h-9.98v28.142h9.98V.66zm-28.14 0h15.44v28.142h-15.44V.66zm-1.81 0h-23.61v28.143h23.61V.66zm76.68 27.982h5.6V6.256c0-1.546-.56-2.851-1.68-3.917-1.07-1.12-2.37-1.68-3.92-1.68h-17.59l-4.79 4.798h22.38v18.388h-16.79V16.57h11.2l4.79-4.717h-15.99c-1.54 0-2.87.56-3.99 1.678-1.07 1.066-1.6 2.372-1.6 3.918v5.596c0 1.546.53 2.879 1.6 3.998 1.12 1.066 2.45 1.599 3.99 1.599h12l4.79-4.078v4.078zm30.27 0L1775.43.66h-6.4l-7.6 23.345h-1.59L1752.24.66h-6.4l10.56 27.982h8.15zm44.85 0h-22.39c-1.54 0-2.88-.533-4-1.6-1.06-1.118-1.59-2.45-1.59-3.997V6.256c0-1.546.53-2.851 1.59-3.917 1.12-1.12 2.46-1.68 4-1.68h16.79c1.55 0 2.85.56 3.92 1.68 1.12 1.066 1.68 2.371 1.68 3.917v5.597l-5.6 5.596h-15.99l4.8-4.797h11.19V5.457h-16.79v18.388h22.39v4.797zm32.69-1.6c1.12-1.118 1.68-2.45 1.68-3.997V6.256c0-1.546-.56-2.851-1.68-3.917-1.06-1.12-2.37-1.68-3.91-1.68h-16.79c-1.55 0-2.88.56-4 1.68-1.07 1.066-1.6 2.371-1.6 3.917v16.79c0 1.545.53 2.878 1.6 3.997 1.12 1.066 2.45 1.599 4 1.599h16.79c1.54 0 2.85-.533 3.91-1.6zm-3.91-21.585v18.388h-16.79V5.457h16.79zM1874.17.66l-4.87 4.797h-13.52v18.388h16.79v4.797h-16.79c-1.54 0-2.87-.533-3.99-1.6-1.07-1.118-1.6-2.45-1.6-3.997V6.256c0-1.546.53-2.851 1.6-3.917 1.12-1.12 2.45-1.68 3.99-1.68h18.39zm10.4 27.982h22.39v-4.797h-22.39V5.457h16.79v7.195h-11.19l-4.8 4.797h15.99l5.6-5.596V6.256c0-1.546-.56-2.851-1.68-3.917-1.06-1.12-2.37-1.68-3.92-1.68h-16.79c-1.54 0-2.87.56-3.99 1.68-1.07 1.066-1.6 2.371-1.6 3.917v16.79c0 1.545.53 2.878 1.6 3.997 1.12 1.066 2.45 1.599 3.99 1.599zm56.77-5.597c0 1.546-.56 2.879-1.68 3.998-1.07 1.066-2.38 1.599-3.92 1.599h-16.79c-1.55 0-2.88-.533-4-1.6-1.06-1.118-1.6-2.45-1.6-3.997V6.256c0-1.546.54-2.851 1.6-3.917 1.12-1.12 2.45-1.68 4-1.68h16.79c1.54 0 2.85.56 3.92 1.68 1.12 1.066 1.68 2.371 1.68 3.917v16.79zm-5.6.8V5.457h-16.79v18.388h16.79zm-507.68 4.797h-5.6v-4.078l-4.79 4.078h-12c-1.54 0-2.87-.533-3.99-1.6-1.07-1.119-1.6-2.451-1.6-3.997V17.45c0-1.546.53-2.852 1.6-3.918 1.12-1.119 2.45-1.679 3.99-1.679h15.99l-4.79 4.718h-11.2v7.275h16.79V5.457h-22.38l4.8-4.797h17.58c1.55 0 2.86.56 3.92 1.679 1.12 1.066 1.68 2.371 1.68 3.917v22.386zM1463.61.66l-10.88 27.982h-8.15L1434.03.66h6.39l7.6 23.345h1.6L1457.21.66h6.4zm11.58 27.982h22.39v-4.797h-22.39V5.457h16.79v7.195h-11.19l-4.8 4.797h15.99l5.6-5.597V6.256c0-1.546-.56-2.851-1.68-3.917-1.07-1.12-2.37-1.68-3.92-1.68h-16.79c-1.54 0-2.88.56-3.99 1.68-1.07 1.066-1.6 2.371-1.6 3.917v16.79c0 1.545.53 2.878 1.6 3.997 1.11 1.066 2.45 1.599 3.99 1.599zm56.76-5.597c0 1.546-.56 2.878-1.68 3.998-1.06 1.066-2.37 1.599-3.91 1.599h-16.79c-1.55 0-2.88-.533-4-1.6-1.07-1.119-1.6-2.451-1.6-3.997V6.256c0-1.546.53-2.851 1.6-3.917 1.12-1.12 2.45-1.68 4-1.68h16.79c1.54 0 2.85.56 3.91 1.68 1.12 1.066 1.68 2.371 1.68 3.917v16.79zm-5.59.8V5.457h-16.79v18.388h16.79zm31.12-18.388l4.87-4.797h-18.39c-1.54 0-2.87.56-3.99 1.679-1.07 1.066-1.6 2.371-1.6 3.917v16.79c0 1.545.53 2.878 1.6 3.997 1.12 1.066 2.45 1.599 3.99 1.599h16.79v-4.797h-16.79V5.457h13.52zm37.66 23.185h-22.38c-1.55 0-2.88-.533-4-1.6-1.07-1.119-1.6-2.451-1.6-3.997V6.256c0-1.546.53-2.851 1.6-3.917 1.12-1.12 2.45-1.68 4-1.68h16.78c1.55 0 2.86.56 3.92 1.68 1.12 1.066 1.68 2.371 1.68 3.917v5.596l-5.6 5.597h-15.99l4.8-4.797h11.19V5.457h-16.78v18.388h22.38v4.797zm32.7-1.6c1.12-1.119 1.68-2.451 1.68-3.997V6.256c0-1.546-.56-2.851-1.68-3.917-1.07-1.12-2.37-1.68-3.92-1.68h-16.79c-1.55 0-2.88.56-4 1.68-1.06 1.066-1.6 2.371-1.6 3.917v16.79c0 1.545.54 2.878 1.6 3.997 1.12 1.066 2.45 1.599 4 1.599h16.79c1.55 0 2.85-.533 3.92-1.6zm-3.92-21.585v18.388h-16.79V5.457h16.79z" fill="#A4CE2D"/><path d="M-107.356 37.514h23.603v28.142h-23.603V37.514zm73.535 0h-1.816v28.143h1.816V37.514zm-2.721 0h-1.816v28.143h1.816V37.515zm-6.359.001h2.724v28.142h-2.724V37.515zm-2.723 0h-5.447v28.142h5.447V37.515zm-18.154 0h9.986v28.142h-9.986V37.515zm-2.726 0h-15.433v28.142h15.433V37.515zm341.773 0h-1.815v28.142h1.815V37.515zm2.725 0h-1.815v28.142h1.815V37.515zm-9.079 0h2.723v28.143h-2.723V37.516zm-2.723 0h-5.447v28.143h5.447V37.516zm-18.158 0h9.986v28.143h-9.986V37.515zm-2.723 0h-15.432v28.142h15.432V37.516zm-40.852 0h23.603v28.143h-23.603V37.516zm-554.636 0h1.815v28.142h-1.815V37.514zm2.725 0h1.816v28.142h-1.816V37.515zm-4.541 0h-2.723v28.143h2.723V37.515zm-10.893 0h5.447v28.142h-5.447V37.516zm-2.725 0h-9.986v28.142h9.986V37.515zm-28.141 0h15.433v28.142h-15.433V37.515zm-1.817 0h-23.603v28.142h23.603V37.516zM-7.071 65.498h5.596V43.112c0-1.546-.56-2.851-1.679-3.917-1.066-1.12-2.371-1.68-3.917-1.68H-24.66l-4.797 4.798H-7.07V60.7h-16.79v-7.275h11.194l4.796-4.717h-15.99c-1.545 0-2.877.56-3.997 1.679-1.066 1.066-1.599 2.371-1.599 3.917V59.9c0 1.546.533 2.879 1.6 3.998 1.119 1.066 2.451 1.599 3.997 1.599h11.992l4.797-4.078v4.078zm30.27 0L34.07 37.516h-6.395L20.08 60.86h-1.599l-7.595-23.345H4.49l10.554 27.982h8.154zm44.844 0H45.658c-1.546 0-2.878-.533-3.998-1.6-1.066-1.118-1.599-2.45-1.599-3.997V43.112c0-1.546.533-2.851 1.6-3.917 1.119-1.12 2.451-1.68 3.997-1.68h16.79c1.545 0 2.85.56 3.917 1.68 1.119 1.066 1.678 2.371 1.678 3.917v5.597l-5.596 5.596h-15.99l4.797-4.797h11.193v-7.195h-16.79V60.7h22.386v4.797zm32.696-1.6c1.12-1.118 1.679-2.45 1.679-3.997V43.112c0-1.546-.559-2.851-1.679-3.917-1.066-1.12-2.371-1.68-3.917-1.68h-16.79c-1.545 0-2.877.56-3.997 1.68-1.066 1.066-1.599 2.371-1.599 3.917v16.79c0 1.545.533 2.878 1.6 3.997 1.118 1.066 2.451 1.599 3.997 1.599h16.789c1.546 0 2.852-.533 3.917-1.6zm-3.917-21.585V60.7h-16.79V42.313h16.79zm35.996-4.797l-4.877 4.797h-13.512V60.7h16.79v4.797h-16.79c-1.545 0-2.878-.533-3.997-1.6-1.066-1.118-1.599-2.45-1.599-3.997V43.112c0-1.546.533-2.851 1.599-3.917 1.119-1.12 2.452-1.68 3.997-1.68h18.389zm10.402 27.982h22.386V60.7H143.22V42.313h16.79v7.195h-11.193l-4.797 4.797h15.99l5.596-5.596v-5.597c0-1.546-.56-2.851-1.679-3.917-1.066-1.12-2.372-1.68-3.917-1.68h-16.79c-1.545 0-2.878.56-3.997 1.68-1.066 1.066-1.599 2.371-1.599 3.917v16.79c0 1.545.533 2.878 1.599 3.997 1.119 1.066 2.452 1.599 3.997 1.599zm56.761-5.597c0 1.546-.56 2.879-1.679 3.998-1.066 1.066-2.372 1.599-3.917 1.599h-16.79c-1.545 0-2.878-.533-3.997-1.6-1.066-1.118-1.599-2.45-1.599-3.997V43.112c0-1.546.533-2.851 1.599-3.917 1.119-1.12 2.452-1.68 3.997-1.68h16.79c1.545 0 2.851.56 3.917 1.68 1.119 1.066 1.679 2.371 1.679 3.917v16.79zm-5.596.8V42.313h-16.79V60.7h16.79zm-507.675 4.797h-5.597v-4.077l-4.796 4.077h-11.993c-1.546 0-2.878-.533-3.997-1.599-1.066-1.12-1.599-2.452-1.599-3.997v-5.597c0-1.545.533-2.851 1.599-3.917 1.119-1.12 2.451-1.68 3.997-1.68h15.99l-4.797 4.718h-11.193V60.7h16.789V42.313h-22.385l4.797-4.797h17.588c1.546 0 2.852.56 3.918 1.679 1.119 1.066 1.679 2.372 1.679 3.917v22.386zm35.546-27.982l-10.873 27.982h-8.155l-10.553-27.982h6.396l7.595 23.345h1.599l7.595-23.345h6.396zm11.586 27.982h22.386v-4.797h-22.386V42.313h16.79v7.195h-11.193l-4.797 4.797h15.99l5.596-5.596v-5.597c0-1.545-.56-2.851-1.679-3.917-1.066-1.12-2.372-1.679-3.917-1.679h-16.79c-1.545 0-2.878.56-3.997 1.679-1.066 1.066-1.599 2.372-1.599 3.917v16.79c0 1.545.533 2.878 1.599 3.997 1.119 1.066 2.452 1.6 3.997 1.6zm56.761-5.596c0 1.545-.56 2.878-1.679 3.997-1.066 1.066-2.372 1.6-3.917 1.6h-16.79c-1.545 0-2.878-.534-3.997-1.6-1.066-1.12-1.599-2.452-1.599-3.997v-16.79c0-1.545.533-2.851 1.599-3.917 1.119-1.12 2.452-1.679 3.997-1.679h16.79c1.545 0 2.851.56 3.917 1.679 1.119 1.066 1.679 2.372 1.679 3.917v16.79zm-5.596.8v-18.39h-16.79V60.7h16.79zm31.118-18.389l4.877-4.797h-18.388c-1.546 0-2.878.56-3.997 1.679-1.066 1.066-1.599 2.372-1.599 3.917v16.79c0 1.545.533 2.878 1.599 3.997 1.119 1.066 2.451 1.6 3.997 1.6h16.789V60.7h-16.789V42.313h13.511zm37.666 23.185h-22.386c-1.546 0-2.878-.533-3.997-1.599-1.066-1.12-1.599-2.452-1.599-3.997v-16.79c0-1.545.533-2.851 1.599-3.917 1.119-1.12 2.451-1.679 3.997-1.679h16.789c1.546 0 2.852.56 3.918 1.679 1.119 1.066 1.679 2.372 1.679 3.917v5.597l-5.597 5.596h-15.99l4.797-4.797h11.193v-7.195h-16.789v18.388h22.386v4.797zm32.696-1.599c1.119-1.12 1.679-2.452 1.679-3.997v-16.79c0-1.545-.56-2.851-1.679-3.917-1.066-1.12-2.372-1.679-3.918-1.679h-16.789c-1.546 0-2.878.56-3.998 1.679-1.065 1.066-1.598 2.372-1.598 3.917v16.79c0 1.545.533 2.878 1.598 3.997 1.12 1.066 2.452 1.6 3.998 1.6h16.789c1.546 0 2.852-.534 3.918-1.6zm-3.918-21.586v18.388h-16.789V42.313h16.789zm970.929-4.798h15.433v28.142h-15.433V37.515zm30.867 0h5.447v28.143h-5.447V37.515zm10.893 0h-2.723v28.143h2.723V37.515zm1.815 0h1.816v28.143h-1.816V37.516zm2.726 0h1.815v28.143h-1.815V37.516zm-18.155 0h-9.986v28.143h9.986V37.515zm-29.958 0h-23.603v28.143h23.603V37.516zm-263.699 0h1.816v28.143h-1.816V37.515zm-2.725.001h1.815v28.142h-1.815V37.516zm-1.816 0h-2.723v28.142h2.723V37.516zm-10.893 0H578v28.142h-5.447V37.516zm-2.721 0h-9.986v28.142h9.986V37.516zm-28.145 0h15.433v28.142h-15.433V37.515zm-1.817 0h-23.603v28.142h23.603V37.516zm76.679 27.981h5.596V43.112c0-1.546-.559-2.852-1.679-3.918-1.066-1.12-2.372-1.679-3.917-1.679H598.96l-4.797 4.797h22.386V60.7H599.76v-7.275h11.192l4.797-4.717H599.76c-1.546 0-2.879.56-3.998 1.679-1.066 1.066-1.599 2.372-1.599 3.917v5.597c0 1.546.533 2.878 1.599 3.997 1.119 1.066 2.452 1.6 3.998 1.6h11.992l4.797-4.078v4.077zm30.269 0l10.873-27.982h-6.396L643.7 60.86h-1.599l-7.595-23.345h-6.396l10.553 27.982h8.155zm44.845 0h-22.385c-1.546 0-2.879-.533-3.998-1.599-1.066-1.119-1.599-2.451-1.599-3.997v-16.79c0-1.545.533-2.85 1.599-3.917 1.119-1.12 2.452-1.679 3.998-1.679h16.789c1.546 0 2.851.56 3.917 1.68 1.12 1.065 1.679 2.371 1.679 3.917v5.596l-5.596 5.596h-15.99l4.797-4.796h11.193v-7.196h-16.789V60.7h22.385v4.797zm32.696-1.599c1.12-1.119 1.679-2.451 1.679-3.997v-16.79c0-1.545-.559-2.85-1.679-3.917-1.066-1.12-2.371-1.679-3.917-1.679h-16.789c-1.546 0-2.879.56-3.998 1.68-1.066 1.065-1.599 2.371-1.599 3.917V59.9c0 1.546.533 2.878 1.599 3.997 1.119 1.066 2.452 1.6 3.998 1.6h16.789c1.546 0 2.851-.534 3.917-1.6zm-3.917-21.586V60.7h-16.789V42.312h16.789zm35.996-4.797l-4.877 4.797h-13.512V60.7h16.79v4.797h-16.79c-1.545 0-2.878-.533-3.997-1.599-1.066-1.119-1.599-2.451-1.599-3.997v-16.79c0-1.545.533-2.85 1.599-3.917 1.119-1.12 2.452-1.679 3.997-1.679h18.389zm10.402 27.982h22.386V60.7H766.84V42.312h16.79v7.196h-11.193l-4.797 4.796h15.99l5.596-5.596v-5.596c0-1.546-.56-2.852-1.679-3.918-1.066-1.12-2.372-1.679-3.917-1.679h-16.79c-1.545 0-2.878.56-3.997 1.68-1.066 1.065-1.599 2.371-1.599 3.917V59.9c0 1.546.533 2.878 1.599 3.997 1.119 1.066 2.452 1.6 3.997 1.6zm56.761-5.596c0 1.546-.56 2.878-1.679 3.997-1.066 1.066-2.372 1.6-3.917 1.6h-16.79c-1.545 0-2.878-.534-3.997-1.6-1.066-1.119-1.599-2.451-1.599-3.997v-16.79c0-1.545.533-2.85 1.599-3.917 1.119-1.12 2.452-1.679 3.997-1.679h16.79c1.545 0 2.851.56 3.917 1.68 1.119 1.065 1.679 2.371 1.679 3.917V59.9zm-5.596.8v-18.39h-16.79V60.7h16.79zm-507.671 4.796h-5.597V61.42l-4.797 4.077h-11.992c-1.546 0-2.878-.533-3.997-1.599-1.066-1.119-1.599-2.452-1.599-3.997v-5.597c0-1.545.533-2.851 1.599-3.917 1.119-1.12 2.451-1.68 3.997-1.68h15.99l-4.797 4.718h-11.193V60.7h16.789V42.312h-22.385l4.797-4.797h17.588c1.546 0 2.852.56 3.918 1.679 1.119 1.066 1.679 2.372 1.679 3.917v22.386zm35.546-27.982l-10.873 27.982h-8.155l-10.553-27.982h6.396l7.595 23.345h1.599l7.595-23.345h6.396zm11.586 27.982h22.386V60.7h-22.386V42.312h16.789v7.195h-11.192l-4.797 4.797h15.989l5.597-5.596v-5.596c0-1.546-.56-2.852-1.679-3.918-1.066-1.12-2.372-1.679-3.918-1.679h-16.789c-1.546 0-2.878.56-3.997 1.679-1.066 1.066-1.599 2.372-1.599 3.917v16.79c0 1.545.533 2.878 1.599 3.997 1.119 1.066 2.451 1.6 3.997 1.6zm56.761-5.596c0 1.545-.56 2.878-1.679 3.997-1.066 1.066-2.372 1.6-3.918 1.6h-16.789c-1.546 0-2.878-.534-3.997-1.6-1.066-1.119-1.599-2.452-1.599-3.997V43.11c0-1.545.533-2.851 1.599-3.917 1.119-1.12 2.451-1.679 3.997-1.679h16.789c1.546 0 2.852.56 3.918 1.679 1.119 1.066 1.679 2.372 1.679 3.917V59.9zm-5.597.8v-18.39h-16.789V60.7h16.789zm31.119-18.389l4.877-4.797h-18.388c-1.546 0-2.878.56-3.998 1.679-1.066 1.066-1.599 2.372-1.599 3.917v16.79c0 1.545.533 2.878 1.599 3.997 1.12 1.066 2.452 1.6 3.998 1.6h16.789V60.7h-16.789V42.312h13.511zm37.666 23.185h-22.386c-1.546 0-2.878-.533-3.998-1.599-1.066-1.119-1.599-2.452-1.599-3.997V43.11c0-1.545.533-2.851 1.599-3.917 1.12-1.12 2.452-1.679 3.998-1.679h16.789c1.546 0 2.852.56 3.918 1.679 1.119 1.066 1.679 2.372 1.679 3.917v5.597l-5.597 5.596h-15.99l4.797-4.797h11.193v-7.195h-16.789V60.7h22.386v4.797zm32.696-1.599c1.119-1.119 1.678-2.452 1.678-3.997V43.11c0-1.545-.559-2.851-1.678-3.917-1.066-1.12-2.372-1.679-3.918-1.679h-16.789c-1.546 0-2.878.56-3.998 1.679-1.066 1.066-1.599 2.372-1.599 3.917V59.9c0 1.545.533 2.878 1.599 3.997 1.12 1.066 2.452 1.6 3.998 1.6h16.789c1.546 0 2.852-.534 3.918-1.6zm-3.918-21.586V60.7h-16.789V42.312h16.789zm1017.127-4.797h1.82v28.142h-1.82V37.515zm2.72 0h1.82v28.142h-1.82V37.515zm-4.54 0h-2.72v28.143h2.72V37.516zm-10.89 0h5.45v28.143h-5.45V37.516zm-2.72 0h-9.99v28.143h9.99V37.515zm-28.15 0h15.44v28.142h-15.44V37.515zm-1.81 0h-23.61v28.143h23.61V37.516zm-263.7 0h1.81v28.142h-1.81V37.516zm-2.73.001h1.82v28.142h-1.82V37.516zm-1.81 0h-2.72v28.142h2.72V37.516zm-10.89 0h5.44v28.142h-5.44V37.516zm-2.73 0h-9.99v28.142h9.99V37.516zm-28.14 0h15.43v28.142h-15.43V37.515zm-1.82 0h-23.6v28.142h23.6V37.516zm76.69 27.982h5.6V43.112c0-1.545-.56-2.851-1.68-3.917-1.07-1.12-2.38-1.679-3.92-1.679h-17.59l-4.8 4.797h22.39v18.388h-16.79v-7.275h11.19l4.8-4.717h-15.99c-1.55 0-2.88.56-4 1.679-1.06 1.066-1.6 2.372-1.6 3.917v5.597c0 1.545.54 2.878 1.6 3.997 1.12 1.066 2.45 1.6 4 1.6H1238l4.8-4.078v4.077zm30.27 0l10.87-27.982h-6.39l-7.6 23.345h-1.6l-7.59-23.345h-6.4l10.55 27.982h8.16zm44.84 0h-22.38c-1.55 0-2.88-.533-4-1.599-1.07-1.12-1.6-2.452-1.6-3.997v-16.79c0-1.545.53-2.851 1.6-3.917 1.12-1.12 2.45-1.679 4-1.679h16.79c1.54 0 2.85.56 3.91 1.679 1.12 1.066 1.68 2.372 1.68 3.917v5.597l-5.59 5.596h-15.99l4.79-4.797h11.2v-7.195h-16.79v18.388h22.38v4.797zm32.7-1.599c1.12-1.12 1.68-2.452 1.68-3.997v-16.79c0-1.545-.56-2.851-1.68-3.917-1.07-1.12-2.37-1.679-3.92-1.679h-16.79c-1.54 0-2.88.56-3.99 1.679-1.07 1.066-1.6 2.372-1.6 3.917v16.79c0 1.545.53 2.878 1.6 3.997 1.11 1.066 2.45 1.6 3.99 1.6h16.79c1.55 0 2.85-.534 3.92-1.6zm-3.92-21.586v18.388h-16.79V42.313h16.79zm36-4.797l-4.88 4.797h-13.51v18.388h16.79v4.797h-16.79c-1.55 0-2.88-.533-4-1.599-1.06-1.12-1.6-2.452-1.6-3.997v-16.79c0-1.545.54-2.851 1.6-3.917 1.12-1.12 2.45-1.679 4-1.679h18.39zm10.4 27.982h22.39v-4.797h-22.39V42.313h16.79v7.195h-11.19l-4.8 4.797h15.99l5.6-5.596v-5.597c0-1.545-.56-2.851-1.68-3.917-1.07-1.12-2.37-1.679-3.92-1.679h-16.79c-1.55 0-2.88.56-4 1.679-1.06 1.066-1.6 2.372-1.6 3.917v16.79c0 1.545.54 2.878 1.6 3.997 1.12 1.066 2.45 1.6 4 1.6zm56.76-5.596c0 1.545-.56 2.878-1.68 3.997-1.06 1.066-2.37 1.6-3.92 1.6h-16.78c-1.55 0-2.88-.534-4-1.6-1.07-1.12-1.6-2.452-1.6-3.997v-16.79c0-1.545.53-2.851 1.6-3.917 1.12-1.12 2.45-1.679 4-1.679h16.78c1.55 0 2.86.56 3.92 1.679 1.12 1.066 1.68 2.372 1.68 3.917v16.79zm-5.6.8v-18.39h-16.78V60.7h16.78zm-507.674 4.795h-5.597V61.42l-4.796 4.077H914.19c-1.546 0-2.878-.533-3.997-1.599-1.066-1.12-1.599-2.452-1.599-3.997v-5.597c0-1.545.533-2.851 1.599-3.917 1.119-1.12 2.451-1.68 3.997-1.68h15.99l-4.797 4.718H914.19V60.7h16.789V42.312h-22.385l4.797-4.797h17.588c1.546 0 2.852.56 3.918 1.679 1.119 1.066 1.679 2.372 1.679 3.917v22.386zm35.546-27.982l-10.873 27.982h-8.155l-10.553-27.982h6.396l7.595 23.345h1.599l7.595-23.345h6.396zm11.586 27.982h22.382V60.7h-22.382V42.312h16.792v7.195h-11.195l-4.797 4.797h15.992l5.59-5.596V43.11c0-1.545-.56-2.851-1.67-3.917-1.07-1.12-2.38-1.679-3.92-1.679h-16.792c-1.545 0-2.878.56-3.997 1.679-1.066 1.066-1.599 2.372-1.599 3.917V59.9c0 1.545.533 2.878 1.599 3.997 1.119 1.066 2.452 1.6 3.997 1.6zm56.762-5.596c0 1.545-.56 2.878-1.68 3.997-1.07 1.066-2.37 1.6-3.92 1.6h-16.79c-1.54 0-2.87-.534-3.99-1.6-1.07-1.12-1.6-2.452-1.6-3.997V43.11c0-1.545.53-2.851 1.6-3.917 1.12-1.12 2.45-1.679 3.99-1.679h16.79c1.55 0 2.85.56 3.92 1.679 1.12 1.066 1.68 2.372 1.68 3.917V59.9zm-5.6.8V42.31h-16.79V60.7h16.79zm31.12-18.39l4.88-4.796h-18.39c-1.55 0-2.88.56-4 1.679-1.06 1.066-1.6 2.372-1.6 3.917v16.79c0 1.545.54 2.878 1.6 3.997 1.12 1.066 2.45 1.6 4 1.6h16.79V60.7h-16.79V42.312h13.51zm37.67 23.186h-22.39c-1.54 0-2.88-.533-4-1.599-1.06-1.12-1.6-2.452-1.6-3.997V43.11c0-1.545.54-2.851 1.6-3.917 1.12-1.12 2.46-1.679 4-1.679h16.79c1.55 0 2.85.56 3.92 1.679 1.12 1.066 1.68 2.372 1.68 3.917v5.597l-5.6 5.596h-15.99l4.8-4.797h11.19v-7.195h-16.79V60.7h22.39v4.797zm32.69-1.599c1.12-1.12 1.68-2.452 1.68-3.997V43.11c0-1.545-.56-2.851-1.68-3.917-1.06-1.12-2.37-1.679-3.91-1.679h-16.79c-1.55 0-2.88.56-4 1.679-1.07 1.066-1.6 2.372-1.6 3.917V59.9c0 1.545.53 2.878 1.6 3.997 1.12 1.066 2.45 1.6 4 1.6h16.79c1.54 0 2.85-.534 3.91-1.6zm-3.91-21.586V60.7h-16.79V42.312h16.79zm1012.69-4.798h-2.72v28.143h2.72V37.515zm1.81 0h1.82v28.143h-1.82V37.515zm2.73 0h1.82v28.143h-1.82V37.515zm-15.43.001h5.44v28.143h-5.44V37.515zm-2.73 0h-9.99v28.142h9.99V37.515zm-28.14 0h15.43v28.142h-15.43V37.515zm-1.82 0h-23.6v28.143h23.6V37.515zm-311.81 0h-23.6v28.142h23.6V37.515zm45.39 0h1.82v28.142h-1.82V37.515zm2.73 0h1.81v28.143h-1.81V37.515zm-4.54.001h-2.73v28.142h2.73V37.516zm-10.9 0h5.45v28.142h-5.45V37.516zm-2.72 0h-9.99v28.142h9.99V37.516zm-28.14 0h15.43v28.142h-15.43V37.516zm74.86 27.982h5.6V43.112c0-1.545-.56-2.851-1.68-3.917-1.06-1.12-2.37-1.68-3.92-1.68h-17.58l-4.8 4.798h22.38V60.7h-16.79v-7.275h11.2l4.79-4.717h-15.99c-1.54 0-2.87.56-3.99 1.679-1.07 1.066-1.6 2.371-1.6 3.917V59.9c0 1.546.53 2.879 1.6 3.998 1.12 1.066 2.45 1.599 3.99 1.599h12l4.79-4.077v4.077zm30.27 0l10.88-27.982h-6.4l-7.59 23.345h-1.6l-7.6-23.345h-6.39l10.55 27.982h8.15zm44.85 0h-22.39c-1.54 0-2.88-.533-3.99-1.599-1.07-1.12-1.6-2.452-1.6-3.998V43.112c0-1.545.53-2.851 1.6-3.917 1.11-1.12 2.45-1.68 3.99-1.68h16.79c1.55 0 2.85.56 3.92 1.68 1.12 1.066 1.68 2.372 1.68 3.917v5.597l-5.6 5.596h-15.99l4.8-4.797h11.19v-7.195h-16.79V60.7h22.39v4.797zm32.69-1.599c1.12-1.12 1.68-2.452 1.68-3.998V43.112c0-1.545-.56-2.851-1.68-3.917-1.06-1.12-2.37-1.68-3.91-1.68h-16.79c-1.55 0-2.88.56-4 1.68-1.07 1.066-1.6 2.372-1.6 3.917v16.79c0 1.545.53 2.878 1.6 3.997 1.12 1.066 2.45 1.599 4 1.599h16.79c1.54 0 2.85-.533 3.91-1.599zm-3.91-21.586V60.7h-16.79V42.313h16.79zm35.99-4.797l-4.87 4.797h-13.52V60.7h16.79v4.797h-16.79c-1.54 0-2.87-.533-3.99-1.599-1.07-1.12-1.6-2.452-1.6-3.998V43.112c0-1.545.53-2.851 1.6-3.917 1.12-1.12 2.45-1.68 3.99-1.68h18.39zm10.41 27.982h22.38v-4.797h-22.38V42.313h16.78v7.195h-11.19l-4.8 4.797h15.99l5.6-5.596v-5.597c0-1.545-.56-2.851-1.68-3.917-1.06-1.12-2.37-1.68-3.92-1.68h-16.78c-1.55 0-2.88.56-4 1.68-1.07 1.066-1.6 2.372-1.6 3.917v16.79c0 1.545.53 2.878 1.6 3.997 1.12 1.066 2.45 1.599 4 1.599zm56.76-5.597c0 1.546-.56 2.879-1.68 3.998-1.07 1.066-2.37 1.599-3.92 1.599h-16.79c-1.55 0-2.88-.533-4-1.599-1.06-1.12-1.6-2.452-1.6-3.998V43.112c0-1.545.54-2.851 1.6-3.917 1.12-1.12 2.45-1.68 4-1.68h16.79c1.55 0 2.85.56 3.92 1.68 1.12 1.066 1.68 2.372 1.68 3.917v16.79zm-5.6.8V42.313h-16.79V60.7h16.79zm-507.68 4.797h-5.6V61.42l-4.79 4.078h-11.99c-1.55 0-2.88-.533-4-1.6-1.07-1.118-1.6-2.45-1.6-3.997v-5.596c0-1.546.53-2.852 1.6-3.917 1.12-1.12 2.45-1.68 4-1.68h15.98l-4.79 4.718h-11.19V60.7h16.78V42.313h-22.38l4.8-4.797h17.58c1.55 0 2.86.56 3.92 1.679 1.12 1.066 1.68 2.371 1.68 3.917v22.386zm35.55-27.982l-10.88 27.982h-8.15l-10.55-27.982h6.39l7.6 23.345h1.6l7.59-23.345h6.4zm11.58 27.982h22.39V60.7h-22.39V42.313h16.79v7.195h-11.19l-4.8 4.797h15.99l5.6-5.596v-5.597c0-1.546-.56-2.851-1.68-3.917-1.07-1.12-2.37-1.68-3.92-1.68h-16.79c-1.54 0-2.87.56-3.99 1.68-1.07 1.066-1.6 2.371-1.6 3.917v16.79c0 1.545.53 2.878 1.6 3.997 1.12 1.066 2.45 1.599 3.99 1.599zm56.76-5.597c0 1.546-.56 2.879-1.67 3.998-1.07 1.066-2.38 1.599-3.92 1.599h-16.79c-1.55 0-2.88-.533-4-1.6-1.07-1.118-1.6-2.45-1.6-3.997V43.112c0-1.546.53-2.851 1.6-3.917 1.12-1.12 2.45-1.68 4-1.68h16.79c1.54 0 2.85.56 3.92 1.68 1.11 1.066 1.67 2.371 1.67 3.917v16.79zm-5.59.8V42.313h-16.79V60.7h16.79zm31.12-18.388l4.87-4.797h-18.38c-1.55 0-2.88.56-4 1.679-1.07 1.066-1.6 2.371-1.6 3.917v16.79c0 1.545.53 2.878 1.6 3.997 1.12 1.066 2.45 1.599 4 1.599h16.78V60.7h-16.78V42.313h13.51zm37.66 23.185h-22.38c-1.55 0-2.88-.533-4-1.6-1.07-1.118-1.6-2.45-1.6-3.997V43.112c0-1.546.53-2.851 1.6-3.917 1.12-1.12 2.45-1.68 4-1.68h16.79c1.54 0 2.85.56 3.91 1.68 1.12 1.066 1.68 2.371 1.68 3.917v5.597l-5.59 5.596h-15.99l4.79-4.797h11.2v-7.195h-16.79V60.7h22.38v4.797zm32.7-1.6c1.12-1.118 1.68-2.45 1.68-3.997V43.112c0-1.546-.56-2.851-1.68-3.917-1.07-1.12-2.37-1.68-3.92-1.68h-16.79c-1.54 0-2.88.56-4 1.68-1.06 1.066-1.6 2.371-1.6 3.917v16.79c0 1.545.54 2.878 1.6 3.997 1.12 1.066 2.46 1.599 4 1.599h16.79c1.55 0 2.85-.533 3.92-1.6zm-3.92-21.585V60.7h-16.79V42.313h16.79z" fill="#fff"/></g></svg>