<svg width="527" height="478" fill="none" xmlns="http://www.w3.org/2000/svg"><path d="M54.826 451.575a.846.846 0 01-.462-.116.96.96 0 01-.491-.664L.675 214.8a.976.976 0 01.636-1.156l227.239-86.543a.949.949 0 01.838.057c.26.145.433.376.491.665l53.198 235.994a.976.976 0 01-.636 1.156L55.202 451.517a1.68 1.68 0 01-.376.058zM2.813 215.176L55.55 449.205l225.332-85.821-52.736-234.001L2.813 215.176z" fill="#000"/><path d="M228.282 127.213L1.048 213.778l96.534 253.4 227.233-86.565-96.533-253.4z" fill="#fff"/><path d="M97.535 468.191c-.404 0-.78-.231-.953-.636L.069 214.166a1.004 1.004 0 01.578-1.301l227.238-86.543c.26-.087.521-.087.781.028.231.116.433.318.52.549l96.513 253.39a1.005 1.005 0 01-.578 1.301l-227.24 86.543a1.074 1.074 0 01-.346.058zM2.323 214.368l95.819 251.511 225.361-85.85-95.791-251.511-225.39 85.85z" fill="#000"/><path d="M19.805 206.882a1.03 1.03 0 01-.954-.635l-5.577-14.593a1.003 1.003 0 01.578-1.3 1.004 1.004 0 011.3.578l5.577 14.592a1.004 1.004 0 01-.578 1.301c-.115.057-.23.057-.346.057zm16.124-6.126c-.405 0-.78-.231-.954-.636l-5.548-14.621a1.003 1.003 0 01.578-1.3 1.002 1.002 0 011.3.577l5.577 14.622a1.003 1.003 0 01-.578 1.3c-.144.029-.26.058-.375.058zm44.326 99.866c-.405 0-.78-.231-.954-.636a1.003 1.003 0 01.578-1.3l53.573-20.401a1.005 1.005 0 011.301.578 1.004 1.004 0 01-.578 1.301l-53.574 20.4a1.238 1.238 0 01-.346.058zm-9.565-25.111c-.404 0-.78-.231-.953-.636a1.003 1.003 0 01.578-1.3l33.028-12.57a1.005 1.005 0 011.301.578 1.003 1.003 0 01-.578 1.3l-33.029 12.57a1.237 1.237 0 01-.346.058zm112.493 76.054c-.144 0-.318-.029-.433-.115l-12.426-6.184c-.491-.231-.693-.838-.462-1.358.26-.491.838-.694 1.358-.462l11.212 5.576 4.854-31.67a.997.997 0 011.156-.838c.549.087.925.607.838 1.156l-5.057 33.028a1.073 1.073 0 01-.52.752c-.202.058-.347.115-.52.115zm36.785-14.014c-.145 0-.318-.029-.434-.116l-12.425-6.184c-.491-.231-.693-.838-.462-1.358.26-.491.838-.693 1.358-.462l11.211 5.577 4.855-31.67a1.012 1.012 0 011.156-.838c.549.086.925.607.838 1.156l-5.057 33.028a1.072 1.072 0 01-.52.751c-.202.058-.347.116-.52.116z" fill="#000"/><path d="M118.6 398.261c-.404 0-.78-.231-.953-.635l-25.284-66.375c-.087-.26-.087-.52.028-.78a1.07 1.07 0 01.55-.52l146.994-56.001c.26-.086.52-.086.78.029.231.116.434.318.52.549l25.284 66.375a1.002 1.002 0 01-.578 1.3l-146.994 56.001c-.116.057-.231.057-.347.057zm-23.983-66.778l24.561 64.496L264.294 340.7l-24.561-64.496-145.117 55.279z" fill="#000"/><path d="M87.389 314.402l-22.116 8.425 8.425 22.116 22.116-8.425-8.425-22.116zM207.918 135.25a1.03 1.03 0 01-.954-.636l-5.576-14.593a1.002 1.002 0 01.577-1.3 1.004 1.004 0 011.301.578l5.577 14.592a1.004 1.004 0 01-.578 1.301c-.116.029-.231.058-.347.058zm-16.124 6.125c-.405 0-.78-.231-.954-.636l-5.548-14.621a1.003 1.003 0 01.578-1.3 1.003 1.003 0 011.301.578l5.576 14.621a1.002 1.002 0 01-.577 1.3c-.145.029-.261.058-.376.058zm183.057-78.538a.971.971 0 01-.78-.376l-18.84-23.752a1.01 1.01 0 01.173-1.416.986.986 0 011.416.173l17.887 22.54L406.723.767a1 1 0 011.359-.404c.491.26.664.866.404 1.358l-32.739 60.566a1.047 1.047 0 01-.809.52c-.029.029-.058.029-.087.029z" fill="#000"/><path d="M232.133 371.649l15.719 9.073 189.27-327.855-15.691-9.073-189.298 327.855z" fill="url(#paint0_linear_143_1486)"/><path d="M449.027 14.117l-1.705 45.887-37.189-21.47 38.894-24.417z" fill="url(#paint1_linear_143_1486)"/><path d="M332.69 112.279c0 48.574-33.577 89.317-78.77 100.298a103.336 103.336 0 01-24.446 2.918c-22.279 0-42.911-7.079-59.786-19.1-.087-.029-.145-.087-.232-.144a103.497 103.497 0 01-10.315-8.438 72.773 72.773 0 01-3.035-2.948c-.375-.375-.751-.751-1.098-1.155-8.293-8.611-15.083-18.638-19.967-29.734-.202-.405-.375-.81-.549-1.243-.058-.144-.115-.26-.173-.404-5.201-12.31-8.062-25.834-8.062-40.05 0-57.041 46.205-103.275 103.246-103.275 56.983 0 103.187 46.263 103.187 103.275z" fill="url(#paint2_linear_143_1486)"/><path d="M437.092 384.074c-18.494 0-36.467-5.779-51.782-16.789-19.274-13.87-31.959-34.444-35.774-57.85-7.859-48.401 25.111-94.143 73.483-102.003 48.372-7.889 94.144 25.111 102.003 73.512 3.815 23.434-1.733 46.956-15.604 66.201-13.87 19.273-34.415 31.988-57.878 35.773-4.826.751-9.652 1.156-14.448 1.156zm.231-175.833c-4.624 0-9.276.376-13.986 1.127-47.274 7.686-79.493 52.418-71.807 99.72 3.728 22.915 16.153 42.998 34.965 56.55 18.84 13.581 41.812 18.985 64.727 15.257 22.914-3.727 42.997-16.153 56.549-34.964 13.553-18.84 18.985-41.813 15.258-64.698-6.907-42.622-43.865-72.992-85.706-72.992z" fill="#000"/><path d="M437.294 296.172c-.492 0-.925-.346-.983-.838L422.21 208.56a1.165 1.165 0 01.173-.752c.145-.202.405-.375.665-.404 23.435-3.815 46.956 1.733 66.23 15.632 19.273 13.871 31.959 34.445 35.773 57.879.029.26-.029.52-.173.752a1.011 1.011 0 01-.665.404l-86.746 14.101c-.058-.028-.116 0-.173 0zm-12.946-86.948l13.784 84.781 84.752-13.783c-8.091-46.407-51.955-78.02-98.536-70.998z" fill="#000"/><path d="M509.274 283.025a.886.886 0 01-.578-.202l-83.77-60.335c-.462-.318-.549-.954-.231-1.416.318-.463.954-.549 1.416-.232l83.77 60.364c.462.318.549.954.231 1.416-.202.26-.52.405-.838.405zm3.468-31.959a.884.884 0 01-.578-.202l-56.579-40.744c-.462-.318-.549-.953-.231-1.416.318-.462.954-.549 1.416-.231l56.579 40.744c.462.318.549.953.231 1.416-.202.289-.52.433-.838.433zm-42.015 38.692a.88.88 0 01-.578-.203l-39.155-28.202c-.462-.318-.549-.954-.231-1.416.318-.462.954-.549 1.416-.231l39.154 28.202c.463.318.549.954.232 1.416a1.018 1.018 0 01-.838.434z" fill="#000"/><path d="M362.049 321.429l-39.096-.983 21.498 42.998-19.533 32.248 52.764-15.633 17.569 42.968 19.562-46.898 41.033-5.866-35.167-32.248 20.516-23.435-36.813-2.282-10.085-41.697-32.248 50.828z" fill="url(#paint3_linear_143_1486)"/><path d="M252.131 450.16h47.274c5.201-45.454 6.762-139.511-7.311-183.866-11.298-35.571-33.779-69.438-67.039-87.498-11.211-.289-22.423-.722-33.548-1.791a22.681 22.681 0 00-5.924 6.704c-5.952 10.142-3.207 27.047 8.496 32.363 28.549 12.975 45.713 38.432 54.035 68.195 10.779 38.576 8.582 126.594 4.017 165.893z" fill="#000"/><path d="M295.33 457.934l-.26-16.355-40.079-2.717-1.358 18.003-2.399 21.036h56.203c-.029-.029 1.994-16.644-12.107-19.967z" fill="#000"/><path d="M299.404 451.171h-47.273c-.55 0-1.012-.462-1.012-1.011 0-.549.462-1.012 1.012-1.012h47.273c.55 0 1.012.463 1.012 1.012 0 .549-.462 1.011-1.012 1.011zm-13.58 11.126c-.404 0-.809-.261-.953-.665-.174-.52.087-1.098.607-1.271l9.507-3.352c.52-.174 1.098.086 1.271.606.173.521-.087 1.098-.607 1.272l-9.507 3.352c-.115.029-.202.058-.318.058z" fill="#fff"/><path d="M252.478 173.104c0-.404-.232-.78-.578-.953-2.225-1.012-54.701-24.446-74.119-12.426-4.508 2.803-6.906 7.253-7.108 13.292a566.194 566.194 0 00-.289 11.588c-.318.896-.607 1.791-.78 2.745-8.698 42.593-17.194 86.919-40.484 124.34-17.106 27.48-68.57 64.062-96.773 70.477 5.086 14.882 9.796 28.723 14.708 43.662 40.253-9.246 94.433-48.863 118.243-83.191 26.093-37.623 37.478-83.134 46.812-127.577a97.884 97.884 0 0016.759 1.445 96.77 96.77 0 0023.782-2.947c.462-.116.809-.578.751-1.069-1.56-18.321-.953-39.184-.924-39.386z" fill="#000"/><path d="M37.057 426.349l15.633-4.826-8.583-39.241-17.655 3.728-20.863 3.583 15.69 53.949s16.529-2.716 15.778-17.193z" fill="#000"/><path d="M47.517 429.383a.988.988 0 01-.953-.693l-15.228-46.205a1.015 1.015 0 01.635-1.272 1.015 1.015 0 011.272.636l15.228 46.205a1.014 1.014 0 01-.636 1.271 1.035 1.035 0 01-.318.058zm-10.46-2.022c-.318 0-.636-.145-.81-.405l-5.894-8.206a1.018 1.018 0 01.23-1.416 1.017 1.017 0 011.417.231l5.895 8.206a1.018 1.018 0 01-.232 1.416 1.21 1.21 0 01-.606.174zm3.612-29.011c-.434 0-.867-.289-.983-.751-.144-.549.173-1.098.723-1.214 61.317-15.748 135.985-67.27 143.411-223.251.029-.549.491-1.011 1.04-.953a1 1 0 01.954 1.04C178.33 330.445 102.882 382.429 40.9 398.35c-.087-.029-.174 0-.231 0zM315.586 49.922c-6.271 12.137-9.334 24.735-11.617 38.085-1.878 10.923-3.207 23.088-8.986 32.768-10.49 17.569-39.357 15.546-46.032-4.652-6.819-20.574-36.495-10.98-29.618 9.796 11.472 34.646 50.308 52.042 83.076 33.866 15.604-8.669 24.88-24.417 29.734-41.119 4.912-16.962 4.479-35.773 12.685-51.666 9.97-19.303-19.215-36.438-29.242-17.078z" fill="#fff"/><path d="M274.669 168.166c-6.993 0-14.015-1.33-20.806-3.959-16.759-6.531-29.705-20.372-35.513-37.912-2.109-6.415-1.098-12.367 2.861-16.846 3.987-4.479 10.373-6.589 16.268-5.346 5.895 1.214 10.287 5.404 12.397 11.79 2.918 8.784 10.46 14.679 20.198 15.748 9.854 1.069 19.303-3.352 24.042-11.298 4.912-8.236 6.559-18.263 8.119-27.972.232-1.502.492-3.005.752-4.45 1.994-11.645 4.97-25.342 11.732-38.374 5.201-10.056 15.343-10.634 22.567-6.906 8.351 4.334 13.957 14.275 8.438 24.908-4.999 9.68-6.791 20.69-8.524 31.353-1.098 6.675-2.196 13.581-4.104 20.14-3.929 13.581-12.367 31.815-30.225 41.726-8.958 4.884-18.58 7.398-28.202 7.398zm-40.571-62.445c-4.276 0-8.524 1.821-11.385 5.028-3.467 3.901-4.334 9.189-2.456 14.882 5.606 16.99 18.118 30.34 34.329 36.669 15.604 6.097 32.392 4.883 47.303-3.381 17.251-9.565 25.428-27.336 29.271-40.541 1.879-6.415 2.977-13.264 4.046-19.91 1.763-10.807 3.554-21.99 8.698-31.93 4.883-9.478-.116-18.32-7.6-22.192-6.56-3.41-15.257-2.86-19.852 6.04-6.617 12.829-9.535 26.295-11.529 37.795-.26 1.474-.491 2.948-.752 4.45-1.618 9.883-3.265 20.112-8.379 28.665-5.144 8.611-15.373 13.437-25.978 12.252-10.374-1.127-18.754-7.686-21.874-17.106-1.879-5.664-5.751-9.392-10.894-10.432a16.478 16.478 0 00-2.948-.289z" fill="#000"/><path d="M342.429 72.315a53.849 53.849 0 012.37-5.288c9.998-19.303-19.216-36.438-29.214-17.078-1.301 2.515-2.428 5.057-3.468 7.6 9.594 5.924 19.91 10.432 30.312 14.766z" fill="#fff"/><path d="M342.43 73.326a.8.8 0 01-.376-.086c-9.969-4.162-20.545-8.727-30.457-14.853a1.046 1.046 0 01-.404-1.243c1.185-2.86 2.312-5.374 3.525-7.686 2.89-5.577 7.6-8.784 13.264-9.044 6.472-.318 13.378 3.38 17.077 9.188 3.525 5.49 3.757 11.819.636 17.858-.809 1.56-1.561 3.266-2.341 5.202a.864.864 0 01-.549.549.634.634 0 01-.375.115zm-29.07-16.21c9.247 5.634 19.129 9.94 28.521 13.87.664-1.619 1.329-3.092 2.051-4.45 2.774-5.346 2.572-10.98-.549-15.836-3.352-5.23-9.536-8.553-15.286-8.264-4.941.231-9.044 3.063-11.587 7.947-1.098 2.051-2.11 4.247-3.15 6.732z" fill="#000"/><path d="M344.394 40.935c8.9 4.94 4.364 17.077.492 11.905-2.341-3.092-2.081-6.213-2.081-6.213l1.589-5.692z" fill="#fff"/><path d="M346.822 55.094c-.751 0-1.762-.318-2.774-1.647-2.543-3.38-2.283-6.762-2.254-6.906a1.048 1.048 0 011.098-.925c.549.058.954.52.925 1.098 0 .03-.173 2.774 1.878 5.52.289.375.809.953 1.301.837.577-.144 1.3-1.213 1.502-2.86.318-2.659-.693-6.242-4.565-8.409a1.006 1.006 0 01-.405-1.358c.26-.491.896-.665 1.358-.405 4.739 2.63 6.011 7.109 5.606 10.403-.289 2.37-1.474 4.16-2.976 4.566a2.536 2.536 0 01-.694.086z" fill="#000"/><path d="M315.585 49.922c11.357-17.973 24.331-19.91 31.064-17.078 6.733 2.832.838 3.121-5.982 5.578l-25.082 11.5z" fill="#fff"/><path d="M315.585 50.932c-.174 0-.376-.057-.549-.144a1.02 1.02 0 01-.318-1.387c12.252-19.39 26.064-20.083 32.306-17.453 2.254.953 3.641 1.791 3.583 3.063-.087 1.473-1.907 1.994-5.201 2.976-1.33.405-2.861.838-4.422 1.416a1.042 1.042 0 01-1.3-.607c-.202-.52.087-1.098.607-1.3 1.618-.578 3.179-1.04 4.537-1.445 1.3-.376 2.831-.838 3.525-1.185-.289-.202-.896-.578-2.109-1.069-5.635-2.398-18.263-1.56-29.821 16.673-.174.29-.52.462-.838.462z" fill="#000"/><path d="M342.92 39.23c3.612 7.744 1.041 16.297-2.831 11.125-2.341-3.092-2.081-6.213-2.081-6.213l4.912-4.913z" fill="#fff"/><path d="M342.343 52.955c-.809 0-1.878-.405-3.063-1.994-2.514-3.381-2.282-6.762-2.254-6.907.058-.549.578-.953 1.099-.924.549.058.953.52.924 1.098 0 .029-.173 2.774 1.878 5.519.521.694 1.214 1.358 1.619 1.127 1.271-.751 1.907-6.01-.492-11.212a.99.99 0 01.492-1.329.99.99 0 011.329.491c2.543 5.462 2.427 12.166-.289 13.784-.289.144-.694.347-1.243.347z" fill="#000"/><path d="M350.752 40.558h-.116l-34.791-1.214a2.936 2.936 0 01-2.831-3.034c.057-1.618 1.358-2.89 3.034-2.832l34.791 1.214c1.618.058 6.472 1.445 6.415 3.034-.058 1.59-4.942 2.832-6.502 2.832z" fill="#000"/><path d="M326.653 39.201c11.529-4.623 16.962-2.312 17.135 1.33.174 3.611-12.859 2.629-14.014 5.779-1.156 3.12 4.45 7.08 2.485 13.032l-5.606-20.14z" fill="#fff"/><path d="M332.258 60.324c-.116 0-.202-.03-.318-.058a1.015 1.015 0 01-.636-1.272c1.012-3.005-.231-5.519-1.329-7.715-.925-1.85-1.791-3.583-1.127-5.346.752-2.023 3.959-2.6 7.715-3.236 2.341-.405 6.3-1.098 6.242-2.138-.029-.838-.462-1.532-1.242-2.023-2.514-1.618-7.947-1.04-14.506 1.59a1.015 1.015 0 01-1.301-.55c-.202-.52.029-1.098.549-1.3 7.398-2.948 13.206-3.468 16.356-1.416 1.329.867 2.109 2.138 2.167 3.64.115 2.804-3.786 3.468-7.889 4.19-2.312.405-5.808 1.012-6.155 1.966-.346.924.318 2.225 1.041 3.756 1.213 2.427 2.687 5.462 1.444 9.247-.202.404-.606.665-1.011.665z" fill="#000"/><path d="M252.563 135.136c-.722 18.956-1.098 37.912-1.098 37.912h-79.811c2.283-61.144-1.82-67.819 31.757-70.16 5.144-.376 11.183-.636 18.262-.954a44.963 44.963 0 014.393-.028c22.336.664 27.191 15.372 26.497 33.23z" fill="#fff"/><path d="M251.465 174.059h-79.811c-.26 0-.52-.116-.722-.318a1.003 1.003 0 01-.289-.722c.26-6.964.434-13.206.607-18.812 1.242-43.488 1.416-50.163 32.103-52.301 4.335-.318 9.276-.549 14.969-.81l3.294-.144c1.416-.087 2.86-.087 4.479-.029 9.015.26 15.893 2.861 20.429 7.715 5.23 5.606 7.542 14.275 7.051 26.585a2235.52 2235.52 0 00-1.098 37.883c-.029.52-.463.953-1.012.953zm-78.77-1.994h77.788c.087-4.132.462-20.632 1.098-36.958.462-11.732-1.676-19.938-6.53-25.111-4.219-4.507-10.432-6.819-19.014-7.079a52.725 52.725 0 00-4.306.029l-3.294.144c-5.692.26-10.605.492-14.939.809-28.867 2.023-28.983 6.589-30.225 50.366-.174 5.346-.347 11.241-.578 17.8z" fill="#000"/><path d="M232.74 61.71s-2.601-5.374-10.605-10.836c-.087-.028-.116-.086-.202-.086-.202-.145-.434-.26-.636-.376-.231-.115-.462-.231-.665-.318-.202-.115-.491-.202-.722-.318-1.185-.49-2.485-.78-3.814-.895a13.336 13.336 0 00-2.399-.03c-.26.03-.577.03-.866.059-2.428.26-4.826 1.04-6.849 2.37a11.303 11.303 0 00-2.34 1.877l-.029.03c-.029.028-.087.057-.087.086-.029.029-.087.058-.087.115-.52.52-.953 1.099-1.358 1.734-1.502 2.37-2.167 5.404-1.474 9.045.492 2.543 1.156 4.768 2.081 6.56.173.433.405.808.607 1.184.375.693.78 1.271 1.242 1.82.203.318.463.578.665.81a.298.298 0 00.173.144c.318.347.665.665.983.953 0 .03.549.463.838.665l-1.098 26.44c-1.041.058-2.023.144-2.977.202l.203.665 2.6 3.092 5.288 6.27 7.427 8.842 8.004-19.88a80.708 80.708 0 00-4.566.029h-.058l1.734-24.822c8.64-3.323 6.328-12.772 6.328-12.772l2.659-2.658z" fill="#fff"/><path d="M218.61 122.797c-.289 0-.578-.116-.78-.347l-15.315-18.204a1.007 1.007 0 01-.203-.347l-.202-.665a1.02 1.02 0 01.116-.867c.173-.26.462-.404.78-.433l1.242-.087c.261-.029.549-.029.838-.058l1.041-24.995a5.019 5.019 0 01-.52-.433 13.05 13.05 0 01-.896-.896 2.308 2.308 0 01-.376-.376l-.087-.086a5.144 5.144 0 01-.577-.752 9.66 9.66 0 01-1.272-1.878c-.289-.491-.491-.867-.665-1.3-.895-1.763-1.618-4.045-2.109-6.733-.693-3.64-.144-6.993 1.589-9.767.463-.722.925-1.329 1.445-1.85l.087-.086a.878.878 0 01.231-.23 11.922 11.922 0 012.514-1.995c2.081-1.358 4.594-2.225 7.253-2.485l.896-.058c.809-.057 1.647-.029 2.571.03 1.445.115 2.832.462 4.075.953l.202.087c.202.086.433.173.636.288.086.03.231.116.375.203l.232.115c.231.145.462.26.664.405.058.029.145.058.174.087 8.264 5.605 10.951 11.067 11.067 11.298a.97.97 0 01-.203 1.156l-2.311 2.283c.347 2.167.982 9.882-6.473 13.118l-1.618 23.06a73.725 73.725 0 013.583 0c.318 0 .636.173.809.462.174.289.202.636.087.925l-8.004 19.88a1.052 1.052 0 01-.781.607c0-.029-.057-.029-.115-.029zm-13.813-18.985l13.495 16.066 6.819-16.962c-1.04 0-2.051.029-3.034.058a1.04 1.04 0 01-.809-.289c-.202-.202-.347-.491-.318-.78l1.734-24.822c.029-.375.289-.722.636-.867 7.686-2.947 5.808-11.24 5.721-11.587-.086-.347.029-.693.26-.953l2.139-2.11c-.925-1.531-3.815-5.663-9.912-9.825-.144-.028-.115-.028-.231-.115a5.367 5.367 0 00-.549-.318l-.607-.289c-.173-.087-.318-.144-.462-.202l-.231-.087a11.458 11.458 0 00-3.497-.809 11.551 11.551 0 00-2.225-.029l-.867.058c-2.282.231-4.536 1.011-6.357 2.196a9.861 9.861 0 00-2.167 1.734l-.087.087-.057.057a.509.509 0 01-.116.145 8.621 8.621 0 00-1.214 1.56c-1.473 2.312-1.936 5.172-1.329 8.293.491 2.514 1.156 4.624 1.994 6.3.173.404.347.722.52 1.011.405.722.78 1.271 1.214 1.792.202.288.347.462.491.606l.173.203a.762.762 0 01.174.144c.318.347.636.636.924.925l.029.029c.145.115.492.404.723.549.26.202.433.52.404.838l-1.098 26.44c-.029.52-.433.924-.953.953-.463-.058-.896-.029-1.33 0z" fill="#000"/><path d="M210.403 62.838c.694-.318 1.561-.867 2.514-1.56-.636-3.266-.433-6.502 2.341-9.16 1.3-1.243 2.976-1.82 4.652-2.37-1.185-.491-2.485-.751-3.785-.896-.781-.057-1.59-.086-2.37-.028-.289.028-.578.028-.867.057-2.398.29-4.739 1.07-6.761 2.312l-.116.029a3.39 3.39 0 00-2.341 1.85c0 .028 0 .028-.029.057v.029c0 .029-.057.058-.057.087h-.087c0 .029-.029.057-.029.115-.058.116-.058.231-.087.347-.433.462-.838.925-1.271 1.387-1.503 2.37-2.167 5.404-1.474 9.015.492 2.572 1.156 4.768 2.081 6.56.173.404.375.809.607 1.185.375.664.78 1.271 1.242 1.82.202.318.434.578.665.81a.496.496 0 00.173.173c.347.346.665.664.983.953 0 .03.52.434.809.636 2.745-1.647 4.45-4.248 5.114-7.484-.086-.03-.202-.087-.318-.087-2.831-.231-4.652-4.421-1.589-5.837z" fill="#000"/><path d="M218.956 42.438c-7.108 1.242-13.003 5.259-17.28 10.951-2.225 2.976.896 5.866 3.872 5.577.838.838 2.081 1.3 3.583.896 6.213-1.647 11.472-5.866 14.217-11.674 1.532-3.237-.953-6.357-4.392-5.75z" fill="#000"/><path d="M192.749 104.304c-49.846 6.675-86.024 42.997-92.381 92.901-1.127 8.9 8.437 16.586 16.586 16.586 9.912 0 14.968-2.919 16.124-11.847 3.843-30.168 29.503-60.451 59.671-64.496v-33.144z" fill="#fff"/><path d="M116.954 214.801c-4.855 0-10.258-2.601-13.783-6.588-2.919-3.323-4.277-7.282-3.786-11.125 6.386-50.222 42.593-87.209 92.843-93.942a.99.99 0 011.127.867.989.989 0 01-.867 1.127c-49.325 6.618-84.839 42.911-91.109 92.208-.405 3.265.751 6.646 3.294 9.535 3.15 3.584 7.975 5.895 12.281 5.895 9.998 0 14.101-2.976 15.113-10.951 4.074-32.104 31.236-61.433 60.537-65.363.549-.116 1.069.318 1.127.867a.99.99 0 01-.867 1.127c-28.463 3.814-54.845 32.363-58.832 63.629-1.098 9.044-6.069 12.714-17.078 12.714z" fill="#000"/><path d="M100.367 197.232c-1.127 9.132-4.392 40.484-1.733 42.564 2.658 2.081 4.739-12.425 4.739-12.425 1.762 0-1.185 12.714 2.658 13.61 3.843.896 3.757-12.772 5.635-12.425 1.907.375-2.514 12.945 2.803 12.627 3.958-.26 3.958-19.36 9.044-18.233 3.814.838.289 10.374 2.948 11.241 2.658.895 5.663-4.306 6.588-32.191l-32.682-4.768z" fill="#fff"/><path d="M114.266 242.165c-1.155 0-1.878-.491-2.282-.925-1.503-1.56-1.358-4.652-1.098-7.6-.665 3.381-1.387 6.82-3.179 7.976a2.479 2.479 0 01-1.907.347c-2.398-.55-2.861-3.641-2.89-7.051-.751 2.861-1.791 5.432-3.092 5.952-.606.232-1.242.145-1.791-.289-3.67-2.86 1.156-41.812 1.358-43.488a.976.976 0 01.376-.665c.202-.173.491-.231.751-.202l32.681 4.739c.521.087.867.52.867 1.04-.867 26.527-3.583 31.41-5.548 32.768-.722.521-1.56.636-2.369.347-1.936-.636-1.85-3.207-1.763-5.952.087-2.341.145-4.999-1.098-5.26-1.705-.404-3.063 4.999-4.017 8.958-1.213 5.115-2.196 9.16-4.767 9.305h-.232zm-2.716-14.651c.116 0 .202 0 .318.029 1.618.318 1.416 2.428 1.127 5.375-.231 2.341-.578 5.895.433 6.935.145.145.405.347.983.289 1.098-.058 2.254-4.883 2.918-7.773 1.33-5.548 2.717-11.269 6.386-10.46 2.89.635 2.774 4.334 2.688 7.31-.029 1.243-.116 3.815.375 3.988.232.087.376.058.578-.087 1.387-.953 3.815-6.183 4.653-30.283l-30.775-4.479c-1.907 15.691-3.554 37.825-2.051 40.542.953-.925 2.398-6.184 3.178-11.674.116-.867 1.358-1.07 1.965-.463.723.723.694 2.225.636 5.23-.058 2.688-.202 7.658 1.3 8.005.145.028.231.028.376-.058 1.098-.723 1.849-4.45 2.34-6.935.636-3.266 1.07-5.491 2.572-5.491zM347.254 9.293c-.318 0-.665-.173-.838-.462l-2.89-4.537c-.289-.462-.173-1.098.318-1.387.462-.289 1.098-.173 1.387.318l2.89 4.537c.289.462.173 1.098-.318 1.387-.173.115-.347.144-.549.144zm5.346 6.587c-.173 0-.347-.028-.491-.144-.491-.289-.636-.896-.376-1.387l3.294-5.75c.289-.492.896-.636 1.387-.376.492.289.636.896.376 1.387l-3.294 5.75c-.202.347-.549.52-.896.52zM148.016 61.855c-.26 0-.52-.086-.723-.288l-15.315-15.315a.96.96 0 01-.289-.723c0-.289.116-.52.289-.722l15.315-15.315c.405-.405 1.041-.405 1.416 0l15.315 15.315a.96.96 0 01.289.722c0 .29-.115.52-.289.723l-15.315 15.314c-.173.203-.433.29-.693.29zm-13.87-16.297l13.899 13.9 13.899-13.9-13.928-13.899-13.87 13.9zm255.759 309.68h-.116l-9.131-1.069c-.549-.058-.953-.578-.896-1.127a.975.975 0 011.127-.867l9.131 1.069a.99.99 0 01.867 1.127.996.996 0 01-.982.867zm-20.429 64.467a.946.946 0 01-.549-.174c-.463-.318-.607-.925-.289-1.387l8.062-12.367c.317-.463.924-.607 1.387-.289.462.318.606.924.289 1.387l-8.062 12.367c-.174.318-.492.463-.838.463zm78.597 18.233c-.26 0-.52-.087-.723-.289l-8.235-8.235c-.405-.405-.405-1.041 0-1.416l8.235-8.236c.405-.404 1.041-.404 1.416 0l8.236 8.236c.404.404.404 1.04 0 1.416l-8.236 8.235c-.173.202-.433.289-.693.289zm-6.82-9.247l6.82 6.82 6.819-6.82-6.819-6.819-6.82 6.819zm14.593-12.6c-.405 0-.78-.26-.954-.665l-2.918-7.773a1.003 1.003 0 01.578-1.3 1.003 1.003 0 011.3.578l2.919 7.773a1.003 1.003 0 01-.578 1.3c-.116.087-.231.087-.347.087z" fill="#000"/><defs><linearGradient id="paint0_linear_143_1486" x1="458.259" y1="3.924" x2="221.217" y2="403.368" gradientUnits="userSpaceOnUse"><stop stop-color="#22D685"/><stop offset=".169" stop-color="#25D787"/><stop offset=".307" stop-color="#2FD88C"/><stop offset=".434" stop-color="#40DC96"/><stop offset=".555" stop-color="#59E0A3"/><stop offset=".671" stop-color="#78E6B4"/><stop offset=".784" stop-color="#9EEDC9"/><stop offset=".892" stop-color="#CAF5E2"/><stop offset=".997" stop-color="#FDFFFE"/><stop offset="1" stop-color="#fff"/></linearGradient><linearGradient id="paint1_linear_143_1486" x1="456.321" y1="2.774" x2="219.279" y2="402.217" gradientUnits="userSpaceOnUse"><stop stop-color="#22D685"/><stop offset=".169" stop-color="#25D787"/><stop offset=".307" stop-color="#2FD88C"/><stop offset=".434" stop-color="#40DC96"/><stop offset=".555" stop-color="#59E0A3"/><stop offset=".671" stop-color="#78E6B4"/><stop offset=".784" stop-color="#9EEDC9"/><stop offset=".892" stop-color="#CAF5E2"/><stop offset=".997" stop-color="#FDFFFE"/><stop offset="1" stop-color="#fff"/></linearGradient><linearGradient id="paint2_linear_143_1486" x1="270.1" y1="-25.928" x2="196.572" y2="224.069" gradientUnits="userSpaceOnUse"><stop stop-color="#22D685"/><stop offset=".169" stop-color="#25D787"/><stop offset=".307" stop-color="#2FD88C"/><stop offset=".434" stop-color="#40DC96"/><stop offset=".555" stop-color="#59E0A3"/><stop offset=".671" stop-color="#78E6B4"/><stop offset=".784" stop-color="#9EEDC9"/><stop offset=".892" stop-color="#CAF5E2"/><stop offset=".997" stop-color="#FDFFFE"/><stop offset="1" stop-color="#fff"/></linearGradient><linearGradient id="paint3_linear_143_1486" x1="421.764" y1="267.181" x2="362.033" y2="411.454" gradientUnits="userSpaceOnUse"><stop stop-color="#22D685"/><stop offset=".169" stop-color="#25D787"/><stop offset=".307" stop-color="#2FD88C"/><stop offset=".434" stop-color="#40DC96"/><stop offset=".555" stop-color="#59E0A3"/><stop offset=".671" stop-color="#78E6B4"/><stop offset=".784" stop-color="#9EEDC9"/><stop offset=".892" stop-color="#CAF5E2"/><stop offset=".997" stop-color="#FDFFFE"/><stop offset="1" stop-color="#fff"/></linearGradient></defs></svg>