<svg width="128" height="26" viewBox="0 0 128 26" fill="none" xmlns="http://www.w3.org/2000/svg">
<path fill-rule="evenodd" clip-rule="evenodd" d="M124.881 20.9219L125.185 20.6681C126.741 19.3555 127.469 17.6754 127.469 15.6414C127.469 14.8264 127.312 14.0415 126.995 13.29C126.681 12.5519 126.254 11.8805 125.706 11.2927C125.158 10.7082 124.517 10.2406 123.802 9.88321C123.077 9.52249 122.306 9.31207 121.497 9.24861C121.073 9.21521 120.673 9.10499 120.295 8.90793C119.934 8.72089 119.617 8.47373 119.343 8.17313C119.069 7.87253 118.856 7.53184 118.699 7.15776C118.538 6.77032 118.461 6.35616 118.461 5.93866C118.461 5.47774 118.555 5.03352 118.752 4.61602C118.936 4.22524 119.18 3.8712 119.49 3.57394C119.794 3.28336 120.145 3.0529 120.532 2.8859C120.92 2.72224 121.331 2.62872 121.751 2.62872C122.249 2.62872 122.74 2.7189 123.198 2.91596C123.658 3.11302 124.039 3.40694 124.323 3.8211C124.427 3.97474 124.537 4.1217 124.647 4.26866C124.731 4.3722 124.824 4.4724 124.924 4.55924L124.931 4.56592L124.938 4.5726C125.015 4.64274 125.098 4.6895 125.192 4.72624C125.295 4.76632 125.415 4.78302 125.529 4.78302C125.673 4.78302 125.806 4.7563 125.936 4.70286H125.94L125.943 4.69952C126.063 4.65276 126.174 4.58262 126.267 4.4891L126.274 4.48242C126.367 4.3889 126.441 4.27534 126.494 4.1551C126.548 4.0215 126.571 3.88122 126.571 3.7376C126.571 3.53386 126.528 3.34348 126.424 3.16646C126.157 2.74228 125.843 2.34482 125.479 2.0008C125.135 1.67681 124.757 1.39625 124.343 1.17247C123.946 0.955373 123.525 0.788373 123.084 0.678153C122.656 0.571273 122.219 0.514493 121.781 0.514493C120.552 0.514493 119.46 0.875213 118.508 1.61669L118.278 1.81709C117.68 2.33814 117.186 2.94936 116.852 3.6708C116.514 4.39892 116.374 5.1905 116.374 5.98876C116.374 6.67012 116.494 7.3281 116.755 7.95937C117.009 8.57393 117.363 9.13171 117.82 9.61601C118.278 10.1036 118.805 10.5011 119.403 10.8017C120.015 11.109 120.669 11.286 121.351 11.3495C121.892 11.3996 122.413 11.5499 122.9 11.7904C123.378 12.0275 123.812 12.3381 124.183 12.7256C124.554 13.1163 124.848 13.5672 125.058 14.0616C125.278 14.5859 125.382 15.137 125.382 15.7048C125.382 16.3027 125.268 16.8839 125.031 17.4316C124.807 17.956 124.497 18.4303 124.096 18.8378C123.699 19.2419 123.231 19.5559 122.713 19.7863C122.172 20.0268 121.604 20.1437 121.01 20.1437C120.258 20.1437 119.544 19.9734 118.879 19.6227C118.191 19.2619 117.643 18.7342 117.222 18.0829V18.0762L117.216 18.0696C117.012 17.7322 116.735 17.5986 116.344 17.5986C116.204 17.5986 116.06 17.6153 115.93 17.6721C115.803 17.7255 115.693 17.8024 115.596 17.8992C115.502 17.9961 115.429 18.103 115.379 18.2265C115.325 18.3601 115.302 18.4971 115.302 18.6407C115.302 18.8745 115.359 19.0849 115.502 19.272L115.512 19.2853L115.522 19.2987C115.833 19.7629 116.194 20.1838 116.614 20.5512C117.025 20.9152 117.476 21.2259 117.967 21.4764C118.445 21.7235 118.949 21.9139 119.47 22.0408C119.981 22.1678 120.506 22.2312 121.033 22.2312C122.486 22.2312 123.762 21.7836 124.894 20.9219M98.6519 21.9373C98.7454 22.0308 98.8556 22.101 98.9758 22.1544C99.1094 22.2078 99.2497 22.2312 99.3933 22.2312H111.387C111.681 22.2312 111.915 22.131 112.125 21.9239C112.333 21.7169 112.433 21.4764 112.433 21.1824C112.433 20.8885 112.333 20.6547 112.125 20.4443C111.918 20.2372 111.681 20.137 111.387 20.137H100.442V1.55657C100.442 1.26265 100.345 1.02551 100.138 0.815093C99.9277 0.608013 99.6906 0.507812 99.3967 0.507812C99.1028 0.507812 98.8656 0.608013 98.6585 0.815093C98.4481 1.02551 98.3512 1.26265 98.3512 1.55657V21.1824C98.3512 21.3261 98.3713 21.4697 98.4281 21.6033C98.4815 21.7302 98.555 21.8371 98.6519 21.9373ZM84.38 2.60534C86.7982 2.60534 88.8723 3.4704 90.5857 5.18048C92.2925 6.88388 93.1509 8.96137 93.1509 11.3695C93.1509 13.7777 92.2958 15.8652 90.5857 17.5752C88.8757 19.2853 86.7982 20.1404 84.38 20.1404C81.9618 20.1404 79.8844 19.282 78.1743 17.5752C76.4642 15.8652 75.6091 13.7877 75.6091 11.3695C75.6091 10.2139 75.7995 9.07159 76.2471 7.99945C76.6913 6.93398 77.3593 5.99544 78.1743 5.18048C78.9926 4.36218 79.9311 3.69752 81.0033 3.24996C82.0754 2.79906 83.2177 2.60534 84.38 2.60534ZM95.2417 11.3695C95.2417 9.93665 95.0046 8.53051 94.4501 7.20452C93.8957 5.8752 93.064 4.71622 92.0487 3.70086C89.9244 1.57995 87.386 0.507812 84.38 0.507812C81.374 0.507812 78.8222 1.57661 76.698 3.70086C74.5737 5.8251 73.5183 8.37019 73.5183 11.3695C73.5183 14.3688 74.5704 16.9273 76.698 19.0515C78.8222 21.1758 81.3773 22.2312 84.38 22.2312C87.3827 22.2312 89.9278 21.1724 92.0487 19.0515C94.1762 16.9239 95.2417 14.3789 95.2417 11.3695ZM59.4936 2.60534C61.9118 2.60534 63.9859 3.4704 65.696 5.18048C67.4028 6.88388 68.2611 8.96137 68.2611 11.3695C68.2611 13.7777 67.4061 15.8652 65.696 17.5752C63.9859 19.2853 61.9084 20.1404 59.4903 20.1404C57.0721 20.1404 54.9946 19.282 53.2845 17.5752C51.5745 15.8652 50.7194 13.7877 50.7194 11.3695C50.7194 10.2139 50.9098 9.07159 51.3574 7.99945C51.8016 6.93398 52.4696 5.99544 53.2845 5.18048C54.1028 4.36218 55.0414 3.69752 56.1135 3.24996C57.1857 2.79906 58.328 2.60534 59.4903 2.60534H59.4936ZM70.3553 11.3695C70.3553 9.93665 70.1182 8.53051 69.5637 7.20452C69.0093 5.8752 68.1776 4.71622 67.1623 3.70086C65.038 1.57995 62.4996 0.507812 59.4936 0.507812C56.4876 0.507812 53.9358 1.57661 51.8116 3.70086C49.6907 5.82176 48.6319 8.37019 48.6319 11.3695C48.6319 14.3688 49.684 16.9273 51.8116 19.0515C53.9358 21.1758 56.491 22.2312 59.4936 22.2312C62.4963 22.2312 65.0414 21.1724 67.1623 19.0515C69.2899 16.9239 70.3553 14.3789 70.3553 11.3695ZM35.3721 2.60534H38.682C39.34 2.60534 39.9746 2.72892 40.5825 2.98276C41.1737 3.22992 41.7047 3.58396 42.159 4.03486C42.6132 4.4891 42.9773 5.01348 43.2345 5.60466C43.505 6.22256 43.6286 6.88054 43.6286 7.55189C43.6286 8.22323 43.5017 8.87453 43.2345 9.48909C42.9773 10.0803 42.6132 10.6013 42.159 11.0522C41.7081 11.5031 41.1804 11.8605 40.5959 12.111C39.988 12.3749 39.3467 12.5018 38.682 12.5018H35.3721V2.60534ZM33.5752 0.815093C33.4816 0.908613 33.4115 1.01883 33.3581 1.13907C33.308 1.27601 33.2812 1.41295 33.2812 1.55991V21.1858C33.2812 21.4797 33.3814 21.7202 33.5885 21.9273C33.7956 22.1343 34.0328 22.2346 34.3267 22.2346C34.6206 22.2346 34.8611 22.1343 35.0682 21.9273C35.2752 21.7202 35.3754 21.4797 35.3754 21.1858V14.5993H38.6854C40.6259 14.5993 42.2792 13.9146 43.6486 12.5419C45.0281 11.1591 45.7361 9.51247 45.7361 7.55857C45.7361 6.93398 45.6526 6.31274 45.479 5.71488C45.3086 5.1237 45.0681 4.5559 44.7609 4.02484C44.4569 3.50046 44.0795 3.02618 43.6486 2.59866C43.2178 2.1678 42.7335 1.79705 42.2124 1.48309C41.6847 1.16913 41.1202 0.931993 40.5324 0.768333C39.9312 0.597993 39.31 0.514493 38.6854 0.514493H34.3267C34.1831 0.514493 34.0428 0.537873 33.9125 0.594653C33.7856 0.648093 33.6754 0.724913 33.5785 0.821773L33.5752 0.815093Z" fill="#1C9AEA"/>
<path fill-rule="evenodd" clip-rule="evenodd" d="M17.4624 0.226562C23.7015 0.226562 28.6715 5.35347 28.6715 11.5625C28.6715 14.5218 27.5392 17.3474 25.4851 19.4784L25.3715 19.5986L25.3014 19.4483C25.2546 19.3448 25.2079 19.2412 25.1645 19.1377C24.9307 18.5799 24.7637 17.9954 24.6167 17.4076L24.6033 17.3541L24.6367 17.3107C25.926 15.6674 26.614 13.6534 26.614 11.5625C26.614 6.49241 22.5592 2.30405 17.4624 2.30405C12.3656 2.30405 8.31078 6.49241 8.31078 11.5625C8.31078 13.6601 9.00551 15.6808 10.3014 17.3274C11.564 18.9273 13.3175 20.0729 15.3014 20.5605L15.3716 20.5772L15.3849 20.6474C15.5152 21.2653 15.7089 21.8665 15.9828 22.4343C16.0162 22.5011 16.0496 22.5679 16.083 22.6347L16.1832 22.8284L15.9661 22.7983C13.2774 22.4376 10.8291 21.0983 9.05227 19.0575C7.2353 16.9734 6.25 14.3247 6.25 11.5592C6.25334 5.35347 11.2233 0.226562 17.4624 0.226562Z" fill="#1C9AEA"/>
<path fill-rule="evenodd" clip-rule="evenodd" d="M11.8567 9.84028C12.0905 9.57976 12.8387 9.33594 13.8841 9.33594C14.9295 9.33594 16.2722 9.57976 17.5448 10.191C18.814 10.8022 20.013 11.7875 20.7779 12.9164C21.5461 14.0453 21.8801 15.3246 22.1606 16.5136C22.4412 17.7027 22.665 18.8049 23.1426 19.9505C23.6202 21.0961 24.3483 22.2851 25.1499 23.1168C25.9549 23.9485 26.83 24.4227 27.7552 24.7634C28.6803 25.1041 29.6523 25.3078 30.1566 25.4782C30.661 25.6452 30.6977 25.7788 30.4138 25.869C30.1299 25.9625 29.5254 26.0193 28.8841 25.9892C28.2428 25.9625 27.5614 25.8489 26.3223 25.5784C25.0831 25.3078 23.2862 24.877 21.7431 24.2157C20.2001 23.551 18.9075 22.6559 18.2629 21.3199C17.6182 19.9839 17.6182 18.2103 17.6182 16.6572C17.6182 15.1041 17.6182 13.7815 17.2642 12.8363C16.9102 11.8944 16.2021 11.3333 15.4639 11.0226C14.7258 10.7154 13.9609 10.6586 13.4098 10.6385C12.8587 10.6185 12.5214 10.6385 12.2141 10.5083C11.9068 10.378 11.6263 10.0975 11.8601 9.83694" fill="#1C9AEA"/>
<path fill-rule="evenodd" clip-rule="evenodd" d="M1.0521 0C1.62992 0 2.1042 0.474281 2.1042 1.0521V21.6332C2.1042 22.211 1.62992 22.6853 1.0521 22.6853C0.474281 22.6853 0 22.211 0 21.6332V1.0521C0 0.474281 0.474281 0 1.0521 0Z" fill="#1C9AEA"/>
</svg>
