<svg width="172" height="27" viewBox="0 0 172 27" fill="none" xmlns="http://www.w3.org/2000/svg">
<path d="M13.0489 2.92705C13.3483 2.00574 14.6517 2.00574 14.9511 2.92705L17.0804 9.48061C17.2143 9.89263 17.5983 10.1716 18.0315 10.1716H24.9223C25.891 10.1716 26.2938 11.4112 25.5101 11.9806L19.9353 16.0309C19.5848 16.2856 19.4382 16.7369 19.572 17.149L21.7014 23.7025C22.0008 24.6238 20.9463 25.39 20.1626 24.8206L14.5878 20.7702C14.2373 20.5156 13.7627 20.5156 13.4122 20.7702L7.83742 24.8206C7.05371 25.39 5.99923 24.6238 6.29858 23.7025L8.42796 17.149C8.56183 16.7369 8.41518 16.2856 8.06469 16.0309L2.4899 11.9806C1.70619 11.4112 2.10896 10.1716 3.07768 10.1716H9.9685C10.4017 10.1716 10.7857 9.89263 10.9196 9.48061L13.0489 2.92705Z" fill="#F1A33B"/>
<path d="M49.0489 2.92705C49.3483 2.00574 50.6517 2.00574 50.9511 2.92705L53.0804 9.48061C53.2143 9.89263 53.5983 10.1716 54.0315 10.1716H60.9223C61.891 10.1716 62.2938 11.4112 61.5101 11.9806L55.9353 16.0309C55.5848 16.2856 55.4382 16.7369 55.572 17.149L57.7014 23.7025C58.0008 24.6238 56.9463 25.39 56.1626 24.8206L50.5878 20.7702C50.2373 20.5156 49.7627 20.5156 49.4122 20.7702L43.8374 24.8206C43.0537 25.39 41.9992 24.6238 42.2986 23.7025L44.428 17.149C44.5618 16.7369 44.4152 16.2856 44.0647 16.0309L38.4899 11.9806C37.7062 11.4112 38.109 10.1716 39.0777 10.1716H45.9685C46.4017 10.1716 46.7857 9.89263 46.9196 9.48061L49.0489 2.92705Z" fill="#F1A33B"/>
<path d="M85.0489 2.92705C85.3483 2.00574 86.6517 2.00574 86.9511 2.92705L89.0804 9.48061C89.2143 9.89263 89.5983 10.1716 90.0315 10.1716H96.9223C97.891 10.1716 98.2938 11.4112 97.5101 11.9806L91.9353 16.0309C91.5848 16.2856 91.4382 16.7369 91.572 17.149L93.7014 23.7025C94.0008 24.6238 92.9463 25.39 92.1626 24.8206L86.5878 20.7702C86.2373 20.5156 85.7627 20.5156 85.4122 20.7702L79.8374 24.8206C79.0537 25.39 77.9992 24.6238 78.2986 23.7025L80.428 17.149C80.5618 16.7369 80.4152 16.2856 80.0647 16.0309L74.4899 11.9806C73.7062 11.4112 74.109 10.1716 75.0777 10.1716H81.9685C82.4017 10.1716 82.7857 9.89263 82.9196 9.48061L85.0489 2.92705Z" fill="#F1A33B"/>
<path d="M121.049 2.92705C121.348 2.00574 122.652 2.00574 122.951 2.92705L125.08 9.48061C125.214 9.89263 125.598 10.1716 126.031 10.1716H132.922C133.891 10.1716 134.294 11.4112 133.51 11.9806L127.935 16.0309C127.585 16.2856 127.438 16.7369 127.572 17.149L129.701 23.7025C130.001 24.6238 128.946 25.39 128.163 24.8206L122.588 20.7702C122.237 20.5156 121.763 20.5156 121.412 20.7702L115.837 24.8206C115.054 25.39 113.999 24.6238 114.299 23.7025L116.428 17.149C116.562 16.7369 116.415 16.2856 116.065 16.0309L110.49 11.9806C109.706 11.4112 110.109 10.1716 111.078 10.1716H117.969C118.402 10.1716 118.786 9.89263 118.92 9.48061L121.049 2.92705Z" fill="#F1A33B"/>
<path d="M157.049 2.92705C157.348 2.00574 158.652 2.00574 158.951 2.92705L161.08 9.48061C161.214 9.89263 161.598 10.1716 162.031 10.1716H168.922C169.891 10.1716 170.294 11.4112 169.51 11.9806L163.935 16.0309C163.585 16.2856 163.438 16.7369 163.572 17.149L165.701 23.7025C166.001 24.6238 164.946 25.39 164.163 24.8206L158.588 20.7702C158.237 20.5156 157.763 20.5156 157.412 20.7702L151.837 24.8206C151.054 25.39 149.999 24.6238 150.299 23.7025L152.428 17.149C152.562 16.7369 152.415 16.2856 152.065 16.0309L146.49 11.9806C145.706 11.4112 146.109 10.1716 147.078 10.1716H153.969C154.402 10.1716 154.786 9.89263 154.92 9.48061L157.049 2.92705Z" fill="#F1A33B"/>
</svg>
