<svg width="38" height="38" viewBox="0 0 38 38" fill="none" xmlns="http://www.w3.org/2000/svg">
<g id="image 36 (traced)">
<g id="Black">
<path id="Vector" d="M18.0453 3.05402C17.6 3.12824 8.87925 6.36417 8.23355 6.68332C6.97925 7.31417 5.9773 8.67238 5.68042 10.1345C5.57652 10.6614 5.5691 11.515 5.58394 17.5935L5.6062 24.4587L5.83628 25.1118C6.11089 25.8763 6.44488 26.4478 6.90503 26.9673C7.20933 27.3087 15.4921 33.5728 16.457 34.1888C17.7187 34.9978 19.6929 35.0943 21.1105 34.4189C21.7636 34.1071 30.707 27.4275 31.1226 26.945C31.516 26.4849 31.9539 25.6907 32.1988 24.9782L32.3992 24.3845V17.3708C32.3992 11.7302 32.3769 10.2755 32.2953 9.94894C32.1394 9.31808 31.6718 8.40519 31.2191 7.85597C30.4101 6.87628 30.2914 6.82433 25.1777 4.91691C22.6617 3.97433 20.4648 3.16535 20.3015 3.12082C19.8859 3.00949 18.5277 2.96496 18.0453 3.05402ZM24.0496 13.4669C24.3168 13.5263 24.7175 13.9642 24.7918 14.2833C24.9253 14.8919 24.9625 14.8474 21.1328 18.6919C19.166 20.6661 17.4664 22.3286 17.355 22.388C17.0878 22.529 16.6722 22.5216 16.3605 22.3732C16.1082 22.2544 13.4882 19.59 13.3101 19.2782C13.2582 19.1892 13.221 18.9888 13.2136 18.8329C13.2062 18.061 13.8222 17.5564 14.6015 17.7048C14.8316 17.7493 15.0543 17.9275 15.8484 18.7142C16.3828 19.2411 16.8503 19.6716 16.8875 19.6716C16.932 19.6716 18.3347 18.2985 20.0121 16.6212C23.0699 13.5634 23.3668 13.3036 23.7527 13.4001C23.8121 13.415 23.9457 13.4446 24.0496 13.4669Z" fill="white"/>
</g>
</g>
</svg>
