<svg width="38" height="38" viewBox="0 0 38 38" fill="none" xmlns="http://www.w3.org/2000/svg">
<path d="M14.9661 3.15541C13.186 3.62386 11.8119 4.91988 11.203 6.70777L10.9922 7.33237L10.9687 16.5217L10.9453 25.7188H11.203C11.6246 25.7109 12.3663 25.586 13.0455 25.4065L13.6857 25.2347V23.4858V21.737H18.9947H24.3037V23.4858V25.2347L24.9439 25.4065C25.6232 25.586 26.3649 25.7109 26.7787 25.7188H27.0363L27.0519 16.6778L27.0754 7.64466L27.3408 7.15279C27.6453 6.59847 27.9576 6.29398 28.5432 5.98949C28.8945 5.80212 29.035 5.77089 29.6518 5.77089C30.2686 5.77089 30.4091 5.80212 30.7604 5.98949C30.9869 6.10661 31.2835 6.30179 31.4319 6.43451C31.7832 6.739 32.1892 7.51193 32.2439 7.99599L32.2907 8.38636H33.657H35.0233L34.9764 7.81642C34.8281 5.7865 33.415 3.9908 31.4163 3.28033C30.7839 3.05392 30.6746 3.0383 29.6518 3.0383C28.6525 3.0383 28.5041 3.06173 27.9342 3.25691C26.318 3.82685 25.1547 4.98234 24.5848 6.58286L24.3428 7.25429L24.3194 9.76827L24.2959 12.2901H18.9869H13.6779L13.7013 10.0415C13.7404 7.37921 13.756 7.29333 14.4977 6.54382C14.8568 6.18468 15.091 6.02072 15.4424 5.888C16.957 5.32587 18.7293 6.39548 18.8932 7.96476L18.9401 8.38636H20.3376H21.7351L21.6883 7.93353C21.6024 7.17622 21.4306 6.58286 21.0949 5.888C20.6343 4.95111 19.6896 4.00642 18.7527 3.55359C18.3936 3.38183 17.8705 3.18664 17.5894 3.12419C16.8867 2.95242 15.661 2.96804 14.9661 3.15541ZM24.3037 17.0135V19.0044H18.9947H13.6857V17.0135V15.0226H18.9947H24.3037V17.0135Z" fill="white"/>
<path d="M2.99219 30.987V35.0078H18.9973H35.0025V30.9714V26.9428L34.1202 26.9896C32.7305 27.0755 31.778 27.2629 29.7715 27.8641C27.765 28.473 25.6804 28.4028 23.5803 27.6767C22.9244 27.4503 21.4879 27.1458 20.6213 27.0521C18.6148 26.8335 16.1164 27.0833 14.4144 27.6767C12.8295 28.2232 11.1197 28.4106 9.6675 28.192C9.23809 28.1217 8.36367 27.9109 7.71565 27.7157C6.04487 27.216 4.61612 26.9662 3.44502 26.9662H2.99219V30.987Z" fill="white"/>
</svg>
