<svg width="38" height="38" viewBox="0 0 38 38" fill="none" xmlns="http://www.w3.org/2000/svg">
<g id="image 38 (traced)">
<g id="Black">
<path id="Vector" d="M17.5921 3.03022C15.0279 3.34293 12.7201 4.29982 10.8063 5.8446C10.2435 6.30115 9.24905 7.30182 8.79875 7.8647C7.39156 9.62837 6.41591 11.8861 6.09069 14.1626C5.95935 15.0758 5.95935 16.8832 6.09069 17.8151C6.58477 21.3675 8.56734 24.6071 11.4943 26.6647L11.9946 27.015V30.6799C11.9946 34.2323 12.0009 34.3574 12.1197 34.5575C12.3011 34.8577 12.5888 35.0078 12.9765 35.0078C13.283 35.0078 13.5269 34.9015 16.1537 33.5881L18.9993 32.1622L21.845 33.5881C24.4717 34.9015 24.7156 35.0078 25.0221 35.0078C25.4098 35.0078 25.6975 34.8577 25.8789 34.5575C25.9977 34.3574 26.004 34.2323 26.004 30.6862V27.015L26.5856 26.6022C29.475 24.5446 31.4201 21.3362 31.9079 17.8151C32.0393 16.8832 32.0393 15.0758 31.9079 14.1626C31.0636 8.30249 26.4418 3.78072 20.5628 3.04898C20.075 2.99269 18.0237 2.97393 17.5921 3.03022ZM19.8436 7.07667C20.8505 7.13921 22.2702 7.5645 23.2521 8.10235C24.0026 8.50888 24.6531 9.00921 25.3473 9.70342C26.6044 10.9668 27.4049 12.4365 27.7864 14.1814C27.924 14.8131 27.9803 16.5205 27.8865 17.1959C27.555 19.535 26.348 21.6239 24.4842 23.0686C20.8193 25.9142 15.6346 25.5015 12.4512 22.0992C11.3254 20.8921 10.5562 19.4099 10.1997 17.7463C10.1121 17.3273 10.0871 16.9395 10.0871 15.9326C10.0934 14.7443 10.1059 14.6004 10.2622 13.9688C10.7 12.2301 11.438 10.9167 12.6763 9.67841C13.9334 8.42132 15.2593 7.67707 16.9667 7.2643C17.5921 7.11419 18.7491 6.98911 19.1244 7.02664C19.2119 7.03914 19.5372 7.05791 19.8436 7.07667Z" fill="white"/>
<path id="Vector_2" d="M18.5271 10.0677C18.2269 10.2303 18.0706 10.4742 17.4327 11.7501L16.7572 13.0947L15.2124 13.2949C14.3619 13.4074 13.5863 13.5388 13.4925 13.5888C13.1736 13.7577 12.9922 14.0329 12.9922 14.3706C12.9922 14.5394 13.0235 14.7458 13.061 14.8271C13.0985 14.9147 13.6489 15.4525 14.2805 16.0342C15.1999 16.8722 15.4251 17.1099 15.4 17.21C15.2062 18.0543 14.8684 20.0744 14.8935 20.2432C14.9685 20.7248 15.3312 21 15.8879 21C16.2381 21 16.3382 20.9562 17.6265 20.287L19.0024 19.574L20.3659 20.287C21.6417 20.95 21.7605 21 22.092 21C22.2859 21 22.5235 20.9562 22.6236 20.9062C22.8488 20.7874 23.0614 20.4934 23.0989 20.237C23.1239 20.0744 22.7862 18.0355 22.5923 17.21C22.5736 17.1099 22.7987 16.8722 23.7118 16.0342C24.3435 15.4588 24.8939 14.9147 24.9314 14.8334C24.9689 14.7458 25.0002 14.5394 25.0002 14.3706C25.0002 14.0329 24.8188 13.7577 24.4936 13.5888C24.3998 13.5388 23.6243 13.4074 22.78 13.2949L21.2352 13.0947L20.5785 11.7751C19.9093 10.4304 19.778 10.2366 19.484 10.0802C19.2839 9.97389 18.7022 9.96764 18.5271 10.0677Z" fill="white"/>
</g>
</g>
</svg>
