<svg width="367" height="339" viewBox="0 0 367 339" fill="none" xmlns="http://www.w3.org/2000/svg">
<g clip-path="url(#clip0_187_9672)">
<path d="M264.99 122.59C264.692 123.549 264.477 124.531 264.348 125.527C264.281 126.325 265.458 126.377 265.686 125.686C265.943 124.775 266.139 123.849 266.273 122.912C266.304 122.746 266.27 122.575 266.179 122.434C266.088 122.292 265.946 122.191 265.783 122.15C265.619 122.109 265.446 122.132 265.299 122.213C265.152 122.295 265.041 122.43 264.99 122.59Z" fill="#181D22"/>
<path d="M264.99 121.098C266.113 120.713 266.273 121.471 266.379 121.675C266.437 121.773 266.519 121.854 266.617 121.91C266.716 121.966 266.827 121.996 266.941 121.996C267.054 121.996 267.166 121.966 267.264 121.91C267.363 121.854 267.445 121.773 267.502 121.675C267.639 121.341 267.642 120.967 267.513 120.631C267.384 120.294 267.132 120.018 266.807 119.86C266.461 119.712 266.088 119.635 265.712 119.635C265.335 119.635 264.962 119.712 264.616 119.86C264.457 119.914 264.325 120.028 264.248 120.177C264.171 120.326 264.155 120.499 264.204 120.66C264.252 120.82 264.362 120.956 264.508 121.037C264.655 121.119 264.828 121.141 264.99 121.098Z" fill="#181D22"/>
<path d="M218.438 148.104C242.755 172.014 265.044 156.696 267.129 156.163C269.633 158.191 281.292 159.205 280.864 151.353C280.864 151.353 286.319 154.339 287.972 156.741C295.525 167.723 295.872 195.062 295.724 198.745C295.606 201.631 298.382 213.104 298.77 216.571C299.08 219.347 299.29 222.749 297.219 224.791C294.932 226.755 292.134 228.032 289.149 228.473C284.067 229.639 278.815 229.874 273.649 229.168C268.356 228.327 261.51 225.912 258.47 221.216C257.116 219.057 256.315 216.598 256.138 214.057C255.96 211.516 256.413 208.97 257.454 206.645C258.887 203.184 259.91 199.568 260.501 195.87C261.11 191.741 260.199 187.531 257.936 184.022C257.936 184.022 268.585 180.326 267.235 178.952C266.601 178.303 263.493 181.082 258.372 181.407C255.058 181.617 221.973 171.96 213.261 153.92C213.147 149.331 218.438 148.104 218.438 148.104Z" fill="#57E697"/>
<path d="M210.848 150.453C208.357 150.676 205.863 150.062 203.762 148.708C201.66 147.355 200.072 145.338 199.249 142.98C199.198 142.818 199.091 142.68 198.947 142.59C198.802 142.5 198.631 142.465 198.463 142.491C198.295 142.517 198.142 142.602 198.031 142.731C197.921 142.86 197.86 143.024 197.86 143.193C197.779 149.439 205.889 152.335 210.848 151.84C211.706 151.754 211.758 150.412 210.848 150.453Z" fill="#181D22"/>
<path d="M206.519 145.12C204.951 144.795 203.515 144.013 202.392 142.873C201.27 141.732 200.511 140.285 200.212 138.714C200.108 137.86 198.671 137.539 198.661 138.501C198.634 144.319 204.22 146.134 206.197 146.507C207.006 146.609 207.378 145.312 206.519 145.12Z" fill="#181D22"/>
<path d="M199.571 134.654C202.336 138.414 215.37 148.669 218.438 135.079C218.605 134.335 217.154 133.906 216.941 134.706C213.948 145.916 202.841 136.363 200.638 133.8C200.172 133.254 199.095 134.008 199.571 134.654Z" fill="#181D22"/>
<path d="M218.438 148.006C218.738 147.475 218.922 146.887 218.977 146.28C219.032 145.673 218.958 145.061 218.758 144.485C218.438 143.844 217.359 144.219 217.477 144.804C217.646 145.63 217.553 146.489 217.209 147.259C216.868 148.096 218.061 148.797 218.438 148.006Z" fill="#181D22"/>
<path d="M262.905 156.216C268.36 153.126 257.616 153.383 248.368 151.519C237.88 149.133 228.381 143.58 221.164 135.615C222.005 137.457 222.44 139.458 222.44 141.483C222.44 143.508 222.005 145.509 221.164 147.351C224.001 150.64 227.426 153.372 231.264 155.409C239.229 159.311 254.038 161.241 262.905 156.216Z" fill="#57E697"/>
<path d="M198.127 125.581C199.998 132.411 210.31 130.809 211.595 128.782C211.665 128.648 211.701 128.498 211.698 128.347C211.696 128.195 211.656 128.047 211.582 127.914C211.508 127.782 211.402 127.67 211.274 127.589C211.145 127.508 210.999 127.46 210.848 127.449C209.512 127.334 202.784 130.058 199.944 125.313C199.464 124.513 198.019 124.459 198.127 125.581Z" fill="#181D22"/>
<path d="M197.86 120.723C199.442 123.159 208.172 128.7 211.382 122.058C211.871 121.048 209.993 120.777 209.455 121.525C207.158 124.729 201.001 122.439 198.925 119.922C198.446 119.337 197.44 120.078 197.86 120.723Z" fill="#181D22"/>
<path d="M196.311 116.294C198.243 117.808 200.544 118.779 202.978 119.108C205.411 119.436 207.888 119.11 210.153 118.162C210.324 118.056 210.455 117.898 210.528 117.712C210.601 117.525 210.611 117.319 210.556 117.127C210.502 116.934 210.386 116.764 210.226 116.642C210.067 116.521 209.872 116.455 209.671 116.453C205.432 117.606 200.911 117.071 197.059 114.96C196.419 114.583 195.72 115.816 196.311 116.294Z" fill="#181D22"/>
<path d="M231.532 200.25C230.89 194.966 224.297 173.492 221.644 168.707C221.541 168.537 221.381 168.41 221.193 168.349C221.004 168.288 220.799 168.297 220.617 168.375C220.435 168.453 220.287 168.594 220.201 168.773C220.115 168.951 220.096 169.154 220.148 169.345C221.356 174.623 228.112 195.391 230.088 200.303C229.341 201.843 226.62 201.583 225.973 201.156C226.027 200.996 215.684 171.91 209.939 157.764C209.678 157.122 208.709 157.391 208.923 158.032C213.763 172.451 224.476 201.423 224.53 201.531C225.279 202.758 228.645 204.519 231.799 200.996C232.013 200.782 231.799 200.463 231.532 200.25Z" fill="#181D22"/>
<path d="M239.068 51.1255C237.861 40.9444 233.695 31.339 227.084 23.495C220.473 15.6511 211.707 9.91183 201.868 6.98576C181.02 0.636379 157.252 7.63416 143.873 24.9718C124.694 49.8364 129.229 90.5994 159.319 105.245C170.488 110.871 183.145 112.85 195.502 110.902C195.682 111.635 195.97 112.336 196.357 112.984C196.743 113.671 197.958 113.199 197.64 112.451C197.209 111.437 197.174 110.309 196.785 109.301C196.743 109.178 196.665 109.069 196.562 108.989C196.459 108.908 196.335 108.86 196.205 108.848C196.075 108.837 195.944 108.864 195.829 108.926C195.713 108.987 195.619 109.081 195.556 109.195C184.803 110.696 173.845 109.237 163.861 104.978C154.713 101.362 146.987 94.8804 141.842 86.5069C132.326 70.7643 132.705 49.9499 141.146 33.8282C146.135 24.6476 153.817 17.2109 163.161 12.5168C172.505 7.82281 183.064 6.09615 193.419 7.56874C212.661 10.3317 229.702 24.0637 235.108 42.9021C238.616 55.0924 237.65 68.1332 232.382 79.6746C226.987 90.9419 216.316 101.836 204.428 106.148C204.275 106.202 204.136 106.291 204.022 106.407C203.908 106.524 203.822 106.665 203.77 106.819C203.719 106.974 203.703 107.138 203.725 107.299C203.746 107.46 203.804 107.615 203.895 107.75C204.279 109.58 204.889 111.355 205.712 113.034C205.8 113.168 205.932 113.267 206.086 113.312C206.24 113.358 206.405 113.348 206.552 113.284C206.699 113.22 206.819 113.106 206.89 112.963C206.961 112.819 206.979 112.655 206.941 112.499C206.725 111.487 205.872 108.391 205.764 107.856C216.553 104.068 225.659 95.2152 231.74 85.7065C238.027 75.338 240.61 63.1482 239.068 51.1255Z" fill="#181D22"/>
<path d="M222.126 37.4611C217.45 29.7579 210.611 23.5965 202.458 19.7425C194.391 15.7946 185.175 14.8662 176.481 17.1258C147.195 23.8407 133.027 57.0922 147.458 80.9062C154.836 93.0797 175.04 105.07 196.417 100.762C205.346 98.9635 212.454 93.8359 218.382 86.8843C224.282 80.197 227.745 71.7146 228.209 62.8144C228.59 53.962 226.483 45.1797 222.126 37.4611ZM220.737 79.7326C215.949 87.5745 208.749 93.6598 200.213 97.0798C185.749 102.536 165.173 99.1039 152.216 83.4691C146.971 76.848 144.142 68.6398 144.195 60.1976C144.255 51.944 146.731 43.8882 151.318 37.0223C155.906 30.1565 162.404 24.7806 170.013 21.5569C177.443 18.5169 186.479 16.9488 194.331 19.0556C202.504 21.3993 209.855 25.9848 215.55 32.2912C226.675 44.7148 229.611 65.4849 220.737 79.7326Z" fill="#181D22"/>
<path d="M183.91 82.5606C183.063 82.5936 182.252 82.9139 181.611 83.4687C181.318 83.8007 181.121 84.2068 181.043 84.6427C180.965 85.0786 181.008 85.5276 181.168 85.9407C181.329 86.3537 181.599 86.7148 181.951 86.9847C182.303 87.2545 182.722 87.4226 183.163 87.4707C183.509 87.5793 183.875 87.6118 184.235 87.566C184.595 87.5202 184.94 87.3971 185.248 87.2053C185.556 87.0134 185.819 86.7573 186.019 86.4545C186.218 86.1517 186.35 85.8094 186.404 85.4511C186.459 85.0927 186.435 84.7268 186.335 84.3785C186.234 84.0302 186.06 83.7077 185.823 83.4331C185.586 83.1585 185.292 82.9384 184.962 82.7878C184.632 82.6371 184.273 82.5596 183.91 82.5606Z" fill="#57E697"/>
<path d="M366.541 202.331C366.541 192.99 361.998 37.1956 361.998 37.1956C362.028 37.0827 362.034 36.9646 362.014 36.8493C361.994 36.734 361.95 36.6243 361.884 36.5278C361.818 36.4313 361.732 36.3502 361.631 36.2901C361.531 36.23 361.418 36.1924 361.302 36.1797C357.77 35.5121 283.483 36.3413 268.09 38.2615C267.926 38.1602 267.739 38.1041 267.547 38.0989C267.354 38.0937 267.164 38.1397 266.995 38.2321C266.827 38.3246 266.686 38.4601 266.587 38.6248C266.488 38.7896 266.435 38.9776 266.433 39.1697C266.327 48.8842 265.729 92.4506 266.754 96.8124C266.794 96.9512 266.879 97.0733 266.994 97.1602C267.11 97.247 267.25 97.294 267.395 97.294C267.54 97.294 267.68 97.247 267.796 97.1602C267.912 97.0733 267.996 96.9512 268.036 96.8124C269.134 92.5353 268.999 49.4807 268.677 40.024C283.856 39.7027 356.653 38.6367 360.448 38.2615C359.913 49.7366 363.709 197.313 364.402 201.956C354.942 201.904 315.297 200.074 305.236 201.423C303.954 201.594 304.328 203.619 305.557 203.611C311.062 203.586 356.011 204.519 365.685 203.559C365.899 203.397 366.541 202.649 366.541 202.331Z" fill="#181D22"/>
<path d="M256.385 25.6126C256.375 25.3046 256.248 25.0119 256.029 24.7939C255.811 24.576 255.518 24.4491 255.21 24.439C248.793 24.5179 242.381 24.8661 235.969 24.8661C235.006 24.8661 235.056 26.2226 235.969 26.3592C241.967 27.0304 248.012 27.1733 254.034 26.7863C253.82 41.6246 253.204 108.664 254.248 116.88C254.404 118.108 256.221 118.162 256.225 116.88C256.252 108.607 256.331 40.8781 256.385 25.6126Z" fill="#181D22"/>
<path d="M244.84 257.198C236.018 256.755 128.538 256.292 120.307 256.611C120.469 249.086 115.444 42.9063 114.856 25.559C121.384 25.8462 127.924 25.632 134.418 24.9183C135.164 24.8009 135.006 23.4849 134.258 23.5849C130.84 24.0409 117.42 23.1039 114.536 23.6908C114.428 23.6072 114.299 23.5557 114.163 23.5419C114.027 23.5281 113.89 23.5527 113.767 23.6128C113.645 23.6729 113.541 23.7662 113.469 23.882C113.397 23.9978 113.359 24.1316 113.359 24.268C113.359 24.3218 117.702 248.382 118.384 257.079C118.389 257.22 118.425 257.359 118.489 257.485C118.554 257.611 118.646 257.721 118.758 257.808C118.87 257.894 119 257.955 119.139 257.986C119.277 258.016 119.421 258.016 119.559 257.985C119.613 258.039 239.817 259.587 244.894 259.212C245.139 259.174 245.361 259.049 245.519 258.859C245.677 258.669 245.761 258.428 245.755 258.181C245.748 257.934 245.651 257.698 245.483 257.517C245.315 257.336 245.086 257.223 244.84 257.198Z" fill="#181D22"/>
<path d="M102.77 202.758C102.234 158.505 100.311 45.4129 99.0278 33.2491C99.0627 33.1333 99.0736 33.0117 99.0599 32.8917C99.0462 32.7716 99.0082 32.6556 98.9482 32.5507C98.8882 32.4457 98.8074 32.3541 98.7108 32.2813C98.6142 32.2085 98.5038 32.1561 98.3862 32.1273C94.8699 31.4077 18.4068 31.7675 2.40133 33.4588C2.22586 33.4701 2.06144 33.5483 1.94204 33.6772C1.82264 33.8061 1.75738 33.9759 1.75972 34.1514C1.64555 34.0929 1.51856 34.0638 1.39026 34.0667C1.26196 34.0696 1.13643 34.1045 1.02504 34.1681C0.913659 34.2318 0.819951 34.3222 0.752422 34.4312C0.684894 34.5401 0.645684 34.6642 0.638349 34.7922C-0.232542 47.3235 1.15857 194.735 2.98898 205.052C3.01561 205.269 3.12482 205.468 3.29406 205.607C3.4633 205.747 3.67964 205.816 3.89841 205.8C3.95346 205.974 4.05902 206.128 4.20172 206.242C4.34442 206.356 4.51782 206.425 4.69994 206.441C8.9754 206.706 95.0838 204.596 101.6 204.946C101.76 204.953 101.919 204.917 102.059 204.842C102.2 204.767 102.318 204.654 102.401 204.518C102.483 204.381 102.527 204.224 102.527 204.064C102.528 203.905 102.485 203.748 102.403 203.611C102.535 203.514 102.637 203.383 102.702 203.234C102.766 203.084 102.789 202.92 102.77 202.758ZM5.02171 204.732C4.96776 195.445 2.13158 34.8999 2.13158 34.8999C6.43594 34.8999 94.0221 34.8441 97.2687 34.3227C97.2687 44.8896 100.159 190.748 100.421 202.82C100.371 202.864 13.0909 203.397 5.02171 204.732Z" fill="#181D22"/>
<path d="M137.41 156.91C148.372 156.75 199.947 157.083 202.403 156.483C202.583 156.431 202.74 156.322 202.852 156.173C202.964 156.024 203.024 155.842 203.024 155.656C203.024 155.469 202.964 155.288 202.852 155.139C202.74 154.99 202.583 154.881 202.403 154.828C200.114 154.103 148.364 154.88 137.41 155.469C136.501 155.509 136.503 156.924 137.41 156.91Z" fill="#181D22"/>
<path d="M190.804 139.19C188.509 138.543 146.177 139.243 137.304 139.724C137.09 132.146 137.836 98.5324 137.036 94.5708C136.984 94.3919 136.875 94.2347 136.726 94.1229C136.576 94.0111 136.395 93.9507 136.208 93.9507C136.021 93.9507 135.84 94.0111 135.69 94.1229C135.541 94.2347 135.432 94.3919 135.379 94.5708C134.358 98.4189 135.433 132.146 135.861 139.724C135.861 139.884 135.913 141.219 136.555 141.166C145.695 140.898 188.454 141.325 190.804 140.844C190.975 140.783 191.122 140.671 191.226 140.523C191.331 140.375 191.387 140.198 191.387 140.017C191.387 139.836 191.331 139.659 191.226 139.511C191.122 139.363 190.975 139.251 190.804 139.19Z" fill="#57E697"/>
<path d="M236.717 135.934C236.636 129.584 237.243 101.468 236.503 97.8799C236.451 97.7009 236.342 97.5438 236.192 97.432C236.043 97.3202 235.861 97.2598 235.675 97.2598C235.488 97.2598 235.306 97.3202 235.157 97.432C235.007 97.5438 234.898 97.7009 234.846 97.8799C233.883 101.457 234.9 129.582 235.274 135.934C235.33 136.846 236.728 136.896 236.717 135.934Z" fill="#57E697"/>
<path d="M137.41 173.83C148.848 174.532 198.072 174.913 203.259 174.631C204.38 174.569 204.81 172.693 203.525 172.495C198.669 171.745 149.009 171.854 137.41 172.441C137.235 172.454 137.071 172.533 136.951 172.662C136.831 172.791 136.765 172.96 136.765 173.136C136.765 173.311 136.831 173.481 136.951 173.609C137.071 173.738 137.235 173.817 137.41 173.83Z" fill="#181D22"/>
<path d="M137.732 195.659C149.443 195.445 205.022 195.44 207.962 195.126C208.977 195.016 209.349 193.533 208.23 193.258C205.711 192.638 149.656 193.525 137.732 194.326C137.561 194.335 137.4 194.409 137.282 194.533C137.165 194.657 137.099 194.821 137.099 194.992C137.099 195.163 137.165 195.327 137.282 195.451C137.4 195.575 137.561 195.65 137.732 195.659Z" fill="#181D22"/>
<path d="M137.732 216.581C155.265 216.527 238.214 217.809 242.221 216.741C242.401 216.688 242.558 216.58 242.67 216.43C242.782 216.281 242.842 216.1 242.842 215.913C242.842 215.727 242.782 215.546 242.67 215.396C242.558 215.247 242.401 215.138 242.221 215.086C238.15 214.278 155.277 214.821 137.732 215.248C137.561 215.257 137.4 215.331 137.282 215.455C137.165 215.579 137.099 215.743 137.099 215.914C137.099 216.085 137.165 216.25 137.282 216.374C137.4 216.498 137.561 216.572 137.732 216.581Z" fill="#181D22"/>
<path d="M139.122 237.024C156.451 237.397 238.053 238.192 242.276 237.611C243.451 237.449 243.024 235.848 242.008 235.743C237.841 235.31 156.225 235.689 139.12 235.689C139.032 235.689 138.945 235.706 138.864 235.74C138.783 235.774 138.709 235.823 138.647 235.885C138.585 235.947 138.536 236.021 138.503 236.102C138.469 236.183 138.452 236.27 138.452 236.357C138.452 236.445 138.47 236.532 138.503 236.613C138.537 236.694 138.586 236.767 138.649 236.829C138.711 236.891 138.785 236.94 138.866 236.974C138.947 237.007 139.034 237.024 139.122 237.024Z" fill="#181D22"/>
<path d="M65.6836 61.052C64.2328 60.8712 63.6644 63.0434 58.4159 62.8664C51.3023 62.6278 42.3044 57.6715 37.7843 64.575C36.7439 66.1924 36.2737 68.1102 36.4482 70.0246C36.6227 71.939 37.4319 73.7406 38.7476 75.1438C38.635 75.1787 38.5371 75.2499 38.4694 75.3464C38.4018 75.4429 38.3681 75.5591 38.3739 75.6768C38.3218 79.9482 38.3623 84.5447 40.8786 88.1658C41.9148 89.6295 43.3223 90.7915 44.9567 91.5327C46.5911 92.2738 48.3935 92.5674 50.179 92.3833C58.9477 91.6907 61.1346 83.9502 60.8687 74.6628C66.7395 70.7627 68.3098 61.3811 65.6836 61.052ZM58.0421 84.537C57.402 86.1842 56.3107 87.6184 54.893 88.6755C53.4753 89.7326 51.7883 90.3701 50.0249 90.5151C41.2621 91.5098 39.8131 82.4552 39.6012 75.8923C42.7553 78.1338 51.68 79.5749 59.0614 75.7326C58.7897 78.6648 59.1673 81.6029 58.0421 84.537Z" fill="#181D22"/>
<path d="M328.058 61.052C326.607 60.8712 326.039 63.0434 320.79 62.8664C313.677 62.6278 304.679 57.6715 300.159 64.575C299.118 66.1924 298.648 68.1102 298.823 70.0246C298.997 71.939 299.806 73.7406 301.122 75.1438C301.034 75.107 300.939 75.0925 300.844 75.1015C300.749 75.1106 300.658 75.1429 300.578 75.1957C300.499 75.2484 300.434 75.32 300.389 75.4039C300.344 75.4879 300.321 75.5816 300.321 75.6768C300.269 79.9482 300.309 84.5447 302.825 88.1658C303.862 89.6295 305.269 90.7915 306.903 91.5327C308.538 92.2738 310.34 92.5674 312.126 92.3833C320.896 91.6907 324.264 82.6688 322.869 74.9302C323.801 74.336 324.661 73.6376 325.434 72.8484C329.047 69.1196 330.586 61.3676 328.058 61.052ZM319.989 84.537C319.35 86.1853 318.259 87.6204 316.841 88.6777C315.423 89.7351 313.736 90.3719 311.972 90.5151C303.157 91.5117 301.629 82.3532 301.496 75.7306C301.503 75.6383 301.484 75.5458 301.442 75.4632C303.947 78.8265 316.139 80.2137 320.95 75.8903C321.061 78.8042 320.737 81.7184 319.989 84.537Z" fill="#181D22"/>
<path d="M323.355 94.4632C317.318 92.2249 310.684 92.1862 304.621 94.3541C298.558 96.522 293.457 100.757 290.215 106.313C289.783 107.058 290.91 107.701 291.392 107.006C292.828 104.905 294.555 103.019 296.523 101.403C307.265 106.954 313.465 126.649 313.519 127.236C308.388 127.395 303.251 127.528 298.126 127.876C297.997 127.884 297.875 127.941 297.787 128.035C297.698 128.13 297.649 128.254 297.649 128.383C297.649 128.513 297.698 128.637 297.787 128.731C297.875 128.826 297.997 128.882 298.126 128.89C312.029 129.129 326.021 128.677 339.923 128.463C340.181 128.468 340.432 128.378 340.629 128.211C340.825 128.043 340.954 127.81 340.99 127.555C341.121 127.453 341.227 127.324 341.301 127.176C341.375 127.028 341.415 126.866 341.418 126.701C342.222 112.988 332.141 97.8438 323.355 94.4632ZM326.883 99.5351C323.683 102.85 320.852 106.501 318.438 110.423C317.14 106.83 315.586 103.334 313.789 99.9622C314.898 98.3225 316.131 96.7698 317.476 95.3175C324.152 96.3315 325.707 98.4133 326.883 99.5351ZM297.808 100.441C300.777 98.2331 304.156 96.6366 307.748 95.7447C309.06 97.3843 310.588 98.8387 312.291 100.068C311.49 104.286 309.565 107.807 308.923 111.97C308.284 111.116 303.365 102.042 297.808 100.441ZM327.844 100.441C337.946 111.33 338.802 120.509 339.121 126.328C331.104 126.701 323.087 126.914 315.07 127.182C315.711 122.164 320.309 107.487 327.844 100.441Z" fill="#57E697"/>
<path d="M353.287 139.19C353.821 132.519 351.923 68.7387 351.95 54.4872C351.95 54.2736 351.523 53.3077 351.095 53.2596C339.245 51.934 285.248 54.2736 279.102 54.7008C278.674 54.7008 278.138 55.6628 278.138 55.8744C278.059 63.5091 277.986 97.2839 278.512 100.763C278.564 100.926 278.667 101.068 278.806 101.169C278.944 101.27 279.111 101.324 279.283 101.324C279.454 101.324 279.621 101.27 279.76 101.169C279.898 101.068 280.001 100.926 280.054 100.763C280.632 97.2281 280.214 63.8208 279.626 56.4093C285.077 57.102 338.045 55.1818 349.802 54.8085C349.91 68.9522 351.245 132.252 351.781 139.082C334.303 140.621 316.668 140.337 299.18 140.469C299.019 140.482 298.868 140.555 298.758 140.674C298.648 140.792 298.587 140.948 298.587 141.11C298.587 141.272 298.648 141.428 298.758 141.547C298.868 141.665 299.019 141.738 299.18 141.751C316.978 141.697 334.883 142.232 352.681 140.843C352.857 140.813 353.022 140.737 353.16 140.623C353.298 140.508 353.402 140.36 353.464 140.192C353.526 140.024 353.542 139.843 353.511 139.667C353.48 139.491 353.403 139.327 353.287 139.19Z" fill="#57E697"/>
<path d="M303.313 157.497C311.806 157.826 349.555 158.388 353.393 157.656C354.464 157.464 354.14 155.902 353.125 155.842C348.956 155.6 311.507 155.371 303.259 156.056C303.078 156.077 302.912 156.166 302.794 156.304C302.676 156.442 302.614 156.619 302.621 156.801C302.627 156.983 302.702 157.155 302.831 157.284C302.959 157.413 303.131 157.489 303.313 157.497Z" fill="#181D22"/>
<path d="M302.725 169.94C311.601 170.681 351.472 172.01 355.156 170.579C355.851 170.312 356.067 169.134 355.156 168.926C353.229 168.486 311.596 168.818 302.725 168.872C302.029 168.813 302.029 169.875 302.725 169.94Z" fill="#181D22"/>
<path d="M306.305 184.771C314.644 184.851 348.096 185.836 356.385 185.092C357.668 184.976 357.722 182.989 356.385 183.01C348.044 183.143 314.625 182.492 306.305 183.329C305.448 183.408 305.398 184.755 306.305 184.771Z" fill="#181D22"/>
<path d="M14.4272 157.497C27.2536 158.47 88.2564 157.86 90.4298 156.919C90.5727 156.835 90.6874 156.71 90.7595 156.56C90.8316 156.411 90.8579 156.243 90.8351 156.079C90.8122 155.915 90.7413 155.76 90.6311 155.636C90.521 155.512 90.3765 155.423 90.2159 155.38C87.8652 154.842 27.1476 156.5 14.4272 156.446C14.3049 156.47 14.1946 156.535 14.1153 156.631C14.0361 156.727 13.9927 156.847 13.9927 156.971C13.9927 157.096 14.0361 157.216 14.1153 157.312C14.1946 157.408 14.3049 157.473 14.4272 157.497Z" fill="#181D22"/>
<path d="M15.015 173.509C27.5216 173.509 84.5553 174.891 90.0022 174.256C91.2854 174.107 91.3374 172.164 90.0022 172.176C77.4937 172.282 27.5216 171.375 15.015 172.122C14.1595 172.228 14.1056 173.509 15.015 173.509Z" fill="#181D22"/>
<path d="M15.015 188.453C27.5216 188.453 84.5033 188.609 90.0022 187.974C91.2854 187.824 91.3374 185.881 90.0022 185.892C77.4937 185.998 27.5216 186.319 15.015 187.066C14.1595 187.174 14.1056 188.453 15.015 188.453Z" fill="#181D22"/>
<path d="M89.5208 50.5908C89.5211 50.481 89.4987 50.3723 89.4551 50.2715C89.4115 50.1707 89.3476 50.08 89.2673 50.0049C89.1871 49.9298 89.0922 49.872 88.9887 49.8351C88.8851 49.7982 88.775 49.783 88.6653 49.7904C88.5594 49.7904 24.3119 50.9641 11.5414 51.6586C11.4421 51.6629 11.3448 51.6873 11.2553 51.7304C11.1658 51.7735 11.0861 51.8343 11.021 51.9093C10.9559 51.9842 10.9068 52.0716 10.8767 52.1661C10.8465 52.2607 10.8361 52.3603 10.8458 52.4591C10.7919 52.5668 11.4239 126.674 12.9845 141.325C12.9926 141.498 13.0614 141.662 13.1787 141.789C13.2961 141.916 13.4545 141.998 13.6261 142.02C13.71 142.119 13.8175 142.195 13.9388 142.242C14.0601 142.288 14.1911 142.303 14.3198 142.285C26.8803 141.752 88.7193 141.699 88.8272 141.645C89.0465 141.665 89.265 141.598 89.435 141.458C89.605 141.318 89.7127 141.117 89.7347 140.898C90.199 137.366 89.6557 61.0019 89.5208 50.5908ZM14.4816 140.365C14.3198 125.954 13.892 67.7245 12.9402 53.0998C25.2868 53.1536 75.313 52.4052 87.8735 51.8183C87.1798 77.1716 87.3397 136.255 88.0873 140.044C76.1588 139.671 27.0479 139.83 14.4816 140.365Z" fill="#57E697"/>
<path d="M74.9296 123.762C73.444 117.29 75.3458 110.804 68.0896 101.986C65.9063 99.233 63.116 97.0205 59.9362 95.5207C56.7563 94.021 53.2727 93.2745 49.7566 93.3393C33.5083 93.9627 21.9093 110.525 23.4063 126.048C23.4063 126.156 23.6221 126.949 24.048 127.01C31.6066 128.097 62.9683 128.315 70.4402 126.903C71.5115 126.701 71.1897 125.077 70.1724 125.034C66.3806 124.882 54.5657 125.783 52.4829 125.835C53.9781 121.192 55.0474 112.599 63.3325 100.589C73.5943 110.304 71.3805 120.903 72.8448 124.288C73.4055 125.592 75.2494 125.154 74.9296 123.762ZM37.7298 99.5348C40.2824 97.8596 43.1306 96.6843 46.1227 96.0715C46.7689 97.9612 47.7861 99.7031 49.115 101.195C48.4734 103.596 47.8857 106.906 47.2441 109.094C45.1577 104.988 41.8286 101.643 37.7298 99.5348ZM24.7358 125.527C25.5373 118.054 28.3157 107.273 36.4408 100.441C49.9627 112.13 50.7643 125.839 50.7643 125.9C49.5909 125.954 32.2251 125.313 24.7358 125.527ZM55.0474 110.102C53.2804 107.146 51.9146 103.969 50.9858 100.655C51.6753 99.105 52.1604 97.4726 52.429 95.7983C56.0186 96.2465 59.4279 97.6264 62.3171 99.8003C59.9106 103.269 56.8104 106.205 55.0474 110.102Z" fill="#57E697"/>
<path d="M199.73 39.0096C195.665 28.156 179.34 28.4523 173.702 36.3929C172.419 37.7282 171.033 44.0776 171.295 45.1473C171.681 46.6866 175.372 47.5562 175.947 46.3749C176.6 44.6016 177.367 42.8722 178.243 41.1972C182.172 35.1769 190.357 35.4982 193.476 39.9697C195.74 43.2137 194.492 46.3749 192.195 49.2571C189.141 52.3048 185.467 54.4944 182.199 59.7701C178.993 64.9478 176.972 72.6036 180.008 78.2911C181.01 80.167 185.727 79.4648 185.245 76.85C184.392 72.2072 183.445 67.5202 185.887 63.1892C187.717 59.9395 190.991 57.7768 193.798 55.4506C198.815 51.287 202.231 45.6841 199.73 39.0096Z" fill="#57E697"/>
<path d="M297.808 150.399C284.232 140.084 298.025 131.917 293.692 120.723C292.911 118.473 291.692 116.399 290.105 114.622C288.518 112.845 286.593 111.4 284.444 110.369C281.768 109.255 279.153 108.607 277.122 106.365C275.801 104.539 274.195 102.935 272.365 101.617C271.072 100.872 269.597 100.502 268.105 100.549C266.613 100.596 265.163 101.058 263.92 101.882C260.367 104.601 259.781 111.66 264.082 116.24C263.974 116.294 259.689 123.491 257.4 126.809C254.716 130.697 258.683 131.878 258.789 131.932C257.602 140.421 262.016 145.029 267.448 145.276C267.822 147.836 267.854 150.455 268.197 153.014C268.298 153.763 269.546 154.138 269.693 153.228C269.993 150.557 269.757 147.854 268.999 145.276C270.717 145.156 272.349 144.481 273.648 143.352C274.29 147.025 276.294 150.323 279.261 152.587C283.636 155.906 294.546 157.178 298.336 152.32C298.661 151.787 297.968 150.507 297.808 150.399ZM275.791 130.01C275.587 129.908 275.356 129.871 275.13 129.905C274.905 129.94 274.695 130.043 274.531 130.201C274.367 130.359 274.256 130.565 274.213 130.788C274.171 131.012 274.199 131.244 274.294 131.451C273.363 134.509 272.983 137.708 273.17 140.898C272.092 142.197 270.586 143.071 268.922 143.364C267.258 143.657 265.544 143.351 264.086 142.499C263.155 141.985 262.354 141.266 261.743 140.397C261.131 139.528 260.726 138.532 260.558 137.483C261.514 137.698 262.513 137.607 263.414 137.224C264.315 136.84 265.073 136.184 265.581 135.347C265.651 135.212 265.672 135.056 265.639 134.907C265.607 134.757 265.524 134.624 265.403 134.529C265.283 134.435 265.134 134.385 264.981 134.388C264.828 134.391 264.681 134.447 264.566 134.547C264.045 135.148 263.378 135.605 262.629 135.874C261.88 136.144 261.075 136.217 260.29 136.086C260.076 134.485 260.13 132.779 260.022 131.124C260.022 130.803 259.223 130.695 258.313 129.585C257.62 128.731 264.727 116.99 264.727 116.99C265.864 117.83 267.166 118.421 268.548 118.725C269.929 119.028 271.359 119.037 272.745 118.751C274.07 120.088 274.945 121.804 275.249 123.661C275.323 123.913 275.493 124.127 275.723 124.257C275.952 124.387 276.223 124.422 276.479 124.355C281.719 122.272 280.284 132.396 275.791 130.01Z" fill="#181D22"/>
<path d="M311.758 327.169C311.65 323.114 301.492 269.869 297.167 226.455C297.103 225.816 296.041 225.974 296.043 226.615C296.097 243.481 308.604 322.313 309.513 326.209C308.23 330.319 302.77 328.824 298.876 327.437C296.043 317.99 280.918 273.796 279.315 269.207C279.421 268.78 283.986 251.675 286.957 243.748C287.396 242.578 285.284 241.714 284.926 242.894C278.211 265.007 260.982 321.567 257.081 328.451C257.027 328.451 249.169 331.974 246.445 326.69C248.048 318.096 259.664 241.861 261.462 224.908C261.558 223.998 260.185 224.054 260.073 224.908C257.847 242.103 244.659 317.984 244.466 326.477C244.462 326.734 244.558 326.982 244.734 327.169C243.451 327.704 223.942 332.293 223.942 337.098C223.941 337.352 224.025 337.6 224.179 337.803C224.334 338.005 224.552 338.151 224.798 338.217C235.314 339.672 245.946 340.101 256.545 339.499C256.973 339.445 260.976 331.066 258.472 329.686C264.19 317.089 276.645 278.554 278.408 272.311C279.583 275.94 293.159 317.357 295.991 326.057C295.885 326.057 275.705 330.157 277.232 334.383C277.83 336.034 279.531 336.307 281.134 336.518C284.182 336.934 302.521 337.452 308.606 337.371C309.328 337.245 309.998 336.911 310.532 336.409C312.351 333.598 312.665 327.97 311.758 327.169Z" fill="#181D22"/>
</g>
<defs>
<clipPath id="clip0_187_9672">
<rect width="367" height="339" fill="white"/>
</clipPath>
</defs>
</svg>
