<svg width="20" height="20" viewBox="0 0 20 20" fill="none" xmlns="http://www.w3.org/2000/svg">
<path d="M16.2222 2H3.77778C2.79594 2 2 2.79594 2 3.77778V16.2222C2 17.2041 2.79594 18 3.77778 18H16.2222C17.2041 18 18 17.2041 18 16.2222V3.77778C18 2.79594 17.2041 2 16.2222 2Z" stroke="white" stroke-width="2" stroke-linecap="round" stroke-linejoin="round"/>
<path d="M10.2004 11.6898C9.9603 11.6898 9.77101 11.6113 9.6325 11.4543C9.494 11.2973 9.42475 11.0896 9.42475 10.831C9.42475 10.5817 9.45245 10.3509 9.50785 10.1385C9.57248 9.9169 9.66944 9.69991 9.79871 9.48753C9.93721 9.26593 10.1173 9.04432 10.3389 8.82271C10.4866 8.66574 10.602 8.52724 10.6851 8.4072C10.7775 8.28717 10.8421 8.17636 10.879 8.07479C10.916 7.96399 10.9344 7.85319 10.9344 7.74238C10.9344 7.53001 10.856 7.36842 10.699 7.25762C10.542 7.14681 10.3158 7.09141 10.0203 7.09141C9.72484 7.09141 9.44783 7.12373 9.18929 7.18837C8.93075 7.253 8.68144 7.34995 8.44137 7.47922C8.16436 7.62696 7.91967 7.67775 7.70729 7.63158C7.49492 7.57618 7.32872 7.46537 7.20868 7.29917C7.08864 7.13296 7.01939 6.93906 7.00092 6.71745C6.99169 6.49584 7.05171 6.27885 7.18098 6.06648C7.31948 5.85411 7.53186 5.67867 7.8181 5.54017C8.19668 5.35549 8.59834 5.22161 9.02308 5.1385C9.44783 5.04617 9.84488 5 10.2142 5C10.8513 5 11.41 5.10157 11.8901 5.30471C12.3795 5.50785 12.7581 5.79409 13.0259 6.16343C13.2936 6.52355 13.4275 6.94829 13.4275 7.43767C13.4275 7.71468 13.386 7.97784 13.3029 8.22715C13.2198 8.47645 13.0859 8.72114 12.9012 8.96122C12.7165 9.19206 12.458 9.42752 12.1256 9.66759C11.8393 9.87996 11.6177 10.0693 11.4608 10.2355C11.3038 10.3924 11.1884 10.5448 11.1145 10.6925C11.0499 10.8403 10.9991 11.0018 10.9621 11.1773C10.9252 11.325 10.8467 11.4497 10.7267 11.5512C10.6066 11.6436 10.4312 11.6898 10.2004 11.6898ZM10.1588 15C9.73407 15 9.39705 14.8753 9.14774 14.626C8.90766 14.3767 8.78763 14.0489 8.78763 13.6427C8.78763 13.2456 8.90766 12.9271 9.14774 12.687C9.39705 12.4377 9.73407 12.313 10.1588 12.313C10.5836 12.313 10.916 12.4377 11.156 12.687C11.3961 12.9271 11.5162 13.2456 11.5162 13.6427C11.5162 14.0489 11.3961 14.3767 11.156 14.626C10.916 14.8753 10.5836 15 10.1588 15Z" fill="white"/>
</svg>
