<svg width="16" height="18" viewBox="0 0 16 18" fill="none" xmlns="http://www.w3.org/2000/svg">
<path d="M0.370652 12.4465L1.20399 13.8882C1.64649 14.6523 2.71149 14.939 3.47899 14.4965L3.91982 14.2415C4.40193 14.6207 4.93349 14.9325 5.49982 15.1682V15.6665C5.49982 16.5857 6.24732 17.3332 7.16649 17.3332H8.83315C9.75232 17.3332 10.4998 16.5857 10.4998 15.6665V15.1682C11.0659 14.9325 11.5975 14.621 12.0798 14.2423L12.5207 14.4973C13.2898 14.939 14.3523 14.654 14.7965 13.8882L15.629 12.4473C15.8498 12.0646 15.9097 11.6098 15.7955 11.183C15.6813 10.7561 15.4023 10.392 15.0198 10.1707L14.599 9.92734C14.6885 9.3128 14.6885 8.68854 14.599 8.074L15.0198 7.83067C15.4021 7.6092 15.681 7.24511 15.7952 6.8183C15.9094 6.39149 15.8496 5.9368 15.629 5.554L14.7965 4.11317C14.354 3.3465 13.2898 3.059 12.5207 3.50317L12.0798 3.75817C11.5977 3.37893 11.0661 3.06717 10.4998 2.8315V2.33317C10.4998 1.414 9.75232 0.666504 8.83315 0.666504H7.16649C6.24732 0.666504 5.49982 1.414 5.49982 2.33317V2.8315C4.93369 3.0672 4.40217 3.37866 3.91982 3.75734L3.47899 3.50234C2.70899 3.05984 1.64565 3.3465 1.20315 4.11234L0.370652 5.55317C0.149804 5.93592 0.0899116 6.39068 0.204131 6.81756C0.318351 7.24443 0.597341 7.60852 0.979819 7.82984L1.40065 8.07317C1.31085 8.6874 1.31085 9.31144 1.40065 9.92567L0.979819 10.169C0.597453 10.3906 0.318593 10.7549 0.204396 11.1818C0.0901996 11.6088 0.149989 12.0636 0.370652 12.4465ZM3.14232 10.1482C3.04822 9.77263 3.00037 9.38699 2.99982 8.99984C2.99982 8.61484 3.04815 8.22817 3.14149 7.8515C3.18544 7.67594 3.17098 7.49084 3.10031 7.32423C3.02963 7.15763 2.90659 7.01859 2.74982 6.92817L1.81399 6.3865L2.64565 4.94567L3.59982 5.49734C3.75542 5.58738 3.93604 5.62452 4.11454 5.60318C4.29305 5.58184 4.45982 5.50318 4.58982 5.379C5.15359 4.8428 5.83343 4.44385 6.57649 4.21317C6.74717 4.16106 6.89662 4.05553 7.00283 3.91211C7.10905 3.76869 7.16641 3.59497 7.16649 3.4165V2.33317H8.83315V3.4165C8.83323 3.59497 8.89059 3.76869 8.99681 3.91211C9.10302 4.05553 9.25247 4.16106 9.42315 4.21317C10.1661 4.44418 10.8458 4.84309 11.4098 5.379C11.54 5.50294 11.7067 5.58144 11.8851 5.60277C12.0636 5.6241 12.2441 5.58711 12.3998 5.49734L13.3532 4.9465L14.1865 6.38734L13.2498 6.92817C13.0931 7.01869 12.9702 7.15774 12.8995 7.32432C12.8289 7.49089 12.8143 7.67594 12.8582 7.8515C12.9515 8.22817 12.9998 8.61484 12.9998 8.99984C12.9998 9.384 12.9515 9.77067 12.8573 10.1482C12.8136 10.3238 12.8282 10.5089 12.899 10.6755C12.9699 10.8421 13.093 10.9811 13.2498 11.0715L14.1857 11.6123L13.354 13.0532L12.3998 12.5023C12.2443 12.4122 12.0636 12.3749 11.8851 12.3963C11.7065 12.4176 11.5397 12.4964 11.4098 12.6207C10.8461 13.1569 10.1662 13.5558 9.42315 13.7865C9.25247 13.8386 9.10302 13.9441 8.99681 14.0876C8.89059 14.231 8.83323 14.4047 8.83315 14.5832L8.83482 15.6665H7.16649V14.5832C7.16641 14.4047 7.10905 14.231 7.00283 14.0876C6.89662 13.9441 6.74717 13.8386 6.57649 13.7865C5.83357 13.5555 5.1538 13.1566 4.58982 12.6207C4.46007 12.496 4.2932 12.4171 4.11452 12.3959C3.93585 12.3747 3.75514 12.4123 3.59982 12.5032L2.64649 13.0548L1.81315 11.614L2.74982 11.0715C2.90665 10.9811 3.02978 10.8421 3.10059 10.6755C3.17141 10.5089 3.18605 10.3238 3.14232 10.1482Z" fill="white"/>
</svg>
