<svg width="414" height="438" fill="none" xmlns="http://www.w3.org/2000/svg"><path d="M344.752 170.557c-6.961 15.603-4.081 35.768 8.642 47.29 6.961 6.242 16.083 9.602 23.525 15.363 7.441 5.762 13.203 15.604 9.602 24.246-.96 2.16-2.401 4.08-2.881 6.481-1.2 6.241 4.801 11.282 9.122 15.843 9.842 10.323 12.243 28.806 1.681 38.649-8.162 7.681-20.885 7.681-32.167 6.721-15.123-1.2-30.967-3.601-43.93-11.522-12.962-7.922-22.084-20.885-27.365-35.048-5.282-14.163-6.722-29.526-6.482-44.649.24-17.284 2.881-35.528 13.203-49.691 10.322-14.163 30.006-22.325 47.05-13.683z" fill="#D1BAFF"/><path d="M371.158 326.59c8.882 0 17.764-1.44 24.005-7.442 4.561-4.08 6.961-10.082 7.202-16.803.24-8.402-3.121-17.284-8.882-23.525l-1.921-1.921c-3.841-3.84-7.921-7.921-6.961-12.722.24-1.201.96-2.641 1.68-3.841.48-.72.72-1.681 1.2-2.401 3.841-9.362-2.64-19.684-10.082-25.445-3.361-2.641-6.961-4.561-10.562-6.721-4.321-2.401-8.882-5.042-12.723-8.402-12.002-10.803-15.363-30.007-8.402-46.09.241-.48 0-1.2-.48-1.44-18.003-9.362-38.408.24-48.25 13.923-8.882 12.002-13.203 28.086-13.443 50.17-.24 17.764 1.921 32.407 6.482 44.89 5.761 15.603 15.603 28.326 27.846 35.767 13.202 8.162 29.286 10.323 44.409 11.763 2.881 0 5.761.24 8.882.24zm-28.086-155.313c-6.962 16.563-3.121 36.488 9.362 47.77 3.841 3.601 8.642 6.241 13.203 8.882 3.6 1.92 7.201 4.081 10.322 6.481 6.961 5.281 12.723 14.643 9.362 22.805-.24.72-.72 1.441-1.2 2.161-.721 1.44-1.441 2.88-1.921 4.561-1.2 6.001 3.361 10.802 7.682 14.883l1.92 1.92c5.281 5.521 8.402 13.923 8.162 21.845-.24 6.241-2.401 11.522-6.481 15.123-7.682 7.202-19.685 7.442-31.207 6.481-14.883-1.2-30.727-3.6-43.449-11.282-11.763-7.202-21.365-19.444-26.886-34.567-4.561-12.243-6.721-26.886-6.481-44.17.24-21.604 4.321-37.208 12.962-48.97 9.602-12.963 28.086-21.845 44.65-13.923z" fill="#000"/><path d="M274.418 98.54c-4.801 24.486-10.562 50.411-28.566 67.695-5.761 5.521-12.723 9.842-18.244 15.843-6.481 7.202-10.322 16.084-13.203 25.446-5.521 17.283-7.681 36.488-.96 53.531 6.721 16.804 24.245 30.247 42.249 28.086 15.843-2.16 28.326-15.603 33.607-30.486 5.281-14.884 4.801-31.447 3.841-47.29-2.881-38.649-8.642-76.577-18.724-112.825z" fill="#D1BAFF"/><path d="M251.373 290.342c1.441 0 2.881 0 4.081-.24 14.883-1.921 28.566-14.163 34.568-31.207 5.521-15.363 5.041-32.167 3.84-47.77-2.88-40.569-9.122-78.497-18.484-112.584-.24-.48-.72-.96-1.2-.96s-.96.48-1.2.96c-5.281 27.126-11.282 50.651-28.326 66.974-2.401 2.401-5.041 4.561-7.682 6.481-3.601 2.881-7.441 6.002-10.562 9.602-5.521 6.242-9.842 14.404-13.443 25.686-6.721 20.884-6.961 39.128-.96 54.252 6.961 17.043 23.285 28.806 39.368 28.806zm23.045-186.76c8.882 32.887 14.643 68.895 17.284 107.543.96 15.363 1.68 31.687-3.841 46.81-5.761 16.323-18.724 27.846-32.647 29.766-16.323 2.161-33.847-9.602-40.809-27.366-5.761-14.643-5.521-32.407.961-52.571 3.6-11.042 7.681-18.964 12.962-24.965 3.121-3.361 6.722-6.482 10.323-9.122 2.64-2.161 5.281-4.321 7.921-6.722 16.564-15.603 22.805-37.928 27.846-63.373z" fill="#000"/><path d="M266.016 234.89c4.321-12.243 6.962-24.965 9.843-39.609 5.761-.96 11.762-1.2 17.523-.24 2.641.241 5.521.961 6.962 3.121.96 1.2 1.2 2.881 1.2 4.561 1.2 10.802 2.4 21.365 3.601 32.167 0 .72.24 1.68 0 2.4-.48 1.201-1.441 1.921-2.641 2.401-11.282 6.241-26.886 4.561-36.488-4.801z" fill="#fff"/><path d="M287.621 244.492c5.281 0 10.562-1.2 15.363-4.081 1.2-.72 2.64-1.68 3.121-3.121.48-.96.24-2.16.24-3.12l-3.601-32.167c-.24-1.44-.48-3.361-1.44-5.041-1.681-2.641-5.041-3.361-7.682-3.601-6.001-.72-12.003-.72-18.004.24-.48 0-.96.48-.96.96-2.881 14.883-5.761 27.366-9.842 39.369-.24.48 0 .96.24 1.2 6.001 6.481 14.163 9.362 22.565 9.362zm-1.921-48.971c2.641 0 5.041.24 7.682.481 2.16.24 4.801.96 6.001 2.64.72 1.2.96 2.641.96 3.841l3.601 32.167c0 .72.24 1.44 0 1.92-.24.72-1.2 1.44-2.16 1.921-10.803 6.001-25.446 4.321-34.568-4.081 3.841-11.763 6.722-23.765 9.602-38.168a53.256 53.256 0 018.882-.721z" fill="#000"/><path d="M266.736 101.903c-3.121 11.762-5.761 24.245-13.443 34.087-4.081 5.281-16.803 36.008 4.081 54.972 11.043 10.082 26.166 15.363 42.969 12.722 11.283-1.68 29.527-14.163 34.328-31.926 6.721 5.281 16.083 3.36 18.964-3.361 1.68-3.841-.48-10.562-5.041-12.243-3.601-1.2-4.081-1.44-7.442-.48 1.44-8.642 3.841-17.284 7.682-26.165-4.561-12.963-16.084-23.526-29.047-31.207-4.32-2.64-8.641-5.041-13.442-6.242-13.443-3.84-36.248-2.16-39.609 9.843z" fill="#fff"/><path d="M292.181 205.604c2.881 0 5.521-.24 8.402-.72 11.282-1.68 29.046-13.443 34.807-31.207 3.361 2.161 7.442 2.881 11.283 1.921 3.841-.96 6.721-3.361 8.162-6.722.96-2.16.96-5.281-.24-8.161-1.201-2.641-3.121-4.801-5.522-5.521-3.12-1.201-4.08-1.441-6.481-.961 1.68-8.882 4.081-16.563 7.442-24.245.24-.24.24-.48 0-.96-5.282-14.643-18.964-25.445-29.527-31.927-3.6-2.16-8.401-4.8-13.683-6.481-9.842-2.64-25.205-2.88-34.087 2.16-3.841 2.16-6.001 5.041-6.961 8.402-.48 1.44-.721 2.881-1.201 4.321-2.64 10.322-5.521 20.884-12.002 29.286-5.041 6.482-16.804 37.448 4.321 56.652 9.602 9.602 22.084 14.163 35.287 14.163zm42.729-34.807h-.48c-.48.24-.72.48-.72.72-4.801 17.524-22.805 29.526-33.367 30.967-15.603 2.4-30.487-2.161-42.009-12.483-21.124-19.204-6.721-49.931-3.841-53.531 6.722-8.882 9.602-19.685 12.483-30.247.48-1.44.72-2.88 1.2-4.321.72-2.88 2.641-5.04 6.001-6.961 8.402-4.801 23.045-4.561 32.407-1.92 5.041 1.44 9.602 4.08 13.203 6.24 10.082 6.242 23.285 16.324 28.326 30.247-3.601 8.162-6.001 16.564-7.681 26.166 0 .48 0 .72.48.96.24.24.72.48 1.2.24 3.121-.72 3.361-.72 6.721.48 1.681.72 3.121 2.16 4.081 4.321.96 2.16 1.2 4.561.48 6.241-1.2 2.641-3.6 4.561-6.481 5.281-3.601.961-7.682 0-10.562-2.4h-1.441z" fill="#000"/><path d="M147.909 187.6c.24-1.2-.48-2.16-1.44-2.881-.96-.72-1.92-.96-3.121-1.2-12.962-3.361-26.645-4.081-39.848-2.64-1.2.24-2.881.72-2.881 1.92 0 .48.48 1.2.72 1.68 2.401 2.881 6.242 4.321 9.843 5.282 10.322 3.12 21.364 4.08 31.926 1.2 1.441-.72 4.321-1.201 4.801-3.361z" fill="#fff"/><path d="M309.225 168.155c7.921 0 15.363-5.761 17.763-14.403 1.441-5.041.961-10.082-1.2-14.403-2.16-4.321-6.001-7.441-10.322-8.882-4.561-1.2-9.362-.48-13.443 2.161-4.081 2.64-7.201 6.721-8.402 11.762-2.88 10.323 2.401 20.645 11.763 23.285.96.24 2.4.48 3.841.48zm1.68-35.767c1.2 0 2.401.24 3.601.48 3.841.96 6.961 3.841 8.882 7.442 1.92 3.84 2.4 8.401 1.2 12.722-2.401 8.882-11.042 14.403-18.964 12.243-7.922-2.161-12.483-11.283-10.082-20.405 1.2-4.32 3.841-8.161 7.441-10.322 2.641-1.44 5.281-2.16 7.922-2.16zm-46.81 19.205c3.12 0 6.241-.96 9.122-2.641 4.081-2.64 7.201-6.721 8.401-11.762 2.881-10.322-2.4-20.645-11.762-23.285-9.362-2.641-19.204 3.601-22.085 13.923-1.44 5.041-.96 10.082 1.201 14.403 2.16 4.321 6.001 7.442 10.322 8.882 1.92.24 3.36.48 4.801.48zm1.68-36.008c1.2 0 2.401.24 3.601.48 7.922 2.161 12.483 11.283 10.082 20.405-1.2 4.321-3.841 8.161-7.442 10.322-3.6 2.4-7.681 2.881-11.522 1.92-3.841-.96-6.961-3.841-8.882-7.441-1.92-3.841-2.4-8.402-1.2-12.723 1.92-7.682 8.402-12.963 15.363-12.963z" fill="#000"/><path d="M107.821 157.834a33538.5 33538.5 0 005.761-6.482c3.361-3.84 6.722-7.681 9.843-11.522.24 0 .72 0 .96.24 1.92-1.68 5.281-2.4 8.161-1.92 1.441 1.68 3.361 3.12 5.282 4.561.72.48 1.44 1.2 2.16 1.44.48.24.96.48 1.44.96.24.24.24.24.48.24.241 0 .241.24.481.24 1.68.96 3.12 2.161 4.801 3.361.48.24.96.48 1.2.24v.48c.48 1.44 1.2 7.442-2.641 15.843-3.6 8.162-5.041 17.524-5.281 25.686-7.681 2.4-13.443-.24-21.604-1.68-3.121-.48-6.242-1.201-8.642-2.161-2.401-8.642-4.081-17.524-5.521-26.405l3.12-3.121z" fill="#fff"/><path d="M357.477 100.702c-16.97 0-30.727-13.757-30.727-30.726 0-16.97 13.757-30.727 30.727-30.727 16.969 0 30.726 13.757 30.726 30.727s-13.757 30.726-30.726 30.726z" fill="#D1BAFF"/><path d="M357.475 101.662c7.202 0 14.164-2.4 19.925-7.202 6.481-5.281 10.802-12.963 11.522-21.364 1.921-17.524-11.042-33.128-28.326-35.048-8.402-.96-16.803 1.68-23.285 6.962-6.481 5.28-10.802 12.962-11.522 21.364-.96 8.402 1.68 16.804 6.961 23.285 5.281 6.481 12.963 10.802 21.365 11.523 1.2.48 2.4.48 3.36.48zm0-61.213c.961 0 2.161 0 3.121.24 16.084 1.68 27.846 16.083 26.166 32.407-.72 7.921-4.561 14.883-10.803 19.924-6.001 5.04-13.683 7.201-21.604 6.481-7.922-.72-14.883-4.56-19.924-10.802-5.041-6.001-7.202-13.683-6.482-21.605.72-7.921 4.561-14.883 10.802-19.924 5.522-4.32 12.003-6.721 18.724-6.721z" fill="#000"/><path d="M339.711 156.634c-2.401-14.163-3.601-24.005-.24-38.648-33.127 4.561-57.132-8.642-82.098-20.405 1.201-4.56 4.081-8.642 7.442-12.002 8.642-8.162 17.764-14.643 36.008-14.883 12.722-.24 28.566 2.64 39.368 9.121 10.802 6.482 18.244 17.044 23.045 27.846 3.841 8.642 5.281 20.645 3.121 31.207-1.921 8.882-6.482 14.163-13.683 21.124-1.681-1.92-3.121-3.84-5.762-4.56-2.4-.481-4.32.24-7.201 1.2z" fill="#D1BAFF"/><path d="M352.914 161.435c.24 0 .48 0 .72-.24 6.721-6.482 12.002-12.003 13.923-21.605 2.16-10.562.96-22.805-3.121-31.927-5.761-12.963-13.683-22.565-23.525-28.326-12.003-7.201-28.566-9.602-40.089-9.362-17.523.48-27.125 6.001-36.727 15.363-3.841 3.601-6.722 7.922-7.922 12.483-.24.48 0 1.2.72 1.44 2.16.961 4.321 1.921 6.241 2.881 22.085 10.562 44.89 21.365 74.656 17.764-3.12 14.403-1.68 24.725.48 37.448 0 .24.24.72.48.72.241.24.721.24.961 0 2.88-.96 4.561-1.44 6.721-.96 2.161.48 3.361 1.92 4.801 3.841l.24.24c.72 0 .96 0 1.441.24 0 0 0-.24 0 0zm-50.411-89.54c11.042 0 26.165 2.401 37.208 9.123 9.362 5.52 17.043 14.883 22.564 27.365 3.841 8.642 5.042 20.645 3.121 30.487-1.68 7.922-5.281 12.723-12.482 19.684-1.441-1.68-3.121-3.361-5.522-3.841-2.4-.48-4.561-.24-6.721.48-2.161-12.242-3.361-22.324 0-36.728 0-.48 0-.72-.24-.96s-.72-.48-.96-.48c-30.007 4.081-52.812-6.721-75.136-17.284-1.921-.96-3.601-1.68-5.522-2.64 1.201-3.6 3.601-7.202 6.962-10.322 7.442-7.202 16.563-14.163 35.047-14.643.721-.24 1.201-.24 1.681-.24z" fill="#000"/><path d="M138.31 151.112c.24-3.36-.72-6.721-2.881-9.602-1.2-1.68-2.88-3.12-3.841-5.041-.96-1.92-.96-4.561.721-5.761 1.2-.72 2.64-.72 3.84-.48 3.361.72 6.242 3.121 8.642 5.761 1.441 1.681 3.121 3.121 3.841 5.281.72 1.681 1.2 3.841 1.44 5.762 0 1.2.24 2.4-.24 3.6-.72 1.441-2.16 2.401-3.6 3.361-1.681.72-3.361 1.44-5.041 1.2-1.921-.72-3.121-2.4-2.881-4.081z" fill="#fff"/><path d="M288.82 187.12c3.36 0 5.761-2.641 8.161-5.281.721-.96 1.681-1.68 2.401-2.401.24-.24.48-.72.24-1.2s-.48-.72-.96-.72c-6.482-.72-15.604-.72-21.605.24-.48 0-.72.24-.96.72-.24.24-.24.72 0 1.2 1.92 2.881 9.122 7.442 12.723 7.442zm7.201-7.682l-.72.721c-2.16 2.16-4.321 4.561-6.481 4.561-2.161 0-6.962-2.881-9.362-5.282 5.041-.48 11.282-.48 16.563 0z" fill="#000"/><path d="M331.309 371.24c2.161-24.486 4.081-42.009 6.242-66.495 2.88 16.564 12.002 49.451 15.603 67.215-35.288 1.2-58.333 2.16-88.819 6.241 5.761 4.561 10.562 10.802 13.203 17.284 2.64 6.721 3.601 13.923 4.321 20.884 37.688-1.2 74.656-1.92 111.624-.72 4.08.24 8.641.24 12.002-1.92 2.641-1.681 4.561-4.321 5.521-7.202 3.121-7.922 1.201-16.803-.72-25.205-5.761-24.726-16.803-71.295-26.886-94.58-4.321-10.083-9.602-19.685-17.043-27.606-15.844-16.564-39.129-22.565-61.933-27.846-.961 5.521-6.962 8.882-12.483 10.322-5.041 1.2-10.322 1.2-15.123-.96-4.801-1.921-8.642-6.002-11.043-12.723-17.283-1.68-28.326-1.44-36.007-.48-10.082 1.44-19.925 8.882-26.646 16.323-14.163 15.364-21.365 28.326-36.248 46.09-12.722-32.167-20.164-66.494-19.444-102.502-3.121 7.202-43.929 6.482-48.25-5.041 2.88 42.729 5.761 86.179 18.724 126.987 4.081 13.203 9.602 26.166 18.484 36.728 8.882 10.562 22.084 18.004 36.007 17.764 13.683-.48 22.565-4.081 31.447-21.124 1.44 2.4 3.121 4.801 3.841 7.681 0 18.244-1.68 39.609-1.92 57.372 40.568 6.482 83.297.961 124.106-1.68.96-12.483.72-24.485 1.44-34.807z" fill="#fff"/><path d="M309.943 144.87c.48-1.44-.48-2.88-2.16-3.36-1.44-.48-3.121.48-3.601 1.92s.48 2.881 2.161 3.361c1.68.48 3.36-.48 3.6-1.921zm-39.846-13.922c.48-1.44-.48-2.881-2.16-3.361-1.441-.48-3.121.48-3.601 1.921-.48 1.44.48 2.88 2.16 3.36 1.681.481 3.121-.48 3.601-1.92zm-58.812 274.379c.72 0 1.2-.48 1.2-1.2s-.48-1.2-1.2-1.2h-3.361c1.201-7.922 1.201-16.804 1.201-26.166 0-8.402 0-17.284.72-26.405 0-.721-.48-1.201-.96-1.201-.721 0-1.201.48-1.201.96-.72 9.362-.72 18.244-.72 26.646 0 9.842 0 19.204-1.2 27.126 0 .24 0 .72.24.96s.48.48.96.48h4.321zm64.332-245.092c.24 0 .72-.24.96-.481.48-.48.48-1.2 0-1.68l-3.12-2.881-.24-.24c.24 0 .48-.24.48-.24 4.801-2.88 8.161-7.681 8.881-13.202 0-.721-.48-1.201-.96-1.201-.72 0-1.2.48-1.2.96-.48 4.802-3.361 9.122-7.682 11.523-.48.24-1.68.96-1.68 2.16 0 .961.72 1.681 1.2 2.161l3.121 2.88c-.48 0 0 .241.24.241z" fill="#000"/><path d="M285.46 408.687c-7.442 0-15.123.961-22.325 2.881-2.64.72-5.041 1.44-7.441 2.641-4.801 2.88-7.922 7.921-9.602 13.442-.481 1.201-.721 2.641-1.441 3.841-.72 1.2-1.92 2.161-3.12 2.161-1.441 0-2.641-1.201-2.161-2.401-.72.96-1.2 2.161-1.68 3.361-.48 1.2-1.441 2.16-2.641 2.4-2.16.481-3.841-1.92-4.561-4.08-.96-3.601-.72-7.442 0-11.283.96-5.281 2.401-10.322 4.801-15.123-4.321 1.68-7.201 6.001-8.642 10.562-1.44 4.561-1.68 9.362-2.64 13.923-.48 1.681-1.44 3.841-3.361 3.601-1.44-.24-2.16-1.68-2.64-2.881-1.921-6.481-.721-13.202.48-19.924-3.841 3.601-6.242 8.402-8.882 12.723-.48.96-1.201 1.92-1.921 2.4-.96.72-2.16.96-2.88.24-.96-.72-1.201-2.16-1.201-3.36 0-7.922 4.801-15.124 10.083-20.885 4.561-5.041 9.842-9.842 15.843-13.203 6.001-3.36 12.723-5.521 19.684-5.521 7.682-.96 15.364-2.16 23.045-3.12 1.44-.241 2.881-.241 4.081.24.72.48 1.44.96 1.92 1.68 5.282 7.442 8.162 16.804 7.202 25.685z" fill="#fff"/><path d="M296.503 139.59c.24 0 .24 0 .48-.24.48-.24.72-.96.48-1.68-1.921-3.841-6.001-6.722-10.322-7.442-2.641-.48-6.002.24-6.962 2.881-.24.72 0 1.2.72 1.44s1.201 0 1.441-.72c.48-1.2 2.64-1.681 4.321-1.44 3.6.48 6.961 2.88 8.641 6.241.48.72.961.96 1.201.96zm42.247 16.803c.48 0 .96-.24.96-.72.24-.48 0-1.2-.48-1.44l-12.242-5.521c-.48-.24-1.201 0-1.441.48s0 1.2.48 1.44l12.243 5.521c.24.241.48.24.48.24zm-97.22 278.46c2.161 0 4.081-1.921 5.281-5.281l.24-.48c1.201-3.841 2.641-7.682 5.041-10.323 2.401-2.64 6.242-4.801 11.283-6.241 5.521-1.44 12.002-1.68 16.323-1.92 1.44 0 2.641 0 3.601-.24.72 0 1.2-.72.96-1.201 0-.72-.72-1.2-1.2-.96-.96 0-2.161 0-3.601.24-4.561.24-11.282.48-17.043 1.921-5.282 1.44-9.603 3.84-12.243 6.961-2.881 3.121-4.321 7.202-5.521 11.283l-.24.48c-.48 1.2-1.441 3.84-3.121 3.6-.48 0-.72-.24-.96-.48-.72-.96-.96-2.64-.72-4.321.72-5.761 2.64-11.282 5.521-16.323.24-.48.24-1.2-.48-1.68-.48-.24-1.201-.24-1.681.48a43.55 43.55 0 00-5.761 17.043c-.24 1.921 0 4.561 1.2 6.242.721.96 1.681 1.44 2.641 1.44.24-.24.48-.24.48-.24z" fill="#000"/><path d="M233.367 437.973c.96 0 1.92-.48 2.641-.96 1.44-1.2 2.88-4.081 3.36-8.161 0-.721-.24-1.201-.96-1.441-.72 0-1.2.24-1.44.96-.72 4.321-1.921 6.242-2.401 6.722-.48.48-1.44.72-1.92.24s-.72-1.2-.96-2.161c-1.441-8.881-.24-18.003 3.84-26.645.24-.48 0-.96-.24-1.441-.48-.24-.96-.48-1.44-.24-3.841 2.161-7.201 6.002-9.122 11.043-1.92 4.561-2.4 9.362-2.88 13.683 0 .96-.241 1.68-.481 2.4-.24.48-.72.96-1.2.72-.48 0-.96-.72-1.2-1.92-2.881-10.082-.48-20.644 6.001-28.086.48-.48.48-1.2 0-1.68a1.158 1.158 0 00-1.68 0c-7.202 8.161-9.602 19.684-6.482 30.486.721 2.16 1.681 3.361 3.121 3.601 1.68.24 2.881-.72 3.601-1.921.48-.96.72-2.16.72-3.36.48-4.321 1.2-8.882 2.881-13.203 1.2-2.881 2.88-5.521 4.801-7.442-2.881 7.922-3.841 16.084-2.401 24.005.24 1.441.72 2.881 1.921 3.841.72.96 1.2.96 1.92.96z" fill="#000"/><path d="M205.281 429.092h.241c1.44-.24 2.16-1.441 2.64-1.921.96-1.44 1.921-2.88 2.881-4.081 3.841-5.281 5.521-7.681 8.162-10.802.48-.48.48-1.2 0-1.68a1.161 1.161 0 00-1.681 0c-2.881 3.121-4.561 5.761-8.402 11.042-.96 1.2-1.68 2.641-2.88 4.081v.24c-.24.24-.48.72-.961.96-.24 0-.48-.24-.96-.48-.48-.48-.72-2.64-.48-3.601 1.921-11.042 9.602-19.444 20.405-28.566 3.6-3.12 6.961-5.041 10.322-6.241 3.601-1.44 7.441-1.92 11.282-2.16 4.321-.481 8.882-.961 12.963-1.441 4.321-.48 8.882-.72 13.203-1.44.72 0 1.2-.72.96-1.2 0-.72-.72-1.201-1.2-.961-4.321.481-8.882.961-13.203 1.441-4.321.48-8.882.72-13.203 1.44-3.841.48-7.922.96-11.762 2.401-3.601 1.2-7.202 3.6-10.803 6.721-11.282 9.362-19.204 18.244-21.124 29.766-.24 1.201-.24 4.561 1.2 5.762.72.24 1.68.72 2.4.72zm9.604-71.056c.24 0 .48 0 .72-.24.48-.48.72-1.2.24-1.68-6.962-9.122-13.923-18.484-20.645-27.606-.96-1.2-1.44-2.16-1.68-3.361 0-.96.24-1.92.72-2.88l18.964-46.09c.24-.72 0-1.2-.72-1.44s-1.2 0-1.44.72l-18.964 46.09c-.48 1.2-.96 2.4-.96 3.841 0 1.92 1.2 3.36 2.16 4.56a1193.064 1193.064 0 0020.644 27.846c.24 0 .721.24.961.24z" fill="#000"/><path d="M281.138 375.56c9.842-.96 19.684-1.681 29.526-2.641l14.403-1.44c2.161-.24 4.321-.24 6.242-.48v1.2c6.961-.24 14.163-.48 22.084-.72-.72-3.601-1.68-7.682-2.88-12.243h7.441c15.844 0 31.687 0 47.53.48 1.921 7.922 3.601 15.124 5.042 21.125 1.92 8.402 3.84 17.284.72 25.205-1.201 2.881-2.881 5.521-5.521 7.202-3.601 2.16-7.922 2.16-12.003 1.92-36.728-1.2-73.456-.48-110.904.72.48-4.561.24-8.881-.96-13.202-1.2-3.841-2.64-7.922-4.561-11.523-1.68-3.601-4.321-6.721-6.961-9.602-1.441-1.68-3.121-3.121-4.561-4.561 5.041-.48 10.322-.96 15.363-1.44z" fill="#fff"/><path d="M282.098 417.329c45.13-1.44 79.457-1.68 111.384-.72 3.841.24 8.882.24 12.723-2.16 3.36-1.921 5.281-5.281 6.001-7.922 3.361-8.642 1.2-18.244-.72-25.925-4.561-19.204-16.324-70.335-26.886-94.821-5.521-12.482-10.802-21.124-17.284-28.086-15.603-16.323-37.448-22.324-62.413-28.326-.24 0-.72 0-.96.24-.24.241-.48.481-.48.721-.96 5.281-6.482 8.161-11.523 9.362-3.6.72-9.122 1.44-14.403-.721-4.801-1.92-8.161-6.241-10.322-12.002-.24-.48-.48-.72-.96-.72-16.324-1.441-27.846-1.681-36.248-.48-12.723 1.92-23.285 12.242-27.366 16.563-7.921 8.642-13.683 16.564-19.924 24.965-4.561 6.242-9.122 12.483-15.123 19.685-12.963-33.367-19.204-67.215-18.724-100.102 0-.48-.48-1.2-.96-1.2s-1.201.24-1.201.72c-.72 1.921-6.241 4.321-16.803 4.081-12.963 0-27.366-3.361-29.286-9.122-.24-.48-.72-.96-1.44-.72-.48 0-.96.72-.96 1.2 2.88 42.249 5.76 85.939 18.963 127.227 3.601 11.283 8.882 25.686 18.724 37.208 10.082 11.763 23.765 18.484 36.728 18.244 13.683-.48 23.285-4.081 31.687-22.084.24-.481 0-1.201-.48-1.681-.481-.24-1.201 0-1.681.48-7.921 17.044-16.563 20.405-29.766 20.885-12.243.24-25.446-6.242-35.048-17.284-9.602-11.042-14.883-25.205-18.244-36.248-12.722-39.608-15.843-81.617-18.483-122.666 6.001 5.041 19.684 7.202 28.806 7.202 4.081 0 12.482-.24 16.563-3.121-.24 32.887 6.482 66.494 19.684 99.861.24.48.481.72.961.72s.72 0 1.2-.48c6.481-7.921 11.522-14.643 16.563-21.364 6.002-8.402 11.763-16.084 19.685-24.725 3.84-4.081 14.163-14.163 25.925-15.844 7.922-1.2 19.204-.96 35.048.24 2.16 6.242 6.241 10.562 11.282 12.723 4.561 1.92 9.842 2.16 15.843.96 5.282-1.2 11.523-4.321 13.203-9.842 24.005 5.761 45.37 11.763 60.013 27.366 6.481 6.721 11.522 15.123 16.804 27.366 10.562 24.005 22.324 75.136 26.645 94.34 1.681 7.441 3.841 16.563.72 24.485-.72 2.16-2.4 5.041-5.041 6.721-3.36 1.921-7.681 1.921-11.522 1.681-31.687-.96-65.534-.72-109.944.72 1.441-5.281-.48-14.163-2.88-20.404l-.24-.481c-2.161-5.521-4.801-12.002-11.283-15.363 27.126-3.36 48.491-4.321 84.018-5.521.24 0 .72-.24.961-.48.24-.24.24-.72.24-.96-1.681-7.682-4.321-18.244-6.962-29.286-3.361-13.923-6.961-28.327-8.642-37.689 0-.48-.72-.96-1.2-.96s-.96.48-1.2.96c-.961 12.243-2.161 23.045-3.121 33.368-.96 10.322-2.16 21.124-3.121 33.367v.24c-24.725.96-42.969 2.4-65.774 5.281-.48 0-.96.48-.96 1.2 0 .48.24.96.96 1.2 8.642 2.161 11.523 9.362 14.163 15.844l.24.48c2.881 6.961 4.561 16.083 2.401 20.404-.24.48-.24.72 0 1.2.72-.24.96 0 1.44 0zm69.855-46.81c-6.961.241-13.203.481-19.204.721.96-12.243 2.16-23.045 3.121-33.367.72-7.922 1.68-16.084 2.4-25.206 1.921 8.642 4.561 19.444 7.202 29.767 2.4 10.562 4.801 20.404 6.481 28.085z" fill="#000"/><path d="M262.414 383.482c.72 0 1.2-.721 1.2-1.441-.24-.96 0-1.92.72-2.64l.48-.48c.721.24 1.201-.24 1.441-.72.24-.721-.24-1.201-.721-1.441-.96-.24-2.16.24-3.12 1.441-.96 1.2-1.44 2.88-1.2 4.56 0 .241.48.721 1.2.721zm17.522 34.567c1.44 0 3.121-.721 3.601-2.161.24-.72 0-1.2-.72-1.44s-1.201 0-1.441.72c-.24.48-.96.72-1.68.72-1.44-.24-2.881-1.44-4.081-2.4-1.2-1.201-2.4-2.641-3.601-4.081-.48-.48-1.2-.72-1.68-.24s-.72 1.2-.24 1.68c1.2 1.44 2.4 2.881 3.841 4.321 1.44 1.44 3.12 2.881 5.281 3.121.24-.24.48-.24.72-.24zM148.15 187.84c.48 0 1.2-.48 1.2-.96 0-.72-.24-1.68-.72-2.401-.48-.48-.961-.96-1.441-1.2-1.68-1.2-4.321-1.68-7.921-2.16-.721 0-1.201.48-1.201.96 0 .72.48 1.2.961 1.2 3.12.24 5.521.96 6.721 1.68.24.241.72.481.96.721s.24.48.24.72c0 .96.48 1.44 1.201 1.44 0 0-.241 0 0 0zm-48.252-4.321c.721 0 1.201-.48 1.201-1.2 0 0 0-.24.24-.24.24-.24.48-.24.96-.48.96-.24 2.16-.48 3.121-.48.72 0 1.2-.48 1.2-1.2 0-.721-.48-1.201-1.2-1.201-1.441 0-2.641.24-3.841.48-.48.24-1.201.48-1.68.961-.72.48-.96 1.44-.96 2.16-.24.72.24 1.2.96 1.2zm190.362 68.414c8.162 0 16.084-4.561 19.925-11.762.24-.48 0-1.2-.48-1.681-.481-.24-1.201 0-1.681.481-3.601 6.961-11.762 11.282-19.444 10.562-.72 0-1.2.48-1.2.96 0 .72.48 1.2.96 1.2.72.24 1.44.24 1.92.24zm18.965 1.201h.48c3.6-1.44 6.481-4.801 7.441-8.882.24-.72-.24-1.2-.96-1.44s-1.2.24-1.44.96c-.48 3.121-2.881 6.001-5.761 6.961-.721.24-.961.961-.721 1.441 0 .72.48.96.961.96zM363.477 95.9h.24c.72-.24.96-.96.72-1.44-1.2-3.84-3.601-7.681-6.961-11.042-3.121-3.12-6.722-5.521-10.083-7.922-.48-.24-1.2-.24-1.68.24-.24.48-.24 1.2.24 1.68 3.361 2.16 6.721 4.561 9.842 7.442 3.121 3.12 5.281 6.481 6.482 10.082.24.48.72.96 1.2.96zM172.876 299.224c.24 0 .48 0 .72-.24.48-.481.72-1.201.24-1.681-2.4-3.12-4.561-6.241-6.241-11.042-.24-.72-.96-.96-1.441-.72-.72.24-.96.96-.72 1.44 1.681 5.041 3.841 8.162 6.482 11.522.24.721.48.721.96.721zm193.961 74.655c.48 0 .96-.48 1.2-.96 0-.72-.24-1.201-.96-1.441-5.761-.96-11.042-1.2-17.524-.96-.72 0-1.2.48-1.2 1.2 0 .721.48 1.201 1.2 1.201 6.241-.24 11.283 0 17.284.96-.24 0-.24 0 0 0zm-29.286-207.404c.48 0 .96-.24 1.2-.72 1.44-3.36 2.161-7.201 2.161-11.042 0-.72-.481-1.2-1.201-1.2-.72 0-1.2.48-1.2 1.2 0 3.361-.72 6.961-2.16 10.082-.241.48 0 1.2.72 1.44 0 .24.24.24.48.24z" fill="#000"/><path opacity=".129" d="M331.789 67.334c.96-.24 1.92.24 2.88.48 1.441.48 2.881 1.2 4.321 1.68 8.402 3.602 15.363 9.843 20.885 17.044 1.44 1.92 2.64 4.081 3.84 6.002.721 1.2 1.681 2.64 1.681 4.08.24 3.601-5.041 4.801-6.482 1.44-2.4-5.04-8.161-12.482-12.962-16.083-4.321-3.6-5.521-4.32-10.082-6.481-1.201-.72-2.641-1.2-3.841-1.68-1.201-.48-2.401-.96-2.881-2.16-.72-1.681.72-4.082 2.641-4.322zm-63.372 36.968c.72-.72 1.92-.72 2.88-.24.24.24 1.921.96 2.401 1.2 2.64 1.2 5.041 2.64 7.682 3.841 5.041 1.92 10.082 4.321 15.123 5.761 6.241 1.92 12.002 3.121 19.684 4.081 6.721.72 12.243.24 19.684-1.2 1.2-.24 2.641-.721 3.841 0 1.44.96.96 3.36-.96 3.6-8.162 1.441-16.564 3.121-24.966 1.921-4.801-.48-9.842-1.441-14.403-2.641-3.84-.96-7.441-2.4-11.042-3.601-5.521-2.16-11.282-4.08-16.564-6.721-.96-.48-1.68-.96-2.64-1.44-.48-.24-.96-.48-1.2-1.201-.961-.96-.48-2.4.48-3.36zm2.16 112.824c.24-.96.48-1.92.96-3.12.72-1.921 1.2-3.841 1.68-5.761.481-1.921.961-3.601 1.441-5.522v-.48c0-.24 0-.24.24-.48.24-.48 0-.72-.24-.96 1.2-.96 2.88.24 4.321.96.96.48 2.16.96 4.081 1.44 1.68.481 7.201.721 8.641.961.48.24.961.48 1.201.96.96-.48 1.92-.72 2.88-1.2.72-.24 1.2-.481 1.921-.721 1.44 0 2.88 0 4.321-.24v1.201c0 .24 0 .24.24.48.24.48.48 1.2.48 1.68-.24 0-.24.24-.48.24-5.522 2.641-11.043 5.281-16.324 8.162l-7.922 4.321c-1.2.48-2.4 1.2-3.6 1.44h-1.681c-.96-.24-1.44-.96-1.68-1.68-.24-.24-.24-.48-.48-.72-.24 0-.24-.481 0-.961zm-117.625 138.27c1.2-.24.96 0 1.68.24 4.081 1.44 6.001 1.44 10.322 1.44 4.801.24 11.043-1.68 14.403-3.12.24-.24 1.921-.96 2.161-1.201.48-.24 2.16-1.44 2.64-1.92 1.201-.96 2.641-2.16 3.601-3.361 2.161-3.36 4.081-6.961 5.521-10.562 0 0 0-.24.24-.24.48-.72.48-1.92.961-2.641.24-.48.72-.72.96-.96l.96.96c0 .241 0 .481.24.481.48.24.72.72.96.96 1.921 2.16 3.601 4.561 5.281 6.961 0 .24-.24.48-.24.72-.96 1.441-1.92 2.881-3.12 4.321-2.641 5.522-6.242 10.803-12.243 12.723-4.081 1.2-8.402 1.68-12.483 2.161-2.64.24-5.041-.241-7.681-.241-1.921 0-3.841-.24-5.761 0-1.201 0-2.401.241-3.361-.24-.96-.24-1.44-1.2-1.44-2.16-.961-.24-1.921-.48-2.641-.96-.72-.24-1.44-.48-1.92-.96-.481-.961 0-2.161.96-2.401zM99.899 181.839c.24-.72.72-1.2 1.44-1.44h.48c.24-1.2 1.921-1.68 2.881-.72.72.96 1.44 1.92 2.401 2.641l.72.72c1.2.48 2.88.96 4.801 1.44 2.16.72 4.321 1.68 6.721 1.92 2.641.481 2.881.481 6.001.721 2.641.48 7.922 1.68 11.763 1.92 4.801 1.2-1.44-7.922 2.64-7.202.961.241 3.841.481 5.522 1.441.48.48 1.2.72 1.68 1.44v.24h.24c1.68.24 2.401 2.641.72 3.601-4.321 2.16-8.882 3.601-13.683 3.601-1.68 0-3.36-.24-4.801-.24h-4.801c-3.36-.24-6.481-.961-9.602-1.681h-.24.48-.48c-.24 0-.24 0 0 0-1.44-.24-2.88-.48-4.321-.96-4.081-1.44-8.402-3.121-9.602-5.041-.24-.24-.48-.48-.48-.96-.48-.24-.72-.72-.48-1.441zm15.843-32.647c-.24 0-.24 0 0 0-.48-.48-.72-.48 0 0zm15.365 6.961s.238 0 0 0c0 0 0 .238 0 0z" fill="#000"/><path d="M159.434 125.906c-11.523 12.483-22.085 26.166-31.447 40.329-5.041 7.441-10.322 15.603-18.724 18.964-1.92.72-3.841 1.2-5.761.72-2.881-.48-5.281-2.64-6.481-5.281-1.2-2.641-1.44-5.761-1.2-8.642.24-2.16.72-4.561 1.68-6.481.96-1.921 2.4-3.361 4.08-4.801 4.801-3.841 2.881-5.521 3.841-9.602 2.881-11.523 19.924-11.523 26.646-21.605-1.68-1.2-3.361-2.4-4.801-3.841-1.44-1.44-2.401-3.36-2.401-5.521-.24-3.121 1.921-6.001 3.601-8.642-22.325-7.921-45.37-13.203-68.895-15.843 5.042-10.082 9.362-20.404 13.443-30.967C78.537 50.53 84.298 36.367 90.3 22.924c14.883 14.883 32.647 26.166 50.411 37.208 12.242 7.682 24.485 15.364 37.448 21.365 6.961 3.36 14.643 6.721 17.764 13.683 1.92 4.32 1.68 9.602 0 14.163-1.441 4.561-4.321 8.642-6.962 12.722-2.16 3.361-4.801 6.962-9.122 7.922-6.721.48-14.163-1.2-20.404-4.081zm-96.02-91.219C59.813 46.45 55.252 57.972 49.49 69.014c-3.601-.48-6.242-3.6-7.682-6.721-1.44-3.36-1.68-6.962-1.68-10.562 0-1.44 0-2.88.48-4.321.48-1.2.96-2.4 1.68-3.36 1.68-2.641 3.6-5.282 6.242-7.202 4.56-3.121 10.322-3.841 14.883-2.16z" fill="#fff"/><path d="M60.292 96.861c9.842-25.205 19.924-50.17 29.766-75.616-5.52-5.041-9.842-11.522-12.722-18.724 0 0-40.329 96.5-40.329 96.26 7.682-2.64 15.603-3.36 23.285-1.92z" fill="#E0FF23"/><path d="M142.148 117.745c.481 0 .961-.24.961-.72 6.721-14.644 12.722-30.007 17.523-45.37.24-.48 0-.96-.48-1.44-4.801-3.121-10.082-6.242-14.883-9.122C116.943 43.809 87.417 25.805 78.775.84c-.24-.48-.48-.72-.96-.72s-.96.24-1.2.72l-40.81 97.7c-.24.72 0 1.2.72 1.44h.721c.24.241.72.241.96 0 28.086-11.041 102.742 17.045 103.462 17.285 0 .48.24.48.48.48zm16.084-45.85c-4.801 14.643-10.322 29.286-16.804 43.209-9.362-3.361-74.416-26.886-102.742-17.524L77.575 4.44c10.082 24.246 38.648 41.77 66.494 58.573 4.561 2.88 9.362 5.761 14.163 8.882z" fill="#000"/><path d="M60.77 96.14c.481 0 .961-.24 1.201-.72l28.806-71.535c.24-.72 0-1.2-.72-1.44s-1.2 0-1.44.72L59.81 94.7c-.24.72 0 1.2.72 1.44h.24zM48.53 70.455c.48 0 .72-.24.96-.48.24-.48.24-1.2-.24-1.68-3.84-2.641-6.721-6.962-7.681-11.523-.96-4.801 0-9.842 2.64-13.683 1.2-1.92 2.88-3.6 5.041-5.041 3.361-2.4 8.642-4.081 12.963-1.92.48.24 1.2 0 1.68-.48.24-.48 0-1.2-.48-1.681-5.28-2.64-11.522-.72-15.363 1.92-2.16 1.68-4.08 3.361-5.521 5.522-2.88 4.32-4.08 10.082-3.12 15.363.96 5.281 4.32 10.082 8.641 12.963 0 .72.24.72.48.72zm127.947 61.213c1.92 0 3.84-.24 5.761-1.2 4.561-2.16 7.441-6.721 10.082-11.522 2.16-4.081 4.561-8.402 5.521-13.443 1.2-5.522.24-11.043-2.64-14.644-2.401-2.88-5.762-4.8-8.402-6.24-8.642-4.562-17.524-9.363-27.606-13.924-.48-.24-1.2 0-1.68.48-.241.48 0 1.2.48 1.68 10.082 4.802 18.724 9.363 27.606 13.924 2.4 1.44 5.521 3.12 7.681 5.52 2.401 3.121 3.361 7.923 2.161 12.724-.961 4.561-3.361 8.881-5.282 12.722-2.4 4.561-5.041 8.882-9.121 10.563-5.522 2.4-11.763 0-17.764-2.881-3.841-1.68-7.202-3.361-10.563-5.041-3.36-1.681-6.721-3.361-10.562-5.041-.48-.24-1.2 0-1.68.48-.24.48 0 1.2.48 1.68 3.841 1.681 7.202 3.361 10.562 5.041 3.361 1.681 6.722 3.361 10.562 5.041 4.801 2.161 9.843 4.081 14.404 4.081z" fill="#000"/><path d="M105.662 187.84c6.241 0 11.522-5.041 13.683-7.441 4.321-4.561 7.681-10.083 11.042-15.364l2.16-3.601c7.922-12.482 17.284-24.245 27.606-34.807.48-.48.48-1.2 0-1.68a1.16 1.16 0 00-1.68 0c-10.562 10.562-19.924 22.565-28.086 35.287l-2.16 3.601c-3.121 5.281-6.482 10.562-10.563 14.883-2.4 2.641-8.402 8.162-14.643 6.242-5.761-1.921-8.162-9.362-6.481-15.124 1.44-5.041 4.801-7.681 9.602-11.522l2.88-2.161.24-.24c7.202-5.761 14.884-13.443 22.325-23.045 1.921-2.4 3.841-6.241 5.761-10.322 1.201-2.16 2.161-4.561 3.361-6.481.24-.48 0-1.2-.48-1.681-.48-.24-1.2 0-1.68.481-1.201 2.16-2.401 4.32-3.361 6.721-1.92 3.841-3.841 7.682-5.521 9.842-7.442 9.362-14.883 16.804-22.085 22.565l-.24.24-2.881 2.16c-4.8 3.841-8.882 6.962-10.562 12.723-1.92 6.722.96 15.603 7.922 18.004 1.68.72 2.88.72 3.841.72z" fill="#000"/><path d="M131.347 130.947c.24 0 .72 0 .96-.24.48-.48.48-1.2 0-1.68l-4.081-4.081c-.48-.48-.96-.96-1.44-1.68-.72-1.201-.96-3.121-.24-5.041.72-1.681 1.92-3.361 3.121-5.042.48-.48.24-1.2-.24-1.68s-1.201-.24-1.681.24c-1.2 1.681-2.64 3.361-3.36 5.521-.961 2.641-.721 5.281.48 7.202.48.72 1.2 1.44 1.68 2.16l4.081 4.081c.24 0 .48.24.72.24zm54.971-31.446c.48 0 .72-.24.96-.72s0-1.2-.48-1.68c-7.682-4.081-15.363-7.682-23.525-10.803-.72-.24-1.2 0-1.44.72s0 1.2.72 1.44c7.922 3.121 15.603 6.722 23.285 10.563 0 .24.24.48.48.48zm-4.561 9.602c.48 0 .96-.24 1.2-.72s0-1.201-.72-1.441c-7.682-3.36-15.844-6.721-23.765-9.842-.721-.24-1.201 0-1.441.72s0 1.2.721 1.44c7.921 3.121 15.843 6.482 23.524 9.843h.481zm-4.561 10.322c.48 0 .96-.24.96-.72.24-.48 0-1.201-.48-1.681-7.682-3.841-15.603-7.201-23.765-10.322-.72-.24-1.2 0-1.44.72s0 1.2.72 1.441c7.922 2.88 15.843 6.241 23.525 10.082.24.48.48.48.48.48z" fill="#000"/><path d="M40.607 31.327c.24 0 .72-.24.96-.48.48-.48.48-1.2 0-1.68-7.201-6.722-12.002-15.844-13.683-25.686 0-.72-.72-.96-1.44-.96s-.96.72-.96 1.44c1.92 10.322 6.961 19.924 14.403 27.126.24.24.48.24.72.24zm-7.2 9.841c.48 0 .72-.24.96-.48.24-.48.24-1.2-.24-1.68-5.761-3.601-11.763-6.962-18.004-9.362-.72-.24-1.2 0-1.44.72s0 1.2.72 1.44c6.241 2.4 12.003 5.521 17.524 9.122 0 0 .24.24.48.24zM1.958 57.732h.48c8.402-4.08 17.524-6.001 26.886-5.52.72 0 1.2-.481 1.2-1.201 0-.72-.48-1.2-1.2-1.2-9.603-.48-19.205 1.44-27.846 5.76-.48.24-.72.961-.48 1.681 0 .24.48.48.96.48z" fill="#E0FF23"/><path d="M72.534 91.34c.24 0 .24 0 .24-.24l8.402-16.084c0-.24 0-.48-.24-.48s-.48 0-.48.24l-8.402 16.083c0 .24.24.48.48.48zm7.441 2.16c.24 0 .24 0 .24-.24l4.321-7.922c0-.24 0-.48-.24-.48s-.48 0-.48.24l-4.32 7.922s0 .24.48.48c0 0-.24-.24 0 0zm8.163 2.88c.24 0 .24 0 .24-.24l3.36-6.001c0-.24 0-.48-.24-.48s-.48 0-.48.24l-3.36 6.001c0 .24 0 .48.48.48 0 0-.24 0 0 0zm9.122 1.92c.24 0 .24 0 .24-.24l2.4-4.56c0-.24 0-.48-.24-.48s-.48 0-.48.24l-2.4 4.56s0 .24.48.48c0 0-.24 0 0 0z" fill="#000"/><path opacity=".129" d="M39.646 53.411c.24-1.44 2.16-1.92 3.361-.96.72.48.72 1.44.96 2.16.96 2.401 2.88 5.282 4.561 6.722 1.92 1.68 1.44.72 3.12 2.4 1.681 2.641-1.68 5.522-3.84 3.601-4.08-2.88-5.281-5.76-6.962-9.362-.48-.96-.72-2.16-.96-3.12-.48-.72-.48-1.2-.24-1.44zm.723 38.648c3.6-1.44 7.681-1.2 11.522-1.44 8.882-.48 18.004.24 26.886 1.68 3.84.96 7.922 1.2 11.763 1.68 3.36.48 6.721 1.44 10.082 2.16 9.842 2.641 19.924 4.322 29.526 7.922 10.082 3.601 19.684 8.642 29.046 13.683 6.242 3.361 10.082 5.522 15.844 6.482 2.64.48 3.84.24 7.921-.24 1.201-.24 2.881-.24 3.601 1.2.96 1.44-.24 3.601-1.92 3.601-2.881.48-5.762 1.44-8.882 1.2-6.722-.24-12.723-3.841-18.484-6.721-.72-.241-1.2-.481-1.921-.721.961.48 1.681.961 2.641 1.681 1.68.72 2.881 2.64 1.68 4.321-.48.96-1.68 1.44-2.64 1.2-.72.48-1.681.72-2.401.24-1.44-.96-3.12-1.44-4.801-2.16-1.44-.481-1.68-.721-3.841-.721h-1.2c-1.92.48-1.44.48-2.4.961-.48.24-.961.72-1.201.96-1.92 1.92-4.081 3.841-6.001 6.001-.96 1.2-1.92 2.401-3.121 3.361-.48.24-.96.72-1.92 1.44l-.48.48c-.72.72-1.68 1.44-2.641 2.161-1.2.96-2.4 2.16-3.36 3.12 0 0-1.681 1.681-2.881 2.641-.72.96-2.16 1.68-3.361.72-.72-.48-.96-1.2-.96-1.92l.72-.721c1.201-.96 2.161-1.92 3.121-2.88 2.16-1.921 4.081-4.081 6.001-6.242 3.601-4.32 6.962-9.121 9.602-14.163.24-.48 0-.96-.24-1.2.48-.72.72-1.2.96-1.68-3.36-.96-3.84-1.44-7.201-1.921-1.44.481-3.121-.24-3.601-1.68-.96-2.4 1.92-4.561 4.081-3.361h.24c.96.24 1.68.24 2.641.48-2.881-1.2-5.282-2.16-6.242-2.4-7.921-2.401-14.163-4.321-23.285-6.481-5.761-1.441-7.681-2.401-12.482-3.601-6.482-1.2-12.723-2.64-19.445-3.36-2.16-.24-4.08-.481-6.24-.721-1.681-.24-1.921 0-2.642-.24-.48-.24-.96-.48-1.2-.96v-.24c-3.84-.24-7.681-.24-12.482 0-3.841.24-5.522 0-8.162 1.2h-.48c-.96.72-2.4.24-3.12-.72-.961-1.92 1.44-3.361 3.36-4.081zm99.381 24.485c.24 0 .24-.24.48-.24-.24 0-.48-.24-.72-.24 0 .24 0 .24.24.48zm121.464 263.577c.48-.96 1.68-.96 2.401-1.201 1.68-.24 3.12-.24 4.801-.24.72 0 1.68.24 2.16.721.72.72.72 1.44.48 2.4.72.72 1.44 1.2 2.161 1.92 3.36 3.601 5.761 8.162 7.441 12.723.96 3.361.96 3.841 1.681 6.962.96 4.561 1.2 8.401 0 11.282-1.921 3.121-5.042 1.44-7.202-.24-.24-.24-.72-.48-.96-.72-1.2-.96-2.161-2.161-1.2-3.601.48-.96 1.68-1.2 2.64-.96.96 0 1.921 0 2.641.72.24.24.24.48.48.72v-.48c.24-3.121-.24-3.121-.72-6.481-.961-4.801-2.161-7.922-4.081-11.283-1.921-3.6-2.641-4.561-5.281-7.201-1.441-1.2-.72-.96-2.401-1.441-.72-.24-1.44-.48-1.92-.72h-.96c-1.921.24-2.881-1.68-2.161-2.88zm82.338-57.133c1.68 0 1.92 1.921 2.16 3.121.72 2.64 1.201 5.041 2.161 7.682 1.92 7.201 4.801 13.442 6.241 17.283.48 1.681 4.561 9.362 6.481 13.203.721 1.2 1.201 2.161 1.921 3.361.48.72.96 1.44.96 2.4.24.96 0 1.681-.48 2.401-2.401-.48-5.041-.48-7.682-.48-.24 0-.24-.24-.48-.24-3.12-2.641-4.321-6.722-5.281-10.563-.24-.96-.48-2.16-.72-3.12-.24-.72-.24-1.201 0-1.921l.72-.72c-1.68-5.041-3.361-10.322-5.041-15.363-1.2-3.841-1.68-7.682-2.4-11.523-.241-1.2-.721-2.4-.721-3.6.721-1.441 1.441-1.921 2.161-1.921z" fill="#000"/><path opacity=".129" d="M255.454 414.928c2.641-.96 6.001-3.36 10.562-3.84h-.48 1.441c1.2 0 2.4.24 3.36.96 1.921 1.68 4.321 4.321 5.041 4.561.24.24.48.24.961.48.72.24 1.2.48 1.92.48 3.121.24 6.481-.24 9.602-.72 3.361-.48 6.721-.48 10.082-.48 3.841-.24 7.442-.72 11.283-.96 6.721-.721 13.442-.481 20.404-.961 5.281-.48 10.802 0 16.083-.24 9.122 0 18.724.48 28.086.961 6.242.48 19.685.96 24.966-.721 1.44-.24 2.88-1.44 4.321-.72 1.44.72 1.2 3.361-.481 3.601-4.32 1.44-8.641 2.641-12.962 2.881-3.361.48-11.043.72-16.564.24-5.281-.48-10.562-.24-15.603-.721-5.521-.48-11.283-.24-16.804 0-3.36 0-6.721 0-10.082.241-4.801.24-9.602 0-14.163.24-6.481.48-12.963 1.2-19.684 1.44-3.121.24-6.241.24-9.362.48-4.321.48-8.642.72-12.723-.96-2.64-.96-4.321-3.121-6.241-5.281h-.24c-1.681.48-1.2 0-3.841.96-5.761 1.68-9.362 3.601-13.443 7.201-1.44 1.681-.96.721-1.68 2.161-.24.48-.48 1.2-.96 1.44-1.681 1.441-4.321 0-4.321-2.16 0-3.841 7.441-8.642 11.522-10.563z" fill="#000"/><path d="M103.02 159.034c-.96-1.44-.96 0-1.44-1.68-.48-1.681-.48-3.601 0-5.042.72-1.68 2.16-2.88 3.841-2.88 2.16 0 3.841 1.68 5.281 3.121 2.4 2.64 4.801 5.521 6.481 8.641.72 1.201 1.201 2.881.24 3.841-.48.48-1.2.72-1.92.72-2.161 0-4.081-.72-5.521-2.4-.48-.72-.96-1.44-1.681-2.161-.72-.72-1.68-1.44-1.92-2.16-.48-2.641-.48-4.081-3.361 0z" fill="#fff"/><path d="M108.302 152.073c-.96-1.441-1.68-3.121-2.16-4.801-.48-1.681-.48-3.601 0-5.041.72-1.681 2.16-2.881 3.841-2.881 2.16 0 3.84 1.68 5.281 3.121 2.4 2.64 4.801 5.521 6.481 8.642.72 1.2 1.2 2.88.24 3.84-.48.481-1.2.721-1.92.721-2.161 0-3.841.72-5.281-.721-.481-.72-6.242-6.001-6.482-2.88z" fill="#fff"/><path d="M112.862 144.152c-.96-1.441-1.68-3.121-2.16-4.801-.48-1.681-.48-3.601 0-5.041.48-1.441 2.16-2.881 3.841-2.881 2.16 0 3.841 1.68 5.281 3.121 2.4 2.64 4.801 5.521 6.481 8.641.72 1.201 1.201 2.881.24 3.841-.48.48-1.2 2.401-1.92 2.401-2.16 0-4.081-2.401-5.521-4.081-.24-.72-6.002-4.561-6.242-1.2z" fill="#fff"/><path d="M114.784 131.429c-1.681 0 0-6.242.72-7.922.72-1.68 2.16-2.881 3.841-2.881 2.16 0 3.841 1.681 5.281 3.121 2.4 2.641 4.801 5.521 6.481 8.642.72 1.2 1.201 2.881.24 3.841-.48.48.961 7.201.24 7.441-2.16 0-4.561-.72-6.001-2.16-.48-.96-6.241-10.082-10.802-10.082z" fill="#fff"/><path d="M136.387 138.87c-2.881-3.601-9.122-11.042-5.521-13.203 1.92-.96 6.241 1.201 7.681 2.641 2.401 2.64 7.442 5.281 9.122 8.402.72 1.2 3.121 7.921 2.161 8.881-.48.481 0 6.962-.721 6.962-2.16 0-10.562 2.4-11.762.96-.48-.72 4.801-7.441-.96-14.643z" fill="#fff"/><path d="M115.983 167.676h.721c1.92-.48 2.64-1.44 2.88-2.401 1.201-3.84-4.081-10.562-6.001-12.482-1.92-2.161-4.321-4.561-7.442-5.041-2.64-.24-5.281 1.44-6.241 4.561-.72 2.88.48 5.521 1.68 7.921v.24c.24.48.961.72 1.681.48.48-.24.72-.96.48-1.68v-.24c-.96-1.92-2.161-4.321-1.44-6.241.48-1.441 1.92-2.881 3.6-2.641 2.401.24 4.321 2.161 6.002 4.081 3.12 3.601 6.001 8.402 5.521 10.082 0 .24-.24.48-1.2.72-2.881.48-6.962-5.521-8.642-8.161-.24-.241-.48-.721-.48-.961-.481-.48-1.201-.72-1.681-.24s-.72 1.201-.24 1.681c.24.24.24.48.48.72 2.161 3.601 6.242 9.602 10.322 9.602zm10.323-12.963c.72 0 1.44-.24 1.92-.72 1.2-1.44 1.92-6.001-.24-10.802-2.16-4.801-6.481-10.802-10.562-12.243-3.361-1.2-5.281-.24-6.482.48-1.92 1.681-2.88 4.801-2.4 8.642 0 .72.72 1.201 1.2.96.72 0 1.2-.72.96-1.2-.48-2.88.24-5.521 1.681-6.481.96-.72 2.4-.96 4.081-.24 3.36 1.2 7.201 6.481 9.362 11.042 1.92 4.321.96 7.682.72 8.162h-.48c-1.201-.24-2.641-1.44-2.881-2.161-.24-.72-.96-.96-1.44-.72s-.96.96-.72 1.441c.72 1.68 2.88 3.12 4.561 3.6.24.24.48.24.72.24z" fill="#000"/><path d="M120.784 163.595c.96 0 2.161-.24 2.881-.96.96-.961 1.44-2.161 1.44-3.841.24-2.641-.48-5.521-1.92-8.882-1.921-4.321-4.801-7.922-8.642-10.082-1.681-.96-5.521-1.681-8.162 0-1.68 1.2-3.601 3.601-2.881 8.642 0 .72.721 1.2 1.441.96.72 0 1.2-.72.96-1.441-.24-2.16-.24-5.041 1.68-6.481 1.681-1.2 4.321-.72 5.761 0 3.361 1.921 6.002 5.041 7.682 8.882 1.2 2.881 1.921 5.521 1.68 7.682 0 1.2-.24 1.92-.72 2.4-.72.72-2.64.24-2.88 0-.48-.48-1.2-.48-1.681 0-.48.48-.48 1.2 0 1.681.481.96 1.921 1.44 3.361 1.44zm17.763 28.086c.72 0 1.2-.48 1.2-1.2-.48-9.603 2.641-15.844 5.521-22.085 1.681-3.361 3.121-6.722 4.321-10.322l.241-.961c1.44-5.521 3.12-11.762.72-17.523-1.441-3.601-4.561-6.482-7.442-9.122l-.48-.24c-1.68-1.441-4.081-3.601-6.241-4.801-2.641-1.441-4.801-1.681-6.002-.961-.72.481-1.44 1.201-1.44 2.641 0 5.041 1.44 6.481 3.841 9.362.48.72 1.2 1.2 1.68 2.161 3.361 4.08 3.841 10.802.96 16.083-.24.48 0 1.2.48 1.68.481.24 1.201 0 1.681-.48 3.361-6.001 2.88-13.683-1.2-18.724-.721-.72-1.201-1.44-1.681-2.16-2.4-2.641-3.12-3.601-3.12-7.922 0-.24 0-.48.24-.72s1.44-.24 3.84.96c1.921.96 4.081 2.881 5.762 4.321l.48.24c2.88 2.401 5.521 5.041 6.721 8.162 1.921 4.801.48 10.562-.96 16.083l-.24.96c-.96 3.601-2.401 6.722-4.081 9.843-3.121 6.241-6.241 12.962-5.761 23.044-.24 1.201.24 1.681.96 1.681z" fill="#000"/><path d="M129.906 146.792c.961 0 1.681-.241 1.921-.481 3.121-1.44 2.88-5.521 1.92-8.641l-.24-.961c-1.2-3.6-2.4-7.441-4.561-10.802-2.16-3.361-7.201-7.922-11.762-6.241-4.321 1.68-3.841 6.481-3.841 9.602v2.16c0 .72.48 1.201 1.2 1.201s1.2-.481 1.2-1.201v-2.4c-.24-3.361-.24-6.482 2.161-7.202 2.88-.96 6.961 2.401 8.882 5.521 1.92 3.121 3.12 6.722 4.321 10.323l.24.96c.48 1.68 1.2 4.801-.72 5.761-.24 0-.961.24-1.441 0-.48-.24-1.2-.72-1.44-1.68-.24-.48-.96-.961-1.68-.48-.481.24-.961.96-.48 1.68.72 1.44 1.68 2.4 2.88 2.881h1.44z" fill="#000"/></svg>