<?xml version="1.0" standalone="no"?>
<!DOCTYPE svg PUBLIC "-//W3C//DTD SVG 20010904//EN"
 "http://www.w3.org/TR/2001/REC-SVG-20010904/DTD/svg10.dtd">
<svg version="1.0" xmlns="http://www.w3.org/2000/svg"
 width="90.000000pt" height="90.000000pt" viewBox="0 0 90.000000 90.000000"
 preserveAspectRatio="xMidYMid meet">
<metadata>
Created by potrace 1.14, written by Peter Selinger 2001-2017
</metadata>
<g transform="translate(0.000000,90.000000) scale(0.100000,-0.100000)"
fill="#000000" stroke="none">
<path d="M374 881 c-68 -19 -167 -63 -208 -94 -19 -14 -18 -17 29 -83 26 -38
51 -73 55 -77 4 -5 34 6 67 22 72 37 118 46 205 42 41 -2 89 -49 90 -89 1 -18
-1 -34 -3 -36 -2 -2 -44 -7 -94 -11 -216 -16 -312 -46 -396 -122 -56 -50 -81
-105 -87 -185 -9 -126 59 -212 187 -239 107 -22 236 10 304 76 l29 28 -4 -44
-3 -44 120 -3 120 -3 3 48 c1 26 7 73 12 103 5 30 12 69 14 85 8 51 38 218 44
250 3 17 6 68 6 115 1 94 -17 142 -71 191 -87 81 -265 111 -419 70z m216 -499
c0 -33 -25 -93 -52 -127 -47 -57 -92 -72 -189 -67 -40 3 -69 37 -69 81 0 68
63 108 185 118 39 3 71 6 72 7 11 9 53 -1 53 -12z"/>
</g>
</svg>
