<svg width="22" height="22" viewBox="0 0 22 22" fill="none" xmlns="http://www.w3.org/2000/svg">
<g clip-path="url(#clip0_187_8140)">
<path d="M14.2673 17.8006L14.2673 17.8004C14.164 17.4734 14.0629 17.1657 13.9832 16.9326C13.9434 16.8161 13.9088 16.718 13.882 16.6454C13.8686 16.6091 13.8571 16.5789 13.8477 16.5558C13.8389 16.5342 13.8305 16.5151 13.8237 16.504L13.8213 16.5001L13.8211 16.5002C13.7783 16.4431 13.688 16.3622 13.6201 16.3169M14.2673 17.8006L13.6197 16.3166C13.6198 16.3167 13.62 16.3168 13.6201 16.3169M14.2673 17.8006L14.6261 18.9563L17.5339 18.9691C18.3441 18.9712 19.0909 18.9712 19.6421 18.9691C19.9177 18.968 20.1442 18.9664 20.3053 18.9642C20.3859 18.9632 20.4499 18.962 20.4954 18.9606C20.5182 18.96 20.536 18.9593 20.5489 18.9586C20.5578 18.9581 20.5627 18.9576 20.5649 18.9574C20.5664 18.9573 20.5666 18.9573 20.566 18.9575L20.5772 19.0062M14.2673 17.8006L20.6184 18.9305M13.6201 16.3169C13.55 16.2685 13.4693 16.249 13.1315 16.2384M13.6201 16.3169L13.1315 16.2384M8.36814 16.3203L8.36814 16.3204C8.31743 16.3526 8.27324 16.3878 8.23028 16.4442C8.18812 16.4996 8.14857 16.5735 8.10379 16.6813C8.01452 16.8964 7.89982 17.258 7.70239 17.904C7.70239 17.904 7.70238 17.904 7.70238 17.904L7.37363 18.9777H4.43598C3.61937 18.9777 2.86941 18.9744 2.31883 18.9696C2.04352 18.9672 1.81817 18.9644 1.6593 18.9614C1.57984 18.9598 1.51722 18.9583 1.47337 18.9567C1.4514 18.9559 1.43447 18.9551 1.42264 18.9544L1.40975 18.9534C1.40007 18.9496 1.39114 18.9432 1.38478 18.9363C1.38288 18.9343 1.38142 18.9324 1.38033 18.9307C1.38386 18.9218 1.38926 18.9089 1.39652 18.8918C1.41109 18.8577 1.43267 18.8084 1.46058 18.7456C1.51637 18.6199 1.59717 18.4406 1.69709 18.2209C1.8969 17.7815 2.17302 17.1809 2.47817 16.5255L2.47821 16.5254L3.56523 14.1773H10.9999H18.4347L19.526 16.5254L8.36814 16.3203ZM8.36814 16.3203L8.36907 16.3198M8.36814 16.3203L8.36907 16.3198M8.36907 16.3198C8.40809 16.2961 8.44404 16.2772 8.51462 16.2637C8.58203 16.2508 8.68154 16.2427 8.84849 16.2373C9.18297 16.2266 9.80034 16.2266 11.0017 16.2266H11.0042C12.1687 16.2266 12.7887 16.2276 13.1315 16.2384M8.36907 16.3198L13.1315 16.2384M20.6184 18.9305C20.6169 18.9319 20.6152 18.9334 20.613 18.9351C20.6016 18.944 20.5844 18.9528 20.5651 18.9577L20.5772 19.0062M20.6184 18.9305C20.6149 18.9214 20.6099 18.9089 20.6032 18.8929C20.5887 18.8581 20.5671 18.8082 20.5393 18.7448C20.4836 18.618 20.4029 18.4381 20.3033 18.2181C20.104 17.7782 19.829 17.1787 19.526 16.5255L20.6184 18.9305ZM20.5772 19.0062C20.6288 18.9933 20.6718 18.9589 20.6718 18.9331C20.6718 18.903 20.1774 17.8112 19.5713 16.5044L20.5772 19.0062ZM2.39574 2.80048V2.7891L2.40066 2.77884L2.50358 2.56444C2.50362 2.56435 2.50366 2.56426 2.5037 2.56417C2.57813 2.40442 2.65501 2.28109 2.75294 2.17863C2.851 2.07604 2.968 1.99663 3.11975 1.92183C3.11984 1.92178 3.11992 1.92174 3.12001 1.9217L3.38167 1.78872L3.39235 1.7833H3.40432H10.9999H18.5955H18.6075L18.6182 1.78872L18.8799 1.9217C18.8799 1.92174 18.88 1.92178 18.8801 1.92181C19.0319 1.99662 19.1489 2.07604 19.2469 2.17863C19.3448 2.28108 19.4217 2.40439 19.4961 2.5641C19.4962 2.56421 19.4962 2.56433 19.4963 2.56444L19.5992 2.77884L19.6041 2.7891V2.80048V8.03616V13.2651L20.8117 15.86L20.8117 15.86L22.0239 18.4693L22.028 18.4781L22.0285 18.4879L22.0457 18.8403C22.0587 19.0945 22.0439 19.2861 21.9803 19.4582C21.9166 19.6306 21.8057 19.7785 21.6356 19.9485L21.6354 19.9487C21.5972 19.9866 21.5727 20.019 21.5484 20.051C21.5385 20.064 21.5287 20.077 21.518 20.0903C21.481 20.1361 21.4392 20.177 21.3644 20.2105C21.292 20.243 21.1907 20.2676 21.0362 20.2871C20.8812 20.3067 20.6693 20.3215 20.3738 20.3328C19.4017 20.37 17.5099 20.3693 13.7188 20.3679C12.9036 20.3676 12.0005 20.3672 10.9999 20.3672C9.99935 20.3672 9.0963 20.3676 8.28104 20.3679C4.48968 20.3693 2.59712 20.37 1.62494 20.3328C1.32947 20.3215 1.11767 20.3067 0.962828 20.2871C0.8085 20.2676 0.707436 20.243 0.635368 20.2105C0.560841 20.1769 0.519524 20.1359 0.483206 20.0899C0.47259 20.0764 0.462882 20.0633 0.453141 20.0501C0.429537 20.0182 0.405743 19.9861 0.36838 19.9484L0.368378 19.9484L0.368105 19.9481C0.198335 19.774 0.0865711 19.6241 0.0218178 19.452C-0.0429189 19.28 -0.058852 19.0905 -0.0457958 18.8402L-0.02861 18.4879L-0.0281328 18.4781L-0.0240014 18.4692L1.1882 15.8643L1.18821 15.8643L2.39574 13.2737V8.04046V2.80048ZM11.0214 12.7877H18.2146V7.98028V3.17287H11.0214H3.8283V7.98028V12.7877H11.0214ZM13.1127 18.968C13.1127 18.9677 13.1126 18.9675 13.1126 18.9673C13.1025 18.9299 13.0874 18.8761 13.0684 18.8099C13.0303 18.6775 12.9767 18.4962 12.9166 18.2987C12.9166 18.2987 12.9166 18.2986 12.9166 18.2986L12.7041 17.6161H11.0085C10.2279 17.6161 9.79601 17.6183 9.556 17.6279C9.43532 17.6328 9.36643 17.6394 9.32684 17.6477C9.30824 17.6516 9.29942 17.6552 9.29571 17.6572C9.28979 17.6754 9.27659 17.7168 9.25796 17.7751C9.21512 17.9094 9.14359 18.1335 9.06593 18.3722C9.0659 18.3723 9.06586 18.3724 9.06583 18.3726L8.88405 18.9566L10.9915 18.9691C11.589 18.9712 12.1327 18.9723 12.528 18.9718C12.7257 18.9715 12.8862 18.9708 12.9977 18.9697C13.0455 18.9692 13.0841 18.9686 13.1127 18.968Z" fill="#181D22" stroke="#181D22" stroke-width="0.1"/>
</g>
<defs>
<clipPath id="clip0_187_8140">
<rect width="22" height="22" fill="white"/>
</clipPath>
</defs>
</svg>
