<svg width="22" height="22" viewBox="0 0 22 22" fill="none" xmlns="http://www.w3.org/2000/svg">
<path d="M1.75956 3.25395C1.40919 3.41162 1.11226 3.69193 0.940047 4.03064L0.785645 4.33431V10.0339V15.7335L0.940047 16.0372C1.11226 16.3759 1.40919 16.6562 1.75956 16.8139C1.99117 16.9132 2.24652 16.9248 6.14814 16.9248H10.2873H15.8577L6.94985 19.0272L6.74794 19.2257C6.56978 19.4009 6.54603 19.4593 6.54603 19.7279C6.54603 19.9966 6.56978 20.055 6.74794 20.2302C6.87733 20.3574 7.05155 20.4287 7.23303 20.4287H10.9999H15.05L15.2519 20.2302C15.4301 20.055 15.4538 19.9966 15.4538 19.7279C15.4538 19.4593 15.4301 19.4009 15.2519 19.2257L15.05 19.0272H13.3813H6.94985L15.8577 16.9248H20.0028L20.3116 16.773C20.656 16.6037 20.941 16.3117 21.1014 15.9671C21.2083 15.7394 21.2142 15.4474 21.2142 10.0339C21.2142 4.62046 21.2083 4.32847 21.1014 4.10072C20.941 3.75617 20.656 3.46418 20.3116 3.29483L20.0028 3.143H11.0059C2.38311 3.143 1.99117 3.14884 1.75956 3.25395ZM19.6702 4.66133C19.789 4.77813 19.789 4.85405 19.789 10.0339C19.789 15.2138 19.789 15.2897 19.6702 15.4065C19.5514 15.5233 19.4742 15.5233 10.9999 15.5233C2.52564 15.5233 2.44844 15.5233 2.32966 15.4065C2.21089 15.2897 2.21089 15.2138 2.21089 10.0339C2.21089 4.85405 2.21089 4.77813 2.32966 4.66133C2.44844 4.54454 2.52564 4.54454 10.9999 4.54454C19.4742 4.54454 19.5514 4.54454 19.6702 4.66133Z" fill="#181D22"/>
</svg>
