<svg width="22" height="22" viewBox="0 0 22 22" fill="none" xmlns="http://www.w3.org/2000/svg">
<g clip-path="url(#clip0_187_8149)">
<path d="M12.3416 0.0819607C12.2769 0.125097 12.182 0.219999 12.1388 0.284706C12.0612 0.405489 12.0569 0.530586 12.0569 2.79098V5.17647L6.72078 5.1851L1.38039 5.19804L1.07843 5.34471C0.681569 5.53882 0.340784 5.87961 0.146667 6.27647L0 6.57843V11.8627V17.1471L0.138039 17.4318C0.388235 17.9408 0.767843 18.2816 1.29412 18.4627C1.53137 18.5447 1.65647 18.549 3.78314 18.549H6.01765V18.7561C6.01765 19.3514 5.60784 20.0933 5.04706 20.5118L4.78824 20.7059H4.33529C3.96431 20.7059 3.86078 20.7231 3.75725 20.7878C3.55882 20.9216 3.47255 21.0855 3.47255 21.3529C3.47255 21.6204 3.55882 21.7843 3.75725 21.918C3.87804 21.9957 4.13686 22 12.7686 22C21.4004 22 21.6592 21.9957 21.78 21.918C21.8447 21.8749 21.9396 21.78 21.9827 21.7153C22.0604 21.5945 22.0647 21.3012 22.0647 11C22.0647 0.698822 22.0604 0.405489 21.9827 0.284706C21.9396 0.219999 21.8447 0.125097 21.78 0.0819607C21.6592 0.00431252 21.491 0 17.0608 0C12.6306 0 12.4624 0.00431252 12.3416 0.0819607ZM20.7706 1.94118V2.58823H17.0608H13.351V1.94118V1.29412H17.0608H20.7706V1.94118ZM20.7706 6.47059V9.05882H18.8337H16.8925L16.8796 7.81647L16.8667 6.57843L16.72 6.27647C16.5259 5.87961 16.1851 5.53882 15.7882 5.34471L15.4863 5.19804L14.4208 5.1851L13.351 5.17216V4.5251V3.88235H17.0608H20.7706V6.47059ZM15.2404 6.57843C15.318 6.62588 15.4259 6.73373 15.4776 6.81569L15.5725 6.96667L15.5855 10.8145V16.3663H1.28118V10.8145L1.29412 6.96667L1.38902 6.81569C1.49255 6.64745 1.61765 6.55686 1.81176 6.50941C1.8851 6.49216 4.90039 6.48353 8.51961 6.48353C15.0161 6.49216 15.098 6.49216 15.2404 6.57843ZM20.7706 11V11.6471H18.8294H16.8882V11V10.3529H18.8294H20.7706V11ZM20.7706 16.8235V20.7059H17.0608H13.351V19.6318V18.5533L14.4208 18.5404L15.4863 18.5275L15.7882 18.3808C16.1851 18.1867 16.5259 17.8459 16.72 17.449L16.8667 17.1471L16.8796 15.042L16.8925 12.9412H18.8294H20.7706V16.8235ZM15.5855 16.3663C15.5596 16.8235 15.482 17.0004 15.2404 17.1471C15.098 17.2333 15.0204 17.2333 8.43333 17.2333C1.84627 17.2333 1.76863 17.2333 1.62627 17.1471C1.38471 17.0004 1.30706 16.8235 1.28118 16.3663H15.5855ZM9.51176 18.8251C9.51176 19.209 9.68431 19.8475 9.90431 20.2788C10.0078 20.4773 10.0984 20.6541 10.1071 20.6714C10.1157 20.6929 9.36078 20.7059 8.43333 20.7059C7.50588 20.7059 6.75098 20.6929 6.75961 20.6714C6.76824 20.6541 6.85882 20.4773 6.96235 20.2788C7.18235 19.8475 7.3549 19.209 7.3549 18.8251V18.549H8.43333H9.51176V18.8251ZM12.0569 19.6102V20.6671L11.9231 20.5894C11.7118 20.4686 11.3839 20.1322 11.22 19.8733C11.0216 19.5671 10.849 19.0494 10.849 18.769V18.549H11.4529H12.0569V19.6102Z" fill="#181D22"/>
</g>
<defs>
<clipPath id="clip0_187_8149">
<rect width="22" height="22" fill="white"/>
</clipPath>
</defs>
</svg>
