<svg width="22" height="22" viewBox="0 0 22 22" fill="none" xmlns="http://www.w3.org/2000/svg">
<path d="M6.41561 0.0798893C5.24699 0.382402 4.3063 1.32724 4.01208 2.49999C3.9292 2.81908 3.9292 2.97655 3.9292 9.36248C3.9292 16.7927 3.90019 16.1628 4.28973 16.946C4.45549 17.2817 4.54666 17.3977 4.90304 17.7541C5.25943 18.1105 5.37546 18.2017 5.71112 18.3674C6.19183 18.6078 6.65181 18.7279 7.08694 18.7279H7.41017V19.6894C7.41017 20.6383 7.41017 20.6508 7.51377 20.8248C7.6671 21.0859 7.90745 21.2144 8.23897 21.2144C8.57049 21.2144 8.81085 21.0859 8.96417 20.8248C9.06777 20.6508 9.06777 20.6383 9.06777 19.6894V18.7279H11.2434H13.419V19.6894C13.419 20.6383 13.419 20.6508 13.5226 20.8248C13.6759 21.0859 13.9163 21.2144 14.2478 21.2144C14.5793 21.2144 14.8197 21.0859 14.973 20.8248C15.0766 20.6508 15.0766 20.6383 15.0766 19.6894V18.7279H15.3791C15.7935 18.7279 16.2618 18.6036 16.7342 18.3674C17.0699 18.2017 17.1859 18.1105 17.5423 17.7541C17.8987 17.3977 17.9898 17.2817 18.1556 16.946C18.4954 16.2664 18.5161 16.1172 18.5161 14.4886V13.0797L18.4125 12.9015C18.2509 12.628 18.0437 12.5285 17.4801 12.4539C15.3998 12.1721 13.5599 12.081 10.5969 12.11C8.46275 12.1307 7.38116 12.1804 6.0758 12.3172L5.5868 12.371V7.89135C5.5868 5.11072 5.60338 3.30807 5.62824 3.12574C5.68626 2.73206 5.8313 2.44198 6.10066 2.16847C6.37417 1.89911 6.66425 1.75407 7.05793 1.69605C7.44747 1.64218 14.9979 1.64218 15.3874 1.69605C15.7811 1.75407 16.0712 1.89911 16.3447 2.16847C16.614 2.44198 16.7591 2.73206 16.8171 3.12574C16.8419 3.29979 16.8585 4.59272 16.8585 6.31248V13.3159L16.9621 13.4941C17.1154 13.7551 17.3558 13.8836 17.6873 13.8836C18.0188 13.8836 18.2592 13.7551 18.4125 13.4941L18.5161 13.3159V6.01826C18.5161 2.39225 18.5286 2.529 18.168 1.79965C17.7495 0.95842 16.9414 0.311954 16.0131 0.0798893C15.6941 0.00115395 15.5449 -0.00299072 11.2061 0.00115395C6.91703 0.00115395 6.71398 0.00529671 6.41561 0.0798893ZM12.9424 13.8173C14.1981 13.8422 16.009 13.9623 16.7052 14.0701L16.8585 14.0949V14.7C16.8544 15.7733 16.7549 16.1462 16.3447 16.5565C16.0712 16.8258 15.7811 16.9709 15.3874 17.0289C14.9979 17.0828 7.44747 17.0828 7.05793 17.0289C6.66425 16.9709 6.37417 16.8258 6.10066 16.5565C5.6904 16.1462 5.59095 15.7733 5.5868 14.7041V14.0949L5.72356 14.0701C5.90589 14.0411 7.08279 13.9333 7.88673 13.8753C8.63265 13.8214 10.9119 13.7634 11.5127 13.7841C11.7282 13.7883 12.3747 13.8049 12.9424 13.8173Z" fill="#181D22"/>
<path d="M10.7794 14.6918C10.5225 14.8452 10.394 15.0855 10.394 15.4129C10.394 15.9226 10.7131 16.2417 11.2228 16.2417C11.7326 16.2417 12.0516 15.9226 12.0516 15.4129C12.0516 14.9032 11.7326 14.5841 11.2187 14.5841C11.0074 14.5841 10.9162 14.6048 10.7794 14.6918Z" fill="#181D22"/>
<path d="M10.8165 3.48214C10.6384 3.57331 10.2281 3.99186 9.78883 4.53887C9.19624 5.27236 8.64923 6.26692 8.48761 6.89267C8.38401 7.29464 8.37572 7.94939 8.46689 8.30577C8.66995 9.10143 9.22939 9.79348 9.95874 10.154C10.4104 10.3736 10.7005 10.4399 11.2227 10.4399C11.749 10.4399 12.0307 10.3736 12.5073 10.1416C13.0046 9.90122 13.5019 9.40394 13.7422 8.90666C13.9991 8.38451 14.053 8.11515 14.0323 7.51841C13.9991 6.68547 13.7961 6.30836 12.9217 5.44641C12.6026 5.13146 12.3374 4.82895 12.2794 4.7212C12.2297 4.6176 12.1675 4.38968 12.1426 4.21149C12.0888 3.81366 11.9686 3.60646 11.7117 3.48214C11.463 3.36197 11.061 3.36197 10.8165 3.48214ZM11.6619 6.60673C12.2752 7.20347 12.3415 7.30707 12.3415 7.64688C12.3415 8.25605 11.8484 8.73675 11.2185 8.7409C10.8953 8.7409 10.5928 8.60829 10.3897 8.37622C10.0333 7.97425 10.0085 7.51427 10.3027 6.89681C10.4021 6.69375 10.5886 6.36638 10.7129 6.17575L10.945 5.8318L11.0486 5.96855C11.1066 6.04729 11.3801 6.33322 11.6619 6.60673Z" fill="#181D22"/>
</svg>
