<svg width="22" height="22" viewBox="0 0 22 22" fill="none" xmlns="http://www.w3.org/2000/svg">
<g clip-path="url(#clip0_187_8212)">
<path d="M2.27618 0.0318165C1.3625 0.186302 0.620967 0.830732 0.311993 1.74883C0.219301 2.02249 0.214887 2.11959 0.197232 3.88516C0.179576 6.16273 0.210474 6.38784 0.629795 7.03669L0.801937 7.30593L0.616553 7.58401C0.510619 7.7385 0.378202 7.99892 0.320821 8.17106C0.214887 8.47562 0.210474 8.49328 0.197232 10.4222C0.179576 12.7968 0.20606 13.0087 0.629795 13.6575L0.801937 13.9268L0.612139 14.2049C0.510619 14.3594 0.378202 14.633 0.316407 14.814L0.210474 15.145V17.1313C0.210474 18.6144 0.223715 19.1705 0.267854 19.3338C0.448825 20.0136 0.987321 20.6712 1.60085 20.9626C1.78182 21.0464 2.03783 21.1391 2.16583 21.1656C2.32915 21.2009 4.88039 21.2142 10.8171 21.2142C20.0951 21.2142 19.4904 21.2318 20.0907 20.9361C20.4836 20.7463 20.9514 20.274 21.1412 19.8856C21.4193 19.3206 21.4237 19.2676 21.4105 17.0342C21.3928 15.0347 21.3928 15.0082 21.2913 14.7301C21.2339 14.5756 21.1015 14.324 20.9956 14.174C20.8146 13.9047 20.8102 13.8915 20.8896 13.8209C21.0265 13.6973 21.2825 13.1676 21.3531 12.8498C21.4149 12.5982 21.4193 12.2407 21.4105 10.4707C21.3928 8.41383 21.3928 8.38734 21.2913 8.10927C21.2339 7.95478 21.1015 7.70319 20.9956 7.55311C20.8146 7.28386 20.8102 7.27062 20.8896 7.2C21.022 7.08082 21.2781 6.54674 21.3531 6.2466C21.4061 6.01707 21.4193 5.60217 21.4193 4.07937C21.4193 2.87879 21.4016 2.11077 21.3707 1.96069C21.1942 1.11764 20.5233 0.39817 19.6096 0.0759544C19.433 0.0141602 18.5547 0.00533295 10.9583 0.000917435C6.31049 -0.00349617 2.40419 0.00974655 2.27618 0.0318165ZM19.3624 1.8371C19.4595 1.90331 19.5699 2.03573 19.6361 2.17256L19.7464 2.39767L19.7332 4.14116L19.7199 5.88024L19.5964 6.06563C19.5301 6.16715 19.3933 6.29515 19.2874 6.34812L19.102 6.44964H10.848C6.30608 6.44964 2.54102 6.43639 2.47481 6.41432C2.30708 6.37019 2.04225 6.12742 1.97162 5.95528C1.92307 5.84493 1.90983 5.43444 1.90983 4.06613C1.90983 2.4374 1.91424 2.30939 1.99369 2.15491C2.08638 1.97393 2.17908 1.88124 2.37329 1.77972C2.49246 1.71351 3.2958 1.7091 10.8524 1.71793L19.1947 1.72676L19.3624 1.8371ZM19.2344 8.23285C19.4595 8.33437 19.6361 8.54183 19.6979 8.77135C19.7288 8.88611 19.742 9.56144 19.7332 10.7223L19.7199 12.5011L19.5964 12.6865C19.5301 12.788 19.3933 12.916 19.2874 12.969L19.102 13.0705H10.848C6.30608 13.0705 2.54102 13.0573 2.47481 13.0352C2.30708 12.991 2.04225 12.7483 1.97162 12.5761C1.92307 12.4658 1.90983 12.0376 1.90983 10.5987C1.90983 8.85963 1.91424 8.7537 1.99811 8.59038C2.08638 8.42265 2.2497 8.27258 2.44391 8.19754C2.51012 8.17106 5.7411 8.1534 10.8039 8.1534C18.718 8.14899 19.0667 8.1534 19.2344 8.23285ZM19.2344 14.8537C19.4551 14.9508 19.6361 15.1583 19.6979 15.379C19.7597 15.6085 19.7553 18.7071 19.6935 18.941C19.6317 19.1661 19.3712 19.4265 19.1461 19.4883C19.0181 19.5236 16.617 19.5369 10.7774 19.5369H2.58957L2.36887 19.4265C2.24528 19.3647 2.10845 19.25 2.04225 19.1529L1.9319 18.9895L1.91866 17.1887C1.90541 15.4628 1.90983 15.3834 1.99369 15.2157C2.08638 15.0435 2.2497 14.8934 2.44391 14.8184C2.51012 14.7919 5.7411 14.7743 10.8039 14.7743C18.718 14.7699 19.0667 14.7743 19.2344 14.8537Z" fill="#181D22"/>
<path d="M3.49902 4.06605V4.92676H4.35974H5.22045V4.06605V3.20533H4.35974H3.49902V4.06605Z" fill="#181D22"/>
<path d="M6.80908 4.06605V4.92676H7.66979H8.53051V4.06605V3.20533H7.66979H6.80908V4.06605Z" fill="#181D22"/>
<path d="M3.49902 10.5764V11.415H4.35974H5.22045V10.5764V9.73775H4.35974H3.49902V10.5764Z" fill="#181D22"/>
<path d="M6.80908 10.5764V11.415H7.66979H8.53051V10.5764V9.73775H7.66979H6.80908V10.5764Z" fill="#181D22"/>
<path d="M3.49902 17.1535V17.9922H4.35974H5.22045V17.1535V16.3149H4.35974H3.49902V17.1535Z" fill="#181D22"/>
<path d="M6.80908 17.1535V17.9922H7.66979H8.53051V17.1535V16.3149H7.66979H6.80908V17.1535Z" fill="#181D22"/>
</g>
<defs>
<clipPath id="clip0_187_8212">
<rect width="22" height="22" fill="white"/>
</clipPath>
</defs>
</svg>
