<svg width="22" height="22" viewBox="0 0 22 22" fill="none" xmlns="http://www.w3.org/2000/svg">
<path d="M11.6826 0.0285721C11.5705 0.0587578 11.4152 0.132069 11.3376 0.19244C11.2384 0.270063 10.0957 2.08988 7.5298 6.26424C5.51593 9.54163 3.82118 12.3145 3.76512 12.4266C3.6185 12.7198 3.64437 13.1338 3.82118 13.3839C3.89449 13.4831 4.0368 13.6125 4.14029 13.6686L4.33004 13.7677H7.15032C9.93179 13.7677 9.96628 13.7677 9.96628 13.854C9.96628 13.9014 9.78085 15.5142 9.5523 17.4419C9.30649 19.5247 9.14694 21.047 9.15556 21.1936C9.17712 21.4998 9.34962 21.7628 9.62561 21.9095C9.78517 21.9957 9.8671 22.0086 10.1258 21.9957C10.6864 21.9698 10.3458 22.4614 14.4813 15.7299C16.5081 12.4309 18.2029 9.65806 18.2503 9.56319C18.4314 9.17508 18.2891 8.63603 17.9355 8.39454L17.7587 8.26948L14.8392 8.24792L11.9241 8.22636L12.3898 4.69023C12.6917 2.40468 12.8513 1.0506 12.8426 0.865168C12.834 0.623676 12.8081 0.546055 12.7046 0.39081C12.4804 0.0803204 12.0664 -0.0663013 11.6826 0.0285721ZM10.1603 7.15258C10.031 8.14442 9.92316 9.06296 9.92316 9.18801C9.92316 9.43813 10.0008 9.62356 10.1776 9.81331C10.432 10.0936 10.2983 10.0807 13.1229 10.1022L15.6974 10.1238L13.6232 13.5004C12.4847 15.359 11.5446 16.8683 11.536 16.864C11.5317 16.8554 11.6309 15.9455 11.7602 14.8458C11.8896 13.7419 11.9845 12.7716 11.9715 12.6896C11.9327 12.4568 11.7732 12.211 11.5705 12.0644L11.3807 11.935L8.84076 11.9134L6.30078 11.8919L8.33621 8.57997C9.45743 6.75585 10.3803 5.28533 10.3889 5.30689C10.3932 5.32845 10.294 6.15643 10.1603 7.15258Z" fill="#181D22"/>
</svg>
