<svg width="22" height="22" viewBox="0 0 22 22" fill="none" xmlns="http://www.w3.org/2000/svg">
<g clip-path="url(#clip0_187_8174)">
<path d="M2.01448 1.82803C1.52046 2.00655 1.15513 2.33867 0.918492 2.82023L0.785645 3.09423V10.4631V17.832L0.926795 18.1226C1.10116 18.4796 1.44573 18.8325 1.7737 18.9902L2.01033 19.1065V19.5714C2.01033 20.0779 2.05184 20.1942 2.28433 20.3478C2.44623 20.4557 2.81987 20.4557 2.98177 20.3478C3.2101 20.1942 3.25577 20.0738 3.25577 19.6046V19.1812H5.74665H8.23754V19.6046C8.23754 20.0738 8.28321 20.1942 8.51154 20.3478C8.67344 20.4557 9.04708 20.4557 9.20898 20.3478C9.44147 20.1942 9.48298 20.0779 9.48298 19.5714V19.1065L9.72377 18.9902C10.0476 18.8325 10.3922 18.4796 10.5665 18.1226L10.7077 17.832V10.4631V3.09423L10.5665 2.80363C10.3797 2.42169 10.0517 2.09373 9.6698 1.90691L9.37919 1.76576L5.80893 1.75746C2.36736 1.74916 2.23036 1.74916 2.01448 1.82803ZM9.14256 3.09423C9.21729 3.1399 9.32107 3.24368 9.37089 3.32256C9.46222 3.46786 9.46222 3.48862 9.47468 5.71796L9.48713 7.97221H5.74665H2.00618L2.01863 5.71796C2.03109 3.48447 2.03109 3.46786 2.12242 3.32256C2.22205 3.16066 2.34245 3.07347 2.52926 3.02781C2.59984 3.0112 4.08191 2.99875 5.82968 3.0029C8.92668 3.0112 9.00971 3.01535 9.14256 3.09423ZM9.47468 13.3359L9.46222 17.4583L9.37089 17.6036C9.32107 17.6825 9.21729 17.7863 9.14256 17.832C9.00971 17.915 8.93083 17.915 5.74665 17.915C2.56248 17.915 2.4836 17.915 2.35075 17.832C2.27602 17.7863 2.17224 17.6825 2.12242 17.6036L2.03109 17.4583L2.01863 13.3359L2.01033 9.21766H5.74665H9.48298L9.47468 13.3359Z" fill="#181D22"/>
<path d="M3.52986 4.31456C3.26831 4.48892 3.25586 4.54289 3.25586 5.48112C3.25586 6.24499 3.26416 6.34463 3.33474 6.45257C3.46343 6.64353 3.62119 6.72656 3.87858 6.72656C4.13597 6.72656 4.29373 6.64353 4.42242 6.45257C4.493 6.34463 4.5013 6.24499 4.5013 5.48112C4.5013 4.71725 4.493 4.61761 4.42242 4.50968C4.29373 4.31871 4.13597 4.23568 3.87858 4.23568C3.72498 4.23568 3.61289 4.26059 3.52986 4.31456Z" fill="#181D22"/>
<path d="M3.52986 10.5421C3.26831 10.7165 3.25586 10.7704 3.25586 11.7087C3.25586 12.4725 3.26416 12.5722 3.33474 12.6801C3.46343 12.8711 3.62119 12.9541 3.87858 12.9541C4.13597 12.9541 4.29373 12.8711 4.42242 12.6801C4.493 12.5722 4.5013 12.4725 4.5013 11.7087C4.5013 10.9448 4.493 10.8452 4.42242 10.7372C4.29373 10.5462 4.13597 10.4632 3.87858 10.4632C3.72498 10.4632 3.61289 10.4881 3.52986 10.5421Z" fill="#181D22"/>
<path d="M13.307 8.05527C12.8129 8.23379 12.4476 8.56591 12.211 9.04748L12.0781 9.32147V14.1995V19.0774L12.211 19.3514C12.4559 19.8455 12.8254 20.1734 13.3319 20.3436C13.5685 20.4267 13.6723 20.4267 17.1222 20.4184L20.6717 20.4059L20.9623 20.2648C21.3442 20.0779 21.6722 19.75 21.859 19.368L22.0001 19.0774V14.1995V9.32147L21.859 9.03087C21.6722 8.64894 21.3442 8.32097 20.9623 8.13415L20.6717 7.993L17.1014 7.9847C13.6598 7.9764 13.5228 7.9764 13.307 8.05527ZM18.2846 9.84041V10.4631H15.7895H13.2904L13.3111 10.0729C13.3402 9.54565 13.4647 9.34223 13.8217 9.25505C13.8923 9.23845 14.9219 9.22599 16.1175 9.22184L18.2846 9.21769V9.84041ZM20.4475 9.33393C20.6758 9.47093 20.7422 9.63284 20.7672 10.077L20.7879 10.4631H20.1569H19.53V9.83626V9.20523L19.9203 9.22599C20.2192 9.2426 20.3437 9.26751 20.4475 9.33393ZM20.7672 15.2041C20.7547 18.6208 20.7547 18.708 20.6717 18.8408C20.626 18.9155 20.5222 19.0193 20.4433 19.0691L20.298 19.1605H17.0391H13.7802L13.6349 19.0691C13.556 19.0193 13.4523 18.9155 13.4066 18.8408C13.3236 18.708 13.3236 18.6208 13.3111 15.2041L13.2987 11.7086H17.0391H20.7796L20.7672 15.2041Z" fill="#181D22"/>
<path d="M16.3537 13.0327C15.4985 13.2817 14.8343 13.9626 14.6143 14.8095C14.5769 14.9506 14.5479 15.2329 14.5479 15.4447C14.5479 16.1587 14.7803 16.7275 15.2702 17.209C15.7725 17.7072 16.3288 17.9355 17.0387 17.9355C17.7528 17.9355 18.3174 17.7031 18.8073 17.2132C19.2971 16.7233 19.5296 16.1587 19.5296 15.4447C19.5296 14.7306 19.2971 14.166 18.8073 13.6761C18.4834 13.3523 18.1015 13.1281 17.6739 13.0202C17.3335 12.933 16.6776 12.9372 16.3537 13.0327ZM17.4705 14.3072C17.6988 14.386 18.0185 14.6808 18.1389 14.9257C18.2011 15.0503 18.2219 15.179 18.2219 15.4447C18.2219 15.8557 18.1513 16.0342 17.8898 16.2957C17.6282 16.5573 17.4497 16.6278 17.0387 16.6278C16.6277 16.6278 16.4492 16.5573 16.1877 16.2957C15.9594 16.0715 15.8639 15.8515 15.8431 15.5194C15.8057 14.9423 16.088 14.5147 16.6443 14.2947C16.827 14.2241 17.2422 14.2324 17.4705 14.3072Z" fill="#181D22"/>
</g>
<defs>
<clipPath id="clip0_187_8174">
<rect width="22" height="22" fill="white"/>
</clipPath>
</defs>
</svg>
