<svg width="22" height="22" viewBox="0 0 22 22" fill="none" xmlns="http://www.w3.org/2000/svg">
<path d="M4.94476 0.447945C3.82803 0.651281 2.85607 1.40238 2.36802 2.43566C2.0909 3.02492 2.04127 3.249 2.04127 3.9918C2.04127 4.7512 2.0909 4.96699 2.39283 5.58944C2.83125 6.49823 3.61296 7.16219 4.6056 7.46097C4.94476 7.56056 5.05229 7.57301 5.83814 7.59376L6.69429 7.61036H7.70006L8.80366 7.60206H13.4774V17.8104H10.8262L10.9585 17.6195C11.0288 17.5157 11.1653 17.2584 11.2646 17.051C11.8271 15.8392 12.158 14.0134 12.1704 12.034L12.1745 11.258L12.0587 11.1418L11.947 11.0256H3.55092L3.43925 11.1418C3.32757 11.2538 3.32344 11.2663 3.31103 11.8182L3.29448 12.3784L3.16627 12.3452C3.09182 12.3286 2.84779 12.312 2.62031 12.3161C2.14054 12.3161 1.87997 12.3991 1.54908 12.6523C1.04449 13.0382 0.81701 13.4822 0.788057 14.1254C0.763241 14.723 0.928682 15.1462 1.33815 15.5488C1.78484 15.9886 2.17776 16.109 3.20349 16.109H3.86939L3.91902 16.275C4.00588 16.5696 4.2499 17.1215 4.44016 17.4576C4.54356 17.6361 4.62628 17.7896 4.62628 17.7979C4.62628 17.8062 4.24163 17.8104 3.77426 17.8104C2.76094 17.8104 2.66167 17.8311 2.36388 18.1216C2.04954 18.4287 2.02059 18.5656 2.02059 19.7192C2.02059 20.7982 2.05368 20.989 2.2977 21.2588C2.38042 21.3501 2.52519 21.4663 2.61618 21.5161L2.78575 21.6074H19.5366L19.7724 21.4953C20.2315 21.2795 20.5417 20.8895 20.6285 20.4081C20.6534 20.2711 20.674 19.7275 20.674 19.2005V18.2378L18.7342 6.60198L18.9907 6.28245C19.2967 5.90067 19.5077 5.5106 19.6648 5.02923C19.7682 4.70555 19.7807 4.62256 19.7807 4.01255C19.7848 3.3237 19.7641 3.21581 19.5739 2.69709C19.1851 1.65966 18.2462 0.81312 17.1295 0.493592L16.8069 0.402298L11.0371 0.393998C6.21451 0.389848 5.2136 0.398148 4.94476 0.447945ZM16.8482 1.31109C17.7871 1.53932 18.5357 2.24477 18.8418 3.18261C18.9286 3.46064 18.9493 3.59343 18.9493 3.9918C18.9493 4.39848 18.9328 4.51882 18.8418 4.801C18.6929 5.25332 18.4737 5.61434 18.1469 5.93802C17.6754 6.41109 17.1543 6.65592 16.4553 6.73477C16.0003 6.78041 5.76782 6.78041 5.34181 6.73062C4.18373 6.59783 3.28208 5.83843 2.94706 4.718C2.84366 4.37358 2.84366 3.61003 2.94706 3.2656C3.28621 2.12858 4.2499 1.34013 5.39145 1.25714C5.59411 1.24469 8.19153 1.23224 11.1612 1.23639C16.0831 1.24054 16.5835 1.24469 16.8482 1.31109ZM18.8955 12.7394L19.8096 18.2295L19.7972 19.3043C19.7848 20.3209 19.7807 20.3832 19.6979 20.4952C19.6483 20.5575 19.549 20.6488 19.4705 20.6944C19.3298 20.7774 19.243 20.7774 11.2067 20.7774C5.71819 20.7774 3.0546 20.765 2.99669 20.7359C2.91397 20.6944 2.90984 20.6529 2.89743 19.7358C2.88916 18.8851 2.89743 18.7689 2.95533 18.7191C3.01324 18.6694 3.91902 18.6611 8.49346 18.6569C14.3956 18.6486 14.1391 18.6569 14.2508 18.4328C14.2922 18.3498 14.3046 17.2087 14.3046 12.9676V7.61036L15.5785 7.58961C16.9682 7.57301 17.1005 7.55226 17.7085 7.27838C17.8615 7.20783 17.9691 7.17879 17.9732 7.20368C17.9815 7.22858 18.3951 9.71841 18.8955 12.7394ZM11.3101 12.5195C11.2191 14.8558 10.7104 16.7314 9.9452 17.5531C9.70118 17.8187 9.77563 17.8104 7.70348 17.8104H5.81746L5.56102 17.5489C5.18051 17.1589 4.84549 16.4783 4.60974 15.6069C4.37399 14.7147 4.22922 13.6938 4.18786 12.561L4.15891 11.8555H11.339L11.3101 12.5195ZM2.95533 13.1834C3.067 13.2166 3.20763 13.2872 3.26967 13.337C3.36893 13.4241 3.38548 13.4739 3.42684 13.8474C3.45165 14.0756 3.50956 14.4698 3.55092 14.7271C3.59641 14.9844 3.63364 15.2043 3.63364 15.2168C3.63364 15.2292 3.36066 15.2375 3.02564 15.2375C2.33493 15.2375 2.18603 15.196 1.9296 14.9388C1.34228 14.3453 1.63594 13.3245 2.44246 13.1668C2.70303 13.1129 2.72785 13.117 2.95533 13.1834Z" fill="#181D22" stroke="#181D22" stroke-width="0.5"/>
</svg>
