<svg width="22" height="22" viewBox="0 0 22 22" fill="none" xmlns="http://www.w3.org/2000/svg">
<path d="M8.35542 1.40329C8.085 1.49038 7.87875 1.62788 7.6725 1.85704C7.57167 1.96246 6.71 3.04871 5.75208 4.26329L4.01042 6.47246H2.90583C1.93417 6.47246 1.76 6.48163 1.50792 6.56413C0.829583 6.77038 0.297917 7.30204 0.0916667 7.98038C0.00458333 8.25538 0 8.41579 0 10.8725C0 13.3291 0.00458333 13.4895 0.0916667 13.7645C0.297917 14.4429 0.829583 14.9745 1.50792 15.1808C1.76 15.2633 1.93417 15.2725 2.90583 15.2725H4.01042L5.84375 17.6145C6.85208 18.9025 7.75042 20.0208 7.83292 20.0987C8.10792 20.337 8.36458 20.4241 8.8 20.4287C9.13458 20.4287 9.22625 20.4104 9.45083 20.3004C9.60208 20.227 9.79917 20.0758 9.91833 19.9429C10.2758 19.5441 10.2667 19.645 10.2667 16.5466V13.8058H10.4867C11.3896 13.8012 12.4162 13.1412 12.8654 12.2704C13.1175 11.78 13.2 11.4408 13.2 10.8725C13.2 10.1437 12.9983 9.55704 12.5629 9.00246C12.0817 8.39746 11.1925 7.93913 10.5004 7.93913H10.2667V5.22121C10.2667 2.84246 10.2575 2.47579 10.1933 2.28329C10.0925 1.98538 9.735 1.60496 9.4325 1.47663C9.13458 1.34829 8.63042 1.31163 8.35542 1.40329ZM8.79083 14.8737L8.77708 18.8841L6.9575 16.565L5.13333 14.2412V10.8725V7.50371L6.9575 5.19371L8.77708 2.88371L8.79083 6.87579C8.79542 9.07121 8.79542 12.6691 8.79083 14.8737ZM3.66667 10.8725V13.8058H2.94708C2.54833 13.8058 2.14042 13.7829 2.04417 13.76C1.81042 13.7095 1.56292 13.462 1.5125 13.2283C1.4575 12.9945 1.4575 8.75038 1.5125 8.51663C1.56292 8.29204 1.81042 8.03538 2.02125 7.98496C2.10833 7.96663 2.51167 7.94829 2.92417 7.94371L3.66667 7.93913V10.8725ZM10.9587 9.62121C11.22 9.75871 11.4079 9.95579 11.5592 10.2445C11.6462 10.405 11.6646 10.5104 11.6646 10.8725C11.6646 11.2712 11.6508 11.3308 11.5271 11.5554C11.3117 11.9495 10.9083 12.2291 10.4913 12.2795L10.2667 12.307V10.8725V9.43788L10.4958 9.46538C10.6242 9.47913 10.8304 9.54788 10.9587 9.62121Z" fill="#181D22"/>
<path d="M17.9301 5.09759C17.8476 5.14801 17.7422 5.25342 17.6918 5.33593C17.6001 5.48259 17.6001 5.57884 17.6001 10.8726C17.6001 16.1663 17.6001 16.2626 17.6918 16.4093C17.8293 16.6293 18.0355 16.7393 18.3334 16.7393C18.6313 16.7393 18.8376 16.6293 18.9751 16.4093C19.0668 16.2626 19.0668 16.1663 19.0668 10.8726C19.0668 5.57884 19.0668 5.48259 18.9751 5.33593C18.8376 5.11592 18.6313 5.00593 18.3334 5.00593C18.1638 5.00593 18.0309 5.03343 17.9301 5.09759Z" fill="#181D22"/>
<path d="M20.8627 6.56413C20.7802 6.61454 20.6748 6.71996 20.6244 6.80246C20.5373 6.94913 20.5327 7.04079 20.5327 10.8725C20.5327 14.7041 20.5373 14.7958 20.6244 14.9425C20.7619 15.1625 20.9681 15.2725 21.266 15.2725C21.564 15.2725 21.7702 15.1625 21.9077 14.9425C21.9948 14.7958 21.9994 14.7041 21.9994 10.8725C21.9994 7.04079 21.9948 6.94913 21.9077 6.80246C21.7702 6.58246 21.564 6.47246 21.266 6.47246C21.0965 6.47246 20.9635 6.49996 20.8627 6.56413Z" fill="#181D22"/>
<path d="M14.996 8.76393C14.9135 8.81435 14.8081 8.91977 14.7577 9.00227C14.6706 9.14435 14.666 9.23602 14.666 10.8723C14.666 12.5085 14.6706 12.6002 14.7577 12.7423C14.8952 12.9623 15.1014 13.0723 15.3993 13.0723C15.6973 13.0723 15.9035 12.9623 16.041 12.7423C16.1281 12.6002 16.1327 12.5085 16.1327 10.8723C16.1327 9.23602 16.1281 9.14435 16.041 9.00227C15.9035 8.78227 15.6973 8.67227 15.3993 8.67227C15.2298 8.67227 15.0968 8.69977 14.996 8.76393Z" fill="#181D22"/>
</svg>
