<svg width="22" height="22" viewBox="0 0 22 22" fill="none" xmlns="http://www.w3.org/2000/svg">
<g clip-path="url(#clip0_187_8165)">
<path d="M16.2642 0.842827C15.7169 0.96266 15.2376 1.16238 14.7822 1.45398C14.6584 1.53387 13.8435 2.31278 12.8929 3.25547C11.0874 5.05297 11.0954 5.04099 11.1832 5.36853C11.2072 5.45242 11.2511 5.55228 11.2831 5.59622C11.335 5.66812 11.315 5.70407 10.9675 6.05957C10.7598 6.27128 10.5281 6.5469 10.4483 6.67072C9.91699 7.50556 9.91699 8.59605 10.4483 9.43887C10.656 9.76642 12.2977 11.3922 12.6053 11.5759C13.4121 12.0592 14.4826 12.0592 15.2695 11.5799C15.3974 11.504 15.645 11.3083 15.8208 11.1445L16.1363 10.8409L16.1483 13.5931L16.1603 16.3413L16.2522 16.4731C16.4479 16.7407 16.4399 16.7407 18.0577 16.7407C19.5037 16.7407 19.5156 16.7407 19.6594 16.6489C19.951 16.4691 19.9351 16.7647 19.9351 12.0992V7.909L20.1188 7.73325C20.5262 7.3338 20.9177 6.6188 21.1014 5.94373C21.2253 5.47638 21.2452 4.56166 21.1414 4.05436C20.8059 2.43262 19.5077 1.1504 17.8899 0.842827C17.4905 0.766932 16.6157 0.766932 16.2642 0.842827ZM17.5863 2.04116C18.6928 2.27284 19.5556 3.07173 19.8991 4.17819C20.0349 4.61758 20.0309 5.26867 19.8831 5.71605C19.6634 6.37913 19.5316 6.5469 18.0816 8.00487L16.7595 9.33102L14.7103 7.28187L12.6652 5.23672L14.0113 3.89858C14.934 2.98385 15.4333 2.5165 15.5891 2.42463C16.2562 2.03717 16.9432 1.90135 17.5863 2.04116ZM13.8435 8.17264L15.4413 9.77441L15.1178 10.086C14.7103 10.4814 14.5466 10.5893 14.227 10.6692C13.9594 10.7411 13.8276 10.7291 13.484 10.6212C13.3083 10.5653 13.1765 10.4535 12.3935 9.67455C11.4708 8.75982 11.383 8.64797 11.3031 8.24853C11.2511 7.9809 11.331 7.60542 11.4908 7.36176C11.5987 7.20199 12.1778 6.57486 12.2218 6.57486C12.2338 6.57486 12.9648 7.29386 13.8435 8.17264ZM18.6968 12.3468V15.5224H18.0377H17.3786V12.9979V10.4694L18.0257 9.82234C18.3852 9.46284 18.6808 9.17125 18.6848 9.17125C18.6928 9.17125 18.6968 10.6013 18.6968 12.3468Z" fill="#181D22"/>
<path d="M17.4746 3.68268C17.4067 3.71463 16.9473 4.15003 16.452 4.64933C15.4774 5.62797 15.4174 5.71585 15.4814 6.0394C15.5173 6.24312 15.753 6.47879 15.9567 6.51474C16.2842 6.57865 16.3681 6.51873 17.3468 5.54409C17.8461 5.04878 18.2815 4.58542 18.3174 4.51352C18.4572 4.22193 18.3534 3.86243 18.0897 3.69865C17.93 3.60279 17.6503 3.5948 17.4746 3.68268Z" fill="#181D22"/>
<path d="M2.35963 5.33244C2.27974 5.37238 2.18387 5.47624 2.13194 5.5761L2.04007 5.74786V9.93004V14.1122L1.93622 14.2081C1.56873 14.5436 1.08141 15.3745 0.893666 15.9896C0.7978 16.3132 0.785816 16.401 0.785816 17.0402C0.781822 17.871 0.845733 18.1706 1.16129 18.8217C1.60468 19.7324 2.29971 20.4235 3.20246 20.8549C3.84956 21.1584 4.1092 21.2144 4.8961 21.2144C5.67102 21.2144 5.99857 21.1504 6.57377 20.8788C7.24084 20.5673 7.40861 20.4274 9.10225 18.7418C9.98902 17.859 10.74 17.0921 10.7719 17.0322C10.8518 16.8804 10.8398 16.6447 10.748 16.465L10.6721 16.3092L11.0595 15.9017C11.6747 15.2586 11.8984 14.7993 11.9343 14.0803C11.9623 13.593 11.8824 13.2055 11.6587 12.7541C11.5069 12.4505 11.427 12.3587 10.5323 11.4639C9.62153 10.5532 9.54963 10.4933 9.23008 10.3335C8.46314 9.958 7.64428 9.958 6.88933 10.3255C6.65366 10.4453 6.46991 10.5771 6.20229 10.8328L5.8348 11.1763V8.42014V5.66797L5.74292 5.53216C5.56317 5.26054 5.5432 5.25654 3.93743 5.25654C2.61128 5.25654 2.48745 5.26054 2.35963 5.33244ZM4.59652 9.0233V11.5478L3.93743 12.2069L3.27835 12.866V9.67839V6.49482H3.93743H4.59652V9.0233ZM8.63091 11.428C8.79468 11.5078 9.05832 11.7435 9.65349 12.3427C10.6281 13.3133 10.688 13.4052 10.688 13.9445C10.688 14.4038 10.6002 14.5796 10.1208 15.0829L9.77332 15.4464L8.16356 13.8366L6.5498 12.2269L6.9133 11.8793C7.42459 11.384 7.63629 11.2842 8.11163 11.3041C8.34331 11.3121 8.45915 11.3401 8.63091 11.428ZM7.29277 14.7234L9.32994 16.7605L8.09166 18.0028C7.40861 18.6859 6.74553 19.321 6.61371 19.4169C5.63507 20.1239 4.48068 20.1878 3.47807 19.5886C3.07064 19.345 2.75508 19.0454 2.49544 18.6499C1.82437 17.6473 1.83636 16.4769 2.5234 15.4504C2.63525 15.2826 5.1837 12.6862 5.23563 12.6862C5.24761 12.6862 6.17432 13.6009 7.29277 14.7234Z" fill="#181D22"/>
<path d="M5.61062 15.546C5.54271 15.578 5.08335 16.0134 4.58804 16.5127C3.62138 17.4873 3.56546 17.5672 3.61739 17.8828C3.65334 18.0945 3.88502 18.3342 4.08873 18.3741C4.42427 18.438 4.50416 18.3781 5.4828 17.4074C5.9821 16.9121 6.4175 16.4488 6.45345 16.3769C6.59325 16.0853 6.4894 15.7258 6.22576 15.562C6.06599 15.4661 5.78637 15.4581 5.61062 15.546Z" fill="#181D22"/>
</g>
<defs>
<clipPath id="clip0_187_8165">
<rect width="22" height="22" fill="white"/>
</clipPath>
</defs>
</svg>
