<svg width="22" height="22" viewBox="0 0 22 22" fill="none" xmlns="http://www.w3.org/2000/svg">
<g clip-path="url(#clip0_187_8221)">
<path fill-rule="evenodd" clip-rule="evenodd" d="M10.1746 0.797543C8.60785 0.976028 7.60012 1.26082 6.40848 1.86194C5.36983 2.38584 4.65697 2.90835 3.77706 3.7907C2.89467 4.67561 2.3767 5.38703 1.84889 6.43899C1.33845 7.45627 1.04935 8.39461 0.842116 9.70667C0.774884 10.1323 0.774884 11.8788 0.842116 12.3044C1.14958 14.251 1.75196 15.7186 2.84681 17.1885C3.2219 17.692 4.30396 18.7771 4.80606 19.1532C6.06351 20.0951 7.50193 20.7485 8.93915 21.0308C9.7765 21.1952 9.98736 21.2142 10.9717 21.2142C11.9559 21.2142 12.1668 21.1952 13.0042 21.0308C14.4414 20.7485 15.8798 20.0951 17.1372 19.1532C17.6394 18.7771 18.7214 17.692 19.0965 17.1885C20.2192 15.6812 20.9257 13.9197 21.0964 12.2022C21.1214 11.9507 21.1581 11.7137 21.1779 11.6755C21.2287 11.5775 21.2251 10.2745 21.174 10.3061C21.15 10.3211 21.1342 10.2676 21.1342 10.1715C21.1342 10.0839 21.1156 9.87153 21.0928 9.69956C20.8576 7.92294 20.1888 6.28908 19.0965 4.8226C18.7214 4.31908 17.6394 3.23398 17.1372 2.85783C15.7127 1.7908 14.2077 1.15739 12.422 0.873397C12.0476 0.813849 10.4922 0.761334 10.1746 0.797543ZM9.81592 1.87405C5.55542 2.44575 2.29934 5.79571 1.84299 10.0768C1.78321 10.6377 1.81437 11.8736 1.90217 12.4243C2.31194 14.9943 3.78467 17.278 5.95017 18.7013C7.18665 19.5141 8.5499 19.9996 10.0456 20.1599C10.6048 20.2198 11.8373 20.1886 12.3864 20.1005C16.1934 19.4902 19.2381 16.5543 19.9743 12.784C20.108 12.0995 20.1498 11.5365 20.1266 10.7353C20.0851 9.30366 19.8199 8.21916 19.2004 6.94795C17.8982 4.27552 15.3489 2.39056 12.3864 1.90973C11.834 1.82005 10.3698 1.79975 9.81592 1.87405ZM10.4536 5.03446C8.94226 5.21542 7.7862 5.76522 6.76612 6.78817C5.87548 7.68127 5.3501 8.66705 5.10456 9.90554C4.98134 10.5272 4.98134 11.4838 5.10456 12.1055C5.3501 13.344 5.87548 14.3298 6.76612 15.2229C7.65636 16.1157 8.63706 16.6415 9.87474 16.8896C10.5157 17.0181 11.5213 17.0094 12.1672 16.8698C13.3583 16.6123 14.3105 16.0911 15.1767 15.2224C16.043 14.3537 16.5627 13.3989 16.8195 12.2045C16.9587 11.5567 16.9674 10.5483 16.8392 9.90554C16.5943 8.67701 16.068 7.68411 15.1967 6.80663C14.3185 5.92228 13.3493 5.39071 12.1672 5.14512C11.7231 5.05288 10.7985 4.99317 10.4536 5.03446ZM10.2344 6.10772C9.70596 6.19057 8.96665 6.42972 8.98801 6.51089C8.99403 6.53363 9.28587 7.05182 9.63658 7.66233L10.2742 8.7724L10.4934 8.74019C10.7734 8.69911 11.1699 8.69911 11.4499 8.74019L11.6691 8.7724L12.3067 7.66233C12.6574 7.05182 12.9494 6.53323 12.9555 6.50993C12.9616 6.48667 12.8809 6.43488 12.7762 6.39483C11.9603 6.08306 11.0487 5.98007 10.2344 6.10772ZM7.75384 7.25009C6.96068 7.90927 6.35982 8.93666 6.1301 10.0264C6.09766 10.1803 6.0708 10.3466 6.0704 10.3961L6.06973 10.486H7.39751H8.72534L8.79161 10.2751C8.8706 10.0238 9.09585 9.63645 9.26582 9.45953C9.35163 9.3702 9.3798 9.31061 9.3604 9.2597C9.31688 9.14564 8.08466 7.01018 8.06238 7.01022C8.05142 7.01022 7.91257 7.11816 7.75384 7.25009ZM13.2358 8.09891C12.8919 8.69743 12.5981 9.21977 12.5829 9.2597C12.5635 9.31061 12.5917 9.37024 12.6775 9.45953C12.8475 9.63645 13.0727 10.0238 13.1517 10.2751L13.218 10.486H14.5458H15.8736L15.8729 10.3961C15.8725 10.3466 15.8456 10.1803 15.8132 10.0264C15.5835 8.93666 14.9826 7.90927 14.1895 7.25009C14.0307 7.11816 13.8919 7.01034 13.8809 7.01046C13.87 7.01062 13.5797 7.50043 13.2358 8.09891ZM10.5003 9.81262C10.209 9.92484 9.89048 10.2484 9.78013 10.5442C9.46656 11.3846 10.0827 12.2844 10.9717 12.2844C11.3196 12.2844 11.6118 12.1603 11.8675 11.9039C12.3794 11.3905 12.3794 10.6206 11.8675 10.1072C11.5008 9.73948 10.9809 9.62746 10.5003 9.81262ZM0.785645 11.0055C0.785645 11.3902 0.791622 11.5476 0.798955 11.3552C0.806249 11.1629 0.806249 10.8482 0.798955 10.6558C0.791622 10.4635 0.785645 10.6209 0.785645 11.0055ZM6.0704 11.615C6.0708 11.6645 6.09766 11.8308 6.1301 11.9847C6.36189 13.0843 6.98467 14.1379 7.78728 14.7882C7.93991 14.9118 8.07079 15.0061 8.07816 14.9975C8.10989 14.961 9.30365 12.8749 9.34529 12.7832C9.38614 12.6932 9.37757 12.6679 9.26742 12.5532C9.09601 12.3748 8.87088 11.9881 8.79161 11.736L8.72534 11.5251H7.39751H6.06973L6.0704 11.615ZM13.1517 11.736C13.0724 11.9881 12.8473 12.3748 12.6759 12.5532C12.5657 12.6679 12.5571 12.6932 12.5981 12.7834C12.6386 12.8726 13.8323 14.9578 13.8656 14.9975C13.8727 15.0061 14.0034 14.9118 14.156 14.7882C14.9586 14.1379 15.5814 13.0843 15.8132 11.9847C15.8456 11.8308 15.8725 11.6645 15.8729 11.615L15.8736 11.5251H14.5458H13.218L13.1517 11.736ZM9.63658 14.3488C9.28587 14.9593 8.99391 15.4778 8.98777 15.5011C8.96557 15.5854 9.69209 15.8156 10.2543 15.9023C10.7352 15.9765 11.2081 15.9765 11.689 15.9023C12.2512 15.8156 12.9777 15.5854 12.9555 15.5011C12.9494 15.4778 12.6574 14.9593 12.3067 14.3488L11.6691 13.2387L11.4499 13.2709C11.3293 13.2886 11.1141 13.3031 10.9717 13.3031C10.8292 13.3031 10.614 13.2886 10.4934 13.2709L10.2742 13.2387L9.63658 14.3488Z" fill="#181D22" stroke="#181D22" stroke-width="0.5"/>
</g>
<defs>
<clipPath id="clip0_187_8221">
<rect width="22" height="22" fill="white"/>
</clipPath>
</defs>
</svg>
