<svg width="22" height="22" viewBox="0 0 22 22" fill="none" xmlns="http://www.w3.org/2000/svg">
<g clip-path="url(#clip0_187_8181)">
<path d="M12.4951 0.869722C11.8337 1.08411 11.2681 1.66343 11.0719 2.32941C10.967 2.68064 10.9761 3.3375 11.0902 3.65681L11.1769 3.90769L10.4105 4.68315C9.9863 5.10737 9.61682 5.50422 9.58945 5.55896C9.55752 5.62282 9.53927 6.02879 9.53927 6.69933V7.73936L8.87329 8.40078C8.50837 8.7657 8.17994 9.11693 8.14345 9.18536C8.10696 9.25378 8.07959 9.41799 8.07959 9.55028C8.07959 9.99274 8.35784 10.271 8.80031 10.271C8.93259 10.271 9.08768 10.2482 9.14242 10.2208C9.28383 10.1478 10.8575 8.58324 10.9351 8.43727C10.9853 8.34148 10.999 8.09059 10.999 7.27408V6.23406L11.6284 5.60913L12.2534 4.9842L12.5043 5.07087C12.8601 5.19403 13.5078 5.19403 13.8864 5.06631C14.3745 4.9021 14.8261 4.5463 15.0906 4.11296C15.3871 3.62944 15.4692 2.83117 15.2822 2.27467C15.0541 1.59044 14.5022 1.05218 13.8317 0.856038C13.4895 0.755685 12.8327 0.764808 12.4951 0.869722ZM13.5443 2.37958C14.1373 2.73994 13.8818 3.65681 13.1885 3.65681C12.8008 3.65681 12.5043 3.36031 12.5043 2.97258C12.5043 2.58485 12.8008 2.28835 13.1885 2.28835C13.3116 2.28835 13.453 2.32484 13.5443 2.37958Z" fill="#181D22"/>
<path d="M18.334 0.869791C17.6726 1.08418 17.107 1.66349 16.9108 2.32947C16.8059 2.68071 16.815 3.33757 16.9291 3.65687L17.0157 3.90776L12.9651 7.9675C10.7345 10.2026 8.88712 12.0729 8.85975 12.1276C8.83238 12.1823 8.80957 12.3374 8.80957 12.4697C8.80957 12.9122 9.08782 13.1904 9.53029 13.1904C9.66257 13.1904 9.81766 13.1676 9.8724 13.1403C9.92714 13.1129 11.7974 11.2655 14.0325 9.03489L18.0922 4.98427L18.3431 5.07094C18.6624 5.18498 19.3193 5.1941 19.6705 5.08919C20.1449 4.95234 20.6193 4.59198 20.893 4.16776C21.3309 3.47441 21.3309 2.47088 20.893 1.77753C20.6193 1.35331 20.1449 0.992952 19.6705 0.856107C19.3284 0.755754 18.6716 0.764876 18.334 0.869791ZM19.3832 2.37965C19.9761 2.74001 19.7207 3.65687 19.0274 3.65687C18.6396 3.65687 18.3431 3.36038 18.3431 2.97265C18.3431 2.58492 18.6396 2.28842 19.0274 2.28842C19.1505 2.28842 19.2919 2.32491 19.3832 2.37965Z" fill="#181D22"/>
<path d="M7.00777 1.57683C6.74776 1.65894 6.03617 2.02842 5.56633 2.31579C4.56736 2.93616 4.41683 3.18704 4.68596 3.81653C4.92772 4.38672 4.93228 4.3183 4.6221 4.62392C4.31648 4.9341 4.3849 4.92954 3.81471 4.68778C3.18066 4.41865 2.93434 4.56462 2.30485 5.5864C2.15888 5.81447 1.93081 6.23869 1.79396 6.52151C1.39711 7.32889 1.43816 7.57521 2.04941 8.0268L2.40521 8.28681L2.35047 8.49208C2.31854 8.60612 2.26836 8.77945 2.24555 8.87981L2.19538 9.06683L1.73922 9.11701C1.36518 9.15806 1.25114 9.18999 1.12798 9.28578C0.840607 9.50473 0.813238 9.63246 0.79043 10.75C0.7585 12.5883 0.863415 12.8164 1.81677 12.8985L2.19538 12.9304L2.24555 13.1174C2.26836 13.2178 2.31854 13.3957 2.35047 13.5097L2.40521 13.715L2.04941 13.975C1.43816 14.4266 1.39711 14.6729 1.79396 15.4803C1.93081 15.7631 2.15888 16.1873 2.30485 16.4154C2.93434 17.4372 3.18066 17.5832 3.81471 17.314C4.3849 17.0723 4.31648 17.0677 4.6221 17.3779C4.93228 17.6835 4.92772 17.6151 4.68596 18.1853C4.41683 18.8193 4.5628 19.0657 5.58458 19.6951C5.81265 19.8411 6.23687 20.0692 6.51969 20.206C7.32708 20.6029 7.57796 20.5573 8.02499 19.9506L8.28499 19.5948L8.49026 19.6495C8.6043 19.6815 8.77764 19.7316 8.87799 19.7544L9.06501 19.8046L9.11519 20.2608C9.15624 20.6348 9.18817 20.7489 9.28396 20.872C9.50292 21.1594 9.63064 21.1868 10.7482 21.2096C12.5865 21.2415 12.8146 21.1366 12.8967 20.1832L12.9286 19.8046L13.1156 19.7544C13.216 19.7316 13.3939 19.6815 13.5079 19.6495L13.7132 19.5948L13.9732 19.9506C14.4202 20.5573 14.6711 20.6029 15.4785 20.206C15.7613 20.0692 16.1855 19.8411 16.4136 19.6951C17.4354 19.0657 17.5814 18.8193 17.3122 18.1853C17.0705 17.6151 17.0659 17.6835 17.3761 17.3779C17.6817 17.0677 17.6133 17.0723 18.1835 17.314C18.8175 17.5832 19.0638 17.4372 19.6933 16.4154C19.8393 16.1873 20.0674 15.7631 20.2042 15.4803C20.414 15.0607 20.4597 14.9192 20.4551 14.7413C20.4505 14.4722 20.3365 14.2578 20.1175 14.1119C19.9898 14.0206 19.9168 14.0069 19.6888 14.0206C19.301 14.0434 19.1459 14.162 18.9498 14.5999C18.8631 14.7915 18.6898 15.1245 18.5666 15.3435L18.3386 15.7403L17.9964 15.5807C17.6042 15.4028 17.3077 15.38 17.0796 15.5077C17.002 15.5487 16.7831 15.7586 16.5961 15.973C16.409 16.1873 16.1034 16.4975 15.9118 16.6572C15.7203 16.8168 15.5332 17.013 15.4922 17.0951C15.3781 17.3368 15.4055 17.6151 15.5788 17.9983L15.7339 18.3404L15.369 18.5502C15.1683 18.6688 14.9904 18.7464 14.9722 18.7235C14.9539 18.7053 14.8399 18.5593 14.7213 18.3997C14.329 17.8797 14.1785 17.8477 13.3665 18.1077C13.0563 18.2035 12.6093 18.3221 12.3767 18.3677C11.6924 18.5 11.5282 18.6734 11.4735 19.3348L11.4416 19.7043L11.2226 19.7225C11.0994 19.7271 10.8987 19.7271 10.7756 19.7225L10.5566 19.7043L10.5247 19.3348C10.47 18.6734 10.3057 18.5 9.62151 18.3677C9.38888 18.3221 8.94185 18.2035 8.63167 18.1077C7.81972 17.8477 7.66919 17.8797 7.2769 18.3997C7.1583 18.5593 7.04426 18.7053 7.02602 18.7235C7.00777 18.7464 6.82987 18.6688 6.62916 18.5502L6.26424 18.3404L6.41933 17.9983C6.59723 17.606 6.62004 17.3095 6.49688 17.0814C6.45126 17.0039 6.24144 16.7849 6.02704 16.5979C5.81265 16.4109 5.50247 16.1052 5.34282 15.9137C5.18317 15.7221 4.98702 15.5351 4.90491 15.494C4.66315 15.38 4.3849 15.4073 4.00173 15.5807L3.65962 15.7358L3.44979 15.3708C3.33119 15.1701 3.25365 14.9922 3.27645 14.974C3.2947 14.9557 3.43611 14.8463 3.5912 14.7277C4.11121 14.3354 4.1477 14.1712 3.89226 13.3683C3.79647 13.0582 3.67787 12.6111 3.63225 12.3785C3.49997 11.6943 3.32663 11.53 2.66521 11.4753L2.28661 11.4434V11.0009V10.5584L2.66521 10.5265C3.32663 10.4718 3.49997 10.3076 3.63225 9.62333C3.67787 9.3907 3.79647 8.94367 3.89226 8.63348C4.1477 7.83066 4.11121 7.66644 3.5912 7.27415C3.43611 7.15556 3.2947 7.04608 3.27645 7.02783C3.25365 7.00959 3.33119 6.83169 3.44979 6.63098L3.65962 6.26606L4.00173 6.42115C4.39402 6.59905 4.69052 6.62186 4.9186 6.49414C4.99614 6.45308 5.2151 6.24325 5.40212 6.02886C5.58914 5.81447 5.89476 5.50429 6.08634 5.34464C6.27793 5.18498 6.46495 4.98884 6.506 4.90673C6.62004 4.66497 6.59267 4.38672 6.41933 4.00355L6.25968 3.66144L6.65653 3.43336C6.87549 3.3102 7.20848 3.13687 7.40006 3.0502C7.83796 2.85405 7.95656 2.69896 7.97937 2.31123C7.99306 2.08316 7.97937 2.01017 7.88814 1.88245C7.692 1.59051 7.34076 1.46735 7.00777 1.57683Z" fill="#181D22"/>
<path d="M18.3336 6.70866C17.6722 6.92305 17.1065 7.50236 16.9104 8.16834C16.8055 8.51958 16.8146 9.17644 16.9286 9.49574L17.0153 9.74663L16.3904 10.3716L15.7655 11.001H14.7254C14.0549 11.001 13.6489 11.0193 13.5851 11.0512C13.4436 11.1242 11.8699 12.6888 11.7924 12.8348C11.7559 12.9032 11.7285 13.0674 11.7285 13.1997C11.7285 13.6422 12.0068 13.9204 12.4492 13.9204C12.5815 13.9204 12.7457 13.893 12.8142 13.8565C12.8826 13.8201 13.2338 13.4916 13.5987 13.1267L14.2602 12.4607H15.3002C15.9707 12.4607 16.3767 12.4425 16.4406 12.4106C16.4953 12.3832 16.8921 12.0137 17.3164 11.5895L18.0918 10.8231L18.3427 10.9098C18.662 11.0239 19.3189 11.033 19.6701 10.9281C20.1445 10.7912 20.6189 10.4309 20.8926 10.0066C21.3305 9.31328 21.3305 8.30975 20.8926 7.6164C20.6189 7.19218 20.1445 6.83182 19.6701 6.69498C19.328 6.59462 18.6711 6.60375 18.3336 6.70866ZM19.3827 8.21852C19.9757 8.57888 19.7203 9.49574 19.0269 9.49574C18.6392 9.49574 18.3427 9.19925 18.3427 8.81152C18.3427 8.42379 18.6392 8.12729 19.0269 8.12729C19.1501 8.12729 19.2915 8.16378 19.3827 8.21852Z" fill="#181D22"/>
<path d="M7.05318 6.72697C6.743 6.87294 6.1272 7.6484 5.77596 8.33719C5.35174 9.16282 5.16016 10.0021 5.16016 11.0011C5.16016 12.6524 5.70754 13.9752 6.86616 15.1338C8.02479 16.2879 9.35675 16.8398 10.9989 16.8398C11.3501 16.8398 11.7972 16.8079 12.0161 16.7714C13.161 16.5707 14.2877 15.996 15.0586 15.2205C15.3506 14.9286 15.3506 14.924 15.3688 14.6321C15.3871 14.3858 15.3734 14.3082 15.2867 14.1714C15.0221 13.7426 14.3835 13.7198 14.0095 14.1257C13.6947 14.4679 12.9603 14.9286 12.4403 15.1065C11.528 15.4212 10.4652 15.4212 9.56658 15.1065C8.32128 14.6777 7.26301 13.592 6.85704 12.3239C6.71107 11.8769 6.66545 11.5394 6.66545 10.9737C6.66545 10.2074 6.81142 9.61897 7.16722 8.96211C7.33144 8.65649 7.43179 8.51509 7.93355 7.89472C8.06128 7.73507 8.07952 7.67577 8.07952 7.44769C8.07952 7.16032 7.97917 6.95961 7.75109 6.79084C7.60056 6.6768 7.23564 6.64487 7.05318 6.72697Z" fill="#181D22"/>
</g>
<defs>
<clipPath id="clip0_187_8181">
<rect width="22" height="22" fill="white"/>
</clipPath>
</defs>
</svg>
