<svg width="22" height="22" viewBox="0 0 22 22" fill="none" xmlns="http://www.w3.org/2000/svg">
<g clip-path="url(#clip0_187_8191)">
<path d="M4.15078 0.0816402C4.08633 0.124609 3.9918 0.219141 3.94883 0.283594C3.87148 0.399609 3.86719 0.515625 3.86719 2.13555V3.86719H3.36016C2.96914 3.86719 2.79297 3.88437 2.6125 3.94883C2.01953 4.15078 1.57266 4.59766 1.3707 5.18633C1.29766 5.40117 1.28906 5.55156 1.28906 6.62148V7.81602L1.10859 7.89766C0.640234 8.1082 0.236328 8.56367 0.0859375 9.05352C0.00429688 9.32422 0 9.44883 0 13.5953C0 17.6859 0.00429688 17.8707 0.0816406 18.0984C0.283594 18.6914 0.730469 19.1383 1.31914 19.3402C1.53398 19.4133 1.68438 19.4219 2.71563 19.4219H3.86719V20.5047C3.86719 21.7035 3.87578 21.7336 4.15078 21.9184C4.27109 21.9957 4.48594 22 11 22C17.5141 22 17.7289 21.9957 17.8492 21.9184C18.1242 21.7336 18.1328 21.7035 18.1328 20.5047V19.4219H19.2844C20.3156 19.4219 20.466 19.4133 20.6809 19.3402C21.2695 19.1383 21.7164 18.6914 21.9184 18.0984C21.9957 17.8707 22 17.6859 22 13.5953C22 9.44883 21.9957 9.32422 21.9141 9.05352C21.7637 8.56367 21.3598 8.1082 20.8957 7.89766L20.7109 7.81602V6.62148C20.7109 5.55156 20.7023 5.40117 20.6293 5.18633C20.4273 4.59766 19.9805 4.15078 19.3875 3.94883C19.1941 3.88008 19.0266 3.86719 18.4809 3.86719H17.8105L16.0059 2.0582C15.0133 1.06133 14.1238 0.193359 14.0336 0.124609L13.866 0H9.0707C4.44727 0 4.27109 0.00429726 4.15078 0.0816402ZM12.9766 3.01641C12.9766 4.64062 12.9809 4.75664 13.0582 4.87266C13.1012 4.93711 13.1957 5.03164 13.2602 5.07461C13.3762 5.15195 13.4922 5.15625 15.1164 5.15625H16.8438V6.44531V7.73438H11H5.15625V4.51172V1.28906H9.06641H12.9766V3.01641ZM15.082 3.07227L15.877 3.86719H15.0691H14.2656V3.07227C14.2656 2.63398 14.2699 2.27734 14.2785 2.27734C14.2828 2.27734 14.6438 2.63398 15.082 3.07227ZM3.86719 6.44531V7.73438H3.21836H2.56953L2.58672 6.69023C2.59961 5.70625 2.60391 5.6418 2.69414 5.5C2.85742 5.24219 3.04219 5.16914 3.55781 5.16055L3.86719 5.15625V6.44531ZM19.0824 5.27656C19.3832 5.46133 19.4004 5.53008 19.4133 6.69023L19.4305 7.73438H18.7816H18.1328V6.44102V5.14336L18.5367 5.16484C18.8461 5.18203 18.975 5.20781 19.0824 5.27656ZM20.3672 9.13945C20.4488 9.19102 20.5562 9.29844 20.6035 9.37578C20.6895 9.51328 20.6895 9.59492 20.6895 13.5781C20.6895 17.5613 20.6895 17.643 20.6035 17.7805C20.5562 17.8578 20.4488 17.9652 20.3672 18.0168C20.2254 18.107 20.1566 18.1113 19.177 18.1242L18.1328 18.1414V16.2035V14.2656H18.5754C18.932 14.2656 19.0352 14.2484 19.1383 14.184C19.3359 14.0508 19.4219 13.8875 19.4219 13.6211C19.4219 13.3547 19.3359 13.1914 19.1383 13.0582C19.018 12.9809 18.7773 12.9766 11 12.9766C3.22266 12.9766 2.98203 12.9809 2.86172 13.0582C2.66406 13.1914 2.57812 13.3547 2.57812 13.6211C2.57812 13.8875 2.66406 14.0508 2.86172 14.184C2.96484 14.2484 3.06797 14.2656 3.42891 14.2656H3.86719V16.2035V18.1414L2.82734 18.1242C1.65859 18.1113 1.59414 18.0941 1.40508 17.7891L1.31055 17.6387V13.5781V9.51758L1.40508 9.36719C1.5082 9.19961 1.63281 9.10938 1.82617 9.06211C1.89922 9.04492 6.06289 9.03633 11.0859 9.03633L20.2168 9.04492L20.3672 9.13945ZM16.8438 17.4883V20.7109H11H5.15625V17.4883V14.2656H11H16.8438V17.4883Z" fill="#181D22" stroke="#181D22" stroke-width="0.1"/>
</g>
<defs>
<clipPath id="clip0_187_8191">
<rect width="22" height="22" fill="white"/>
</clipPath>
</defs>
</svg>
