<svg width="22" height="22" viewBox="0 0 22 22" fill="none" xmlns="http://www.w3.org/2000/svg">
<path d="M2.35512 2.25132C1.84501 2.24883 1.57129 2.52446 1.57129 3.03458C1.57129 3.44686 1.90551 3.78109 2.3178 3.78109H2.39836C3.33284 3.78109 3.38923 3.78914 3.59331 3.96906C3.66044 4.03082 3.73831 4.13554 3.77591 4.2161L3.84035 4.35842L3.84841 12.0007L3.85326 18.8965C3.85355 19.308 4.18879 19.6407 4.60029 19.6377C5.01281 19.6347 5.34647 19.301 5.3494 18.8885L5.35217 18.4991L5.35754 17.3686H6.10942L6.86667 17.374H12.6917H18.1932L18.7786 17.3606C18.7786 17.3606 19.3882 17.3418 19.5466 17.2934C20.3656 17.041 20.9268 16.4637 21.1551 15.6393L21.2141 15.4218V11.3267C21.2141 7.50021 21.2115 7.21825 21.1658 7.04639C21.0557 6.61943 20.8489 6.25692 20.5375 5.9508C20.2098 5.62588 19.8393 5.42448 19.4177 5.33587C19.1814 5.28753 18.9102 5.28485 12.2668 5.28485H5.35754V4.79344C5.35754 4.2161 5.30921 3.93146 5.15883 3.60923C5.03262 3.32996 4.86882 3.10976 4.62446 2.87883C4.27806 2.54854 3.83498 2.33909 3.34358 2.28001C3.21697 2.2635 2.76739 2.25333 2.35512 2.25132ZM19.2619 6.86648C19.3425 6.90407 19.4472 6.98195 19.509 7.04908C19.7131 7.28001 19.6996 6.96315 19.6916 11.3804L19.6835 15.3412L19.6245 15.4487C19.5466 15.5937 19.415 15.7145 19.2539 15.7897L19.1196 15.8514L12.2399 15.8595L5.35754 15.8649V11.3267V6.78861L12.2399 6.79398L19.1196 6.80203L19.2619 6.86648Z" fill="#181D22"/>
<path d="M14.8507 7.55664C14.7917 7.5647 14.6386 7.58618 14.5124 7.60766C13.6907 7.74461 12.8368 8.23602 12.3024 8.88049C11.333 10.0432 11.1263 11.6007 11.7627 12.9326C12.2863 14.0255 13.2584 14.7881 14.4479 15.0352C14.8642 15.1211 15.4764 15.1211 15.898 15.0352C16.5827 14.8928 17.1493 14.6109 17.6649 14.1624C18.1912 13.7006 18.5618 13.1286 18.782 12.4465C18.9163 12.0276 18.9539 11.7108 18.9377 11.1925C18.9163 10.5615 18.8276 10.2016 18.5537 9.64579C18.0328 8.59316 16.9936 7.81174 15.8443 7.60766C15.5999 7.5647 15.0468 7.53516 14.8507 7.55664ZM15.8899 8.39714C16.1719 8.46964 16.478 8.59585 16.7009 8.72743L16.8889 8.83752L16.8244 8.88049C16.6821 8.97179 16.1746 9.4256 15.7879 9.80154L15.3824 10.199L15.2858 9.85793C15.1783 9.47394 15.1032 9.14633 15.0253 8.71132C14.9447 8.26556 14.9098 8.30852 15.3287 8.32732C15.5543 8.33538 15.7584 8.36223 15.8899 8.39714ZM13.8814 8.78113C13.9216 9.098 14.123 9.96803 14.2519 10.395C14.2815 10.4943 14.3029 10.583 14.2976 10.5856C14.2573 10.6232 12.622 10.1345 12.5119 10.0513C12.4716 10.0244 12.4743 10.011 12.528 9.9009C12.7267 9.51153 13.1053 9.10068 13.5188 8.82678C13.6719 8.72474 13.8142 8.6415 13.8303 8.6415C13.8491 8.6415 13.8706 8.70057 13.8814 8.78113ZM17.7965 9.82839C18.0382 10.2554 18.1724 10.7441 18.1778 11.2194C18.1805 11.4852 18.1778 11.5013 18.1268 11.496C18.0972 11.4933 17.8609 11.4181 17.6032 11.3295C17.3454 11.2409 16.9479 11.12 16.7197 11.0609C16.4941 11.0019 16.3035 10.9482 16.2954 10.9428C16.2498 10.8971 17.587 9.66191 17.681 9.66191C17.6918 9.66191 17.7428 9.73709 17.7965 9.82839ZM12.9308 11.4127C13.2127 11.4986 13.586 11.5953 13.9055 11.6624L14.115 11.7081L13.9539 11.8853C13.6665 12.2076 12.8771 12.9433 12.7374 13.0212C12.6998 13.0427 12.673 13.0131 12.5817 12.8601C12.4394 12.6211 12.3239 12.3472 12.2568 12.084C12.1923 11.8316 12.144 11.3805 12.1655 11.2462L12.1816 11.1469L12.4286 11.2409C12.5656 11.2919 12.7911 11.3671 12.9308 11.4127ZM16.4619 12.17C17.0742 12.3338 17.8717 12.6103 17.8717 12.6641C17.8717 12.6748 17.8099 12.7876 17.7321 12.9111C17.5441 13.2199 17.0795 13.6845 16.7707 13.8724C16.6096 13.9718 16.5398 14.0013 16.5264 13.9798C16.5183 13.961 16.4941 13.8483 16.4753 13.7301C16.4377 13.4831 16.1826 12.4627 16.1021 12.2317C16.0645 12.1243 16.0591 12.0787 16.0806 12.0787C16.0994 12.0787 16.2713 12.1216 16.4619 12.17ZM15.0736 12.7688C15.2294 13.3139 15.4388 14.2672 15.412 14.3128C15.3878 14.3477 14.8883 14.337 14.6467 14.294C14.2949 14.2323 13.7901 14.0389 13.5887 13.8885C13.5376 13.8483 13.5403 13.8429 13.6692 13.7355C13.9512 13.4992 14.4453 13.0319 14.695 12.7607C14.8373 12.6077 14.9635 12.4815 14.9743 12.4815C14.9823 12.4815 15.028 12.6103 15.0736 12.7688Z" fill="#181D22"/>
<path d="M6.86133 9.05745C6.86133 9.48011 7.20397 9.82275 7.62663 9.82275H8.37851H9.13039C9.55306 9.82275 9.8957 9.48011 9.8957 9.05745C9.8957 8.63478 9.55306 8.29214 9.13039 8.29214H8.37851H7.62663C7.20397 8.29214 6.86133 8.63478 6.86133 9.05745Z" fill="#181D22"/>
<path d="M6.86133 11.3267C6.86133 11.742 7.19796 12.0786 7.61321 12.0786H8.37851H9.14382C9.55907 12.0786 9.8957 11.742 9.8957 11.3267C9.8957 10.9115 9.55907 10.5749 9.14382 10.5749H8.37851H7.61321C7.19796 10.5749 6.86133 10.9115 6.86133 11.3267Z" fill="#181D22"/>
<path d="M6.86133 13.596C6.86133 14.0187 7.20397 14.3613 7.62663 14.3613H8.37851H9.13039C9.55306 14.3613 9.8957 14.0187 9.8957 13.596C9.8957 13.1734 9.55306 12.8307 9.13039 12.8307H8.37851H7.62663C7.20397 12.8307 6.86133 13.1734 6.86133 13.596Z" fill="#181D22"/>
</svg>
