<svg width="183" height="42" viewBox="0 0 183 42" fill="none" xmlns="http://www.w3.org/2000/svg">
<rect width="51" height="42" fill="#C61D33"/>
<mask id="path-2-outside-1_13_98" maskUnits="userSpaceOnUse" x="58.78" y="10.32" width="124" height="24" fill="black">
<rect fill="white" x="58.78" y="10.32" width="124" height="24"/>
<path d="M63.94 18.34C63.94 18.7387 64.1133 19.1027 64.46 19.432C64.824 19.7613 65.4307 20.0473 66.28 20.29L70.31 21.46C71.558 21.824 72.52 22.318 73.196 22.942C73.872 23.566 74.21 24.372 74.21 25.36C74.21 25.984 74.08 26.556 73.82 27.076C73.56 27.5787 73.1353 28.012 72.546 28.376C71.9567 28.74 71.194 29.0173 70.258 29.208C69.322 29.416 68.1693 29.52 66.8 29.52C66.0893 29.52 65.3873 29.468 64.694 29.364C64.018 29.26 63.368 29.1213 62.744 28.948C62.1373 28.7573 61.5827 28.5493 61.08 28.324C60.5773 28.0813 60.144 27.83 59.78 27.57L60.82 26.01C61.548 26.4607 62.3973 26.8593 63.368 27.206C64.356 27.5353 65.5 27.7 66.8 27.7C68.1 27.7 69.01 27.5267 69.53 27.18C70.05 26.8333 70.31 26.4 70.31 25.88C70.31 25.4813 70.128 25.126 69.764 24.814C69.4 24.4847 68.7587 24.19 67.84 23.93L63.81 22.76C62.7007 22.4307 61.7907 21.9627 61.08 21.356C60.3867 20.732 60.04 19.9 60.04 18.86C60.04 18.3053 60.1613 17.794 60.404 17.326C60.664 16.8407 61.0627 16.4247 61.6 16.078C62.1373 15.7313 62.822 15.4627 63.654 15.272C64.486 15.064 65.4913 14.96 66.67 14.96C68.1087 14.96 69.4087 15.1593 70.57 15.558C71.7487 15.9393 72.702 16.39 73.43 16.91L72.39 18.47C71.6793 18.0193 70.8733 17.6293 69.972 17.3C69.0707 16.9533 67.97 16.78 66.67 16.78C65.7513 16.78 65.0667 16.9273 64.616 17.222C64.1653 17.5167 63.94 17.8893 63.94 18.34Z"/>
<path d="M78.1161 15.48H81.7561V23.67C81.7561 24.918 82.0681 25.8193 82.6921 26.374C83.3161 26.9113 84.2174 27.18 85.3961 27.18H88.7761V15.48H92.4161V29H85.3961C82.9174 29 81.0801 28.558 79.8841 27.674C78.7054 26.7727 78.1161 25.438 78.1161 23.67V15.48Z"/>
<path d="M101.007 17.3V27.18H104.257C104.847 27.18 105.384 27.0933 105.869 26.92C106.372 26.7293 106.797 26.4347 107.143 26.036C107.507 25.6373 107.785 25.126 107.975 24.502C108.183 23.878 108.287 23.124 108.287 22.24C108.287 21.356 108.183 20.602 107.975 19.978C107.785 19.354 107.507 18.8427 107.143 18.444C106.797 18.0453 106.372 17.7593 105.869 17.586C105.384 17.3953 104.847 17.3 104.257 17.3H101.007ZM104.257 15.48C105.453 15.48 106.537 15.636 107.507 15.948C108.495 16.26 109.336 16.7107 110.029 17.3C110.723 17.8893 111.251 18.6 111.615 19.432C111.997 20.264 112.187 21.2 112.187 22.24C112.187 23.28 111.997 24.216 111.615 25.048C111.251 25.88 110.723 26.5907 110.029 27.18C109.336 27.7693 108.495 28.22 107.507 28.532C106.537 28.844 105.453 29 104.257 29H101.007V33.68H97.3673V15.48H104.257Z"/>
<path d="M120.106 17.3V27.18H123.356C123.945 27.18 124.483 27.0933 124.968 26.92C125.471 26.7293 125.895 26.4347 126.242 26.036C126.606 25.6373 126.883 25.126 127.074 24.502C127.282 23.878 127.386 23.124 127.386 22.24C127.386 21.356 127.282 20.602 127.074 19.978C126.883 19.354 126.606 18.8427 126.242 18.444C125.895 18.0453 125.471 17.7593 124.968 17.586C124.483 17.3953 123.945 17.3 123.356 17.3H120.106ZM123.356 15.48C124.552 15.48 125.635 15.636 126.606 15.948C127.594 16.26 128.435 16.7107 129.128 17.3C129.821 17.8893 130.35 18.6 130.714 19.432C131.095 20.264 131.286 21.2 131.286 22.24C131.286 23.28 131.095 24.216 130.714 25.048C130.35 25.88 129.821 26.5907 129.128 27.18C128.435 27.7693 127.594 28.22 126.606 28.532C125.635 28.844 124.552 29 123.356 29H120.106V33.68H116.466V15.48H123.356Z"/>
<path d="M142.845 27.83C143.4 27.83 143.92 27.726 144.405 27.518C144.89 27.31 145.315 26.9893 145.679 26.556C146.043 26.1053 146.329 25.5247 146.537 24.814C146.762 24.1033 146.875 23.2453 146.875 22.24C146.875 21.2347 146.762 20.3767 146.537 19.666C146.329 18.9553 146.043 18.3833 145.679 17.95C145.315 17.4993 144.89 17.17 144.405 16.962C143.92 16.754 143.4 16.65 142.845 16.65C142.29 16.65 141.77 16.754 141.285 16.962C140.8 17.17 140.375 17.4993 140.011 17.95C139.647 18.3833 139.352 18.9553 139.127 19.666C138.919 20.3767 138.815 21.2347 138.815 22.24C138.815 23.2453 138.919 24.1033 139.127 24.814C139.352 25.5247 139.647 26.1053 140.011 26.556C140.375 26.9893 140.8 27.31 141.285 27.518C141.77 27.726 142.29 27.83 142.845 27.83ZM142.845 14.96C144.006 14.96 145.072 15.1247 146.043 15.454C147.031 15.766 147.872 16.234 148.565 16.858C149.258 17.4647 149.796 18.2273 150.177 19.146C150.576 20.0473 150.775 21.0787 150.775 22.24C150.775 23.4187 150.576 24.4587 150.177 25.36C149.796 26.2613 149.258 27.024 148.565 27.648C147.872 28.2547 147.031 28.714 146.043 29.026C145.072 29.3553 144.006 29.52 142.845 29.52C141.666 29.52 140.592 29.3553 139.621 29.026C138.65 28.714 137.818 28.2547 137.125 27.648C136.432 27.024 135.886 26.2613 135.487 25.36C135.106 24.4587 134.915 23.4187 134.915 22.24C134.915 21.0787 135.106 20.0473 135.487 19.146C135.886 18.2273 136.432 17.4647 137.125 16.858C137.818 16.234 138.65 15.766 139.621 15.454C140.592 15.1247 141.666 14.96 142.845 14.96Z"/>
<path d="M165.34 17.3H162.22C161.041 17.3 160.14 17.6207 159.516 18.262C158.892 18.886 158.58 19.822 158.58 21.07V29H154.94V21.07C154.94 19.302 155.495 17.9327 156.604 16.962C157.731 15.974 159.343 15.48 161.44 15.48H165.34V17.3Z"/>
<path d="M171.7 17.3H169.23V15.48H171.7V11.32H175.34V15.48H179.37V17.3H175.34V24.06C175.34 24.7187 175.409 25.282 175.548 25.75C175.704 26.2007 175.903 26.5733 176.146 26.868C176.406 27.1453 176.701 27.3533 177.03 27.492C177.359 27.6307 177.706 27.7 178.07 27.7C178.59 27.7 179.093 27.622 179.578 27.466C180.063 27.2927 180.471 27.1107 180.8 26.92L181.58 28.61C181.06 28.87 180.462 29.0867 179.786 29.26C179.127 29.4333 178.469 29.52 177.81 29.52C175.851 29.52 174.343 29.0347 173.286 28.064C172.229 27.0933 171.7 25.7587 171.7 24.06V17.3Z"/>
</mask>
<path d="M63.94 18.34C63.94 18.7387 64.1133 19.1027 64.46 19.432C64.824 19.7613 65.4307 20.0473 66.28 20.29L70.31 21.46C71.558 21.824 72.52 22.318 73.196 22.942C73.872 23.566 74.21 24.372 74.21 25.36C74.21 25.984 74.08 26.556 73.82 27.076C73.56 27.5787 73.1353 28.012 72.546 28.376C71.9567 28.74 71.194 29.0173 70.258 29.208C69.322 29.416 68.1693 29.52 66.8 29.52C66.0893 29.52 65.3873 29.468 64.694 29.364C64.018 29.26 63.368 29.1213 62.744 28.948C62.1373 28.7573 61.5827 28.5493 61.08 28.324C60.5773 28.0813 60.144 27.83 59.78 27.57L60.82 26.01C61.548 26.4607 62.3973 26.8593 63.368 27.206C64.356 27.5353 65.5 27.7 66.8 27.7C68.1 27.7 69.01 27.5267 69.53 27.18C70.05 26.8333 70.31 26.4 70.31 25.88C70.31 25.4813 70.128 25.126 69.764 24.814C69.4 24.4847 68.7587 24.19 67.84 23.93L63.81 22.76C62.7007 22.4307 61.7907 21.9627 61.08 21.356C60.3867 20.732 60.04 19.9 60.04 18.86C60.04 18.3053 60.1613 17.794 60.404 17.326C60.664 16.8407 61.0627 16.4247 61.6 16.078C62.1373 15.7313 62.822 15.4627 63.654 15.272C64.486 15.064 65.4913 14.96 66.67 14.96C68.1087 14.96 69.4087 15.1593 70.57 15.558C71.7487 15.9393 72.702 16.39 73.43 16.91L72.39 18.47C71.6793 18.0193 70.8733 17.6293 69.972 17.3C69.0707 16.9533 67.97 16.78 66.67 16.78C65.7513 16.78 65.0667 16.9273 64.616 17.222C64.1653 17.5167 63.94 17.8893 63.94 18.34Z" fill="#0D1116"/>
<path d="M78.1161 15.48H81.7561V23.67C81.7561 24.918 82.0681 25.8193 82.6921 26.374C83.3161 26.9113 84.2174 27.18 85.3961 27.18H88.7761V15.48H92.4161V29H85.3961C82.9174 29 81.0801 28.558 79.8841 27.674C78.7054 26.7727 78.1161 25.438 78.1161 23.67V15.48Z" fill="#0D1116"/>
<path d="M101.007 17.3V27.18H104.257C104.847 27.18 105.384 27.0933 105.869 26.92C106.372 26.7293 106.797 26.4347 107.143 26.036C107.507 25.6373 107.785 25.126 107.975 24.502C108.183 23.878 108.287 23.124 108.287 22.24C108.287 21.356 108.183 20.602 107.975 19.978C107.785 19.354 107.507 18.8427 107.143 18.444C106.797 18.0453 106.372 17.7593 105.869 17.586C105.384 17.3953 104.847 17.3 104.257 17.3H101.007ZM104.257 15.48C105.453 15.48 106.537 15.636 107.507 15.948C108.495 16.26 109.336 16.7107 110.029 17.3C110.723 17.8893 111.251 18.6 111.615 19.432C111.997 20.264 112.187 21.2 112.187 22.24C112.187 23.28 111.997 24.216 111.615 25.048C111.251 25.88 110.723 26.5907 110.029 27.18C109.336 27.7693 108.495 28.22 107.507 28.532C106.537 28.844 105.453 29 104.257 29H101.007V33.68H97.3673V15.48H104.257Z" fill="#0D1116"/>
<path d="M120.106 17.3V27.18H123.356C123.945 27.18 124.483 27.0933 124.968 26.92C125.471 26.7293 125.895 26.4347 126.242 26.036C126.606 25.6373 126.883 25.126 127.074 24.502C127.282 23.878 127.386 23.124 127.386 22.24C127.386 21.356 127.282 20.602 127.074 19.978C126.883 19.354 126.606 18.8427 126.242 18.444C125.895 18.0453 125.471 17.7593 124.968 17.586C124.483 17.3953 123.945 17.3 123.356 17.3H120.106ZM123.356 15.48C124.552 15.48 125.635 15.636 126.606 15.948C127.594 16.26 128.435 16.7107 129.128 17.3C129.821 17.8893 130.35 18.6 130.714 19.432C131.095 20.264 131.286 21.2 131.286 22.24C131.286 23.28 131.095 24.216 130.714 25.048C130.35 25.88 129.821 26.5907 129.128 27.18C128.435 27.7693 127.594 28.22 126.606 28.532C125.635 28.844 124.552 29 123.356 29H120.106V33.68H116.466V15.48H123.356Z" fill="#0D1116"/>
<path d="M142.845 27.83C143.4 27.83 143.92 27.726 144.405 27.518C144.89 27.31 145.315 26.9893 145.679 26.556C146.043 26.1053 146.329 25.5247 146.537 24.814C146.762 24.1033 146.875 23.2453 146.875 22.24C146.875 21.2347 146.762 20.3767 146.537 19.666C146.329 18.9553 146.043 18.3833 145.679 17.95C145.315 17.4993 144.89 17.17 144.405 16.962C143.92 16.754 143.4 16.65 142.845 16.65C142.29 16.65 141.77 16.754 141.285 16.962C140.8 17.17 140.375 17.4993 140.011 17.95C139.647 18.3833 139.352 18.9553 139.127 19.666C138.919 20.3767 138.815 21.2347 138.815 22.24C138.815 23.2453 138.919 24.1033 139.127 24.814C139.352 25.5247 139.647 26.1053 140.011 26.556C140.375 26.9893 140.8 27.31 141.285 27.518C141.77 27.726 142.29 27.83 142.845 27.83ZM142.845 14.96C144.006 14.96 145.072 15.1247 146.043 15.454C147.031 15.766 147.872 16.234 148.565 16.858C149.258 17.4647 149.796 18.2273 150.177 19.146C150.576 20.0473 150.775 21.0787 150.775 22.24C150.775 23.4187 150.576 24.4587 150.177 25.36C149.796 26.2613 149.258 27.024 148.565 27.648C147.872 28.2547 147.031 28.714 146.043 29.026C145.072 29.3553 144.006 29.52 142.845 29.52C141.666 29.52 140.592 29.3553 139.621 29.026C138.65 28.714 137.818 28.2547 137.125 27.648C136.432 27.024 135.886 26.2613 135.487 25.36C135.106 24.4587 134.915 23.4187 134.915 22.24C134.915 21.0787 135.106 20.0473 135.487 19.146C135.886 18.2273 136.432 17.4647 137.125 16.858C137.818 16.234 138.65 15.766 139.621 15.454C140.592 15.1247 141.666 14.96 142.845 14.96Z" fill="#0D1116"/>
<path d="M165.34 17.3H162.22C161.041 17.3 160.14 17.6207 159.516 18.262C158.892 18.886 158.58 19.822 158.58 21.07V29H154.94V21.07C154.94 19.302 155.495 17.9327 156.604 16.962C157.731 15.974 159.343 15.48 161.44 15.48H165.34V17.3Z" fill="#0D1116"/>
<path d="M171.7 17.3H169.23V15.48H171.7V11.32H175.34V15.48H179.37V17.3H175.34V24.06C175.34 24.7187 175.409 25.282 175.548 25.75C175.704 26.2007 175.903 26.5733 176.146 26.868C176.406 27.1453 176.701 27.3533 177.03 27.492C177.359 27.6307 177.706 27.7 178.07 27.7C178.59 27.7 179.093 27.622 179.578 27.466C180.063 27.2927 180.471 27.1107 180.8 26.92L181.58 28.61C181.06 28.87 180.462 29.0867 179.786 29.26C179.127 29.4333 178.469 29.52 177.81 29.52C175.851 29.52 174.343 29.0347 173.286 28.064C172.229 27.0933 171.7 25.7587 171.7 24.06V17.3Z" fill="#0D1116"/>
<path d="M63.94 18.34C63.94 18.7387 64.1133 19.1027 64.46 19.432C64.824 19.7613 65.4307 20.0473 66.28 20.29L70.31 21.46C71.558 21.824 72.52 22.318 73.196 22.942C73.872 23.566 74.21 24.372 74.21 25.36C74.21 25.984 74.08 26.556 73.82 27.076C73.56 27.5787 73.1353 28.012 72.546 28.376C71.9567 28.74 71.194 29.0173 70.258 29.208C69.322 29.416 68.1693 29.52 66.8 29.52C66.0893 29.52 65.3873 29.468 64.694 29.364C64.018 29.26 63.368 29.1213 62.744 28.948C62.1373 28.7573 61.5827 28.5493 61.08 28.324C60.5773 28.0813 60.144 27.83 59.78 27.57L60.82 26.01C61.548 26.4607 62.3973 26.8593 63.368 27.206C64.356 27.5353 65.5 27.7 66.8 27.7C68.1 27.7 69.01 27.5267 69.53 27.18C70.05 26.8333 70.31 26.4 70.31 25.88C70.31 25.4813 70.128 25.126 69.764 24.814C69.4 24.4847 68.7587 24.19 67.84 23.93L63.81 22.76C62.7007 22.4307 61.7907 21.9627 61.08 21.356C60.3867 20.732 60.04 19.9 60.04 18.86C60.04 18.3053 60.1613 17.794 60.404 17.326C60.664 16.8407 61.0627 16.4247 61.6 16.078C62.1373 15.7313 62.822 15.4627 63.654 15.272C64.486 15.064 65.4913 14.96 66.67 14.96C68.1087 14.96 69.4087 15.1593 70.57 15.558C71.7487 15.9393 72.702 16.39 73.43 16.91L72.39 18.47C71.6793 18.0193 70.8733 17.6293 69.972 17.3C69.0707 16.9533 67.97 16.78 66.67 16.78C65.7513 16.78 65.0667 16.9273 64.616 17.222C64.1653 17.5167 63.94 17.8893 63.94 18.34Z" stroke="#0D1116" mask="url(#path-2-outside-1_13_98)"/>
<path d="M78.1161 15.48H81.7561V23.67C81.7561 24.918 82.0681 25.8193 82.6921 26.374C83.3161 26.9113 84.2174 27.18 85.3961 27.18H88.7761V15.48H92.4161V29H85.3961C82.9174 29 81.0801 28.558 79.8841 27.674C78.7054 26.7727 78.1161 25.438 78.1161 23.67V15.48Z" stroke="#0D1116" mask="url(#path-2-outside-1_13_98)"/>
<path d="M101.007 17.3V27.18H104.257C104.847 27.18 105.384 27.0933 105.869 26.92C106.372 26.7293 106.797 26.4347 107.143 26.036C107.507 25.6373 107.785 25.126 107.975 24.502C108.183 23.878 108.287 23.124 108.287 22.24C108.287 21.356 108.183 20.602 107.975 19.978C107.785 19.354 107.507 18.8427 107.143 18.444C106.797 18.0453 106.372 17.7593 105.869 17.586C105.384 17.3953 104.847 17.3 104.257 17.3H101.007ZM104.257 15.48C105.453 15.48 106.537 15.636 107.507 15.948C108.495 16.26 109.336 16.7107 110.029 17.3C110.723 17.8893 111.251 18.6 111.615 19.432C111.997 20.264 112.187 21.2 112.187 22.24C112.187 23.28 111.997 24.216 111.615 25.048C111.251 25.88 110.723 26.5907 110.029 27.18C109.336 27.7693 108.495 28.22 107.507 28.532C106.537 28.844 105.453 29 104.257 29H101.007V33.68H97.3673V15.48H104.257Z" stroke="#0D1116" mask="url(#path-2-outside-1_13_98)"/>
<path d="M120.106 17.3V27.18H123.356C123.945 27.18 124.483 27.0933 124.968 26.92C125.471 26.7293 125.895 26.4347 126.242 26.036C126.606 25.6373 126.883 25.126 127.074 24.502C127.282 23.878 127.386 23.124 127.386 22.24C127.386 21.356 127.282 20.602 127.074 19.978C126.883 19.354 126.606 18.8427 126.242 18.444C125.895 18.0453 125.471 17.7593 124.968 17.586C124.483 17.3953 123.945 17.3 123.356 17.3H120.106ZM123.356 15.48C124.552 15.48 125.635 15.636 126.606 15.948C127.594 16.26 128.435 16.7107 129.128 17.3C129.821 17.8893 130.35 18.6 130.714 19.432C131.095 20.264 131.286 21.2 131.286 22.24C131.286 23.28 131.095 24.216 130.714 25.048C130.35 25.88 129.821 26.5907 129.128 27.18C128.435 27.7693 127.594 28.22 126.606 28.532C125.635 28.844 124.552 29 123.356 29H120.106V33.68H116.466V15.48H123.356Z" stroke="#0D1116" mask="url(#path-2-outside-1_13_98)"/>
<path d="M142.845 27.83C143.4 27.83 143.92 27.726 144.405 27.518C144.89 27.31 145.315 26.9893 145.679 26.556C146.043 26.1053 146.329 25.5247 146.537 24.814C146.762 24.1033 146.875 23.2453 146.875 22.24C146.875 21.2347 146.762 20.3767 146.537 19.666C146.329 18.9553 146.043 18.3833 145.679 17.95C145.315 17.4993 144.89 17.17 144.405 16.962C143.92 16.754 143.4 16.65 142.845 16.65C142.29 16.65 141.77 16.754 141.285 16.962C140.8 17.17 140.375 17.4993 140.011 17.95C139.647 18.3833 139.352 18.9553 139.127 19.666C138.919 20.3767 138.815 21.2347 138.815 22.24C138.815 23.2453 138.919 24.1033 139.127 24.814C139.352 25.5247 139.647 26.1053 140.011 26.556C140.375 26.9893 140.8 27.31 141.285 27.518C141.77 27.726 142.29 27.83 142.845 27.83ZM142.845 14.96C144.006 14.96 145.072 15.1247 146.043 15.454C147.031 15.766 147.872 16.234 148.565 16.858C149.258 17.4647 149.796 18.2273 150.177 19.146C150.576 20.0473 150.775 21.0787 150.775 22.24C150.775 23.4187 150.576 24.4587 150.177 25.36C149.796 26.2613 149.258 27.024 148.565 27.648C147.872 28.2547 147.031 28.714 146.043 29.026C145.072 29.3553 144.006 29.52 142.845 29.52C141.666 29.52 140.592 29.3553 139.621 29.026C138.65 28.714 137.818 28.2547 137.125 27.648C136.432 27.024 135.886 26.2613 135.487 25.36C135.106 24.4587 134.915 23.4187 134.915 22.24C134.915 21.0787 135.106 20.0473 135.487 19.146C135.886 18.2273 136.432 17.4647 137.125 16.858C137.818 16.234 138.65 15.766 139.621 15.454C140.592 15.1247 141.666 14.96 142.845 14.96Z" stroke="#0D1116" mask="url(#path-2-outside-1_13_98)"/>
<path d="M165.34 17.3H162.22C161.041 17.3 160.14 17.6207 159.516 18.262C158.892 18.886 158.58 19.822 158.58 21.07V29H154.94V21.07C154.94 19.302 155.495 17.9327 156.604 16.962C157.731 15.974 159.343 15.48 161.44 15.48H165.34V17.3Z" stroke="#0D1116" mask="url(#path-2-outside-1_13_98)"/>
<path d="M171.7 17.3H169.23V15.48H171.7V11.32H175.34V15.48H179.37V17.3H175.34V24.06C175.34 24.7187 175.409 25.282 175.548 25.75C175.704 26.2007 175.903 26.5733 176.146 26.868C176.406 27.1453 176.701 27.3533 177.03 27.492C177.359 27.6307 177.706 27.7 178.07 27.7C178.59 27.7 179.093 27.622 179.578 27.466C180.063 27.2927 180.471 27.1107 180.8 26.92L181.58 28.61C181.06 28.87 180.462 29.0867 179.786 29.26C179.127 29.4333 178.469 29.52 177.81 29.52C175.851 29.52 174.343 29.0347 173.286 28.064C172.229 27.0933 171.7 25.7587 171.7 24.06V17.3Z" stroke="#0D1116" mask="url(#path-2-outside-1_13_98)"/>
<path fill-rule="evenodd" clip-rule="evenodd" d="M24.6985 22.375C24.6985 23.3244 24.5727 24.0948 24.3497 24.7083L24.3452 24.7208C24.1326 25.3306 23.8409 25.8035 23.4848 26.1662C23.1249 26.5163 22.681 26.7886 22.1351 26.9765C21.5894 27.1535 20.949 27.25 20.2025 27.25C19.4598 27.25 18.8103 27.1544 18.2447 26.9765C17.7195 26.7901 17.2828 26.5189 16.9203 26.1662C16.5618 25.8012 16.2611 25.3255 16.0322 24.7145C15.8236 24.0966 15.7066 23.3235 15.7066 22.375V11H10V22.375C10 25.1576 10.8695 27.4009 12.753 28.9062L12.7621 28.9134C14.6036 30.3503 17.1286 31 20.2025 31C23.261 31 25.7768 30.3496 27.6174 28.9134L27.6224 28.9094C29.5245 27.4054 30.405 25.1613 30.405 22.375V11H24.6985V22.375ZM34.2934 30.5H40V19.7576H34.2934V30.5ZM34 16H40V11H34V16Z" fill="white"/>
</svg>
