<svg width="486" height="448" fill="none" xmlns="http://www.w3.org/2000/svg"><path d="M161.806 356.612H114.25c-34.668 0-62.892-28.224-62.892-62.892 0-34.668 28.224-62.892 62.892-62.892h47.556c34.668 0 62.892 28.224 62.892 62.892 0 34.668-28.224 62.892-62.892 62.892zm-47.556-99.925c-20.42 0-37.034 16.613-37.034 37.033s16.614 37.034 37.034 37.034h47.556c20.42 0 37.034-16.614 37.034-37.034 0-20.42-16.614-37.033-37.034-37.033H114.25z" fill="#fff"/><path d="M161.806 357.537H114.25c-35.185 0-63.816-28.632-63.816-63.817 0-35.184 28.631-63.816 63.816-63.816h47.556c35.185 0 63.817 28.632 63.817 63.816 0 35.185-28.632 63.817-63.817 63.817zM114.25 231.753c-34.179 0-61.967 27.789-61.967 61.967 0 34.179 27.788 61.968 61.967 61.968h47.556c34.179 0 61.968-27.789 61.968-61.968 0-34.178-27.789-61.967-61.968-61.967H114.25zm47.556 99.898H114.25c-20.937 0-37.958-17.021-37.958-37.958 0-20.937 17.048-37.931 37.958-37.931h47.556c20.937 0 37.958 17.022 37.958 37.958 0 20.937-17.021 37.931-37.958 37.931zm-47.556-74.04c-19.904 0-36.11 16.206-36.11 36.109 0 19.904 16.206 36.11 36.11 36.11h47.556c19.904 0 36.082-16.206 36.082-36.11 0-19.903-16.205-36.109-36.082-36.109H114.25z" fill="#000"/><path d="M371.283 330.128c0 64.578-52.369 116.947-116.947 116.947-64.577 0-116.946-52.342-116.946-116.947 0-64.604 52.369-116.946 116.946-116.946 64.578 0 116.947 40.242 116.947 116.946z" fill="#fff"/><path d="M254.336 448c-64.986 0-117.872-52.886-117.872-117.871 0-64.986 52.886-117.872 117.872-117.872 32.927 0 62.511 10.632 83.312 29.964 22.595 20.992 34.559 51.391 34.559 87.908 0 65.012-52.886 117.871-117.871 117.871zm0-233.867c-63.98 0-116.023 52.043-116.023 116.023 0 63.979 52.043 116.022 116.023 116.022 63.979 0 116.022-52.043 116.022-116.022 0-70.505-45.544-116.023-116.022-116.023z" fill="#000"/><path d="M406.821 205.351c-2.23-51.391-23.139-89.403-54.925-113.33-26.457-19.904-60.445-30.1-97.533-30.1-23.71 0-46.17 5.41-66.209 15.063-40.052 19.305-70.369 55.55-81.681 99.463a153.564 153.564 0 00-4.812 38.148c0 84.318 45.816 218.694 152.675 218.694 109.578 0 152.675-134.376 152.675-218.694 0-3.126-.054-6.199-.19-9.244z" fill="#fff"/><path d="M254.336 434.242c-60.553 0-97.179-42.527-117.219-78.201-26.837-47.719-36.381-104.357-36.381-141.418 0-12.997 1.632-25.913 4.84-38.393 11.284-43.859 41.248-80.348 82.17-100.062 20.855-10.06 43.261-15.145 66.59-15.145 37.877 0 71.783 10.469 98.104 30.263 34.042 25.641 53.185 65.067 55.306 114.038.136 3.045.19 6.172.19 9.299 0 48.617-13.215 101.475-35.375 141.418-19.768 35.674-56.339 78.201-118.225 78.201zm0-371.397c-23.058 0-45.191 5.03-65.801 14.955-40.433 19.496-70.043 55.523-81.191 98.865-3.182 12.317-4.786 25.07-4.786 37.931 0 87.825 48.236 217.769 151.751 217.769 104.684 0 151.751-127.36 151.751-217.769 0-3.1-.055-6.2-.191-9.218-2.093-48.399-20.964-87.363-54.571-112.65-25.967-19.523-59.493-29.883-96.962-29.883z" fill="#000"/><path d="M405.19 238.17c-11.311 73.143-74.557 129.128-150.881 129.128-79.696 0-145.089-61.07-152.05-138.916 11.638-72.79 74.72-128.394 150.772-128.394 80.131 0 145.878 47.447 152.159 138.182z" fill="url(#paint0_linear_143_904)"/><path d="M247.892 2.155h-92.856a.917.917 0 01-.925-.924c0-.517.408-.925.925-.925h92.856c.516 0 .924.408.924.925 0 .49-.408.924-.924.924zm75.562 25.097H155.036a.917.917 0 01-.925-.924c0-.517.408-.925.925-.925h168.418c.517 0 .925.408.925.925a.917.917 0 01-.925.924zm-98.647 25.125h-69.771a.917.917 0 01-.925-.925c0-.517.408-.924.925-.924h69.771c.517 0 .924.407.924.924a.916.916 0 01-.924.925z" fill="#000"/><path d="M244.602 124.486h-69.799a.917.917 0 01-.924-.925c0-.516.408-.924.924-.924h69.771c.517 0 .925.408.925.924 0 .517-.381.925-.897.925zm0 25.124h-69.799a.917.917 0 01-.924-.925c0-.516.408-.924.924-.924h69.771c.517 0 .925.408.925.924 0 .517-.381.925-.897.925zm-27.654 167.385h-38.665a.916.916 0 01-.924-.924c0-.517.408-.925.924-.925h38.665c.517 0 .925.408.925.925a.916.916 0 01-.925.924zm119.53 0h-68.194a.916.916 0 01-.924-.924c0-.517.408-.925.924-.925h68.194c.517 0 .925.408.925.925a.934.934 0 01-.925.924zm-138.155-8.265a.883.883 0 01-.652-.272l-10.197-10.197a.936.936 0 010-1.305.936.936 0 011.305 0l10.197 10.197a.936.936 0 010 1.305c-.191.163-.408.272-.653.272z" fill="#fff"/><path d="M188.127 308.73a.885.885 0 01-.653-.272.936.936 0 010-1.305l10.197-10.197a.936.936 0 011.305 0 .936.936 0 010 1.305l-10.197 10.197c-.19.163-.408.272-.652.272z" fill="#fff"/><path d="M124.609 25.158L.036 86.28l47.084 95.963 124.573-61.121-47.084-95.963z" fill="#000"/><path d="M117.442 147.717l-16.087 7.893 11.115 22.654 16.087-7.893-11.115-22.654z" fill="#000"/><path d="M123.249 37.07L10.321 92.479l34.962 71.258 112.929-55.407-34.963-71.258z" fill="#fff"/><path d="M75.15 124.839l-17.266 8.484-9.952-20.257 17.293-8.484 9.925 20.257z" fill="url(#paint1_linear_143_904)"/><path d="M99.893 112.713L82.6 121.196l-9.925-20.284 17.266-8.456 9.952 20.257z" fill="url(#paint2_linear_143_904)"/><path d="M124.636 100.558l-17.293 8.484-15.798-32.167 17.294-8.483 15.797 32.166z" fill="url(#paint3_linear_143_904)"/><path d="M179.825 112.057L64.65 208.056l33.427 40.105 115.176-96-33.428-40.104z" fill="#fff"/><path d="M98.044 249.1a.913.913 0 01-.706-.326L63.92 208.668a.94.94 0 01.11-1.305l115.178-95.983a.938.938 0 011.306.109l33.417 40.106c.163.19.245.435.217.68a.944.944 0 01-.326.625l-115.18 95.983c-.162.163-.38.217-.597.217zm-32.112-40.921l32.248 38.692 113.739-94.814-32.248-38.665-113.739 94.787z" fill="#000"/><path d="M170.29 172.45l-5.384-6.471a.94.94 0 00-1.305-.109l-44.946 37.469a.942.942 0 00-.326.625.897.897 0 00.217.68l5.384 6.471c.19.218.435.326.707.326.218 0 .408-.081.598-.217l44.946-37.469a.943.943 0 00.327-.625.897.897 0 00-.218-.68zm-69.635 20.665a.913.913 0 01-.707-.326.939.939 0 01.109-1.305l7.64-6.363a.94.94 0 011.306.109.94.94 0 01-.109 1.305l-7.641 6.363c-.19.136-.408.217-.598.217zm4.84 5.819a.916.916 0 01-.707-.326.94.94 0 01.109-1.305l7.64-6.363a.937.937 0 011.305.109.939.939 0 01-.108 1.305l-7.641 6.363a.95.95 0 01-.598.217zm265.108 97.859h-50.792c-.354 0-.68-.191-.816-.517a.918.918 0 01.082-.979l98.756-135.11.761.544-.761-.544c7.858-10.74 47.475-30.127 49.16-30.943.327-.163.68-.109.979.082a.967.967 0 01.354.897c-.326 1.822-8.049 44.538-15.879 55.251l-81.083 110.911a.907.907 0 01-.761.408zm-48.971-1.849h48.509l80.81-110.53c6.689-9.163 13.623-44.239 15.2-52.668-7.723 3.861-40.107 20.393-46.795 29.556l-97.724 133.642z" fill="#000"/><path d="M429.905 202.034a314.958 314.958 0 016.581 3.697c5.057-6.933 10.114-13.84 15.172-20.773 7.804-10.659 15.716-54.871 15.716-54.871s-41.003 19.985-48.807 30.671c-6.335 8.647-12.644 17.293-18.979 25.967 9.653 5.819 20.583 10.006 30.317 15.309z" fill="#fff"/><path d="M436.486 206.656a.959.959 0 01-.463-.109l-1.604-.897c-1.659-.925-3.29-1.876-4.976-2.773-4.16-2.257-8.646-4.378-12.97-6.417-5.818-2.747-11.828-5.575-17.374-8.919a.968.968 0 01-.436-.598.902.902 0 01.164-.734l18.979-25.967c7.858-10.741 47.474-30.128 49.16-30.943.327-.163.68-.109.979.081a.969.969 0 01.354.898c-.327 1.821-8.049 44.538-15.88 55.251l-15.172 20.774c-.19.217-.462.353-.761.353zm-6.118-5.438a291.29 291.29 0 015.003 2.801l.897.489 14.683-20.094c6.689-9.163 13.623-44.239 15.2-52.668-7.723 3.861-40.107 20.393-46.795 29.556l-18.381 25.124c5.22 3.073 10.876 5.737 16.341 8.293 4.324 2.094 8.837 4.215 13.052 6.499z" fill="#000"/><path d="M410.002 241.977c13.894-19.007 27.789-38.013 41.656-56.992.979-1.332 1.958-3.181 2.909-5.438l-32.221-22.677c-1.631 1.387-2.909 2.692-3.779 3.888a76082.237 76082.237 0 01-41.629 56.937c10.958 8.185 22.024 16.233 33.064 24.282z" fill="#fff"/><path d="M410.002 242.901a.832.832 0 01-.544-.191l-5.411-3.942c-9.081-6.635-18.489-13.487-27.653-20.312a.913.913 0 01-.19-1.278l41.629-56.937c.897-1.25 2.202-2.61 3.915-4.051a.939.939 0 011.142-.054l32.221 22.649c.354.245.49.734.327 1.115-1.061 2.447-2.04 4.296-3.019 5.629l-29.692 40.622-11.964 16.369a.99.99 0 01-.761.381zm-31.759-25.369c8.919 6.662 18.055 13.323 26.892 19.767l4.65 3.399 11.42-15.607c9.897-13.541 19.822-27.082 29.692-40.65.815-1.088 1.631-2.583 2.501-4.568l-31.024-21.807c-1.333 1.169-2.366 2.284-3.073 3.263l-41.058 56.203zm86.276-73.143c1.767-8.184 2.855-14.275 2.855-14.275s-5.656 2.747-13.133 6.744c3.29 2.691 6.77 5.139 10.278 7.531z" fill="#000"/><path d="M335.5 369.664l10.767-45.137 87.446 45.137H335.5z" fill="#fff"/><path d="M335.5 370.588c-.082 0-.136 0-.218-.027-.489-.109-.816-.625-.68-1.115l10.741-45.136a.858.858 0 01.516-.626c.272-.108.571-.108.816.028l87.445 45.136a.943.943 0 01.408 1.251.943.943 0 01-1.251.408l-86.385-44.593-10.468 43.994a.97.97 0 01-.924.68z" fill="#000"/><path d="M433.685 369.664H335.5v67.296h98.185v-67.296z" fill="#fff"/><path d="M433.712 437.885h-98.185a.917.917 0 01-.925-.924v-67.297c0-.517.408-.924.925-.924h98.185c.516 0 .924.407.924.924v67.297a.917.917 0 01-.924.924zm-97.261-1.849h96.336v-65.448h-96.336v65.448z" fill="#000"/><path d="M433.713 369.663l-49.161 41.629-49.052-41.629 50.602-67.867h98.457l-50.846 67.867z" fill="#fff"/><path d="M384.551 412.217a.955.955 0 01-.598-.217l-49.025-41.629a.902.902 0 01-.135-1.251l50.601-67.841a.903.903 0 01.734-.38h98.43c.354 0 .68.19.843.516a.916.916 0 01-.081.979l-50.847 67.841c-.054.054-.081.108-.136.163l-49.16 41.629c-.191.108-.408.19-.626.19zm-47.774-42.716l47.774 40.568 48.481-41.058 49.677-66.291h-96.118l-49.814 66.781z" fill="#000"/><path d="M352.167 266.013l33.934 35.783h98.457l-34.124-35.783h-98.267z" fill="#fff"/><path d="M484.559 302.748h-98.43a.971.971 0 01-.68-.3l-33.961-35.782a.97.97 0 01-.191-1.006.91.91 0 01.843-.571h98.267a.97.97 0 01.68.299l34.124 35.783a.97.97 0 01.19 1.006.953.953 0 01-.842.571zm-98.05-1.877h95.874l-32.356-33.933h-95.711l32.193 33.933z" fill="#000"/><path d="M352.167 266.013l33.934-29.121h98.457l-34.124 29.121h-98.267z" fill="#fff"/><path d="M450.435 266.938h-98.267a.945.945 0 01-.87-.599c-.136-.353-.028-.761.272-1.033l33.961-29.121a.948.948 0 01.598-.217h98.43c.38 0 .734.244.87.598.136.353.027.761-.272 1.033l-34.124 29.121a.95.95 0 01-.598.218zm-95.766-1.849h95.412l31.949-27.272h-95.575l-31.786 27.272zm79.043 172.796a.953.953 0 01-.599-.218c-14.492-12.263-26.891-23.356-37.93-33.852a.911.911 0 01-.028-1.305.912.912 0 011.306-.027c11.012 10.495 23.383 21.535 37.849 33.798a.94.94 0 01.109 1.305 1.04 1.04 0 01-.707.299zm-98.213 0a.916.916 0 01-.707-.326c-.326-.381-.299-.979.109-1.306l38.937-33.308c.381-.326.979-.299 1.305.109.326.38.299.979-.109 1.305l-38.91 33.308c-.19.136-.407.218-.625.218z" fill="#000"/><path d="M357.877 401.477h-40.051v40.052h40.051v-40.052z" fill="#000"/><path d="M345.153 419.586h-17.158a.917.917 0 01-.924-.925c0-.517.408-.924.924-.924h17.158c.516 0 .924.407.924.924a.917.917 0 01-.924.925zm0 7.613h-17.158a.917.917 0 01-.924-.925c0-.516.408-.924.924-.924h17.158c.516 0 .924.408.924.924a.917.917 0 01-.924.925z" fill="#fff"/><path d="M412.53 358.869h-41.193a.917.917 0 01-.925-.925v-4.187c0-.517.408-.924.925-.924h41.193c.517 0 .925.407.925.924v4.187c0 .49-.408.925-.925.925zm-40.269-1.876h39.345v-2.339h-39.345v2.339zm52.152-18.598h-41.194v4.187h41.194v-4.187zm14.628-52.587h-41.194v4.187h41.194v-4.187zm-52.342 6.227a4.868 4.868 0 10-.002-9.736 4.868 4.868 0 00.002 9.736zm47.013 78.553h-98.185a.916.916 0 01-.925-.924c0-.517.408-.924.925-.924h98.185c.516 0 .924.407.924.924a.916.916 0 01-.924.924z" fill="#000"/><path d="M302.272 101.346c.653 7.342-.707 12.535-3.562 16.097l10.115 46.116-18.843 3.942-8.837-42.444c-10.958-.952-12.562-13.732-12.562-13.732l-3.943-2.175s1.224-7.015 8.592-15.88c7.369-8.836 27.572-8.156 29.04 8.076z" fill="#fff"/><path d="M289.982 168.426a.905.905 0 01-.517-.163.928.928 0 01-.407-.599l-8.701-41.792c-9.735-1.305-12.209-11.61-12.644-13.976l-3.562-1.957a.894.894 0 01-.462-.979c.054-.299 1.359-7.369 8.809-16.314 4.269-5.14 12.807-7.342 19.877-5.167 6.254 1.958 10.196 6.934 10.822 13.704.625 7.016-.544 12.535-3.481 16.396l10.034 45.708a.938.938 0 01-.136.707.928.928 0 01-.599.407l-18.843 3.943c-.054.082-.136.082-.19.082zm-24.308-59.738l3.344 1.822a.863.863 0 01.462.707c.055.489 1.659 12.045 11.719 12.915a.894.894 0 01.816.734l8.647 41.52 17.021-3.562-9.87-45.19a.922.922 0 01.19-.789c2.828-3.507 3.97-8.701 3.372-15.417-.734-8.184-6.281-11.094-9.517-12.1-6.39-1.985-14.085-.027-17.891 4.568-5.873 7.015-7.804 12.916-8.293 14.792z" fill="#000"/><path d="M338.49 119.319c-.761-2.583-2.692-5.003-5.438-6.417-4.758-2.474-9.19-.38-10.088-5.764-1.06-6.39-3.698-9.734-12.535-9.49-2.338.055-4.459.626-6.607-.353-1.224-.57-1.985-1.93-3.208-2.61-.055-.027-.136-.082-.191-.109-.544-.707-1.087-1.387-1.414-1.686-3.072-2.393-5.329-3.371-8.402-5.275-.87-.244-1.74-.435-2.637-.57-5.737.461-11.257 2.093-14.357 6.226 2.529 3.263 7.206 6.145 11.257 7.967 1.904 3.48 5.139 8.592 2.366 13.622-6.308 11.964-.136 25.342 15.798 28.333 15.716 2.936 39.671-9.299 35.456-23.874zm-66.4 60.065c-.19-.163-.489-.272-.679-.272-15.716.353-32.955-7.07-51.255-22.025-.353-.299-.87-.271-1.223.055-4.215 3.942-8.402 7.912-12.589 11.855-4.514 4.242-9.001 8.511-13.514 12.752a.99.99 0 00-.299.707c0 .272.136.517.326.68 18.299 14.982 46.632 32.765 78.064 32.765h.49a.917.917 0 00.924-.925v-34.912a.82.82 0 00-.245-.68z" fill="#000"/><path d="M219.585 157.822c-11.801-10.768-26.484-12.263-28.958-10.985-2.474 1.278 7.233 4.051 7.668 4.921 0 0-9.463-3.833-13.541-.652-4.051 3.208 9.462 3.426 10.822 5.112 0 0-12.644-3.426-14.901-.843-2.257 2.556 10.142 5.982 11.067 7.885.897 1.931-5.955 5.112-10.142 4.704-6.308-.653-7.233 1.713-2.937 3.834 3.426 1.713 11.339 8.211 14.819 10.604l26.103-24.58z" fill="#fff"/><path d="M193.482 183.354a.905.905 0 01-.517-.163c-1.196-.816-2.909-2.121-4.704-3.508-3.48-2.638-7.803-5.955-9.978-7.042-3.182-1.577-3.291-3.073-3.073-3.834.435-1.55 2.692-2.148 6.526-1.768 2.773.272 6.879-1.196 8.619-2.664.49-.408.598-.68.598-.762-.299-.462-2.719-1.577-4.35-2.338-4.133-1.903-6.662-3.209-7.043-4.894-.081-.408-.081-1.034.463-1.659.707-.789 2.039-1.142 3.698-1.224-.299-.272-.49-.571-.571-.951-.191-.762.163-1.496 1.06-2.203 1.604-1.278 3.916-1.577 6.2-1.441-.735-.516-1.088-.979-1.088-1.577 0-.326.081-.952.897-1.359 2.828-1.469 17.973.163 29.991 11.121a.912.912 0 01.055 1.305.912.912 0 01-1.305.054c-11.04-10.088-24.2-11.665-27.408-11.012.924.598 2.963 1.441 4.16 1.93 2.311.952 3.127 1.306 3.426 1.877a.906.906 0 01-.136 1.06.933.933 0 01-1.033.245c-2.502-1.006-9.626-3.127-12.617-.762-.353.272-.408.435-.408.435.381.49 3.861 1.17 5.737 1.523 3.155.598 4.976 1.006 5.656 1.876.245.327.272.762.054 1.088a.918.918 0 01-1.006.381c-5.818-1.578-12.779-2.448-13.948-1.142.054.897 4.051 2.746 5.954 3.643 3.046 1.414 4.759 2.257 5.248 3.263.163.381.381 1.142-.299 2.066-1.577 2.23-7.26 4.297-10.795 3.943-3.371-.326-4.459.272-4.568.435.028.109.408.789 2.121 1.632 2.339 1.169 6.553 4.377 10.278 7.205 1.795 1.36 3.508 2.665 4.65 3.48.408.3.516.871.245 1.278a.89.89 0 01-.789.463zm146.259 11.8l-.082-2.637c-.435-15.716-1.169-41.982-47.094-41.982h-.516c-36.952.163-37.007 18.652-37.061 38.257 0 1.387 0 2.773-.027 4.187l-.055 44.375c0 .245.109.49.272.653a.95.95 0 00.653.272h82.36a.93.93 0 00.925-.898c.027-.217 1.223-26.483.625-42.227z" fill="#000"/><path d="M255.613 210.68a.924.924 0 01-.925-.87l-.761-10.767c-.462-.218-.979-.626-1.441-1.387-1.903-3.045-2.338-10.767 1.033-21.154a.924.924 0 011.169-.598c.49.163.762.679.599 1.169-3.155 9.761-2.828 16.994-1.224 19.604.272.435.598.707.87.762a.9.9 0 01.789.842l.815 11.393a.918.918 0 01-.87.979c-.027.027-.027.027-.054.027zm-86.439 7.26c-9.571-11.801-13.187-21.209-17.266-21.508-4.079-.299 1.74 7.587 1.74 10.197 0 2.637-13.133-11.964-18.082-11.094-4.948.87 6.581 12.78 6.581 12.78s-14.765-6.662-16.804-3.154c-2.04 3.48 11.474 10.767 11.474 10.767-1.631-1.659-15.444-7.505-16.124-2.61-.435 3.235 10.605 6.498 13.759 18.435 1.604 6.063 8.619 13.405 8.619 13.405l26.103-27.218z" fill="#fff"/><path d="M143.071 246.082a.97.97 0 01-.68-.299c-.299-.299-7.233-7.586-8.864-13.812-1.849-7.07-6.553-10.931-9.979-13.732-2.339-1.903-4.024-3.29-3.78-5.057.163-1.169.925-2.039 2.121-2.447 1.468-.49 3.616-.272 5.846.272-1.686-1.414-3.018-2.91-3.399-4.242-.217-.761-.136-1.468.218-2.067 1.74-2.963 9.054-.788 14.085 1.17-2.692-3.155-5.874-7.478-5.14-9.735.136-.462.599-1.278 1.877-1.495 3.045-.544 7.912 3.263 13.459 7.912 1.196.979 2.556 2.148 3.535 2.855-.272-.761-.707-1.713-1.115-2.583-1.278-2.746-2.366-5.112-1.414-6.498.299-.408.87-.925 2.094-.816 2.909.217 5.166 3.643 8.945 9.299 2.312 3.481 5.194 7.831 9.001 12.535a.916.916 0 01-.136 1.305.917.917 0 01-1.306-.136c-3.861-4.758-6.77-9.163-9.108-12.671-3.209-4.84-5.52-8.347-7.532-8.483-.327-.027-.435.027-.435.027-.299.544.979 3.317 1.577 4.65.87 1.849 1.604 3.453 1.604 4.595 0 .517-.245.924-.68 1.142-1.006.489-2.229-.462-6.226-3.807-3.78-3.154-9.49-7.939-11.964-7.504-.381.081-.435.19-.435.244-.49 1.496 3.534 6.852 7.531 10.985.3.327.354.816.082 1.17-.245.353-.734.489-1.142.326-6.77-3.046-14.656-5.194-15.607-3.535-.055.109-.136.299-.028.625.517 1.877 4.487 4.813 8.076 7.07 1.604.734 2.801 1.468 3.29 1.958a.913.913 0 01.082 1.196c-.272.354-.789.489-1.197.272-.353-.19-1.577-.87-3.127-1.822-3.317-1.522-8.483-3.181-10.794-2.42-.68.218-.816.598-.87.925-.109.707 1.468 2.012 3.127 3.371 3.426 2.801 8.592 7.043 10.604 14.71 1.523 5.765 8.347 12.916 8.402 12.998.353.38.353.951-.027 1.305-.109.163-.354.244-.571.244z" fill="#000"/><path d="M304.528 181.124c-.843-11.91-9.516-20.556-20.637-20.556-5.574 0-11.366 2.637-15.472 7.015-3.671 3.943-5.52 8.81-5.166 13.677 2.393 33.526-6.662 53.429-26.919 59.139-19.903 5.602-42.308-2.175-66.562-23.166a.896.896 0 00-1.251.054c-4.65 4.623-8.919 9.191-13.052 13.596-4.133 4.432-8.402 9-13.051 13.622-.326.327-.354.87-.082 1.251 16.967 21.1 47.366 38.067 79.723 38.067 9.191 0 18.544-1.36 27.789-4.405 44.429-14.574 57.372-60.336 54.68-98.294z" fill="#000"/><path d="M256.836 225.309a.854.854 0 01-.435-.109.942.942 0 01-.408-1.251c9.951-19.495 10.468-50.901 10.468-51.227 0-.517.408-.924.925-.924.516 0 .924.435.924.951 0 .327-.517 32.167-10.686 52.043a.856.856 0 01-.788.517zm39.426 10.577c-.054 0-.136 0-.19-.028a.963.963 0 01-.734-1.087c4.405-21.617 5.275-39.916 5.275-40.106.027-.517.38-.925.979-.898.516.028.897.463.897.979 0 .191-.87 18.626-5.302 40.405a.957.957 0 01-.925.735z" fill="#fff"/><path d="M162.676 152.71c-.462 0-.843-.327-.924-.816l-1.088-8.157c-.054-.517.299-.979.789-1.033.516-.055.979.299 1.033.788l1.088 8.157c.054.517-.299.979-.789 1.033-.027.028-.054.028-.109.028zm-9.788 7.613a.95.95 0 01-.598-.218l-4.35-3.806a.913.913 0 01-.082-1.306.912.912 0 011.305-.081l4.351 3.807c.38.326.435.924.081 1.305a.988.988 0 01-.707.299zm252.52-78.282c-.245 0-.517-.108-.707-.299l-5.466-6.145a.913.913 0 01.082-1.305.912.912 0 011.305.082l5.465 6.145c.354.38.3.979-.081 1.305a.95.95 0 01-.598.217zm13.622 31.351a.948.948 0 01-.299-.055.92.92 0 01-.571-1.169l5.465-15.662a.92.92 0 011.74.599l-5.438 15.661a.967.967 0 01-.897.626zM24.467 197.221c-4.65 0-8.43-3.78-8.43-8.429 0-4.65 3.78-8.429 8.43-8.429s8.429 3.779 8.429 8.429c0 4.649-3.78 8.429-8.43 8.429zm0-15.009c-3.617 0-6.58 2.936-6.58 6.58 0 3.616 2.936 6.58 6.58 6.58a6.568 6.568 0 006.58-6.58c0-3.644-2.964-6.58-6.58-6.58zM5.732 209.103a.986.986 0 01-.544-.163l-4.187-2.991a.947.947 0 01-.217-1.306.947.947 0 011.305-.217l4.187 2.991c.408.299.517.87.218 1.305a.952.952 0 01-.762.381zm39.426 44.212a.928.928 0 01-.68-.299c-.353-.381-.326-.979.055-1.305l6.58-5.982c.38-.354.979-.327 1.305.054.354.381.326.979-.054 1.305l-6.58 5.982a.96.96 0 01-.626.245zm31.052-19.713a.934.934 0 01-.843-.517l-2.392-4.785a.942.942 0 01.407-1.251c.463-.245 1.006-.055 1.251.408l2.393 4.785a.943.943 0 01-.408 1.251.906.906 0 01-.408.109zM370.087 46.557h-7.858a.917.917 0 01-.925-.924V21.107c0-.517.408-.924.925-.924h7.858c.516 0 .924.407.924.924v24.526a.917.917 0 01-.924.924zm-6.907-1.849h5.982v-22.65h-5.982v22.65zM177.984 389.322a.957.957 0 01-.625-.244l-9.054-8.049c-.381-.326-.408-.924-.082-1.305.326-.38.924-.408 1.305-.081l9.055 8.048c.38.326.407.925.081 1.305a.86.86 0 01-.68.326z" fill="#000"/><defs><linearGradient id="paint0_linear_143_904" x1="253.73" y1="527.857" x2="253.73" y2="58.315" gradientUnits="userSpaceOnUse"><stop stop-color="#7700E3"/><stop offset=".085" stop-color="#7C0AE4"/><stop offset=".228" stop-color="#8A24E7"/><stop offset=".411" stop-color="#A14EEC"/><stop offset=".628" stop-color="#C08AF2"/><stop offset=".87" stop-color="#E8D4FA"/><stop offset="1" stop-color="#fff"/></linearGradient><linearGradient id="paint1_linear_143_904" x1="26.553" y1="46.183" x2="76.981" y2="151.05" gradientUnits="userSpaceOnUse"><stop stop-color="#7700E3"/><stop offset=".085" stop-color="#7C0AE4"/><stop offset=".228" stop-color="#8A24E7"/><stop offset=".411" stop-color="#A14EEC"/><stop offset=".628" stop-color="#C08AF2"/><stop offset=".87" stop-color="#E8D4FA"/><stop offset="1" stop-color="#fff"/></linearGradient><linearGradient id="paint2_linear_143_904" x1="51.38" y1="34.244" x2="101.808" y2="139.111" gradientUnits="userSpaceOnUse"><stop stop-color="#7700E3"/><stop offset=".085" stop-color="#7C0AE4"/><stop offset=".228" stop-color="#8A24E7"/><stop offset=".411" stop-color="#A14EEC"/><stop offset=".628" stop-color="#C08AF2"/><stop offset=".87" stop-color="#E8D4FA"/><stop offset="1" stop-color="#fff"/></linearGradient><linearGradient id="paint3_linear_143_904" x1="76.161" y1="22.328" x2="126.589" y2="127.195" gradientUnits="userSpaceOnUse"><stop stop-color="#7700E3"/><stop offset=".085" stop-color="#7C0AE4"/><stop offset=".228" stop-color="#8A24E7"/><stop offset=".411" stop-color="#A14EEC"/><stop offset=".628" stop-color="#C08AF2"/><stop offset=".87" stop-color="#E8D4FA"/><stop offset="1" stop-color="#fff"/></linearGradient></defs></svg>