<svg width="28" height="28" viewBox="0 0 28 28" fill="none" xmlns="http://www.w3.org/2000/svg">
<path d="M16.2788 0.851368C18.3946 -0.915052 21.622 0.4473 21.8322 3.19553C21.9584 4.84691 23.2593 6.16538 24.9088 6.31384C27.654 6.5609 28.9728 9.80639 27.1781 11.8983C26.0997 13.1552 26.0872 15.0074 27.1486 16.2788C28.9151 18.3946 27.5527 21.622 24.8045 21.8322C23.1531 21.9584 21.8346 23.2593 21.6862 24.9088C21.4391 27.654 18.1936 28.9728 16.1017 27.1781C14.8448 26.0997 12.9926 26.0872 11.7212 27.1486C9.60543 28.9151 6.37797 27.5527 6.16784 24.8045C6.04158 23.1531 4.74072 21.8346 3.09119 21.6862C0.346033 21.4391 -0.972797 18.1936 0.821915 16.1017C1.90033 14.8448 1.91279 12.9926 0.851368 11.7212C-0.915052 9.60543 0.4473 6.37797 3.19553 6.16784C4.84691 6.04158 6.16538 4.74072 6.31384 3.09119C6.5609 0.346033 9.80639 -0.972797 11.8983 0.821915C13.1552 1.90033 15.0074 1.91279 16.2788 0.851368Z" fill="#57E697"/>
<path d="M19.1853 10.1108L12.0557 17.2405L8.81494 13.9997" stroke="white" stroke-width="1.5" stroke-linecap="round" stroke-linejoin="round"/>
</svg>
