<svg width="16" height="16" viewBox="0 0 16 16" fill="none" xmlns="http://www.w3.org/2000/svg">
<path d="M6.80669 0.798674C7.24586 -0.266226 8.75414 -0.266224 9.19331 0.798676L10.4693 3.89272C10.6509 4.33296 11.0601 4.63748 11.534 4.68496L14.8362 5.01582C15.942 5.12661 16.4002 6.49004 15.5857 7.24617L13.0088 9.63858C12.6762 9.94735 12.5302 10.4081 12.6243 10.8521L13.3562 14.3074C13.5918 15.4196 12.3786 16.2712 11.4127 15.6716L8.68078 13.9758C8.26383 13.7169 7.73617 13.7169 7.31922 13.9758L4.58734 15.6716C3.62142 16.2712 2.40817 15.4196 2.64377 14.3074L3.37573 10.8521C3.46978 10.4081 3.32377 9.94735 2.99119 9.63858L0.414271 7.24617C-0.400181 6.49004 0.0580296 5.12661 1.16383 5.01582L4.46605 4.68496C4.93989 4.63748 5.34911 4.33296 5.53067 3.89271L6.80669 0.798674Z" fill="#EAAE4F"/>
</svg>
