<svg width="494" height="577" fill="none" xmlns="http://www.w3.org/2000/svg"><path d="M12.617 391.938l43.497-52.906-13.327 83.477 28.32-6.54-27.64 82.985 54.54-23.384 21.163 88.599-107.694.401 1.141-172.632z" fill="url(#paint0_linear_143_644)"/><path d="M485.534 565.68H11.476c-.617 0-1.11-.493-1.11-1.11V121.762c0-.617.493-1.111 1.11-1.111.617 0 1.11.494 1.11 1.111V563.49h472.948c.617 0 1.111.494 1.111 1.11 0 .587-.494 1.08-1.111 1.08z" fill="#000"/><path d="M469.894 576.848l23.353-12.062-23.353-12.463v24.525zM22.952 126.759L11.66 101.833 0 126.759h22.952z" fill="#000"/><path d="M435.558 314.291l-3.856 22.89-19.496-3.548 3.948-23.414 19.404 4.072z" fill="url(#paint1_linear_143_644)"/><path d="M440.31 339.865c-.062 0-.123 0-.185-.031l-87.457-15.98c-.586-.093-.988-.679-.895-1.265l6.694-41.77a1.01 1.01 0 01.463-.709c.247-.185.555-.216.833-.185l87.457 15.98c.586.092.987.678.895 1.264l-6.694 41.77a1.012 1.012 0 01-.463.71 1.089 1.089 0 01-.648.216zm-86.223-17.955l85.298 15.579 6.354-39.61-85.297-15.579-6.355 39.61z" fill="#000"/><path d="M380.74 328.975c-.062 0-.124 0-.186-.031l-19.496-3.548c-.586-.092-.987-.678-.895-1.264l3.394-20.423c.061-.308.216-.555.462-.709.247-.185.556-.247.833-.185l19.435 3.887c.586.123.957.679.864 1.265l-3.332 20.082c-.061.278-.216.556-.462.71a.946.946 0 01-.617.216zm-18.232-5.522l17.337 3.146 2.992-17.923-17.275-3.455-3.054 18.232zm45.378 10.489c-.061 0-.123 0-.185-.031l-19.465-3.548c-.587-.123-.988-.679-.895-1.265l4.596-27.332c.062-.308.216-.555.463-.71.247-.154.555-.215.833-.154l19.404 4.041c.586.124.957.679.864 1.265l-4.504 26.87c-.062.277-.216.555-.463.709a1.428 1.428 0 01-.648.155zm-18.201-5.522l17.307 3.146 4.164-24.71-17.244-3.578-4.227 25.142zm54.604 81.596h-88.753a1.107 1.107 0 01-1.111-1.111v-42.387c0-.617.494-1.11 1.111-1.11h88.753c.617 0 1.11.493 1.11 1.11v42.387c-.031.617-.493 1.111-1.11 1.111zm-87.643-2.191h86.563v-40.196h-86.563v40.196zm87.643 36.556h-88.753v42.387h88.753v-42.387z" fill="#000"/><path d="M444.289 487.848h-88.753a1.107 1.107 0 01-1.111-1.111v-42.386c0-.617.494-1.111 1.111-1.111h88.753c.617 0 1.11.494 1.11 1.111v42.386c-.031.617-.493 1.111-1.11 1.111zm-87.643-2.19h86.563v-40.197h-86.563v40.197z" fill="#000"/><path d="M444.289 522.183h-88.753v42.387h88.753v-42.387z" fill="#fff"/><path d="M444.289 565.68h-88.753a1.106 1.106 0 01-1.111-1.11v-42.387c0-.617.494-1.111 1.111-1.111h88.753c.617 0 1.11.494 1.11 1.111v42.387c-.031.617-.493 1.11-1.11 1.11zm-87.643-2.19h86.563v-40.197h-86.563v40.197zm-39.734 2.19h-88.753c-.617 0-1.11-.493-1.11-1.11v-42.387c0-.617.493-1.111 1.11-1.111h88.753c.617 0 1.111.494 1.111 1.111v42.387c0 .617-.494 1.11-1.111 1.11zm-87.642-2.19h86.563v-40.197H229.27v40.197zm-98.717 2.19H41.831c-.617 0-1.11-.493-1.11-1.11v-42.387c0-.617.493-1.111 1.11-1.111h88.753c.617 0 1.111.494 1.111 1.111v42.387a1.153 1.153 0 01-1.142 1.11zm-87.642-2.19h86.563v-40.197H42.911v40.197zm329.005-167.048c-.432 0-.802-.247-.987-.648-.247-.555 0-1.203.555-1.45l15.919-7.219a1.123 1.123 0 011.079.093l8.792 6.077 20.361-14.036a1.088 1.088 0 011.234 1.789l-20.978 14.468a1.12 1.12 0 01-1.234 0l-8.884-6.169-15.363 6.972a1.063 1.063 0 01-.494.123z" fill="#000"/><path d="M386.569 475.446c-.278 0-.555-.123-.771-.308l-9.409-9.409a1.08 1.08 0 010-1.543 1.081 1.081 0 011.542 0l8.484 8.484 12-17.738c.339-.494 1.018-.648 1.512-.309.493.34.648 1.018.308 1.512l-12.74 18.849a1.038 1.038 0 01-.803.462h-.123zm30.232 0c-.277 0-.555-.123-.771-.308l-9.409-9.409a1.08 1.08 0 010-1.543 1.082 1.082 0 011.543 0l8.483 8.484 12.001-17.738c.339-.494 1.018-.648 1.511-.309.494.34.648 1.018.309 1.512l-12.741 18.849a1.036 1.036 0 01-.802.462h-.124z" fill="#fff"/><path d="M258.268 534.862a1.08 1.08 0 01-.771-1.851l11.569-11.569a1.081 1.081 0 011.542 0 1.08 1.08 0 010 1.543l-11.568 11.568a1.072 1.072 0 01-.772.309zm7.527 15.825a1.08 1.08 0 01-.771-1.851l27.394-27.394a1.082 1.082 0 011.543 0 1.082 1.082 0 010 1.543l-27.394 27.394a1.098 1.098 0 01-.772.308zm8.392 14.993a1.08 1.08 0 01-.771-1.851l40.535-40.536a1.08 1.08 0 011.543 0 1.08 1.08 0 010 1.543l-40.536 40.535a1.07 1.07 0 01-.771.309zm23.384 0a1.08 1.08 0 01-.771-1.851l19.373-19.373a1.08 1.08 0 011.542 0 1.08 1.08 0 010 1.542l-19.373 19.374a1.075 1.075 0 01-.771.308zm146.532-20.916h-89.339c-.617 0-1.11-.493-1.11-1.11 0-.617.493-1.111 1.11-1.111h89.339c.617 0 1.111.494 1.111 1.111s-.494 1.11-1.111 1.11z" fill="#000"/><path d="M278.938 92.578l-52.413 4.227 28.659 40.566-35.692 24.34 57.595 14.592 34.89 48.68 18.664-44.639 42.171 7.311-8.114-35.692 40.567-38.932-68.146-24.34-21.162-37.76-37.019 41.647z" fill="url(#paint2_linear_143_644)"/><path d="M330.487 169.855H271.38c-.617 0-1.11-.493-1.11-1.11v-26.839c0-.617.493-1.111 1.11-1.111h59.107c.617 0 1.111.494 1.111 1.111v26.839c-.031.617-.525 1.11-1.111 1.11zm-58.027-2.19h56.916v-24.649H272.46v24.649zm58.027-29.091H271.38c-.617 0-1.11-.493-1.11-1.11v-26.839c0-.617.493-1.111 1.11-1.111h59.107c.617 0 1.111.494 1.111 1.111v26.839c-.031.617-.525 1.11-1.111 1.11zm-58.027-2.19h56.916v-24.649H272.46v24.649zm-143.603 35.569H73.853c-.617 0-1.11-.494-1.11-1.111s.493-1.11 1.11-1.11h55.004c.617 0 1.111.493 1.111 1.11 0 .617-.494 1.111-1.111 1.111zm11.877-21.317h-66.88c-.618 0-1.111-.494-1.111-1.111s.493-1.11 1.11-1.11h66.881c.617 0 1.111.493 1.111 1.11 0 .617-.525 1.111-1.111 1.111zm-82.274 4.967c3.146 0 5.707-2.746 5.707-6.077 0-3.363-2.56-6.078-5.708-6.078-3.146 0-5.707 2.746-5.707 6.078 0 3.362 2.56 6.077 5.707 6.077zm0 8.422c-3.147 0-5.708 2.745-5.708 6.077s2.56 6.077 5.707 6.077 5.708-2.745 5.708-6.077-2.56-6.077-5.708-6.077zm135.026 79.097c-6.262-5.769-15.147-7.959-22.643-5.615-7.435 2.314-12.648 8.638-14.684 17.739-20.854 92.763-38.963 187.747-53.863 282.3-.062.308.031.648.247.894.216.247.524.371.833.371h44.638c.525 0 .988-.401 1.08-.926 14.53-90.264 31.898-180.714 51.672-268.85 2.252-10.118-.401-19.558-7.28-25.913z" fill="#000"/><path d="M254.876 491.241a2643.336 2643.336 0 00-3.98-42.417c-7.095-70.46-16.689-141.443-28.535-210.946-1.111-6.479-5.029-12.217-10.797-15.734-5.522-3.393-12.155-4.38-17.708-2.653-11.877 3.733-18.664 17.214-16.134 32.053 16.072 94.213 27.733 190.524 34.644 286.249a1.08 1.08 0 001.079 1.018h44.084c.308 0 .586-.124.802-.34.216-.216.925-.709.894-1.018-1.172-15.825-3.023-31.25-4.349-46.212z" fill="#000"/><path d="M188.767 318.61c-.432 0-.864-.278-1.019-.71l-3.362-9.162h-11.538c-.617 0-1.11-.494-1.11-1.111s.493-1.11 1.11-1.11h12.309c.463 0 .864.278 1.018.709l3.61 9.872c.215.555-.093 1.203-.648 1.419-.093.093-.247.093-.37.093zm-85.391 219.121l-5.029 26.87h57.472s-.278-14.407-9.409-14.407l1.604-12.432h-44.638v-.031z" fill="#fff"/><path d="M155.819 565.68H98.348c-.34 0-.648-.154-.833-.401a1.064 1.064 0 01-.247-.895l5.028-26.869a1.092 1.092 0 011.08-.895h44.639c.308 0 .617.123.832.37.216.247.309.556.278.864l-1.45 11.291c8.916 1.172 9.255 14.807 9.286 15.424 0 .309-.124.587-.309.802-.246.186-.524.309-.833.309zm-56.145-2.19h55.004c-.278-3.209-1.666-12.217-8.237-12.217-.308 0-.617-.123-.833-.37a1.127 1.127 0 01-.277-.864l1.45-11.198h-42.51l-4.597 24.649z" fill="#000"/><path d="M213.508 537.731l2.252 26.87h57.102s-2.468-14.407-11.6-14.407l-3.116-12.432h-44.638v-.031z" fill="#fff"/><path d="M272.861 565.68h-57.102a1.082 1.082 0 01-1.08-1.018l-2.252-26.87a1.025 1.025 0 01.278-.833c.216-.215.493-.339.802-.339h44.639c.493 0 .956.339 1.048.833l2.9 11.661c9.255.833 11.723 14.684 11.815 15.301.062.309-.03.648-.246.895-.185.216-.494.37-.802.37zm-56.115-2.19h54.726c-.833-3.363-3.64-12.217-10.242-12.217-.493 0-.956-.339-1.048-.832l-2.9-11.631H214.71l2.036 24.68z" fill="#000"/><path d="M148.693 529.247h-43.652c-.617 0-1.11-.493-1.11-1.11 0-.617.493-1.111 1.11-1.111h43.652c.617 0 1.11.494 1.11 1.111-.031.617-.493 1.11-1.11 1.11zm106.707 0h-43.651a1.106 1.106 0 01-1.111-1.11c0-.617.494-1.111 1.111-1.111H255.4c.617 0 1.111.494 1.111 1.111s-.494 1.11-1.111 1.11z" fill="#fff"/><path d="M283.998 185.928c-14.345 38.098-53.554 63.826-95.17 60.464-9.84-.802-18.201-7.682-18.201-18.201 0-9.255 8.391-19.003 18.201-18.201 29.307 2.375 53.308-13.944 62.069-40.351l26.222 6.664 6.879 9.625z" fill="#000"/><path d="M184.478 181.578c.247.308.524.555.802.833.463.463.956.833 1.481 1.172.246.216.493.339.74.494.031.031.123.061.185.092.37.216.71.37 1.018.555 0 .031.555.247.864.34l-4.226 34.335c4.658-.062 9.347-.154 14.005-.247l3.98-37.451c6.262-4.843 2.067-12.031 2.067-12.031l1.542-2.838s-3.455-3.764-11.353-6.262c-.061 0-.123-.031-.185-.031a4.314 4.314 0 00-.617-.154c-.216-.031-.431-.093-.617-.124-.216-.031-.462-.062-.678-.092a12.155 12.155 0 00-3.332.185c-.679.123-1.357.308-1.974.555a5.978 5.978 0 01-.679.247c-1.913.802-3.702 2.036-5.028 3.609a9.411 9.411 0 00-1.45 2.098c0 .031 0 .031-.031.031-.031.031-.062.061-.062.092-.031.031-.062.062-.062.124a8.01 8.01 0 00-.678 1.758c-.648 2.314-.463 4.967 1.018 7.743 1.018 2.098 2.098 3.733 3.27 4.967z" fill="#fff"/><path d="M185.342 220.509c-.309 0-.617-.123-.803-.37a1.127 1.127 0 01-.277-.864l4.103-33.502c-.062-.031-.093-.061-.155-.061-.339-.155-.678-.34-1.048-.556a1.273 1.273 0 01-.371-.216c-.308-.185-.555-.339-.771-.524a7.392 7.392 0 01-1.511-1.234 18.87 18.87 0 01-.833-.864c-1.203-1.295-2.376-2.992-3.455-5.09-1.481-2.869-1.882-5.83-1.111-8.576.216-.709.463-1.357.74-1.913 0-.03.031-.061.031-.092.031-.093.093-.185.154-.278a9.836 9.836 0 011.605-2.283c1.388-1.635 3.27-2.992 5.429-3.887l.74-.277a13.265 13.265 0 012.129-.617c1.265-.247 2.499-.34 3.671-.216.37.031.586.062.771.092l.37.062s.247.031.247.062c.185.031.401.092.617.154.062 0 .124.031.185.031 8.206 2.591 11.785 6.447 11.939 6.602.308.339.37.863.154 1.264l-1.265 2.314c1.45 2.931 2.53 8.576-2.252 12.587l-3.917 36.988c-.062.555-.525.956-1.08.987-4.689.123-9.347.216-14.036.277zm3.886-36.741c.155.062.494.185.679.278.494.185.771.648.71 1.172l-4.072 33.101c3.917-.062 7.866-.123 11.784-.216l3.887-36.494c.031-.309.185-.556.432-.741 5.398-4.164 1.943-10.334 1.789-10.612a1.118 1.118 0 010-1.079l1.142-2.098c-1.234-1.08-4.535-3.61-10.242-5.399-.093 0-.185-.031-.278-.062-.154-.061-.339-.092-.524-.123l-.556-.092c-.185-.031-.308-.031-.432-.062a9.863 9.863 0 00-3.177.154c-.679.123-1.265.309-1.789.494l-.71.246c-1.758.741-3.393 1.913-4.566 3.301a8.358 8.358 0 00-1.326 1.882c-.031.031-.031.062-.062.093 0 0 0 .03-.031.03-.03.062-.03.093-.061.155-.247.432-.432.956-.617 1.542-.617 2.19-.309 4.597.925 6.941.987 1.913 2.036 3.486 3.116 4.628l.062.061c.185.247.401.432.617.648.493.494.925.833 1.388 1.142.247.215.401.308.524.37l.155.092.185.093c.339.185.647.37.956.524.062.031.092.031.092.031z" fill="#000"/><path d="M195.923 158.071c.463-2.993-2.344-4.967-5.028-3.609-5.491 2.776-9.347 7.496-11.476 13.203-.432 1.203-.185 2.159.432 2.838-.216 1.913.154 4.041 1.296 6.232 1.048 1.974 2.128 3.609 3.3 4.874.247.308.494.555.772.833a8.83 8.83 0 001.48 1.172c.247.216.494.37.741.494.061.03.123.092.185.092.37.216.709.37 1.018.524 0 0 .524.216.833.34 1.851-2.036 2.591-4.597 2.375-7.404h-.277c-2.345.463-4.844-2.499-2.684-4.411.493-.432 1.079-1.111 1.666-1.882a10.683 10.683 0 01-.895-2.129 18.378 18.378 0 006.262-11.167z" fill="#000"/><path d="M188.488 208.725c-26.098 1.851-35.507 5.738-38.129 66.85h78.85s1.049-12 3.147-36.556c2.098-24.556-7.311-32.916-43.868-30.294z" fill="#fff"/><path d="M229.209 276.655h-78.85c-.308 0-.586-.124-.802-.34-.216-.215-.308-.493-.308-.802 2.56-60.217 11.661-65.924 39.147-67.899 21.224-1.511 33.009.617 39.425 7.127 4.905 4.966 6.633 12.463 5.615 24.37a21143.889 21143.889 0 01-3.147 36.557c-.031.555-.493.987-1.08.987zm-77.708-2.19h76.69c.278-3.332 1.296-15.086 3.054-35.539.957-11.198-.586-18.17-4.997-22.643-5.831-5.923-17.461-7.928-37.698-6.478-25.389 1.82-34.396 5.491-37.049 64.66z" fill="#000"/><path d="M308.43 187.717c2.406-15.733 4.103-26.006 9.255-28.073 5.121-2.067-2.746 13.358 0 14.037 2.745.678 5.121-19.836 8.545-18.818 3.424 1.018.679 16.782.679 16.782s5.398-12.864 8.452-11.507c3.054 1.357-.586 15.61-.586 15.61.617.863 5.152-11.877 7.589-10.859 3.856 1.604 2.098 13.604 1.018 27.27-1.049 13.697-34.952-4.442-34.952-4.442z" fill="#fff"/><path d="M336.564 198.329c-10.427 0-27.764-9.193-28.628-9.656-.401-.216-.648-.678-.555-1.141 2.591-16.967 4.319-26.685 9.902-28.906 1.296-.524 2.098-.185 2.53.216 1.357 1.203.679 3.949-.494 8.329-.339 1.265-.863 3.147-1.048 4.412.709-1.635 1.542-4.658 2.159-6.849 1.666-6.015 2.807-9.748 4.596-10.735a1.952 1.952 0 011.543-.185c2.591.771 2.776 6.2 2.344 11.26 1.481-2.653 3.332-5.245 5.029-5.923.833-.34 1.511-.185 1.912 0 2.222.987 2.129 5.522 1.481 9.902 2.005-3.763 3.64-5.923 5.491-5.152 4.042 1.697 3.27 10.427 2.191 22.52-.155 1.913-.34 3.887-.494 5.862-.185 2.344-1.234 4.072-3.085 5.09-1.326.647-2.992.956-4.874.956zM309.633 187.1c7.157 3.733 24.741 11.568 30.725 8.298 1.173-.648 1.821-1.727 1.944-3.331.154-2.006.339-3.98.494-5.893.832-9.439 1.696-19.219-.864-20.298-.864.308-3.178 5.028-4.165 7.033-1.511 3.054-1.913 3.887-2.838 3.949-.37.031-.833-.185-1.049-.494-.185-.277-.247-.586-.154-.894 1.943-7.497 2.252-13.851 1.203-14.314-.062-.031-.154.031-.216.031-1.851.74-5.09 6.817-6.787 10.889-.216.525-.802.772-1.326.617a1.096 1.096 0 01-.771-1.234c1.449-8.329 1.233-15.177.092-15.548-.925.463-2.53 6.263-3.393 9.409-1.728 6.263-2.777 9.996-5.09 9.44a1.717 1.717 0 01-1.08-.833c-.741-1.264-.154-3.609.864-7.342.524-1.912 1.388-5.028 1.172-6.015a.722.722 0 00-.278.092c-4.658 1.851-6.386 12.648-8.483 26.438z" fill="#000"/><path d="M343.536 191.079c-11.661-1.233-22.643-2.406-34.89-4.442-.278-.062-.587.031-.833.185-.247.185-.401.432-.432.71-2.653 17.306-13.851 38.469-32.824 46.675-19.465 8.421-43.96 3.27-59.6-12.556-8.977-9.101-20.145-6.232-26.715.278-6.849 6.786-9.255 18.231-.587 27.023 17.862 18.078 42.171 27.765 66.573 27.765 11.969 0 23.97-2.314 35.26-7.127 30.572-13.018 52.166-43.373 55.066-77.307 0-.617-.432-1.142-1.018-1.204zM55.034 263.945c-5.151 0-9.347-4.195-9.347-9.347 0-5.152 4.196-9.348 9.347-9.348 5.152 0 9.348 4.196 9.348 9.348 0 5.152-4.196 9.347-9.348 9.347zm0-16.504a7.162 7.162 0 00-7.157 7.157 7.163 7.163 0 007.157 7.157 7.163 7.163 0 007.157-7.157 7.162 7.162 0 00-7.157-7.157zm30.51-11.785c-.154 0-.308-.03-.463-.092a1.059 1.059 0 01-.524-1.45l4.195-9.101a1.058 1.058 0 011.45-.524c.556.247.802.895.525 1.45l-4.196 9.1c-.154.371-.555.617-.987.617zm-29.43 67.313c-.246 0-.462-.062-.678-.216l-9.132-7.003c-.493-.37-.555-1.048-.215-1.542.37-.494 1.048-.555 1.542-.216l9.131 7.003c.494.37.556 1.049.216 1.542a1.125 1.125 0 01-.864.432zm319.103-91.159c-.185 0-.37-.031-.524-.123l-7.713-4.196c-.524-.278-.74-.956-.432-1.481.278-.524.957-.74 1.481-.432l7.712 4.196c.525.278.741.956.432 1.481-.216.339-.586.555-.956.555zm-55.22 264.932l-86.902 19.126-8.02-41.522 86.933-19.096 7.989 41.492z" fill="#000"/><path d="M233.096 496.948c-.216 0-.432-.062-.617-.185a1.01 1.01 0 01-.463-.709l-8.021-41.523a1.062 1.062 0 01.833-1.265l86.902-19.096c.278-.061.586 0 .833.154.247.155.432.432.463.71l8.021 41.492a1.062 1.062 0 01-.833 1.265l-86.902 19.095c-.062.062-.154.062-.216.062zm-6.725-41.739l7.589 39.364 84.773-18.633-7.589-39.364-84.773 18.633z" fill="#000"/><path d="M253.796 491.334l-20.7 4.535-7.99-41.523 24.71-5.43c1.419 14.129 2.777 28.258 3.98 42.418z" fill="#fff"/><path d="M233.096 496.948c-.216 0-.432-.061-.617-.185a1.01 1.01 0 01-.463-.709l-7.99-41.523a1.062 1.062 0 01.833-1.265l24.71-5.43c.309-.061.617.001.864.186s.432.462.463.771c1.48 14.499 2.838 28.782 3.979 42.417.062.556-.308 1.049-.864 1.173l-20.699 4.534c-.062.031-.155.031-.216.031zm-6.725-41.739l7.589 39.364 18.663-4.103a2309.045 2309.045 0 00-3.794-40.196l-22.458 4.935z" fill="#000"/><path d="M399.651 62.778c-9.872-31.466-9.255-59.23-9.255-59.23L262.712 1.08c-.617 27.764-34.551 69.719-24.68 99.951 9.872 30.232 39.179 34.119 31.189 13.141-8.021-20.977 4.596-39.054 18.17-42.756 13.574-3.702 48.125 10.488 54.294 28.998 6.17 18.509-12.062 18.633-12.524 39.857-.309 14.221 13.481 5.337 24.062-5.059l-.463.987c15.271-.463 25.266-3.98 31.096-10.489 20.175.494 30.849-14.9 15.795-62.932z" fill="#fff"/><path d="M333.757 148.754c-.524 0-.987-.061-1.45-.154-2.931-.709-4.381-3.517-4.257-8.329.216-10.335 4.473-15.826 8.237-20.669 4.133-5.337 7.403-9.563 4.318-18.818-5.861-17.615-39.764-31.867-52.967-28.289-6.695 1.82-12.865 7.188-16.474 14.314-4.134 8.175-4.504 17.769-.956 26.993 2.56 6.695 1.265 10.304-.278 12.155-1.82 2.159-4.874 2.961-8.576 2.252-8.298-1.604-19.065-10.52-24.371-26.808-5.923-18.14 3.363-39.888 12.34-60.927 6.17-14.468 12.031-28.134 12.278-39.394 0-.586.493-1.08 1.11-1.08h.031c.617 0 1.08.524 1.08 1.11-.247 11.662-6.17 25.513-12.463 40.197-8.823 20.669-17.954 42.016-12.278 59.384 5.028 15.363 15.301 23.909 22.705 25.328 2.9.555 5.183.03 6.478-1.512 1.635-1.974 1.604-5.491-.092-9.933-3.764-9.81-3.394-20.052 1.049-28.783 3.887-7.681 10.581-13.45 17.861-15.424 14.222-3.856 49.297 10.766 55.621 29.708 3.455 10.396-.493 15.455-4.658 20.853-3.733 4.813-7.589 9.78-7.774 19.374-.062 3.64.802 5.707 2.591 6.17 7.096 1.758 26.623-17.461 30.664-25.544 4.936-9.871 4.628-30.355-3.671-43.96-.308-.524-.154-1.203.371-1.511.524-.309 1.203-.154 1.511.37 8.669 14.252 8.916 35.723 3.733 46.089-3.424 6.786-21.903 26.838-31.713 26.838z" fill="#000"/><path d="M355.074 57.657l2.128 5.861-2.128-5.861z" fill="#fff"/><path d="M357.202 64.598c-.462 0-.864-.278-1.018-.71l-2.128-5.86c-.216-.556.092-1.204.647-1.42.556-.216 1.204.093 1.42.648l2.128 5.861c.216.556-.092 1.203-.648 1.42-.154.061-.277.061-.401.061z" fill="#000"/><path d="M369.634 54.788l2.128 5.861-2.128-5.861z" fill="#fff"/><path d="M371.763 61.76c-.462 0-.863-.278-1.018-.71l-2.128-5.861c-.216-.555.092-1.203.648-1.42a1.109 1.109 0 011.419.649l2.128 5.861c.216.555-.092 1.203-.648 1.42-.154.03-.277.06-.401.06z" fill="#000"/><path d="M385.46 52.844l1.08 6.386-1.08-6.386z" fill="#fff"/><path d="M386.539 60.34a1.09 1.09 0 01-1.079-.925l-1.08-6.385c-.093-.587.308-1.173.895-1.265.586-.093 1.172.308 1.264.894l1.08 6.386c.093.586-.308 1.172-.894 1.265-.093.03-.155.03-.186.03zm-33.779 76.939c-.586 0-1.08-.463-1.111-1.049-.031-.617.463-1.111 1.049-1.142 15.918-.493 26.253-4.349 31.682-11.815 7.126-9.841 6.571-26.19-1.851-54.634a1.068 1.068 0 01.741-1.357c.586-.154 1.203.154 1.357.74 8.638 29.184 9.07 46.089 1.512 56.547-5.831 8.051-16.751 12.216-33.379 12.74.031-.03 0-.03 0-.03z" fill="#000"/><path d="M384.75 126.821c-.401 0-.771 0-1.172-.031-.617-.031-1.08-.525-1.049-1.142.031-.617.524-1.048 1.141-1.048 7.928.277 13.759-2.037 17.337-6.818 6.941-9.162 6.139-27.548-2.375-54.696-9.81-31.28-9.316-59.292-9.316-59.57 0-.616.462-1.048 1.11-1.079.617 0 1.08.524 1.08 1.11 0 .278-.494 27.95 9.193 58.86 8.73 27.857 9.44 46.922 2.036 56.671-3.887 5.151-9.933 7.743-17.985 7.743z" fill="#000"/><defs><linearGradient id="paint0_linear_143_644" x1="151.702" y1="370.993" x2="1.618" y2="558.247" gradientUnits="userSpaceOnUse"><stop stop-color="#7700E3"/><stop offset=".085" stop-color="#7C0AE4"/><stop offset=".228" stop-color="#8A24E7"/><stop offset=".411" stop-color="#A14EEC"/><stop offset=".628" stop-color="#C08AF2"/><stop offset=".87" stop-color="#E8D4FA"/><stop offset="1" stop-color="#fff"/></linearGradient><linearGradient id="paint1_linear_143_644" x1="431.238" y1="287.2" x2="417.986" y2="353.459" gradientUnits="userSpaceOnUse"><stop stop-color="#7700E3"/><stop offset=".085" stop-color="#7C0AE4"/><stop offset=".228" stop-color="#8A24E7"/><stop offset=".411" stop-color="#A14EEC"/><stop offset=".628" stop-color="#C08AF2"/><stop offset=".87" stop-color="#E8D4FA"/><stop offset="1" stop-color="#fff"/></linearGradient><linearGradient id="paint2_linear_143_644" x1="219.504" y1="137.957" x2="405.252" y2="137.957" gradientUnits="userSpaceOnUse"><stop stop-color="#7700E3"/><stop offset=".085" stop-color="#7C0AE4"/><stop offset=".228" stop-color="#8A24E7"/><stop offset=".411" stop-color="#A14EEC"/><stop offset=".628" stop-color="#C08AF2"/><stop offset=".87" stop-color="#E8D4FA"/><stop offset="1" stop-color="#fff"/></linearGradient></defs></svg>