<svg width="344" height="252" viewBox="0 0 344 252" fill="none" xmlns="http://www.w3.org/2000/svg">
<path d="M278.324 48.588C278.324 22.0297 299.853 0.5 326.412 0.5C352.97 0.5 374.5 22.0297 374.5 48.588V251.5H278.324V48.588Z" stroke="url(#paint0_linear_315_3)"/>
<path d="M74.0244 48.588C74.0244 22.0297 95.5542 0.5 122.112 0.5C148.671 0.5 170.2 22.0297 170.2 48.588V251.5H74.0244V48.588Z" stroke="url(#paint1_linear_315_3)"/>
<path d="M188.8 116.191C188.8 96.6058 204.677 80.7286 224.263 80.7286C243.848 80.7286 259.725 96.6058 259.725 116.191V251.5H188.8V116.191Z" stroke="url(#paint2_linear_315_3)"/>
<path d="M-15.5 116.191C-15.5 96.6058 0.377237 80.7286 19.9628 80.7286C39.5483 80.7286 55.4256 96.6058 55.4256 116.191V251.5H-15.5V116.191Z" stroke="url(#paint3_linear_315_3)"/>
<defs>
<linearGradient id="paint0_linear_315_3" x1="326.412" y1="0" x2="326.412" y2="252" gradientUnits="userSpaceOnUse">
<stop stop-color="#04BAA4"/>
<stop offset="1" stop-color="#04BAA4" stop-opacity="0"/>
</linearGradient>
<linearGradient id="paint1_linear_315_3" x1="122.112" y1="0" x2="122.112" y2="252" gradientUnits="userSpaceOnUse">
<stop stop-color="#9353DD"/>
<stop offset="1" stop-color="#9353DD" stop-opacity="0"/>
</linearGradient>
<linearGradient id="paint2_linear_315_3" x1="224.263" y1="80.2286" x2="224.263" y2="252" gradientUnits="userSpaceOnUse">
<stop stop-color="#D8AE02"/>
<stop offset="1" stop-color="#D8AE02" stop-opacity="0"/>
</linearGradient>
<linearGradient id="paint3_linear_315_3" x1="19.9628" y1="80.2286" x2="19.9628" y2="252" gradientUnits="userSpaceOnUse">
<stop stop-color="#ED3945"/>
<stop offset="1" stop-color="#ED3945" stop-opacity="0"/>
</linearGradient>
</defs>
</svg>
