<svg width="104" height="96" fill="none" xmlns="http://www.w3.org/2000/svg"><path d="M85.088 31.933C80.96 21.54 67.15 5.737 44.228 5.737c-24.772 0-41.999 18.08-43.28 40.148-1.85 31.606 21.498 49.402 43.28 49.402 14.807 0 29.044-7.403 37.159-19.79 7.972-12.385 8.115-32.46 3.701-43.564z" fill="#fff"/><path d="M44.086 95.999c-11.817 0-23.49-4.983-31.748-13.81C6.216 75.64-.902 64.11.094 45.885.806 34.78 5.362 24.672 13.192 17.127c8.115-7.688 19.077-11.96 30.894-11.96 24.488 0 37.87 17.37 41.572 26.624 4.556 11.389 4.413 31.606-3.844 44.134-8.115 12.386-22.494 20.074-37.728 20.074zm0-89.408C20.738 6.591 2.8 23.248 1.518 46.027.52 63.681 7.355 74.928 13.334 81.193c7.973 8.542 19.22 13.382 30.752 13.382 14.664 0 28.759-7.403 36.589-19.504 7.688-11.817 8.115-31.749 3.701-42.853C80.817 23.39 67.862 6.59 44.086 6.59z" fill="#000"/><path d="M85.8 28.516a225.304 225.304 0 0115.66-12.67c-4.556-.57-9.112-.998-13.525-1.14 1.139-4.556 1.993-8.97 2.847-13.383-5.267 3.56-9.68 7.119-15.376 11.96-.711 4.128-1.85 8.4-1.566 12.955 3.417.997 8.115 1.139 11.96 2.278z" fill="#fff"/><path d="M85.8 29.228h-.142c-1.709-.427-3.56-.712-5.553-.997-2.278-.427-4.698-.712-6.691-1.424-.285-.142-.427-.284-.427-.569-.142-3.986.57-7.688 1.281-11.247.143-.57.285-1.14.285-1.709 0-.142.142-.284.285-.427 5.837-4.84 10.25-8.4 15.518-11.959.285-.142.57-.142.712 0 .285.143.427.427.285.712-.855 4.129-1.567 8.4-2.706 12.671 3.844.285 8.258.57 12.814 1.139.284 0 .569.285.569.57 0 .284 0 .569-.285.711a221.012 221.012 0 00-15.518 12.529c0-.143-.142 0-.427 0zm-11.39-3.702c1.851.57 3.987.854 5.98 1.282 1.709.284 3.56.569 5.268.996a180.042 180.042 0 0113.952-11.39c-4.271-.569-8.257-.711-11.817-.996-.142 0-.427-.142-.57-.285-.142-.142-.142-.427-.142-.57.997-3.843 1.709-7.83 2.563-11.674-4.556 3.133-8.542 6.407-13.81 10.678-.142.57-.142.997-.285 1.566-.569 3.275-1.28 6.692-1.139 10.393z" fill="#000"/><path d="M51.63 21.824c-7.26-1.566-15.09-.57-21.64 2.99-6.548 3.56-11.531 9.397-13.952 16.373-1.566 4.555-1.993 9.396-1.85 14.236.284 6.692 3.844 13.383 8.969 17.512 6.406 5.125 12.528 7.83 19.932 8.257 9.965.712 19.931-4.27 25.626-12.243 5.695-7.973 6.834-18.65 3.417-27.62-3.417-9.112-10.963-17.37-20.501-19.505z" fill="#fff"/><path d="M44.94 81.904h-1.851c-7.404-.427-13.668-3.132-20.36-8.4-5.41-4.413-8.969-11.389-9.253-18.08-.285-5.553.427-10.25 1.85-14.522 2.42-6.976 7.689-13.098 14.38-16.657 6.691-3.56 14.664-4.698 22.067-2.99C60.743 23.248 69 31.08 72.701 41.187c3.56 9.396 2.136 20.216-3.559 28.331-5.41 7.546-14.806 12.386-24.203 12.386zm0-60.08a30.165 30.165 0 00-14.522 3.702c-6.407 3.417-11.39 9.254-13.668 15.945-1.424 3.987-1.993 8.685-1.708 13.953.284 6.406 3.559 12.813 8.827 17.084 6.406 5.125 12.386 7.688 19.504 8.115 9.539.712 19.362-3.986 24.915-11.959 5.41-7.688 6.691-18.08 3.417-27.05-3.702-9.681-11.532-17.227-19.932-19.078-2.42-.57-4.556-.712-6.834-.712z" fill="#000"/><path d="M48.215 35.634c-3.844-.854-8.115-.285-11.674 1.566-3.559 1.851-6.264 4.983-7.545 8.542-.854 2.42-1.14 4.983-.997 7.546.142 3.56 1.993 6.976 4.84 9.254 3.418 2.705 6.834 4.129 10.678 4.413 5.268.285 10.678-2.277 13.81-6.406 2.99-4.129 3.702-9.824 1.851-14.522-1.85-4.84-5.837-9.254-10.962-10.393z" fill="#E0FF23"/><path d="M44.514 67.667h-.997c-4.129-.284-7.546-1.708-11.105-4.555-2.99-2.42-4.983-6.122-5.125-9.824-.142-2.99.142-5.552.997-7.83 1.28-3.844 4.27-7.119 7.83-8.97 3.701-1.993 8.115-2.562 12.101-1.708 4.983 1.14 9.396 5.268 11.532 10.678 1.993 5.125 1.14 10.962-1.993 15.233-2.847 4.414-7.973 6.976-13.24 6.976zm0-31.748c-2.706 0-5.41.712-7.688 1.85-3.417 1.71-5.98 4.841-7.261 8.258-.712 2.136-.997 4.414-.997 7.261.143 3.275 1.851 6.55 4.556 8.685 3.417 2.705 6.55 3.986 10.393 4.27 5.125.285 10.25-2.135 13.098-6.121a14.756 14.756 0 001.708-13.952c-1.993-4.983-6.121-8.827-10.535-9.824-.854-.285-1.993-.427-3.274-.427z" fill="#000"/><path d="M45.224 50.44c-.142 0-.427-.142-.57-.284a.688.688 0 010-.997C61.17 34.353 78.682 20.26 96.478 7.02c.285-.286.712-.143.997.141.284.285.142.712-.143.997-17.796 13.098-35.165 27.335-51.68 41.999 0 .285-.142.285-.427.285zM31.415 76.637c-.143 0-.143 0-.143-.142C26.005 66.386 21.45 55.85 17.89 45.173c0-.142 0-.284.142-.284s.285 0 .285.142c3.559 10.82 8.115 21.355 13.382 31.321 0 0 0 .142-.284.285.142 0 .142 0 0 0zm4.131.996c-.142 0-.142 0-.142-.142-5.41-12.101-10.536-24.63-15.092-37.016 0-.142 0-.285.143-.285.142 0 .285 0 .285.143 4.556 12.386 9.68 24.914 15.09 37.016a.306.306 0 01-.284.284zm-9.113-33.029c-.143 0-.143 0-.143-.143a130.36 130.36 0 01-3.844-9.396c0-.142 0-.285.143-.285.142 0 .285 0 .285.143a130.374 130.374 0 003.843 9.396s0 .142-.284.285zm2.847-4.271c-.142 0-.142 0-.284-.143l-3.56-8.684c0-.143 0-.285.143-.285.142 0 .285 0 .285.142l3.559 8.685c.142.142 0 .285-.142.285zm2.848-4.271c-.143 0-.143 0-.285-.143l-3.132-7.545c0-.143 0-.285.142-.285.143 0 .285 0 .285.142l3.132 7.546c.142.142 0 .285-.142.285zm4.555-2.421c-.142 0-.142 0-.285-.142-1.139-2.42-1.993-4.983-2.847-7.546 0-.142 0-.284.142-.284.143 0 .285 0 .285.142.854 2.563 1.85 5.125 2.847 7.546.143 0 0 .142-.142.284zm4.413-1.565c-.143 0-.143 0-.285-.143a64.851 64.851 0 01-2.563-7.403c0-.142 0-.285.143-.285.142 0 .284 0 .284.143.712 2.42 1.566 4.983 2.563 7.26 0 .143 0 .285-.142.428zm4.841.142c-.142 0-.142 0-.284-.143l-2.42-8.115c0-.142 0-.285.142-.285s.285 0 .285.143l2.42 8.115s0 .142-.143.285zm5.267 2.42c-.142 0-.142 0-.285-.143l-3.132-9.68c0-.143 0-.285.142-.285.143 0 .285 0 .285.142l3.132 9.681c.143 0 0 .142-.142.285zm6.123 2.278c-.143 0-.143 0-.285-.143l-4.129-11.105c0-.142 0-.284.142-.284.143 0 .285 0 .285.142l4.129 11.105c.142.142.142.285-.142.285.142 0 0 0 0 0zM40.954 79.342c-.143 0-.143 0-.143-.142-1.85-3.417-3.559-6.977-4.84-10.536 0-.142 0-.285.142-.285s.285 0 .285.143c1.281 3.56 2.99 7.118 4.84 10.535 0 0 0 .143-.284.285.142 0 .142 0 0 0zm4.129-.142c-.142 0-.142 0-.142-.143-1.851-2.99-3.417-6.122-4.556-9.539 0-.142 0-.284.142-.284.143 0 .285 0 .285.142 1.14 3.274 2.705 6.406 4.556 9.396 0 .143 0 .285-.285.427.142-.142.142 0 0 0zm4.129-.712c-.142 0-.142 0-.142-.143-1.424-2.847-2.706-5.695-3.844-8.684 0-.143 0-.285.142-.285s.285 0 .285.142c1.139 2.848 2.42 5.838 3.844 8.685a.306.306 0 01-.285.285zm10.535-45.843c-.142 0-.142 0-.285-.143l-1.708-4.698c0-.142 0-.285.142-.285.143 0 .285 0 .285.143l1.708 4.698c.143.142.143.285-.142.285.142 0 0 0 0 0zm11.247 25.057c-.143 0-.143 0-.143-.143-2.847-6.264-5.694-12.67-8.257-19.077 0-.143 0-.285.142-.285.143 0 .285 0 .285.142 2.563 6.407 5.41 12.814 8.258 19.078 0 0 0 .142-.285.285.142 0 .142 0 0 0zm.57-9.112c-.143 0-.143 0-.143-.142-2.135-3.987-4.129-8.258-5.98-12.386 0-.143 0-.285.143-.285.142 0 .285 0 .285.142 1.85 4.129 3.844 8.4 5.98 12.386 0 .143 0 .285-.285.285.142 0 0 0 0 0zm-2.278 14.949c-.142 0-.142 0-.284-.143l-9.54-21.925c0-.142 0-.284.143-.284s.285 0 .285.142l9.539 21.925c.142 0 .142.142-.143.285.143 0 .143 0 0 0zm-2.136 3.986c-.142 0-.141 0-.141-.142l-4.841-10.535c0-.143 0-.285.142-.285.143 0 .285 0 .285.142l4.84 10.535c-.142.143-.142.285-.284.285zm-3.133 3.132c-.142 0-.142 0-.142-.142l-4.129-8.97c0-.142 0-.284.142-.284.143 0 .285 0 .285.142l4.129 8.97s0 .142-.285.284c.142 0 0 0 0 0zm-3.13 2.421c-.142 0-.142 0-.142-.143l-3.56-7.545c0-.143 0-.285.143-.285.142 0 .285 0 .285.142l3.559 7.546c0 .142 0 .285-.285.285.142 0 0 0 0 0zm-3.417 2.42c-.142 0-.142 0-.142-.143l-3.56-7.545c0-.142 0-.285.143-.285.142 0 .285 0 .285.142l3.559 7.546s0 .142-.285.285zm-4.13 2.562c-.142 0-.142 0-.142-.142l-3.56-7.688c0-.142 0-.285.143-.285.142 0 .285 0 .285.143l3.559 7.688s0 .142-.285.284z" fill="#000"/><path opacity=".129" d="M89.786 15.703c-.712-1.14-1.85-.712-2.705 0-.854.57-1.566 1.139-2.42 1.708-3.56 2.563-6.976 4.84-9.681 7.119-.997 1.139.57 2.705 1.708 1.993 3.132-2.42 6.407-4.698 9.681-6.976l2.563-1.709c.854-.427 1.281-1.423.854-2.135z" fill="#000"/><path d="M85.516 56.99c5.695-.997 11.39-1.709 17.084-2.278-3.132-2.563-6.264-4.698-9.396-6.976 2.847-2.848 5.41-5.695 8.115-8.542-5.41.284-10.25.854-16.515 1.85-2.42 2.563-5.125 5.268-6.976 8.685 1.993 2.563 5.268 4.84 7.688 7.26z" fill="#fff"/><path d="M85.515 57.702c-.142 0-.427-.143-.57-.285-.996-1.139-2.277-2.136-3.558-3.275-1.567-1.28-3.133-2.705-4.272-4.128-.142-.285-.284-.57-.142-.855 1.709-2.99 3.844-5.41 5.98-7.687.284-.428.711-.712.996-1.14.142-.142.285-.142.427-.284 6.407-.997 11.247-1.566 16.657-1.85.285 0 .57.141.712.426.143.285.143.57-.142.712-2.42 2.705-4.84 5.41-7.546 7.973 2.705 1.85 5.695 3.986 8.685 6.549.285.142.285.427.285.712-.143.284-.285.427-.57.427-5.552.854-11.247 1.708-16.942 2.705zm-6.976-7.973c.997 1.139 2.42 2.42 3.844 3.56l3.417 2.989c4.983-.854 9.966-1.566 14.949-1.993-2.848-2.136-5.553-4.129-7.973-5.837-.142-.143-.285-.285-.285-.57 0-.142 0-.427.143-.57 2.42-2.42 4.698-4.84 6.833-7.26-4.698.285-8.969.854-14.521 1.708-.285.285-.57.57-.855.997-1.993 2.135-3.986 4.271-5.552 6.976z" fill="#000"/><path d="M46.364 55.14c-.285 0-.57-.286-.712-.57 0-.427.142-.712.57-.855 18.65-3.416 37.727-5.979 56.662-7.545.427 0 .712.285.712.57 0 .426-.285.711-.569.711a636.9 636.9 0 00-56.663 7.688z" fill="#000"/><path opacity=".129" d="M95.196 49.302c0-1.14-.997-1.424-1.993-1.282-.855.143-1.709.143-2.563.285-3.702.285-7.26.427-10.25.854-1.14.427-.855 2.278.426 2.278 3.417-.427 6.834-.57 10.251-.712.854 0 1.709-.142 2.705-.142.57.142 1.424-.427 1.424-1.281zm-34.167 0c0-.712 0-1.709-.427-2.278-.427-.712-1.566-.854-2.136-.285-.854.712-.57 1.851-.712 2.848v-.143.143c-.142.996-.427 1.993-.711 2.99-.712 1.85-2.42 4.698-4.271 6.406-2.136 1.709-3.987 2.563-6.977 3.56-1.85.569-3.843.426-5.41.142h.143c-3.417-.428-4.983-1.282-6.834-3.133-1.424-1.28-3.274.712-1.993 1.994 2.847 2.99 6.834 4.27 10.962 4.698.712 0 1.566 0 2.278-.142v.427c.712 1.423 1.424.854 2.42.712 1.282-.285.855-.143 2.279-.428 2.562-.427 4.555-2.135 6.264-3.844 2.278-2.135 3.844-4.983 4.84-7.972.285-1.709.285-3.702.285-5.695z" fill="#000"/><path opacity=".129" d="M73.698 49.871c0-.854-.142-1.708-.284-2.562 0-.57-.285-.997-.712-1.282-.997-.712-2.42.428-2.136 1.566.427 1.709.285 4.13 0 5.695-.427 2.42-1.423 4.556-2.278 6.834-.142.427-.284.854-.569 1.281-.285.427-.142.427-.427 1.14-.712 1.423-1.424 2.847-2.278 4.27-1.85 2.99-5.695 6.55-7.973 8.115-2.135 1.566-1.708.855-3.701 1.993.142-.142.427-.284.57-.284-.286.142-.57.284-.997.284-2.563.997-5.268 1.851-8.115 2.278h-3.133c-.284 0-.712 0-.996-.142-.285 0-.427 0-.712.142-.854.427-.57 1.709.285 1.851.57.143.996.143 1.566.285h.142c2.136.285 4.271 0 6.264-.57 2.136-.427 4.129-1.139 6.122-1.85.285-.143-.142 0-.285 0 .855-.143 1.709-.427 2.42-.712 4.414-2.136 8.258-5.553 11.248-9.539.997-1.281 1.85-2.847 2.563-4.413.284-.855.854-1.566.854-2.42v.426c.854-2.42 1.85-4.84 2.278-7.403v.427c.284-1.423.57-3.416.284-5.41zM85.515 64.25c.854-2.562 1.566-5.124 1.851-7.545h-.285c-.427 0-.712 0-.996-.285-.143 0-.143-.142-.285-.284a4.264 4.264 0 01-1.14-.57c-.284.854-.426 1.851-.853 2.99-1.14 3.702-1.851 5.695-3.275 8.685-1.139 2.278-2.278 4.555-3.559 6.69-2.847 4.272-3.132 4.557-5.552 7.547-3.844 3.986-6.692 6.69-11.105 8.115-3.986 1.708-7.83 3.132-12.813 3.843-.143 0-.428 0-.57.143-.142 0-.427 0-.57.142-.284 0-.569.143-.711.285-.712.712-.143 1.993.712 1.85 1.566 0 3.274-.142 4.84-.569a43.967 43.967 0 008.4-2.562c1.85-.712 3.844-1.282 5.552-2.136 2.99-1.708 3.987-2.705 6.407-4.983.996-.854 1.993-1.993 2.99-2.99.285.712 1.281.997 1.85.428 2.99-2.99 5.268-6.692 7.119-10.393.854-1.851 1.708-3.702 2.135-5.695.143-.712.57-1.566.143-2.136-.142-.284-.142-.427-.285-.57z" fill="#000"/><path d="M24.867 71.37c-.142 0-.142 0-.142-.143-3.132-5.553-5.98-11.532-8.257-17.512 0-.142 0-.284.142-.284.143 0 .285 0 .285.142 2.278 5.98 5.125 11.817 8.257 17.512 0 .142 0 .284-.285.284.143 0 0 0 0 0z" fill="#000"/></svg>