<svg width="79" height="345" fill="none" xmlns="http://www.w3.org/2000/svg"><path d="M53.68 144.534c4.845-1.762 10.13-2.423 14.973-.441.66.22 1.321.661 1.541 1.321.44 1.101-.22 2.202-.88 3.083-9.688 11.229-25.322 15.853-39.854 14.973-3.303-.221-7.486-.881-10.129-3.083.44-2.202 2.423-3.303 4.404-4.184 5.505-3.082 25.322-9.908 29.946-11.669z" fill="#fff"/><path d="M32.763 164.35H29.24c-5.064-.22-8.587-1.321-10.79-3.302a1.685 1.685 0 01-.44-1.101c.66-2.643 2.863-4.184 4.844-5.065 4.404-1.981 17.615-6.825 25.322-9.468 2.202-.88 3.963-1.321 5.064-1.761 4.184-1.541 10.129-2.863 15.633-.441.66.221 1.762.881 2.202 1.762.66 1.321.22 2.642-1.1 4.183-8.368 9.468-22.24 15.193-37.212 15.193zm-12.33-4.624c1.981 1.321 4.843 2.202 8.807 2.422 15.853.881 30.385-4.623 38.973-14.532.66-.881.88-1.541.88-1.761-.22-.221-.66-.441-.88-.661-4.844-1.982-10.35-.881-14.092.661a60.85 60.85 0 01-5.065 1.761c-7.706 2.863-20.697 7.487-25.1 9.468-1.982.661-3.083 1.541-3.524 2.642z" fill="#000"/><path d="M64.25 155.543c.44-11.67-2.422-23.34 0-34.79 1.101-5.945 3.743-11.229 5.284-17.174 1.542-5.945 1.982-12.11-.66-17.395-3.523-6.825-11.23-10.128-18.716-11.45-7.486-1.32-15.413-1.1-22.018 2.643-5.285 3.082-8.808 8.587-10.35 14.532-1.54 5.945-.66 12.331 1.542 18.055.88 2.422 1.982 4.624 3.083 7.046 5.504 14.312 2.422 30.386 3.743 45.579 0 1.101.22 2.202.66 3.082.66 1.101 1.542 1.982 2.422 2.643 3.303 2.862 7.046 5.725 11.45 6.165 3.523.44 7.046-1.101 10.129-2.863 5.945-3.523 12.99-8.587 13.431-16.073z" fill="#fff"/><path d="M57.425 114.148l14.972-97.983c.66-4.404-2.202-8.367-6.385-9.028L27.259 2.073c-4.183-.44-8.147 2.642-8.807 7.046L3.479 107.102c-.66 4.403 2.202 8.367 6.385 9.027l38.753 5.065c4.184.44 8.147-2.643 8.808-7.046z" fill="#E0FF23"/><path d="M49.498 122.295h-1.1L9.644 117.23c-2.202-.22-4.184-1.541-5.505-3.302-1.541-1.982-1.982-4.404-1.762-7.046L17.351 8.899C18.011 3.835 22.636.312 27.48.972l38.752 5.064c2.202.22 4.184 1.542 5.505 3.303 1.541 1.982 1.982 4.404 1.762 7.046l-14.973 97.983c-.66 4.624-4.624 7.927-9.028 7.927zM26.378 2.954c-3.302 0-6.165 2.642-6.825 6.165L4.58 107.102c-.22 1.982.22 3.743 1.321 5.284 1.101 1.321 2.422 2.202 4.184 2.422l38.753 5.065c3.523.44 7.046-2.202 7.706-6.166l14.973-97.982c.22-1.982-.22-3.743-1.321-5.285-1.101-1.32-2.422-2.202-4.184-2.422L27.26 2.954c-.44.22-.66 0-.88 0z" fill="#000"/><path d="M58.525 106.221l13.211-86.093-53.945-7.046L4.58 99.175l53.945 7.046z" fill="#fff"/><path d="M58.525 107.322L4.36 100.276c-.22 0-.44-.22-.66-.44-.22-.22-.22-.44-.22-.881l13.21-86.093c0-.66.661-.88 1.102-.88l53.945 7.045c.22 0 .44.22.66.44.221.22.221.441.221.881l-13.211 86.093c.22.441-.22.881-.88.881zM5.901 98.294l51.743 6.606 12.771-83.891-51.744-6.606-12.77 83.891zm29.064 12.331l-9.908-1.321c-.66 0-1.1-.661-.88-1.321 0-.661.66-1.101 1.32-.881l9.689 1.321c.66 0 1.1.661.88 1.321 0 .441-.44.881-1.1.881z" fill="#000"/><path opacity=".129" d="M21.313 13.743c1.762.22 3.744.22 5.505.66 5.064.66 9.908 1.322 14.753 1.982 3.963.44 7.706 1.321 11.67 1.321 4.843.44 9.688.66 14.311 1.541.661 0 1.322.22 1.982.22.44 0 .88 0 1.101.22 1.762 1.102.66 4.404-1.321 4.184-2.422 0-4.624-.66-7.046-.88-2.862-.44-5.505-.44-8.367-.66-10.349-1.322-20.698-2.643-31.046-4.184-1.321-.22-2.863-.44-4.184-.661-1.1 0-2.202-.88-1.982-2.422.881-2.422 3.083-1.321 4.624-1.321zm-5.946 60.551c-.22 0-.22 0 0 0-.66-.22-.66-.22 0 0zm18.716 2.202c.22 0 .22-.22.44-.22-.22.22-.44.22-.44.22zm-.22.22s.22 0 .22-.22c-.22.22-.44.22-.22.22z" fill="#000"/><path d="M5.018 89.707c-1.32-1.32-1.1.22-1.981-1.32-1.101-1.762-1.541-3.744-1.321-5.726.22-1.981 1.541-3.963 3.302-4.624 2.202-.88 4.624.44 6.606 1.542 3.303 1.981 6.606 4.403 9.468 7.046 1.101 1.1 1.982 2.642 1.321 3.963-.44.66-1.1 1.1-1.761 1.541-2.202.881-4.624.66-6.606-.66-.88-.44-1.541-1.101-2.422-1.762-.88-.44-2.202-.88-2.642-1.761-1.762-1.982-2.202-3.964-3.964 1.761z" fill="#fff"/><path d="M8.321 80.24c-1.32-1.322-2.642-2.643-3.743-4.404-1.1-1.762-1.541-3.744-1.32-5.725.22-1.982 1.54-3.964 3.302-4.624 2.202-.88 4.624.44 6.606 1.541 3.302 1.982 6.605 4.404 9.468 7.046 1.1 1.101 1.981 2.642 1.32 3.963-.44.661-1.1 1.101-1.76 1.542-2.203.88-3.964 2.202-5.946 1.1-.88-.22-8.587-3.963-7.927-.44z" fill="#fff"/><path d="M10.964 69.67c-1.321-1.32-2.642-2.642-3.743-4.404C6.12 63.505 5.68 61.523 5.9 59.542c.22-1.982 1.541-3.964 3.303-4.624 2.201-.881 4.623.44 6.605 1.541 3.303 1.982 6.606 4.404 9.468 7.046 1.101 1.1 1.982 2.642 1.321 3.963-.44.66-.66 3.083-1.32 3.303-2.203.88-5.065-1.321-7.047-2.422-.88-.22-7.927-2.422-7.266 1.321z" fill="#fff"/><path d="M9.203 55.138c-1.762.66-1.982-6.826-1.762-8.807.22-1.982 1.541-3.964 3.303-4.624 2.202-.88 4.624.44 6.605 1.541 3.303 1.982 6.606 4.404 9.468 7.046 1.101 1.101 1.982 2.642 1.322 3.963-.44.661 3.082 7.707 2.422 7.927-2.202.88-5.065.88-7.046-.44-.66-.22-9.468-8.367-14.312-6.606z" fill="#fff"/><path d="M19.55 94.551c-3.963 0-9.027-4.183-11.89-6.826-.22-.22-.66-.44-.88-.66-.44-.44-.44-1.101-.22-1.541.44-.44 1.1-.44 1.541-.22.22.22.44.44.88.66 2.643 2.202 8.808 7.707 11.89 5.945 1.102-.66 1.102-1.1 1.102-1.541 0-2.422-4.624-6.606-8.808-9.468-2.422-1.542-5.064-3.083-7.706-2.422-1.762.44-3.303 2.422-3.303 4.624 0 2.422 1.761 4.623 3.523 6.385l.22.22c.44.44.44 1.101 0 1.542-.44.44-1.1.44-1.541 0l-.22-.22C2.376 89.046.174 86.403.174 83.321c0-3.303 2.202-6.165 5.065-6.826 3.523-.66 6.605 1.1 9.247 2.862 2.422 1.542 9.909 6.826 9.909 11.23 0 .88-.44 2.422-2.202 3.303-1.101.44-1.982.66-2.642.66zm7.267-18.055c-1.981 0-4.183-.88-5.064-2.202-.44-.44-.22-1.1.22-1.541.44-.44 1.101-.22 1.542.22.66.66 2.421 1.541 3.743 1.321.22 0 .66-.22.88-.44.44-.66 0-5.064-3.082-9.028-3.523-4.183-9.248-8.587-13.211-8.807-2.202 0-3.744.44-4.624 1.761-1.321 1.762-1.101 4.844.22 8.147.22.66 0 1.101-.66 1.321-.661.22-1.102 0-1.322-.66-1.541-3.964-1.541-7.707 0-10.129.88-1.321 2.863-2.862 6.386-2.642 4.844.22 11.23 5.064 14.752 9.688 3.743 4.624 4.184 9.908 3.523 11.45-.44.88-1.321 1.541-2.642 1.541h-.66z" fill="#000"/><path d="M22.854 88.386c-.66 0-1.101 0-1.541-.22-.44-.22-.881-.88-.44-1.541.22-.44.88-.881 1.54-.44.44.22 2.863 0 3.303-1.102.44-.66.44-1.761.22-3.082-.66-2.642-1.981-5.285-4.183-7.927-3.083-3.743-6.826-6.165-10.79-7.046-1.54-.44-4.403.22-6.164 1.982-1.542 1.761-1.542 4.624 0 8.147.22.44 0 1.1-.661 1.32-.44.221-1.101 0-1.321-.66-2.202-5.504-1.101-8.587.44-10.348 2.202-2.643 6.165-3.303 8.147-2.643 4.624 1.101 8.587 3.743 11.89 7.927 2.422 3.083 3.963 5.945 4.624 8.807.44 1.762.22 3.303-.44 4.404-.881 1.762-3.083 2.422-4.624 2.422zm5.505-21.798h-.22c-1.322 0-2.643-.881-3.744-2.202-.44-.44-.22-1.101.22-1.541.44-.44 1.101-.22 1.542.22.66.88 1.541 1.32 2.202 1.32.88 0 1.54-.44 1.761-.66 1.762-1.761.22-5.064-.88-6.825l-.661-.881c-2.202-3.523-4.624-7.046-7.707-9.688-2.422-2.202-8.367-5.065-11.23-2.863-2.421 1.982-1.54 5.285-.22 9.248.22.88.661 1.761.661 2.422.22.66-.22 1.101-.88 1.321-.661.22-1.102-.22-1.322-.88-.22-.661-.44-1.322-.66-2.202-1.101-3.303-2.863-8.367.88-11.45 3.964-3.303 10.79 0 14.092 2.862 3.303 2.863 5.725 6.606 8.147 10.129l.66.88c1.983 2.863 3.304 7.047.661 9.689-.44.22-1.761 1.1-3.302 1.1z" fill="#000"/><path d="M60.725 67.028c-2.862-4.404-11.009-12.77-6.825-15.413 2.201-1.321 7.486 1.1 9.247 3.083 2.863 3.082 8.808 5.945 11.01 9.688.88 1.32 3.963 9.248 2.862 10.569-.66.66-.44 7.486-.66 8.367-8.808 44.037-14.312 10.569-14.312 8.147 0-7.046 3.082-17.615-1.322-24.441z" fill="#fff"/><path d="M64.249 168.754c-.66 0-1.101-.44-1.101-1.101.22-11.67-.22-22.899-.66-34.789v-1.101c-.441-12.11 3.522-21.358 7.045-29.725 1.982-4.404 3.743-8.588 4.624-12.771l.22-1.321c1.542-6.606 3.303-13.431.661-19.377-1.761-3.743-4.844-6.825-8.367-9.688l-.44-.44c-1.982-1.762-4.845-3.964-7.046-5.064-2.643-1.322-4.184-1.322-4.845-1.101-.22.22-.44.44-.44 1.1.22 5.065 1.321 6.386 3.963 9.469.661.66 1.322 1.54 2.202 2.422 4.844 5.725 3.744 14.532 2.202 23.34 0 .66-.66.88-1.32.88-.662 0-.882-.66-.882-1.321 1.542-8.147 2.643-16.514-1.541-21.578-.88-.881-1.541-1.762-2.202-2.422-2.862-3.303-4.404-5.065-4.624-10.79 0-1.76.66-2.642 1.321-2.862 1.542-.88 3.744-.66 6.826.88 2.422 1.102 5.285 3.524 7.486 5.285l.44.44c3.524 2.863 7.047 6.166 9.028 10.35 2.863 6.605 1.101 13.651-.44 20.697l-.22 1.321c-1.101 4.404-2.862 8.587-4.844 13.211-3.523 8.588-7.266 17.175-6.826 28.845v1.101c.44 11.89.88 23.119.66 35.009.22.441-.44 1.101-.88 1.101zm-38.973-.22c-.66 0-1.1-.44-1.1-1.101.22-11.89.22-24-.22-36.11 0-5.285-1.102-9.248-2.863-12.771-.22-.441 0-1.101.44-1.542.44-.22 1.101 0 1.541.441 1.982 3.963 3.083 8.367 3.083 13.872.22 11.89.22 24.22.22 36.11 0 .661-.44 1.101-1.1 1.101z" fill="#000"/><path d="M10.744 343.802c1.982-61.872 7.046-122.863 8.808-184.736 17.614 5.065 37.651.22 50.642-12.55-.44 27.963-.22 55.707 0 83.891.22 37.651.881 75.303 4.844 112.735l-64.294.66z" fill="#fff"/><path d="M10.744 344.903c-.66 0-1.1-.44-1.1-1.101.88-30.826 2.641-62.092 4.403-92.258 1.761-30.165 3.523-61.432 4.404-92.478 0-.44.22-.661.44-.881.22-.22.66-.22.88-.22 17.395 5.064 36.772.22 49.543-12.33.22-.221.88-.441 1.1-.221.44.221.661.661.661 1.101-.44 25.102-.22 50.643 0 75.084v8.587c.22 42.056 1.1 77.285 4.844 112.515 0 .661-.44 1.101-.88 1.101-.661 0-1.102-.44-1.102-.881-3.743-35.45-4.623-70.679-4.844-112.735v-8.587c-.22-23.78-.22-48.441 0-72.662-12.99 11.45-31.707 15.854-48.44 11.45-.881 30.606-2.643 61.212-4.404 91.157-1.762 30.166-3.523 61.432-4.404 92.258 0 .661-.66 1.101-1.101 1.101z" fill="#000"/><path opacity=".129" d="M21.973 91.248c0-.22-.22-.22-.22-.44-.44-.22-.66-.44-1.321-.66-.22 0-.22 0-.44-.22-2.423-1.102-2.643-1.542-5.505-3.744-1.762-1.1-3.523-2.642-5.505-2.862-1.541-.22-3.523-.22-4.624 1.1-.66.881-1.32 2.202-1.32 3.303.22 1.321 1.32 1.982 2.421 1.762 0 1.541-.44 2.422-.66 5.064 0 .88-.22 1.982.22 2.862 1.1 2.422 4.624 1.322 4.404-1.32v-.22c.22-1.542.22-1.762.66-3.304 2.862 1.982 6.606 3.523 9.908 2.643 1.101-.44 2.643-1.101 2.643-2.422.22-.44 0-1.101-.66-1.542zm44.258-11.669c.44-4.844.22-9.688-1.981-14.092-2.643-4.844-5.065-6.826-7.267-10.129v-.22c0-.22-.22-.44-.22-.66 0-.44-.22-.881-.44-1.101-1.321-1.762-3.743-.66-3.743 1.1-.44.441-.66 1.102-.44 1.762.66 2.642 1.32 5.064 2.421 7.486 1.322 2.643 2.643 5.065 3.964 7.707.66 1.321 2.422 7.706 2.422 9.908.22 1.542.22.881.22 1.982 0 .22 0 .66.22.88 0 .661.22 1.102.66 1.542v.44c-.44.881-.22 1.762-.66 3.523-.88 7.707-2.422 15.413-3.303 22.459-.44 1.982-.44 3.083-1.1 4.184-1.102.22-1.542 1.541-1.982 2.422-.22.44-.44.661-.66.881l-.661.66c-.44.441-.66.661-.881 1.101-.22 0-.44 0-.66.22h-1.541.44c-2.643.221-5.065 0-7.707-.44-2.422-.44-2.202-.22-5.505-.881-3.963-.881-7.486-2.422-11.45-3.303-1.32-.44-2.862-.44-3.743.661-1.1 1.321-.44 3.743 1.322 4.184 3.743.88 7.486 2.201 11.229 3.302 2.422.661 5.064.881 7.706 1.101 5.065.441 12.331 0 14.093-3.963 0-.22.22-.44.22-.661.22-.22.44-.66.66-1.101.44-.66 1.101-1.321 1.542-1.981 1.981-3.083 1.981-7.046 2.642-10.569 1.1-5.725 1.981-11.67 2.422-17.395v-.22c.22-.66.22-1.541.22-2.202.44-.66.22-1.541.44-2.202 0-.66.22-1.32 0-1.981 0-.22 0-.44.22-.881.22-.66.661-1.982.881-3.523zm.441 63.193c-.66.22-1.321.661-1.761 1.321-1.322 1.321-.44.441-1.762 1.542-6.165 3.963-10.349 7.046-16.734 8.587-3.963 1.101-8.808.881-14.532.881-2.643 0-5.065-.221-7.707 0-1.1.22-2.202 0-3.082.88-1.542 1.542-.44 4.404 1.761 4.404 3.303-.44 6.385 0 9.688.22 3.083.221 6.165 0 9.248-.44 5.064-.44 9.688-2.202 14.312-4.404 3.523-1.981 11.45-6.826 12.33-8.147 2.643-1.541 1.101-5.504-1.761-4.844zM29.02 75.835c0-.22-.22-.66-.44-.88 0-.22-.22-.441-.22-.441.22-1.1-.221-2.202-1.542-2.642-.22 0 .22.22.44.22-.44-.22-.66-.22-1.1-.44-.22 0-.22-.22-.441-.22-.22 0-.44-.22-.44-.22-3.523-3.083-7.046-6.166-11.45-7.928-1.321-.66-2.863-.88-4.404-.88-1.1 0-2.202-.22-3.082 0-1.982.66-1.322 3.963.88 3.743 4.184 0 6.826 1.321 11.23 4.624 1.761 1.321 3.303 3.082 5.504 4.404v.44c.22.44.661 1.761.881 2.202 0 0 0 .22.22.22.22 1.321 1.542 2.422 2.863 1.982 2.422-.66 1.981-2.422 1.1-4.184zm0-14.311c-1.762-.881-.881-.44-2.863-1.982-3.963-3.303-8.147-6.826-13.21-7.927-1.322-.22-3.083-.88-4.184.22-1.322 1.322-.22 3.744 1.54 3.523.441-.22 3.964.881 3.964 1.101 1.982.881 3.743 1.982 5.285 3.303l-.44-.44c2.421 1.761 4.403 3.963 7.045 5.504 1.101.44 2.422 1.101 3.523.44 1.542-.66 1.101-3.302-.66-3.742zm-2.862 25.541c.44-.66.66-1.541.22-2.422-.66-1.541-1.762-1.762-2.863-1.321-.66-.66-1.54-1.101-2.201-1.762-3.744-3.082-7.487-6.165-12.11-7.486-1.322-.22-2.423-.44-3.744-.44-.66 0-1.541 0-1.981.66-1.322 1.101-.22 3.523 1.32 3.523 4.404-.44 8.808 2.863 11.89 5.505.441.22.661.66 1.102.88.88.881 1.761 1.762 2.642 2.422.44.44 1.1.881 1.761.881.22 0 .44 0 .661-.22-.44.22-.88.66-.88 1.321-.441 1.762 1.54 3.303 3.082 2.422.22-.22.66-.44.88-.66.441-.22.661-.66.881-1.101.44-.881 0-1.762-.66-2.202z" fill="#000"/></svg>