<svg width="62" height="147" fill="none" xmlns="http://www.w3.org/2000/svg"><mask id="a" style="mask-type:alpha" maskUnits="userSpaceOnUse" x="0" y="0" width="62" height="147"><path fill="#fff" d="M.42.879h60.636v145.658H.42z"/></mask><g mask="url(#a)"><path d="M38.979 96.116c3.192-1.161 6.675-1.597 9.868-.29.435.145.87.435 1.016.87.29.726-.145 1.451-.58 2.032-6.386 7.401-16.69 10.449-26.268 9.868-2.176-.145-4.934-.58-6.675-2.032.29-1.451 1.596-2.176 2.902-2.757 3.628-2.032 16.69-6.53 19.737-7.691z" fill="#fff"/><path d="M25.193 109.177H22.87c-3.338-.146-5.66-.871-7.111-2.177a1.11 1.11 0 01-.29-.726c.435-1.741 1.886-2.757 3.192-3.338 2.903-1.306 11.61-4.498 16.69-6.24 1.45-.58 2.612-.87 3.337-1.16 2.757-1.017 6.676-1.887 10.304-.291.435.145 1.16.58 1.451 1.16.435.872.145 1.742-.726 2.758-5.514 6.24-14.657 10.014-24.525 10.014zm-8.127-3.048c1.306.871 3.193 1.451 5.805 1.596 10.449.581 20.027-3.047 25.686-9.578.436-.58.58-1.016.58-1.16-.144-.146-.434-.29-.58-.436-3.192-1.306-6.82-.58-9.287.435a40.16 40.16 0 01-3.338 1.161c-5.08 1.887-13.642 4.934-16.544 6.241-1.306.435-2.032 1.015-2.322 1.741z" fill="#000"/><path d="M45.945 103.372c.29-7.692-1.596-15.383 0-22.93.726-3.918 2.467-7.4 3.483-11.319 1.016-3.918 1.306-7.982-.435-11.465-2.322-4.498-7.401-6.675-12.336-7.546-4.934-.87-10.158-.725-14.512 1.742-3.482 2.031-5.805 5.66-6.82 9.578-1.016 3.918-.436 8.126 1.015 11.9.581 1.596 1.307 3.047 2.032 4.644 3.628 9.432 1.597 20.026 2.467 30.04 0 .725.145 1.451.436 2.031a6.193 6.193 0 001.596 1.742c2.177 1.886 4.644 3.773 7.546 4.063 2.322.29 4.644-.725 6.676-1.886 3.918-2.322 8.562-5.66 8.852-10.594z" fill="#fff"/><path d="M41.447 76.089l9.868-64.58c.436-2.902-1.45-5.514-4.208-5.95L21.566 2.223c-2.758-.29-5.37 1.741-5.805 4.644L5.893 71.445c-.436 2.902 1.45 5.515 4.208 5.95l25.541 3.338c2.758.29 5.37-1.742 5.805-4.644z" fill="#E0FF23"/><path d="M36.223 81.458h-.726L9.956 78.121c-1.451-.145-2.757-1.016-3.628-2.177-1.016-1.306-1.306-2.903-1.161-4.644l9.868-64.58c.435-3.337 3.483-5.659 6.676-5.223l25.541 3.337c1.451.145 2.757 1.016 3.628 2.177 1.016 1.306 1.306 2.903 1.161 4.644l-9.868 64.579c-.436 3.047-3.048 5.224-5.95 5.224zM20.985 2.803c-2.177 0-4.063 1.741-4.499 4.063L6.618 71.445c-.145 1.306.145 2.467.87 3.483.726.87 1.597 1.451 2.758 1.596l25.542 3.338c2.321.29 4.643-1.451 5.079-4.063l9.868-64.58c.145-1.305-.145-2.466-.87-3.482-.726-.871-1.597-1.451-2.758-1.597L21.566 2.803c-.29.145-.436 0-.58 0z" fill="#000"/><path d="M42.17 70.864l8.708-56.742-35.554-4.644L6.616 66.22l35.555 4.644z" fill="#fff"/><path d="M42.171 71.59l-35.7-4.644c-.145 0-.29-.145-.435-.29-.145-.145-.145-.29-.145-.58l8.707-56.743c0-.435.435-.58.725-.58l35.555 4.643c.145 0 .29.145.436.29.145.146.145.29.145.581L42.75 71.01c.146.29-.145.58-.58.58zM7.487 65.64l34.103 4.354 8.417-55.292-34.103-4.353L7.487 65.64zm19.158 8.127l-6.53-.87c-.436 0-.726-.436-.581-.872 0-.435.435-.725.87-.58l6.386.87c.435 0 .726.436.58.871 0 .29-.29.581-.725.581z" fill="#000"/><path opacity=".129" d="M17.646 9.913c1.161.146 2.467.146 3.628.436 3.338.435 6.53.87 9.723 1.306 2.613.29 5.08.87 7.692.87 3.193.29 6.385.436 9.433 1.016.435 0 .87.146 1.306.146.29 0 .58 0 .726.145 1.16.725.435 2.902-.871 2.757-1.597 0-3.048-.435-4.644-.58-1.887-.29-3.628-.29-5.515-.436-6.82-.87-13.641-1.741-20.462-2.757-.87-.145-1.886-.29-2.757-.436-.726 0-1.451-.58-1.306-1.596.58-1.596 2.032-.87 3.047-.87zm-3.919 39.909c-.145 0-.145 0 0 0-.436-.145-.436-.145 0 0zm12.334 1.451c.146 0 .146-.145.29-.145-.144.145-.29.145-.29.145z" fill="#000"/><path opacity=".129" d="M25.918 51.418s.145 0 .145-.145c-.145.145-.29.145-.145.145z" fill="#000"/><path d="M6.906 59.98c-.87-.87-.725.146-1.306-.87a5.837 5.837 0 01-.87-3.773c.145-1.306 1.015-2.613 2.176-3.048 1.452-.58 3.048.29 4.354 1.016 2.177 1.306 4.354 2.902 6.24 4.644.726.725 1.306 1.741.871 2.612-.29.435-.726.726-1.16 1.016-1.452.58-3.048.435-4.355-.436-.58-.29-1.015-.725-1.596-1.16-.58-.29-1.451-.581-1.741-1.162-1.161-1.306-1.452-2.612-2.613 1.161z" fill="#fff"/><path d="M9.083 53.74c-.87-.87-1.741-1.741-2.467-2.902a5.838 5.838 0 01-.87-3.773c.144-1.306 1.015-2.612 2.176-3.048 1.451-.58 3.048.29 4.354 1.016 2.177 1.306 4.353 2.902 6.24 4.644.726.726 1.306 1.741.87 2.612-.29.435-.725.726-1.16 1.016-1.451.58-2.612 1.451-3.919.726-.58-.146-5.66-2.613-5.224-.29z" fill="#fff"/><path d="M10.824 46.774c-.87-.87-1.741-1.741-2.467-2.902a5.838 5.838 0 01-.87-3.773c.145-1.306 1.015-2.612 2.176-3.048 1.451-.58 3.048.29 4.354 1.016 2.177 1.306 4.354 2.902 6.24 4.644.726.726 1.306 1.742.87 2.612-.29.435-.434 2.032-.87 2.177-1.451.58-3.338-.87-4.644-1.596-.58-.146-5.224-1.597-4.789.87z" fill="#fff"/><path d="M9.664 37.197c-1.16.435-1.306-4.5-1.16-5.805.145-1.306 1.015-2.613 2.176-3.048 1.452-.58 3.048.29 4.354 1.016 2.177 1.306 4.354 2.902 6.24 4.644.726.725 1.306 1.741.87 2.612-.29.435 2.033 5.08 1.597 5.224-1.451.58-3.338.58-4.644-.29-.435-.145-6.24-5.514-9.433-4.353z" fill="#fff"/><path d="M16.484 63.173c-2.613 0-5.95-2.757-7.837-4.499-.145-.145-.435-.29-.58-.435-.29-.29-.29-.726-.146-1.016.29-.29.726-.29 1.016-.145.145.145.29.29.58.435 1.742 1.452 5.806 5.08 7.837 3.919.726-.436.726-.726.726-1.016 0-1.597-3.048-4.354-5.805-6.24-1.596-1.016-3.338-2.032-5.08-1.597-1.16.29-2.176 1.597-2.176 3.048 0 1.596 1.16 3.047 2.322 4.208l.145.145c.29.29.29.726 0 1.016a.701.701 0 01-1.016 0l-.145-.145c-1.16-1.306-2.612-3.047-2.612-5.08 0-2.176 1.451-4.063 3.338-4.498 2.322-.435 4.353.726 6.095 1.887 1.596 1.016 6.53 4.498 6.53 7.4 0 .581-.29 1.597-1.451 2.178-.726.29-1.306.435-1.741.435zm4.79-11.9c-1.306 0-2.757-.58-3.338-1.451-.29-.29-.145-.726.145-1.016.29-.29.726-.145 1.016.145.436.436 1.597 1.016 2.467.871.146 0 .436-.145.58-.29.291-.436 0-3.338-2.03-5.95-2.323-2.758-6.096-5.66-8.708-5.805-1.451 0-2.467.29-3.048 1.16-.87 1.162-.725 3.194.146 5.37.145.436 0 .726-.436.871-.435.145-.725 0-.87-.435-1.016-2.612-1.016-5.08 0-6.676.58-.87 1.886-1.886 4.208-1.741 3.193.145 7.401 3.337 9.723 6.385 2.467 3.048 2.757 6.53 2.322 7.546-.29.58-.87 1.016-1.741 1.016h-.436z" fill="#000"/><path d="M18.66 59.11c-.435 0-.725 0-1.016-.145-.29-.146-.58-.58-.29-1.016.145-.29.58-.58 1.016-.29.29.145 1.886 0 2.177-.726.29-.435.29-1.161.145-2.032-.436-1.741-1.306-3.483-2.758-5.224-2.031-2.467-4.498-4.063-7.11-4.644-1.016-.29-2.903.145-4.064 1.306-1.016 1.161-1.016 3.048 0 5.37.145.29 0 .725-.435.87-.29.145-.726 0-.87-.435-1.452-3.628-.726-5.66.29-6.82 1.45-1.742 4.063-2.178 5.369-1.742 3.047.725 5.66 2.467 7.836 5.224 1.597 2.032 2.613 3.918 3.048 5.805.29 1.161.145 2.177-.29 2.902-.58 1.161-2.032 1.597-3.048 1.597zm3.628-14.367h-.146c-.87 0-1.74-.58-2.466-1.452-.29-.29-.146-.725.145-1.015.29-.29.725-.145 1.015.145.436.58 1.016.87 1.452.87.58 0 1.015-.29 1.16-.435 1.162-1.16.146-3.338-.58-4.499l-.435-.58c-1.451-2.322-3.048-4.644-5.08-6.385-1.596-1.452-5.514-3.338-7.4-1.887-1.597 1.306-1.017 3.483-.146 6.095.145.58.436 1.161.436 1.596.145.436-.146.726-.58.871-.436.145-.727-.145-.872-.58-.145-.436-.29-.871-.435-1.452-.726-2.176-1.887-5.514.58-7.546 2.613-2.177 7.111 0 9.288 1.887 2.177 1.886 3.773 4.353 5.37 6.675l.435.58c1.306 1.887 2.177 4.645.436 6.386-.29.145-1.162.726-2.177.726z" fill="#000"/><path d="M43.621 45.033c-1.886-2.902-7.256-8.417-4.498-10.159 1.451-.87 4.934.726 6.095 2.032 1.886 2.032 5.805 3.919 7.256 6.386.58.87 2.612 6.095 1.887 6.965-.436.436-.29 4.934-.436 5.515-5.805 29.024-9.433 6.966-9.433 5.37 0-4.644 2.032-11.61-.87-16.109z" fill="#fff"/><path d="M45.944 112.079c-.436 0-.726-.29-.726-.726.145-7.691-.145-15.092-.435-22.929V87.7c-.29-7.982 2.322-14.077 4.644-19.592 1.306-2.902 2.467-5.66 3.047-8.417l.145-.87c1.016-4.354 2.177-8.853.436-12.771-1.161-2.467-3.193-4.499-5.515-6.386l-.29-.29c-1.306-1.16-3.193-2.612-4.644-3.337-1.742-.871-2.757-.871-3.193-.726-.145.145-.29.29-.29.725.145 3.338.87 4.209 2.612 6.24.436.436.871 1.017 1.452 1.597 3.192 3.773 2.467 9.578 1.45 15.383 0 .435-.435.58-.87.58s-.58-.435-.58-.87c1.015-5.37 1.74-10.884-1.016-14.222-.58-.58-1.016-1.161-1.452-1.597-1.886-2.176-2.902-3.337-3.047-7.11 0-1.162.435-1.742.87-1.887 1.016-.58 2.468-.435 4.5.58 1.596.726 3.482 2.322 4.933 3.483l.29.29c2.323 1.887 4.645 4.064 5.95 6.821 1.887 4.354.726 8.998-.29 13.642l-.145.87c-.725 2.903-1.886 5.66-3.192 8.708-2.322 5.66-4.79 11.32-4.5 19.01v.726c.291 7.837.581 15.238.436 23.074.145.291-.29.726-.58.726zm-25.685-.145c-.436 0-.726-.29-.726-.726.145-7.836.145-15.818-.145-23.8 0-3.482-.726-6.095-1.887-8.416-.145-.29 0-.726.29-1.016.29-.145.726 0 1.016.29 1.306 2.612 2.032 5.514 2.032 9.142.145 7.837.145 15.964.145 23.8 0 .436-.29.726-.725.726z" fill="#000"/><path d="M14.589 146.207c1.306-40.779.735.266 1.896-40.513 11.61 3.338 24.816.145 33.378-8.272-.29 18.43-.488 21.312-.343 39.888.145 24.815-2.282-15.773.33 8.897H14.589z" fill="#fff"/><path d="M10.68 228.176c-.436 0-.726-.29-.726-.725.58-20.317 1.742-40.925 2.902-60.806 1.162-19.882 2.322-40.489 2.903-60.951 0-.29.145-.436.29-.581.145-.145.436-.145.58-.145 11.465 3.338 24.236.145 32.653-8.127.145-.145.58-.29.726-.145.29.145.435.436.435.726-.29 16.544-.145 33.378 0 49.486v5.66c.145 27.718.726 50.938 3.193 74.157 0 .435-.29.726-.58.726-.436 0-.726-.291-.726-.581-2.468-23.364-3.048-46.584-3.193-74.302v-5.66a2632.499 2632.499 0 010-47.89c-8.562 7.547-20.898 10.449-31.927 7.547-.58 20.171-1.741 40.343-2.902 60.08-1.161 19.881-2.322 40.489-2.903 60.806 0 .435-.435.725-.725.725z" fill="#000"/><path opacity=".129" d="M18.083 60.996c0-.145-.145-.145-.145-.29-.29-.145-.435-.29-.87-.436-.146 0-.146 0-.291-.145-1.597-.725-1.742-1.015-3.628-2.467-1.161-.725-2.322-1.741-3.628-1.886-1.016-.145-2.322-.145-3.048.725-.435.58-.87 1.452-.87 2.177.145.87.87 1.306 1.596 1.161 0 1.016-.29 1.596-.435 3.338 0 .58-.146 1.306.145 1.886.725 1.597 3.047.871 2.902-.87v-.145c.145-1.016.145-1.161.435-2.177 1.887 1.306 4.354 2.322 6.53 1.741.727-.29 1.742-.725 1.742-1.596.145-.29 0-.726-.435-1.016zm29.167-7.691c.291-3.193.146-6.385-1.305-9.288-1.742-3.192-3.338-4.498-4.79-6.675v-.145c0-.146-.144-.29-.144-.436 0-.29-.146-.58-.29-.725-.871-1.161-2.468-.436-2.468.725a1.13 1.13 0 00-.29 1.161c.435 1.742.87 3.338 1.596 4.934.871 1.742 1.742 3.338 2.613 5.08.435.87 1.596 5.079 1.596 6.53.145 1.016.145.58.145 1.306 0 .145 0 .435.145.58 0 .436.145.726.436 1.016v.29c-.29.581-.146 1.162-.436 2.323-.58 5.079-1.596 10.158-2.177 14.802-.29 1.306-.29 2.032-.725 2.757-.726.145-1.016 1.016-1.306 1.597-.145.29-.29.435-.436.58l-.435.435c-.29.29-.435.436-.58.726-.146 0-.29 0-.436.145h-1.016.29c-1.741.145-3.337 0-5.079-.29-1.596-.29-1.451-.145-3.628-.58-2.612-.581-4.934-1.597-7.546-2.177-.87-.29-1.887-.29-2.467.435-.726.87-.29 2.467.87 2.757 2.468.58 4.935 1.451 7.402 2.177 1.596.436 3.338.58 5.079.726 3.338.29 8.127 0 9.288-2.612 0-.146.145-.29.145-.436.145-.145.29-.435.435-.725.29-.436.726-.871 1.016-1.306 1.306-2.032 1.306-4.644 1.742-6.966.725-3.773 1.306-7.692 1.596-11.465v-.145c.145-.435.145-1.016.145-1.451.29-.436.145-1.016.29-1.452 0-.435.145-.87 0-1.306 0-.145 0-.29.145-.58.145-.435.436-1.306.58-2.322zm.293 41.65c-.435.145-.87.435-1.161.87-.87.871-.29.29-1.161 1.016-4.063 2.613-6.82 4.644-11.03 5.66-2.611.726-5.804.581-9.577.581-1.742 0-3.338-.146-5.08 0-.725.145-1.45 0-2.031.58-1.016 1.016-.29 2.903 1.16 2.903 2.178-.291 4.21 0 6.386.145 2.032.145 4.064 0 6.095-.291 3.338-.29 6.386-1.451 9.433-2.902 2.322-1.306 7.546-4.499 8.127-5.37 1.741-1.015.725-3.628-1.161-3.192zM22.727 50.838c0-.145-.145-.436-.29-.58 0-.146-.146-.291-.146-.291.145-.726-.145-1.451-1.015-1.742-.146 0 .145.145.29.145-.29-.145-.436-.145-.726-.29-.145 0-.145-.145-.29-.145s-.29-.145-.29-.145c-2.322-2.032-4.644-4.063-7.547-5.224-.87-.436-1.886-.58-2.902-.58-.726 0-1.451-.146-2.032 0-1.306.434-.87 2.611.58 2.466 2.758 0 4.5.871 7.402 3.048 1.16.87 2.177 2.032 3.628 2.902v.29c.145.29.435 1.161.58 1.452 0 0 0 .145.146.145.145.87 1.015 1.596 1.886 1.306 1.596-.435 1.306-1.596.726-2.757zm0-9.433c-1.16-.58-.58-.29-1.886-1.306-2.612-2.177-5.37-4.499-8.707-5.224-.871-.145-2.032-.58-2.758.145-.87.87-.145 2.467 1.016 2.322.29-.145 2.612.58 2.612.725a14.125 14.125 0 013.483 2.177l-.29-.29c1.596 1.16 2.902 2.612 4.644 3.628.726.29 1.596.726 2.322.29 1.016-.435.726-2.177-.436-2.467zM20.84 58.239c.29-.435.435-1.016.145-1.596-.435-1.016-1.161-1.161-1.887-.871-.435-.435-1.015-.726-1.45-1.161-2.468-2.032-4.935-4.063-7.982-4.934-.871-.145-1.597-.29-2.468-.29-.435 0-1.015 0-1.306.435-.87.725-.145 2.322.871 2.322 2.903-.29 5.805 1.886 7.837 3.628.29.145.435.435.725.58.58.58 1.161 1.161 1.742 1.597.29.29.725.58 1.16.58.146 0 .291 0 .436-.145-.29.145-.58.435-.58.87-.29 1.162 1.015 2.178 2.031 1.597.145-.145.436-.29.58-.435.291-.145.436-.436.581-.726.29-.58 0-1.16-.435-1.451z" fill="#000"/></g></svg>