<svg width="1600" height="301" fill="none" xmlns="http://www.w3.org/2000/svg"><g opacity=".9" fill-rule="evenodd" clip-rule="evenodd"><path d="M-489.979 4.668l-9.948-.87-2.453 28.035 9.948.87 2.453-28.035zm18.09 1.583l1.809.158-2.453 28.035-1.809-.158 2.453-28.035zm-2.715-.237l1.809.158-2.453 28.035-1.809-.158 2.453-28.035zm-1.808-.159l-2.714-.237-2.452 28.035 2.713.238 2.453-28.036zm-10.852-.949l5.426.475-2.453 28.035-5.426-.475 2.453-28.035zm-30.749-2.69l15.374 1.344-2.453 28.036-15.374-1.345 2.453-28.036zm-1.81-.158L-543.336 0l-2.453 28.036 23.514 2.057 2.452-28.035zm641.15 56.092l9.948.87-2.453 28.036-9.948-.87 2.453-28.036zm29.847 2.612l-1.809-.159-2.453 28.036 1.809.158 2.453-28.035zm-2.715-.237l-1.809-.159-2.453 28.035 1.809.159 2.453-28.035zm-6.331-.554l2.713.237-2.452 28.035-2.713-.237 2.452-28.035zm-2.712-.237l-5.426-.475-2.453 28.035 5.426.475 2.453-28.036zm-20.801-1.82l-15.374-1.346-2.453 28.035 15.374 1.345 2.453-28.035zm-40.697-3.56l23.513 2.056-2.453 28.035-23.513-2.057 2.453-28.035zm-267.216-23.38l9.948.87-2.453 28.036-9.948-.87 2.453-28.036zm29.847 2.612l-1.809-.158-2.453 28.035 1.809.158 2.453-28.035zm-2.715-.237l-1.809-.159-2.453 28.035 1.809.159 2.453-28.035zm-6.331-.554l2.713.237-2.452 28.035-2.713-.237 2.452-28.035zm-2.712-.238l-5.426-.474-2.453 28.035 5.426.475 2.453-28.036zm-20.801-1.82l-15.374-1.345-2.453 28.035 15.374 1.346 2.453-28.036zm-40.697-3.56l23.513 2.057-2.452 28.035-23.514-2.057 2.453-28.035zm97.465 36.616l5.575.488 1.951-22.3c.135-1.54-.309-2.89-1.331-4.05-.964-1.207-2.216-1.878-3.756-2.013l-17.522-1.533-5.197 4.36 22.301 1.952-1.603 18.318-16.725-1.464.634-7.247 11.15.975 5.19-4.28-15.929-1.394c-1.54-.135-2.916.306-4.129 1.324-1.155.969-1.799 2.223-1.934 3.763l-.488 5.575c-.135 1.54.28 2.914 1.245 4.122 1.022 1.16 2.303 1.806 3.843 1.941l11.946 1.045 5.134-3.644-.355 4.062zm30.154 2.639l13.27-26.928-6.37-.558-9.602 22.594-1.593-.139-5.531-23.918-6.372-.558 8.074 28.796 8.124.71zm44.675 3.908l-22.3-1.95c-1.54-.136-2.822-.783-3.844-1.942-.964-1.208-1.379-2.582-1.244-4.122l1.463-16.725c.135-1.54.78-2.794 1.934-3.764 1.213-1.017 2.59-1.458 4.129-1.324l16.725 1.464c1.54.134 2.792.806 3.757 2.014 1.022 1.16 1.465 2.509 1.33 4.049l-.487 5.575-6.063 5.087-15.929-1.393 5.197-4.361 11.15.975.627-7.168-16.725-1.463-1.603 18.318 22.3 1.951-.417 4.78zm32.71 1.257c1.213-1.018 1.887-2.296 2.021-3.836l1.464-16.725c.134-1.54-.31-2.89-1.331-4.05-.965-1.207-2.217-1.879-3.757-2.013l-16.725-1.464c-1.54-.134-2.916.307-4.129 1.325-1.154.968-1.8 2.223-1.934 3.763l-1.463 16.725c-.135 1.54.28 2.914 1.244 4.122 1.023 1.16 2.303 1.806 3.843 1.941l16.726 1.463c1.54.135 2.887-.282 4.042-1.251zm-2.02-21.846l-1.603 18.319-16.726-1.464 1.603-18.318 16.725 1.463zM6.552 48.11l-5.276 4.354-13.46-1.178-1.603 18.318L2.94 71.067l-.419 4.78-16.725-1.464c-1.54-.135-2.82-.782-3.843-1.941-.964-1.208-1.379-2.582-1.244-4.122l1.463-16.725c.135-1.54.78-2.795 1.934-3.764 1.213-1.017 2.59-1.459 4.129-1.324L6.553 48.11zm7.924 28.782l22.301 1.951.418-4.778-22.3-1.951 1.602-18.319 16.726 1.463-.627 7.168-11.15-.975-5.197 4.36 15.928 1.394 6.063-5.087.488-5.575c.135-1.54-.309-2.89-1.331-4.05-.964-1.207-2.217-1.879-3.756-2.013l-16.726-1.463c-1.54-.135-2.916.306-4.128 1.324-1.155.969-1.8 2.223-1.935 3.763L9.39 70.829c-.135 1.54.28 2.914 1.245 4.122 1.022 1.16 2.303 1.806 3.842 1.941zm57.033-.628c-.135 1.54-.808 2.819-2.021 3.836-1.155.969-2.502 1.386-4.042 1.252l-16.725-1.464c-1.54-.135-2.821-.782-3.843-1.941-.965-1.208-1.38-2.582-1.245-4.122L45.098 57.1c.134-1.54.78-2.794 1.934-3.763 1.213-1.018 2.589-1.46 4.129-1.325l16.725 1.464c1.54.135 2.792.806 3.756 2.014 1.022 1.16 1.466 2.509 1.331 4.049L71.51 76.264zm-5.645.309l1.603-18.318-16.726-1.464L49.14 75.11l16.725 1.463zm-506.161-39.469l-5.575-.487.355-4.062-5.134 3.644-11.946-1.046c-1.54-.134-2.821-.781-3.843-1.94-.965-1.209-1.38-2.583-1.245-4.123l.488-5.575c.135-1.54.779-2.794 1.934-3.763 1.213-1.017 2.589-1.459 4.129-1.324l15.929 1.394-5.19 4.28-11.15-.975-.634 7.248 16.725 1.463 1.603-18.318-22.301-1.951 5.197-4.361 17.522 1.533c1.54.135 2.792.806 3.756 2.014 1.022 1.16 1.466 2.51 1.331 4.049l-1.951 22.3zm37.85-24.777l-13.271 26.928-8.124-.71-8.074-28.796 6.372.557 5.531 23.918 1.593.14 9.601-22.595 6.372.558zm9.103 28.885l22.301 1.951.418-4.778-22.301-1.951 1.603-18.319 16.725 1.464-.627 7.168-11.15-.976-5.197 4.36 15.929 1.394 6.063-5.087.488-5.575c.134-1.54-.309-2.89-1.331-4.05-.965-1.207-2.217-1.878-3.757-2.013l-16.725-1.463c-1.54-.135-2.916.306-4.129 1.324-1.154.969-1.799 2.223-1.934 3.763l-1.463 16.725c-.135 1.54.28 2.914 1.244 4.122 1.022 1.16 2.303 1.807 3.843 1.941zm57.033-.628c-.135 1.54-.809 2.819-2.021 3.836-1.155.97-2.503 1.386-4.042 1.252l-16.726-1.464c-1.54-.134-2.82-.782-3.843-1.941-.964-1.208-1.379-2.582-1.244-4.122l1.463-16.725c.135-1.54.78-2.794 1.935-3.763 1.212-1.018 2.588-1.46 4.128-1.324l16.726 1.463c1.539.135 2.791.806 3.756 2.014 1.022 1.16 1.466 2.509 1.331 4.049l-1.463 16.725zm-5.645.309l1.602-18.318-16.725-1.464-1.603 18.319 16.726 1.463zm32.603-15.606l5.276-4.354-18.318-1.602c-1.54-.135-2.916.306-4.129 1.324-1.154.969-1.799 2.223-1.934 3.763l-1.463 16.725c-.135 1.54.28 2.914 1.244 4.122 1.022 1.16 2.303 1.806 3.843 1.941l16.726 1.463.418-4.778-16.726-1.463 1.603-18.319 13.46 1.178zm35.501 26.38l-22.3-1.952c-1.54-.134-2.821-.781-3.843-1.94-.965-1.209-1.379-2.583-1.245-4.122l1.464-16.726c.134-1.54.779-2.794 1.934-3.763 1.212-1.018 2.589-1.459 4.128-1.324l16.726 1.463c1.54.135 2.792.806 3.756 2.014 1.022 1.16 1.466 2.51 1.331 4.049l-.488 5.575-6.062 5.087-15.929-1.393 5.196-4.36 11.151.975.627-7.168-16.726-1.463-1.602 18.318 22.3 1.95-.418 4.78zm32.711 1.256c1.213-1.017 1.886-2.296 2.021-3.836l1.463-16.725c.135-1.54-.309-2.89-1.331-4.049-.964-1.208-2.216-1.88-3.756-2.014l-16.725-1.463c-1.54-.135-2.916.306-4.129 1.324-1.155.969-1.8 2.223-1.934 3.763l-1.464 16.726c-.134 1.54.28 2.913 1.245 4.121 1.022 1.16 2.303 1.807 3.843 1.941l16.725 1.464c1.54.134 2.887-.283 4.042-1.252zm-2.021-21.845l-1.603 18.318-16.725-1.463 1.602-18.319 16.726 1.464zm998.404 82.533l5.426.475-2.453 28.035-5.426-.475 2.453-28.035zm15.375 1.346l1.809.158-2.453 28.035-1.809-.158 2.453-28.035zm-2.715-.237l1.809.158-2.453 28.035-1.809-.158 2.453-28.035zm-1.808-.159l-2.713-.237-2.453 28.035 2.713.238 2.453-28.036zm-13.567-1.187l-9.948-.87-2.453 28.035 9.948.87 2.453-28.035zm-28.034-2.453l15.374 1.345-2.453 28.036-15.374-1.345 2.453-28.036zm-1.81-.157l-23.513-2.058-2.453 28.036 23.514 2.057 2.452-28.035zM441.898 86.197l-9.948-.87-2.452 28.035 9.948.87 2.452-28.035zm15.379 1.346l1.809.158-2.453 28.035-1.809-.158 2.453-28.035zm2.711.237l1.809.158-2.453 28.036-1.809-.159 2.453-28.035zm-4.523-.395l-2.713-.238-2.453 28.035 2.713.238 2.453-28.035zm-10.852-.95l5.426.475-2.453 28.035-5.426-.474 2.453-28.036zm-30.749-2.69l15.374 1.345-2.453 28.035-15.374-1.345 2.453-28.035zm-1.809-.158l-23.514-2.057-2.453 28.035 23.514 2.057 2.453-28.035zm73.951 34.56l5.575.488 1.951-22.3c.135-1.54-.309-2.89-1.331-4.05-.964-1.208-2.216-1.88-3.756-2.014l-17.522-1.533-5.197 4.36 22.301 1.952-1.603 18.318-16.725-1.463.634-7.248 11.15.976 5.19-4.281-15.929-1.394c-1.54-.135-2.916.307-4.129 1.324-1.154.969-1.799 2.224-1.934 3.764l-.488 5.575c-.134 1.54.28 2.913 1.245 4.121 1.022 1.16 2.303 1.807 3.843 1.942l11.946 1.045 5.134-3.644-.355 4.062zm30.154 2.638l13.271-26.928-6.372-.557-9.601 22.594-1.593-.139-5.531-23.919-6.372-.557 8.075 28.795 8.123.711zm44.675 3.909l-22.301-1.952c-1.539-.134-2.82-.781-3.843-1.941-.964-1.208-1.379-2.582-1.244-4.121l1.463-16.726c.135-1.54.78-2.794 1.935-3.763 1.212-1.017 2.588-1.459 4.128-1.324l16.726 1.463c1.539.135 2.791.806 3.756 2.014 1.022 1.16 1.466 2.509 1.331 4.049l-.488 5.575-6.063 5.088-15.929-1.394 5.197-4.361 11.15.976.627-7.168-16.725-1.463-1.603 18.318 22.301 1.951-.418 4.779zm32.711 1.256c1.212-1.017 1.886-2.296 2.021-3.836l1.463-16.725c.135-1.54-.309-2.889-1.331-4.049-.964-1.208-2.217-1.88-3.756-2.014l-16.726-1.463c-1.54-.135-2.916.306-4.128 1.324-1.155.969-1.8 2.223-1.935 3.763l-1.463 16.726c-.135 1.539.28 2.913 1.245 4.121 1.022 1.16 2.303 1.807 3.842 1.941l16.726 1.464c1.54.134 2.887-.283 4.042-1.252zm-2.021-21.845l-1.603 18.318-16.726-1.463 1.603-18.319 16.726 1.464zm36.276-1.642l-5.276 4.354-13.46-1.178-1.603 18.319 16.726 1.463-.418 4.779-16.726-1.464c-1.539-.134-2.82-.781-3.843-1.941-.964-1.208-1.379-2.582-1.244-4.122l1.463-16.725c.135-1.54.78-2.794 1.935-3.763 1.212-1.018 2.588-1.459 4.128-1.324l18.318 1.602zm7.925 28.783l22.3 1.951.418-4.779-22.3-1.951 1.602-18.318 16.726 1.463-.627 7.168-11.151-.976-5.196 4.361 15.929 1.394 6.063-5.088.487-5.575c.135-1.54-.309-2.889-1.331-4.049-.964-1.208-2.216-1.879-3.756-2.014l-16.725-1.463c-1.54-.135-2.916.307-4.129 1.324-1.155.969-1.8 2.224-1.934 3.763l-1.464 16.726c-.134 1.54.281 2.913 1.245 4.121 1.022 1.16 2.303 1.807 3.843 1.942zm57.032-.628c-.135 1.539-.808 2.818-2.021 3.835-1.155.969-2.502 1.387-4.042 1.252l-16.725-1.463c-1.54-.135-2.821-.782-3.843-1.942-.964-1.208-1.379-2.581-1.244-4.121l1.463-16.726c.135-1.539.779-2.794 1.934-3.763 1.213-1.017 2.589-1.459 4.129-1.324l16.725 1.463c1.54.135 2.792.806 3.756 2.014 1.022 1.16 1.466 2.509 1.331 4.049l-1.463 16.726zm-5.645.308l1.603-18.318-16.725-1.463-1.603 18.318 16.725 1.463zM180.952 91.458l-5.575-.488.356-4.062-5.134 3.644-11.947-1.045c-1.54-.135-2.821-.782-3.843-1.942-.964-1.207-1.379-2.581-1.245-4.121l.488-5.575c.135-1.54.78-2.794 1.935-3.763 1.212-1.018 2.588-1.46 4.128-1.325l15.929 1.394-5.19 4.281-11.15-.975-.634 7.247 16.725 1.463 1.603-18.318-22.301-1.95 5.197-4.361 17.522 1.532c1.54.135 2.792.806 3.756 2.014 1.022 1.16 1.466 2.51 1.331 4.05l-1.951 22.3zm37.85-24.778l-13.271 26.928-8.123-.71-8.075-28.796 6.372.557 5.532 23.919 1.592.14 9.601-22.595 6.372.557zm9.103 28.886l22.301 1.95.418-4.778-22.301-1.95 1.603-18.32 16.726 1.464-.628 7.168-11.15-.975-5.197 4.36 15.929 1.394 6.063-5.088.488-5.575c.135-1.54-.309-2.89-1.331-4.049-.965-1.208-2.217-1.879-3.756-2.014l-16.726-1.463c-1.54-.135-2.916.307-4.128 1.324-1.155.97-1.8 2.224-1.935 3.764l-1.463 16.725c-.135 1.54.28 2.913 1.245 4.121 1.022 1.16 2.303 1.807 3.842 1.942zm57.033-.628c-.135 1.54-.809 2.818-2.021 3.835-1.155.97-2.502 1.387-4.042 1.252l-16.725-1.463c-1.54-.135-2.821-.782-3.843-1.942-.965-1.208-1.38-2.581-1.245-4.121l1.463-16.726c.135-1.54.78-2.794 1.935-3.763 1.212-1.017 2.589-1.459 4.128-1.324l16.726 1.463c1.54.135 2.792.806 3.756 2.014 1.022 1.16 1.466 2.51 1.331 4.05l-1.463 16.725zm-5.645.308l1.603-18.318-16.726-1.463-1.602 18.318 16.725 1.463zm32.603-15.606l5.277-4.353-18.319-1.603c-1.54-.135-2.916.307-4.128 1.324-1.155.97-1.8 2.224-1.935 3.763l-1.463 16.726c-.135 1.54.28 2.913 1.245 4.121 1.022 1.16 2.303 1.807 3.842 1.942l16.726 1.463.418-4.779-16.725-1.463 1.602-18.318 13.46 1.177zm35.501 26.38l-22.3-1.951c-1.54-.135-2.821-.782-3.843-1.941-.964-1.208-1.379-2.582-1.245-4.122l1.464-16.725c.134-1.54.779-2.795 1.934-3.764 1.213-1.017 2.589-1.459 4.129-1.324l16.725 1.463c1.54.135 2.792.807 3.756 2.014 1.022 1.16 1.466 2.51 1.331 4.05l-.487 5.575-6.063 5.087-15.929-1.394 5.197-4.36 11.15.975.627-7.168-16.725-1.463-1.603 18.318 22.3 1.951-.418 4.779zm32.711 1.257c1.213-1.018 1.887-2.296 2.021-3.836l1.464-16.726c.134-1.54-.309-2.89-1.332-4.049-.964-1.207-2.216-1.879-3.756-2.013l-16.725-1.464c-1.54-.134-2.916.307-4.129 1.324-1.155.97-1.799 2.224-1.934 3.764l-1.463 16.725c-.135 1.54.28 2.914 1.244 4.122 1.022 1.159 2.303 1.806 3.843 1.941l16.725 1.463c1.54.135 2.887-.282 4.042-1.251zm-2.021-21.846l-1.603 18.318-16.725-1.463 1.603-18.318 16.725 1.463zm998.303 82.523l-9.95-.87-2.45 28.035 9.94.87 2.46-28.035zm18.09 1.583l1.81.158-2.46 28.036-1.81-.159 2.46-28.035zm-2.72-.237l1.81.158-2.45 28.035-1.81-.158 2.45-28.035zm-1.81-.158l-2.71-.238-2.45 28.036 2.71.237 2.45-28.035zm-10.85-.95l5.43.475-2.46 28.035-5.42-.474 2.45-28.036zm-30.75-2.69l15.38 1.345-2.46 28.035-15.37-1.345 2.45-28.035zm-1.81-.158l-23.51-2.057-2.45 28.035 23.51 2.057 2.45-28.035zm-280.79-24.567l-9.94-.87-2.46 28.035 9.95.871 2.45-28.036zm15.38 1.346l1.81.158-2.45 28.036-1.81-.159 2.45-28.035zm2.71.237l1.81.159-2.45 28.035-1.81-.158 2.45-28.036zm-4.52-.395l-2.71-.237-2.46 28.035 2.72.237 2.45-28.035zm-10.85-.949l5.42.474-2.45 28.036-5.42-.475 2.45-28.035zm-30.75-2.691l15.37 1.345-2.45 28.035-15.37-1.345 2.45-28.035zm-1.81-.158l-23.51-2.057-2.46 28.035 23.52 2.057 2.45-28.035zm73.96 34.559l5.57.488 1.95-22.301c.14-1.539-.31-2.889-1.33-4.049-.96-1.207-2.22-1.879-3.76-2.013l-17.52-1.533-5.19 4.36 22.3 1.951-1.61 18.318-16.72-1.463.63-7.247 11.15.975 5.19-4.281-15.93-1.393c-1.54-.135-2.91.306-4.13 1.324-1.15.969-1.79 2.223-1.93 3.763l-.49 5.575c-.13 1.54.28 2.914 1.25 4.122 1.02 1.159 2.3 1.806 3.84 1.941l11.95 1.045 5.13-3.644-.35 4.062zm30.15 2.638l13.27-26.928-6.37-.557-9.6 22.594-1.6-.139-5.53-23.918-6.37-.558 8.08 28.796 8.12.71zm44.67 3.909l-22.3-1.951c-1.54-.135-2.82-.782-3.84-1.941-.96-1.208-1.38-2.582-1.24-4.122l1.46-16.725c.13-1.54.78-2.795 1.93-3.764 1.22-1.017 2.59-1.459 4.13-1.324l16.73 1.463c1.54.135 2.79.806 3.75 2.014 1.03 1.16 1.47 2.51 1.34 4.049l-.49 5.575-6.07 5.088-15.92-1.394 5.19-4.36 11.15.975.63-7.168-16.73-1.463-1.6 18.318 22.3 1.951-.42 4.779zm32.72 1.257c1.21-1.018 1.88-2.297 2.02-3.836l1.46-16.726c.13-1.54-.31-2.889-1.33-4.049-.97-1.208-2.22-1.879-3.76-2.014l-16.72-1.463c-1.54-.135-2.92.307-4.13 1.324-1.16.969-1.8 2.224-1.94 3.763l-1.46 16.726c-.13 1.54.28 2.914 1.25 4.121 1.02 1.16 2.3 1.807 3.84 1.942l16.72 1.463c1.54.135 2.89-.282 4.05-1.251zm-2.03-21.846l-1.6 18.318-16.72-1.463 1.6-18.318 16.72 1.463zm36.28-1.641l-5.28 4.353-13.46-1.177-1.6 18.318 16.73 1.463-.42 4.779-16.73-1.463c-1.54-.135-2.82-.782-3.84-1.942-.96-1.208-1.38-2.581-1.24-4.121l1.46-16.726c.13-1.539.78-2.794 1.93-3.763 1.22-1.017 2.59-1.459 4.13-1.324l18.32 1.603zm7.93 28.782l22.3 1.951.41-4.779-22.3-1.951 1.61-18.318 16.72 1.463-.63 7.168-11.15-.975-5.19 4.36 15.93 1.394 6.06-5.087.49-5.576c.13-1.539-.31-2.889-1.33-4.048-.97-1.208-2.22-1.88-3.76-2.014l-16.73-1.464c-1.54-.134-2.91.307-4.12 1.324-1.16.969-1.8 2.224-1.94 3.764l-1.46 16.725c-.14 1.54.28 2.914 1.24 4.122 1.02 1.159 2.31 1.806 3.85 1.941zm57.03-.628c-.14 1.54-.81 2.818-2.02 3.836-1.16.969-2.51 1.386-4.05 1.251l-16.72-1.463c-1.54-.135-2.82-.782-3.84-1.941-.97-1.208-1.38-2.582-1.25-4.122l1.47-16.725c.13-1.54.77-2.795 1.93-3.764 1.21-1.017 2.59-1.458 4.13-1.324l16.72 1.464c1.54.134 2.8.806 3.76 2.014 1.02 1.159 1.47 2.509 1.33 4.048l-1.46 16.726zm-5.65.309l1.61-18.319-16.73-1.463-1.6 18.318 16.72 1.464zm-506.158-39.469l-5.575-.488.355-4.061-5.134 3.643-11.947-1.045c-1.539-.135-2.82-.782-3.843-1.941-.964-1.208-1.379-2.582-1.244-4.122l.488-5.575c.134-1.54.779-2.794 1.934-3.763 1.213-1.018 2.589-1.459 4.129-1.324l15.929 1.393-5.19 4.281-11.151-.975-.634 7.247 16.726 1.464 1.602-18.319-22.3-1.951 5.197-4.36 17.521 1.533c1.54.134 2.792.806 3.757 2.014 1.022 1.159 1.466 2.509 1.331 4.049l-1.951 22.3zm37.849-24.777l-13.27 26.928-8.124-.711-8.074-28.796 6.371.558 5.532 23.918 1.593.139 9.601-22.594 6.371.558zm9.104 28.885l22.3 1.951.418-4.779-22.3-1.951 1.603-18.318 16.725 1.463-.627 7.168-11.15-.975-5.197 4.36 15.929 1.394 6.063-5.087.487-5.575c.135-1.54-.309-2.89-1.331-4.049-.964-1.208-2.216-1.88-3.756-2.014l-16.725-1.464c-1.54-.134-2.916.307-4.129 1.325-1.155.969-1.799 2.223-1.934 3.763l-1.463 16.725c-.135 1.54.28 2.914 1.244 4.122 1.022 1.159 2.303 1.806 3.843 1.941zm57.032-.628c-.134 1.54-.808 2.818-2.021 3.836-1.154.969-2.502 1.386-4.042 1.251l-16.725-1.463c-1.54-.135-2.821-.782-3.843-1.941-.964-1.208-1.379-2.582-1.244-4.122l1.463-16.725c.135-1.54.779-2.794 1.934-3.764 1.213-1.017 2.589-1.458 4.129-1.324l16.725 1.464c1.54.134 2.792.806 3.756 2.014 1.023 1.159 1.466 2.509 1.332 4.049l-1.464 16.725zm-5.645.309l1.603-18.319-16.725-1.463-1.603 18.318 16.725 1.464zm32.604-15.606l5.276-4.354-18.318-1.603c-1.54-.134-2.916.307-4.129 1.324-1.155.969-1.799 2.224-1.934 3.764l-1.463 16.725c-.135 1.54.28 2.914 1.244 4.122 1.022 1.159 2.303 1.806 3.843 1.941L937 157.602l.418-4.779-16.725-1.463 1.603-18.318 13.46 1.178zm35.501 26.379l-22.301-1.951c-1.539-.135-2.82-.782-3.843-1.941-.964-1.208-1.379-2.582-1.244-4.122l1.463-16.725c.135-1.54.78-2.794 1.935-3.763 1.212-1.018 2.588-1.459 4.128-1.324l16.726 1.463c1.539.135 2.791.806 3.756 2.014 1.022 1.159 1.466 2.509 1.331 4.049l-.488 5.575-6.063 5.087-15.929-1.393 5.197-4.361 11.15.976.627-7.168-16.725-1.464-1.603 18.319 22.301 1.951-.418 4.778zm32.713 1.257c1.21-1.017 1.88-2.296 2.02-3.836l1.46-16.725c.14-1.54-.31-2.89-1.33-4.049-.96-1.208-2.22-1.879-3.76-2.014l-16.721-1.463c-1.54-.135-2.916.306-4.128 1.324-1.155.969-1.8 2.223-1.935 3.763l-1.463 16.725c-.135 1.54.28 2.914 1.245 4.122 1.022 1.159 2.303 1.806 3.842 1.941l16.726 1.463c1.544.135 2.884-.282 4.044-1.251zm-2.02-21.846l-1.61 18.319-16.721-1.464 1.602-18.318 16.729 1.463zm685.07 55.12l-9.95-.87-2.46 28.035 9.95.87 2.46-28.035zm15.37 1.346l1.81.158-2.45 28.035-1.81-.158 2.45-28.035zm2.72.237l1.8.158-2.45 28.036-1.81-.159 2.46-28.035zm-4.53-.395l-2.71-.238-2.45 28.036 2.71.237 2.45-28.035zm-10.85-.95l5.43.475-2.46 28.035-5.42-.474 2.45-28.036zm-30.75-2.69l15.38 1.345-2.46 28.035-15.37-1.345 2.45-28.035zm-1.81-.158l-23.51-2.057-2.45 28.035 23.51 2.057 2.45-28.035zm340.47 29.787l-9.95-.87-2.45 28.035 9.95.87 2.45-28.035zm13.57 1.187l-2.71-.237-2.46 28.035 2.72.238 2.45-28.036zm4.52.396l1.81.158-2.45 28.035-1.81-.158 2.45-28.035zm-2.71-.236l1.81.158-2.45 28.035-1.81-.158 2.45-28.035zm-12.67-1.109l5.43.475-2.45 28.035-5.43-.475 2.45-28.035zm-30.74-2.691l15.37 1.346-2.45 28.035-15.38-1.345 2.46-28.036zm-1.81-.157l-23.52-2.058-2.45 28.036 23.51 2.057 2.46-28.035zm-236.67 7.384l5.57.488 1.95-22.301c.14-1.54-.31-2.889-1.33-4.049-.96-1.208-2.21-1.879-3.75-2.014l-17.53-1.533-5.19 4.361 22.3 1.951-1.6 18.318-16.73-1.463.63-7.248 11.15.976 5.19-4.281-15.92-1.394c-1.54-.134-2.92.307-4.13 1.324-1.16.969-1.8 2.224-1.94 3.764l-.49 5.575c-.13 1.54.28 2.913 1.25 4.121 1.02 1.16 2.3 1.807 3.84 1.942l11.95 1.045 5.13-3.644-.35 4.062zm30.15 2.638l13.27-26.928-6.37-.557-9.6 22.594-1.59-.139-5.54-23.919-6.37-.557 8.08 28.795 8.12.711zm44.68 3.909l-22.3-1.951c-1.54-.135-2.83-.782-3.85-1.942-.96-1.208-1.38-2.582-1.24-4.121l1.46-16.726c.14-1.54.78-2.794 1.94-3.763 1.21-1.017 2.58-1.459 4.12-1.324l16.73 1.463c1.54.135 2.79.806 3.76 2.014 1.02 1.16 1.46 2.509 1.33 4.049l-.49 5.575-6.06 5.088-15.93-1.394 5.19-4.361 11.15.976.63-7.168-16.72-1.463-1.61 18.318 22.3 1.951-.41 4.779zm32.71 1.256c1.21-1.017 1.88-2.296 2.02-3.836l1.46-16.725c.14-1.54-.31-2.889-1.33-4.049-.96-1.208-2.22-1.879-3.76-2.014l-16.72-1.463c-1.54-.135-2.92.307-4.13 1.324-1.16.969-1.8 2.223-1.93 3.763l-1.47 16.726c-.13 1.539.28 2.913 1.25 4.121 1.02 1.16 2.3 1.807 3.84 1.941l16.72 1.464c1.54.134 2.89-.283 4.05-1.252zm-2.02-21.845l-1.61 18.318-16.72-1.463 1.6-18.318 16.73 1.463zm36.27-1.642l-5.27 4.354-13.46-1.178-1.61 18.319 16.73 1.463-.42 4.779-16.72-1.464c-1.54-.134-2.83-.781-3.85-1.941-.96-1.208-1.38-2.582-1.24-4.122l1.46-16.725c.14-1.54.78-2.794 1.94-3.763 1.21-1.018 2.58-1.459 4.12-1.324l18.32 1.602zm7.93 28.783l22.3 1.951.42-4.779-22.31-1.951 1.61-18.318 16.72 1.463-.62 7.168-11.15-.976-5.2 4.361 15.93 1.394 6.06-5.088.49-5.575c.13-1.54-.31-2.889-1.33-4.049-.97-1.208-2.22-1.879-3.76-2.014l-16.72-1.463c-1.54-.135-2.92.307-4.13 1.324-1.16.969-1.8 2.224-1.94 3.763l-1.46 16.726c-.14 1.54.28 2.913 1.24 4.121 1.03 1.16 2.31 1.807 3.85 1.942zm57.03-.628c-.14 1.539-.81 2.818-2.02 3.835-1.16.969-2.5 1.387-4.04 1.252l-16.73-1.463c-1.54-.135-2.82-.782-3.84-1.942-.97-1.208-1.38-2.581-1.25-4.121l1.47-16.726c.13-1.539.78-2.794 1.93-3.763 1.21-1.017 2.59-1.459 4.13-1.324l16.73 1.463c1.53.135 2.79.806 3.75 2.014 1.02 1.16 1.47 2.509 1.33 4.049l-1.46 16.726zm-5.65.308l1.61-18.318-16.73-1.463-1.6 18.318 16.72 1.463zm-506.16-39.468l-5.58-.488.36-4.062-5.13 3.644-11.95-1.045c-1.54-.135-2.82-.782-3.84-1.941-.97-1.208-1.38-2.582-1.25-4.122l.49-5.575c.13-1.54.78-2.794 1.93-3.763 1.22-1.018 2.59-1.459 4.13-1.325l15.93 1.394-5.19 4.281-11.15-.975-.63 7.247 16.72 1.463 1.61-18.318-22.31-1.951 5.2-4.36 17.52 1.532c1.54.135 2.8.807 3.76 2.014 1.02 1.16 1.47 2.51 1.33 4.049l-1.95 22.301zm37.85-24.778l-13.27 26.928-8.13-.71-8.07-28.796 6.37.558 5.53 23.918 1.6.139 9.6-22.594 6.37.557zm9.1 28.886l22.3 1.951.42-4.779-22.3-1.951 1.6-18.318 16.73 1.463-.63 7.168-11.15-.975-5.2 4.36 15.93 1.394 6.07-5.088.48-5.575c.14-1.54-.3-2.889-1.33-4.049-.96-1.208-2.21-1.879-3.75-2.014l-16.73-1.463c-1.54-.135-2.91.307-4.13 1.324-1.15.969-1.8 2.224-1.93 3.763l-1.46 16.726c-.14 1.54.28 2.914 1.24 4.121 1.02 1.16 2.3 1.807 3.84 1.942zm57.03-.628c-.13 1.539-.8 2.818-2.02 3.836-1.15.969-2.5 1.386-4.04 1.251l-16.72-1.463c-1.54-.135-2.82-.782-3.85-1.942-.96-1.207-1.38-2.581-1.24-4.121l1.46-16.726c.14-1.539.78-2.794 1.94-3.763 1.21-1.017 2.59-1.459 4.13-1.324l16.72 1.463c1.54.135 2.79.806 3.76 2.014 1.02 1.16 1.46 2.509 1.33 4.049l-1.47 16.726zm-5.64.308l1.6-18.318-16.72-1.463-1.61 18.318 16.73 1.463zm32.6-15.606l5.28-4.353-18.32-1.603c-1.54-.135-2.91.307-4.13 1.324-1.15.969-1.8 2.224-1.93 3.763l-1.46 16.726c-.14 1.54.28 2.913 1.24 4.121 1.02 1.16 2.3 1.807 3.84 1.942l16.73 1.463.42-4.779-16.73-1.463 1.6-18.318 13.46 1.177zm35.5 26.38l-22.3-1.951c-1.54-.135-2.82-.782-3.84-1.941-.96-1.208-1.38-2.582-1.24-4.122l1.46-16.725c.13-1.54.78-2.795 1.93-3.764 1.22-1.017 2.59-1.458 4.13-1.324l16.73 1.464c1.54.134 2.79.806 3.75 2.014 1.03 1.159 1.47 2.509 1.34 4.048l-.49 5.576-6.07 5.087-15.92-1.394 5.19-4.36 11.15.975.63-7.168-16.73-1.463-1.6 18.318 22.3 1.951-.42 4.779zm32.72 1.257c1.21-1.018 1.88-2.296 2.02-3.836l1.46-16.726c.13-1.539-.31-2.889-1.33-4.049-.97-1.207-2.22-1.879-3.76-2.013l-16.72-1.464c-1.54-.134-2.92.307-4.13 1.324-1.16.969-1.8 2.224-1.94 3.764l-1.46 16.725c-.13 1.54.28 2.914 1.25 4.122 1.02 1.159 2.3 1.806 3.84 1.941l16.72 1.463c1.54.135 2.89-.282 4.05-1.251zm-2.03-21.846l-1.6 18.318-16.72-1.463 1.6-18.318 16.72 1.463z" fill="#A4CE2D"/><path d="M249.753 106.383l9.948.87-2.453 28.035-9.948-.87 2.453-28.035zm29.846 2.611l-1.808-.158-2.453 28.035 1.809.158 2.452-28.035zm-2.715-.237l-1.808-.158-2.453 28.035 1.809.158 2.452-28.035zm-6.33-.554l2.713.237-2.453 28.036-2.713-.238 2.453-28.035zm-2.713-.237l-5.426-.475-2.452 28.035 5.426.475 2.452-28.035zm-20.8-1.821l-15.374-1.345-2.453 28.036 15.374 1.345 2.453-28.036zm-40.697-3.56l23.513 2.057-2.453 28.036-23.513-2.057 2.453-28.036zM-63.588 78.971l-15.374-1.345-2.453 28.035 15.374 1.345 2.453-28.035zm32.558 2.848l-1.808-.158-2.453 28.035 1.809.158 2.452-28.035zm-2.71-.236l-1.81-.158-2.452 28.035 1.809.158 2.452-28.035zm-6.335-.555l2.713.237-2.452 28.036-2.714-.238 2.453-28.035zm-2.712-.237l-5.427-.475-2.452 28.035 5.426.475 2.453-28.035zm-18.085-1.582l9.948.87-2.453 28.035-9.948-.87 2.453-28.035zm-43.413-3.799l23.513 2.058-2.453 28.035-23.513-2.057 2.453-28.035zM-361.557 52.9l-9.948-.87-2.453 28.035 9.948.87 2.453-28.035zm18.09 1.583l1.808.159-2.452 28.035-1.809-.159 2.453-28.035zm-2.715-.237l1.809.158-2.453 28.035-1.809-.158 2.453-28.035zm-1.809-.158l-2.713-.238-2.452 28.036 2.713.237 2.452-28.035zm-10.852-.95l5.427.475-2.453 28.035-5.426-.474 2.452-28.036zm-30.748-2.69l15.374 1.345-2.453 28.035-15.374-1.345 2.453-28.035zm-1.81-.158l-23.513-2.057-2.453 28.035 23.513 2.057 2.453-28.035zm384.58 61.736l5.576.488 1.95-22.3c.136-1.54-.308-2.89-1.33-4.05-.965-1.208-2.217-1.88-3.756-2.014l-17.522-1.533-5.197 4.36 22.3 1.952-1.602 18.318-16.726-1.463.634-7.248 11.15.976 5.19-4.281-15.928-1.394c-1.54-.135-2.916.307-4.129 1.324-1.155.97-1.8 2.224-1.934 3.763l-.488 5.576c-.135 1.539.28 2.913 1.244 4.121 1.023 1.16 2.303 1.807 3.843 1.942l11.947 1.045 5.134-3.644-.355 4.062zm30.155 2.638l13.27-26.928-6.371-.558-9.601 22.595-1.593-.14-5.532-23.918-6.371-.557 8.074 28.795 8.124.711zm44.674 3.908l-22.3-1.951c-1.54-.134-2.82-.781-3.843-1.941-.964-1.208-1.38-2.582-1.244-4.121l1.463-16.726c.135-1.54.78-2.794 1.934-3.763 1.213-1.017 2.589-1.459 4.129-1.324l16.725 1.463c1.54.135 2.792.806 3.756 2.014 1.022 1.16 1.466 2.51 1.332 4.049l-.488 5.575-6.063 5.087-15.93-1.393 5.198-4.361 11.15.976.627-7.168-16.725-1.463-1.603 18.318 22.3 1.951-.418 4.778zm32.711 1.257c1.213-1.017 1.887-2.296 2.021-3.836l1.464-16.725c.134-1.54-.309-2.89-1.331-4.049-.965-1.208-2.217-1.88-3.757-2.014l-16.725-1.463c-1.54-.135-2.916.306-4.129 1.324-1.154.969-1.8 2.223-1.934 3.763l-1.463 16.726c-.135 1.539.28 2.913 1.244 4.121 1.022 1.16 2.303 1.807 3.843 1.941l16.725 1.464c1.54.134 2.888-.283 4.042-1.252zm-2.02-21.845l-1.603 18.318-16.726-1.463 1.603-18.319 16.725 1.464zm36.276-1.642l-5.276 4.354-13.46-1.178-1.603 18.319 16.725 1.463-.418 4.779-16.725-1.464c-1.54-.134-2.821-.782-3.843-1.941-.964-1.208-1.379-2.582-1.244-4.122l1.463-16.725c.135-1.54.779-2.794 1.934-3.763 1.213-1.018 2.589-1.46 4.129-1.324l18.318 1.602zm7.924 28.783l22.301 1.951.418-4.779-22.301-1.951 1.603-18.318 16.726 1.463-.628 7.168-11.15-.976-5.197 4.361 15.929 1.394 6.063-5.088.488-5.575c.135-1.54-.309-2.889-1.331-4.049-.965-1.208-2.217-1.88-3.756-2.014l-16.726-1.463c-1.54-.135-2.916.307-4.128 1.324-1.155.97-1.8 2.224-1.935 3.763l-1.463 16.726c-.135 1.54.28 2.913 1.244 4.121 1.023 1.16 2.304 1.807 3.843 1.942zm57.033-.629c-.135 1.54-.809 2.819-2.021 3.836-1.155.969-2.502 1.387-4.042 1.252l-16.726-1.463c-1.539-.135-2.82-.782-3.842-1.942-.965-1.208-1.38-2.582-1.245-4.121l1.463-16.726c.135-1.54.78-2.794 1.935-3.763 1.212-1.017 2.589-1.459 4.128-1.324l16.726 1.463c1.539.135 2.792.806 3.756 2.014 1.022 1.16 1.466 2.509 1.331 4.049l-1.463 16.725zm-5.645.309l1.603-18.318-16.726-1.463-1.602 18.318 16.725 1.463zm-506.161-39.467l-5.575-.488.355-4.062-5.134 3.644-11.947-1.045c-1.539-.135-2.82-.782-3.842-1.942-.965-1.207-1.38-2.581-1.245-4.121l.488-5.575c.135-1.54.779-2.794 1.934-3.763 1.213-1.018 2.589-1.46 4.129-1.325l15.929 1.394-5.19 4.28-11.15-.975-.634 7.248 16.725 1.463 1.603-18.318-22.301-1.951 5.197-4.36 17.522 1.532c1.539.135 2.792.806 3.756 2.014 1.022 1.16 1.466 2.51 1.331 4.05l-1.951 22.3zm37.85-24.778l-13.271 26.928-8.124-.71-8.074-28.796 6.372.557 5.531 23.919 1.593.14 9.601-22.595 6.372.557zm9.103 28.886l22.301 1.95.418-4.778-22.301-1.951 1.603-18.318 16.725 1.463-.627 7.168-11.15-.976-5.197 4.361 15.929 1.394 6.063-5.088.488-5.575c.134-1.54-.309-2.89-1.332-4.049-.964-1.208-2.216-1.879-3.756-2.014l-16.725-1.463c-1.54-.135-2.916.307-4.129 1.324-1.155.97-1.799 2.224-1.934 3.763l-1.463 16.726c-.135 1.54.28 2.913 1.244 4.121 1.022 1.16 2.303 1.807 3.843 1.942zm57.032-.628c-.134 1.54-.808 2.818-2.021 3.835-1.154.97-2.502 1.387-4.041 1.252l-16.726-1.463c-1.54-.135-2.821-.782-3.843-1.942-.964-1.208-1.379-2.581-1.244-4.121l1.463-16.726c.135-1.54.78-2.794 1.934-3.763 1.213-1.017 2.589-1.459 4.129-1.324l16.725 1.463c1.54.135 2.792.806 3.757 2.014 1.022 1.16 1.465 2.51 1.331 4.05l-1.464 16.725zm-5.644.308l1.602-18.318-16.725-1.463-1.603 18.318 16.726 1.463zm32.603-15.606l5.276-4.353-18.318-1.603c-1.54-.135-2.916.307-4.129 1.324-1.155.969-1.799 2.223-1.934 3.763l-1.463 16.726c-.135 1.54.28 2.913 1.244 4.121 1.022 1.16 2.303 1.807 3.843 1.941l16.725 1.464.419-4.779-16.726-1.463 1.603-18.319 13.46 1.178zm35.501 26.38l-22.301-1.951c-1.539-.135-2.82-.782-3.842-1.942-.965-1.207-1.38-2.581-1.245-4.121l1.463-16.725c.135-1.54.78-2.795 1.935-3.764 1.212-1.017 2.588-1.459 4.128-1.324l16.726 1.463c1.539.135 2.792.806 3.756 2.014 1.022 1.16 1.466 2.51 1.331 4.05l-.488 5.575-6.063 5.087-15.929-1.394 5.197-4.36 11.15.975.628-7.168-16.726-1.463-1.602 18.318 22.3 1.951-.418 4.779zm32.711 1.257c1.213-1.018 1.886-2.296 2.021-3.836l1.463-16.726c.135-1.54-.309-2.89-1.331-4.049-.964-1.208-2.216-1.879-3.756-2.014l-16.726-1.463c-1.539-.135-2.916.307-4.128 1.324-1.155.97-1.8 2.224-1.935 3.763l-1.463 16.726c-.134 1.54.28 2.914 1.245 4.121 1.022 1.16 2.303 1.807 3.843 1.942l16.725 1.463c1.54.135 2.887-.282 4.042-1.251zm-2.021-21.846l-1.603 18.318-16.725-1.463 1.602-18.318 16.726 1.463zM896.32 162.95l1.809.158-2.453 28.036-1.809-.159 2.453-28.035zm2.715.238l1.809.159-2.453 28.035-1.809-.158 2.453-28.036zm-4.523-.396l-2.713-.237-2.453 28.035 2.713.237 2.453-28.035zm-10.852-.949l5.426.474-2.453 28.036-5.426-.475 2.453-28.035zm-2.711-.237l-9.948-.87-2.453 28.035 9.948.871 2.453-28.036zm-28.038-2.453l15.374 1.345-2.453 28.035-15.374-1.345 2.453-28.035zm-1.806-.158l-23.513-2.057-2.453 28.035 23.514 2.057 2.452-28.035zm-308.819-27.018l15.374 1.345-2.453 28.035-15.374-1.345 2.453-28.035zm46.124 4.036l1.809.158-2.453 28.035-1.809-.158 2.453-28.035zm-2.715-.238l1.809.159-2.453 28.035-1.809-.159 2.453-28.035zm-1.808-.158l-2.713-.237-2.453 28.035 2.713.237 2.453-28.035zm-10.852-.949l5.426.474-2.453 28.036-5.426-.475 2.453-28.035zm-2.711-.237l-9.948-.871-2.453 28.035 9.948.871 2.453-28.035zm-29.847-2.612l-23.514-2.057-2.453 28.035 23.514 2.057 2.453-28.035zm73.947 34.558l5.575.488 1.951-22.3c.135-1.54-.309-2.89-1.331-4.049-.964-1.208-2.216-1.88-3.756-2.014l-17.522-1.533-5.197 4.36 22.301 1.951-1.603 18.319-16.725-1.464.634-7.247 11.15.975 5.19-4.281-15.929-1.393c-1.54-.135-2.916.306-4.128 1.324-1.155.969-1.8 2.223-1.935 3.763l-.488 5.575c-.134 1.54.281 2.914 1.245 4.122 1.022 1.159 2.303 1.806 3.843 1.941l11.947 1.045 5.134-3.643-.356 4.061zm30.154 2.639l13.271-26.928-6.372-.558-9.601 22.594-1.592-.139-5.532-23.918-6.372-.558 8.075 28.796 8.123.711zm44.675 3.908l-22.301-1.951c-1.539-.135-2.82-.782-3.842-1.941-.965-1.208-1.38-2.582-1.245-4.122l1.463-16.725c.135-1.54.78-2.794 1.935-3.763 1.212-1.018 2.588-1.459 4.128-1.325l16.726 1.464c1.539.134 2.791.806 3.756 2.014 1.022 1.159 1.466 2.509 1.331 4.049l-.488 5.575-6.063 5.087-15.929-1.394 5.197-4.36 11.15.975.628-7.168-16.726-1.463-1.603 18.318 22.301 1.951-.418 4.779zm32.711 1.257c1.212-1.018 1.886-2.296 2.021-3.836l1.463-16.725c.135-1.54-.309-2.89-1.331-4.049-.964-1.208-2.216-1.88-3.756-2.014l-16.726-1.464c-1.539-.134-2.916.307-4.128 1.324-1.155.969-1.8 2.224-1.935 3.764l-1.463 16.725c-.135 1.54.28 2.914 1.245 4.122 1.022 1.159 2.303 1.806 3.843 1.941l16.725 1.463c1.54.135 2.887-.282 4.042-1.251zm-2.021-21.846l-1.603 18.319-16.725-1.464 1.602-18.318 16.726 1.463zm36.277-1.641l-5.277 4.353-13.46-1.177-1.602 18.318 16.725 1.463-.418 4.779-16.726-1.463c-1.539-.135-2.82-.782-3.842-1.941-.965-1.208-1.38-2.582-1.245-4.122l1.463-16.725c.135-1.54.78-2.795 1.935-3.764 1.212-1.017 2.588-1.458 4.128-1.324l18.319 1.603zm7.924 28.782l22.3 1.951.418-4.778-22.3-1.952 1.603-18.318 16.725 1.463-.627 7.169-11.15-.976-5.197 4.361 15.929 1.393 6.063-5.087.487-5.575c.135-1.54-.309-2.89-1.331-4.049-.964-1.208-2.216-1.879-3.756-2.014l-16.725-1.463c-1.54-.135-2.916.306-4.129 1.324-1.155.969-1.8 2.223-1.934 3.763l-1.464 16.725c-.134 1.54.281 2.914 1.245 4.122 1.022 1.159 2.303 1.806 3.843 1.941zm57.032-.628c-.134 1.54-.808 2.818-2.021 3.836-1.155.969-2.502 1.386-4.042 1.251l-16.725-1.463c-1.54-.135-2.821-.782-3.843-1.941-.964-1.208-1.379-2.582-1.244-4.122l1.463-16.725c.135-1.54.779-2.794 1.934-3.763 1.213-1.018 2.589-1.459 4.129-1.325l16.725 1.464c1.54.134 2.792.806 3.756 2.014 1.023 1.159 1.466 2.509 1.332 4.049l-1.464 16.725zm-5.645.309l1.603-18.319-16.725-1.463-1.603 18.318 16.725 1.464zm-506.157-39.469l-5.575-.487.356-4.062-5.134 3.644-11.947-1.046c-1.54-.134-2.821-.781-3.843-1.941-.964-1.208-1.379-2.582-1.245-4.122l.488-5.575c.135-1.539.78-2.794 1.935-3.763 1.212-1.017 2.588-1.459 4.128-1.324l15.929 1.394-5.19 4.281-11.15-.976-.634 7.248 16.725 1.463 1.603-18.318-22.301-1.951 5.197-4.361 17.522 1.533c1.54.135 2.792.806 3.756 2.014 1.022 1.159 1.466 2.509 1.331 4.049l-1.951 22.3zm37.85-24.777l-13.271 26.928-8.123-.711-8.075-28.795 6.372.557 5.532 23.918 1.592.14 9.601-22.595 6.372.558zm9.103 28.885l22.301 1.951.418-4.778-22.301-1.951 1.603-18.319 16.725 1.464-.627 7.168-11.15-.976-5.197 4.361 15.929 1.393 6.063-5.087.488-5.575c.135-1.54-.309-2.89-1.331-4.049-.965-1.208-2.217-1.879-3.756-2.014l-16.726-1.463c-1.54-.135-2.916.306-4.128 1.324-1.155.969-1.8 2.223-1.935 3.763l-1.463 16.725c-.135 1.54.28 2.914 1.244 4.122 1.023 1.159 2.304 1.807 3.843 1.941zm57.033-.628c-.135 1.54-.809 2.819-2.021 3.836-1.155.969-2.502 1.386-4.042 1.252l-16.725-1.464c-1.54-.134-2.821-.782-3.843-1.941-.965-1.208-1.38-2.582-1.245-4.122l1.463-16.725c.135-1.54.78-2.794 1.935-3.763 1.212-1.018 2.589-1.459 4.128-1.324l16.726 1.463c1.539.135 2.792.806 3.756 2.014 1.022 1.159 1.466 2.509 1.331 4.049l-1.463 16.725zm-5.645.309l1.603-18.318-16.726-1.464-1.602 18.319 16.725 1.463zm32.603-15.606l5.276-4.354-18.318-1.603c-1.54-.134-2.916.307-4.128 1.325-1.155.969-1.8 2.223-1.935 3.763l-1.463 16.725c-.135 1.54.28 2.914 1.245 4.122 1.022 1.159 2.303 1.806 3.842 1.941l16.726 1.463.418-4.778-16.726-1.464 1.603-18.318 13.46 1.178zm35.501 26.379l-22.3-1.951c-1.54-.134-2.821-.781-3.843-1.941-.964-1.208-1.379-2.582-1.245-4.121l1.464-16.726c.134-1.54.779-2.794 1.934-3.763 1.213-1.018 2.589-1.459 4.129-1.324l16.725 1.463c1.54.135 2.792.806 3.756 2.014 1.022 1.159 1.466 2.509 1.331 4.049l-.487 5.575-6.063 5.087-15.929-1.393 5.197-4.361 11.15.976.627-7.168-16.725-1.464-1.603 18.319 22.3 1.951-.418 4.778zm32.711 1.257c1.213-1.017 1.887-2.296 2.021-3.836l1.464-16.725c.134-1.54-.309-2.89-1.332-4.049-.964-1.208-2.216-1.879-3.756-2.014l-16.725-1.463c-1.54-.135-2.916.306-4.129 1.324-1.155.969-1.799 2.223-1.934 3.763l-1.463 16.725c-.135 1.54.28 2.914 1.244 4.122 1.022 1.16 2.303 1.807 3.843 1.941l16.725 1.464c1.54.134 2.887-.283 4.042-1.252zm-2.021-21.845l-1.603 18.318-16.725-1.463 1.603-18.319 16.725 1.464zm687.681 55.349l-9.95-.871-2.45 28.035 9.94.871 2.46-28.035zm18.09 1.583l1.81.158-2.46 28.035-1.81-.158 2.46-28.035zm-2.72-.238l1.81.158-2.45 28.036-1.81-.159 2.45-28.035zm-1.81-.158l-2.71-.237-2.45 28.035 2.71.237 2.45-28.035zm-10.85-.949l5.43.474-2.45 28.036-5.43-.475 2.45-28.035zm-30.75-2.691l15.38 1.345-2.46 28.035-15.37-1.345 2.45-28.035zm-1.81-.158l-23.51-2.057-2.45 28.035 23.51 2.057 2.45-28.035zm340.48 29.787l-9.95-.87-2.45 28.035 9.94.871 2.46-28.036zm18.09 1.583l1.8.159-2.45 28.035-1.81-.158 2.46-28.036zm-2.72-.237l1.81.158-2.45 28.035-1.81-.158 2.45-28.035zm-1.81-.158l-2.71-.238-2.45 28.036 2.71.237 2.45-28.035zm-10.85-.95l5.43.475-2.46 28.035-5.42-.474 2.45-28.036zm-30.75-2.69l15.38 1.345-2.46 28.035-15.37-1.345 2.45-28.035zm-1.81-.158l-23.51-2.057-2.45 28.035 23.51 2.057 2.45-28.035zm-236.67 7.384l5.57.488 1.96-22.3c.13-1.54-.31-2.89-1.34-4.049-.96-1.208-2.21-1.88-3.75-2.014l-17.52-1.533-5.2 4.36 22.3 1.951-1.6 18.319-16.73-1.464.64-7.247 11.15.975 5.19-4.281-15.93-1.393c-1.54-.135-2.92.306-4.13 1.324-1.16.969-1.8 2.223-1.94 3.763l-.48 5.575c-.14 1.54.28 2.914 1.24 4.122 1.02 1.159 2.3 1.806 3.84 1.941l11.95 1.045 5.13-3.644-.35 4.062zm30.15 2.638l13.27-26.928-6.37-.557-9.6 22.594-1.59-.139-5.53-23.918-6.37-.558 8.07 28.796 8.12.71zm44.68 3.909l-22.3-1.951c-1.54-.135-2.82-.782-3.85-1.941-.96-1.208-1.37-2.582-1.24-4.122l1.46-16.725c.14-1.54.78-2.795 1.94-3.764 1.21-1.017 2.59-1.458 4.13-1.324l16.72 1.464c1.54.134 2.79.806 3.76 2.014 1.02 1.159 1.46 2.509 1.33 4.048l-.49 5.576-6.06 5.087-15.93-1.394 5.2-4.36 11.15.975.62-7.168-16.72-1.463-1.6 18.318 22.3 1.951-.42 4.779zm32.71 1.257c1.21-1.018 1.88-2.296 2.02-3.836l1.46-16.726c.14-1.539-.31-2.889-1.33-4.049-.96-1.207-2.21-1.879-3.75-2.013l-16.73-1.464c-1.54-.134-2.92.307-4.13 1.324-1.15.969-1.8 2.224-1.93 3.764l-1.47 16.725c-.13 1.54.28 2.914 1.25 4.122 1.02 1.159 2.3 1.806 3.84 1.941l16.73 1.463c1.54.135 2.88-.282 4.04-1.251zm-2.02-21.846l-1.61 18.318-16.72-1.463 1.6-18.318 16.73 1.463zm36.27-1.641l-5.27 4.353-13.46-1.177-1.6 18.318 16.72 1.463-.42 4.779-16.72-1.463c-1.54-.135-2.82-.782-3.85-1.942-.96-1.207-1.37-2.581-1.24-4.121l1.46-16.726c.14-1.539.78-2.794 1.94-3.763 1.21-1.017 2.59-1.459 4.13-1.324l18.31 1.603zm7.93 28.782l22.3 1.951.42-4.779-22.3-1.951 1.6-18.318 16.72 1.463-.62 7.168-11.15-.975-5.2 4.36 15.93 1.394 6.06-5.087.49-5.575c.14-1.54-.31-2.89-1.33-4.049-.97-1.208-2.22-1.88-3.76-2.014l-16.72-1.464c-1.54-.134-2.92.307-4.13 1.325-1.16.969-1.8 2.223-1.94 3.763l-1.46 16.725c-.13 1.54.28 2.914 1.25 4.122 1.02 1.159 2.3 1.806 3.84 1.941zm57.03-.628c-.13 1.54-.81 2.818-2.02 3.836-1.15.969-2.5 1.386-4.04 1.251l-16.73-1.463c-1.54-.135-2.82-.782-3.84-1.941-.96-1.208-1.38-2.582-1.24-4.122l1.46-16.725c.13-1.54.78-2.794 1.93-3.763 1.22-1.018 2.59-1.459 4.13-1.325l16.73 1.464c1.54.134 2.79.806 3.75 2.014 1.03 1.159 1.47 2.509 1.33 4.049l-1.46 16.725zm-5.64.309l1.6-18.319-16.73-1.463-1.6 18.318 16.73 1.464zm-506.169-39.47l-5.575-.487.356-4.062-5.134 3.643-11.947-1.045c-1.54-.134-2.821-.782-3.843-1.941-.964-1.208-1.379-2.582-1.244-4.122l.487-5.575c.135-1.54.78-2.794 1.935-3.763 1.212-1.017 2.588-1.459 4.128-1.324l15.929 1.393-5.19 4.281-11.15-.975-.634 7.248 16.725 1.463 1.603-18.318-22.301-1.951 5.197-4.361 17.522 1.533c1.54.135 2.792.806 3.756 2.014 1.022 1.159 1.466 2.509 1.331 4.049l-1.951 22.3zm37.85-24.777l-13.27 26.928-8.124-.711-8.075-28.795 6.372.557 5.532 23.918 1.593.14 9.6-22.595 6.372.558zm9.103 28.885l22.296 1.951.42-4.778-22.297-1.952 1.602-18.318 16.726 1.463-.628 7.169-11.15-.976-5.197 4.361 15.929 1.393 6.065-5.087.49-5.575c.13-1.54-.31-2.89-1.34-4.049-.96-1.208-2.21-1.879-3.751-2.014l-16.726-1.463c-1.54-.135-2.916.306-4.128 1.324-1.155.969-1.8 2.223-1.935 3.763l-1.463 16.725c-.135 1.54.28 2.914 1.245 4.122 1.022 1.159 2.303 1.806 3.842 1.941zm57.036-.628c-.14 1.54-.81 2.818-2.02 3.836-1.16.969-2.51 1.386-4.05 1.251l-16.72-1.463c-1.54-.135-2.82-.782-3.84-1.941-.97-1.208-1.38-2.582-1.25-4.122l1.46-16.725c.14-1.54.78-2.794 1.94-3.763 1.21-1.018 2.59-1.459 4.13-1.325l16.72 1.464c1.54.134 2.79.806 3.76 2.014 1.02 1.159 1.46 2.509 1.33 4.049l-1.46 16.725zm-5.65.309l1.6-18.319-16.72-1.463-1.6 18.318 16.72 1.464zm32.61-15.606l5.27-4.354-18.32-1.603c-1.54-.134-2.91.307-4.13 1.325-1.15.969-1.79 2.223-1.93 3.763l-1.46 16.725c-.14 1.54.28 2.914 1.24 4.122 1.02 1.159 2.3 1.806 3.84 1.941l16.73 1.463.42-4.778-16.73-1.464 1.61-18.318 13.46 1.178zm35.5 26.379l-22.3-1.951c-1.54-.134-2.82-.781-3.85-1.941-.96-1.208-1.38-2.582-1.24-4.122l1.46-16.725c.14-1.54.78-2.794 1.94-3.763 1.21-1.018 2.58-1.459 4.12-1.324l16.73 1.463c1.54.135 2.79.806 3.76 2.014 1.02 1.159 1.46 2.509 1.33 4.049l-.49 5.575-6.06 5.087-15.93-1.393 5.19-4.361 11.15.976.63-7.168-16.72-1.464-1.61 18.319 22.3 1.951-.41 4.778zm32.71 1.257c1.21-1.017 1.88-2.296 2.02-3.836l1.46-16.725c.14-1.54-.31-2.89-1.33-4.049-.96-1.208-2.22-1.879-3.76-2.014l-16.72-1.463c-1.54-.135-2.92.306-4.13 1.324-1.15.969-1.8 2.223-1.93 3.763l-1.47 16.725c-.13 1.54.28 2.914 1.25 4.122 1.02 1.159 2.3 1.807 3.84 1.941l16.73 1.464c1.54.134 2.88-.283 4.04-1.252zm-2.02-21.845l-1.61 18.318-16.72-1.463 1.6-18.319 16.73 1.464zm995.69 82.295l-9.95-.87-2.45 28.035 9.94.87 2.46-28.035zm18.09 1.583l1.8.158-2.45 28.035-1.81-.158 2.46-28.035zm-2.72-.237l1.81.158-2.45 28.035-1.81-.158 2.45-28.035zm-1.81-.159l-2.71-.237-2.45 28.035 2.71.238 2.45-28.036zm-10.85-.949l5.43.475-2.46 28.035-5.42-.475 2.45-28.035zm-30.75-2.691l15.38 1.345-2.46 28.036-15.37-1.345 2.45-28.036zm-1.81-.158l-23.51-2.057-2.45 28.036 23.51 2.057 2.45-28.036zm-280.78-24.565l-9.95-.87-2.45 28.035 9.95.87 2.45-28.035zm18.09 1.583l1.81.158-2.45 28.035-1.81-.158 2.45-28.035zm-2.71-.237l1.8.158-2.45 28.035-1.81-.158 2.46-28.035zm-1.81-.158l-2.72-.238-2.45 28.035 2.71.238 2.46-28.035zm-10.85-.95l5.42.475-2.45 28.035-5.43-.475 2.46-28.035zm-30.75-2.69l15.37 1.345-2.45 28.035-15.38-1.345 2.46-28.035zm-1.81-.158l-23.52-2.057-2.45 28.035 23.51 2.057 2.46-28.035zm73.95 34.559l5.57.488 1.96-22.301c.13-1.54-.31-2.889-1.34-4.049-.96-1.208-2.21-1.879-3.75-2.014l-17.52-1.533-5.2 4.361 22.3 1.951-1.6 18.318-16.73-1.463.64-7.248 11.15.976 5.19-4.281-15.93-1.394c-1.54-.135-2.92.307-4.13 1.324-1.16.969-1.8 2.224-1.94 3.764l-.48 5.575c-.14 1.539.28 2.913 1.24 4.121 1.02 1.16 2.3 1.807 3.84 1.942l11.95 1.045 5.13-3.644-.35 4.062zm30.15 2.638l13.27-26.928-6.37-.557-9.6 22.594-1.59-.14-5.53-23.918-6.37-.557 8.07 28.795 8.12.711zm44.68 3.909l-22.3-1.952c-1.54-.134-2.82-.781-3.85-1.941-.96-1.208-1.37-2.582-1.24-4.121l1.46-16.726c.14-1.54.78-2.794 1.94-3.763 1.21-1.018 2.59-1.459 4.13-1.324l16.72 1.463c1.54.135 2.79.806 3.76 2.014 1.02 1.16 1.46 2.509 1.33 4.049l-.49 5.575-6.06 5.087-15.93-1.393 5.2-4.361 11.15.976.62-7.168-16.72-1.464-1.6 18.319 22.3 1.951-.42 4.779zm32.71 1.256c1.21-1.017 1.88-2.296 2.02-3.836l1.46-16.725c.14-1.54-.31-2.889-1.33-4.049-.96-1.208-2.21-1.879-3.75-2.014l-16.73-1.463c-1.54-.135-2.92.306-4.13 1.324-1.15.969-1.8 2.223-1.93 3.763l-1.47 16.726c-.13 1.539.28 2.913 1.25 4.121 1.02 1.16 2.3 1.807 3.84 1.941l16.73 1.464c1.54.134 2.88-.283 4.04-1.252zm-2.02-21.845l-1.61 18.318-16.72-1.463 1.6-18.319 16.73 1.464zm36.27-1.642l-5.27 4.354-13.46-1.178-1.6 18.319 16.72 1.463-.42 4.779-16.72-1.464c-1.54-.134-2.82-.781-3.85-1.941-.96-1.208-1.37-2.582-1.24-4.122l1.46-16.725c.14-1.54.78-2.794 1.94-3.763 1.21-1.018 2.59-1.459 4.13-1.324l18.31 1.602zm7.93 28.783l22.3 1.951.42-4.779-22.3-1.951 1.6-18.318 16.72 1.463-.62 7.168-11.15-.976-5.2 4.361 15.93 1.394 6.06-5.088.49-5.575c.14-1.54-.31-2.889-1.33-4.049-.97-1.208-2.22-1.879-3.76-2.014l-16.72-1.463c-1.54-.135-2.92.307-4.13 1.324-1.16.969-1.8 2.224-1.94 3.763l-1.46 16.726c-.13 1.54.28 2.913 1.25 4.121 1.02 1.16 2.3 1.807 3.84 1.942zm57.03-.628c-.13 1.539-.81 2.818-2.02 3.835-1.15.969-2.5 1.387-4.04 1.252l-16.73-1.463c-1.54-.135-2.82-.782-3.84-1.942-.96-1.208-1.38-2.582-1.24-4.121l1.46-16.726c.13-1.539.78-2.794 1.93-3.763 1.22-1.017 2.59-1.459 4.13-1.324l16.73 1.463c1.54.135 2.79.806 3.75 2.014 1.03 1.16 1.47 2.509 1.33 4.049l-1.46 16.726zm-5.64.308l1.6-18.318-16.73-1.463-1.6 18.318 16.73 1.463zm-506.17-39.468l-5.57-.488.35-4.062-5.13 3.644-11.95-1.045c-1.54-.135-2.82-.782-3.84-1.941-.97-1.208-1.38-2.582-1.25-4.122l.49-5.575c.14-1.54.78-2.794 1.94-3.763 1.21-1.018 2.58-1.459 4.12-1.325l15.93 1.394-5.19 4.281-11.15-.976-.63 7.248 16.72 1.463 1.61-18.318-22.3-1.951 5.19-4.361 17.53 1.533c1.53.135 2.79.806 3.75 2.014 1.02 1.16 1.47 2.51 1.33 4.049l-1.95 22.301zm37.85-24.778l-13.27 26.928-8.12-.71-8.08-28.796 6.37.558 5.54 23.918 1.59.139 9.6-22.594 6.37.557zm9.1 28.886l22.31 1.951.41-4.779-22.3-1.951 1.61-18.318 16.72 1.463-.63 7.168-11.15-.975-5.19 4.36 15.93 1.394 6.06-5.088.49-5.575c.13-1.54-.31-2.889-1.34-4.049-.96-1.208-2.21-1.879-3.75-2.014l-16.73-1.463c-1.54-.135-2.91.307-4.13 1.324-1.15.969-1.79 2.224-1.93 3.763l-1.46 16.726c-.14 1.54.28 2.913 1.24 4.121 1.02 1.16 2.3 1.807 3.84 1.942zm57.04-.628c-.14 1.539-.81 2.818-2.02 3.835-1.16.97-2.51 1.387-4.05 1.252l-16.72-1.463c-1.54-.135-2.82-.782-3.84-1.942-.97-1.208-1.38-2.581-1.25-4.121l1.46-16.726c.14-1.539.78-2.794 1.94-3.763 1.21-1.017 2.59-1.459 4.13-1.324l16.72 1.463c1.54.135 2.79.806 3.76 2.014 1.02 1.16 1.46 2.509 1.33 4.049l-1.46 16.726zm-5.65.308l1.6-18.318-16.72-1.463-1.6 18.318 16.72 1.463zm32.61-15.606l5.27-4.353-18.32-1.603c-1.54-.135-2.91.307-4.13 1.324-1.15.969-1.79 2.223-1.93 3.763l-1.46 16.726c-.14 1.539.28 2.913 1.24 4.121 1.02 1.16 2.3 1.807 3.84 1.942l16.73 1.463.42-4.779-16.73-1.463 1.61-18.318 13.46 1.177zm35.5 26.38l-22.3-1.951c-1.54-.135-2.82-.782-3.85-1.941-.96-1.208-1.38-2.582-1.24-4.122l1.46-16.725c.14-1.54.78-2.795 1.94-3.764 1.21-1.017 2.58-1.459 4.12-1.324l16.73 1.463c1.54.135 2.79.807 3.76 2.014 1.02 1.16 1.46 2.51 1.33 4.049l-.49 5.576-6.06 5.087-15.93-1.394 5.19-4.36 11.15.975.63-7.168-16.72-1.463-1.61 18.318 22.3 1.951-.41 4.779zm32.71 1.257c1.21-1.018 1.88-2.296 2.02-3.836l1.46-16.726c.14-1.539-.31-2.889-1.33-4.049-.96-1.208-2.22-1.879-3.76-2.014l-16.72-1.463c-1.54-.135-2.92.307-4.13 1.324-1.15.969-1.8 2.224-1.93 3.764l-1.47 16.725c-.13 1.54.28 2.914 1.25 4.122 1.02 1.159 2.3 1.806 3.84 1.941l16.73 1.463c1.54.135 2.88-.282 4.04-1.251zm-2.02-21.846l-1.61 18.318-16.72-1.463 1.6-18.318 16.73 1.463z" fill="#1A1A1A"/></g></svg>