<svg width="28" height="21" viewBox="0 0 28 21" fill="none" xmlns="http://www.w3.org/2000/svg">
<path d="M2.05479 0.174345C1.27671 0.305853 0.569863 0.842838 0.20274 1.58805L0 1.999V10.2456V18.4976L0.169863 18.8538C0.482192 19.5113 1.06301 20.0209 1.73151 20.2291C2.05479 20.3278 2.43836 20.3333 14 20.3333C25.5616 20.3333 25.9452 20.3278 26.2685 20.2291C26.937 20.0209 27.5178 19.5113 27.8301 18.8538L28 18.4976V10.2456V1.999L27.7973 1.58805C27.474 0.935989 27.0027 0.514072 26.3178 0.267496L25.9726 0.141468L14.1644 0.13599C7.29315 0.13051 2.23014 0.146948 2.05479 0.174345ZM20.137 10.2237V18.525H11.2219C2.47671 18.525 2.29589 18.525 2.12603 18.4154C2.0274 18.3606 1.90685 18.2456 1.85205 18.1579C1.7589 18.0154 1.75342 17.6319 1.73699 10.4976C1.72603 6.37161 1.73699 2.85928 1.75342 2.70037C1.79726 2.36065 2.01644 2.05928 2.29589 1.98256C2.39452 1.95517 6.1589 1.92777 11.3041 1.92777L20.137 1.92229V10.2237ZM25.8685 2.06476C25.9507 2.12503 26.0712 2.24558 26.1315 2.32777C26.2466 2.47572 26.2466 2.48668 26.2466 10.2456C26.2466 17.6374 26.2411 18.0154 26.1479 18.1579C26.0932 18.2456 25.9726 18.3606 25.874 18.4154C25.7096 18.5196 25.5836 18.525 23.7973 18.525H21.8904V10.2237V1.91681L23.8027 1.93325C25.6384 1.94969 25.726 1.95517 25.8685 2.06476Z" fill="#A3A7AB"/>
<path d="M5.12315 3.24285C4.34507 3.37436 3.63822 3.91134 3.2711 4.65655L3.06836 5.06751V10.2456V15.4292L3.23822 15.7853C3.55055 16.4429 4.13137 16.9524 4.79987 17.1607C5.11767 17.2593 5.39713 17.2648 10.9314 17.2648C16.4656 17.2648 16.7451 17.2593 17.0629 17.1607C17.7314 16.9524 18.3122 16.4429 18.6245 15.7853L18.7944 15.4292V10.2456V5.06751L18.5916 4.65655C18.2684 4.00449 17.7971 3.58258 17.1122 3.336L16.767 3.20997L11.0958 3.2045C7.86836 3.19902 5.29302 3.21545 5.12315 3.24285ZM16.6629 5.13326C16.7451 5.19354 16.8656 5.31408 16.9259 5.39628C17.041 5.54422 17.041 5.58258 17.041 10.2456C17.041 14.6785 17.0355 14.947 16.9423 15.0894C16.8875 15.1771 16.767 15.2922 16.6684 15.347C16.4985 15.4511 16.3451 15.4566 10.9314 15.4566C5.51767 15.4566 5.36425 15.4511 5.19439 15.347C4.79439 15.1059 4.82178 15.4456 4.80535 10.4976C4.79439 8.05929 4.80535 5.92778 4.82178 5.76888C4.86562 5.42915 5.0848 5.13326 5.36425 5.05107C5.46288 5.01819 7.80808 5.00176 11.0245 5.00723C16.4766 5.01819 16.5149 5.01819 16.6629 5.13326Z" fill="#A3A7AB"/>
<path d="M23.7914 5.88947C23.3859 6.03741 23.2051 6.3059 23.2051 6.7607C23.2051 6.97988 23.238 7.1059 23.3311 7.24289C23.6654 7.747 24.4982 7.747 24.8325 7.24289C25.0078 6.98536 25.0078 6.50316 24.8325 6.25111C24.6023 5.9059 24.164 5.75248 23.7914 5.88947Z" fill="#A3A7AB"/>
<path d="M23.7914 9.39625C23.3859 9.5442 23.2051 9.81269 23.2051 10.2675C23.2051 10.4867 23.238 10.6127 23.3311 10.7497C23.6654 11.2538 24.4873 11.2538 24.838 10.7442C25.0078 10.4921 25.0078 10.0099 24.8325 9.75789C24.6023 9.41269 24.164 9.25926 23.7914 9.39625Z" fill="#A3A7AB"/>
<path d="M23.7914 12.9031C23.3859 13.051 23.2051 13.3195 23.2051 13.7743C23.2051 13.9935 23.238 14.1195 23.3311 14.2565C23.6654 14.7606 24.4873 14.7606 24.838 14.251C25.0078 13.999 25.0078 13.5168 24.8325 13.2647C24.6023 12.9195 24.164 12.7661 23.7914 12.9031Z" fill="#A3A7AB"/>
</svg>
