<svg width="28" height="24" viewBox="0 0 28 24" fill="none" xmlns="http://www.w3.org/2000/svg">
<path d="M3.99905 0.503017C3.62155 0.689028 3.43007 0.891453 3.24406 1.29083L3.11275 1.56438V8.23345V14.908L1.56995 18.2179L0.0271481 21.5333L0.00526439 21.9819C-0.0275612 22.6111 0.0873284 22.9065 0.514061 23.3442C1.07757 23.9131 -0.394114 23.8584 13.9999 23.8584C28.3939 23.8584 26.9168 23.9131 27.4912 23.3442C27.918 22.9174 28.0274 22.622 27.9946 21.9819L27.9727 21.5333L26.4299 18.2124L24.8871 14.897V8.22798V1.56438L24.7558 1.29083C24.5698 0.891453 24.3783 0.689028 24.0008 0.503017L23.6671 0.333418H13.9999H4.33277L3.99905 0.503017ZM23.2458 8.15686V14.339H14.0273H4.80874V8.15686V1.9747H14.0273H23.2458V8.15686ZM24.909 19.0057C25.6804 20.6689 26.3095 22.0585 26.3095 22.0968C26.3095 22.1296 26.2548 22.1734 26.1892 22.1898C26.118 22.2062 24.3783 22.2117 22.3157 22.2062L18.5681 22.1898L18.0976 20.6744C17.835 19.8428 17.5834 19.1097 17.5396 19.0385C17.4904 18.9729 17.3809 18.8744 17.2989 18.8197C17.1566 18.7212 16.9706 18.7158 14.0054 18.7158C10.9417 18.7158 10.8651 18.7158 10.6845 18.8252C10.4438 18.9784 10.3672 19.1589 9.86389 20.8057L9.43168 22.2172H5.6458C3.56684 22.2172 1.82709 22.2007 1.77785 22.1843C1.72861 22.1679 1.69031 22.1242 1.69031 22.0913C1.69031 22.064 2.31947 20.6744 3.09634 19.0057L4.4969 15.9803H13.9999H23.5029L24.909 19.0057ZM16.5001 21.2707C16.6533 21.774 16.7737 22.1953 16.7682 22.2007C16.7573 22.2117 15.5099 22.2117 13.989 22.2062L11.2207 22.1898L11.4778 21.3637C11.6255 20.9096 11.7568 20.4938 11.7732 20.4446C11.8061 20.368 12.0249 20.357 14.0109 20.357H16.2156L16.5001 21.2707Z" fill="#A3A7AB"/>
</svg>
