<svg width="26" height="22" viewBox="0 0 26 22" fill="none" xmlns="http://www.w3.org/2000/svg">
<path d="M1.23953 0.141216C0.793605 0.341892 0.415698 0.698648 0.196512 1.12973L0 1.51622V8.77027V16.0243L0.196512 16.4108C0.415698 16.8419 0.793605 17.1986 1.23953 17.3993C1.5343 17.5257 1.8593 17.5405 6.825 17.5405H12.093V18.8784V20.2162H9.96919H7.84535L7.58837 20.4689C7.36163 20.6919 7.3314 20.7662 7.3314 21.1081C7.3314 21.45 7.36163 21.5243 7.58837 21.7473L7.84535 22H13H18.1547L18.4116 21.7473C18.6384 21.5243 18.6686 21.45 18.6686 21.1081C18.6686 20.7662 18.6384 20.6919 18.4116 20.4689L18.1547 20.2162H16.0308H13.907V18.8784V17.5405H19.1826H24.4581L24.8512 17.3473C25.2895 17.1318 25.6523 16.7601 25.8564 16.3216C25.9924 16.0318 26 15.6601 26 8.77027C26 1.88041 25.9924 1.50878 25.8564 1.21892C25.6523 0.780405 25.2895 0.408785 24.8512 0.193243L24.4581 0H13.0076C2.03314 0 1.5343 0.00743294 1.23953 0.141216ZM24.0349 1.93243C24.186 2.08108 24.186 2.1777 24.186 8.77027C24.186 15.3628 24.186 15.4595 24.0349 15.6081C23.8837 15.7568 23.7855 15.7568 13 15.7568C2.21453 15.7568 2.11628 15.7568 1.96512 15.6081C1.81395 15.4595 1.81395 15.3628 1.81395 8.77027C1.81395 2.1777 1.81395 2.08108 1.96512 1.93243C2.11628 1.78378 2.21453 1.78378 13 1.78378C23.7855 1.78378 23.8837 1.78378 24.0349 1.93243Z" fill="#A3A7AB"/>
</svg>
