<svg width="26" height="18" viewBox="0 0 26 18" fill="none" xmlns="http://www.w3.org/2000/svg">
<path d="M24.7605 17.8561C25.2064 17.6515 25.5843 17.2877 25.8035 16.8482L26 16.4541V9.05764V1.66119L25.8035 1.26711C25.5843 0.82757 25.2064 0.46381 24.7605 0.259195C24.4657 0.130363 24.1407 0.115207 19.175 0.115206L13.907 0.115206C13.907 0.463809 14.1337 -0.112144 13.907 0.115206C13.907 -0.233397 14.1337 0.342556 13.907 0.115206L12.093 0.115206C11.8663 0.342556 12.093 -0.233397 12.093 0.115206C11.8663 -0.112144 12.093 0.463809 12.093 0.115206L6.81744 0.115205L1.54186 0.115205L1.14884 0.312241C0.710466 0.532013 0.347676 0.910929 0.143606 1.35805C0.00755952 1.65361 6.14192e-07 2.03252 0 9.05763C-6.14117e-07 16.0827 0.00755823 16.4617 0.143605 16.7572C0.347674 17.2043 0.710464 17.5833 1.14884 17.803L1.54186 18.0001H12.9924C23.9669 18.0001 24.4657 17.9925 24.7605 17.8561ZM1.96512 16.0297C1.81395 15.8781 1.81395 15.7796 1.81395 9.05763C1.81395 2.33566 1.81395 2.23714 1.96512 2.08557C2.11628 1.934 2.21453 1.934 13 1.934C23.7855 1.93401 23.8837 1.93401 24.0349 2.08557C24.186 2.23714 24.186 2.33566 24.186 9.05764C24.186 15.7796 24.186 15.8781 24.0349 16.0297C23.8837 16.1813 23.7855 16.1813 13 16.1813C2.21453 16.1813 2.11628 16.1813 1.96512 16.0297Z" fill="#A3A7AB"/>
</svg>
