<svg width="28" height="28" viewBox="0 0 28 28" fill="none" xmlns="http://www.w3.org/2000/svg">
<path d="M6.89062 0.126762C5.95 0.449408 5.28281 1.13844 5.00938 2.07357C4.93281 2.34153 4.92188 3.4079 4.92188 12.7263V23.0783H4.23281C3.37969 23.0783 2.92031 23.1767 2.24219 23.4994C1.79375 23.7181 1.65703 23.8166 1.20312 24.2759C0.754687 24.7243 0.639844 24.8775 0.426562 25.3204C0.114844 25.9602 0 26.4196 0 27.0211C0 27.5297 0.0765625 27.7047 0.360938 27.8961C0.514062 27.9945 0.716406 28 5.74219 28C10.768 28 10.9703 27.9945 11.1234 27.8961C11.4078 27.7102 11.4844 27.5242 11.4844 27.0375C11.4844 26.4688 11.3313 25.8563 11.0359 25.2657C10.85 24.8884 10.7078 24.7025 10.2812 24.2814C9.86016 23.8548 9.67422 23.7127 9.29688 23.5267C8.61875 23.1877 8.11562 23.0783 7.2625 23.0783H6.5625L6.57344 12.8357C6.58984 2.96494 6.59531 2.59308 6.69375 2.40715C6.93984 1.94232 7.32812 1.69077 7.79297 1.69077C8.25781 1.69077 8.64609 1.94232 8.89219 2.40715C8.99062 2.59308 8.99609 2.91573 9.02344 10.1178L9.05078 17.6371L9.17109 17.9214C9.54297 18.8292 10.2047 19.4472 11.0961 19.7097C11.3203 19.7753 11.632 19.7972 12.3156 19.7972H13.2289L13.2453 23.0072L13.2617 26.2227L13.4477 26.6055C13.6937 27.1086 14.1258 27.5406 14.6289 27.7867L15.0117 27.9727L19.7367 27.9891C25.1016 28.0055 24.8719 28.0219 25.8125 27.5516C26.1898 27.3656 26.3758 27.2235 26.7969 26.7969C27.2234 26.3758 27.3656 26.1899 27.5516 25.8126C27.8742 25.1673 28 24.6204 28 23.8986C28 23.1767 27.8687 22.6244 27.5516 21.9846C27.3656 21.6127 27.218 21.4213 26.8242 21.0276C26.2609 20.4643 25.8234 20.1854 25.1727 19.9831L24.7188 19.8409L24.7078 15.045L24.6914 10.2545L24.5164 9.88814C24.0953 8.99129 23.2805 8.46631 22.3125 8.46084C21.0383 8.45538 18.8398 9.37409 17.3086 10.5498C15.5312 11.9115 14.1039 14.1044 13.5406 16.3246C13.4258 16.7949 13.2344 17.8886 13.2344 18.1019C13.2344 18.2168 11.6758 18.1511 11.4297 18.0254C11.1672 17.8886 10.9484 17.6754 10.8117 17.4183L10.6914 17.1996L10.6641 9.68033L10.6367 2.16107L10.5164 1.8767C10.1445 0.957983 9.48828 0.350973 8.59141 0.0884819C8.1375 -0.0427628 7.33359 -0.0263577 6.89062 0.126762ZM22.7008 10.2873C23.0727 10.5498 23.0508 10.2655 23.0672 15.2911L23.0836 19.8354L22.6297 19.9776C21.9734 20.1854 21.5359 20.4643 20.9727 21.0276C20.4039 21.5909 20.0922 22.1377 19.9062 22.8814C19.7586 23.4611 19.7586 24.3743 19.9008 24.9212C20.0047 25.3259 20.2398 25.8618 20.4586 26.1844L20.5789 26.3649L18.0414 26.3485C15.5422 26.3321 15.4984 26.3321 15.3125 26.2118C14.9789 26.004 14.9078 25.818 14.8859 25.0743L14.8641 24.4181L15.3289 24.265C15.5859 24.1829 16.0617 23.9806 16.3898 23.822C18.9109 22.5807 20.6281 20.3823 21.2844 17.5441C21.3937 17.0629 21.4047 16.8605 21.432 13.6724L21.4648 10.3092L21.8477 10.2163C22.2852 10.1069 22.4766 10.1233 22.7008 10.2873ZM19.7805 13.8911C19.7477 16.7566 19.7312 16.9535 19.3867 17.9761C19.0258 19.0589 18.4898 19.9448 17.6859 20.7815C16.9586 21.5362 16.0836 22.1322 15.0719 22.5533L14.8586 22.6408L14.8914 20.3878C14.9133 18.4191 14.9352 18.0472 15.0336 17.4785C15.2633 16.1879 15.843 14.8044 16.6141 13.7271C17.2922 12.7755 18.3805 11.7857 19.3594 11.2279L19.7695 10.9928L19.7914 11.1404C19.7969 11.2279 19.7969 12.4638 19.7805 13.8911ZM24.8992 21.6948C25.3914 21.9299 25.8672 22.4002 26.1023 22.8978C26.2664 23.2478 26.2773 23.3025 26.2773 23.8986C26.2773 24.4947 26.2664 24.5493 26.1023 24.8993C25.8672 25.397 25.3969 25.8673 24.8992 26.1024C24.5492 26.2665 24.4945 26.2774 23.8984 26.2774C23.3023 26.2774 23.2477 26.2665 22.8977 26.1024C22.4 25.8673 21.9297 25.397 21.6945 24.8993C21.5305 24.5493 21.5195 24.4947 21.5195 23.8986C21.5195 23.3025 21.5305 23.2478 21.6945 22.8978C21.8969 22.4713 22.3781 21.9572 22.75 21.7658C23.193 21.5362 23.4062 21.4924 23.9805 21.5088C24.4672 21.5198 24.5711 21.5416 24.8992 21.6948ZM7.65078 24.7736C8.43828 24.8775 9.15469 25.3587 9.51016 26.0313L9.68516 26.3594H5.74219H1.79922L1.97422 26.0313C2.31875 25.3806 3.05703 24.872 3.78437 24.779C4.27656 24.7134 7.16406 24.7134 7.65078 24.7736Z" fill="#A3A7AB"/>
</svg>
