<svg width="19" height="28" viewBox="0 0 19 28" fill="none" xmlns="http://www.w3.org/2000/svg">
<path d="M4.4974 0.12031C4.11459 0.382809 4.11459 0.382811 4.11459 2.77264V4.92184H3.55132C2.65445 4.92184 2.14039 5.10231 1.59899 5.6109C1.46227 5.73668 1.27633 5.97183 1.17789 6.13589C0.81696 6.73198 0.833366 6.36011 0.833366 13.9999C0.833366 20.0592 0.844303 20.9616 0.915397 21.2459C1.14508 22.1155 1.8943 22.8264 2.79116 23.0178C2.94976 23.0506 3.31616 23.078 3.59506 23.078H4.11459V25.2272C4.11459 27.617 4.11459 27.617 4.4974 27.874L4.67787 27.9998H8.25441C12.252 27.9998 12.0278 28.0217 12.2794 27.617C12.3997 27.431 12.3997 27.3764 12.4161 25.249L12.4325 23.078H12.963C13.8544 23.078 14.4614 22.8537 14.9809 22.3342C15.309 22.0061 15.5661 21.5194 15.6536 21.06C15.6864 20.8905 15.7083 19.8569 15.7083 18.6428V16.521L17.07 16.5046C18.5903 16.4882 18.5903 16.4882 18.8692 16.078C18.9895 15.8975 18.9895 15.8757 18.9895 13.9999C18.9895 12.1241 18.9895 12.1023 18.8692 11.9218C18.5903 11.5116 18.5903 11.5116 17.07 11.4952L15.7083 11.4788V9.35696C15.7083 8.14291 15.6864 7.10932 15.6536 6.93979C15.4731 5.99371 14.7075 5.18981 13.7887 4.98199C13.6575 4.94918 13.2966 4.92184 12.9903 4.92184H12.4325L12.4161 2.74529C12.3997 0.333591 12.3997 0.34453 12.0278 0.114843C11.8419 0 11.7981 0 8.25987 0H4.67787L4.4974 0.12031ZM10.7317 3.28123V4.92184H8.27081H5.80989V3.28123V1.64061H8.27081H10.7317V3.28123ZM13.5755 6.71557C13.6958 6.7812 13.8161 6.90698 13.8926 7.05463L14.013 7.29526V13.9944C14.013 20.5788 14.013 20.6936 13.9036 20.9178C13.8325 21.06 13.7176 21.1858 13.5809 21.2623L13.3677 21.3827L8.20519 21.3717L3.03726 21.3553L2.84038 21.2022C2.7146 21.1092 2.62163 20.978 2.58335 20.8467C2.5396 20.7045 2.52867 18.5991 2.5396 13.8796C2.55601 7.13667 2.55601 7.11479 2.67085 6.96167C2.73101 6.87964 2.86773 6.76479 2.97163 6.71557C3.14663 6.62261 3.51303 6.61714 8.27081 6.61714C13.1161 6.61714 13.395 6.62261 13.5755 6.71557ZM17.2942 13.9999V14.8202H16.5012H15.7083V13.9999V13.1796H16.5012H17.2942V13.9999ZM10.7317 24.7186V26.3592H8.27081H5.80989V24.7186V23.078H8.27081H10.7317V24.7186Z" fill="#A3A7AB"/>
</svg>
